<svg width="32" height="32" viewBox="0 0 32 32" fill="none" xmlns="http://www.w3.org/2000/svg">
    <path d="M30.4001 16C30.4001 8.04998 23.9501 1.59998 16.0001 1.59998C8.0501 1.59998 1.6001 8.04998 1.6001 16C1.6001 23.95 8.0501 30.4 16.0001 30.4C23.9501 30.4 30.4001 23.95 30.4001 16Z" stroke="#404040" stroke-miterlimit="10"/>
    <ellipse cx="26.6666" cy="5.33333" rx="5.33333" ry="5.33333" fill="#FF808D"/>
    <ellipse cx="26.6666" cy="5.33333" rx="1.33333" ry="1.33333" fill="white"/>
    <path d="M24.1899 20.2751C22.9651 18.8246 22.1004 18.2148 22.1004 14.2151C22.1004 10.5506 20.1669 9.24781 18.5754 8.61481C18.4656 8.56901 18.3666 8.50079 18.2847 8.41452C18.2029 8.32825 18.1399 8.22583 18.0999 8.11382C17.8216 7.19507 17.0409 6.40006 15.9999 6.40006C14.9589 6.40006 14.1766 7.19507 13.8999 8.11457C13.8601 8.22659 13.7973 8.32905 13.7156 8.41534C13.6338 8.50163 13.5349 8.56983 13.4251 8.61556C11.8321 9.25006 9.90013 10.5506 9.90013 14.2158C9.90013 18.2156 9.03463 18.8253 7.80988 20.2758C7.30213 20.8758 7.76113 22.0008 8.64913 22.0008H23.3499C24.2326 22.0001 24.6954 20.8751 24.1899 20.2751Z" fill="#404040"/>
    <path d="M13.3178 23.2C13.2756 23.1998 13.2338 23.2084 13.1952 23.2254C13.1566 23.2424 13.122 23.2674 13.0937 23.2987C13.0654 23.33 13.044 23.3669 13.0309 23.407C13.0178 23.4471 13.0133 23.4895 13.0178 23.5315C13.1865 24.9355 14.433 25.6 15.9998 25.6C17.55 25.6 18.7853 24.9138 18.9743 23.536C18.9794 23.4937 18.9754 23.4508 18.9626 23.4101C18.9499 23.3695 18.9286 23.332 18.9002 23.3002C18.8718 23.2684 18.837 23.243 18.798 23.2257C18.7591 23.2085 18.7169 23.1997 18.6743 23.2H13.3178Z" fill="#404040"/>
</svg>
