<svg width="33" height="32" viewBox="0 0 33 32" fill="none" xmlns="http://www.w3.org/2000/svg">
    <g clip-path="url(#clip0_1_757)">
        <path d="M26.75 1H25.75C24.4239 1 23.1521 1.52678 22.2145 2.46447C21.2768 3.40215 20.75 4.67392 20.75 6V15.5L22.25 17L23.75 15.5L25.25 17L26.75 15.5L28.25 17L29.75 15.5L31.75 17V6C31.75 5.34339 31.6207 4.69321 31.3694 4.08658C31.1181 3.47995 30.7498 2.92876 30.2855 2.46447C29.8212 2.00017 29.27 1.63188 28.6634 1.3806C28.0568 1.12933 27.4066 1 26.75 1Z" fill="#FF808D"/>
        <path d="M11.25 13.5C13.7353 13.5 15.75 11.4853 15.75 9C15.75 6.51472 13.7353 4.5 11.25 4.5C8.76472 4.5 6.75 6.51472 6.75 9C6.75 11.4853 8.76472 13.5 11.25 13.5Z" fill="#FF808D"/>
        <path d="M7.25 26.5H15.25V28.5H7.25V26.5Z" fill="#FF808D"/>
        <path d="M26.75 0.5H6.75C5.29182 0.501654 3.89383 1.08165 2.86274 2.11274C1.83165 3.14383 1.25165 4.54182 1.25 6V31C1.25 31.1326 1.30268 31.2598 1.39645 31.3536C1.49021 31.4473 1.61739 31.5 1.75 31.5H20.75C20.8826 31.5 21.0098 31.4473 21.1036 31.3536C21.1973 31.2598 21.25 31.1326 21.25 31V16.7069L21.8962 17.3538C21.9902 17.4474 22.1174 17.5 22.25 17.5C22.3826 17.5 22.5098 17.4474 22.6038 17.3538L23.75 16.2069L24.8962 17.3538C24.9902 17.4474 25.1174 17.5 25.25 17.5C25.3826 17.5 25.5098 17.4474 25.6038 17.3538L26.75 16.2069L27.8962 17.3538C27.9902 17.4474 28.1174 17.5 28.25 17.5C28.3826 17.5 28.5098 17.4474 28.6038 17.3538L29.7969 16.16L31.45 17.4C31.5243 17.4557 31.6126 17.4896 31.7051 17.498C31.7976 17.5063 31.8906 17.4887 31.9736 17.4472C32.0567 17.4057 32.1265 17.3419 32.1753 17.2629C32.2241 17.1839 32.25 17.0929 32.25 17V6C32.2483 4.54182 31.6684 3.14383 30.6373 2.11274C29.6062 1.08165 28.2082 0.501654 26.75 0.5ZM20.25 6V30.5H2.25V6C2.25137 4.80695 2.72592 3.66315 3.56954 2.81954C4.41315 1.97592 5.55695 1.50137 6.75 1.5H22.5912C21.8683 2.00692 21.2781 2.68052 20.8706 3.46381C20.463 4.2471 20.2502 5.11704 20.25 6ZM31.25 16L30.05 15.1C29.9537 15.0278 29.8346 14.9928 29.7145 15.0013C29.5944 15.0098 29.4815 15.0612 29.3962 15.1462L28.25 16.2931L27.1038 15.1462C27.0098 15.0526 26.8826 15 26.75 15C26.6174 15 26.4902 15.0526 26.3962 15.1462L25.25 16.2931L24.1038 15.1462C24.0098 15.0526 23.8826 15 23.75 15C23.6174 15 23.4902 15.0526 23.3962 15.1462L22.25 16.2931L21.25 15.2931V6C21.2514 4.80695 21.7259 3.66315 22.5695 2.81954C23.4132 1.97592 24.5569 1.50137 25.75 1.5H26.75C27.9431 1.50137 29.0868 1.97592 29.9305 2.81954C30.7741 3.66315 31.2486 4.80695 31.25 6V16Z" fill="#404040"/>
        <path d="M10.25 10.5C10.1174 10.5 9.99021 10.5527 9.89645 10.6464C9.80268 10.7402 9.75 10.8674 9.75 11C9.75 11.1326 9.80268 11.2598 9.89645 11.3536C9.99021 11.4473 10.1174 11.5 10.25 11.5H10.75C10.75 11.6326 10.8027 11.7598 10.8964 11.8536C10.9902 11.9473 11.1174 12 11.25 12C11.3826 12 11.5098 11.9473 11.6036 11.8536C11.6973 11.7598 11.75 11.6326 11.75 11.5H12.25C12.3826 11.5 12.5098 11.4473 12.6036 11.3536C12.6973 11.2598 12.75 11.1326 12.75 11V9C12.75 8.86739 12.6973 8.74021 12.6036 8.64645C12.5098 8.55268 12.3826 8.5 12.25 8.5H10.75V7.5H12.25C12.3826 7.5 12.5098 7.44732 12.6036 7.35355C12.6973 7.25979 12.75 7.13261 12.75 7C12.75 6.86739 12.6973 6.74021 12.6036 6.64645C12.5098 6.55268 12.3826 6.5 12.25 6.5H11.75C11.75 6.36739 11.6973 6.24021 11.6036 6.14645C11.5098 6.05268 11.3826 6 11.25 6C11.1174 6 10.9902 6.05268 10.8964 6.14645C10.8027 6.24021 10.75 6.36739 10.75 6.5H10.25C10.1174 6.5 9.99021 6.55268 9.89645 6.64645C9.80268 6.74021 9.75 6.86739 9.75 7V9C9.75 9.13261 9.80268 9.25979 9.89645 9.35355C9.99021 9.44732 10.1174 9.5 10.25 9.5H11.75V10.5H10.25Z" fill="#404040"/>
        <path d="M11.25 14C12.2389 14 13.2056 13.7068 14.0279 13.1573C14.8501 12.6079 15.491 11.827 15.8694 10.9134C16.2478 9.99979 16.3469 8.99445 16.1539 8.02455C15.961 7.05464 15.4848 6.16373 14.7855 5.46447C14.0863 4.76521 13.1954 4.289 12.2255 4.09608C11.2555 3.90315 10.2502 4.00217 9.33658 4.3806C8.42295 4.75904 7.64206 5.3999 7.09265 6.22215C6.54324 7.0444 6.25 8.01109 6.25 9C6.25151 10.3256 6.77877 11.5965 7.71613 12.5339C8.65348 13.4712 9.92438 13.9985 11.25 14ZM11.25 5C12.0411 5 12.8145 5.2346 13.4723 5.67412C14.1301 6.11365 14.6428 6.73836 14.9455 7.46927C15.2483 8.20017 15.3275 9.00444 15.1731 9.78036C15.0188 10.5563 14.6378 11.269 14.0784 11.8284C13.519 12.3878 12.8063 12.7688 12.0304 12.9231C11.2544 13.0775 10.4502 12.9983 9.71927 12.6955C8.98836 12.3928 8.36365 11.8801 7.92412 11.2223C7.4846 10.5645 7.25 9.79113 7.25 9C7.25119 7.9395 7.673 6.92278 8.42289 6.17289C9.17278 5.423 10.1895 5.00119 11.25 5Z" fill="#404040"/>
        <path d="M18.25 8.5H17.25C17.1174 8.5 16.9902 8.55268 16.8964 8.64645C16.8027 8.74021 16.75 8.86739 16.75 9C16.75 9.13261 16.8027 9.25979 16.8964 9.35355C16.9902 9.44732 17.1174 9.5 17.25 9.5H18.25C18.3826 9.5 18.5098 9.44732 18.6036 9.35355C18.6973 9.25979 18.75 9.13261 18.75 9C18.75 8.86739 18.6973 8.74021 18.6036 8.64645C18.5098 8.55268 18.3826 8.5 18.25 8.5Z" fill="#404040"/>
        <path d="M5.75 9C5.75 8.86739 5.69732 8.74021 5.60355 8.64645C5.50979 8.55268 5.38261 8.5 5.25 8.5H4.25C4.11739 8.5 3.99021 8.55268 3.89645 8.64645C3.80268 8.74021 3.75 8.86739 3.75 9C3.75 9.13261 3.80268 9.25979 3.89645 9.35355C3.99021 9.44732 4.11739 9.5 4.25 9.5H5.25C5.38261 9.5 5.50979 9.44732 5.60355 9.35355C5.69732 9.25979 5.75 9.13261 5.75 9Z" fill="#404040"/>
        <path d="M17.25 15.5H5.25C5.11739 15.5 4.99021 15.5527 4.89645 15.6464C4.80268 15.7402 4.75 15.8674 4.75 16C4.75 16.1326 4.80268 16.2598 4.89645 16.3536C4.99021 16.4473 5.11739 16.5 5.25 16.5H17.25C17.3826 16.5 17.5098 16.4473 17.6036 16.3536C17.6973 16.2598 17.75 16.1326 17.75 16C17.75 15.8674 17.6973 15.7402 17.6036 15.6464C17.5098 15.5527 17.3826 15.5 17.25 15.5Z" fill="#404040"/>
        <path d="M17.25 17.5H5.25C5.11739 17.5 4.99021 17.5527 4.89645 17.6464C4.80268 17.7402 4.75 17.8674 4.75 18C4.75 18.1326 4.80268 18.2598 4.89645 18.3536C4.99021 18.4473 5.11739 18.5 5.25 18.5H17.25C17.3826 18.5 17.5098 18.4473 17.6036 18.3536C17.6973 18.2598 17.75 18.1326 17.75 18C17.75 17.8674 17.6973 17.7402 17.6036 17.6464C17.5098 17.5527 17.3826 17.5 17.25 17.5Z" fill="#404040"/>
        <path d="M17.25 19.5H5.25C5.11739 19.5 4.99021 19.5527 4.89645 19.6464C4.80268 19.7402 4.75 19.8674 4.75 20C4.75 20.1326 4.80268 20.2598 4.89645 20.3536C4.99021 20.4473 5.11739 20.5 5.25 20.5H17.25C17.3826 20.5 17.5098 20.4473 17.6036 20.3536C17.6973 20.2598 17.75 20.1326 17.75 20C17.75 19.8674 17.6973 19.7402 17.6036 19.6464C17.5098 19.5527 17.3826 19.5 17.25 19.5Z" fill="#404040"/>
        <path d="M15.25 26H7.25C7.11739 26 6.99021 26.0527 6.89645 26.1464C6.80268 26.2402 6.75 26.3674 6.75 26.5V28.5C6.75 28.6326 6.80268 28.7598 6.89645 28.8536C6.99021 28.9473 7.11739 29 7.25 29H15.25C15.3826 29 15.5098 28.9473 15.6036 28.8536C15.6973 28.7598 15.75 28.6326 15.75 28.5V26.5C15.75 26.3674 15.6973 26.2402 15.6036 26.1464C15.5098 26.0527 15.3826 26 15.25 26ZM14.75 28H7.75V27H14.75V28Z" fill="#404040"/>
    </g>
    <defs>
        <clipPath id="clip0_1_757">
            <rect width="32" height="32" fill="white" transform="translate(0.75)"/>
        </clipPath>
    </defs>
</svg>