<svg width="77" height="24" viewBox="0 0 77 24" fill="none" xmlns="http://www.w3.org/2000/svg">
    <path d="M5.89941 3.3719C6.44145 3.36893 6.98027 3.45486 7.49411 3.62624C7.98475 3.79562 8.43314 4.06758 8.80899 4.42376C9.20153 4.80344 9.51171 5.25899 9.72028 5.76231C9.96472 6.36954 10.0956 7.01599 10.1064 7.66992C10.1064 7.8553 10.1238 8.11173 10.1238 8.4265C10.1238 8.74119 10.1238 8.99552 10.1064 9.18301C10.0979 9.83719 9.96699 10.484 9.72028 11.0906C9.51003 11.5924 9.20007 12.0469 8.80899 12.427C8.43431 12.7821 7.98533 13.0508 7.49411 13.2138C6.97999 13.3835 6.4412 13.468 5.89941 13.4638C5.54998 13.4698 5.20109 13.4344 4.86012 13.3581C4.61259 13.3058 4.37272 13.2226 4.14629 13.1103C3.96632 13.016 3.80113 12.8962 3.65594 12.7546C3.52699 12.6272 3.4046 12.4934 3.28926 12.3537V12.7848C3.28701 12.9183 3.23251 13.0456 3.13731 13.1397C3.04211 13.2339 2.91372 13.2875 2.77938 13.2892H0.507709C0.441321 13.2895 0.375526 13.2768 0.314082 13.2518C0.252637 13.2268 0.196747 13.1901 0.149602 13.1436C0.102457 13.0972 0.0649795 13.042 0.0393108 12.9811C0.013642 12.9203 0.000284318 12.8551 0 12.7891V0.515909C0.00167462 0.382456 0.0556356 0.254906 0.150429 0.160332C0.245222 0.0657585 0.373383 0.0116078 0.507709 0.0093751H2.87268C3.00721 0.0115938 3.1356 0.0656731 3.23075 0.16019C3.32589 0.254707 3.38033 0.382261 3.38256 0.515909V4.4992C3.48726 4.36989 3.60033 4.24749 3.72103 4.13277C3.87534 3.99238 4.0449 3.86949 4.22657 3.76635C4.45223 3.64677 4.69104 3.55347 4.93823 3.48829C5.25153 3.40866 5.57386 3.36954 5.89724 3.3719H5.89941ZM6.74342 7.89835C6.71296 7.48453 6.56221 7.08845 6.30948 6.75813C6.15391 6.58386 5.95887 6.44882 5.74046 6.36413C5.52205 6.27944 5.2865 6.24752 5.05322 6.271C4.80767 6.26511 4.56344 6.30836 4.33506 6.39817C4.14881 6.47964 3.98012 6.596 3.8382 6.74089C3.70978 6.88173 3.60568 7.04268 3.5301 7.21725C3.45614 7.39028 3.4051 7.57217 3.37822 7.75828C3.32398 8.19348 3.32398 8.63362 3.37822 9.06882C3.40216 9.25552 3.45332 9.43777 3.5301 9.60984C3.60636 9.78693 3.71197 9.95013 3.84253 10.0926C3.98246 10.2415 4.15155 10.3603 4.3394 10.4418C4.56535 10.5353 4.80851 10.5808 5.05322 10.5754C5.28612 10.5991 5.52134 10.5677 5.73967 10.4838C5.958 10.3999 6.15325 10.2658 6.30948 10.0926C6.56079 9.76155 6.71138 9.36584 6.74342 8.95239C6.78249 8.60642 6.78249 8.25726 6.74342 7.9113" fill="#0A0130"/>
    <path d="M18.2557 3.56328C18.39 3.56551 18.5182 3.61967 18.6129 3.71424C18.7077 3.80881 18.7617 3.93637 18.7634 4.06981V5.96015C18.7612 6.09344 18.707 6.22068 18.6123 6.31514C18.5177 6.4096 18.3899 6.46392 18.2557 6.46669H16.5438C15.3917 6.46669 14.808 7.0422 14.808 8.19108V12.7887C14.8058 12.9223 14.7514 13.0498 14.6562 13.1444C14.5611 13.2389 14.4327 13.293 14.2982 13.2952H11.9397C11.8054 13.293 11.6772 13.2388 11.5824 13.1442C11.4876 13.0497 11.4337 12.9221 11.432 12.7887V4.06981C11.4337 3.93637 11.4876 3.80881 11.5824 3.71424C11.6772 3.61967 11.8054 3.56551 11.9397 3.56328H14.1094C14.2439 3.5655 14.3723 3.61958 14.4675 3.7141C14.5626 3.80861 14.617 3.93617 14.6192 4.06981V4.50091C14.9228 4.21676 15.2747 3.98834 15.6586 3.82625C16.1203 3.64224 16.6149 3.55351 17.1123 3.56543L18.2557 3.56328Z" fill="#0A0130"/>
    <path d="M19.1085 10.5232C19.1008 10.1324 19.183 9.74504 19.3488 9.39057C19.5146 9.03609 19.7597 8.72388 20.0653 8.47769C20.6967 7.94315 21.7295 7.54868 23.155 7.29646L25.3529 6.92574C25.3639 6.65796 25.2767 6.39529 25.1077 6.18642C24.9964 6.07915 24.8627 5.9975 24.716 5.94721C24.5695 5.89693 24.4135 5.87926 24.2593 5.89543C24.0307 5.88427 23.8026 5.92634 23.5933 6.0183C23.4702 6.079 23.3532 6.15117 23.2439 6.23384C23.1539 6.32101 23.0436 6.3847 22.9228 6.41921C22.8058 6.44774 22.6852 6.45935 22.5648 6.4537H20.1781C20.0642 6.459 19.9527 6.4195 19.8679 6.34377C19.8271 6.30663 19.7962 6.26001 19.778 6.20809C19.7598 6.15618 19.7549 6.10059 19.7637 6.04632C19.8028 5.71968 19.9319 5.41011 20.1369 5.1518C20.3909 4.81054 20.7057 4.51833 21.0655 4.28961C22.0127 3.67967 23.1197 3.36032 24.2485 3.37139C24.9237 3.35905 25.5967 3.4529 26.2424 3.64944C26.7578 3.80988 27.2347 4.0732 27.644 4.42325C28.0071 4.74704 28.2874 5.1519 28.462 5.60445C28.642 6.08711 28.731 6.59858 28.7246 7.11327V12.7778C28.7223 12.9109 28.6682 13.0379 28.5734 13.132C28.4787 13.2261 28.3508 13.28 28.2168 13.2822H25.8432C25.7092 13.28 25.5814 13.2261 25.4867 13.132C25.392 13.0379 25.3377 12.9109 25.3355 12.7778V12.2476C25.0341 12.6221 24.6534 12.9261 24.2203 13.1378C23.664 13.3807 23.0591 13.4943 22.452 13.4698C21.9645 13.4762 21.4794 13.4034 21.0156 13.2542C20.6262 13.1222 20.2681 12.9124 19.9633 12.6377C19.6821 12.3752 19.4602 12.0564 19.3124 11.7023C19.1709 11.3264 19.0975 10.9287 19.0955 10.5275L19.1085 10.5232ZM23.3763 10.9586C23.64 10.9594 23.9018 10.9127 24.1487 10.8207C24.3769 10.7309 24.5865 10.6001 24.7671 10.4349C24.9423 10.2748 25.0833 10.0813 25.1814 9.86577C25.2815 9.64409 25.3333 9.40395 25.3333 9.16097L23.5976 9.42395C23.3043 9.46802 23.0247 9.57704 22.7796 9.74293C22.6846 9.80788 22.6069 9.89478 22.5533 9.99617C22.4996 10.0975 22.4716 10.2103 22.4715 10.3249C22.4615 10.4207 22.4777 10.5173 22.5186 10.6047C22.5595 10.6919 22.6235 10.7666 22.7036 10.8207C22.9097 10.9238 23.1394 10.9714 23.3698 10.9586" fill="#0A0130"/>
    <path d="M40.0507 12.7823C40.049 12.9157 39.995 13.0433 39.9002 13.1379C39.8054 13.2324 39.6772 13.2866 39.543 13.2888H37.178C37.0434 13.2866 36.915 13.2325 36.8199 13.1381C36.7248 13.0435 36.6703 12.9159 36.6681 12.7823V8.0403C36.6925 7.57623 36.552 7.11849 36.271 6.74699C36.1158 6.57884 35.9237 6.44828 35.7097 6.36534C35.4957 6.28238 35.2654 6.24926 35.0365 6.26848C34.8069 6.24875 34.5758 6.28273 34.3618 6.36769C34.1478 6.45266 33.9568 6.58626 33.8041 6.75777C33.5302 7.13219 33.3946 7.58889 33.42 8.05107V12.7931C33.4189 12.9271 33.3648 13.0553 33.2694 13.15C33.1741 13.2447 33.0451 13.2985 32.9101 13.2996H30.5452C30.4109 13.2974 30.2827 13.2432 30.1879 13.1487C30.0931 13.054 30.0392 12.9266 30.0375 12.7931V4.05697C30.0381 3.92318 30.0916 3.795 30.1867 3.70018C30.2817 3.60537 30.4105 3.55158 30.5452 3.55044H32.8169C32.9506 3.55376 33.0779 3.60833 33.1722 3.70273C33.2664 3.79713 33.3203 3.92406 33.3224 4.05697V4.48807C33.4371 4.34718 33.5618 4.21464 33.6956 4.09146C33.8603 3.94731 34.0425 3.82421 34.2381 3.72503C34.4745 3.61015 34.7235 3.52265 34.9801 3.46422C35.3042 3.3934 35.6353 3.35798 35.9673 3.3586C36.5292 3.35942 37.0874 3.44966 37.6206 3.62588C38.1048 3.78287 38.5454 4.05006 38.9072 4.40616C39.2796 4.78227 39.5647 5.2347 39.7425 5.73177C39.9562 6.34486 40.0591 6.99067 40.0463 7.63936V12.7823H40.0507Z" fill="#0A0130"/>
    <path d="M44.7588 7.76858C44.7067 8.2032 44.7067 8.6424 44.7588 9.07695C44.7796 9.4888 44.9628 9.876 45.2687 10.1547C45.6022 10.4388 46.0318 10.5867 46.4707 10.5686C46.7956 10.5868 47.1201 10.5269 47.4167 10.394C47.636 10.2774 47.8213 10.1066 47.9548 9.89818C48.0143 9.80153 48.0874 9.71367 48.1717 9.63738C48.2629 9.5608 48.3801 9.52145 48.4994 9.52749H50.9576C51.0261 9.52684 51.0941 9.53986 51.1575 9.56575C51.2208 9.59164 51.2783 9.62996 51.3265 9.67833C51.3771 9.72189 51.4162 9.77702 51.4404 9.83906C51.4646 9.90102 51.4732 9.96793 51.4653 10.034C51.4253 10.3364 51.3428 10.6317 51.2201 10.9113C51.0434 11.3456 50.7783 11.7389 50.4412 12.0666C50.0044 12.4912 49.4886 12.8272 48.9225 13.0559C48.1465 13.3609 47.3155 13.5033 46.4816 13.4741C45.8153 13.4811 45.1523 13.3814 44.518 13.1788C43.9366 12.9935 43.3956 12.701 42.9232 12.3167C42.4692 11.9468 42.0994 11.4855 41.8384 10.963C41.5653 10.4051 41.4138 9.79622 41.3936 9.17615C41.3827 8.99076 41.3762 8.74502 41.3762 8.42604C41.3762 8.10698 41.3762 7.86778 41.3936 7.67593C41.4059 7.07368 41.5492 6.48121 41.8136 5.93913C42.078 5.39706 42.4573 4.9182 42.9254 4.5354C43.3983 4.15185 43.9391 3.85944 44.5201 3.67322C45.155 3.47201 45.8174 3.3702 46.4837 3.37146C47.3176 3.34332 48.1484 3.48565 48.9247 3.78962C49.4889 4.02464 50.004 4.36238 50.4434 4.78544C50.783 5.11104 51.0512 5.50292 51.2311 5.93646C51.3534 6.21613 51.436 6.5114 51.4762 6.81373C51.4821 6.87962 51.4726 6.94597 51.4486 7.00764C51.4245 7.06932 51.3864 7.12466 51.3374 7.16938C51.2891 7.21777 51.2316 7.25605 51.1683 7.28196C51.1049 7.30785 51.037 7.32087 50.9685 7.32029H48.4994C48.3799 7.32735 48.2624 7.28793 48.1717 7.21034C48.0884 7.13308 48.0154 7.04541 47.9548 6.94952C47.823 6.73966 47.6372 6.56852 47.4167 6.45377C47.1199 6.32137 46.7956 6.26151 46.4707 6.27917C46.0309 6.25495 45.5991 6.40361 45.2687 6.69303C45.1162 6.83024 44.9926 6.99615 44.905 7.18114C44.8176 7.36611 44.7679 7.56655 44.7588 7.77076" fill="#0A0130"/>
    <path d="M62.7866 12.7819C62.7849 12.9154 62.731 13.0428 62.6362 13.1375C62.5414 13.232 62.4132 13.2862 62.2789 13.2884H59.9139C59.7794 13.2862 59.651 13.2321 59.5558 13.1376C59.4607 13.0431 59.4063 12.9155 59.4041 12.7819V8.03986C59.4288 7.57579 59.2883 7.11789 59.007 6.74657C58.8513 6.57717 58.6588 6.44525 58.4442 6.36084C58.2295 6.27642 57.9983 6.24175 57.7681 6.25944C57.5396 6.23928 57.3095 6.27287 57.0966 6.3575C56.8836 6.44213 56.6936 6.57543 56.5422 6.74657C56.2695 7.12165 56.1333 7.57768 56.156 8.03986V12.7819C56.1554 12.9156 56.1018 13.0439 56.0068 13.1386C55.9118 13.2335 55.783 13.2873 55.6483 13.2884H53.2833C53.1488 13.2862 53.0204 13.2321 52.9253 13.1376C52.8301 13.0431 52.7757 12.9155 52.7734 12.7819V0.515127C52.7757 0.381479 52.8301 0.253925 52.9253 0.159408C53.0204 0.0648914 53.1488 0.0108123 53.2833 0.00859356H55.6483C55.7826 0.0108262 55.9107 0.0649769 56.0056 0.159551C56.1004 0.254125 56.1543 0.381675 56.156 0.515127V4.49842C56.4804 4.14442 56.8758 3.86181 57.3167 3.66877C57.7576 3.47573 58.2344 3.37654 58.7163 3.37758C59.2772 3.3712 59.8355 3.4549 60.3695 3.62546C60.8528 3.7822 61.2925 4.04861 61.654 4.40358C62.0264 4.78049 62.3115 5.23363 62.4893 5.73135C62.7043 6.34414 62.8071 6.99017 62.7931 7.63892V12.7819H62.7866Z" fill="#0A0130"/>
    <path d="M69.9317 3.58022L67.6947 0.467737C67.6491 0.40954 67.5667 0.316855 67.4539 0.189682C67.3826 0.122985 67.2982 0.0718418 67.2059 0.039544C67.1136 0.00724616 67.0155 -0.00548961 66.918 0.00215692H64.1256C64.0173 0.00382427 63.914 0.0472801 63.8374 0.123321C63.7609 0.199361 63.7171 0.302014 63.7155 0.40954C63.7156 0.485252 63.7358 0.559594 63.7741 0.625086L67.8639 6.34353L69.9317 3.58022Z" fill="#FDB62F"/>
    <path d="M68.2435 6.91252L63.9736 12.8638C63.952 12.9023 63.9359 12.9436 63.9259 12.9866C63.9236 13.0139 63.9236 13.0412 63.9259 13.0685C63.9269 13.1746 63.9694 13.276 64.0443 13.3516C64.1191 13.4272 64.2206 13.471 64.3273 13.4738H67.1479C67.3276 13.4924 67.5082 13.4474 67.6577 13.3466C67.7516 13.2567 67.8352 13.157 67.9073 13.0491L70.2744 9.73405L70.333 4.14922L68.2435 6.91252Z" fill="#A9D59B"/>
    <path d="M76.7552 0.125039C76.7186 0.0862094 76.674 0.0552749 76.6249 0.0341438C76.5759 0.0130129 76.5224 0.00213357 76.469 0.00217708H73.6483C73.5502 -0.00550759 73.4521 0.00720304 73.3591 0.039495C73.2669 0.071787 73.1818 0.122948 73.1102 0.189703C72.9995 0.310408 72.917 0.405249 72.8715 0.467757L70.7018 3.58025L72.7132 6.42761L76.8204 0.607862C76.8548 0.540958 76.8753 0.467481 76.879 0.392316C76.879 0.338993 76.868 0.286209 76.8467 0.237255C76.8255 0.188302 76.7948 0.144231 76.7552 0.107795" fill="#748BC5"/>
    <path d="M76.5685 12.8638L72.3333 6.98797L70.3176 4.14922L70.259 9.73405L72.6457 13.0491C72.7165 13.1586 72.8011 13.2585 72.8974 13.3466C73.0447 13.4523 73.2273 13.4978 73.4074 13.4738H76.2171C76.3247 13.4716 76.4272 13.4282 76.5033 13.3527C76.5787 13.2771 76.6227 13.1753 76.6249 13.0685C76.6241 13.041 76.6205 13.0135 76.6139 12.9866C76.6051 12.9442 76.5912 12.9029 76.5729 12.8638" fill="#F16778"/>
    <path d="M15.6178 21.8669C15.5702 21.8669 15.5321 21.8527 15.5035 21.8243C15.4748 21.7959 15.4606 21.758 15.4606 21.7107V17.0587C15.4606 17.0066 15.4748 16.9664 15.5035 16.9379C15.5321 16.9096 15.5702 16.8953 15.6178 16.8953H17.4838C17.8174 16.8953 18.0891 16.9545 18.2988 17.0729C18.5133 17.1912 18.6706 17.3475 18.7707 17.5416C18.8707 17.731 18.9207 17.9394 18.9207 18.1667C18.9207 18.3702 18.8874 18.5454 18.8207 18.6922C18.7587 18.8343 18.6777 18.9503 18.5776 19.0403C18.4823 19.1302 18.387 19.1989 18.2917 19.2462C18.4823 19.3409 18.6515 19.4924 18.7992 19.7008C18.947 19.9091 19.0209 20.1624 19.0209 20.4607C19.0209 20.6974 18.9636 20.9247 18.8493 21.1425C18.7397 21.3555 18.5728 21.5307 18.3488 21.668C18.1296 21.8006 17.8579 21.8669 17.5338 21.8669H15.6178ZM15.9109 21.4408H17.4624C17.815 21.4408 18.0867 21.3485 18.2773 21.1638C18.4728 20.9792 18.5704 20.7448 18.5704 20.4607C18.5704 20.1718 18.4728 19.9375 18.2773 19.7576C18.0867 19.5729 17.815 19.4805 17.4624 19.4805H15.9109V21.4408ZM15.9109 19.0544H17.3908C17.7435 19.0544 18.0105 18.9763 18.1916 18.82C18.3775 18.6638 18.4704 18.446 18.4704 18.1667C18.4704 17.8873 18.3775 17.6766 18.1916 17.5345C18.0105 17.3925 17.7435 17.3215 17.3908 17.3215H15.9109V19.0544Z" fill="#0A0130"/>
    <path d="M21.0393 21.9383C20.8105 21.9383 20.5984 21.891 20.403 21.7963C20.2123 21.7016 20.0574 21.5761 19.9383 21.4199C19.8191 21.2589 19.7595 21.079 19.7595 20.8801C19.7595 20.5581 19.8906 20.3001 20.1528 20.106C20.4149 19.9119 20.7557 19.7863 21.1751 19.7295L22.3047 19.5733V19.3247C22.3047 19.0737 22.226 18.8772 22.0687 18.7352C21.9162 18.5884 21.6708 18.5151 21.3324 18.5151C21.0845 18.5151 20.8844 18.5648 20.7319 18.6642C20.5793 18.7589 20.4745 18.8844 20.4173 19.0407C20.3934 19.1116 20.3482 19.1471 20.2814 19.1471H20.1671C20.1099 19.1471 20.0693 19.1329 20.0455 19.1045C20.0217 19.0714 20.0097 19.0335 20.0097 18.9909C20.0097 18.9247 20.0336 18.8417 20.0813 18.7423C20.1337 18.6429 20.2123 18.5458 20.3172 18.4511C20.422 18.3517 20.5578 18.2689 20.7247 18.2025C20.8915 18.1363 21.0941 18.1031 21.3324 18.1031C21.6136 18.1031 21.8447 18.141 22.0258 18.2167C22.2118 18.2925 22.3547 18.3919 22.4548 18.5151C22.5596 18.6335 22.6335 18.766 22.6764 18.9128C22.7193 19.0596 22.7408 19.204 22.7408 19.346V21.7111C22.7408 21.7584 22.7265 21.7963 22.6979 21.8247C22.6692 21.8531 22.6312 21.8673 22.5835 21.8673H22.4619C22.4142 21.8673 22.3762 21.8531 22.3476 21.8247C22.3189 21.7963 22.3047 21.7584 22.3047 21.7111V21.3772C22.2475 21.4625 22.1664 21.5477 22.0616 21.6329C21.9567 21.7182 21.8209 21.7916 21.6541 21.8531C21.4921 21.91 21.2871 21.9383 21.0393 21.9383ZM21.1107 21.5264C21.33 21.5264 21.5302 21.4791 21.7113 21.3844C21.8924 21.2897 22.0354 21.1452 22.1402 20.9511C22.2498 20.7523 22.3047 20.5037 22.3047 20.2054V19.9639L21.3824 20.0918C20.9916 20.1439 20.6961 20.2338 20.4959 20.3617C20.2958 20.4895 20.1957 20.6505 20.1957 20.8446C20.1957 21.0009 20.2409 21.1287 20.3315 21.2281C20.422 21.3276 20.5364 21.4033 20.6746 21.4554C20.8177 21.5028 20.963 21.5264 21.1107 21.5264Z" fill="#0A0130"/>
    <path d="M24.0286 21.8673C23.9809 21.8673 23.9428 21.8531 23.9142 21.8247C23.8856 21.7963 23.8713 21.7584 23.8713 21.7111V18.3304C23.8713 18.2831 23.8856 18.2452 23.9142 18.2167C23.9428 18.1884 23.9809 18.1742 24.0286 18.1742H24.1501C24.1978 18.1742 24.2359 18.1884 24.2645 18.2167C24.2931 18.2452 24.3074 18.2831 24.3074 18.3304V18.6642C24.4361 18.4985 24.591 18.3636 24.7721 18.2593C24.958 18.1552 25.2034 18.1031 25.5085 18.1031C25.8326 18.1031 26.1018 18.1742 26.3163 18.3162C26.5356 18.4535 26.6976 18.6429 26.8025 18.8844C26.9121 19.1211 26.9669 19.391 26.9669 19.694V21.7111C26.9669 21.7584 26.9526 21.7963 26.924 21.8247C26.8954 21.8531 26.8573 21.8673 26.8096 21.8673H26.6881C26.6404 21.8673 26.6023 21.8531 26.5737 21.8247C26.5451 21.7963 26.5308 21.7584 26.5308 21.7111V19.7295C26.5308 19.3508 26.4378 19.0548 26.252 18.8417C26.0661 18.6239 25.7944 18.5151 25.437 18.5151C25.0986 18.5151 24.8245 18.6239 24.6148 18.8417C24.4099 19.0548 24.3074 19.3508 24.3074 19.7295V21.7111C24.3074 21.7584 24.2931 21.7963 24.2645 21.8247C24.2359 21.8531 24.1978 21.8673 24.1501 21.8673H24.0286Z" fill="#0A0130"/>
    <path d="M28.2527 21.8668C28.2049 21.8668 28.1669 21.8526 28.1382 21.8242C28.1096 21.7958 28.0953 21.7579 28.0953 21.7105V16.9804C28.0953 16.9331 28.1096 16.8952 28.1382 16.8668C28.1669 16.8384 28.2049 16.8242 28.2527 16.8242H28.3742C28.4218 16.8242 28.46 16.8384 28.4885 16.8668C28.5172 16.8952 28.5314 16.9331 28.5314 16.9804V19.4947L30.1257 18.2944C30.1924 18.2423 30.2401 18.2092 30.2687 18.1949C30.302 18.1807 30.3544 18.1737 30.426 18.1737H30.5618C30.6047 18.1737 30.6381 18.1879 30.6619 18.2162C30.6905 18.2399 30.7048 18.2731 30.7048 18.3157C30.7048 18.3346 30.6976 18.3583 30.6834 18.3867C30.6738 18.4104 30.65 18.434 30.6118 18.4577L28.8031 19.8214L30.7905 21.5827C30.8526 21.6396 30.8835 21.6869 30.8835 21.7248C30.8835 21.7673 30.8692 21.8029 30.8406 21.8313C30.8168 21.855 30.7834 21.8668 30.7405 21.8668H30.6261C30.5547 21.8668 30.5023 21.8621 30.4689 21.8526C30.4402 21.8384 30.3926 21.8029 30.3259 21.746L28.5314 20.1623V21.7105C28.5314 21.7579 28.5172 21.7958 28.4885 21.8242C28.46 21.8526 28.4218 21.8668 28.3742 21.8668H28.2527Z" fill="#0A0130"/>
    <path d="M31.7294 21.8668C31.6817 21.8668 31.6436 21.8526 31.615 21.8242C31.5864 21.7958 31.5721 21.7579 31.5721 21.7105V18.3299C31.5721 18.2825 31.5864 18.2447 31.615 18.2162C31.6436 18.1879 31.6817 18.1737 31.7294 18.1737H31.8509C31.8985 18.1737 31.9367 18.1879 31.9653 18.2162C31.9939 18.2447 32.0082 18.2825 32.0082 18.3299V21.7105C32.0082 21.7579 31.9939 21.7958 31.9653 21.8242C31.9367 21.8526 31.8985 21.8668 31.8509 21.8668H31.7294ZM31.6507 17.4137C31.6031 17.4137 31.5649 17.3995 31.5363 17.3711C31.5078 17.3427 31.4934 17.3048 31.4934 17.2575V16.9876C31.4934 16.9402 31.5078 16.9023 31.5363 16.8739C31.5649 16.8408 31.6031 16.8242 31.6507 16.8242H31.9224C31.9701 16.8242 32.0082 16.8408 32.0368 16.8739C32.0701 16.9023 32.0868 16.9402 32.0868 16.9876V17.2575C32.0868 17.3048 32.0701 17.3427 32.0368 17.3711C32.0082 17.3995 31.9701 17.4137 31.9224 17.4137H31.6507Z" fill="#0A0130"/>
    <path d="M33.321 21.8673C33.2734 21.8673 33.2352 21.8531 33.2066 21.8247C33.178 21.7963 33.1637 21.7584 33.1637 21.7111V18.3304C33.1637 18.2831 33.178 18.2452 33.2066 18.2167C33.2352 18.1884 33.2734 18.1742 33.321 18.1742H33.4425C33.4902 18.1742 33.5283 18.1884 33.5569 18.2167C33.5855 18.2452 33.5998 18.2831 33.5998 18.3304V18.6642C33.7285 18.4985 33.8834 18.3636 34.0645 18.2593C34.2504 18.1552 34.4959 18.1031 34.8009 18.1031C35.125 18.1031 35.3943 18.1742 35.6088 18.3162C35.828 18.4535 35.99 18.6429 36.0949 18.8844C36.2045 19.1211 36.2593 19.391 36.2593 19.694V21.7111C36.2593 21.7584 36.245 21.7963 36.2164 21.8247C36.1878 21.8531 36.1497 21.8673 36.102 21.8673H35.9805C35.9328 21.8673 35.8947 21.8531 35.8661 21.8247C35.8375 21.7963 35.8232 21.7584 35.8232 21.7111V19.7295C35.8232 19.3508 35.7303 19.0548 35.5444 18.8417C35.3585 18.6239 35.0869 18.5151 34.7294 18.5151C34.391 18.5151 34.1169 18.6239 33.9073 18.8417C33.7023 19.0548 33.5998 19.3508 33.5998 19.7295V21.7111C33.5998 21.7584 33.5855 21.7963 33.5569 21.8247C33.5283 21.8531 33.4902 21.8673 33.4425 21.8673H33.321Z" fill="#0A0130"/>
    <path d="M38.7677 23.4298C38.4627 23.4298 38.2125 23.3896 38.0171 23.3091C37.8264 23.2286 37.6763 23.1292 37.5666 23.0108C37.4618 22.8972 37.3879 22.7812 37.345 22.6628C37.3021 22.5492 37.2783 22.4568 37.2735 22.3858C37.2687 22.3384 37.2831 22.2982 37.3164 22.265C37.3498 22.2367 37.3879 22.2224 37.4308 22.2224H37.5309C37.569 22.2224 37.6024 22.2295 37.631 22.2437C37.6596 22.2627 37.6834 22.3053 37.7025 22.3716C37.7311 22.4473 37.7764 22.5349 37.8383 22.6343C37.9051 22.7385 38.0075 22.8285 38.1457 22.9042C38.2887 22.98 38.4841 23.0179 38.7319 23.0179C38.9941 23.0179 39.2134 22.9847 39.3896 22.9185C39.566 22.8521 39.6995 22.7338 39.79 22.5633C39.8853 22.3976 39.933 22.1656 39.933 21.8673V21.3772C39.8139 21.5383 39.6566 21.6732 39.4612 21.7821C39.2705 21.8863 39.0275 21.9383 38.7319 21.9383C38.4555 21.9383 38.2196 21.8887 38.0242 21.7892C37.8335 21.6897 37.6786 21.5572 37.5595 21.3915C37.4403 21.2257 37.3522 21.0411 37.295 20.8375C37.2378 20.6339 37.2068 20.4279 37.2021 20.2196C37.1973 20.0871 37.1973 19.9545 37.2021 19.8219C37.2068 19.6135 37.2378 19.4076 37.295 19.204C37.3522 19.0004 37.4403 18.8157 37.5595 18.65C37.6786 18.4843 37.8335 18.3517 38.0242 18.2523C38.2196 18.1529 38.4555 18.1031 38.7319 18.1031C39.0275 18.1031 39.2705 18.1576 39.4612 18.2665C39.6566 18.3753 39.8139 18.5079 39.933 18.6642V18.3375C39.933 18.2902 39.9473 18.2523 39.9759 18.2239C40.0045 18.1907 40.0427 18.1742 40.0903 18.1742H40.2047C40.2523 18.1742 40.2905 18.1907 40.3191 18.2239C40.3524 18.2523 40.3691 18.2902 40.3691 18.3375V21.7963C40.3691 22.0993 40.3238 22.374 40.2333 22.6201C40.1427 22.8664 39.9806 23.0628 39.7471 23.2097C39.5183 23.3564 39.1919 23.4298 38.7677 23.4298ZM38.7748 21.5264C39.0465 21.5264 39.2658 21.4625 39.4325 21.3346C39.5994 21.2068 39.7209 21.0482 39.7972 20.8588C39.8782 20.6647 39.9235 20.4705 39.933 20.2764C39.9377 20.2054 39.9402 20.1201 39.9402 20.0207C39.9402 19.9213 39.9377 19.8361 39.933 19.765C39.9235 19.5709 39.8782 19.3791 39.7972 19.1897C39.7209 18.9956 39.5994 18.8347 39.4325 18.7068C39.2658 18.579 39.0465 18.5151 38.7748 18.5151C38.4984 18.5151 38.2768 18.5766 38.11 18.6997C37.948 18.8228 37.8311 18.9838 37.7597 19.1827C37.6882 19.3815 37.6477 19.5946 37.6382 19.8219C37.6334 19.9545 37.6334 20.0871 37.6382 20.2196C37.6477 20.4468 37.6882 20.6599 37.7597 20.8588C37.8311 21.0577 37.948 21.2186 38.11 21.3417C38.2768 21.4649 38.4984 21.5264 38.7748 21.5264Z" fill="#0A0130"/>
    <path d="M43.628 21.8669C43.5803 21.8669 43.5422 21.8527 43.5136 21.8243C43.485 21.7959 43.4707 21.758 43.4707 21.7107V17.0587C43.4707 17.0066 43.485 16.9664 43.5136 16.9379C43.5422 16.9096 43.5803 16.8953 43.628 16.8953H46.3876C46.44 16.8953 46.4805 16.9096 46.5091 16.9379C46.5377 16.9664 46.552 17.0066 46.552 17.0587V17.1652C46.552 17.2125 46.5377 17.2504 46.5091 17.2789C46.4805 17.3072 46.44 17.3215 46.3876 17.3215H43.9211V19.232H46.2446C46.297 19.232 46.3375 19.2462 46.3661 19.2746C46.3947 19.303 46.409 19.3432 46.409 19.3953V19.5019C46.409 19.5492 46.3947 19.5871 46.3661 19.6155C46.3375 19.6439 46.297 19.6581 46.2446 19.6581H43.9211V21.7107C43.9211 21.758 43.9068 21.7959 43.8782 21.8243C43.8496 21.8527 43.8091 21.8669 43.7567 21.8669H43.628Z" fill="#0A0130"/>
    <path d="M48.7869 21.9383C48.4437 21.9383 48.1554 21.8673 47.9218 21.7253C47.6931 21.5832 47.5167 21.3891 47.3928 21.1429C47.2737 20.8967 47.2093 20.622 47.1998 20.3191C47.195 20.248 47.1926 20.1486 47.1926 20.0207C47.1926 19.8929 47.195 19.7935 47.1998 19.7225C47.2093 19.4147 47.2737 19.1401 47.3928 18.8985C47.5167 18.6524 47.6931 18.4583 47.9218 18.3162C48.1554 18.1742 48.4437 18.1031 48.7869 18.1031C49.1301 18.1031 49.416 18.1742 49.6448 18.3162C49.8783 18.4583 50.0547 18.6524 50.1739 18.8985C50.2977 19.1401 50.3645 19.4147 50.374 19.7225C50.3788 19.7935 50.3812 19.8929 50.3812 20.0207C50.3812 20.1486 50.3788 20.248 50.374 20.3191C50.3645 20.622 50.2977 20.8967 50.1739 21.1429C50.0547 21.3891 49.8783 21.5832 49.6448 21.7253C49.416 21.8673 49.1301 21.9383 48.7869 21.9383ZM48.7869 21.5264C49.1205 21.5264 49.3922 21.4199 49.6019 21.2068C49.8116 20.9937 49.9236 20.686 49.9379 20.2835C49.9427 20.2125 49.9451 20.1249 49.9451 20.0207C49.9451 19.9166 49.9427 19.8289 49.9379 19.758C49.9236 19.3508 49.8116 19.043 49.6019 18.8347C49.3922 18.6216 49.1205 18.5151 48.7869 18.5151C48.4533 18.5151 48.1816 18.6216 47.9719 18.8347C47.7622 19.043 47.6502 19.3508 47.6359 19.758C47.6311 19.8289 47.6287 19.9166 47.6287 20.0207C47.6287 20.1249 47.6311 20.2125 47.6359 20.2835C47.6502 20.686 47.7622 20.9937 47.9719 21.2068C48.1816 21.4199 48.4533 21.5264 48.7869 21.5264Z" fill="#0A0130"/>
    <path d="M51.5151 21.8674C51.4675 21.8674 51.4293 21.8531 51.4007 21.8248C51.3721 21.7963 51.3578 21.7584 51.3578 21.7111V18.3376C51.3578 18.2902 51.3721 18.2523 51.4007 18.2239C51.4293 18.1907 51.4675 18.1742 51.5151 18.1742H51.6295C51.6771 18.1742 51.7153 18.1907 51.7439 18.2239C51.7772 18.2523 51.7939 18.2902 51.7939 18.3376V18.6643C51.8797 18.4985 52.0036 18.3754 52.1656 18.2949C52.3277 18.2144 52.5279 18.1742 52.7662 18.1742H53.0307C53.0784 18.1742 53.1165 18.1884 53.1451 18.2168C53.1737 18.2452 53.188 18.2831 53.188 18.3304V18.4299C53.188 18.4772 53.1737 18.5151 53.1451 18.5435C53.1165 18.5719 53.0784 18.5861 53.0307 18.5861H52.7233C52.4373 18.5861 52.2109 18.669 52.0441 18.8347C51.8773 19.0004 51.7939 19.2253 51.7939 19.5094V21.7111C51.7939 21.7584 51.7772 21.7963 51.7439 21.8248C51.7153 21.8531 51.6771 21.8674 51.6295 21.8674H51.5151Z" fill="#0A0130"/>
    <path d="M55.7622 21.8669C55.7145 21.8669 55.6764 21.8527 55.6478 21.8243C55.6192 21.7959 55.6049 21.758 55.6049 21.7107V17.0587C55.6049 17.0066 55.6192 16.9664 55.6478 16.9379C55.6764 16.9096 55.7145 16.8953 55.7622 16.8953H57.6281C57.9617 16.8953 58.2334 16.9545 58.4431 17.0729C58.6575 17.1912 58.8149 17.3475 58.9149 17.5416C59.015 17.731 59.0651 17.9394 59.0651 18.1667C59.0651 18.3702 59.0317 18.5454 58.965 18.6922C58.903 18.8343 58.822 18.9503 58.7219 19.0403C58.6266 19.1302 58.5313 19.1989 58.4359 19.2462C58.6266 19.3409 58.7958 19.4924 58.9436 19.7008C59.0913 19.9091 59.1652 20.1624 59.1652 20.4607C59.1652 20.6974 59.108 20.9247 58.9936 21.1425C58.884 21.3555 58.7171 21.5307 58.4931 21.668C58.2739 21.8006 58.0023 21.8669 57.6781 21.8669H55.7622ZM56.0553 21.4408H57.6066C57.9594 21.4408 58.231 21.3485 58.4217 21.1638C58.6171 20.9792 58.7148 20.7448 58.7148 20.4607C58.7148 20.1718 58.6171 19.9375 58.4217 19.7576C58.231 19.5729 57.9594 19.4805 57.6066 19.4805H56.0553V21.4408ZM56.0553 19.0544H57.5351C57.8878 19.0544 58.1548 18.9763 58.3359 18.82C58.5217 18.6638 58.6146 18.446 58.6146 18.1667C58.6146 17.8873 58.5217 17.6766 58.3359 17.5345C58.1548 17.3925 57.8878 17.3215 57.5351 17.3215H56.0553V19.0544Z" fill="#0A0130"/>
    <path d="M60.3469 21.8668C60.2993 21.8668 60.2612 21.8526 60.2326 21.8242C60.204 21.7958 60.1897 21.7579 60.1897 21.7105V16.9804C60.1897 16.9331 60.204 16.8952 60.2326 16.8668C60.2612 16.8384 60.2993 16.8242 60.3469 16.8242H60.4685C60.5162 16.8242 60.5543 16.8384 60.5829 16.8668C60.6115 16.8952 60.6258 16.9331 60.6258 16.9804V18.6637C60.7545 18.498 60.9094 18.3631 61.0905 18.2588C61.2764 18.1547 61.5219 18.1026 61.8268 18.1026C62.1509 18.1026 62.4203 18.1737 62.6347 18.3157C62.8539 18.453 63.016 18.6424 63.1209 18.8839C63.2304 19.1206 63.2853 19.3905 63.2853 19.6935V21.7105C63.2853 21.7579 63.271 21.7958 63.2424 21.8242C63.2138 21.8526 63.1757 21.8668 63.128 21.8668H63.0064C62.9588 21.8668 62.9207 21.8526 62.8921 21.8242C62.8635 21.7958 62.8492 21.7579 62.8492 21.7105V19.729C62.8492 19.3503 62.7563 19.0543 62.5703 18.8412C62.3845 18.6234 62.1128 18.5145 61.7554 18.5145C61.4169 18.5145 61.1429 18.6234 60.9332 18.8412C60.7283 19.0543 60.6258 19.3503 60.6258 19.729V21.7105C60.6258 21.7579 60.6115 21.7958 60.5829 21.8242C60.5543 21.8526 60.5162 21.8668 60.4685 21.8668H60.3469Z" fill="#0A0130"/>
    <path d="M65.4072 21.9383C65.1785 21.9383 64.9664 21.891 64.771 21.7963C64.5804 21.7016 64.4254 21.5761 64.3063 21.4199C64.1872 21.2589 64.1276 21.079 64.1276 20.8801C64.1276 20.5581 64.2586 20.3001 64.5208 20.106C64.7829 19.9119 65.1237 19.7863 65.5431 19.7295L66.6726 19.5733V19.3247C66.6726 19.0737 66.594 18.8772 66.4367 18.7352C66.2842 18.5884 66.0388 18.5151 65.7004 18.5151C65.4525 18.5151 65.2523 18.5648 65.0998 18.6642C64.9473 18.7589 64.8425 18.8844 64.7853 19.0407C64.7615 19.1116 64.7162 19.1471 64.6495 19.1471H64.535C64.4779 19.1471 64.4374 19.1329 64.4135 19.1045C64.3897 19.0714 64.3778 19.0335 64.3778 18.9909C64.3778 18.9247 64.4016 18.8417 64.4492 18.7423C64.5017 18.6429 64.5804 18.5458 64.6852 18.4511C64.79 18.3517 64.9259 18.2689 65.0927 18.2025C65.2595 18.1363 65.4621 18.1031 65.7004 18.1031C65.9815 18.1031 66.2127 18.141 66.3939 18.2167C66.5797 18.2925 66.7227 18.3919 66.8228 18.5151C66.9277 18.6335 67.0015 18.766 67.0444 18.9128C67.0873 19.0596 67.1087 19.204 67.1087 19.346V21.7111C67.1087 21.7584 67.0944 21.7963 67.0659 21.8247C67.0373 21.8531 66.9991 21.8673 66.9515 21.8673H66.8299C66.7823 21.8673 66.7441 21.8531 66.7155 21.8247C66.687 21.7963 66.6726 21.7584 66.6726 21.7111V21.3772C66.6154 21.4625 66.5344 21.5477 66.4296 21.6329C66.3247 21.7182 66.1889 21.7916 66.0221 21.8531C65.86 21.91 65.6551 21.9383 65.4072 21.9383ZM65.4788 21.5264C65.698 21.5264 65.8982 21.4791 66.0793 21.3844C66.2604 21.2897 66.4034 21.1452 66.5082 20.9511C66.6179 20.7523 66.6726 20.5037 66.6726 20.2054V19.9639L65.7504 20.0918C65.3596 20.1439 65.0641 20.2338 64.8639 20.3617C64.6637 20.4895 64.5637 20.6505 64.5637 20.8446C64.5637 21.0009 64.6089 21.1287 64.6995 21.2281C64.79 21.3276 64.9044 21.4033 65.0427 21.4554C65.1856 21.5028 65.331 21.5264 65.4788 21.5264Z" fill="#0A0130"/>
    <path d="M68.3966 21.8674C68.3488 21.8674 68.3108 21.8531 68.2822 21.8248C68.2535 21.7963 68.2393 21.7584 68.2393 21.7111V18.3376C68.2393 18.2902 68.2535 18.2523 68.2822 18.2239C68.3108 18.1907 68.3488 18.1742 68.3966 18.1742H68.5109C68.5586 18.1742 68.5967 18.1907 68.6254 18.2239C68.6587 18.2523 68.6754 18.2902 68.6754 18.3376V18.6643C68.7612 18.4985 68.8851 18.3754 69.0471 18.2949C69.2092 18.2144 69.4093 18.1742 69.6476 18.1742H69.9122C69.9599 18.1742 69.9979 18.1884 70.0265 18.2168C70.0552 18.2452 70.0694 18.2831 70.0694 18.3304V18.4299C70.0694 18.4772 70.0552 18.5151 70.0265 18.5435C69.9979 18.5719 69.9599 18.5861 69.9122 18.5861H69.6047C69.3188 18.5861 69.0924 18.669 68.9256 18.8347C68.7587 19.0004 68.6754 19.2253 68.6754 19.5094V21.7111C68.6754 21.7584 68.6587 21.7963 68.6254 21.8248C68.5967 21.8531 68.5586 21.8674 68.5109 21.8674H68.3966Z" fill="#0A0130"/>
    <path d="M71.6698 21.9383C71.441 21.9383 71.2289 21.891 71.0334 21.7963C70.8428 21.7016 70.6879 21.5761 70.5688 21.4199C70.4496 21.2589 70.39 21.079 70.39 20.8801C70.39 20.5581 70.5211 20.3001 70.7832 20.106C71.0454 19.9119 71.3862 19.7863 71.8056 19.7295L72.9351 19.5733V19.3247C72.9351 19.0737 72.8565 18.8772 72.6992 18.7352C72.5467 18.5884 72.3012 18.5151 71.9629 18.5151C71.715 18.5151 71.5149 18.5648 71.3623 18.6642C71.2098 18.7589 71.105 18.8844 71.0478 19.0407C71.0239 19.1116 70.9787 19.1471 70.9119 19.1471H70.7976C70.7403 19.1471 70.6998 19.1329 70.676 19.1045C70.6522 19.0714 70.6402 19.0335 70.6402 18.9909C70.6402 18.9247 70.6641 18.8417 70.7118 18.7423C70.7642 18.6429 70.8428 18.5458 70.9476 18.4511C71.0525 18.3517 71.1883 18.2689 71.3552 18.2025C71.522 18.1363 71.7245 18.1031 71.9629 18.1031C72.2441 18.1031 72.4752 18.141 72.6563 18.2167C72.8422 18.2925 72.9852 18.3919 73.0853 18.5151C73.1901 18.6335 73.2639 18.766 73.307 18.9128C73.3495 19.0596 73.3715 19.204 73.3715 19.346V21.7111C73.3715 21.7584 73.3568 21.7963 73.3283 21.8247C73.2997 21.8531 73.2617 21.8673 73.2141 21.8673H73.0924C73.0447 21.8673 73.0066 21.8531 72.9781 21.8247C72.9494 21.7963 72.9351 21.7584 72.9351 21.7111V21.3772C72.878 21.4625 72.7969 21.5477 72.692 21.6329C72.5872 21.7182 72.4514 21.7916 72.2846 21.8531C72.1225 21.91 71.9176 21.9383 71.6698 21.9383ZM71.7412 21.5264C71.9605 21.5264 72.1606 21.4791 72.3417 21.3844C72.5228 21.2897 72.6658 21.1452 72.7707 20.9511C72.8803 20.7523 72.9351 20.5037 72.9351 20.2054V19.9639L72.0129 20.0918C71.6221 20.1439 71.3266 20.2338 71.1264 20.3617C70.9262 20.4895 70.8261 20.6505 70.8261 20.8446C70.8261 21.0009 70.8714 21.1287 70.962 21.2281C71.0525 21.3276 71.1669 21.4033 71.3051 21.4554C71.4481 21.5028 71.5935 21.5264 71.7412 21.5264Z" fill="#0A0130"/>
    <path d="M75.7177 21.8668C75.4703 21.8668 75.2748 21.8148 75.1313 21.7105C74.9886 21.6064 74.8883 21.4644 74.8312 21.2844C74.7741 21.1045 74.7455 20.9033 74.7455 20.6807V18.5856H74.1877C74.1401 18.5856 74.102 18.5713 74.0735 18.543C74.0449 18.5145 74.031 18.4767 74.031 18.4293V18.3299C74.031 18.2825 74.0449 18.2447 74.0735 18.2162C74.102 18.1879 74.1401 18.1737 74.1877 18.1737H74.7455V16.9804C74.7455 16.9331 74.7602 16.8952 74.7887 16.8668C74.8173 16.8384 74.8553 16.8242 74.9029 16.8242H75.0244C75.072 16.8242 75.1101 16.8384 75.1386 16.8668C75.1672 16.8952 75.1818 16.9331 75.1818 16.9804V18.1737H76.0684C76.116 18.1737 76.154 18.1879 76.1826 18.2162C76.2111 18.2447 76.2258 18.2825 76.2258 18.3299V18.4293C76.2258 18.4767 76.2111 18.5145 76.1826 18.543C76.154 18.5713 76.116 18.5856 76.0684 18.5856H75.1818V20.6523C75.1818 20.9033 75.2221 21.0998 75.3034 21.2418C75.389 21.3839 75.5391 21.4549 75.7536 21.4549H76.1394C76.1877 21.4549 76.2258 21.4691 76.2543 21.4975C76.2829 21.5259 76.2968 21.5638 76.2968 21.6111V21.7105C76.2968 21.7579 76.2829 21.7958 76.2543 21.8242C76.2258 21.8526 76.1877 21.8668 76.1394 21.8668H75.7177Z" fill="#0A0130"/>
</svg>