<svg width="33" height="32" viewBox="0 0 33 32" fill="none" xmlns="http://www.w3.org/2000/svg">
    <g clip-path="url(#clip0_1_1389)">
        <path d="M7.26747 31.7179C7.1478 31.7177 7.04286 31.6379 7.0108 31.5226C6.97875 31.4073 7.02743 31.2848 7.12987 31.2229L7.60453 30.9349L6.31333 31.68C6.18767 31.7492 6.02978 31.7066 5.956 31.5836C5.88221 31.4605 5.91897 31.3012 6.0392 31.2229L15.2888 25.4715L4.6504 31.6133C4.52468 31.6815 4.36757 31.6384 4.29429 31.5156C4.22101 31.3927 4.25764 31.234 4.37733 31.1557L13.2077 25.7157L3.96667 31.0523C3.84027 31.1243 3.67947 31.0817 3.60527 30.9566C3.53107 30.8315 3.57084 30.67 3.69467 30.5936L9.9576 26.7765L3.85093 30.3019C3.72522 30.37 3.56811 30.3269 3.49482 30.2041C3.42154 30.0813 3.45818 29.9225 3.57787 29.8443L13.2104 23.9099L3.84987 29.3141C3.72379 29.3827 3.56607 29.3392 3.49298 29.2157C3.41989 29.0922 3.45764 28.933 3.5784 28.8555L7.82213 26.2827L3.84933 28.576C3.72326 28.6446 3.56554 28.601 3.49245 28.4776C3.41936 28.3541 3.4571 28.1949 3.57787 28.1173L6.90267 26.1056L3.84933 27.8683C3.72407 27.9335 3.56967 27.8898 3.49724 27.7685C3.4248 27.6473 3.45946 27.4906 3.57627 27.4112L14.2221 20.8251L3.8488 26.8133C3.72361 26.8794 3.56864 26.8361 3.49578 26.7147C3.42292 26.5934 3.45755 26.4363 3.57467 26.3568L16.0051 18.5973L3.84827 25.6155C3.72307 25.6815 3.56811 25.6382 3.49524 25.5169C3.42238 25.3955 3.45701 25.2384 3.57413 25.1589L15.2947 17.8523L3.84827 24.4576C3.7219 24.5333 3.5581 24.4922 3.4824 24.3659C3.4067 24.2395 3.44777 24.0757 3.57413 24L14.8467 16.9525L3.84773 23.3013C3.72235 23.3692 3.56573 23.3265 3.49222 23.2043C3.41871 23.0821 3.45432 22.9237 3.57307 22.8448L14.2461 16.16L3.8472 22.1611C3.7208 22.2331 3.56001 22.1905 3.4858 22.0654C3.4116 21.9403 3.45138 21.7788 3.5752 21.7024L7.444 19.3419L3.84667 21.4181C3.72108 21.4835 3.56633 21.4393 3.49416 21.3175C3.42199 21.1957 3.45757 21.0388 3.5752 20.96L6.43867 19.2144L3.84667 20.7104C3.72129 20.7783 3.56466 20.7356 3.49115 20.6134C3.41764 20.4912 3.45326 20.3328 3.572 20.2539L12.6141 14.5733L3.84613 19.6352C3.72101 19.7021 3.56543 19.6593 3.49213 19.5378C3.41882 19.4163 3.45345 19.2587 3.57093 19.1792L12.5373 13.5136L3.844 18.5312C3.71849 18.5973 3.56316 18.5536 3.49056 18.4317C3.41796 18.3098 3.45352 18.1524 3.57147 18.0736L6.21627 16.4512L3.8456 17.8203C3.72072 17.8862 3.56605 17.8434 3.4929 17.7226C3.41976 17.6018 3.45351 17.4449 3.56987 17.3648L11.492 12.344L3.84507 16.7584C3.71946 16.8288 3.56067 16.7867 3.48633 16.6634C3.412 16.5401 3.44898 16.3801 3.56987 16.3019L9.98213 12.2608L3.84507 15.8043C3.71975 15.8732 3.56238 15.831 3.48838 15.7086C3.41437 15.5862 3.45009 15.4272 3.56933 15.3483L9.97413 11.288L3.84453 14.8267C3.71954 14.8954 3.56258 14.8536 3.48833 14.7318C3.41408 14.61 3.44883 14.4513 3.5672 14.3717L10.8109 9.70239L3.84453 13.7243C3.71932 13.7955 3.56014 13.7545 3.48504 13.6315C3.40994 13.5086 3.44608 13.3482 3.56667 13.2693L9.86 9.21973L3.84453 12.6933C3.71876 12.7701 3.5546 12.7303 3.47787 12.6045C3.40113 12.4788 3.44089 12.3146 3.56667 12.2379L8.85893 8.84L3.844 11.7333C3.76302 11.7835 3.6614 11.7867 3.57743 11.7417C3.49346 11.6967 3.43989 11.6103 3.4369 11.515C3.43391 11.4198 3.48195 11.3302 3.56293 11.28L10.2189 6.86826L3.84347 10.5493C3.71915 10.619 3.56202 10.5786 3.4867 10.4577C3.41137 10.3367 3.44448 10.1779 3.56187 10.0971L14.5197 2.78506C14.5112 2.68231 14.5628 2.58387 14.652 2.53226L16.4904 1.47093C16.6147 1.40124 16.7718 1.44161 16.8472 1.56259C16.9225 1.68357 16.8894 1.84239 16.772 1.9232L10.7005 5.97333L17.4243 2.0928C17.5488 2.02195 17.7071 2.0622 17.7827 2.18395C17.8583 2.3057 17.8241 2.46541 17.7053 2.5456L11.0477 6.95893L18.3773 2.72746C18.5029 2.65388 18.6642 2.69455 18.7399 2.81885C18.8156 2.94314 18.7777 3.10516 18.6547 3.18293L13.3629 6.58079L19.148 3.24053C19.2736 3.16695 19.4349 3.20762 19.5106 3.33191C19.5863 3.45621 19.5483 3.61823 19.4253 3.696L13.132 7.74933L19.98 3.79573C20.1052 3.72445 20.2644 3.76553 20.3395 3.88848C20.4146 4.01144 20.3785 4.17181 20.2579 4.25066L13.0125 8.9184L20.8653 4.38506C20.9902 4.31908 21.1449 4.36192 21.218 4.48274C21.2912 4.60357 21.2574 4.76047 21.1411 4.84053L14.7411 8.89813L21.6515 4.90666C21.7775 4.83052 21.9415 4.87099 22.0176 4.99706C22.0937 5.12313 22.0533 5.28705 21.9272 5.36319L15.5117 9.40586L22.42 5.41973C22.5453 5.35081 22.7027 5.39303 22.7767 5.51541C22.8507 5.63779 22.815 5.79676 22.6957 5.87573L14.7736 10.896L23.2733 5.98933C23.3991 5.92116 23.5562 5.96429 23.6294 6.0871C23.7027 6.20991 23.6661 6.36866 23.5464 6.44693L20.9101 8.06399L23.8435 6.36906C23.9695 6.29292 24.1335 6.33339 24.2096 6.45946C24.2857 6.58553 24.2453 6.74945 24.1192 6.8256L15.1523 12.4928L24.7331 6.96106C24.8587 6.89068 25.0175 6.93272 25.0918 7.05603C25.1661 7.17934 25.1292 7.33939 25.0083 7.41759L15.9635 13.0997L25.5987 7.53706C25.7243 7.47172 25.879 7.51589 25.9512 7.63768C26.0233 7.75947 25.9878 7.91643 25.8701 7.99519L23.0067 9.74133L26.1683 7.91626C26.2943 7.84659 26.4529 7.88955 26.5265 8.0133C26.6001 8.13705 26.5622 8.2969 26.4408 8.37439L22.5837 10.728L26.7651 8.31413C26.8907 8.24375 27.0495 8.28579 27.1238 8.4091C27.1981 8.53241 27.1612 8.69245 27.0403 8.77066L16.3672 15.4576L27.6824 8.92479C27.8081 8.85559 27.966 8.89819 28.0397 9.02122C28.1135 9.14424 28.0768 9.3036 27.9565 9.38186L16.6824 16.4325L28.6125 9.54666C28.7385 9.47403 28.8994 9.51569 28.9743 9.64032C29.0492 9.76495 29.0105 9.9266 28.8872 10.0037L17.1613 17.3141L29.1501 10.3925C29.2758 10.3233 29.4337 10.3659 29.5075 10.489C29.5813 10.612 29.5445 10.7713 29.4243 10.8496L17.0029 18.6032L29.1501 11.5899C29.2759 11.5217 29.433 11.5648 29.5062 11.6876C29.5795 11.8104 29.5429 11.9692 29.4232 12.0475L18.7747 18.6352L29.1501 12.6453C29.2762 12.5768 29.4339 12.6203 29.507 12.7438C29.5801 12.8673 29.5424 13.0265 29.4216 13.104L26.0968 15.1157L29.1501 13.3557C29.2762 13.2872 29.4339 13.3307 29.507 13.4542C29.5801 13.5777 29.5424 13.7369 29.4216 13.8144L25.1869 16.3819L29.1501 14.0939C29.2759 14.0257 29.433 14.0688 29.5062 14.1916C29.5795 14.3144 29.5429 14.4732 29.4232 14.5515L19.7805 20.4891L29.1501 15.0795C29.2765 15.0074 29.4373 15.05 29.5115 15.1751C29.5857 15.3003 29.546 15.4618 29.4221 15.5381L23.1736 19.3461L29.1501 15.896C29.2759 15.8278 29.433 15.871 29.5062 15.9938C29.5795 16.1166 29.5429 16.2753 29.4232 16.3536L20.5864 21.7973L29.1501 16.8533C29.2756 16.7863 29.4315 16.8296 29.5046 16.9516C29.5776 17.0736 29.5421 17.2315 29.4237 17.3104L20.1645 23.0704L29.1507 17.88C29.2775 17.805 29.441 17.8471 29.516 17.9739C29.591 18.1007 29.5489 18.2642 29.4221 18.3392L28.9533 18.6229L29.1507 18.5093C29.2765 18.4421 29.4329 18.4857 29.5057 18.6084C29.5785 18.731 29.5419 18.8892 29.4227 18.9675L27.2776 20.2773L29.1507 19.1957C29.2767 19.1261 29.4353 19.169 29.5089 19.2928C29.5825 19.4165 29.5446 19.5764 29.4232 19.6539L26.2872 21.5824L29.1507 19.9291C29.2763 19.8587 29.4351 19.9007 29.5094 20.024C29.5837 20.1473 29.5468 20.3074 29.4259 20.3856L23.0259 24.4235L29.1512 20.8875C29.2764 20.8147 29.4368 20.8551 29.5125 20.9785C29.5883 21.1019 29.5517 21.2632 29.4301 21.3419L21.6595 26.4235L29.1507 22.0987C29.2754 22.03 29.432 22.0714 29.5065 22.1926C29.581 22.3139 29.5472 22.4723 29.4296 22.5525L23.6499 26.3227L29.1507 23.1467C29.2757 23.0779 29.4326 23.1197 29.5069 23.2415C29.5811 23.3633 29.5464 23.522 29.428 23.6016L26.1331 25.7232L29.1507 23.9819C29.2748 23.9131 29.4309 23.9536 29.5061 24.0739C29.5812 24.1942 29.549 24.3523 29.4328 24.4336L25.1555 27.3083L29.1507 25.0027C29.2736 24.9332 29.4294 24.9716 29.506 25.0903C29.5825 25.209 29.5532 25.3668 29.4392 25.4501L25.2056 28.48L29.1523 26.2021C29.2754 26.1319 29.432 26.1703 29.5087 26.2896C29.5854 26.4088 29.5553 26.5672 29.4403 26.6501L26.924 28.4443L29.1523 27.1584C29.2734 27.0909 29.426 27.1275 29.5034 27.2425C29.5808 27.3576 29.557 27.5128 29.4488 27.5995L27.2808 29.2864L29.1523 28.2064C29.27 28.1348 29.423 28.1647 29.5051 28.2754C29.5871 28.3862 29.5713 28.5412 29.4685 28.6331L27.9288 30.08L29.1507 29.3749C29.2629 29.3099 29.4057 29.3351 29.4889 29.4346C29.5721 29.5342 29.5716 29.6792 29.4877 29.7781L28.9165 30.4533L29.1016 30.3467C29.229 30.2742 29.3911 30.3182 29.4643 30.4451C29.5376 30.5721 29.4947 30.7344 29.3683 30.8085L27.86 31.68C27.7477 31.745 27.605 31.7198 27.5217 31.6203C27.4385 31.5207 27.439 31.3758 27.5229 31.2768L28.0936 30.6027L26.2269 31.68C26.1092 31.7516 25.9562 31.7217 25.8742 31.6109C25.7921 31.5002 25.8079 31.3452 25.9107 31.2533L27.4493 29.8L24.196 31.6779C24.0748 31.7467 23.921 31.7105 23.8432 31.5949C23.7653 31.4793 23.7896 31.3233 23.8989 31.2368L26.0659 29.5509L22.3779 31.68C22.2547 31.7503 22.0981 31.7118 22.0214 31.5926C21.9447 31.4733 21.9748 31.3149 22.0899 31.232L24.6067 29.44L20.7245 31.68C20.6016 31.7495 20.4458 31.711 20.3692 31.5923C20.2927 31.4736 20.322 31.3159 20.436 31.2325L24.6707 28.2043L18.6477 31.68C18.5237 31.7487 18.3675 31.7083 18.2924 31.588C18.2172 31.4677 18.2494 31.3096 18.3656 31.2283L22.6445 28.3525L16.8803 31.68C16.7555 31.7477 16.5996 31.7058 16.5256 31.5847C16.4515 31.4637 16.4853 31.3058 16.6024 31.2256L19.8957 29.1045L15.4333 31.68C15.3087 31.7487 15.152 31.7073 15.0775 31.586C15.003 31.4648 15.0368 31.3063 15.1544 31.2261L20.9363 27.456L13.62 31.68C13.4951 31.751 13.3365 31.7103 13.2611 31.588C13.1858 31.4657 13.2209 31.3057 13.3405 31.2261L21.1096 26.1456L11.5203 31.68C11.3949 31.7489 11.2376 31.7067 11.1636 31.5843C11.0896 31.4619 11.1253 31.303 11.2445 31.224L17.6483 27.184L9.86 31.68C9.73428 31.7482 9.57717 31.705 9.50389 31.5822C9.43061 31.4594 9.46725 31.3007 9.58693 31.2224L12.7187 29.2971L8.59013 31.68C8.46411 31.7497 8.30554 31.7067 8.23193 31.583C8.15831 31.4592 8.19623 31.2994 8.3176 31.2219L10.4648 29.912L7.4008 31.68C7.36047 31.7041 7.31447 31.7172 7.26747 31.7179Z" fill="#CED2DC"/>
        <path d="M23.9822 4.63573C23.8724 4.63582 23.7738 4.56862 23.7337 4.46642C23.6936 4.36421 23.7203 4.24789 23.8008 4.17333L24.627 3.40853L24.1155 3.70346C24.0057 3.76609 23.8671 3.74307 23.7834 3.64833C23.6998 3.55359 23.6942 3.41315 23.7699 3.312L24.3742 2.512C24.247 2.53336 24.1227 2.46062 24.0791 2.33925C24.0354 2.21788 24.0849 2.08267 24.1966 2.01813L25.2243 1.42453C25.3341 1.36129 25.4732 1.38405 25.5572 1.47897C25.6411 1.57389 25.6466 1.71477 25.5704 1.816L24.9918 2.58186L26.42 1.76C26.5376 1.69169 26.6878 1.72285 26.7686 1.83232C26.8493 1.94178 26.8347 2.09447 26.7347 2.18666L25.9054 2.95146L26.8968 2.3792C26.9795 2.32665 27.0843 2.32365 27.1698 2.37138C27.2554 2.41912 27.3079 2.50991 27.3065 2.60785C27.3052 2.70579 27.2503 2.79513 27.1635 2.84053L24.1155 4.60053C24.075 4.62401 24.029 4.63617 23.9822 4.63573Z" fill="#0970DE"/>
        <path d="M29.9848 12.9963C29.8777 12.996 29.7811 12.9317 29.7395 12.833C29.698 12.7342 29.7196 12.6202 29.7944 12.5435L30.3277 12L29.3475 12.5659C29.2337 12.6313 29.0892 12.6043 29.0069 12.5021C28.9245 12.3999 28.9287 12.253 29.0168 12.1557L30.0013 11.0709L28.4403 11.9723C28.3207 12.0406 28.1688 12.0066 28.0897 11.8939C28.0106 11.7812 28.0303 11.6268 28.1352 11.5376L28.3352 11.3691L27.9005 11.6203C27.7805 11.6874 27.6291 11.6523 27.5509 11.5392C27.4727 11.426 27.4934 11.272 27.5987 11.1835L27.6275 11.1595L27.3981 11.2917C27.2797 11.3601 27.1288 11.3279 27.0487 11.2171C26.9686 11.1063 26.9852 10.9529 27.0872 10.8619L27.6035 10.4L26.7704 10.88C26.6515 10.9482 26.5003 10.9151 26.4207 10.8035C26.3411 10.692 26.359 10.5383 26.4621 10.448L26.8515 10.1099L26.1827 10.496C26.0682 10.5623 25.9224 10.5346 25.8402 10.431C25.7579 10.3274 25.7641 10.1791 25.8547 10.0827L26.8237 9.04746L25.3064 9.9232C25.1917 9.98954 25.0456 9.96156 24.9636 9.85751C24.8815 9.75347 24.8882 9.60493 24.9795 9.5088L25.9283 8.5104L24.4499 9.36373C24.3335 9.43081 24.1855 9.40094 24.1043 9.29401C24.0231 9.18708 24.034 9.03645 24.1299 8.9424L25.4547 7.6464L23.5267 8.76C23.405 8.82882 23.2509 8.79207 23.1734 8.67577C23.0959 8.55947 23.1214 8.40307 23.2317 8.31733L23.676 7.97813L22.9613 8.3904C22.8401 8.45921 22.6864 8.42307 22.6085 8.30746C22.5306 8.19186 22.5549 8.03579 22.6643 7.94933L23.9597 6.9392L22.2504 7.92586C22.128 7.99599 21.9721 7.95862 21.8948 7.8406C21.8175 7.72258 21.8455 7.56475 21.9587 7.48053L23.1779 6.58133L21.5928 7.496C21.4802 7.56092 21.3372 7.53521 21.2543 7.43514C21.1713 7.33507 21.1726 7.18978 21.2573 7.0912L22.3133 5.86666L20.6067 6.85173C20.4926 6.9172 20.3478 6.88968 20.2656 6.78692C20.1835 6.68416 20.1886 6.53686 20.2776 6.44L21.2669 5.36693L19.7101 6.2656C19.5966 6.33108 19.4523 6.30435 19.3698 6.20256C19.2872 6.10077 19.2909 5.95409 19.3784 5.85653L20.3987 4.7216L18.7784 5.656C18.6595 5.72416 18.5083 5.6911 18.4287 5.57955C18.3491 5.46799 18.367 5.31426 18.4701 5.224L18.8435 4.90026L18.1928 5.2736C18.0751 5.34405 17.9231 5.31368 17.8415 5.2034C17.7599 5.09312 17.7753 4.93892 17.8771 4.84693L18.5629 4.20693L17.4995 4.82133C17.3825 4.89293 17.2302 4.86409 17.1475 4.75465C17.0648 4.6452 17.0786 4.49087 17.1795 4.39786L17.9261 3.68426L16.7133 4.38666C16.5859 4.45912 16.4239 4.41513 16.3506 4.28818C16.2773 4.16124 16.3202 3.99893 16.4467 3.9248L19.5837 2.11147C19.7007 2.03986 19.853 2.06871 19.9357 2.17815C20.0184 2.28759 20.0046 2.44192 19.9037 2.53493L19.1533 3.25333L20.3053 2.5888C20.4231 2.51835 20.575 2.54872 20.6566 2.659C20.7382 2.76928 20.7228 2.92348 20.6211 3.01546L19.9341 3.65386L21.0008 3.03946C21.1198 2.97107 21.2714 3.00422 21.3509 3.11609C21.4305 3.22795 21.4122 3.38197 21.3085 3.472L20.9352 3.79573L21.5853 3.4224C21.6989 3.35692 21.8431 3.38364 21.9257 3.48543C22.0082 3.58722 22.0046 3.73391 21.9171 3.83146L20.8947 4.96533L22.5139 4.0304C22.6278 3.96493 22.7725 3.99229 22.8547 4.09486C22.937 4.19742 22.9322 4.3446 22.8435 4.4416L21.8541 5.51466L23.4109 4.616C23.5235 4.55107 23.6665 4.57678 23.7495 4.67686C23.8324 4.77693 23.8311 4.92222 23.7464 5.0208L22.6883 6.24746L27.0189 3.7472C27.1414 3.67707 27.2972 3.71444 27.3745 3.83246C27.4519 3.95049 27.4239 4.10831 27.3107 4.19253L26.0925 5.09333L27.0205 4.56C27.1417 4.49118 27.2955 4.52732 27.3734 4.64293C27.4512 4.75854 27.4269 4.91461 27.3176 5.00106L26.0221 6.0112L27.0221 5.43413C27.1437 5.36666 27.2966 5.40386 27.3736 5.5196C27.4506 5.63535 27.4257 5.79081 27.3165 5.8768L26.8728 6.21493L27.0227 6.12853C27.139 6.06145 27.287 6.09132 27.3682 6.19825C27.4495 6.30518 27.4385 6.45582 27.3427 6.54986L26.0173 7.84586L27.2563 7.13066C27.3711 7.06429 27.5173 7.09242 27.5993 7.19668C27.6813 7.30093 27.6742 7.44961 27.5827 7.5456L26.6333 8.5424L28.1112 7.68906C28.2256 7.62279 28.3712 7.65031 28.4535 7.75374C28.5359 7.85716 28.53 8.00528 28.4397 8.10186L27.4707 9.1376L28.9875 8.26186C29.1066 8.19231 29.259 8.22506 29.3391 8.33737C29.4191 8.44969 29.4003 8.60451 29.2957 8.6944L28.9091 9.0304L29.5747 8.64586C29.6931 8.5775 29.844 8.60974 29.9241 8.7205C30.0042 8.83127 29.9876 8.98469 29.8856 9.07573L29.3667 9.5392L30.2024 9.0592C30.3227 8.98922 30.4766 9.02357 30.5558 9.13805C30.635 9.25254 30.6127 9.40866 30.5048 9.49653L30.4765 9.51946L30.7048 9.38826C30.8243 9.32106 30.9753 9.35541 31.0539 9.46768C31.1326 9.57995 31.1133 9.73358 31.0093 9.82293L30.8088 9.99146L31.2131 9.7584C31.3268 9.69293 31.4713 9.71997 31.5537 9.82215C31.6361 9.92432 31.6318 10.0712 31.5437 10.1685L30.5587 11.2533L31.7507 10.5653C31.8659 10.4996 32.012 10.5287 32.0934 10.6335C32.1747 10.7383 32.1666 10.887 32.0744 10.9824L31.5411 11.5259L31.7267 11.4192C31.8533 11.353 32.0096 11.3983 32.0811 11.522C32.1527 11.6458 32.1139 11.8039 31.9933 11.8805L30.1181 12.96C30.0778 12.9839 30.0317 12.9964 29.9848 12.9963Z" fill="#0970DE"/>
        <path d="M2.64403 13.0192C2.52507 13.0192 2.42049 12.9404 2.3877 12.8261C2.3549 12.7117 2.40182 12.5895 2.5027 12.5264L6.18537 10.2283L1.8787 12.7147C1.75234 12.7904 1.58853 12.7493 1.51283 12.6229C1.43713 12.4966 1.4782 12.3328 1.60456 12.2571L4.10697 10.7104L1.4403 12.2512C1.31512 12.324 1.15473 12.2836 1.07898 12.1602C1.00323 12.0368 1.0398 11.8755 1.16136 11.7968L9.3635 6.46347L1.2259 11.1579C1.09994 11.2305 0.939014 11.1888 0.864121 11.0642C0.789228 10.9396 0.827976 10.7779 0.951231 10.7008L4.84137 8.26027L3.82803 8.84693C3.70247 8.91869 3.54258 8.87728 3.46764 8.75359C3.3927 8.62989 3.43002 8.46901 3.55177 8.39093L13.3534 2.13973C13.3479 2.03948 13.3992 1.94465 13.4862 1.8944L16.1624 0.347732C16.2884 0.271296 16.4524 0.311411 16.5288 0.437332C16.6053 0.563253 16.5652 0.727296 16.4392 0.803732L14.0526 2.3264L17.1459 0.541866C17.2715 0.471487 17.4303 0.513525 17.5046 0.636834C17.579 0.760143 17.542 0.920191 17.4211 0.998399L13.5352 3.43573L17.8206 0.959999C17.9463 0.882827 18.1109 0.922226 18.188 1.048C18.2652 1.17377 18.2258 1.33829 18.1 1.41547L9.8963 6.7488L18.8056 1.60587C18.9313 1.53666 19.0892 1.57926 19.163 1.70229C19.2368 1.82531 19.2 1.98467 19.0798 2.06293L16.5886 3.60587L19.3907 1.98827C19.5161 1.92035 19.6727 1.96308 19.7462 2.08527C19.8197 2.20745 19.7841 2.36585 19.6654 2.4448L7.26857 10.1808C7.29125 10.2931 7.23973 10.4073 7.14057 10.4645L2.77737 12.9835C2.73683 13.0069 2.69084 13.0192 2.64403 13.0192Z" fill="#0970DE"/>
        <path d="M13.5592 31.7301C13.4436 31.7301 13.3412 31.6556 13.3056 31.5456C13.27 31.4356 13.3093 31.3152 13.4029 31.2475L16.9725 28.6603L11.8493 31.6176C11.7256 31.6864 11.5695 31.6465 11.4941 31.5266C11.4186 31.4067 11.45 31.2488 11.5656 31.1669L15.3699 28.5653L11.8499 30.5973C11.7262 30.6672 11.5694 30.6278 11.4934 30.5077C11.4174 30.3876 11.449 30.2291 11.5651 30.1472L15.7288 27.2704L11.8499 29.5104C11.7254 29.5826 11.5661 29.5429 11.4899 29.4208C11.4137 29.2987 11.4482 29.1382 11.5677 29.0581L14.6669 26.9744L11.8493 28.6011C11.7256 28.6709 11.5689 28.6315 11.4929 28.5114C11.4169 28.3914 11.4484 28.2328 11.5645 28.1509L15.7448 25.2603L11.8515 27.5093C11.727 27.577 11.5714 27.5356 11.497 27.415C11.4227 27.2944 11.4556 27.1368 11.572 27.056L13.46 25.8133L11.8504 26.7424C11.7249 26.816 11.5635 26.7753 11.4878 26.651C11.4121 26.5267 11.4501 26.3647 11.5731 26.2869L11.8179 26.1269C11.691 26.1781 11.546 26.125 11.4822 26.004C11.4184 25.883 11.4565 25.7334 11.5704 25.6576L13.5171 24.3733L11.8488 25.3365C11.7253 25.4055 11.5694 25.3661 11.4936 25.2466C11.4178 25.1272 11.4484 24.9693 11.5635 24.8869L14.8221 22.6213L11.8488 24.3376C11.726 24.4092 11.5686 24.3719 11.491 24.2528C11.4134 24.1336 11.4429 23.9745 11.5581 23.8912L14.2365 21.9365L11.8488 23.3147C11.7286 23.3821 11.5769 23.3469 11.4987 23.2335C11.4205 23.12 11.4416 22.9656 11.5475 22.8773L13.7117 21.1173L11.8488 22.1925C11.7339 22.2581 11.5882 22.2295 11.5067 22.1253C11.4251 22.0212 11.4322 21.8729 11.5235 21.7771L12.8568 20.3904L11.8483 20.9717C11.7407 21.0337 11.6046 21.0132 11.52 20.9224C11.4354 20.8316 11.4247 20.6944 11.4941 20.5915L11.8995 19.992C11.775 20.0037 11.6591 19.9274 11.6207 19.8085C11.5823 19.6895 11.6317 19.5598 11.7395 19.4965L12.6072 18.9952C12.7148 18.9332 12.8509 18.9537 12.9355 19.0445C13.0201 19.1354 13.0308 19.2726 12.9613 19.3755L12.588 19.9312L14.2195 18.9867C14.3344 18.9211 14.4801 18.9497 14.5616 19.0539C14.6432 19.158 14.6361 19.3063 14.5448 19.4021L13.2115 20.7888L16.3368 18.9851C16.4571 18.9164 16.6099 18.9512 16.6885 19.0651C16.7672 19.1791 16.7455 19.3343 16.6387 19.4224L14.4733 21.1824L18.2829 18.9867C18.4058 18.915 18.5632 18.9523 18.6408 19.0715C18.7184 19.1907 18.6888 19.3497 18.5736 19.4331L15.8952 21.3867L20.0552 18.9867C20.1784 18.9199 20.3322 18.9599 20.4073 19.0781C20.4825 19.1964 20.4533 19.3526 20.3405 19.4357L17.0829 21.7013L20.9635 19.4613C21.0883 19.389 21.2481 19.429 21.324 19.5517C21.3999 19.6744 21.3645 19.8352 21.244 19.9147L19.2925 21.2L21.1512 20.1275C21.2768 20.0539 21.4381 20.0946 21.5138 20.2189C21.5895 20.3431 21.5515 20.5052 21.4285 20.5829L21.1875 20.7376C21.3149 20.6869 21.4599 20.7411 21.5229 20.8629C21.5859 20.9847 21.5462 21.1344 21.4312 21.2091L19.54 22.4533L21.1512 21.5237C21.2746 21.4564 21.4291 21.4963 21.5043 21.6151C21.5795 21.7338 21.5496 21.8906 21.436 21.9733L17.2563 24.8635L21.1544 22.6133C21.2789 22.5412 21.4382 22.5808 21.5144 22.7029C21.5905 22.825 21.5561 22.9855 21.4365 23.0656L18.3363 25.1499L21.1555 23.52C21.279 23.451 21.4349 23.4904 21.5107 23.6099C21.5865 23.7294 21.5558 23.8872 21.4408 23.9696L17.2755 26.8496L21.1571 24.6096C21.281 24.5387 21.4388 24.5781 21.515 24.6988C21.5911 24.8196 21.5587 24.9789 21.4413 25.0603L17.6381 27.6608L21.1581 25.6288C21.281 25.5583 21.4376 25.5962 21.5147 25.7151C21.5917 25.834 21.5623 25.9924 21.4477 26.0757L17.8776 28.6635L21.1597 26.7685C21.2809 26.6961 21.4375 26.7307 21.5169 26.8473C21.5964 26.9639 21.5712 27.1223 21.4595 27.2085L18.6547 29.44L21.1613 27.9925C21.2836 27.923 21.4388 27.9604 21.516 28.0779C21.5932 28.1954 21.5659 28.3527 21.4536 28.4373L20.8477 28.8859L21.1624 28.7045C21.2763 28.6383 21.4215 28.6652 21.5042 28.7678C21.5868 28.8704 21.5821 29.018 21.4931 29.1152L20.3544 30.3664L21.164 29.8987C21.2579 29.8442 21.3754 29.8522 21.4612 29.9187C21.5469 29.9852 21.5838 30.0971 21.5544 30.2016L21.3373 30.9712C21.4501 30.9872 21.5403 31.0731 21.5617 31.185C21.5832 31.2969 21.5312 31.4101 21.4323 31.4667L21.0589 31.68C20.9649 31.7346 20.8472 31.7266 20.7614 31.6599C20.6756 31.5932 20.6389 31.4811 20.6685 31.3765L20.8632 30.6832L19.1352 31.6805C19.0215 31.746 18.877 31.7189 18.7946 31.6168C18.7122 31.5146 18.7164 31.3677 18.8045 31.2704L19.9453 30.0267L17.0611 31.6912C16.9388 31.7607 16.7836 31.7233 16.7064 31.6058C16.6292 31.4883 16.6565 31.331 16.7688 31.2464L17.3715 30.8L15.8248 31.6933C15.704 31.7622 15.5505 31.7267 15.4723 31.6117C15.394 31.4968 15.4172 31.341 15.5256 31.2539L18.3315 29.0197L13.6915 31.6971C13.6511 31.7196 13.6054 31.731 13.5592 31.7301Z" fill="#346D94"/>
        <path d="M15.9374 16.16C15.8226 16.16 15.7207 16.0866 15.6844 15.9777C15.6481 15.8688 15.6855 15.7489 15.7774 15.68L16.1608 15.3872L15.3027 15.8827C15.18 15.9525 15.0242 15.9145 14.9472 15.7962C14.8703 15.6778 14.899 15.5201 15.0126 15.4363L15.3176 15.2149L14.7171 15.5616C14.596 15.6314 14.4415 15.5957 14.3632 15.48C14.2848 15.3642 14.3092 15.2076 14.419 15.1211L16.3198 13.6235L14.0739 14.92C13.953 14.9903 13.7984 14.9552 13.7196 14.8397C13.6408 14.7242 13.6646 14.5674 13.7742 14.4805L15.956 12.7387L13.6334 14.08C13.514 14.147 13.3634 14.1127 13.2847 14.0008C13.206 13.8888 13.2249 13.7355 13.3283 13.6459L15.5502 11.7701L13.46 12.9781C13.3407 13.0451 13.19 13.0108 13.1114 12.8989C13.0327 12.7869 13.0515 12.6336 13.155 12.544L14.4883 11.4171L13.6883 11.8784C13.5697 11.9461 13.4191 11.9133 13.3394 11.8023C13.2598 11.6914 13.2768 11.5382 13.379 11.4475L14.1038 10.8133C14.0715 10.7912 14.0447 10.762 14.0254 10.728C13.9521 10.6006 13.9957 10.4379 14.123 10.3643L15.6051 9.50826C15.7238 9.44033 15.8747 9.47328 15.9544 9.58453C16.034 9.69578 16.0165 9.84924 15.9139 9.93973L15.7859 10.0523L16.8163 9.45707C16.9358 9.38875 17.0878 9.42269 17.1669 9.53541C17.246 9.64812 17.2262 9.80252 17.1214 9.89173L15.788 11.0181L17.8819 9.8096C18.0012 9.74265 18.1519 9.77689 18.2306 9.88885C18.3092 10.0008 18.2904 10.1541 18.187 10.2437L15.9651 12.1195L18.7555 10.5067C18.8762 10.4368 19.0304 10.4718 19.1091 10.5869C19.1878 10.702 19.1646 10.8584 19.0558 10.9456L16.8734 12.688L19.2574 11.3115C19.3782 11.2435 19.5311 11.2795 19.6089 11.3943C19.6867 11.5091 19.6635 11.6644 19.5555 11.7515L17.6531 13.2512L19.4883 12.1915C19.611 12.1217 19.7668 12.1596 19.8437 12.2779C19.9207 12.3963 19.892 12.5541 19.7784 12.6379L19.4782 12.8555L19.5054 12.8405C19.6269 12.7731 19.7799 12.8103 19.8568 12.926C19.9338 13.0417 19.909 13.1972 19.7998 13.2832L19.403 13.5861C19.5229 13.535 19.6623 13.5782 19.7323 13.6882C19.8024 13.7982 19.7826 13.9427 19.6856 14.0299L18.8675 14.7685C18.9534 14.8137 19.0079 14.902 19.0099 14.999C19.0119 15.0961 18.961 15.1865 18.8771 15.2352L17.3944 16.0917C17.2771 16.1555 17.1307 16.1226 17.0519 16.0148C16.973 15.907 16.9861 15.7576 17.0824 15.6651L17.4606 15.3237L16.0691 16.1237C16.0291 16.1472 15.9837 16.1597 15.9374 16.16Z" fill="#2885EE"/>
        <path d="M29.692 12.8416C30.5081 13.0345 31.3665 12.8025 31.9741 12.2245C31.9832 12.2176 31.9923 12.2112 32.0008 12.2037C32.0093 12.1963 32.0179 12.1909 32.0269 12.1835C32.0792 12.1457 32.1099 12.0848 32.1091 12.0203C33.0488 9.84693 30.1213 8.7136 28.6547 7.7536C28.261 7.56789 27.8955 7.32766 27.5688 7.04C27.5817 6.8025 27.5778 6.5644 27.5571 6.32746V3.16746C27.5327 2.55085 27.2149 1.98305 26.7022 1.63968C26.1895 1.2963 25.5435 1.21872 24.964 1.43093C24.9089 1.44739 24.8568 1.4728 24.8099 1.50613C24.7992 1.50966 24.7887 1.51376 24.7784 1.5184C23.5821 2.24 23.5448 3.22506 23.5656 4.4096C21.676 3.10026 19.7496 1.5296 17.7096 0.597329C15.8781 -0.240005 14.4243 1.2416 12.948 2.20693L3.92774 8.10666C2.39654 9.10826 -0.29039 10.24 1.10108 12.4267C1.10797 12.4484 1.11942 12.4684 1.13468 12.4853L1.13948 12.4939C1.14641 12.5045 1.15921 12.5088 1.16774 12.5179C1.17628 12.5269 1.18108 12.5371 1.19494 12.5451L1.20561 12.5504C1.22756 12.5656 1.25165 12.5775 1.27708 12.5856C1.89858 12.9246 2.62856 13.0052 3.30908 12.8101V26.8901C3.30908 27.9851 2.83708 30.392 3.68667 31.3056C4.39814 32.0709 6.02694 31.7685 6.94694 31.7685H24.3336C25.5368 31.7685 27.1272 32.048 28.3075 31.7509C29.9421 31.3392 29.6909 29.9376 29.6909 28.5733L29.692 12.8416ZM1.83334 12.1264C1.46001 11.5099 1.94908 10.2805 2.37414 9.7952C2.63128 9.58012 2.91286 9.39609 3.21308 9.24693L6.14321 7.33066L13.46 2.54826C15.1256 1.45973 16.1197 0.386129 18.0344 1.63786L23.6675 5.32266C23.6861 5.33312 23.7057 5.34152 23.7261 5.34773L24.1965 5.65813C24.4371 5.81813 25.1389 5.4752 24.8035 5.25386L24.356 4.96C24.34 3.8896 24.132 2.65653 25.18 1.93546C25.5702 1.85451 25.9761 1.95335 26.2854 2.20463C26.5947 2.45591 26.7745 2.83297 26.7752 3.23146C26.7752 4.0752 26.5213 5.53866 26.6573 6.59466C26.3699 6.64373 26.0707 6.89493 26.3341 7.06826C26.5119 7.18346 26.6897 7.29902 26.8675 7.41493C26.8846 7.42282 26.9024 7.4289 26.9208 7.43306C26.9256 7.44053 26.9293 7.45013 26.9347 7.4576C27.884 8.88266 32.4653 9.5376 31.3576 11.9867C30.1843 13.0235 28.7757 11.6533 27.8851 11.0709L23.1288 7.96106L18.5064 4.93813C18.0205 4.61813 17.4232 4.03146 16.8296 3.9568C15.9933 3.85493 15.4776 4.3728 14.8147 4.80693L10.3523 7.7264L5.65361 10.8005C5.00674 11.3063 4.31743 11.7552 3.59334 12.1424C3.56674 12.1498 3.54086 12.1597 3.51601 12.1717C2.98083 12.4298 2.35384 12.4129 1.83334 12.1264ZM12.0861 29.5221V26.4821C12.0861 24.5984 11.7347 22.336 12.0861 20.4827C12.3069 19.3221 12.5299 19.4976 13.4195 19.3531C14.5222 19.2685 15.6298 19.2685 16.7325 19.3531C18.4584 19.3531 20.4659 18.8043 20.9133 20.8837C21.3048 22.7131 20.9133 25.0571 20.9133 26.9259V31.1675H12.0248C12.0014 30.6183 12.0219 30.0681 12.0861 29.5221ZM28.9069 30.2933C28.4147 31.6741 26.3587 31.1659 25.1773 31.1659H21.6861V21.328C21.6861 20.1669 21.7896 19.3605 20.444 19.0475C18.9256 18.6939 16.8739 19.0475 15.3272 19.0475C14.4392 19.0475 12.9555 18.7872 12.0968 19.2651C11.1699 19.7803 11.3139 20.6208 11.3139 21.5349V31.1669H9.51334C8.30961 31.1669 6.06747 31.6293 4.94001 31.1669C3.54001 30.5931 4.09361 28.0373 4.09361 26.8384V12.544C5.63174 11.8816 7.15281 10.4944 8.27441 9.76053L13.7235 6.19573C14.3805 5.76586 15.7971 4.45333 16.5443 4.48533C17.4296 4.5232 19.2845 6.27733 19.9987 6.744L25.4968 10.3387C26.5277 11.0128 27.7037 12.0576 28.9069 12.584V25.0389C28.9069 26.4944 29.3987 28.9152 28.9069 30.2933Z" fill="#262626"/>
        <path d="M19.3128 12.8453C19.1608 15.6672 15.6462 16.8747 14.1235 14.2768C12.6158 11.7051 15.3656 8.70827 18.0483 10.3835C18.2744 10.5243 18.9832 10.1984 18.66 9.99681C15.7374 8.17067 11.3955 11.1701 13.3646 14.5424C15.1614 17.6197 19.9059 16.1237 20.0872 12.7531C20.1048 12.4267 19.3267 12.5712 19.3128 12.8453Z" fill="#262626"/>
    </g>
    <defs>
        <clipPath id="clip0_1_1389">
            <rect width="32" height="32" fill="white" transform="translate(0.5)"/>
        </clipPath>
    </defs>
</svg>
