<svg width="20" height="20" viewBox="0 0 20 20" fill="none" xmlns="http://www.w3.org/2000/svg">
    <path d="M4.16667 18.3346C3.70833 18.3346 3.31583 18.1716 2.98917 17.8455C2.66306 17.5188 2.5 17.1263 2.5 16.668V5.83464C2.5 5.3744 2.8731 5.0013 3.33333 5.0013C3.79357 5.0013 4.16667 5.3744 4.16667 5.83464V16.668H12.5C12.9602 16.668 13.3333 17.0411 13.3333 17.5013C13.3333 17.9615 12.9602 18.3346 12.5 18.3346H4.16667ZM7.5 15.0013C7.04167 15.0013 6.64944 14.8382 6.32333 14.5121C5.99667 14.1855 5.83333 13.793 5.83333 13.3346V3.33464C5.83333 2.8763 5.99667 2.4838 6.32333 2.15714C6.64944 1.83102 7.04167 1.66797 7.5 1.66797H15C15.4583 1.66797 15.8508 1.83102 16.1775 2.15714C16.5036 2.4838 16.6667 2.8763 16.6667 3.33464V13.3346C16.6667 13.793 16.5036 14.1855 16.1775 14.5121C15.8508 14.8382 15.4583 15.0013 15 15.0013H7.5Z" fill="white"/>
</svg>
