<svg width="33" height="32" viewBox="0 0 33 32" fill="none" xmlns="http://www.w3.org/2000/svg">
    <path d="M11.6361 18.0496L11.6868 18.1003C12.3219 18.7338 13.0322 19.2873 13.8018 19.7484L13.8036 19.7496C13.9524 19.8384 14.1024 19.924 14.2543 20.0046C16.3364 21.118 18.7213 21.5321 21.0569 21.186C23.3924 20.8398 25.5547 19.7516 27.2243 18.0821L20.5068 11.3646L18.3855 9.24338L11.668 2.52588C9.61072 4.58316 8.45229 7.37173 8.44631 10.2812C8.44034 13.1906 9.58731 15.9839 11.6361 18.0496Z" fill="#FF808D"/>
    <path d="M21.484 6.83378C21.4992 7.17755 21.6321 7.50564 21.8605 7.76301C22.0889 8.02038 22.3989 8.19136 22.7384 8.24726C23.078 8.30317 23.4264 8.2406 23.7253 8.07006C24.0241 7.89951 24.2553 7.63137 24.3799 7.31061C24.5045 6.98986 24.515 6.63601 24.4096 6.30843C24.3042 5.98086 24.0894 5.69949 23.8012 5.51153C23.5129 5.32357 23.1688 5.24047 22.8265 5.27616C22.4843 5.31184 22.1647 5.46415 21.9215 5.70753C21.7742 5.85447 21.6592 6.03054 21.5839 6.22448C21.5085 6.41841 21.4745 6.62594 21.484 6.83378Z" fill="#FF808D"/>
    <path d="M4.75 31.0005H20.75L19.75 29.0005H5.75L4.75 31.0005Z" fill="#FF808D"/>
    <path d="M27.578 18.4354C27.6717 18.3415 27.7243 18.2143 27.7243 18.0816C27.7243 17.949 27.6717 17.8218 27.578 17.7279L21.1724 11.3223L23.1661 8.75915C23.5444 8.72417 23.9049 8.5822 24.2054 8.34984C24.5059 8.11748 24.734 7.80433 24.8631 7.44705C24.9921 7.08977 25.0167 6.70312 24.9341 6.33236C24.8514 5.96159 24.6648 5.62204 24.3962 5.35343C24.1276 5.08481 23.7881 4.89826 23.4173 4.81558C23.0465 4.73291 22.6599 4.75753 22.3026 4.88658C21.9453 5.01562 21.6322 5.24375 21.3998 5.54427C21.1674 5.84478 21.0255 6.20526 20.9905 6.58352L18.4274 8.57727L12.0217 2.17165C11.9278 2.07799 11.8006 2.02539 11.668 2.02539C11.5354 2.02539 11.4082 2.07799 11.3142 2.17165C7.56425 5.92227 6.95175 11.6391 9.47487 16.0335L5.85987 19.7098C5.76736 19.8037 5.71576 19.9304 5.71635 20.0623C5.71693 20.1941 5.76965 20.3204 5.86299 20.4135L8.69112 23.2423C8.785 23.336 8.91223 23.3886 9.04487 23.3885H9.04675C9.11276 23.3883 9.17807 23.375 9.2389 23.3493C9.29973 23.3237 9.35487 23.2862 9.40112 23.2391L10.5667 22.0541L9.8055 28.4998H5.74987C5.657 28.4998 5.56596 28.5256 5.48693 28.5744C5.4079 28.6232 5.344 28.693 5.30237 28.776L4.30237 30.776C4.26421 30.8523 4.24619 30.937 4.25002 31.0222C4.25384 31.1074 4.27939 31.1902 4.32424 31.2627C4.36908 31.3352 4.43173 31.3951 4.50623 31.4366C4.58073 31.4781 4.6646 31.4998 4.74987 31.4998H20.7499C20.8351 31.4998 20.919 31.4781 20.9935 31.4366C21.068 31.3951 21.1307 31.3352 21.1755 31.2627C21.2203 31.1902 21.2459 31.1074 21.2497 31.0222C21.2536 30.937 21.2355 30.8523 21.1974 30.776L20.1974 28.776C20.1557 28.693 20.0918 28.6232 20.0128 28.5744C19.9338 28.5256 19.8427 28.4998 19.7499 28.4998H15.6974L14.8499 20.8454C16.9688 21.7646 19.3149 22.0263 21.5843 21.5966C23.8537 21.1669 25.9418 20.0656 27.578 18.4354ZM22.2749 6.06102C22.4384 5.89777 22.6534 5.79625 22.8834 5.77376C23.1134 5.75127 23.344 5.8092 23.5361 5.93769C23.7281 6.06617 23.8697 6.25726 23.9366 6.47841C24.0036 6.69955 23.9918 6.93707 23.9033 7.15051C23.8148 7.36395 23.655 7.5401 23.4512 7.64896C23.2474 7.75782 23.0122 7.79266 22.7856 7.74754C22.5589 7.70241 22.355 7.58012 22.2084 7.4015C22.0619 7.22287 21.9817 6.99896 21.9817 6.7679C21.9816 6.63656 22.0074 6.5065 22.0577 6.38518C22.108 6.26387 22.1818 6.1537 22.2749 6.06102ZM21.2036 7.68415C21.3943 8.05404 21.6956 8.3553 22.0655 8.54602L20.4599 10.6098L19.1399 9.28977L21.2036 7.68415ZM9.04175 22.1785L6.9205 20.0573L9.90362 17.0241L11.3136 18.4341C11.3142 18.4348 11.3142 18.4348 11.3142 18.4354C11.3142 18.436 11.3149 18.4354 11.3155 18.436L12.0249 19.1454L9.04175 22.1785ZM12.8542 19.7279C13.1567 19.9398 13.4672 20.1352 13.7855 20.3141L14.6917 28.4998H10.8161L11.7111 20.8904L12.8542 19.7279ZM19.4411 29.4998L19.9411 30.4998H5.55862L6.05862 29.4998H19.4411ZM12.0217 17.7279C8.04612 13.7523 7.93112 7.35602 11.6761 3.2404L20.1536 11.7179H20.1542L26.5092 18.0735C22.3936 21.8185 15.9974 21.7035 12.0217 17.7279Z" fill="#404040"/>
    <path d="M25.5862 5.74158C25.6496 5.7586 25.7157 5.76295 25.7809 5.75439C25.846 5.74583 25.9088 5.72453 25.9656 5.69171C26.0225 5.65888 26.0724 5.61517 26.1124 5.56307C26.1523 5.51098 26.1817 5.45151 26.1987 5.38808C26.2668 5.1337 26.2668 4.86587 26.1986 4.6115C26.1304 4.35714 25.9965 4.12519 25.8103 3.93898C25.6241 3.75277 25.3921 3.61884 25.1377 3.55067C24.8834 3.48249 24.6155 3.48246 24.3612 3.55058C24.2977 3.56758 24.2383 3.59691 24.1862 3.63689C24.1341 3.67687 24.0904 3.72672 24.0576 3.78359C24.0247 3.84046 24.0034 3.90324 23.9949 3.96834C23.9863 4.03344 23.9907 4.0996 24.0077 4.16302C24.0247 4.22644 24.054 4.2859 24.094 4.33799C24.1339 4.39008 24.1838 4.43378 24.2407 4.46661C24.2975 4.49944 24.3603 4.52074 24.4254 4.5293C24.4905 4.53786 24.5567 4.53352 24.6201 4.51652C24.7049 4.49389 24.7941 4.49395 24.8789 4.5167C24.9636 4.53945 25.0409 4.5841 25.103 4.64615C25.165 4.7082 25.2097 4.78548 25.2324 4.87023C25.2552 4.95499 25.2552 5.04423 25.2326 5.12902C25.2156 5.19246 25.2112 5.25863 25.2198 5.32375C25.2283 5.38887 25.2496 5.45167 25.2825 5.50855C25.3153 5.56544 25.359 5.6153 25.4111 5.65528C25.4632 5.69526 25.5227 5.72459 25.5862 5.74158Z" fill="#404040"/>
    <path d="M23.9731 2.10383C23.9096 2.12077 23.8501 2.15004 23.798 2.18997C23.7459 2.2299 23.7021 2.2797 23.6693 2.33654C23.6364 2.39338 23.615 2.45614 23.6064 2.52123C23.5978 2.58633 23.602 2.65248 23.619 2.71592C23.6359 2.77936 23.6652 2.83885 23.7051 2.89098C23.745 2.9431 23.7949 2.98686 23.8517 3.01974C23.9085 3.05262 23.9713 3.07398 24.0364 3.08261C24.1015 3.09124 24.1676 3.08696 24.2311 3.07002C24.5703 2.97913 24.9275 2.97915 25.2668 3.07007C25.6061 3.16098 25.9154 3.33959 26.1638 3.58795C26.4121 3.8363 26.5907 4.14565 26.6816 4.48491C26.7726 4.82417 26.7726 5.18138 26.6817 5.52064C26.6475 5.64877 26.6656 5.78523 26.732 5.90001C26.7984 6.0148 26.9077 6.0985 27.0358 6.1327C27.1639 6.16691 27.3004 6.14882 27.4152 6.0824C27.53 6.01599 27.6137 5.9067 27.6479 5.77858C27.7841 5.26982 27.784 4.73417 27.6477 4.22544C27.5113 3.71672 27.2435 3.25284 26.871 2.88042C26.4986 2.508 26.0347 2.24015 25.526 2.10379C25.0173 1.96743 24.4816 1.96736 23.9729 2.10358L23.9731 2.10383Z" fill="#404040"/>
    <path d="M27.9313 1.81877C27.3719 1.2614 26.6761 0.860462 25.9134 0.655976C25.1506 0.45149 24.3475 0.450601 23.5843 0.653398C23.5196 0.669101 23.4586 0.697593 23.405 0.7372C23.3514 0.776806 23.3063 0.826728 23.2722 0.884031C23.2382 0.941333 23.216 1.00486 23.2069 1.07088C23.1977 1.13689 23.2019 1.20407 23.2191 1.26845C23.2363 1.33283 23.2662 1.39312 23.3071 1.44578C23.3479 1.49844 23.3989 1.5424 23.457 1.57508C23.5151 1.60776 23.5791 1.6285 23.6453 1.63608C23.7115 1.64366 23.7786 1.63792 23.8425 1.61921C24.4362 1.46015 25.0613 1.46017 25.655 1.61926C26.2487 1.77834 26.79 2.0909 27.2247 2.52551C27.6593 2.96012 27.9718 3.50148 28.1309 4.09516C28.29 4.68885 28.29 5.31395 28.131 5.90765C28.1134 5.97127 28.1086 6.03773 28.1169 6.1032C28.1252 6.16868 28.1463 6.23187 28.1791 6.28913C28.2119 6.34639 28.2558 6.39659 28.3081 6.43683C28.3604 6.47708 28.4201 6.50657 28.4839 6.52361C28.5476 6.54065 28.6141 6.54489 28.6795 6.53611C28.7449 6.52732 28.808 6.50568 28.865 6.47242C28.922 6.43916 28.9718 6.39495 29.0116 6.34233C29.0515 6.28971 29.0805 6.22972 29.097 6.16584C29.2998 5.40259 29.2989 4.59951 29.0943 3.83674C28.8898 3.07396 28.4888 2.37817 27.9313 1.81877Z" fill="#404040"/>
</svg>
