<svg width="33" height="32" viewBox="0 0 33 32" fill="none" xmlns="http://www.w3.org/2000/svg">
    <path d="M16.25 17.5C17.4367 17.5 18.5967 17.1481 19.5834 16.4888C20.5701 15.8295 21.3391 14.8925 21.7933 13.7961C22.2474 12.6997 22.3662 11.4933 22.1347 10.3295C21.9032 9.16557 21.3317 8.09647 20.4926 7.25736C19.6535 6.41825 18.5844 5.8468 17.4205 5.61529C16.2566 5.38378 15.0503 5.5026 13.9539 5.95673C12.8575 6.41085 11.9205 7.17988 11.2612 8.16658C10.6019 9.15327 10.25 10.3133 10.25 11.5C10.25 13.0913 10.8821 14.6174 12.0074 15.7426C13.1326 16.8679 14.6587 17.5 16.25 17.5ZM17.5 7L17 11.5H19L15 16L15.5 11.5H13.5L17.5 7Z" fill="#FF808D"/>
    <path d="M11.75 28.25C11.75 28.4142 11.7822 28.5767 11.845 28.7284C11.9079 28.8801 11.9999 29.0179 12.116 29.134C12.2321 29.2501 12.3699 29.3421 12.5216 29.4049C12.6733 29.4678 12.8358 29.5 13 29.5H19.5C19.6642 29.5 19.8267 29.4678 19.9784 29.4049C20.1301 29.3421 20.2679 29.2501 20.384 29.134C20.5001 29.0179 20.5921 28.8801 20.6549 28.7284C20.7178 28.5767 20.75 28.4142 20.75 28.25V24.5H11.75V28.25Z" fill="#FF808D"/>
    <path d="M18.9998 10.9993H17.5584L17.9967 7.05457C18.0085 6.9491 17.9864 6.84263 17.9336 6.75057C17.8808 6.6585 17.8001 6.58562 17.7031 6.54247C17.6062 6.49932 17.498 6.48813 17.3943 6.51053C17.2905 6.53293 17.1966 6.58776 17.1261 6.66707L13.1261 11.1671C13.0621 11.2391 13.0202 11.3281 13.0056 11.4234C12.9909 11.5187 13.0041 11.6162 13.0436 11.7041C13.0831 11.7921 13.1472 11.8667 13.2281 11.9191C13.309 11.9715 13.4034 11.9993 13.4998 11.9993H14.9412L14.5029 15.9441C14.4911 16.0495 14.5132 16.156 14.566 16.2481C14.6188 16.3401 14.6995 16.413 14.7965 16.4562C14.8934 16.4993 15.0016 16.5105 15.1053 16.4881C15.2091 16.4657 15.303 16.4109 15.3735 16.3316L19.3735 11.8316C19.4376 11.7595 19.4794 11.6705 19.4941 11.5752C19.5087 11.4799 19.4955 11.3825 19.456 11.2945C19.4165 11.2066 19.3524 11.1319 19.2715 11.0795C19.1906 11.0272 19.0962 10.9993 18.9998 10.9993ZM15.6704 14.4924L15.9967 11.5546C16.0045 11.4847 15.9975 11.4139 15.976 11.347C15.9546 11.28 15.9193 11.2183 15.8724 11.1659C15.8255 11.1135 15.7681 11.0715 15.7039 11.0429C15.6397 11.0142 15.5701 10.9993 15.4998 10.9993H14.6132L16.8292 8.50626L16.5029 11.4441C16.4951 11.514 16.5022 11.5847 16.5236 11.6517C16.545 11.7187 16.5803 11.7804 16.6272 11.8328C16.6741 11.8852 16.7315 11.9271 16.7957 11.9558C16.8599 11.9845 16.9295 11.9993 16.9998 11.9993H17.8864L15.6704 14.4924Z" fill="#404040"/>
    <path d="M27.75 12C27.75 5.65875 22.5913 0.5 16.25 0.5C9.90876 0.5 4.75001 5.65875 4.75001 12C4.74766 14.3488 5.46535 16.6419 6.80636 18.5703C8.14737 20.4987 10.0473 21.9696 12.25 22.785V24H11.75C11.6174 24 11.4902 24.0527 11.3965 24.1464C11.3027 24.2402 11.25 24.3674 11.25 24.5V28.25C11.2505 28.714 11.4351 29.1588 11.7631 29.4869C12.0912 29.8149 12.536 29.9995 13 30H13.75V30.25C13.7503 30.5814 13.8821 30.8992 14.1165 31.1335C14.3508 31.3679 14.6686 31.4997 15 31.5H17.5C17.8314 31.4997 18.1492 31.3679 18.3835 31.1335C18.6179 30.8992 18.7497 30.5814 18.75 30.25V30H19.5C19.964 29.9995 20.4088 29.8149 20.7369 29.4869C21.065 29.1588 21.2495 28.714 21.25 28.25V24.5C21.25 24.3674 21.1973 24.2402 21.1036 24.1464C21.0098 24.0527 20.8826 24 20.75 24H20.25V22.785C22.4528 21.9696 24.3526 20.4987 25.6937 18.5703C27.0347 16.6419 27.7523 14.3488 27.75 12ZM17.75 30.25C17.75 30.3163 17.7237 30.3799 17.6768 30.4268C17.6299 30.4737 17.5663 30.5 17.5 30.5H15C14.9337 30.5 14.8701 30.4737 14.8232 30.4268C14.7763 30.3799 14.75 30.3163 14.75 30.25V30H17.75V30.25ZM20.25 28.25C20.2498 28.4489 20.1708 28.6395 20.0302 28.7801C19.8895 28.9208 19.6989 28.9998 19.5 29H13C12.8011 28.9998 12.6105 28.9208 12.4699 28.7801C12.3292 28.6395 12.2502 28.4489 12.25 28.25V25H20.25V28.25ZM14.75 17.825C15.7364 18.0583 16.7636 18.0583 17.75 17.825V24H16.75V22.5C16.75 22.3674 16.6973 22.2402 16.6036 22.1464C16.5098 22.0527 16.3826 22 16.25 22C16.1174 22 15.9902 22.0527 15.8965 22.1464C15.8027 22.2402 15.75 22.3674 15.75 22.5V24H14.75V17.825ZM10.75 11.5C10.75 10.4122 11.0726 9.34883 11.6769 8.44436C12.2813 7.53989 13.1403 6.83494 14.1452 6.41866C15.1502 6.00238 16.2561 5.89346 17.323 6.10568C18.3899 6.3179 19.3699 6.84172 20.1391 7.61091C20.9083 8.3801 21.4321 9.36011 21.6443 10.427C21.8565 11.4939 21.7476 12.5998 21.3313 13.6048C20.9151 14.6098 20.2101 15.4687 19.3056 16.0731C18.4012 16.6774 17.3378 17 16.25 17C14.7918 16.9983 13.3938 16.4184 12.3627 15.3873C11.3317 14.3562 10.7517 12.9582 10.75 11.5ZM19.5913 21.9575C19.4919 21.9907 19.4054 22.0543 19.3442 22.1393C19.283 22.2243 19.25 22.3265 19.25 22.4312V24H18.75V17.5C19.9179 17.0101 20.9185 16.1915 21.63 15.1438C22.3816 14.0334 22.7713 12.7178 22.7458 11.3772C22.7203 10.0367 22.2807 8.73683 21.4874 7.65592C20.694 6.57501 19.5858 5.76595 18.3146 5.33967C17.0433 4.91339 15.6714 4.89076 14.3868 5.27487C13.1022 5.65899 11.9678 6.43105 11.1393 7.4852C10.3107 8.53935 9.82852 9.82398 9.75878 11.163C9.68904 12.5019 10.0352 13.8297 10.7497 14.9642C11.4643 16.0988 12.5123 16.9845 13.75 17.5V24H13.25V22.4312C13.25 22.3265 13.217 22.2243 13.1558 22.1393C13.0946 22.0543 13.0081 21.9907 12.9088 21.9575C10.8218 21.2585 9.00748 19.9209 7.72272 18.1338C6.43797 16.3468 5.74783 14.2009 5.75001 12C5.75001 6.21 10.46 1.5 16.25 1.5C22.04 1.5 26.75 6.21 26.75 12C26.7522 14.2009 26.062 16.3468 24.7773 18.1338C23.4925 19.9209 21.6782 21.2585 19.5913 21.9575Z" fill="#404040"/>
</svg>