<svg width="20" height="20" viewBox="0 0 20 20" fill="none" xmlns="http://www.w3.org/2000/svg">
    <g clip-path="url(#clip0_1_939)">
        <path d="M9.99609 4.03906C6.17488 4.03906 2.7096 6.12968 0.152583 9.52541C-0.0560695 9.80361 -0.0560695 10.1923 0.152583 10.4705C2.7096 13.8703 6.17488 15.9609 9.99609 15.9609C13.8173 15.9609 17.2826 13.8703 19.8396 10.4746C20.0483 10.1964 20.0483 9.8077 19.8396 9.5295C17.2826 6.12968 13.8173 4.03906 9.99609 4.03906ZM10.2702 14.1976C7.73364 14.3572 5.63893 12.2665 5.79849 9.72588C5.92941 7.63117 7.62727 5.9333 9.72198 5.80238C12.2585 5.64283 14.3533 7.73345 14.1937 10.2741C14.0587 12.3647 12.3608 14.0626 10.2702 14.1976ZM10.1434 12.2584C8.77691 12.3443 7.64773 11.2192 7.73773 9.85271C7.80728 8.72353 8.72372 7.81118 9.8529 7.73754C11.2194 7.65162 12.3486 8.77671 12.2585 10.1432C12.1849 11.2765 11.2685 12.1888 10.1434 12.2584Z" fill="white"/>
    </g>
    <defs>
        <clipPath id="clip0_1_939">
            <rect width="20" height="20" fill="white"/>
        </clipPath>
    </defs>
</svg>
