<svg width="33" height="32" viewBox="0 0 33 32" fill="none" xmlns="http://www.w3.org/2000/svg">
    <path d="M15.4239 1.42877C15.3652 1.42877 15.3081 1.4094 15.2616 1.37366C15.215 1.33793 15.1815 1.28783 15.1663 1.23113C15.1511 1.17443 15.1551 1.1143 15.1775 1.06006C15.2 1.00583 15.2397 0.960527 15.2905 0.931174L16.3513 0.31944C16.4123 0.28756 16.4832 0.280459 16.5493 0.299623C16.6153 0.318786 16.6714 0.362731 16.7058 0.422278C16.7402 0.481825 16.7503 0.552368 16.734 0.619172C16.7176 0.685977 16.6761 0.743875 16.618 0.780774L15.5572 1.39251C15.5167 1.4161 15.4707 1.42861 15.4239 1.42877Z" fill="#D4EDF8"/>
    <path d="M17.2642 31.5496C17.2073 31.5498 17.1519 31.5317 17.106 31.4981C17.0601 31.4645 17.0261 31.4171 17.0091 31.3628C16.9921 31.3086 16.9928 31.2503 17.0113 31.1965C17.0297 31.1427 17.0649 31.0962 17.1117 31.0638L20.221 28.908L15.773 31.476C15.7129 31.5133 15.6404 31.5252 15.5716 31.509C15.5027 31.4929 15.4431 31.45 15.4058 31.3899C15.3685 31.3298 15.3567 31.2573 15.3728 31.1885C15.389 31.1196 15.4318 31.06 15.4919 31.0227L19.7853 28.1752L14.7991 31.0552C14.7388 31.0922 14.6663 31.1036 14.5975 31.087C14.5288 31.0705 14.4694 31.0273 14.4325 30.967C14.3955 30.9066 14.3841 30.8341 14.4007 30.7654C14.4172 30.6966 14.4604 30.6372 14.5207 30.6003L18.861 27.7971L13.9431 30.636C13.8832 30.6682 13.8131 30.6763 13.7474 30.6585C13.6817 30.6407 13.6253 30.5985 13.5897 30.5405C13.5541 30.4825 13.5421 30.413 13.556 30.3464C13.57 30.2798 13.6089 30.221 13.6647 30.1822L20.0701 26.0222L12.9826 30.1123C12.9221 30.1472 12.8502 30.157 12.7826 30.1394C12.7149 30.1219 12.6568 30.0786 12.6208 30.0186C12.5848 29.9587 12.5738 29.8871 12.5901 29.8191C12.6064 29.7512 12.6487 29.6923 12.7079 29.6552L16.9037 27.0206L12.2759 29.692C12.2154 29.7262 12.1438 29.7353 12.0766 29.7174C12.0094 29.6996 11.9518 29.6562 11.9162 29.5965C11.8805 29.5369 11.8695 29.4656 11.8856 29.398C11.9017 29.3303 11.9436 29.2716 12.0023 29.2344L14.5719 27.644L11.6829 29.3118C11.6223 29.3467 11.5505 29.3564 11.4828 29.3389C11.4152 29.3214 11.3571 29.278 11.3211 29.2181C11.2851 29.1582 11.274 29.0866 11.2903 29.0186C11.3066 28.9506 11.349 28.8918 11.4082 28.8547L16.381 25.7523L11.0146 28.8526C10.9541 28.8891 10.8815 28.9002 10.8128 28.8832C10.7441 28.8662 10.685 28.8227 10.6485 28.7622C10.6119 28.7016 10.6009 28.629 10.6178 28.5604C10.6348 28.4917 10.6783 28.4326 10.7389 28.396L18.0909 23.7678L10.2599 28.2872C10.1997 28.3199 10.1293 28.3281 10.0632 28.3102C9.99707 28.2923 9.94039 28.2496 9.90487 28.1911C9.86936 28.1325 9.85773 28.0626 9.8724 27.9957C9.88707 27.9288 9.92691 27.8701 9.98367 27.8318L19.3319 21.8979L9.43167 27.6131C9.37146 27.6457 9.301 27.6539 9.2349 27.636C9.1688 27.6181 9.11212 27.5755 9.07661 27.5169C9.04109 27.4584 9.02946 27.3884 9.04413 27.3215C9.0588 27.2546 9.09864 27.196 9.1554 27.1576L19.3085 20.7203L8.63007 26.8851C8.56952 26.92 8.49769 26.9298 8.43003 26.9122C8.36237 26.8947 8.30429 26.8514 8.26829 26.7914C8.23229 26.7315 8.22125 26.6599 8.23754 26.5919C8.25383 26.524 8.29615 26.4651 8.3554 26.428L16.5917 21.3006L7.99967 26.2606C7.93925 26.2944 7.86802 26.3034 7.80107 26.2857C7.73412 26.268 7.67669 26.2249 7.64093 26.1656C7.60518 26.1063 7.5939 26.0354 7.60949 25.9679C7.62508 25.9004 7.66632 25.8417 7.72447 25.804L17.4349 19.7326L7.34953 25.5528C7.28907 25.5861 7.21805 25.5947 7.15141 25.5767C7.08477 25.5587 7.0277 25.5156 6.9922 25.4564C6.95669 25.3972 6.94553 25.3266 6.96104 25.2593C6.97656 25.192 7.01755 25.1334 7.0754 25.0958L15.5853 19.8243L6.80073 24.8958C6.74011 24.9293 6.66883 24.9379 6.60198 24.9198C6.53512 24.9017 6.47794 24.8583 6.44252 24.7987C6.40711 24.7392 6.39625 24.6682 6.41224 24.6008C6.42823 24.5334 6.46982 24.4749 6.5282 24.4376L14.1826 19.724L6.31753 24.2659C6.25703 24.2987 6.18619 24.3069 6.11982 24.2886C6.05345 24.2704 5.99669 24.2272 5.96142 24.1681C5.92616 24.109 5.9151 24.0386 5.93058 23.9715C5.94606 23.9045 5.98686 23.846 6.04447 23.8083L13.3309 19.3358L5.877 23.6376C5.81638 23.6711 5.7451 23.6798 5.67825 23.6617C5.61139 23.6435 5.5542 23.6001 5.51879 23.5406C5.48338 23.4811 5.47252 23.4101 5.48851 23.3427C5.5045 23.2753 5.54609 23.2168 5.60447 23.1795L11.8754 19.348L5.48927 23.035C5.42876 23.0678 5.35792 23.0759 5.29155 23.0577C5.22518 23.0395 5.16843 22.9963 5.13316 22.9372C5.09789 22.8781 5.08684 22.8076 5.10231 22.7406C5.11779 22.6735 5.1586 22.615 5.2162 22.5774L14.2946 16.9848L5.06793 22.3112C5.00754 22.3435 4.93705 22.3513 4.87106 22.333C4.80508 22.3147 4.74866 22.2717 4.71349 22.213C4.67833 22.1542 4.6671 22.0842 4.68215 22.0174C4.6972 21.9506 4.73737 21.8922 4.79433 21.8542L16.4637 14.5944L4.61727 21.4334C4.55668 21.4653 4.48612 21.4727 4.42022 21.4541C4.35432 21.4354 4.29813 21.3921 4.26329 21.3331C4.22846 21.2741 4.21765 21.204 4.23311 21.1373C4.24857 21.0706 4.28911 21.0123 4.34633 20.9747L6.437 19.7134L4.37247 20.9059C4.312 20.9392 4.24099 20.9478 4.17435 20.9298C4.1077 20.9118 4.05063 20.8687 4.01513 20.8095C3.97963 20.7503 3.96846 20.6796 3.98398 20.6124C3.99949 20.5451 4.04048 20.4865 4.09833 20.4488L15.0013 13.6942L4.0162 20.036C3.95554 20.069 3.88445 20.0772 3.81789 20.0588C3.75133 20.0405 3.69448 19.997 3.65932 19.9376C3.62415 19.8782 3.6134 19.8074 3.62933 19.7402C3.64526 19.6731 3.68663 19.6147 3.74473 19.5774L6.94473 17.6408L3.8066 19.452C3.7461 19.4848 3.67525 19.493 3.60888 19.4748C3.54251 19.4565 3.48576 19.4134 3.45049 19.3543C3.41522 19.2952 3.40417 19.2247 3.41965 19.1576C3.43512 19.0906 3.47593 19.0321 3.53353 18.9944L12.2605 13.5928L3.54473 18.6248C3.48391 18.661 3.41122 18.6715 3.34266 18.654C3.27409 18.6366 3.21527 18.5926 3.17913 18.5318C3.14299 18.4709 3.13249 18.3983 3.14995 18.3297C3.1674 18.2611 3.21138 18.2023 3.2722 18.1662L7.93567 15.3155L3.36393 17.9544C3.30347 17.9877 3.23245 17.9963 3.16581 17.9783C3.09917 17.9603 3.0421 17.9172 3.0066 17.858C2.97109 17.7988 2.95993 17.7282 2.97544 17.6609C2.99096 17.5936 3.03195 17.535 3.0898 17.4974L10.5458 12.8691L3.17673 17.123C3.11619 17.1553 3.04549 17.1631 2.97937 17.1446C2.91325 17.1262 2.85678 17.083 2.82174 17.0239C2.78669 16.9649 2.77576 16.8946 2.79122 16.8277C2.80668 16.7608 2.84734 16.7025 2.90473 16.6648L3.9954 15.9992L3.06793 16.5326C3.0084 16.5601 2.94079 16.5648 2.87804 16.5456C2.81528 16.5265 2.76179 16.4849 2.7278 16.4288C2.6938 16.3727 2.68168 16.306 2.69376 16.2415C2.70584 16.177 2.74126 16.1192 2.79327 16.0792L10.4349 11.2835L2.9346 15.6131C2.87405 15.6455 2.80336 15.6532 2.73724 15.6348C2.67111 15.6163 2.61465 15.5731 2.5796 15.5141C2.54456 15.455 2.53363 15.3848 2.54908 15.3179C2.56454 15.251 2.6052 15.1926 2.6626 15.155L3.06953 14.9064L2.87273 15.02C2.81248 15.0522 2.74217 15.0601 2.6763 15.042C2.61043 15.0238 2.55403 14.9811 2.51873 14.9226C2.48343 14.8641 2.47192 14.7943 2.48659 14.7276C2.50125 14.6609 2.54096 14.6023 2.59753 14.564L9.47167 10.2248L2.80767 14.0723C2.74732 14.1077 2.67549 14.1179 2.60767 14.1008C2.53984 14.0837 2.48145 14.0407 2.44507 13.9809C2.40869 13.9212 2.39725 13.8495 2.41319 13.7814C2.42914 13.7133 2.47121 13.6542 2.53033 13.6168L10.3618 8.5859L2.7826 12.9592C2.72185 12.9954 2.6492 13.006 2.58063 12.9887C2.51207 12.9713 2.45321 12.9275 2.417 12.8667C2.38079 12.8059 2.37019 12.7333 2.38755 12.6647C2.4049 12.5962 2.44878 12.5373 2.50953 12.5011L3.84607 11.6792L2.7826 12.292C2.72229 12.3252 2.65149 12.3338 2.58501 12.3159C2.51853 12.2981 2.46152 12.2552 2.42591 12.1964C2.39029 12.1375 2.37883 12.0671 2.39392 11.9999C2.40901 11.9328 2.44948 11.874 2.50687 11.836L7.74847 8.50803L2.7826 11.3747C2.72239 11.4073 2.65194 11.4155 2.58584 11.3976C2.51973 11.3797 2.46305 11.3371 2.42754 11.2785C2.39202 11.22 2.3804 11.15 2.39506 11.0831C2.40973 11.0162 2.44957 10.9576 2.50633 10.9192L7.4034 7.8003L2.7826 10.467C2.72218 10.5008 2.65096 10.5098 2.584 10.4921C2.51705 10.4744 2.45962 10.4313 2.42387 10.372C2.38811 10.3127 2.37684 10.2418 2.39243 10.1743C2.40802 10.1068 2.44925 10.0481 2.5074 10.0104L5.4466 8.15923L2.7826 9.69897C2.72311 9.73221 2.65316 9.74141 2.5871 9.72469C2.52104 9.70798 2.46388 9.6666 2.42737 9.60907C2.39085 9.55153 2.37775 9.4822 2.39075 9.41531C2.40375 9.34842 2.44186 9.28904 2.49727 9.24937L5.8866 6.8931L2.7826 8.68403C2.72444 8.71649 2.65623 8.72601 2.5914 8.71071C2.52657 8.69542 2.46982 8.65641 2.4323 8.60137C2.39478 8.54633 2.37922 8.47925 2.38868 8.41332C2.39814 8.34738 2.43193 8.28737 2.4834 8.2451L4.8338 6.37043L2.7826 7.55497C2.72665 7.58571 2.66153 7.59536 2.59907 7.58216C2.53661 7.56897 2.48095 7.53381 2.44222 7.48306C2.40348 7.43232 2.38424 7.36936 2.38798 7.30563C2.39172 7.2419 2.41819 7.18163 2.4626 7.13577L3.69993 5.8995L2.78313 6.42803C2.73046 6.45844 2.66898 6.46992 2.60889 6.46058C2.54879 6.45125 2.49369 6.42165 2.45273 6.3767C2.41176 6.33175 2.38739 6.27415 2.38366 6.21345C2.37993 6.15275 2.39705 6.0926 2.4322 6.04297L2.80553 5.51657C2.75752 5.51929 2.70973 5.50817 2.66785 5.48454C2.62597 5.4609 2.59175 5.42574 2.56927 5.38323C2.53386 5.32205 2.5242 5.24931 2.5424 5.18101C2.5606 5.1127 2.60518 5.05442 2.66633 5.01897L3.55113 4.50803C3.6038 4.47763 3.66528 4.46615 3.72538 4.47548C3.78547 4.48482 3.84057 4.51441 3.88154 4.55936C3.9225 4.60431 3.94687 4.66191 3.9506 4.72261C3.95434 4.78331 3.93721 4.84347 3.90207 4.8931L3.57353 5.35603L5.19327 4.42217C5.24921 4.39142 5.31434 4.38177 5.3768 4.39497C5.43926 4.40816 5.49491 4.44333 5.53365 4.49407C5.57238 4.54481 5.59163 4.60777 5.58789 4.6715C5.58415 4.73523 5.55767 4.7955 5.51327 4.84137L4.27487 6.07923L7.653 4.12723C7.71118 4.09419 7.77966 4.08424 7.84485 4.09934C7.91003 4.11444 7.96716 4.15349 8.00489 4.20874C8.04262 4.264 8.0582 4.33142 8.04854 4.39763C8.03888 4.46384 8.00468 4.524 7.95273 4.56617L5.60073 6.44137L11.1133 3.2579C11.1728 3.22466 11.2427 3.21545 11.3088 3.23217C11.3748 3.24889 11.432 3.29026 11.4685 3.3478C11.505 3.40533 11.5181 3.47466 11.5051 3.54156C11.4921 3.60845 11.454 3.66783 11.3986 3.7075L8.01087 6.06377L17.2322 0.740033C17.2925 0.706867 17.3633 0.698305 17.4298 0.716138C17.4963 0.733971 17.5533 0.776817 17.5889 0.835715C17.6245 0.894614 17.636 0.965001 17.6209 1.03216C17.6058 1.09931 17.5653 1.15803 17.5079 1.19603L14.5671 3.04883L17.7671 1.20297C17.8274 1.16928 17.8984 1.16028 17.9652 1.17786C18.0319 1.19545 18.0893 1.23824 18.1251 1.29725C18.161 1.35625 18.1726 1.42686 18.1574 1.49422C18.1423 1.56159 18.1016 1.62045 18.0439 1.65843L13.1399 4.7795L18.4551 1.71123C18.5153 1.6786 18.5858 1.67039 18.6519 1.68829C18.718 1.70619 18.7747 1.74884 18.8102 1.80739C18.8457 1.86594 18.8573 1.93591 18.8427 2.0028C18.828 2.0697 18.7882 2.12838 18.7314 2.1667L13.4951 5.49257L19.2199 2.1859C19.2804 2.15309 19.3513 2.14495 19.4176 2.16317C19.484 2.18139 19.5408 2.22457 19.576 2.28367C19.6113 2.34277 19.6224 2.41322 19.6069 2.48029C19.5914 2.54735 19.5506 2.60583 19.493 2.6435L18.1533 3.47283L19.8258 2.5059C19.8862 2.46905 19.9588 2.45771 20.0275 2.47436C20.0963 2.49101 20.1556 2.5343 20.1925 2.5947C20.2293 2.6551 20.2407 2.72766 20.224 2.79642C20.2074 2.86519 20.1641 2.92452 20.1037 2.96137L12.2717 7.9923L20.9218 2.9987C20.9821 2.96553 21.0529 2.95697 21.1194 2.9748C21.1859 2.99264 21.2429 3.03548 21.2785 3.09438C21.3141 3.15328 21.3256 3.22367 21.3105 3.29082C21.2954 3.35798 21.2549 3.4167 21.1975 3.4547L14.3229 7.7939L21.9703 3.37897C22.031 3.34545 22.1022 3.33684 22.1691 3.35495C22.2359 3.37306 22.2931 3.41648 22.3285 3.47601C22.364 3.53553 22.3748 3.60651 22.3588 3.6739C22.3428 3.7413 22.3012 3.79982 22.2429 3.8371L21.8269 4.09097L22.6861 3.59497C22.7466 3.56005 22.8184 3.55031 22.8861 3.56782C22.9538 3.58534 23.0118 3.62872 23.0478 3.68862C23.0838 3.74853 23.0949 3.82017 23.0786 3.88814C23.0623 3.9561 23.02 4.01496 22.9607 4.05203L15.3266 8.8435L23.8925 3.8979C23.953 3.86554 24.0237 3.85778 24.0898 3.87623C24.156 3.89468 24.2124 3.93792 24.2475 3.99695C24.2825 4.05598 24.2934 4.12625 24.278 4.19313C24.2625 4.26002 24.2219 4.31837 24.1645 4.35603L23.0653 5.02537L24.7287 4.06537C24.7891 4.03311 24.8596 4.02532 24.9256 4.04361C24.9916 4.0619 25.048 4.10487 25.0832 4.16362C25.1183 4.22237 25.1296 4.2924 25.1145 4.35919C25.0995 4.42599 25.0593 4.48444 25.0023 4.52243L17.5501 9.14857L26.0109 4.2659C26.0715 4.23239 26.1428 4.22377 26.2096 4.24188C26.2765 4.26 26.3337 4.30341 26.3691 4.36294C26.4045 4.42247 26.4153 4.49344 26.3994 4.56083C26.3834 4.62823 26.3418 4.68676 26.2834 4.72403L21.6258 7.5715L27.1373 4.38803C27.1977 4.35577 27.2682 4.34798 27.3341 4.36628C27.4001 4.38457 27.4565 4.42754 27.4917 4.48629C27.5269 4.54504 27.5381 4.61506 27.523 4.68186C27.508 4.74866 27.4678 4.80711 27.4109 4.8451L18.6781 10.2494L28.6562 4.48937C28.7169 4.45638 28.7879 4.44821 28.8545 4.46657C28.9211 4.48493 28.9779 4.52839 29.0131 4.58781C29.0483 4.64723 29.059 4.71797 29.0431 4.78516C29.0271 4.85234 28.9858 4.91073 28.9277 4.94803L25.7378 6.87923L29.6423 4.62537C29.7027 4.59311 29.7732 4.58532 29.8392 4.60361C29.9052 4.6219 29.9616 4.66487 29.9968 4.72362C30.0319 4.78237 30.0432 4.8524 30.0281 4.91919C30.0131 4.98599 29.9729 5.04444 29.9159 5.08243L19.0066 11.8392L30.2013 5.37737C30.2619 5.34542 30.3324 5.33802 30.3983 5.35668C30.4642 5.37535 30.5204 5.41866 30.5552 5.47763C30.5901 5.5366 30.6009 5.60672 30.5854 5.67344C30.57 5.74017 30.5294 5.79839 30.4722 5.83603L28.3815 7.0979L30.2173 6.03817C30.2778 6.00404 30.3494 5.99492 30.4166 6.01276C30.4838 6.0306 30.5414 6.07398 30.577 6.13365C30.6127 6.19333 30.6237 6.26459 30.6076 6.33223C30.5915 6.39987 30.5496 6.45855 30.4909 6.49577L18.8258 13.7528L30.2173 7.1763C30.2778 7.14349 30.3486 7.13535 30.415 7.15357C30.4814 7.17179 30.5381 7.21497 30.5734 7.27407C30.6086 7.33317 30.6197 7.40362 30.6042 7.47069C30.5887 7.53775 30.5479 7.59623 30.4903 7.6339L21.4162 13.2259L30.2162 8.14483C30.2767 8.11247 30.3474 8.10471 30.4136 8.12316C30.4797 8.14161 30.5361 8.18485 30.5712 8.24388C30.6062 8.30291 30.6172 8.37318 30.6017 8.44007C30.5863 8.50695 30.5456 8.5653 30.4882 8.60297L24.2135 12.4355L30.2173 8.96883C30.2779 8.93532 30.3492 8.92671 30.416 8.94482C30.4829 8.96293 30.5401 9.00634 30.5755 9.06587C30.6109 9.1254 30.6217 9.19637 30.6058 9.26377C30.5898 9.33116 30.5482 9.38969 30.4898 9.42697L23.2087 13.8974L30.2173 9.85097C30.2777 9.81911 30.3481 9.81167 30.4138 9.83018C30.4796 9.84869 30.5357 9.89173 30.5707 9.95043C30.6057 10.0091 30.6168 10.079 30.6017 10.1456C30.5867 10.2123 30.5466 10.2706 30.4898 10.3086L22.8237 15.0296L30.2173 10.763C30.2777 10.7307 30.3482 10.7229 30.4141 10.7412C30.4801 10.7595 30.5365 10.8025 30.5717 10.8612C30.6069 10.92 30.6181 10.99 30.603 11.0568C30.588 11.1236 30.5478 11.182 30.4909 11.22L21.989 16.4851L30.2173 11.7326C30.2776 11.6999 30.3483 11.6917 30.4145 11.7098C30.4807 11.7278 30.5374 11.7708 30.5728 11.8296C30.6082 11.8884 30.6195 11.9586 30.6045 12.0255C30.5894 12.0925 30.5491 12.1511 30.4919 12.1891L20.7789 18.267L30.2135 12.8206C30.2741 12.7857 30.3459 12.7759 30.4136 12.7934C30.4812 12.8109 30.5393 12.8543 30.5753 12.9142C30.6113 12.9741 30.6224 13.0458 30.6061 13.1137C30.5898 13.1817 30.5474 13.2406 30.4882 13.2776L22.2562 18.4024L30.1805 13.8275C30.2407 13.7949 30.3111 13.7867 30.3772 13.8046C30.4433 13.8225 30.5 13.8651 30.5355 13.9237C30.571 13.9822 30.5827 14.0522 30.568 14.1191C30.5533 14.186 30.5135 14.2446 30.4567 14.283L20.2989 20.7235L30.0738 15.0803C30.1342 15.0458 30.2057 15.0362 30.273 15.0537C30.3403 15.0711 30.3982 15.1142 30.4342 15.1736C30.4702 15.2331 30.4816 15.3043 30.4659 15.3721C30.4502 15.4398 30.4086 15.4988 30.3501 15.5363L21.0066 21.4664L29.8866 16.3395C29.9469 16.3073 30.0172 16.2994 30.083 16.3176C30.1489 16.3357 30.2053 16.3784 30.2406 16.4369C30.2759 16.4954 30.2874 16.5652 30.2727 16.6319C30.2581 16.6986 30.2184 16.7572 30.1618 16.7955L22.8093 21.4254L29.6359 17.483C29.6964 17.4497 29.7674 17.4411 29.8341 17.4591C29.9007 17.4771 29.9578 17.5202 29.9933 17.5794C30.0288 17.6386 30.0399 17.7092 30.0244 17.7765C30.0089 17.8438 29.9679 17.9024 29.9101 17.94L24.9314 21.0462L29.3581 18.4899C29.4185 18.4576 29.489 18.4499 29.5549 18.4681C29.6209 18.4864 29.6773 18.5294 29.7125 18.5882C29.7477 18.6469 29.7589 18.7169 29.7438 18.7837C29.7288 18.8505 29.6886 18.909 29.6317 18.947L27.0717 20.5331L29.0535 19.3891C29.1141 19.3526 29.1868 19.3417 29.2554 19.3587C29.2894 19.3672 29.3214 19.3822 29.3496 19.4031C29.3778 19.4239 29.4016 19.45 29.4197 19.48C29.4377 19.51 29.4497 19.5433 29.4549 19.578C29.4601 19.6126 29.4585 19.6479 29.45 19.6819C29.4416 19.7159 29.4265 19.7479 29.4057 19.7761C29.3849 19.8043 29.3587 19.8281 29.3287 19.8462L25.1341 22.4803L28.6146 20.4712C28.6746 20.439 28.7446 20.431 28.8103 20.4488C28.876 20.4665 28.9324 20.5087 28.968 20.5668C29.0036 20.6248 29.0157 20.6942 29.0017 20.7608C28.9878 20.8275 28.9489 20.8862 28.893 20.9251L22.493 25.0851L27.8557 21.9918C27.9158 21.9582 27.9866 21.9491 28.0532 21.9666C28.1198 21.984 28.1771 22.0265 28.2131 22.0852C28.2491 22.144 28.261 22.2143 28.2462 22.2816C28.2315 22.3489 28.1913 22.4079 28.1341 22.4462L23.7853 25.2504L26.9581 23.4184C26.9878 23.4 27.0209 23.3876 27.0555 23.3819C27.0901 23.3762 27.1254 23.3775 27.1595 23.3855C27.1936 23.3934 27.2258 23.4081 27.2542 23.4285C27.2827 23.449 27.3068 23.4748 27.3253 23.5046C27.3437 23.5343 27.3561 23.5674 27.3618 23.602C27.3675 23.6366 27.3662 23.6719 27.3583 23.706C27.3503 23.7401 27.3356 23.7723 27.3152 23.8007C27.2947 23.8292 27.2689 23.8533 27.2391 23.8718L22.9485 26.7192L25.5314 25.2259C25.5909 25.1917 25.6613 25.1817 25.728 25.1981C25.7946 25.2145 25.8524 25.256 25.8893 25.3139C25.9263 25.372 25.9394 25.4421 25.9258 25.5096C25.9123 25.5771 25.8732 25.6367 25.8167 25.676L22.7047 27.8339L22.8045 27.7768C22.8348 27.7575 22.8688 27.7446 22.9042 27.7387C22.9397 27.7329 22.976 27.7343 23.011 27.7429C23.0459 27.7514 23.0787 27.767 23.1075 27.7885C23.1363 27.8101 23.1604 27.8373 23.1784 27.8684C23.1964 27.8996 23.2079 27.934 23.2122 27.9697C23.2166 28.0054 23.2137 28.0416 23.2036 28.0762C23.1936 28.1107 23.1767 28.1429 23.1539 28.1707C23.1312 28.1986 23.103 28.2215 23.0711 28.2382L17.3975 31.5139C17.3571 31.5375 17.311 31.5498 17.2642 31.5496Z" fill="#D4EDF8"/>
    <path d="M17.0639 29.3235C17.0074 29.3234 16.9524 29.3054 16.9068 29.2721C16.8612 29.2388 16.8273 29.1918 16.8101 29.138C16.7929 29.0842 16.7932 29.0263 16.811 28.9727C16.8289 28.9191 16.8632 28.8725 16.9092 28.8397L19.402 27.06L15.7753 29.1555C15.7155 29.1895 15.6449 29.1992 15.5782 29.1824C15.5114 29.1655 15.4538 29.1236 15.4172 29.0652C15.3807 29.0069 15.3682 28.9367 15.3823 28.8693C15.3963 28.8019 15.4359 28.7426 15.4927 28.7037L18.9257 26.388L14.882 28.7224C14.8222 28.7559 14.7517 28.7651 14.6853 28.7481C14.6188 28.731 14.5615 28.689 14.5252 28.6307C14.489 28.5725 14.4766 28.5025 14.4906 28.4354C14.5046 28.3682 14.5439 28.309 14.6004 28.2701L19.4809 25.0077L13.9343 28.2077C13.8743 28.2413 13.8037 28.2504 13.7372 28.2331C13.6706 28.2159 13.6133 28.1736 13.5772 28.1151C13.5411 28.0567 13.529 27.9865 13.5433 27.9193C13.5577 27.8521 13.5974 27.793 13.6543 27.7544L19.5092 23.8872L13.0079 27.6403C12.9474 27.6736 12.8764 27.6821 12.8098 27.6641C12.7431 27.6462 12.686 27.603 12.6505 27.5438C12.615 27.4846 12.6039 27.414 12.6194 27.3467C12.6349 27.2795 12.6759 27.2208 12.7337 27.1832L12.9753 27.0333L12.5055 27.3043C12.4454 27.3335 12.3765 27.3391 12.3125 27.3199C12.2485 27.3008 12.194 27.2583 12.1598 27.2009C12.1256 27.1435 12.1142 27.0754 12.1278 27.01C12.1415 26.9446 12.1792 26.8867 12.2335 26.8477L14.0169 25.7368L11.9668 26.9203C11.9063 26.9552 11.8344 26.9649 11.7668 26.9474C11.6991 26.9299 11.641 26.8865 11.605 26.8266C11.569 26.7667 11.558 26.695 11.5743 26.6271C11.5906 26.5591 11.6329 26.5003 11.6921 26.4632L14.4655 24.7315L11.4095 26.4957C11.3489 26.5323 11.2764 26.5433 11.2077 26.5264C11.139 26.5094 11.0799 26.4659 11.0433 26.4053C11.0068 26.3448 10.9958 26.2722 11.0127 26.2035C11.0297 26.1349 11.0732 26.0758 11.1337 26.0392L16.3935 22.7192L10.7721 25.9656C10.7118 26.0025 10.6393 26.014 10.5705 25.9974C10.5018 25.9808 10.4424 25.9377 10.4055 25.8773C10.3686 25.817 10.3571 25.7445 10.3737 25.6757C10.3902 25.6069 10.4334 25.5476 10.4937 25.5107L19.0601 19.9768L9.96415 25.2259C9.90376 25.2604 9.83229 25.2699 9.76497 25.2525C9.69764 25.235 9.63979 25.192 9.60376 25.1325C9.56772 25.073 9.55635 25.0018 9.57206 24.9341C9.58778 24.8663 9.62934 24.8074 9.68788 24.7699L17.4847 19.8147L9.30014 24.5427C9.2396 24.5792 9.16702 24.5902 9.09836 24.5733C9.02969 24.5563 8.97058 24.5128 8.93401 24.4523C8.89745 24.3917 8.88643 24.3191 8.90338 24.2505C8.92034 24.1818 8.96387 24.1227 9.02441 24.0861L16.7833 19.1837L8.69214 23.8541C8.63172 23.888 8.5605 23.897 8.49355 23.8793C8.4266 23.8615 8.36917 23.8185 8.33341 23.7592C8.29766 23.6998 8.28638 23.6289 8.30197 23.5615C8.31756 23.494 8.35879 23.4352 8.41694 23.3976L16.3892 18.3747L8.13428 23.1405C8.07338 23.1765 8.00068 23.1869 7.93217 23.1693C7.86366 23.1516 7.80494 23.1076 7.76894 23.0467C7.73295 22.9858 7.72261 22.9131 7.74021 22.8446C7.75782 22.776 7.80192 22.7173 7.86281 22.6813L7.90174 22.6579L7.82121 22.7043C7.76066 22.7392 7.68883 22.7489 7.62117 22.7314C7.55351 22.7139 7.49543 22.6705 7.45943 22.6106C7.42343 22.5507 7.41239 22.479 7.42868 22.4111C7.44498 22.3431 7.4873 22.2843 7.54654 22.2472L14.554 17.8824L7.37588 22.0259C7.3152 22.0622 7.24256 22.073 7.17395 22.0558C7.10533 22.0386 7.04636 21.9948 7.01001 21.9341C6.97366 21.8734 6.9629 21.8008 6.9801 21.7322C6.99731 21.6636 7.04106 21.6046 7.10174 21.5683L14.2121 17.1469L6.96574 21.3325C6.90543 21.3657 6.83463 21.3743 6.76816 21.3564C6.70168 21.3386 6.64467 21.2957 6.60906 21.2368C6.57344 21.1779 6.56198 21.1076 6.57707 21.0404C6.59216 20.9732 6.63262 20.9145 6.69001 20.8765L16.3801 14.7725L6.51881 20.4643C6.45852 20.4961 6.38833 20.5036 6.32268 20.4852C6.25702 20.4669 6.20088 20.4241 6.16579 20.3657C6.1307 20.3072 6.11932 20.2376 6.13399 20.171C6.14866 20.1044 6.18827 20.046 6.24468 20.0077L14.778 14.6744L6.15881 19.6504C6.09792 19.6864 6.02522 19.6967 5.9567 19.6791C5.88819 19.6615 5.82948 19.6174 5.79348 19.5565C5.75748 19.4956 5.74714 19.4229 5.76475 19.3544C5.78235 19.2859 5.82645 19.2272 5.88734 19.1912L5.94868 19.1544C5.88751 19.1846 5.81712 19.1901 5.75197 19.17C5.68681 19.1498 5.63185 19.1055 5.59839 19.0461C5.56492 18.9867 5.55549 18.9167 5.57204 18.8505C5.58858 18.7844 5.62985 18.7271 5.68734 18.6904L13.3924 13.8445L5.67348 18.2995C5.61297 18.3323 5.54213 18.3404 5.47576 18.3222C5.40939 18.304 5.35264 18.2608 5.31737 18.2017C5.2821 18.1426 5.27105 18.0721 5.28653 18.0051C5.302 17.938 5.34281 17.8795 5.40041 17.8419L8.34014 16.0328L5.49694 17.6744C5.43619 17.7107 5.36352 17.7213 5.2949 17.704C5.22629 17.6867 5.16736 17.6429 5.13108 17.5821C5.0948 17.5214 5.08413 17.4487 5.10144 17.3801C5.11874 17.3115 5.16259 17.2525 5.22334 17.2163L8.27988 15.3277L5.33908 17.0253C5.27891 17.0584 5.2083 17.067 5.14195 17.0494C5.0756 17.0317 5.01862 16.9891 4.98288 16.9305C4.94714 16.8718 4.93539 16.8017 4.95008 16.7346C4.96477 16.6675 5.00477 16.6087 5.06174 16.5704L12.8484 11.5544L5.14281 16.0019C5.08269 16.0354 5.0119 16.0445 4.94527 16.0271C4.87864 16.0096 4.82134 15.9671 4.78536 15.9084C4.74938 15.8497 4.73751 15.7793 4.75225 15.712C4.76698 15.6447 4.80718 15.5858 4.86441 15.5475L12.2777 10.7277L5.00788 14.9256C4.94748 14.9578 4.87699 14.9656 4.81101 14.9473C4.74503 14.9291 4.68861 14.8861 4.65344 14.8273C4.61827 14.7686 4.60705 14.6986 4.6221 14.6318C4.63715 14.565 4.67731 14.5065 4.73428 14.4685L5.21428 14.1709L4.95881 14.3187C4.89835 14.352 4.82733 14.3605 4.76069 14.3425C4.69405 14.3246 4.63698 14.2814 4.60147 14.2222C4.56597 14.163 4.5548 14.0924 4.57032 14.0251C4.58584 13.9579 4.62683 13.8992 4.68468 13.8616L6.27508 12.8685L4.92681 13.6467C4.89697 13.665 4.86382 13.6773 4.82923 13.6828C4.79464 13.6884 4.7593 13.687 4.72523 13.6789C4.69116 13.6708 4.65902 13.656 4.63065 13.6355C4.60227 13.615 4.57823 13.589 4.55988 13.5592C4.54153 13.5294 4.52923 13.4962 4.5237 13.4616C4.51816 13.427 4.51949 13.3917 4.52762 13.3576C4.53574 13.3235 4.55049 13.2914 4.57104 13.263C4.59158 13.2347 4.61751 13.2106 4.64734 13.1923L10.3044 9.49839L4.91614 12.6093C4.8558 12.6447 4.78397 12.6549 4.71615 12.6378C4.64832 12.6207 4.58993 12.5777 4.55355 12.5179C4.51717 12.4582 4.50573 12.3866 4.52167 12.3184C4.53762 12.2503 4.57969 12.1912 4.63881 12.1539L8.40148 9.73199L4.91614 11.7437C4.85617 11.7759 4.78616 11.784 4.72045 11.7662C4.65474 11.7484 4.59831 11.7062 4.56272 11.6482C4.52713 11.5902 4.51508 11.5207 4.52902 11.4541C4.54297 11.3875 4.58187 11.3287 4.63774 11.2899L8.60681 8.70479L4.91561 10.8381C4.85643 10.8721 4.78648 10.8821 4.72016 10.866C4.65384 10.85 4.59619 10.8091 4.55908 10.7518C4.52198 10.6946 4.50824 10.6253 4.52069 10.5582C4.53314 10.4911 4.57083 10.4313 4.62601 10.3912L7.37374 8.40612L4.91614 9.82266C4.85766 9.85541 4.78898 9.86493 4.72379 9.84933C4.65859 9.83373 4.60167 9.79414 4.56434 9.73846C4.52702 9.68278 4.51204 9.61508 4.52238 9.54885C4.53272 9.48262 4.56762 9.42271 4.62014 9.38106L5.75348 8.50586L4.91614 8.98852C4.86088 9.01985 4.79624 9.03042 4.73388 9.01833C4.67151 9.00624 4.61551 8.97228 4.57596 8.92256C4.53641 8.87285 4.5159 8.81065 4.51814 8.74716C4.52037 8.68367 4.5452 8.62307 4.58814 8.57626L5.33001 7.78106L4.91614 8.01946C4.86405 8.04946 4.80335 8.06099 4.74388 8.05216C4.68442 8.04333 4.62968 8.01467 4.58855 7.97082C4.54742 7.92698 4.52231 7.87052 4.5173 7.81061C4.51229 7.7507 4.52767 7.69086 4.56094 7.64079L4.72094 7.40452C4.67367 7.3869 4.63237 7.35624 4.60183 7.31608C4.57129 7.27593 4.55276 7.22793 4.54841 7.17767C4.54405 7.12741 4.55404 7.07695 4.57722 7.03214C4.6004 6.98733 4.63581 6.95001 4.67934 6.92452L5.32521 6.55119C5.3773 6.52118 5.43801 6.50966 5.49747 6.51849C5.55694 6.52732 5.61168 6.55598 5.65281 6.59982C5.69393 6.64367 5.71904 6.70013 5.72405 6.76004C5.72906 6.81994 5.71368 6.87979 5.68041 6.92986L5.64254 6.98692L6.61214 6.42692C6.66741 6.39559 6.73204 6.38503 6.79441 6.39712C6.85678 6.40921 6.91278 6.44317 6.95233 6.49288C6.99188 6.5426 7.01239 6.6048 7.01015 6.66829C7.00792 6.73177 6.98309 6.79238 6.94014 6.83919L6.19614 7.63439L8.92948 6.05626C8.98806 6.02263 9.05722 6.01249 9.12299 6.02788C9.18877 6.04327 9.24625 6.08305 9.28382 6.13918C9.3214 6.19531 9.33628 6.26361 9.32545 6.33028C9.31462 6.39696 9.27889 6.45704 9.22548 6.49839L8.09374 7.37199L11.6292 5.33252C11.6884 5.29856 11.7583 5.28857 11.8247 5.30462C11.891 5.32067 11.9486 5.36153 11.9857 5.4188C12.0228 5.47606 12.0366 5.54537 12.0241 5.61246C12.0117 5.67955 11.974 5.73932 11.9188 5.77946L9.16841 7.76719L16.9593 3.26746C17.0194 3.2344 17.0898 3.22572 17.1561 3.24321C17.2223 3.26071 17.2793 3.30304 17.3152 3.36142C17.3511 3.4198 17.3631 3.48975 17.3488 3.55676C17.3344 3.62377 17.2949 3.6827 17.2383 3.72132L13.2751 6.30212L17.6905 3.75279C17.7509 3.71594 17.8235 3.7046 17.8923 3.72125C17.961 3.7379 18.0204 3.78119 18.0572 3.84159C18.0941 3.90199 18.1054 3.97455 18.0888 4.04331C18.0721 4.11208 18.0288 4.17141 17.9684 4.20826L14.202 6.63226L18.442 4.18479C18.502 4.15173 18.5725 4.14305 18.6387 4.16055C18.705 4.17804 18.762 4.22037 18.7978 4.27875C18.8337 4.33713 18.8458 4.40708 18.8314 4.4741C18.8171 4.54111 18.7776 4.60004 18.7209 4.63866L13.0623 8.33412L19.4159 4.66639C19.4762 4.63459 19.5464 4.62709 19.612 4.64542C19.6777 4.66376 19.7338 4.70654 19.7689 4.76498C19.804 4.82342 19.8154 4.89309 19.8007 4.95965C19.786 5.02622 19.7464 5.08465 19.69 5.12292L18.1001 6.11599L20.1007 4.95919C20.1611 4.92693 20.2316 4.91914 20.2975 4.93743C20.3635 4.95572 20.4199 4.99869 20.4551 5.05744C20.4903 5.11619 20.5015 5.18622 20.4865 5.25302C20.4714 5.31981 20.4312 5.37826 20.3743 5.41626L19.9033 5.70799L20.7641 5.21092C20.8243 5.17592 20.8958 5.16585 20.9633 5.18286C21.0309 5.19986 21.089 5.2426 21.1255 5.30194C21.1619 5.36128 21.1737 5.43251 21.1583 5.50041C21.1429 5.56831 21.1015 5.6275 21.0431 5.66532L13.6297 10.4856L22.0468 5.62586C22.1069 5.59325 22.1772 5.58496 22.2432 5.60268C22.3092 5.62041 22.3659 5.6628 22.4015 5.72111C22.4372 5.77941 22.4491 5.84919 22.4348 5.91602C22.4205 5.98285 22.3811 6.04164 22.3247 6.08026L14.5412 11.0936L23.4175 5.97252C23.4782 5.93631 23.5509 5.92572 23.6194 5.94307C23.688 5.96043 23.7469 6.0043 23.7831 6.06506C23.8193 6.12581 23.8299 6.19846 23.8125 6.26702C23.7952 6.33558 23.7513 6.39445 23.6905 6.43066L20.6297 8.31919L24.3631 6.16292C24.4236 6.13012 24.4944 6.12197 24.5608 6.14019C24.6272 6.15842 24.6839 6.20159 24.7192 6.2607C24.7545 6.3198 24.7655 6.39025 24.75 6.45731C24.7346 6.52437 24.6937 6.58285 24.6361 6.62052L21.6943 8.43386L25.3535 6.32452C25.4139 6.29067 25.4851 6.28165 25.5521 6.29937C25.619 6.3171 25.6765 6.36018 25.7122 6.41949C25.748 6.47881 25.7592 6.54971 25.7437 6.61719C25.7281 6.68467 25.6868 6.74344 25.6287 6.78106L17.9284 11.6221L26.8015 6.50212C26.8622 6.4675 26.9342 6.45813 27.0017 6.47603C27.0693 6.49392 27.1272 6.53765 27.1629 6.59779C27.1985 6.65794 27.2092 6.72968 27.1924 6.79758C27.1757 6.86548 27.133 6.92409 27.0735 6.96079L27.0111 6.99866L27.7161 6.59119C27.7767 6.55628 27.8485 6.54653 27.9162 6.56405C27.9838 6.58156 28.0419 6.62494 28.0779 6.68485C28.1139 6.74475 28.125 6.8164 28.1087 6.88436C28.0924 6.95233 28.0501 7.01118 27.9908 7.04826L19.4612 12.3816L28.0841 7.39812C28.1446 7.36427 28.2158 7.35525 28.2827 7.37297C28.3497 7.3907 28.4071 7.43378 28.4429 7.49309C28.4786 7.55241 28.4899 7.62331 28.4743 7.69079C28.4587 7.75827 28.4175 7.81704 28.3593 7.85466L18.6713 13.9581L28.0841 8.52346C28.1447 8.48933 28.2162 8.48021 28.2834 8.49805C28.3506 8.51589 28.4082 8.55927 28.4439 8.61895C28.4796 8.67862 28.4906 8.74988 28.4745 8.81752C28.4584 8.88516 28.4165 8.94385 28.3577 8.98106L21.2425 13.4051L28.0841 9.45519C28.1448 9.41884 28.2175 9.40808 28.2861 9.42528C28.3547 9.44249 28.4137 9.48624 28.45 9.54692C28.4864 9.6076 28.4971 9.68024 28.4799 9.74886C28.4627 9.81747 28.419 9.87644 28.3583 9.91279L21.3535 14.2744L28.0841 10.3896C28.145 10.3536 28.2177 10.3433 28.2863 10.3609C28.3548 10.3785 28.4135 10.4226 28.4495 10.4835C28.4855 10.5444 28.4958 10.6171 28.4782 10.6856C28.4606 10.7541 28.4165 10.8128 28.3556 10.8488L28.13 10.9859C28.1918 10.9648 28.2591 10.9671 28.3193 10.9923C28.3794 11.0175 28.4283 11.0639 28.4565 11.1227C28.4848 11.1816 28.4905 11.2487 28.4726 11.3114C28.4547 11.3742 28.4144 11.4282 28.3593 11.4632L20.3828 16.4888L28.0841 12.0429C28.1446 12.0091 28.2158 12.0001 28.2827 12.0178C28.3497 12.0355 28.4071 12.0786 28.4429 12.1379C28.4786 12.1972 28.4899 12.2681 28.4743 12.3356C28.4587 12.4031 28.4175 12.4618 28.3593 12.4995L20.6031 17.4003L28.0735 13.0867C28.1034 13.0685 28.1366 13.0564 28.1713 13.051C28.2059 13.0457 28.2412 13.0473 28.2752 13.0556C28.3093 13.0639 28.3413 13.0788 28.3696 13.0995C28.3978 13.1202 28.4217 13.1463 28.4399 13.1763C28.4581 13.2062 28.4702 13.2394 28.4755 13.274C28.4808 13.3087 28.4793 13.344 28.471 13.378C28.4626 13.412 28.4477 13.4441 28.427 13.4723C28.4063 13.5006 28.3802 13.5245 28.3503 13.5427L20.5535 18.4984L28.0201 14.1875C28.0802 14.1549 28.1505 14.1466 28.2165 14.1643C28.2825 14.182 28.3392 14.2244 28.3749 14.2827C28.4105 14.341 28.4224 14.4108 28.4081 14.4776C28.3938 14.5445 28.3544 14.6032 28.298 14.6419L19.7332 20.1757L27.866 15.4824C27.9264 15.4485 27.9977 15.4395 28.0646 15.4572C28.1316 15.475 28.189 15.518 28.2247 15.5774C28.2605 15.6367 28.2718 15.7076 28.2562 15.7751C28.2406 15.8425 28.1994 15.9013 28.1412 15.9389L22.8783 19.26L27.6783 16.4867C27.7386 16.454 27.8093 16.4458 27.8755 16.4639C27.9417 16.4819 27.9984 16.5248 28.0338 16.5837C28.0692 16.6425 28.0805 16.7127 28.0655 16.7796C28.0504 16.8466 28.0101 16.9052 27.9529 16.9432L25.1935 18.6659L27.4671 17.3533C27.5275 17.32 27.5986 17.3115 27.6652 17.3294C27.7318 17.3474 27.7889 17.3906 27.8244 17.4497C27.8599 17.5089 27.8711 17.5796 27.8556 17.6469C27.8401 17.7141 27.7991 17.7727 27.7412 17.8104L25.9503 18.9267L27.2121 18.1981C27.2726 18.1648 27.3436 18.1563 27.4103 18.1742C27.4769 18.1922 27.534 18.2354 27.5695 18.2945C27.605 18.3537 27.6162 18.4244 27.6006 18.4917C27.5851 18.5589 27.5441 18.6175 27.4863 18.6552L26.9908 18.9629C27.0517 18.9478 27.1159 18.9545 27.1723 18.9821C27.2286 19.0096 27.2735 19.0561 27.299 19.1134C27.3244 19.1707 27.3289 19.2351 27.3115 19.2954C27.2942 19.3557 27.2562 19.4079 27.2041 19.4429L21.3481 23.3112L26.2409 20.4845C26.3009 20.4489 26.3725 20.4382 26.4403 20.4547C26.5081 20.4713 26.5667 20.5137 26.6036 20.573C26.6404 20.6322 26.6526 20.7036 26.6374 20.7717C26.6223 20.8398 26.581 20.8993 26.5225 20.9373L21.6409 24.2003L25.2745 22.1027C25.3343 22.0686 25.405 22.0589 25.4717 22.0758C25.5385 22.0926 25.5961 22.1345 25.6326 22.1929C25.6691 22.2512 25.6817 22.3214 25.6676 22.3888C25.6536 22.4562 25.614 22.5155 25.5572 22.5544L22.1231 24.8707L23.9364 23.8259C23.9956 23.7931 24.065 23.7841 24.1306 23.8007C24.1962 23.8172 24.253 23.8581 24.2896 23.9149C24.3262 23.9718 24.3399 24.0405 24.3278 24.107C24.3157 24.1735 24.2787 24.233 24.2244 24.2733L21.2377 26.4067C21.2773 26.4124 21.315 26.4271 21.348 26.4497C21.381 26.4722 21.4084 26.502 21.4281 26.5368C21.4634 26.5979 21.473 26.6705 21.4548 26.7387C21.4366 26.8069 21.3921 26.8651 21.3311 26.9005L17.2025 29.2845C17.1609 29.3102 17.1128 29.3237 17.0639 29.3235Z" fill="#3B8596"/>
    <path d="M16.1103 24.2382C16.0532 24.2382 15.9977 24.2198 15.9518 24.1859C15.906 24.152 15.8722 24.1042 15.8555 24.0497C15.8388 23.9951 15.84 23.9366 15.859 23.8828C15.878 23.829 15.9137 23.7827 15.9609 23.7507L17.6079 22.6382L15.1273 24.0708C15.0677 24.1054 14.997 24.1157 14.93 24.0993C14.863 24.083 14.8049 24.0413 14.768 23.983C14.731 23.9248 14.7181 23.8545 14.7319 23.7869C14.7457 23.7193 14.7852 23.6597 14.842 23.6206L18.9097 20.8009L13.8596 23.7166C13.7993 23.7535 13.7267 23.765 13.658 23.7484C13.5892 23.7319 13.5298 23.6887 13.4929 23.6283C13.456 23.568 13.4446 23.4955 13.4611 23.4267C13.4777 23.358 13.5209 23.2986 13.5812 23.2617L15.5337 21.9977L13.1108 23.3966C13.0505 23.4303 12.9795 23.4393 12.9128 23.4217C12.846 23.4041 12.7887 23.3613 12.7528 23.3023C12.7169 23.2433 12.7054 23.1727 12.7205 23.1054C12.7356 23.038 12.7763 22.9791 12.834 22.9412L14.0121 22.1902L12.5028 23.0617C12.4428 23.0952 12.3722 23.1043 12.3057 23.0871C12.2391 23.0698 12.1819 23.0276 12.1457 22.9691C12.1096 22.9106 12.0975 22.8405 12.1118 22.7732C12.1262 22.706 12.1659 22.647 12.2228 22.6084L16.4788 19.8142L11.7476 22.5459C11.6872 22.5798 11.6159 22.5888 11.549 22.5711C11.482 22.5534 11.4246 22.5103 11.3889 22.451C11.3531 22.3917 11.3418 22.3208 11.3574 22.2533C11.373 22.1858 11.4142 22.127 11.4724 22.0894L12.0564 21.723L11.2927 22.1636C11.2324 22.1978 11.1612 22.2073 11.0941 22.19C11.027 22.1727 10.9693 22.1299 10.9332 22.0708C10.897 22.0117 10.8854 21.9408 10.9006 21.8732C10.9158 21.8056 10.9568 21.7465 11.0148 21.7086L15.0841 19.0777L10.7231 21.5945C10.6632 21.628 10.5927 21.6372 10.5263 21.6202C10.4599 21.6031 10.4025 21.5611 10.3663 21.5028C10.33 21.4446 10.3176 21.3746 10.3316 21.3075C10.3456 21.2403 10.3849 21.1811 10.4415 21.1422L16.8564 16.8505L10.0665 20.77C10.0063 20.8022 9.93596 20.81 9.87009 20.7919C9.80422 20.7738 9.74782 20.731 9.71252 20.6726C9.67722 20.6141 9.66571 20.5443 9.68038 20.4775C9.69504 20.4108 9.73475 20.3523 9.79132 20.314L11.4303 19.2819L9.73799 20.259C9.67802 20.2912 9.608 20.2992 9.5423 20.2815C9.47659 20.2637 9.42016 20.2215 9.38457 20.1635C9.34898 20.1055 9.33692 20.036 9.35087 19.9694C9.36482 19.9028 9.40372 19.844 9.45959 19.8052L14.4847 16.5342L9.34972 19.499C9.28918 19.5339 9.21735 19.5437 9.14969 19.5262C9.08203 19.5086 9.02395 19.4653 8.98795 19.4054C8.95195 19.3455 8.94091 19.2738 8.9572 19.2058C8.97349 19.1379 9.01581 19.079 9.07506 19.042L9.34546 18.8734L9.14172 18.9907C9.08174 19.0243 9.01113 19.0334 8.9446 19.0161C8.87808 18.9989 8.82078 18.9566 8.78467 18.8981C8.74855 18.8397 8.73641 18.7695 8.75076 18.7023C8.76512 18.6351 8.80487 18.576 8.86172 18.5374L14.3247 14.9342L8.86972 18.0809C8.80937 18.1136 8.73873 18.1217 8.67252 18.1037C8.6063 18.0856 8.54959 18.0427 8.51421 17.9839C8.47882 17.9251 8.46748 17.8549 8.48254 17.7879C8.4976 17.7209 8.5379 17.6624 8.59506 17.6243L9.16999 17.2633L8.75506 17.5028C8.69503 17.5358 8.62459 17.5445 8.55833 17.527C8.49208 17.5095 8.4351 17.4672 8.39922 17.4088C8.36334 17.3504 8.35132 17.2805 8.36563 17.2134C8.37995 17.1464 8.41952 17.0875 8.47612 17.0489L12.3583 14.5209L8.66386 16.6542C8.60332 16.6908 8.53073 16.7018 8.46207 16.6848C8.3934 16.6679 8.33429 16.6244 8.29772 16.5638C8.26116 16.5033 8.25014 16.4307 8.2671 16.362C8.28405 16.2934 8.32758 16.2342 8.38812 16.1977L8.61959 16.0521C8.55857 16.0758 8.49097 16.0762 8.42965 16.0533C8.36833 16.0304 8.31758 15.9857 8.28708 15.9278C8.25657 15.8699 8.24843 15.8028 8.26421 15.7392C8.28 15.6757 8.31859 15.6202 8.37266 15.5833L13.0905 12.3763L8.77052 14.8718C8.71068 14.9054 8.64021 14.9146 8.57377 14.8975C8.50733 14.8804 8.45002 14.8384 8.41375 14.7802C8.37749 14.7219 8.36507 14.6519 8.37907 14.5848C8.39307 14.5176 8.43242 14.4584 8.48892 14.4195L11.4692 12.4217L9.02066 13.835C8.96148 13.869 8.89153 13.879 8.8252 13.8629C8.75888 13.8469 8.70124 13.806 8.66413 13.7487C8.62703 13.6915 8.61328 13.6222 8.62573 13.5551C8.63818 13.488 8.67588 13.4282 8.73106 13.3881L12.2548 10.8371L9.67026 12.3305C9.61265 12.3628 9.54509 12.3726 9.48068 12.358C9.41626 12.3433 9.35958 12.3053 9.3216 12.2512C9.28362 12.1972 9.26705 12.131 9.2751 12.0654C9.28316 11.9998 9.31526 11.9396 9.36519 11.8963L11.4073 10.1721C11.3449 10.1888 11.2786 10.1823 11.2206 10.1537C11.1627 10.1252 11.117 10.0766 11.0922 10.017C11.0674 9.95735 11.065 9.89074 11.0856 9.82951C11.1062 9.76828 11.1483 9.71661 11.2041 9.68408L13.6985 8.24408C13.7561 8.21176 13.8237 8.20197 13.8881 8.21661C13.9525 8.23126 14.0092 8.26928 14.0472 8.32333C14.0852 8.37738 14.1017 8.4436 14.0937 8.50916C14.0856 8.57473 14.0535 8.63497 14.0036 8.67822L12.0009 10.3694L16.4697 7.78755C16.5288 7.75468 16.5981 7.74547 16.6637 7.76179C16.7293 7.77811 16.7863 7.81873 16.8231 7.87544C16.8599 7.93215 16.8738 8.00072 16.8619 8.06727C16.8501 8.13383 16.8134 8.1934 16.7593 8.23395L13.2329 10.787L18.1001 7.97848C18.16 7.94494 18.2304 7.93574 18.2969 7.95281C18.3633 7.96989 18.4206 8.01191 18.4569 8.07014C18.4932 8.12838 18.5056 8.19835 18.4916 8.26551C18.4776 8.33267 18.4382 8.39185 18.3817 8.43075L15.4068 10.4249L19.1236 8.27875C19.1833 8.24517 19.2536 8.23586 19.32 8.25274C19.3864 8.26962 19.4438 8.3114 19.4802 8.36942C19.5166 8.42744 19.5293 8.49724 19.5156 8.56436C19.502 8.63149 19.463 8.69078 19.4068 8.72995L14.6895 11.9369L20.1876 8.76302C20.2479 8.72985 20.3187 8.72129 20.3852 8.73912C20.4517 8.75695 20.5087 8.7998 20.5443 8.8587C20.5799 8.9176 20.5914 8.98798 20.5763 9.05514C20.5612 9.12229 20.5207 9.18101 20.4633 9.21902L20.2953 9.32568L20.722 9.08088C20.7822 9.04588 20.8537 9.03581 20.9212 9.05282C20.9887 9.06982 21.0469 9.11256 21.0833 9.1719C21.1197 9.23124 21.1315 9.30247 21.1161 9.37037C21.1007 9.43827 21.0594 9.49746 21.0009 9.53528L17.1172 12.0638L21.4105 9.58542C21.4709 9.55156 21.5422 9.54254 21.6091 9.56027C21.6761 9.57799 21.7335 9.62107 21.7693 9.68038C21.805 9.7397 21.8163 9.8106 21.8007 9.87808C21.7851 9.94556 21.7439 10.0043 21.6857 10.0419L21.1145 10.4003L21.8527 9.97368C21.9127 9.93887 21.9839 9.92884 22.0513 9.94571C22.1186 9.96259 22.1767 10.005 22.2132 10.0641C22.2497 10.1231 22.2618 10.194 22.2468 10.2618C22.2319 10.3295 22.1911 10.3888 22.1332 10.427L16.6671 14.0275L22.498 10.6622C22.5585 10.6273 22.6304 10.6176 22.698 10.6351C22.7657 10.6526 22.8238 10.696 22.8598 10.7559C22.8958 10.8158 22.9068 10.8874 22.8905 10.9554C22.8742 11.0234 22.8319 11.0822 22.7727 11.1193L22.5001 11.2894L22.8351 11.0963C22.895 11.0642 22.965 11.0561 23.0308 11.0739C23.0965 11.0916 23.1529 11.1339 23.1885 11.1919C23.2241 11.2499 23.2361 11.3193 23.2222 11.386C23.2082 11.4526 23.1693 11.5113 23.1135 11.5502L18.0905 14.8211L23.3007 11.8131C23.3612 11.7766 23.4338 11.7656 23.5024 11.7825C23.5711 11.7995 23.6302 11.843 23.6668 11.9035C23.7034 11.9641 23.7144 12.0367 23.6974 12.1053C23.6805 12.174 23.6369 12.2331 23.5764 12.2697L21.9401 13.3001L23.5812 12.3523C23.6109 12.3338 23.644 12.3213 23.6786 12.3156C23.7131 12.3099 23.7485 12.311 23.7826 12.3189C23.8167 12.3268 23.8489 12.3414 23.8774 12.3618C23.9059 12.3822 23.9301 12.408 23.9487 12.4377C23.9672 12.4674 23.9797 12.5005 23.9854 12.5351C23.9911 12.5696 23.99 12.605 23.9821 12.6391C23.9742 12.6732 23.9596 12.7054 23.9392 12.7339C23.9188 12.7624 23.8931 12.7866 23.8633 12.8051L17.4441 17.099L23.9668 13.3342C24.027 13.2999 24.0982 13.2904 24.1653 13.3078C24.2324 13.3251 24.2902 13.3678 24.3263 13.427C24.3624 13.4861 24.3741 13.557 24.3589 13.6246C24.3436 13.6922 24.3027 13.7512 24.2447 13.7891L20.1801 16.4163L24.1764 14.1097C24.2369 14.0748 24.3088 14.065 24.3764 14.0825C24.4441 14.1001 24.5022 14.1434 24.5382 14.2033C24.5742 14.2632 24.5852 14.3349 24.5689 14.4029C24.5526 14.4708 24.5103 14.5297 24.4511 14.5668L23.8697 14.9342L24.2788 14.6985C24.3387 14.6659 24.4089 14.6575 24.4748 14.675C24.5407 14.6926 24.5974 14.7347 24.6332 14.7928C24.6691 14.8509 24.6812 14.9205 24.6673 14.9872C24.6533 15.054 24.6143 15.1129 24.5583 15.1518L20.2991 17.9481L24.3455 15.6121C24.4057 15.5784 24.4767 15.5694 24.5435 15.587C24.6103 15.6046 24.6676 15.6474 24.7035 15.7064C24.7393 15.7654 24.7509 15.836 24.7357 15.9033C24.7206 15.9707 24.6799 16.0296 24.6223 16.0675L23.4489 16.8142L24.3337 16.3038C24.394 16.2695 24.4652 16.26 24.5323 16.2774C24.5994 16.2947 24.6571 16.3374 24.6932 16.3966C24.7293 16.4557 24.741 16.5266 24.7258 16.5942C24.7106 16.6618 24.6696 16.7208 24.6116 16.7587L22.6585 18.0227L24.2345 17.1161C24.2941 17.0814 24.3649 17.0711 24.4319 17.0875C24.4989 17.1039 24.5569 17.1455 24.5939 17.2038C24.6308 17.2621 24.6437 17.3323 24.6299 17.3999C24.6161 17.4675 24.5767 17.5271 24.5199 17.5662L20.4521 20.386L23.9135 18.3875C23.9733 18.3535 24.0439 18.3438 24.1107 18.3606C24.1774 18.3775 24.235 18.4194 24.2716 18.4778C24.3081 18.5361 24.3206 18.6063 24.3065 18.6737C24.2925 18.7411 24.2529 18.8004 24.1961 18.8393L22.5465 19.9476L23.4697 19.4142C23.5276 19.3802 23.5962 19.3693 23.6618 19.3836C23.7274 19.398 23.7852 19.4366 23.8236 19.4917C23.862 19.5468 23.8782 19.6143 23.8689 19.6809C23.8597 19.7474 23.8257 19.8079 23.7737 19.8505L21.3673 21.8462L21.8473 21.5678C21.9085 21.533 21.981 21.5238 22.049 21.5423C22.117 21.5607 22.1749 21.6053 22.2101 21.6663C22.2453 21.7273 22.2549 21.7997 22.2369 21.8678C22.2189 21.9359 22.1747 21.9941 22.114 22.0297L18.9017 23.8841C18.8439 23.9173 18.7757 23.9277 18.7106 23.9132C18.6455 23.8986 18.5883 23.8602 18.5501 23.8055C18.5119 23.7508 18.4957 23.6838 18.5045 23.6177C18.5133 23.5515 18.5466 23.4911 18.5977 23.4484L21.0041 21.4531L16.2415 24.2025C16.2015 24.2255 16.1563 24.2378 16.1103 24.2382Z" fill="white"/>
    <path d="M18.3541 17.8652C18.2954 17.8652 18.2383 17.8458 18.1917 17.8101C18.1452 17.7743 18.1117 17.7242 18.0965 17.6675C18.0813 17.6108 18.0852 17.5507 18.1077 17.4965C18.1302 17.4422 18.1699 17.3969 18.2207 17.3676L21.6842 15.3676C21.7379 15.3367 21.8007 15.3254 21.8618 15.3358C21.9229 15.3461 21.9785 15.3775 22.019 15.4244C22.0595 15.4712 22.0824 15.5308 22.0838 15.5927C22.0852 15.6547 22.065 15.7152 22.0266 15.7638L21.3183 16.6604L21.6714 16.4566C21.7326 16.4218 21.8051 16.4127 21.8731 16.4311C21.941 16.4496 21.9989 16.4941 22.0341 16.5551C22.0693 16.6161 22.079 16.6885 22.061 16.7566C22.043 16.8247 21.9988 16.8829 21.9381 16.9185L20.3802 17.8177C20.3265 17.8484 20.2639 17.8594 20.203 17.849C20.1421 17.8386 20.0867 17.8074 20.0463 17.7606C20.0058 17.7139 19.9829 17.6546 19.9813 17.5928C19.9798 17.5311 19.9997 17.4707 20.0378 17.422L20.7461 16.5249L18.4874 17.8278C18.447 17.8518 18.401 17.8647 18.3541 17.8652Z" fill="#E5656B"/>
    <path d="M16.9799 21.5859C16.9314 21.5859 16.8837 21.5726 16.8422 21.5475C16.8006 21.5224 16.7667 21.4864 16.7441 21.4434C16.7214 21.4004 16.711 21.3521 16.7138 21.3036C16.7167 21.2551 16.7327 21.2083 16.7602 21.1683L17.1986 20.5283L15.6285 21.4349C15.5717 21.4695 15.504 21.4816 15.4387 21.4688C15.3734 21.456 15.3153 21.4193 15.2757 21.3659C15.2361 21.3125 15.2179 21.2462 15.2246 21.18C15.2314 21.1138 15.2626 21.0526 15.3122 21.0083L16.2626 20.1085L15.0893 20.7843C15.0315 20.8174 14.9635 20.8277 14.8985 20.8132C14.8335 20.7986 14.7764 20.7603 14.7382 20.7058C14.7 20.6513 14.6836 20.5844 14.6923 20.5184C14.7009 20.4524 14.7339 20.392 14.7847 20.3491L15.5751 19.6856L15.0418 19.9923C14.9821 20.025 14.9122 20.0336 14.8464 20.0165C14.7806 19.9993 14.7238 19.9577 14.6876 19.9C14.6515 19.8424 14.6388 19.7731 14.6521 19.7063C14.6654 19.6396 14.7037 19.5805 14.7591 19.5411L15.3367 19.1507L15.0381 19.3229C14.9786 19.3567 14.9085 19.3663 14.8422 19.3498C14.7759 19.3333 14.7184 19.292 14.6817 19.2344C14.6449 19.1768 14.6317 19.1073 14.6447 19.0402C14.6577 18.9731 14.696 18.9136 14.7517 18.8739L16.1314 17.9096L15.0333 18.5437C14.9754 18.5778 14.9068 18.5887 14.8412 18.5743C14.7756 18.56 14.7178 18.5214 14.6794 18.4663C14.641 18.4112 14.6248 18.3436 14.6341 18.2771C14.6433 18.2106 14.6773 18.15 14.7293 18.1075L17.0066 16.2152L14.2333 17.8152C14.1756 17.8486 14.1076 17.8592 14.0425 17.8449C13.9774 17.8307 13.9201 17.7926 13.8817 17.7381C13.8433 17.6837 13.8267 17.6169 13.8351 17.5508C13.8435 17.4847 13.8763 17.4242 13.9271 17.3811L15.6466 15.9331L12.3853 17.8152C12.3258 17.8477 12.2563 17.8563 12.1907 17.8393C12.1251 17.8224 12.0684 17.7811 12.0322 17.7239C11.9959 17.6666 11.9828 17.5978 11.9955 17.5312C12.0082 17.4647 12.0457 17.4055 12.1005 17.3656L12.5037 17.0867L11.6855 17.5592C11.6262 17.594 11.5557 17.6046 11.4888 17.5886C11.4218 17.5727 11.3636 17.5315 11.3264 17.4736C11.2891 17.4158 11.2757 17.3458 11.2888 17.2782C11.302 17.2107 11.3408 17.1508 11.397 17.1112L13.4365 15.6557L11.3266 16.8755C11.2687 16.9089 11.2004 16.9193 11.1352 16.9047C11.07 16.8902 11.0126 16.8516 10.9744 16.7968C10.9363 16.7419 10.9201 16.6747 10.9291 16.6085C10.9381 16.5423 10.9717 16.4819 11.0231 16.4392L11.3015 16.2083C11.2488 16.2341 11.189 16.2419 11.1315 16.2303C11.0739 16.2187 11.0218 16.1884 10.9832 16.1441C10.9446 16.0999 10.9217 16.0441 10.918 15.9855C10.9143 15.9269 10.9301 15.8687 10.9629 15.82L11.3831 15.1923C11.3215 15.2029 11.2582 15.1915 11.2041 15.1601C11.15 15.1287 11.1087 15.0793 11.0874 15.0205C11.066 14.9617 11.066 14.8973 11.0873 14.8386C11.1086 14.7798 11.1499 14.7304 11.2039 14.6989L12.0887 14.1885C12.1409 14.1586 12.2016 14.1472 12.2611 14.1561C12.3205 14.165 12.3752 14.1937 12.4163 14.2376C12.4574 14.2815 12.4824 14.338 12.4873 14.398C12.4922 14.4579 12.4768 14.5177 12.4434 14.5677L12.0439 15.1651L13.7543 14.1773C13.8121 14.1447 13.8801 14.1347 13.9448 14.1495C14.0096 14.1642 14.0665 14.2026 14.1044 14.2571C14.1424 14.3116 14.1586 14.3783 14.15 14.4441C14.1414 14.5099 14.1085 14.5702 14.0578 14.6131L13.7831 14.8408L17.9575 12.4312C18.0169 12.3964 18.0874 12.3858 18.1543 12.4018C18.2213 12.4177 18.2795 12.459 18.3167 12.5168C18.354 12.5747 18.3674 12.6447 18.3543 12.7122C18.3411 12.7798 18.3023 12.8396 18.2461 12.8792L16.2061 14.3352L17.9629 13.3219C18.0223 13.2894 18.0919 13.2808 18.1575 13.2978C18.2231 13.3147 18.2797 13.356 18.316 13.4132C18.3522 13.4704 18.3653 13.5393 18.3526 13.6058C18.34 13.6724 18.3024 13.7316 18.2477 13.7715L17.8418 14.052L17.9671 13.98C18.0248 13.9472 18.0926 13.937 18.1573 13.9514C18.222 13.9659 18.2791 14.004 18.3172 14.0582C18.3554 14.1124 18.372 14.179 18.3638 14.2448C18.3556 14.3106 18.3231 14.371 18.2727 14.4141L16.5586 15.8632L19.4599 14.1885C19.5177 14.1559 19.5857 14.1459 19.6504 14.1607C19.7152 14.1754 19.7721 14.2138 19.81 14.2683C19.848 14.3228 19.8642 14.3895 19.8556 14.4553C19.847 14.5211 19.8141 14.5814 19.7634 14.6243L17.4866 16.5155L21.2114 14.3651C21.2708 14.3322 21.3405 14.3232 21.4063 14.3399C21.4721 14.3567 21.5291 14.3979 21.5655 14.4552C21.602 14.5124 21.6152 14.5815 21.6026 14.6482C21.5899 14.7149 21.5522 14.7742 21.4973 14.8141L20.1197 15.7741L21.6295 14.9027C21.6893 14.8686 21.76 14.859 21.8267 14.8758C21.8935 14.8926 21.9511 14.9346 21.9876 14.9929C22.0241 15.0513 22.0367 15.1215 22.0226 15.1888C22.0086 15.2562 21.969 15.3155 21.9122 15.3544L18.3101 17.788C18.3443 17.8424 18.3578 17.9073 18.348 17.9708C18.3382 18.0343 18.3058 18.0921 18.2567 18.1336L17.4663 18.7971L17.9522 18.5171C18.009 18.4825 18.0767 18.4704 18.142 18.4832C18.2073 18.496 18.2654 18.5327 18.305 18.5861C18.3446 18.6396 18.3628 18.7059 18.3561 18.772C18.3493 18.8382 18.3181 18.8994 18.2685 18.9437L17.3175 19.8451L17.9522 19.4792C18.0045 19.4492 18.0655 19.4379 18.1251 19.447C18.1847 19.4561 18.2395 19.4852 18.2804 19.5294C18.3214 19.5737 18.3462 19.6305 18.3507 19.6907C18.3552 19.7508 18.3392 19.8107 18.3053 19.8605L17.8642 20.5005C17.9267 20.4739 17.997 20.4721 18.0608 20.4956C18.1246 20.519 18.177 20.5659 18.2073 20.6267C18.2377 20.6875 18.2437 20.7576 18.2241 20.8226C18.2046 20.8877 18.1609 20.9428 18.1021 20.9768L17.1122 21.5485C17.0722 21.5726 17.0266 21.5855 16.9799 21.5859Z" fill="#E5656B"/>
    <path d="M14.9161 14.5137C14.8609 14.5137 14.8072 14.4966 14.7621 14.4648C14.7171 14.4329 14.6831 14.3879 14.6647 14.3359C14.6463 14.2839 14.6446 14.2275 14.6596 14.1744C14.6746 14.1214 14.7057 14.0743 14.7486 14.0396L15.2734 13.6129L15.0494 13.7425C14.9917 13.7762 14.9233 13.787 14.858 13.7727C14.7927 13.7583 14.7351 13.72 14.6967 13.6652C14.6584 13.6105 14.6419 13.5433 14.6508 13.477C14.6596 13.4107 14.693 13.3502 14.7444 13.3073L15.3518 12.7959L15.0494 12.9703C14.9918 13.0026 14.9243 13.0124 14.8598 12.9977C14.7954 12.9831 14.7387 12.9451 14.7008 12.891C14.6628 12.837 14.6462 12.7708 14.6543 12.7052C14.6623 12.6396 14.6944 12.5794 14.7444 12.5361L14.9438 12.3671C14.8926 12.3723 14.8409 12.3626 14.795 12.3391C14.7491 12.3156 14.7111 12.2793 14.6854 12.2346C14.6597 12.19 14.6475 12.1388 14.6503 12.0873C14.6531 12.0359 14.6708 11.9863 14.7012 11.9447L15.0553 11.4599C14.9981 11.4567 14.9434 11.4351 14.8994 11.3984C14.8554 11.3616 14.8244 11.3117 14.811 11.256C14.7976 11.2003 14.8025 11.1417 14.825 11.089C14.8475 11.0363 14.8863 10.9922 14.9358 10.9633L15.8206 10.4529C15.8735 10.4228 15.9352 10.4117 15.9953 10.4214C16.0554 10.4311 16.1103 10.4611 16.151 10.5064C16.1917 10.5517 16.2157 10.6096 16.2189 10.6704C16.2222 10.7312 16.2045 10.7913 16.1689 10.8407L15.8777 11.2391L17.1742 10.4924C17.2318 10.4601 17.2994 10.4503 17.3638 10.4649C17.4282 10.4796 17.4849 10.5176 17.5229 10.5717C17.5609 10.6257 17.5774 10.6919 17.5694 10.7575C17.5613 10.8231 17.5292 10.8833 17.4793 10.9265L17.3812 11.0097L17.6985 10.8268C17.7562 10.7938 17.8241 10.7836 17.8889 10.7981C17.9538 10.8126 18.0109 10.8508 18.0491 10.9051C18.0872 10.9595 18.1037 11.0262 18.0953 11.0921C18.0869 11.158 18.0542 11.2184 18.0036 11.2615L17.3972 11.7719L17.947 11.4551C18.0051 11.4224 18.0733 11.4126 18.1382 11.4276C18.2031 11.4427 18.26 11.4815 18.2977 11.5364C18.3355 11.5913 18.3513 11.6584 18.342 11.7244C18.3328 11.7904 18.2992 11.8505 18.2478 11.8929L17.7214 12.3196L17.955 12.1852C18.016 12.1533 18.0869 12.1462 18.1529 12.1654C18.219 12.1846 18.2751 12.2285 18.3095 12.288C18.3439 12.3476 18.354 12.4181 18.3376 12.4849C18.3213 12.5517 18.2797 12.6096 18.2217 12.6465L15.0494 14.478C15.0089 14.5014 14.9629 14.5137 14.9161 14.5137Z" fill="#E5656B"/>
    <path d="M2.47337 16.0512C3.6291 23.175 10.0467 31.4624 17.5704 31.4683C28.5038 27.4838 31.9624 16.5088 30.7566 5.78617C31.0563 3.37923 21.5976 4.98617 18.1438 1.15417C15.963 -1.6165 13.4606 3.87417 7.5635 4.11097C6.20404 4.3883 4.78644 4.29763 3.43017 4.4843C1.1107 4.87577 2.47337 13.9488 2.47337 16.0512ZM3.0243 5.83737C2.9459 4.96643 3.84884 4.9083 4.4963 4.96643C8.6659 4.7531 13.0195 3.76857 16.1912 0.909901C20.3048 3.36803 24.012 5.09763 29.1971 4.99897C30.9 5.60163 29.6008 10.5526 29.9763 12.2267C30.3992 20.5664 24.876 28.1259 17.1816 31.0491C10.9811 30.2384 5.65684 24.208 3.79817 18.368C2.67337 14.2795 3.0771 10.0235 3.0243 5.83737Z" fill="#262626"/>
    <path d="M5.13504 18.171C6.82731 23.3444 11.3617 28.2052 16.6945 29.4126C26.054 26.1876 30.6545 15.5934 28.1318 6.61956C24.2918 6.25529 20.3094 5.49156 17.1505 3.11396C16.5681 2.77636 16.054 3.10649 15.5734 3.44783C5.00171 9.98169 2.46251 0.754494 5.13504 18.171ZM5.16491 7.15609C8.61504 6.40249 12.6316 6.09636 15.6881 3.89263C16.1148 3.49103 16.5137 3.27449 16.9921 3.80889C20.0044 5.86169 23.6758 6.63556 27.2396 6.96249C27.5628 7.04569 27.7804 7.17583 27.847 7.48036C28.8732 16.3348 25.6492 25.7636 16.6598 29.0372C7.42677 25.9049 4.07584 16.1609 5.16491 7.15609Z" fill="#262626"/>
    <path d="M18.1338 24.0358C26.2506 22.6779 27.2122 10.5499 19.2314 8.1883C5.68795 4.6539 4.08315 26.0352 18.1338 24.0358ZM9.94022 11.9958C13.6426 5.1915 24.336 8.53976 24.1146 16.0795C23.2303 29.2651 4.14928 23.487 9.94022 11.9958Z" fill="#262626"/>
    <path d="M12.1632 17.7664C12.9466 17.7765 13.7301 17.7664 14.5136 17.7664C14.5018 19.3973 14.0602 22.0165 16.553 21.4997C18.8378 21.6816 18.5221 19.3499 18.4874 17.7701C20.2768 17.9184 22.8101 17.8688 22.2208 15.3648C21.9616 13.6117 19.7141 14.4187 18.4874 14.2373C18.4986 12.6064 18.9413 9.98668 16.448 10.504C14.161 10.3227 14.4794 12.6571 14.5136 14.2373C13.1504 14.2907 10.8069 13.8197 10.7802 15.8043C10.6197 16.7701 11.0069 17.8795 12.1632 17.7664ZM11.6949 14.8656C12.5525 13.9835 14.4149 15.1248 15.2864 14.2981C15.4864 13.1392 14.5573 10.5264 16.5082 10.8315C18.4176 10.8096 17.5216 13.2917 17.7141 14.5035C18.2965 14.6688 19.0202 14.5131 19.6496 14.5648C20.44 14.5648 21.3749 14.5024 21.4474 15.5701C21.9696 20.0405 16.9056 14.6336 17.7141 19.7403C17.8645 20.6251 17.4768 21.3824 16.4922 21.1685C14.5829 21.1904 15.4789 18.7083 15.2864 17.4965C13.1818 17.2757 10.7509 18.1568 11.6949 14.8656Z" fill="#262626"/>
</svg>