<svg width="33" height="32" viewBox="0 0 33 32" fill="none" xmlns="http://www.w3.org/2000/svg">
    <g clip-path="url(#clip0_1_828)">
        <path d="M27.9308 20.0181C26.9204 19.7725 25.8586 19.848 24.8931 20.234C23.9276 20.6201 23.1065 21.2976 22.544 22.1721C21.9816 23.0466 21.7057 24.0748 21.7549 25.1134C21.804 26.152 22.1757 27.1495 22.8183 27.967C23.4608 28.7845 24.3422 29.3814 25.3399 29.6746C26.3375 29.9678 27.4017 29.9426 28.3844 29.6027C29.367 29.2628 30.2193 28.625 30.8226 27.7781C31.4258 26.9312 31.7501 25.9172 31.7501 24.8774C31.7502 23.7566 31.3737 22.6682 30.6811 21.787C29.9885 20.9058 29.0199 20.2828 27.9308 20.0181Z" fill="#FF808D"/>
        <path d="M22.6138 13.8396L24.25 12.2033C23.0681 11.0214 21.665 10.0838 20.1208 9.44413C18.5766 8.80446 16.9215 8.47522 15.25 8.47522C13.5785 8.47522 11.9234 8.80446 10.3792 9.44413C8.83497 10.0838 7.43186 11.0214 6.25 12.2033L7.88625 13.8396C8.85318 12.8724 10.0012 12.1052 11.2647 11.5817C12.5281 11.0583 13.8824 10.7888 15.25 10.7888C16.6176 10.7888 17.9719 11.0583 19.2353 11.5817C20.4988 12.1052 21.6468 12.8724 22.6138 13.8396Z" fill="#FF808D"/>
        <path d="M9.52246 15.4747L11.1587 17.1115C12.2439 16.0266 13.7155 15.4172 15.25 15.4172C16.7844 15.4172 18.256 16.0266 19.3412 17.1115L20.9774 15.4747C19.4583 13.9559 17.3981 13.1028 15.25 13.1028C13.1018 13.1028 11.0417 13.9559 9.52246 15.4747Z" fill="#FF808D"/>
        <path d="M15.25 21.782C16.2086 21.782 16.9857 21.005 16.9857 20.0464C16.9857 19.0879 16.2086 18.3108 15.25 18.3108C14.2915 18.3108 13.5144 19.0879 13.5144 20.0464C13.5144 21.005 14.2915 21.782 15.25 21.782Z" fill="#FF808D"/>
        <path d="M28.5726 19.8125C29.5749 16.714 29.4655 13.3631 28.2632 10.3367C27.0609 7.31024 24.841 4.79772 21.9857 3.23175C19.1304 1.66577 15.8185 1.14435 12.6202 1.75726C9.42192 2.37017 6.5374 4.07907 4.46337 6.58968C2.38933 9.10029 1.25558 12.2555 1.25733 15.512C1.25908 18.7685 2.39622 21.9225 4.47295 24.4309C6.54969 26.9393 9.43604 28.645 12.635 29.2545C15.834 29.864 19.1453 29.339 21.9989 27.77C22.4448 28.5354 23.0691 29.1817 23.8185 29.654C24.5679 30.1263 25.4203 30.4106 26.3032 30.4827C27.1861 30.5547 28.0734 30.4125 28.8895 30.068C29.7056 29.7235 30.4264 29.1869 30.9905 28.504C31.5547 27.821 31.9456 27.0119 32.1299 26.1455C32.3141 25.279 32.2864 24.3809 32.049 23.5275C31.8116 22.674 31.3715 21.8906 30.7663 21.2438C30.161 20.597 29.4085 20.1059 28.5726 19.8125ZM21.5745 26.8625C19.6406 27.939 17.4635 28.5033 15.2501 28.5018C8.08202 28.5018 2.25015 22.67 2.25015 15.5018C2.25015 8.33372 8.08202 2.50185 15.2501 2.50185C22.4183 2.50185 28.2501 8.33372 28.2501 15.5018C28.2516 16.883 28.0324 18.2555 27.6008 19.5675C26.8162 19.4452 26.0144 19.4942 25.2505 19.711C24.4866 19.9279 23.7787 20.3075 23.1754 20.8238C22.572 21.3401 22.0876 21.9808 21.7552 22.702C21.4229 23.4232 21.2506 24.2078 21.2501 25.0018C21.2496 25.6362 21.3593 26.2658 21.5745 26.8625ZM26.7501 29.5018C25.8601 29.5018 24.9901 29.2379 24.2501 28.7435C23.5101 28.249 22.9333 27.5462 22.5927 26.7239C22.2521 25.9017 22.163 24.9969 22.3366 24.1239C22.5102 23.251 22.9388 22.4492 23.5682 21.8199C24.1975 21.1905 24.9993 20.7619 25.8722 20.5883C26.7452 20.4147 27.65 20.5038 28.4722 20.8444C29.2945 21.185 29.9973 21.7618 30.4918 22.5018C30.9862 23.2418 31.2501 24.1118 31.2501 25.0018C31.2488 26.1949 30.7742 27.3387 29.9306 28.1823C29.087 29.0259 27.9432 29.5005 26.7501 29.5018Z" fill="#404040"/>
        <path d="M29.104 26.6497C29.1978 26.7435 29.2506 26.8708 29.2506 27.0035C29.2506 27.1361 29.1978 27.2634 29.104 27.3572C29.0102 27.451 28.883 27.5037 28.7503 27.5037C28.6176 27.5037 28.4903 27.451 28.3965 27.3572L26.7503 25.7103L25.104 27.3572C25.0102 27.451 24.883 27.5037 24.7503 27.5037C24.6176 27.5037 24.4903 27.451 24.3965 27.3572C24.3027 27.2634 24.25 27.1361 24.25 27.0035C24.25 26.8708 24.3027 26.7435 24.3965 26.6497L26.0434 25.0035L24.3965 23.3572C24.3027 23.2634 24.25 23.1361 24.25 23.0035C24.25 22.8708 24.3027 22.7435 24.3965 22.6497C24.4903 22.5559 24.6176 22.5032 24.7503 22.5032C24.883 22.5032 25.0102 22.5559 25.104 22.6497L26.7503 24.2966L28.3965 22.6497C28.443 22.6032 28.4981 22.5664 28.5588 22.5413C28.6195 22.5161 28.6846 22.5032 28.7503 22.5032C28.816 22.5032 28.881 22.5161 28.9417 22.5413C29.0024 22.5664 29.0576 22.6032 29.104 22.6497C29.1505 22.6962 29.1873 22.7513 29.2125 22.812C29.2376 22.8727 29.2506 22.9378 29.2506 23.0035C29.2506 23.0691 29.2376 23.1342 29.2125 23.1949C29.1873 23.2556 29.1505 23.3107 29.104 23.3572L27.4572 25.0035L29.104 26.6497Z" fill="#404040"/>
        <path d="M22.2601 14.3158C22.3066 14.3622 22.3617 14.3991 22.4224 14.4242C22.483 14.4493 22.5481 14.4623 22.6137 14.4623C22.6794 14.4623 22.7444 14.4493 22.8051 14.4242C22.8658 14.3991 22.9209 14.3622 22.9673 14.3158L24.6038 12.6792C24.6503 12.6328 24.6871 12.5777 24.7122 12.517C24.7373 12.4564 24.7503 12.3913 24.7503 12.3257C24.7503 12.26 24.7373 12.195 24.7122 12.1343C24.6871 12.0737 24.6503 12.0185 24.6038 11.9721C23.3755 10.7438 21.9173 9.76937 20.3124 9.10459C18.7075 8.43981 16.9874 8.09766 15.2503 8.09766C13.5131 8.09766 11.793 8.43981 10.1881 9.10459C8.58325 9.76937 7.12501 10.7438 5.8967 11.9721C5.85027 12.0185 5.81344 12.0737 5.78831 12.1343C5.76318 12.195 5.75024 12.26 5.75024 12.3257C5.75024 12.3913 5.76318 12.4564 5.78831 12.517C5.81344 12.5777 5.85027 12.6328 5.8967 12.6792L7.5332 14.3158C7.57963 14.3622 7.63476 14.3991 7.69543 14.4242C7.7561 14.4493 7.82112 14.4623 7.88679 14.4623C7.95246 14.4623 8.01749 14.4493 8.07816 14.4242C8.13883 14.3991 8.19396 14.3622 8.24039 14.3158C9.16087 13.3951 10.2537 12.6648 11.4565 12.1665C12.6592 11.6683 13.9484 11.4118 15.2503 11.4118C16.5522 11.4118 17.8413 11.6683 19.0441 12.1665C20.2468 12.6648 21.3397 13.3951 22.2601 14.3158ZM7.89476 13.263L6.96445 12.3327C9.22234 10.2524 12.1801 9.0976 15.2503 9.0976C18.3204 9.0976 21.2782 10.2524 23.5361 12.3327L22.6058 13.263C20.5952 11.4287 17.9718 10.4118 15.2503 10.4118C12.5287 10.4118 9.90531 11.4287 7.89476 13.263Z" fill="#404040"/>
        <path d="M21.4778 15.5976C21.4778 15.4651 21.4251 15.3381 21.3314 15.2443C19.7185 13.6318 17.5311 12.726 15.2504 12.726C12.9696 12.726 10.7823 13.6318 9.16931 15.2443C9.12287 15.2908 9.08603 15.3459 9.0609 15.4066C9.03576 15.4672 9.02283 15.5323 9.02283 15.5979C9.02283 15.6636 9.03576 15.7286 9.0609 15.7893C9.08603 15.85 9.12287 15.9051 9.16931 15.9515L10.8056 17.5881C10.8993 17.6818 11.0265 17.7345 11.1591 17.7345C11.2916 17.7345 11.4188 17.6818 11.5126 17.5881C12.5039 16.5969 13.8483 16.0401 15.2501 16.0401C16.6519 16.0401 17.9963 16.5969 18.9876 17.5881C19.0813 17.6818 19.2085 17.7345 19.3411 17.7345C19.4736 17.7345 19.6008 17.6818 19.6946 17.5881L21.3314 15.9513C21.3779 15.9048 21.4147 15.8497 21.4398 15.789C21.4649 15.7283 21.4778 15.6633 21.4778 15.5976ZM19.3274 16.541C18.1899 15.572 16.7445 15.0399 15.2502 15.0399C13.7559 15.0399 12.3105 15.572 11.173 16.541L10.2411 15.6091C11.6274 14.395 13.4074 13.7257 15.2502 13.7257C17.093 13.7257 18.873 14.395 20.2593 15.6091L19.3274 16.541Z" fill="#404040"/>
        <path d="M15.2501 17.9337C14.8079 17.9337 14.3757 18.0649 14.0081 18.3105C13.6404 18.5562 13.3539 18.9053 13.1847 19.3138C13.0155 19.7223 12.9712 20.1718 13.0575 20.6055C13.1438 21.0392 13.3567 21.4375 13.6693 21.7502C13.982 22.0628 14.3803 22.2757 14.814 22.362C15.2477 22.4483 15.6972 22.404 16.1057 22.2348C16.5142 22.0656 16.8633 21.7791 17.109 21.4114C17.3546 21.0438 17.4858 20.6116 17.4858 20.1694C17.4851 19.5767 17.2493 19.0084 16.8302 18.5893C16.4111 18.1702 15.8428 17.9344 15.2501 17.9337ZM15.2501 21.405C15.0057 21.405 14.7668 21.3325 14.5636 21.1967C14.3604 21.0609 14.2021 20.8679 14.1086 20.6421C14.015 20.4164 13.9906 20.1679 14.0383 19.9282C14.086 19.6885 14.2037 19.4684 14.3765 19.2956C14.5493 19.1228 14.7695 19.0051 15.0092 18.9574C15.2488 18.9098 15.4973 18.9343 15.7231 19.0278C15.9488 19.1213 16.1418 19.2797 16.2776 19.4829C16.4133 19.6861 16.4858 19.925 16.4858 20.1694C16.4854 20.497 16.3551 20.8111 16.1234 21.0427C15.8918 21.2743 15.5777 21.4046 15.2501 21.405Z" fill="#404040"/>
    </g>
    <defs>
        <clipPath id="clip0_1_828">
            <rect width="32" height="32" fill="white" transform="translate(0.75)"/>
        </clipPath>
    </defs>
</svg>