<svg width="14" height="14" viewBox="0 0 14 14" fill="none" xmlns="http://www.w3.org/2000/svg">
    <path d="M12.8803 7L13.7373 8.05957C13.8203 8.16439 13.8848 8.27832 13.9309 8.40137C13.9769 8.52441 14 8.6543 14 8.79102C14 8.92773 13.9792 9.05762 13.9378 9.18066C13.8963 9.30371 13.8364 9.41536 13.7581 9.51562C13.6797 9.61588 13.5853 9.70247 13.4747 9.77539C13.3641 9.84831 13.2443 9.90299 13.1153 9.93945L11.7952 10.3018C11.8044 10.5342 11.8159 10.7689 11.8297 11.0059C11.8436 11.2428 11.8528 11.4798 11.8574 11.7168C11.8574 11.8809 11.8274 12.0335 11.7675 12.1748C11.7076 12.3161 11.6224 12.4391 11.5118 12.5439C11.4012 12.6488 11.2745 12.7331 11.1317 12.7969C10.9888 12.8607 10.8322 12.8926 10.6617 12.8926C10.5188 12.8926 10.3783 12.8675 10.2401 12.8174L8.96141 12.3389L8.20804 13.4668C8.09746 13.6354 7.95462 13.7653 7.77952 13.8564C7.60443 13.9476 7.41321 13.9954 7.20586 14C7.00312 14 6.8142 13.9544 6.63911 13.8633C6.46401 13.7721 6.31887 13.64 6.20368 13.4668L5.45031 12.3389L4.17166 12.8174C4.03343 12.8675 3.89289 12.8926 3.75005 12.8926C3.58417 12.8926 3.42981 12.863 3.28697 12.8037C3.14413 12.7445 3.01742 12.6602 2.90684 12.5508C2.79625 12.4414 2.71101 12.3161 2.65111 12.1748C2.59121 12.0335 2.55895 11.8809 2.55434 11.7168C2.55434 11.4798 2.56126 11.2428 2.57508 11.0059C2.5889 10.7689 2.60273 10.5342 2.61655 10.3018L1.29643 9.93945C1.16281 9.90299 1.043 9.84831 0.937026 9.77539C0.831048 9.70247 0.738893 9.61588 0.660561 9.51562C0.58223 9.41536 0.522329 9.30371 0.480859 9.18066C0.43939 9.05762 0.416351 8.92773 0.411743 8.79102C0.411743 8.65885 0.434782 8.53125 0.480859 8.4082C0.526937 8.28516 0.591445 8.16895 0.674385 8.05957L1.53142 7L0.674385 5.94043C0.49929 5.72624 0.411743 5.48242 0.411743 5.20898C0.411743 5.07227 0.432478 4.94238 0.473948 4.81934C0.515417 4.69629 0.575318 4.58464 0.65365 4.48438C0.731981 4.38411 0.824136 4.29753 0.930114 4.22461C1.03609 4.15169 1.1582 4.097 1.29643 4.06055L2.61655 3.69824C2.60733 3.46582 2.59581 3.23112 2.58199 2.99414C2.56817 2.75716 2.55895 2.52018 2.55434 2.2832C2.55434 2.11914 2.58429 1.96647 2.64419 1.8252C2.7041 1.68392 2.78934 1.56087 2.89992 1.45605C3.01051 1.35124 3.13722 1.26693 3.28006 1.20312C3.4229 1.13932 3.57957 1.10742 3.75005 1.10742C3.89289 1.10742 4.03343 1.13249 4.17166 1.18262L5.45031 1.66113L6.20368 0.533203C6.31426 0.364583 6.4571 0.234701 6.6322 0.143555C6.80729 0.0524089 6.99851 0.00455729 7.20586 0C7.4086 0 7.59752 0.0455729 7.77261 0.136719C7.94771 0.227865 8.09285 0.360026 8.20804 0.533203L8.96141 1.66113L10.2401 1.18262C10.3783 1.13249 10.5188 1.10742 10.6617 1.10742C10.8275 1.10742 10.9819 1.13704 11.1247 1.19629C11.2676 1.25553 11.3943 1.33984 11.5049 1.44922C11.6155 1.55859 11.7007 1.68392 11.7606 1.8252C11.8205 1.96647 11.8528 2.11914 11.8574 2.2832C11.8574 2.52018 11.8505 2.75716 11.8366 2.99414C11.8228 3.23112 11.809 3.46582 11.7952 3.69824L13.1153 4.06055C13.2443 4.097 13.3641 4.15169 13.4747 4.22461C13.5853 4.29753 13.6774 4.38411 13.7512 4.48438C13.8249 4.58464 13.8848 4.69629 13.9309 4.81934C13.9769 4.94238 14 5.07227 14 5.20898C14 5.48242 13.9124 5.72624 13.7373 5.94043L12.8803 7ZM5.6186 8.8298C6.00815 9.21385 6.63398 9.21362 7.02325 8.8293L9.85528 6.03319C10.0747 5.81661 10.0748 5.46253 9.85563 5.24575C9.6398 5.03229 9.29231 5.03248 9.07671 5.24618L6.55094 7.74979C6.42377 7.87584 6.21872 7.8757 6.09173 7.74947L5.3346 6.99686C5.11932 6.78287 4.77178 6.78243 4.55596 6.99589C4.3369 7.21255 4.33718 7.56646 4.55659 7.78277L5.6186 8.8298Z" fill="url(#paint0_linear_1_921)"/>
    <path d="M5.6186 8.8298C6.00815 9.21385 6.63398 9.21362 7.02325 8.8293L9.85528 6.03319C10.0747 5.81661 10.0748 5.46253 9.85563 5.24575C9.6398 5.03229 9.29231 5.03248 9.07671 5.24618L6.55094 7.74979C6.42377 7.87584 6.21872 7.8757 6.09173 7.74947L5.3346 6.99686C5.11932 6.78287 4.77178 6.78243 4.55596 6.99589C4.3369 7.21255 4.33718 7.56646 4.55659 7.78277L5.6186 8.8298Z" fill="white"/>
    <defs>
        <linearGradient id="paint0_linear_1_921" x1="7.2214" y1="-0.00523017" x2="7.2077" y2="14.0058" gradientUnits="userSpaceOnUse">
            <stop stop-color="#A9D69C"/>
            <stop offset="1" stop-color="#66A553"/>
        </linearGradient>
    </defs>
</svg>
