<svg width="33" height="32" viewBox="0 0 33 32" fill="none" xmlns="http://www.w3.org/2000/svg">
    <path d="M29 11H19.5V15.5C19.5 16.163 19.2366 16.7989 18.7678 17.2678C18.2989 17.7366 17.663 18 17 18H12.5V23.5C12.5 24.163 12.7634 24.7989 13.2322 25.2678C13.7011 25.7366 14.337 26 15 26H26L29 29V26C29.663 26 30.2989 25.7366 30.7678 25.2678C31.2366 24.7989 31.5 24.163 31.5 23.5V13.5C31.5 12.837 31.2366 12.2011 30.7678 11.7322C30.2989 11.2634 29.663 11 29 11Z" fill="#FF808D"/>
    <path d="M29 10.5H20V5.5C19.9992 4.70461 19.6828 3.94204 19.1204 3.37961C18.558 2.81719 17.7954 2.50084 17 2.5H4C3.20461 2.50084 2.44204 2.81719 1.87961 3.37961C1.31718 3.94204 1.00084 4.70461 1 5.5V15.5C1.00098 16.2087 1.2524 16.8943 1.70986 17.4355C2.16732 17.9768 2.80137 18.339 3.5 18.4581V21C3.49992 21.0989 3.5292 21.1957 3.58414 21.278C3.63908 21.3603 3.71719 21.4244 3.8086 21.4623C3.90002 21.5002 4.00061 21.5101 4.09765 21.4908C4.1947 21.4714 4.28382 21.4238 4.35375 21.3538L7.20687 18.5H12V23.5C12.0008 24.2954 12.3172 25.058 12.8796 25.6204C13.442 26.1828 14.2046 26.4992 15 26.5H25.7931L28.6462 29.3538C28.7162 29.4238 28.8053 29.4714 28.9023 29.4908C28.9994 29.5101 29.1 29.5002 29.1914 29.4623C29.2828 29.4244 29.3609 29.3603 29.4159 29.278C29.4708 29.1957 29.5001 29.0989 29.5 29V26.4581C30.1986 26.339 30.8327 25.9768 31.2901 25.4355C31.7476 24.8943 31.999 24.2087 32 23.5V13.5C31.9992 12.7046 31.6828 11.942 31.1204 11.3796C30.558 10.8172 29.7954 10.5008 29 10.5ZM7 17.5C6.86736 17.5 6.74013 17.5526 6.64625 17.6462L4.5 19.7931V18C4.5 17.8674 4.44732 17.7402 4.35355 17.6464C4.25979 17.5527 4.13261 17.5 4 17.5C3.46978 17.4993 2.96148 17.2884 2.58655 16.9134C2.21163 16.5385 2.00069 16.0302 2 15.5V5.5C2.00069 4.96978 2.21163 4.46148 2.58655 4.08655C2.96148 3.71163 3.46978 3.50069 4 3.5H17C17.5302 3.50069 18.0385 3.71163 18.4134 4.08655C18.7884 4.46148 18.9993 4.96978 19 5.5V15.5C18.9993 16.0302 18.7884 16.5385 18.4134 16.9134C18.0385 17.2884 17.5302 17.4993 17 17.5H7ZM31 23.5C30.9993 24.0302 30.7884 24.5385 30.4134 24.9134C30.0385 25.2884 29.5302 25.4993 29 25.5C28.8674 25.5 28.7402 25.5527 28.6464 25.6464C28.5527 25.7402 28.5 25.8674 28.5 26V27.7931L26.3538 25.6462C26.2599 25.5526 26.1326 25.5 26 25.5H15C14.4698 25.4993 13.9615 25.2884 13.5866 24.9134C13.2116 24.5385 13.0007 24.0302 13 23.5V18.5H17C17.7954 18.4992 18.558 18.1828 19.1204 17.6204C19.6828 17.058 19.9992 16.2954 20 15.5V11.5H29C29.5302 11.5007 30.0385 11.7116 30.4134 12.0866C30.7884 12.4615 30.9993 12.9698 31 13.5V23.5Z" fill="#404040"/>
    <path d="M25.4705 21.8319L22.9705 14.8319C22.9359 14.7348 22.8721 14.6507 22.7878 14.5913C22.7036 14.5319 22.603 14.5 22.4999 14.5C22.3968 14.5 22.2962 14.5319 22.212 14.5913C22.1277 14.6507 22.0639 14.7348 22.0293 14.8319L19.5293 21.8319C19.5048 21.8942 19.4931 21.9608 19.4948 22.0278C19.4965 22.0948 19.5117 22.1607 19.5394 22.2217C19.5672 22.2826 19.6068 22.3374 19.6561 22.3828C19.7054 22.4281 19.7633 22.4631 19.8264 22.4856C19.8895 22.5082 19.9565 22.5178 20.0233 22.514C20.0902 22.5101 20.1556 22.4929 20.2157 22.4633C20.2758 22.4336 20.3293 22.3923 20.3731 22.3416C20.4168 22.2909 20.45 22.2319 20.4705 22.1681L21.2449 20H23.7549L24.5293 22.1681C24.5768 22.289 24.6695 22.3867 24.7877 22.4404C24.906 22.4942 25.0405 22.4998 25.1628 22.4561C25.2852 22.4124 25.3857 22.3228 25.4431 22.2063C25.5005 22.0898 25.5104 21.9555 25.4705 21.8319ZM21.6024 19L22.4999 16.4869L23.3974 19H21.6024Z" fill="#404040"/>
    <path d="M5.55802 6.70301C5.35802 6.76701 5.19002 6.86201 5.05402 6.98801C4.91802 7.11401 4.81502 7.27301 4.74502 7.46501C4.67502 7.65701 4.64002 7.88401 4.64002 8.14601V8.43701C4.64002 8.66901 4.67102 8.85901 4.73302 9.00701C4.79502 9.15501 4.88302 9.26901 4.99702 9.34901C5.11302 9.42901 5.25202 9.48201 5.41402 9.50801L5.50402 9.52301L5.42302 10.138L5.30002 10.126C5.00802 10.096 4.75802 10.007 4.55002 9.85901C4.34202 9.71101 4.18302 9.51601 4.07302 9.27401C3.96302 9.03201 3.90802 8.75601 3.90802 8.44601V8.16101C3.90802 7.91901 3.94002 7.68901 4.00402 7.47101C4.06802 7.25301 4.16202 7.05601 4.28602 6.88001C4.41202 6.70201 4.56502 6.55401 4.74502 6.43601C4.92702 6.31601 5.13502 6.23301 5.36902 6.18701L5.55802 6.70301ZM5.22502 6.76601L5.36002 6.18701H6.06802L6.10702 6.76601H5.22502ZM8.19854 10.006L6.05954 9.01001V7.74101C6.29754 7.63301 6.54754 7.53101 6.80954 7.43501C7.07354 7.33701 7.34354 7.24801 7.61954 7.16801C7.89754 7.08601 8.17354 7.01901 8.44754 6.96701L8.56154 7.58501C8.33154 7.63301 8.10054 7.69001 7.86854 7.75601C7.63854 7.82201 7.41054 7.89501 7.18454 7.97501C6.95854 8.05501 6.73554 8.14201 6.51554 8.23601L6.78854 7.90001V9.02501L6.51254 8.54201L8.18354 9.33101L8.14154 9.52901L8.10254 8.89601V7.30001L8.12654 7.18001V6.63701H8.80754V7.19801L8.81954 7.31501V10.006H8.19854ZM9.22454 9.25901L9.17954 8.65601C9.21354 8.65601 9.24754 8.65601 9.28154 8.65601C9.31754 8.65601 9.34954 8.65601 9.37754 8.65601C9.53354 8.65601 9.64854 8.62601 9.72254 8.56601C9.79654 8.50401 9.83354 8.40501 9.83354 8.26901V8.17901C9.83354 8.03301 9.78754 7.92401 9.69554 7.85201C9.60354 7.78001 9.45254 7.72701 9.24254 7.69301L8.60054 7.59401L8.60354 6.96701L9.22454 7.07201C9.54654 7.12401 9.80454 7.19601 9.99854 7.28801C10.1945 7.38001 10.3365 7.49901 10.4245 7.64501C10.5125 7.79101 10.5565 7.97401 10.5565 8.19401V8.28101C10.5565 8.62501 10.4645 8.87501 10.2805 9.03101C10.0985 9.18501 9.81454 9.26201 9.42854 9.26201C9.39454 9.26201 9.36054 9.26201 9.32654 9.26201C9.29454 9.26201 9.26054 9.26101 9.22454 9.25901ZM5.65754 6.76601L5.61854 6.18701H10.8625L10.9045 6.76601H5.65754ZM8.50454 6.46601H8.80754V7.65401H8.50454V6.46601ZM8.50454 6.76601V6.18701H9.35954L9.40154 6.76601H8.50454Z" fill="#404040"/>
    <path d="M11.41 11.733H16.624L16.582 11.172H11.368L11.41 11.733ZM11.773 13.428C11.773 13.818 11.862 14.106 12.04 14.292C12.218 14.476 12.47 14.568 12.796 14.568C12.95 14.568 13.082 14.548 13.192 14.508C13.302 14.466 13.391 14.407 13.459 14.331C13.527 14.255 13.577 14.164 13.609 14.058H13.69L13.654 13.524C13.624 13.662 13.56 13.768 13.462 13.842C13.364 13.916 13.229 13.953 13.057 13.953C12.879 13.953 12.747 13.912 12.661 13.83C12.575 13.746 12.532 13.605 12.532 13.407V13.353C12.532 13.161 12.575 13.021 12.661 12.933C12.747 12.845 12.876 12.801 13.048 12.801C13.102 12.801 13.153 12.804 13.201 12.81C13.251 12.816 13.301 12.825 13.351 12.837L13.306 12.258C13.24 12.238 13.169 12.223 13.093 12.213C13.019 12.203 12.938 12.198 12.85 12.198C12.498 12.198 12.23 12.293 12.046 12.483C11.864 12.671 11.773 12.959 11.773 13.347V13.428ZM16.231 13.347C16.231 12.973 16.147 12.688 15.979 12.492C15.813 12.296 15.568 12.198 15.244 12.198C15.094 12.198 14.963 12.22 14.851 12.264C14.741 12.306 14.65 12.367 14.578 12.447C14.506 12.525 14.453 12.618 14.419 12.726H14.338L14.371 13.254C14.411 13.112 14.48 13.003 14.578 12.927C14.676 12.851 14.805 12.813 14.965 12.813C15.141 12.813 15.269 12.859 15.349 12.951C15.429 13.041 15.469 13.181 15.469 13.371V13.416C15.469 13.61 15.43 13.751 15.352 13.839C15.274 13.925 15.153 13.968 14.989 13.968C14.933 13.968 14.879 13.964 14.827 13.956C14.777 13.946 14.727 13.934 14.677 13.92L14.722 14.505C14.78 14.527 14.847 14.543 14.923 14.553C15.001 14.563 15.084 14.568 15.172 14.568C15.526 14.568 15.791 14.475 15.967 14.289C16.143 14.103 16.231 13.813 16.231 13.419V13.347ZM14.386 11.538H13.639V15H14.386V11.538Z" fill="#404040"/>
</svg>
