<svg width="30" height="30" viewBox="0 0 30 30" fill="none" xmlns="http://www.w3.org/2000/svg">
    <path d="M15 30C23.2843 30 30 23.2843 30 15C30 6.71573 23.2843 0 15 0C6.71573 0 0 6.71573 0 15C0 23.2843 6.71573 30 15 30Z" fill="white"/>
    <circle cx="15" cy="15" r="8.3" fill="#FF808D" stroke="#404040" stroke-width="1.4"/>
    <rect x="13.2" y="3.7" width="3.6" height="8.6" rx="1.8" fill="#404040" stroke="white" stroke-width="1.4"/>
    <path d="M15 0C12.0333 0 9.13319 0.879734 6.66645 2.52795C4.19971 4.17618 2.27713 6.51885 1.14181 9.25974C0.00649929 12.0006 -0.290551 15.0166 0.288227 17.9263C0.867005 20.8361 2.29562 23.5088 4.3934 25.6066C6.49119 27.7044 9.16393 29.133 12.0736 29.7118C14.9834 30.2905 17.9994 29.9935 20.7402 28.8582C23.4811 27.7229 25.8238 25.8003 27.472 23.3335C29.1203 20.8668 30 17.9667 30 15C29.9955 11.0231 28.4137 7.21042 25.6016 4.39835C22.7896 1.58627 18.9769 0.00448243 15 0ZM15 29.0322C12.2247 29.0322 9.51169 28.2093 7.2041 26.6674C4.89651 25.1255 3.09796 22.934 2.03589 20.3699C0.973822 17.8058 0.695937 14.9844 1.23737 12.2624C1.77881 9.54045 3.11525 7.04014 5.0777 5.07769C7.04014 3.11525 9.54045 1.7788 12.2624 1.23737C14.9844 0.69593 17.8059 0.973815 20.3699 2.03588C22.934 3.09795 25.1255 4.8965 26.6674 7.20409C28.2093 9.51168 29.0322 12.2247 29.0322 15C29.028 18.7203 27.5483 22.287 24.9176 24.9176C22.287 27.5483 18.7203 29.028 15 29.0322Z" fill="#404040"/>
</svg>