<svg width="32" height="32" viewBox="0 0 32 32" fill="none" xmlns="http://www.w3.org/2000/svg">
    <path d="M16 31C24.2843 31 31 24.2843 31 16C31 7.71573 24.2843 1 16 1C7.71573 1 1 7.71573 1 16C1 24.2843 7.71573 31 16 31Z" fill="white"/>
    <g clip-path="url(#clip0_301_11)">
        <path d="M16 4.75C13.775 4.75 11.5999 5.4098 9.74984 6.64597C7.89979 7.88213 6.45785 9.63914 5.60636 11.6948C4.75487 13.7505 4.53209 16.0125 4.96617 18.1948C5.40025 20.3771 6.47171 22.3816 8.04505 23.955C9.61839 25.5283 11.623 26.5998 13.8052 27.0338C15.9875 27.4679 18.2495 27.2451 20.3052 26.3936C22.3609 25.5422 24.1179 24.1002 25.354 22.2502C26.5902 20.4001 27.25 18.225 27.25 16C27.2464 13.0174 26.06 10.158 23.951 8.04899C21.842 5.93998 18.9826 4.75357 16 4.75ZM15.25 10C15.25 9.80109 15.329 9.61032 15.4697 9.46967C15.6103 9.32902 15.8011 9.25 16 9.25C16.1989 9.25 16.3897 9.32902 16.5303 9.46967C16.671 9.61032 16.75 9.80109 16.75 10V15.25C16.75 15.4489 16.671 15.6397 16.5303 15.7803C16.3897 15.921 16.1989 16 16 16C15.8011 16 15.6103 15.921 15.4697 15.7803C15.329 15.6397 15.25 15.4489 15.25 15.25V10ZM16 22.75C14.2106 22.7472 12.4954 22.0352 11.2301 20.7699C9.96483 19.5046 9.25278 17.7894 9.25 16C9.24672 14.9878 9.47316 13.9881 9.91227 13.0761C10.3514 12.1641 10.9917 11.3636 11.785 10.735C11.8605 10.6637 11.95 10.6089 12.0479 10.574C12.1457 10.5391 12.2497 10.5249 12.3533 10.5323C12.4569 10.5397 12.5578 10.5685 12.6496 10.617C12.7415 10.6654 12.8223 10.7324 12.8869 10.8137C12.9516 10.895 12.9986 10.9889 13.0251 11.0893C13.0515 11.1897 13.0568 11.2945 13.0407 11.3971C13.0245 11.4997 12.9872 11.5978 12.9312 11.6853C12.8751 11.7727 12.8015 11.8475 12.715 11.905C11.8669 12.5853 11.2509 13.5122 10.9521 14.5577C10.6533 15.6031 10.6865 16.7155 11.0471 17.7413C11.4077 18.7671 12.0778 19.6556 12.965 20.2841C13.8522 20.9127 14.9127 21.2503 16 21.2503C17.0873 21.2503 18.1478 20.9127 19.035 20.2841C19.9222 19.6556 20.5923 18.7671 20.9529 17.7413C21.3135 16.7155 21.3467 15.6031 21.0479 14.5577C20.7491 13.5122 20.1332 12.5853 19.285 11.905C19.1484 11.776 19.0651 11.6005 19.0517 11.413C19.0383 11.2256 19.0958 11.04 19.2127 10.8929C19.3296 10.7458 19.4975 10.648 19.6831 10.6187C19.8687 10.5895 20.0585 10.631 20.215 10.735C21.0083 11.3636 21.6486 12.1641 22.0877 13.0761C22.5268 13.9881 22.7533 14.9878 22.75 16C22.7472 17.7894 22.0352 19.5046 20.7699 20.7699C19.5046 22.0352 17.7894 22.7472 16 22.75Z" fill="#F06979"/>
    </g>
    <path d="M16 1C13.0333 1 10.1332 1.87973 7.66645 3.52795C5.19971 5.17618 3.27713 7.51885 2.14181 10.2597C1.0065 13.0006 0.709449 16.0166 1.28823 18.9263C1.86701 21.8361 3.29562 24.5088 5.3934 26.6066C7.49119 28.7044 10.1639 30.133 13.0736 30.7118C15.9834 31.2905 18.9994 30.9935 21.7402 29.8582C24.4811 28.7229 26.8238 26.8003 28.472 24.3335C30.1203 21.8668 31 18.9667 31 16C30.9955 12.0231 29.4137 8.21042 26.6016 5.39835C23.7896 2.58627 19.9769 1.00448 16 1ZM16 30.0322C13.2247 30.0322 10.5117 29.2093 8.2041 27.6674C5.89651 26.1255 4.09796 23.934 3.03589 21.3699C1.97382 18.8058 1.69594 15.9844 2.23737 13.2624C2.77881 10.5404 4.11525 8.04014 6.0777 6.07769C8.04014 4.11525 10.5405 2.7788 13.2624 2.23737C15.9844 1.69593 18.8059 1.97382 21.3699 3.03588C23.934 4.09795 26.1255 5.8965 27.6674 8.20409C29.2093 10.5117 30.0322 13.2247 30.0322 16C30.028 19.7203 28.5483 23.287 25.9176 25.9176C23.287 28.5483 19.7203 30.028 16 30.0322Z" fill="#404040"/>
    <defs>
        <clipPath id="clip0_301_11">
            <rect width="24" height="24" fill="white" transform="translate(4 4)"/>
        </clipPath>
    </defs>
</svg>
