<svg width="24" height="24" viewBox="0 0 24 24" fill="none" xmlns="http://www.w3.org/2000/svg">
    <path d="M18 10.5V9.5625C18 9.43938 17.9758 9.31745 17.9287 9.20369C17.8816 9.08993 17.8126 8.98657 17.7255 8.89951C17.6384 8.81244 17.5351 8.74339 17.4213 8.69629C17.3076 8.64919 17.1856 8.62496 17.0625 8.625H1.6875C1.56438 8.62496 1.44245 8.64919 1.32869 8.69629C1.21493 8.74339 1.11157 8.81244 1.02451 8.89951C0.937443 8.98657 0.868388 9.08993 0.821288 9.20369C0.774187 9.31745 0.749963 9.43938 0.75 9.5625V10.5H18Z" fill="#FF808D"/>
    <path d="M1.6875 19.875H17.0625C17.1856 19.875 17.3076 19.8508 17.4213 19.8037C17.5351 19.7566 17.6384 19.6876 17.7255 19.6005C17.8126 19.5134 17.8816 19.4101 17.9287 19.2963C17.9758 19.1825 18 19.0606 18 18.9375V12.75H0.75V18.9375C0.749963 19.0606 0.774187 19.1825 0.821288 19.2963C0.868388 19.4101 0.937443 19.5134 1.02451 19.6005C1.11157 19.6876 1.21493 19.7566 1.32869 19.8037C1.44245 19.8508 1.56438 19.875 1.6875 19.875ZM2.25 16.125H6.75V18.375H2.25V16.125Z" fill="#FF808D"/>
    <path d="M22.3125 3.75H6.9375C6.58952 3.75038 6.25591 3.88879 6.00985 4.13485C5.76379 4.38091 5.62538 4.71452 5.625 5.0625V8.25H1.6875C1.33952 8.25038 1.00591 8.38879 0.759847 8.63485C0.513789 8.88091 0.375385 9.21452 0.375 9.5625V18.9375C0.375385 19.2855 0.513789 19.6191 0.759847 19.8652C1.00591 20.1112 1.33952 20.2496 1.6875 20.25H17.0625C17.4105 20.2496 17.7441 20.1112 17.9902 19.8652C18.2362 19.6191 18.3746 19.2855 18.375 18.9375V15.75H22.3125C22.6605 15.7496 22.9941 15.6112 23.2402 15.3652C23.4862 15.1191 23.6246 14.7855 23.625 14.4375V5.0625C23.6246 4.71452 23.4862 4.38091 23.2402 4.13485C22.9941 3.88879 22.6605 3.75038 22.3125 3.75ZM17.625 18.9375C17.6249 19.0866 17.5656 19.2296 17.4601 19.3351C17.3546 19.4406 17.2116 19.4999 17.0625 19.5H1.6875C1.53835 19.4999 1.39535 19.4406 1.28989 19.3351C1.18443 19.2296 1.12512 19.0866 1.125 18.9375V13.125H17.625V18.9375ZM17.625 12.375H1.125V10.875H17.625V12.375ZM17.625 10.125H1.125V9.5625C1.12512 9.41335 1.18443 9.27035 1.28989 9.16489C1.39535 9.05943 1.53835 9.00012 1.6875 9H17.0625C17.2116 9.00012 17.3546 9.05943 17.4601 9.16489C17.5656 9.27035 17.6249 9.41335 17.625 9.5625V10.125ZM22.875 14.4375C22.8749 14.5866 22.8156 14.7296 22.7101 14.8351C22.6046 14.9406 22.4616 14.9999 22.3125 15H18.375V9.5625C18.3746 9.21452 18.2362 8.88091 17.9902 8.63485C17.7441 8.38879 17.4105 8.25038 17.0625 8.25H6.375V5.0625C6.37512 4.91335 6.43443 4.77035 6.53989 4.66489C6.64535 4.55943 6.78835 4.50012 6.9375 4.5H22.3125C22.4616 4.50012 22.6046 4.55943 22.7101 4.66489C22.8156 4.77035 22.8749 4.91335 22.875 5.0625V14.4375Z" fill="#404040"/>
    <path d="M6.75 15.75H2.25C2.15054 15.75 2.05516 15.7895 1.98484 15.8598C1.91451 15.9302 1.875 16.0255 1.875 16.125V18.375C1.875 18.4745 1.91451 18.5698 1.98484 18.6402C2.05516 18.7105 2.15054 18.75 2.25 18.75H6.75C6.84946 18.75 6.94484 18.7105 7.01517 18.6402C7.08549 18.5698 7.125 18.4745 7.125 18.375V16.125C7.125 16.0255 7.08549 15.9302 7.01517 15.8598C6.94484 15.7895 6.84946 15.75 6.75 15.75ZM6.375 18H2.625V16.5H6.375V18Z" fill="#404040"/>
</svg>
