<svg width="24" height="24" viewBox="0 0 24 24" fill="none" xmlns="http://www.w3.org/2000/svg">
    <path d="M16.5 7.5C16.5 9.98526 14.4853 12 12 12C9.51474 12 7.5 9.98526 7.5 7.5C7.5 5.01474 9.51474 3 12 3C14.4853 3 16.5 5.01474 16.5 7.5Z" fill="#FF808D"/>
    <path d="M12 12C14.4853 12 16.5 9.98525 16.5 7.5C16.5 5.01475 14.4853 3 12 3C9.51475 3 7.5 5.01475 7.5 7.5C7.50278 9.98408 9.51592 11.9972 12 12ZM12 3.6C14.1539 3.6 15.9 5.34609 15.9 7.5C15.9 9.65391 14.1539 11.4 12 11.4C9.84609 11.4 8.1 9.65391 8.1 7.5C8.10249 5.34712 9.84712 3.60249 12 3.6Z" fill="#404040"/>
    <path d="M11.3333 14H12.6667C17.8213 14 22 18.0295 22 23H2C2 18.0295 6.17871 14 11.3333 14Z" fill="#FF808D"/>
    <path d="M12.6452 14H11.3548C6.19087 14.0056 2.00599 17.8975 2 22.7C2 22.8657 2.14444 23 2.32258 23H21.6774C21.8556 23 22 22.8657 22 22.7C21.994 17.8975 17.8091 14.0056 12.6452 14ZM2.6513 22.4C2.82992 18.0484 6.67222 14.6048 11.3548 14.6H12.6452C17.3278 14.6048 21.1701 18.0484 21.3487 22.4H2.6513Z" fill="#404040"/>
</svg>