<svg width="33" height="32" viewBox="0 0 33 32" fill="none" xmlns="http://www.w3.org/2000/svg">
    <path d="M5.86436 31.7173C5.80634 31.7174 5.74988 31.6985 5.70355 31.6636C5.65721 31.6287 5.62353 31.5796 5.6076 31.5238C5.59168 31.468 5.59439 31.4086 5.61531 31.3545C5.63624 31.3004 5.67424 31.2545 5.72356 31.224L15.2702 25.304L4.57796 31.4773C4.51728 31.5137 4.44464 31.5244 4.37603 31.5072C4.30741 31.49 4.24844 31.4463 4.21209 31.3856C4.17574 31.3249 4.16498 31.2523 4.18218 31.1837C4.19939 31.115 4.24314 31.0561 4.30382 31.0197L16.0734 23.6928L3.72889 30.8192C3.66839 30.852 3.59754 30.8601 3.53118 30.8419C3.46481 30.8237 3.40805 30.7805 3.37278 30.7214C3.33752 30.6623 3.32646 30.5919 3.34194 30.5248C3.35742 30.4577 3.39822 30.3993 3.45582 30.3616L13.0366 24.4752L3.39342 30.0427C3.33288 30.075 3.26219 30.0828 3.19606 30.0643C3.12994 30.0459 3.07348 30.0026 3.03843 29.9436C3.00338 29.8846 2.99245 29.8143 3.00791 29.7474C3.02337 29.6805 3.06403 29.6222 3.12142 29.5845L9.76196 25.5461L3.31609 29.2661C3.25555 29.2985 3.18485 29.3062 3.11873 29.2878C3.05261 29.2693 2.99614 29.2261 2.9611 29.1671C2.92605 29.108 2.91512 29.0378 2.93058 28.9709C2.94604 28.904 2.9867 28.8456 3.04409 28.808L12.2628 23.1595L3.31609 28.3243C3.25543 28.3572 3.18434 28.3654 3.11778 28.3471C3.05122 28.3287 2.99438 28.2852 2.95921 28.2258C2.92404 28.1664 2.91329 28.0956 2.92922 28.0285C2.94515 27.9613 2.98652 27.9029 3.04462 27.8656L8.46009 24.5819L3.31609 27.5515C3.25565 27.5833 3.18529 27.5907 3.11953 27.5722C3.05376 27.5537 2.99761 27.5107 2.96265 27.452C2.92769 27.3933 2.9166 27.3234 2.93165 27.2568C2.94671 27.1901 2.98676 27.1318 3.04356 27.0939L13.6622 20.5547L3.31609 26.5275C3.25555 26.5598 3.18485 26.5676 3.11873 26.5491C3.05261 26.5307 2.99614 26.4874 2.9611 26.4284C2.92605 26.3694 2.91512 26.2991 2.93058 26.2322C2.94604 26.1653 2.9867 26.107 3.04409 26.0693L12.1268 20.5067L3.31609 25.5931C3.25543 25.626 3.18434 25.6342 3.11778 25.6159C3.05122 25.5975 2.99438 25.554 2.95921 25.4946C2.92404 25.4352 2.91329 25.3644 2.92922 25.2973C2.94515 25.2301 2.98652 25.1717 3.04462 25.1344L7.67342 22.3323L3.31609 24.848C3.25559 24.8808 3.18474 24.8889 3.11838 24.8707C3.05201 24.8525 2.99525 24.8093 2.95998 24.7502C2.92472 24.6911 2.91366 24.6207 2.92914 24.5536C2.94462 24.4865 2.98542 24.4281 3.04302 24.3904L14.7118 17.1728L3.31609 23.752C3.25561 23.7835 3.18537 23.7906 3.11981 23.7719C3.05425 23.7531 2.99834 23.71 2.96359 23.6514C2.92883 23.5927 2.91786 23.523 2.93293 23.4565C2.94801 23.39 2.98797 23.3318 3.04462 23.2939L10.2068 18.9328L3.31609 22.9099C3.25547 22.9434 3.18419 22.952 3.11734 22.9339C3.05048 22.9158 2.9933 22.8723 2.95788 22.8128C2.92247 22.7533 2.91161 22.6823 2.9276 22.6149C2.94359 22.5475 2.98518 22.489 3.04356 22.4517L12.3769 16.7307L3.31609 21.9621C3.25543 21.9951 3.18434 22.0033 3.11778 21.9849C3.05122 21.9666 2.99438 21.9231 2.95921 21.8637C2.92404 21.8043 2.91329 21.7335 2.92922 21.6663C2.94515 21.5991 2.98652 21.5408 3.04462 21.5035L10.1326 17.1877L3.31609 21.1227C3.2558 21.1545 3.18561 21.162 3.11996 21.1436C3.0543 21.1253 2.99816 21.0825 2.96307 21.0241C2.92798 20.9656 2.9166 20.896 2.93127 20.8294C2.94594 20.7628 2.98555 20.7044 3.04196 20.6661L15.8068 12.6896L3.31609 19.9008C3.25555 19.9331 3.18485 19.9409 3.11873 19.9225C3.05261 19.904 2.99614 19.8608 2.9611 19.8017C2.92605 19.7427 2.91512 19.6724 2.93058 19.6056C2.94604 19.5387 2.9867 19.4803 3.04409 19.4427L8.54649 16.0859L3.31609 19.1056C3.25563 19.1389 3.18461 19.1474 3.11797 19.1295C3.05133 19.1115 2.99426 19.0684 2.95875 19.0092C2.92325 18.95 2.91208 18.8793 2.9276 18.8121C2.94312 18.7448 2.98411 18.6862 3.04196 18.6485L12.3556 12.8464L3.31609 18.0651C3.25589 18.0965 3.18598 18.1037 3.12062 18.0854C3.05525 18.067 2.99935 18.0244 2.96432 17.9662C2.92928 17.9081 2.91776 17.8387 2.93208 17.7724C2.94641 17.706 2.98552 17.6476 3.04142 17.6091L12.1886 11.8587L3.31609 16.9813C3.25555 17.0162 3.18371 17.026 3.11605 17.0085C3.04839 16.991 2.99031 16.9476 2.95431 16.8877C2.91832 16.8278 2.90727 16.7561 2.92356 16.6882C2.93986 16.6202 2.98218 16.5613 3.04142 16.5243L10.3556 11.9376L3.31556 16.0016C3.25521 16.037 3.18339 16.0472 3.11556 16.0301C3.04774 16.013 2.98934 15.97 2.95296 15.9102C2.91659 15.8505 2.90514 15.7788 2.92109 15.7107C2.93704 15.6426 2.9791 15.5835 3.03822 15.5461L11.4462 10.1509L3.31609 14.8448C3.2558 14.8766 3.18561 14.8841 3.11996 14.8658C3.0543 14.8474 2.99816 14.8046 2.96307 14.7462C2.92798 14.6878 2.9166 14.6181 2.93127 14.5515C2.94594 14.485 2.98555 14.4265 3.04196 14.3883L6.83662 12.0165L3.31662 14.0491C3.2565 14.0827 3.18571 14.0917 3.11908 14.0743C3.05246 14.0568 2.99515 14.0143 2.95917 13.9556C2.92319 13.8969 2.91133 13.8265 2.92606 13.7592C2.9408 13.6919 2.98099 13.633 3.03822 13.5947L9.80676 9.18506L3.31609 12.9323C3.25625 12.9658 3.18578 12.975 3.11934 12.9579C3.05289 12.9409 2.99558 12.8988 2.95932 12.8406C2.92306 12.7824 2.91064 12.7124 2.92464 12.6452C2.93864 12.5781 2.97798 12.5189 3.03449 12.48L9.63076 8.05973L3.31609 11.7056C3.25621 11.7387 3.1859 11.7474 3.11973 11.7301C3.05355 11.7128 2.99655 11.6707 2.96053 11.6126C2.9245 11.5544 2.9122 11.4847 2.92616 11.4177C2.94013 11.3507 2.97929 11.2917 3.03556 11.2528L7.62222 8.2128L3.31609 10.6949C3.25616 10.729 3.18534 10.7386 3.11852 10.7216C3.05169 10.7046 2.99404 10.6624 2.95768 10.6038C2.92131 10.5452 2.90905 10.4748 2.92348 10.4074C2.9379 10.3399 2.97788 10.2807 3.03502 10.2421L6.43662 7.976L3.31609 9.7776C3.25643 9.8117 3.18591 9.82145 3.11923 9.80483C3.05255 9.7882 2.99487 9.74647 2.95821 9.68835C2.92155 9.63023 2.90874 9.5602 2.92245 9.49286C2.93617 9.42552 2.97535 9.36608 3.03183 9.32693L6.34862 7.04373L3.31609 8.79413C3.25656 8.82692 3.18676 8.83574 3.12094 8.81879C3.05512 8.80184 2.99826 8.7604 2.96197 8.70294C2.92568 8.64547 2.9127 8.57632 2.92568 8.50961C2.93867 8.44289 2.97663 8.38366 3.03183 8.344L5.03982 6.96373L3.31609 7.9584C3.25746 7.99157 3.18845 8.00133 3.12292 7.9857C3.05739 7.97008 3.0002 7.93023 2.96285 7.87417C2.92549 7.8181 2.91074 7.74998 2.92156 7.68349C2.93238 7.617 2.96796 7.55706 3.02116 7.51573L5.65529 5.50506L3.31609 6.85493C3.25791 6.88797 3.18943 6.89793 3.12424 6.88283C3.05906 6.86773 3.00193 6.82868 2.9642 6.77342C2.92647 6.71816 2.91089 6.65074 2.92055 6.58453C2.93021 6.51832 2.96441 6.45817 3.01636 6.416L4.71876 5.05173L3.31609 5.86133C3.2576 5.89408 3.18893 5.90361 3.12373 5.888C3.05854 5.8724 3.00161 5.83282 2.96429 5.77714C2.92697 5.72145 2.91198 5.65376 2.92232 5.58753C2.93267 5.52129 2.96757 5.46139 3.02009 5.41973L3.32409 5.184L3.31609 5.18826C3.2613 5.21964 3.19715 5.23055 3.13507 5.21907C3.07298 5.20758 3.01699 5.17444 2.97705 5.12554C2.93711 5.07664 2.91582 5.01515 2.91696 4.95202C2.9181 4.8889 2.94161 4.82822 2.98329 4.7808L3.76462 3.90027L3.31609 4.15947C3.27189 4.18494 3.2213 4.19721 3.17034 4.1948C3.11937 4.19239 3.07017 4.17541 3.02857 4.14588C2.98696 4.11635 2.9547 4.0755 2.93562 4.02818C2.91653 3.98087 2.91142 3.92907 2.92089 3.87893L3.07182 3.07893C3.02202 3.05609 2.98062 3.01823 2.95342 2.97067C2.91819 2.90953 2.90862 2.83692 2.92681 2.76875C2.94501 2.70057 2.98948 2.64238 3.05049 2.60693L3.28249 2.47307C3.32665 2.44764 3.37718 2.4354 3.42808 2.43779C3.47898 2.44019 3.52813 2.45712 3.56971 2.48658C3.61129 2.51604 3.64356 2.55679 3.66269 2.60402C3.68183 2.65125 3.68704 2.70297 3.67769 2.75307L3.55342 3.40693L4.92356 2.61547C4.97841 2.58376 5.04276 2.57261 5.10508 2.58403C5.1674 2.59544 5.22362 2.62868 5.26367 2.67777C5.30371 2.72687 5.32497 2.78862 5.32363 2.85197C5.32229 2.91531 5.29844 2.97611 5.25636 3.02347L4.47449 3.904L6.47342 2.7504C6.53193 2.71701 6.60092 2.707 6.66651 2.72238C6.7321 2.73777 6.78943 2.77741 6.82699 2.83334C6.86455 2.88927 6.87954 2.95734 6.86896 3.02388C6.85838 3.09041 6.82301 3.15048 6.76996 3.192L6.46596 3.42773L7.48676 2.84107C7.54494 2.80803 7.61342 2.79807 7.6786 2.81317C7.74379 2.82827 7.80091 2.86732 7.83865 2.92258C7.87638 2.97783 7.89196 3.04525 7.8823 3.11146C7.87264 3.17767 7.83844 3.23783 7.78649 3.28L6.08302 4.64213L8.98009 2.96853C9.03874 2.93465 9.1081 2.92436 9.17406 2.93975C9.24003 2.95514 9.29767 2.99506 9.33527 3.0514C9.37288 3.10774 9.38763 3.17628 9.37654 3.2431C9.36545 3.30993 9.32935 3.37003 9.27556 3.4112L6.64196 5.42186L10.642 3.11307C10.7016 3.07896 10.7721 3.06921 10.8388 3.08583C10.9055 3.10246 10.9632 3.14419 10.9998 3.20231C11.0365 3.26043 11.0493 3.33046 11.0356 3.3978C11.0219 3.46514 10.9827 3.52458 10.9262 3.56373L8.91716 4.94453L11.9012 3.2224C11.9608 3.1883 12.0313 3.17854 12.098 3.19517C12.1647 3.21179 12.2224 3.25352 12.259 3.31164C12.2957 3.36977 12.3085 3.4398 12.2948 3.50713C12.2811 3.57447 12.2419 3.63391 12.1854 3.67307L8.87342 5.95466L13.3833 3.35093C13.4433 3.31529 13.5149 3.30459 13.5827 3.32113C13.6505 3.33766 13.7091 3.38011 13.7459 3.43937C13.7828 3.49863 13.7949 3.56997 13.7798 3.63809C13.7646 3.70621 13.7234 3.76568 13.6649 3.80373L10.2601 6.07146L14.7614 3.47147C14.8214 3.43737 14.8922 3.42782 14.959 3.44482C15.0258 3.46181 15.0835 3.50404 15.1198 3.56262C15.1562 3.62121 15.1685 3.6916 15.154 3.75903C15.1396 3.82646 15.0996 3.88568 15.0425 3.92427L10.4601 6.96426L16.283 3.60427C16.3427 3.57198 16.4125 3.56368 16.4781 3.58105C16.5437 3.59843 16.6002 3.64017 16.6362 3.69777C16.6721 3.75537 16.6847 3.82449 16.6714 3.89106C16.6581 3.95762 16.6199 4.01661 16.5646 4.056L9.96729 8.47946L18.1273 3.76693C18.1873 3.73474 18.2573 3.7267 18.323 3.74446C18.3887 3.76223 18.4451 3.80444 18.4807 3.86246C18.5163 3.92048 18.5284 3.98992 18.5144 4.05654C18.5005 4.12316 18.4616 4.18193 18.4057 4.2208L11.6388 8.62826L19.8105 3.9104C19.8708 3.87771 19.9415 3.86954 20.0077 3.88761C20.0739 3.90568 20.1306 3.94858 20.166 4.0074C20.2014 4.06621 20.2127 4.13641 20.1977 4.20338C20.1826 4.27034 20.1423 4.32893 20.0852 4.36693L16.291 6.73813L21.0084 4.0144C21.0687 3.97755 21.1413 3.96621 21.2101 3.98286C21.2788 3.99951 21.3382 4.0428 21.375 4.1032C21.4119 4.1636 21.4232 4.23616 21.4066 4.30492C21.3899 4.37369 21.3466 4.43302 21.2862 4.46987L12.8772 9.86613L22.7508 4.1664C22.8111 4.13371 22.8817 4.12554 22.948 4.14361C23.0142 4.16168 23.0709 4.20458 23.1063 4.2634C23.1416 4.32221 23.153 4.39241 23.1379 4.45938C23.1229 4.52634 23.0826 4.58493 23.0254 4.62293L15.7118 9.2096L24.2243 4.2944C24.2847 4.26123 24.3555 4.25267 24.4219 4.2705C24.4884 4.28834 24.5454 4.33118 24.581 4.39008C24.6167 4.44898 24.6281 4.51937 24.613 4.58652C24.5979 4.65368 24.5575 4.7124 24.5001 4.7504L15.3497 10.5019L25.8563 4.43573C25.917 4.39931 25.9897 4.38848 26.0584 4.40564C26.127 4.42279 26.1861 4.46652 26.2225 4.5272C26.2589 4.58788 26.2697 4.66055 26.2526 4.72921C26.2354 4.79787 26.1917 4.85691 26.131 4.89333L16.8201 10.6933L27.4222 4.57227C27.483 4.53613 27.5557 4.52563 27.6243 4.54308C27.6929 4.56053 27.7517 4.60451 27.7878 4.66533C27.824 4.72615 27.8345 4.79884 27.817 4.86741C27.7995 4.93597 27.7556 4.99479 27.6947 5.03093L22.1918 8.38773L28.779 4.58613C28.8394 4.55344 28.91 4.54528 28.9762 4.56334C29.0424 4.58141 29.0991 4.62432 29.1345 4.68313C29.1699 4.74195 29.1813 4.81214 29.1662 4.87911C29.1511 4.94608 29.1108 5.00466 29.0537 5.04267L16.2868 13.0171L29.6841 5.28373C29.7447 5.25074 29.8158 5.24257 29.8824 5.26093C29.9489 5.27929 30.0058 5.32275 30.041 5.38217C30.0761 5.44159 30.0869 5.51234 30.071 5.57952C30.055 5.64671 30.0137 5.70509 29.9555 5.7424L22.8675 10.0581L29.6841 6.12266C29.7449 6.08652 29.8176 6.07603 29.8862 6.09348C29.9547 6.11093 30.0135 6.15491 30.0497 6.21573C30.0858 6.27655 30.0963 6.34924 30.0789 6.41781C30.0614 6.48637 30.0174 6.54519 29.9566 6.58133L20.6228 12.3019L29.6841 7.07093C29.7446 7.03946 29.8148 7.03235 29.8804 7.05106C29.9459 7.06978 30.0018 7.11289 30.0366 7.17155C30.0713 7.23021 30.0823 7.29995 30.0672 7.36644C30.0522 7.43293 30.0122 7.49113 29.9555 7.52906L22.7934 11.8928L29.6841 7.91306C29.7444 7.88164 29.8145 7.87447 29.8799 7.89301C29.9454 7.91155 30.0013 7.95441 30.0362 8.01281C30.0711 8.07121 30.0823 8.14074 30.0676 8.20717C30.0529 8.27359 30.0134 8.33189 29.9571 8.37013L18.2884 15.5883L29.6841 9.00906C29.7447 8.97608 29.8158 8.9679 29.8824 8.98626C29.9489 9.00462 30.0058 9.04809 30.041 9.10751C30.0761 9.16693 30.0869 9.23767 30.071 9.30485C30.055 9.37204 30.0137 9.43043 29.9555 9.46773L25.3262 12.2699L29.6841 9.75413C29.7446 9.72177 29.8153 9.71401 29.8814 9.73246C29.9476 9.75091 30.004 9.79415 30.0391 9.85318C30.0741 9.91221 30.0851 9.98248 30.0696 10.0494C30.0541 10.1163 30.0135 10.1746 29.9561 10.2123L20.8681 15.7787L29.6846 10.6885C29.7451 10.6567 29.8154 10.6492 29.8812 10.6677C29.9469 10.6862 30.0031 10.7293 30.0381 10.788C30.073 10.8467 30.0841 10.9166 30.0691 10.9832C30.054 11.0498 30.0139 11.1082 29.9571 11.1461L19.3385 17.6853L29.6851 11.712C29.7457 11.6801 29.8163 11.6726 29.8822 11.6913C29.9481 11.71 30.0043 11.7533 30.0391 11.8123C30.074 11.8712 30.0848 11.9413 30.0693 12.0081C30.0538 12.0748 30.0133 12.133 29.9561 12.1707L24.5406 15.4549L29.6846 12.4853C29.7454 12.4507 29.8173 12.4413 29.8849 12.4592C29.9525 12.4771 30.0103 12.5209 30.046 12.581C30.0817 12.6411 30.0923 12.7129 30.0756 12.7808C30.0589 12.8487 30.0161 12.9073 29.9566 12.944L20.738 18.592L29.6846 13.4272C29.7451 13.3957 29.8153 13.3886 29.8809 13.4073C29.9465 13.426 30.0024 13.4692 30.0371 13.5278C30.0719 13.5865 30.0828 13.6562 30.0678 13.7227C30.0527 13.7892 30.0127 13.8474 29.9561 13.8853L23.3214 17.9195L29.6846 14.2459C29.7451 14.214 29.8154 14.2066 29.8812 14.2251C29.9469 14.2436 30.0031 14.2866 30.0381 14.3453C30.073 14.404 30.0841 14.4739 30.0691 14.5405C30.054 14.6072 30.0139 14.6655 29.9571 14.7035L20.3748 20.5931L29.6846 15.2181C29.7147 15.2001 29.748 15.1882 29.7826 15.1831C29.8173 15.178 29.8526 15.1797 29.8865 15.1882C29.9205 15.1967 29.9525 15.2119 29.9806 15.2327C30.0087 15.2536 30.0325 15.2798 30.0505 15.3099C30.0685 15.3399 30.0804 15.3732 30.0855 15.4079C30.0906 15.4425 30.0889 15.4778 30.0804 15.5118C30.0719 15.5458 30.0567 15.5777 30.0359 15.6059C30.015 15.634 29.9888 15.6577 29.9587 15.6757L18.1881 23.0037L29.6846 16.3664C29.7452 16.3323 29.8167 16.3231 29.8839 16.341C29.9511 16.3588 30.0087 16.4022 30.0444 16.4619C30.0801 16.5216 30.091 16.5928 30.0749 16.6605C30.0588 16.7281 30.017 16.7868 29.9582 16.824L20.4148 22.7419L29.6846 17.3899C29.745 17.356 29.8163 17.347 29.8832 17.3647C29.9502 17.3824 30.0076 17.4255 30.0433 17.4848C30.0791 17.5441 30.0904 17.615 30.0748 17.6825C30.0592 17.75 30.018 17.8088 29.9598 17.8464L19.4238 24.5003L29.6846 18.5765C29.745 18.5438 29.8156 18.5357 29.8818 18.5537C29.948 18.5718 30.0047 18.6147 30.0401 18.6735C30.0755 18.7323 30.0869 18.8025 30.0718 18.8695C30.0567 18.9365 30.0164 18.9951 29.9593 19.0331L22.5172 23.6891L29.6846 19.5509C29.7452 19.516 29.817 19.5063 29.8847 19.5238C29.9523 19.5413 30.0104 19.5847 30.0464 19.6446C30.0824 19.7045 30.0934 19.7761 30.0771 19.8441C30.0609 19.9121 30.0185 19.9709 29.9593 20.008L23.7897 23.8752L29.6846 20.472C29.7446 20.4402 29.8145 20.4325 29.88 20.4505C29.9455 20.4685 30.0017 20.5107 30.0371 20.5687C30.0724 20.6267 30.0844 20.696 30.0704 20.7624C30.0565 20.8289 30.0177 20.8875 29.9619 20.9264L22.5107 25.7264L29.6846 21.5851C29.7448 21.552 29.8154 21.5434 29.8817 21.561C29.9481 21.5787 30.0051 21.6213 30.0408 21.6799C30.0766 21.7385 30.0883 21.8087 30.0736 21.8758C30.0589 21.9428 30.0189 22.0017 29.9619 22.04L24.4782 25.56L29.6846 22.5541C29.7448 22.521 29.8154 22.5124 29.8817 22.5301C29.9481 22.5478 30.0051 22.5903 30.0408 22.649C30.0766 22.7076 30.0883 22.7778 30.0736 22.8448C30.0589 22.9119 30.0189 22.9707 29.9619 23.0091L25.7486 25.7211L29.6825 23.4501C29.7426 23.4183 29.8127 23.4108 29.8782 23.4289C29.9438 23.4471 29.9999 23.4896 30.0352 23.5478C30.0704 23.606 30.0821 23.6755 30.0678 23.742C30.0535 23.8085 30.0143 23.867 29.9582 23.9056L28.5369 24.8075L29.6825 24.1461C29.7427 24.1111 29.8142 24.101 29.8817 24.1181C29.9492 24.1351 30.0074 24.1778 30.0438 24.2371C30.0802 24.2965 30.092 24.3677 30.0766 24.4356C30.0612 24.5035 30.0199 24.5627 29.9614 24.6005L27.2307 26.3845L29.6841 24.9691C29.7441 24.9355 29.8147 24.9264 29.8812 24.9437C29.9477 24.9609 30.005 25.0032 30.0411 25.0617C30.0772 25.1201 30.0894 25.1903 30.075 25.2575C30.0607 25.3247 30.0209 25.3838 29.9641 25.4224L27.8526 26.8181L29.6846 25.7595C29.7441 25.7262 29.8141 25.717 29.8801 25.7337C29.9462 25.7504 30.0033 25.7918 30.0398 25.8494C30.0764 25.9069 30.0895 25.9762 30.0765 26.0431C30.0635 26.11 30.0254 26.1694 29.9699 26.2091L27.3923 27.9995L29.6857 26.6768C29.7453 26.6441 29.8153 26.6354 29.8811 26.6526C29.9469 26.6697 30.0037 26.7114 30.0399 26.7691C30.076 26.8267 30.0887 26.896 30.0754 26.9627C30.0621 27.0294 30.0238 27.0886 29.9683 27.128L29.387 27.5227L29.6857 27.3499C29.7444 27.3169 29.8135 27.3074 29.879 27.3232C29.9444 27.3391 30.0015 27.3791 30.0386 27.4353C30.0758 27.4915 30.0903 27.5597 30.0792 27.6262C30.0682 27.6926 30.0324 27.7525 29.979 27.7936L28.3598 29.0075L29.6846 28.2427C29.7425 28.2102 29.8105 28.2006 29.8751 28.2156C29.9398 28.2306 29.9965 28.2691 30.0342 28.3237C30.072 28.3783 30.088 28.445 30.0792 28.5108C30.0703 28.5766 30.0373 28.6367 29.9865 28.6795L28.8953 29.5712L29.6846 29.1163C29.7414 29.0834 29.8084 29.0726 29.8726 29.086C29.9369 29.0993 29.9939 29.136 30.0329 29.1888C30.072 29.2418 30.0901 29.3075 30.0837 29.373C30.0773 29.4386 30.0469 29.4995 29.9982 29.544L29.5027 29.9963L29.6846 29.8896C29.7346 29.8609 29.7926 29.8492 29.8498 29.8563C29.907 29.8633 29.9604 29.8887 30.002 29.9287C30.0436 29.9686 30.0711 30.021 30.0804 30.0779C30.0897 30.1347 30.0803 30.1931 30.0537 30.2443L29.7614 30.8016C29.8113 30.7987 29.8609 30.8096 29.905 30.833C29.9491 30.8564 29.986 30.8915 30.0115 30.9344C30.0467 30.9956 30.0562 31.0682 30.0379 31.1364C30.0196 31.2046 29.975 31.2628 29.9139 31.2981L29.2553 31.6784C29.2053 31.7071 29.1473 31.7188 29.0901 31.7117C29.0329 31.7047 28.9795 31.6793 28.9379 31.6393C28.8963 31.5994 28.8688 31.547 28.8595 31.4901C28.8502 31.4332 28.8596 31.3748 28.8862 31.3237L29.1529 30.8107L27.6515 31.6795C27.5948 31.7115 27.5282 31.7217 27.4644 31.708C27.4007 31.6943 27.3442 31.6577 27.3055 31.6052C27.2669 31.5526 27.2489 31.4878 27.2549 31.4228C27.2608 31.3579 27.2904 31.2974 27.3379 31.2528L27.8334 30.8L26.3086 31.6795C26.2507 31.7124 26.1825 31.7225 26.1175 31.7077C26.0525 31.6929 25.9954 31.6543 25.9575 31.5995C25.9195 31.5447 25.9035 31.4776 25.9125 31.4116C25.9215 31.3455 25.955 31.2853 26.0062 31.2427L27.0974 30.3515L24.7955 31.6795C24.7369 31.7133 24.6675 31.7236 24.6016 31.7082C24.5356 31.6928 24.478 31.6529 24.4404 31.5966C24.4028 31.5402 24.388 31.4717 24.3991 31.4049C24.4102 31.3381 24.4463 31.278 24.5001 31.2368L26.1187 30.0213L23.2457 31.6795C23.186 31.7122 23.1161 31.7208 23.0503 31.7037C22.9844 31.6865 22.9276 31.6448 22.8915 31.5872C22.8554 31.5295 22.8427 31.4602 22.856 31.3935C22.8693 31.3268 22.9076 31.2677 22.963 31.2283L23.5428 30.8352L22.0798 31.6795C22.0203 31.7127 21.9504 31.7219 21.8843 31.7052C21.8183 31.6885 21.7611 31.6471 21.7246 31.5896C21.6881 31.532 21.675 31.4627 21.688 31.3958C21.701 31.3289 21.7391 31.2695 21.7945 31.2299L24.3721 29.4427L20.4964 31.6795C20.4365 31.7117 20.3666 31.7198 20.301 31.7023C20.2353 31.6847 20.1789 31.6427 20.1431 31.5849C20.1074 31.5271 20.095 31.4578 20.1086 31.3913C20.1223 31.3247 20.1608 31.2658 20.2164 31.2267L22.3289 29.8299L19.1241 31.6795C19.064 31.7136 18.993 31.7231 18.9261 31.7059C18.8591 31.6888 18.8015 31.6463 18.7652 31.5874C18.729 31.5286 18.717 31.458 18.7318 31.3905C18.7466 31.323 18.7871 31.2639 18.8446 31.2256L21.5737 29.4432L17.699 31.6795C17.6388 31.7121 17.5684 31.7203 17.5023 31.7024C17.4362 31.6845 17.3795 31.6418 17.344 31.5833C17.3084 31.5247 17.2968 31.4548 17.3115 31.3879C17.3262 31.321 17.366 31.2623 17.4228 31.224L18.8409 30.3243L16.4942 31.6795C16.4342 31.7112 16.3643 31.7189 16.2988 31.701C16.2333 31.683 16.1772 31.6407 16.1418 31.5827C16.1064 31.5248 16.0945 31.4555 16.1084 31.389C16.1224 31.3225 16.1612 31.2639 16.2169 31.2251L20.4254 28.5147L14.9412 31.6795C14.881 31.7125 14.8104 31.7211 14.744 31.7035C14.6777 31.6858 14.6207 31.6432 14.585 31.5846C14.5492 31.526 14.5375 31.4558 14.5522 31.3887C14.5668 31.3217 14.6068 31.2628 14.6638 31.2245L20.1476 27.7045L13.2617 31.6795C13.2016 31.7121 13.1313 31.7204 13.0653 31.7026C12.9993 31.6849 12.9426 31.6425 12.907 31.5842C12.8713 31.5259 12.8594 31.4561 12.8737 31.3893C12.888 31.3225 12.9274 31.2637 12.9838 31.2251L20.4361 26.4251L11.3353 31.6795C11.2749 31.7121 11.2043 31.7203 11.1381 31.7022C11.0719 31.6842 11.0152 31.6413 10.9798 31.5825C10.9444 31.5236 10.933 31.4534 10.9481 31.3865C10.9632 31.3195 11.0035 31.2609 11.0606 31.2229L17.2292 27.3595L9.74062 31.6795C9.68027 31.7121 9.60963 31.7203 9.54341 31.7022C9.47719 31.6842 9.42049 31.6413 9.38511 31.5825C9.34972 31.5236 9.33838 31.4534 9.35344 31.3865C9.3685 31.3195 9.4088 31.2609 9.46596 31.2229L16.9097 26.5659L8.05262 31.6795C7.99237 31.7117 7.92206 31.7195 7.85619 31.7014C7.79032 31.6833 7.73392 31.6405 7.69862 31.5821C7.66332 31.5236 7.65181 31.4538 7.66648 31.387C7.68114 31.3203 7.72085 31.2618 7.77742 31.2235L18.3134 24.5701L5.99769 31.6795C5.95736 31.7036 5.91136 31.7167 5.86436 31.7173Z" fill="#E2AF40"/>
    <path d="M8.91706 5.05204C8.86032 5.05202 8.80507 5.03391 8.75933 5.00033C8.7136 4.96675 8.67977 4.91946 8.66275 4.86533C8.64574 4.8112 8.64644 4.75306 8.66474 4.69936C8.68304 4.64565 8.718 4.59919 8.76452 4.56671L9.67119 3.93418L7.79919 5.01418C7.74041 5.04785 7.67102 5.0579 7.60511 5.04227C7.53919 5.02664 7.48169 4.98652 7.44429 4.93004C7.40689 4.87356 7.39238 4.80496 7.40371 4.73817C7.41505 4.67139 7.45138 4.61142 7.50532 4.57044L9.61999 2.98751L6.09999 5.01418C6.0416 5.0478 5.97264 5.05808 5.90698 5.04293C5.84132 5.02779 5.78383 4.98835 5.74607 4.93255C5.7083 4.87674 5.69306 4.80871 5.70341 4.74213C5.71376 4.67555 5.74893 4.61535 5.80186 4.57364L8.25519 2.64618L4.53946 4.79178C4.48159 4.8246 4.41354 4.83461 4.34867 4.81984C4.2838 4.80506 4.2268 4.76657 4.18885 4.71192C4.1509 4.65727 4.13475 4.59042 4.14358 4.52447C4.1524 4.45853 4.18555 4.39826 4.23652 4.35551L6.62426 2.38858L3.69092 4.08191C3.63173 4.11463 3.56231 4.12363 3.49673 4.10709C3.43115 4.09055 3.3743 4.04972 3.33769 3.99284C3.30109 3.93597 3.28746 3.86731 3.29957 3.80077C3.31168 3.73423 3.34863 3.67477 3.40292 3.63444L3.49892 3.56618L3.44079 3.59924C3.38267 3.63211 3.31434 3.64198 3.2493 3.62691C3.18426 3.61183 3.12723 3.5729 3.08951 3.51782C3.05178 3.46273 3.03608 3.3955 3.04553 3.3294C3.05498 3.2633 3.08887 3.20316 3.14052 3.16084L3.93252 2.52404L3.32026 2.87764C3.26588 2.90915 3.20212 2.92043 3.14023 2.9095C3.07834 2.89858 3.0223 2.86615 2.982 2.81793C2.94169 2.76972 2.9197 2.70882 2.91992 2.64597C2.92014 2.58313 2.94255 2.52238 2.98319 2.47444L3.73572 1.58485C3.67447 1.59311 3.61225 1.57983 3.55969 1.54729C3.50714 1.51475 3.46753 1.46496 3.44763 1.40645C3.42772 1.34793 3.42876 1.28431 3.45057 1.22648C3.47238 1.16864 3.5136 1.12018 3.56719 1.08938L4.75546 0.402979C4.80984 0.371478 4.87359 0.360194 4.93548 0.371119C4.99737 0.382043 5.05341 0.414474 5.09372 0.46269C5.13402 0.510906 5.15601 0.571808 5.15579 0.634652C5.15557 0.697497 5.13316 0.758245 5.09252 0.806179L4.37786 1.65418L6.68666 0.320846C6.74475 0.288538 6.81282 0.279093 6.87752 0.294363C6.94221 0.309634 6.99888 0.348518 7.0364 0.403393C7.07391 0.458269 7.08958 0.525179 7.08033 0.591007C7.07108 0.656836 7.03758 0.716836 6.98639 0.759246L6.19226 1.39445L8.05466 0.320846C8.11397 0.287013 8.18399 0.27722 8.25031 0.293486C8.31663 0.309752 8.37418 0.350837 8.4111 0.408274C8.44802 0.465711 8.46151 0.535124 8.44877 0.602207C8.43604 0.669291 8.39806 0.728934 8.34266 0.768846L8.24772 0.836045L9.13999 0.320846C9.19788 0.287447 9.26619 0.277001 9.33141 0.291576C9.39664 0.306151 9.45401 0.344685 9.49217 0.399547C9.53033 0.45441 9.5465 0.521603 9.53748 0.587822C9.52846 0.65404 9.4949 0.714458 9.44345 0.757112L7.05999 2.72084L11.22 0.320846C11.2784 0.287866 11.347 0.278083 11.4123 0.293445C11.4775 0.308807 11.5346 0.348187 11.5721 0.403741C11.6097 0.459296 11.6249 0.526948 11.6148 0.593225C11.6047 0.659501 11.57 0.719538 11.5176 0.761379L9.06426 2.68884L13.1683 0.320846C13.227 0.287169 13.2964 0.277125 13.3623 0.292752C13.4283 0.308379 13.4858 0.348506 13.5232 0.404985C13.5606 0.461464 13.5751 0.530061 13.5637 0.596848C13.5524 0.663635 13.5161 0.723604 13.4621 0.764579L11.3501 2.34751L14.8675 0.320846C14.9269 0.287123 14.997 0.277507 15.0633 0.293984C15.1297 0.310462 15.1871 0.351773 15.2239 0.409393C15.2606 0.467012 15.2738 0.536541 15.2608 0.603628C15.2478 0.670714 15.2095 0.730238 15.1539 0.769912L14.2472 1.40245L16.1192 0.320846C16.1784 0.287373 16.2482 0.277803 16.3143 0.294097C16.3803 0.31039 16.4376 0.351313 16.4745 0.408491C16.5114 0.465668 16.525 0.534775 16.5126 0.601666C16.5002 0.668557 16.4627 0.728173 16.4077 0.768312L14.9048 1.84565L17.5464 0.320846C17.6059 0.288057 17.6757 0.279235 17.7415 0.296184C17.8074 0.313133 17.8642 0.354573 17.9005 0.412038C17.9368 0.469502 17.9498 0.538655 17.9368 0.605368C17.9238 0.67208 17.8858 0.731318 17.8307 0.770979L17.2973 1.13845L18.7123 0.320846C18.7718 0.286685 18.8422 0.276789 18.9088 0.293218C18.9755 0.309647 19.0332 0.351135 19.07 0.409051C19.1068 0.466967 19.1199 0.536851 19.1065 0.604163C19.0931 0.671476 19.0543 0.731034 18.9981 0.770445L18.1619 1.34911L19.9464 0.320846C20.0045 0.287977 20.0728 0.278106 20.1379 0.293183C20.2029 0.30826 20.2599 0.347188 20.2977 0.402274C20.3354 0.45736 20.3511 0.524594 20.3416 0.59069C20.3322 0.656786 20.2983 0.716934 20.2467 0.759246L17.6701 2.83444L22.0264 0.320846C22.085 0.28767 22.154 0.277914 22.2196 0.29354C22.2851 0.309165 22.3423 0.349013 22.3796 0.405076C22.417 0.461139 22.4317 0.529261 22.4209 0.595754C22.4101 0.662246 22.3745 0.72218 22.3213 0.763512L20.0813 2.47338L23.8067 0.320846C23.866 0.287499 23.9359 0.278119 24.0019 0.294627C24.068 0.311136 24.1252 0.352282 24.1619 0.409634C24.1986 0.466985 24.2119 0.536198 24.1992 0.603085C24.1865 0.669972 24.1487 0.729468 24.0936 0.769379L22.9069 1.60565L25.1352 0.320846C25.1941 0.287811 25.2634 0.278387 25.3291 0.294479C25.3947 0.31057 25.4518 0.350978 25.4887 0.407533C25.5257 0.464089 25.5399 0.532576 25.5283 0.59915C25.5167 0.665725 25.4803 0.725423 25.4264 0.766179L23.5459 2.14804L26.7149 0.320846C26.7743 0.288674 26.8436 0.280221 26.909 0.297192C26.9743 0.314164 27.0308 0.355296 27.067 0.412287C27.1033 0.469279 27.1165 0.537885 27.1041 0.60426C27.0917 0.670634 27.0546 0.729835 27.0002 0.769912L26.1352 1.36991L27.4834 0.591779C27.542 0.558152 27.6112 0.54801 27.677 0.563401C27.7427 0.578793 27.8002 0.618571 27.8378 0.674701C27.8754 0.730832 27.8902 0.799132 27.8794 0.865806C27.8686 0.932481 27.8329 0.992561 27.7794 1.03391L25.7885 2.57258L27.5539 1.55391C27.6117 1.52067 27.6798 1.5103 27.7449 1.52485C27.81 1.53939 27.8673 1.57781 27.9055 1.63251C27.9436 1.68721 27.9599 1.75422 27.9511 1.82034C27.9423 1.88645 27.909 1.94686 27.8579 1.98965L26.6333 3.01204L27.557 2.47871C27.6119 2.447 27.6763 2.43586 27.7386 2.44727C27.8009 2.45869 27.8571 2.49192 27.8972 2.54102C27.9372 2.59012 27.9585 2.65187 27.9571 2.71521C27.9558 2.77855 27.9319 2.83935 27.8898 2.88671L27.1405 3.73418L27.5618 3.49098C27.6071 3.46479 27.6591 3.45248 27.7113 3.45559C27.7635 3.4587 27.8136 3.47708 27.8554 3.50845C27.8972 3.53983 27.9289 3.5828 27.9465 3.63204C27.9641 3.68128 27.9669 3.7346 27.9544 3.78538L27.8067 4.38698C27.8593 4.40931 27.9031 4.44828 27.9314 4.49791C27.9666 4.55911 27.9761 4.63177 27.9578 4.69995C27.9395 4.76814 27.895 4.82628 27.8338 4.86164L27.5672 5.01524C27.522 5.0412 27.4702 5.05334 27.4181 5.05016C27.3661 5.04698 27.3161 5.02862 27.2744 4.99736C27.2327 4.96609 27.2011 4.92329 27.1835 4.87424C27.1658 4.82519 27.1629 4.77205 27.1752 4.72138L27.2877 4.26378L25.9843 5.01418C25.9295 5.04555 25.8653 5.05647 25.8032 5.04498C25.7411 5.03349 25.6851 5.00035 25.6452 4.95145C25.6053 4.90255 25.584 4.84106 25.5851 4.77794C25.5863 4.71481 25.6098 4.65413 25.6515 4.60671L26.4013 3.76084L24.2296 5.01418C24.1718 5.04674 24.104 5.05662 24.0394 5.04191C23.9748 5.0272 23.9179 4.98894 23.88 4.9346C23.842 4.88026 23.8257 4.81373 23.8341 4.74798C23.8425 4.68224 23.8751 4.62198 23.9256 4.57898L25.148 3.55764L22.6243 5.01418C22.5658 5.04693 22.4971 5.05645 22.4319 5.04085C22.3667 5.02525 22.3098 4.98566 22.2724 4.92998C22.2351 4.8743 22.2201 4.8066 22.2305 4.74037C22.2408 4.67414 22.2757 4.61423 22.3283 4.57258L24.3192 3.03338L20.8883 5.01418C20.8288 5.04707 20.7591 5.05606 20.6933 5.03932C20.6275 5.02258 20.5706 4.98137 20.5341 4.92409C20.4977 4.86681 20.4844 4.79778 20.4971 4.73107C20.5098 4.66436 20.5474 4.60501 20.6024 4.56511L21.4723 3.96031L19.6467 5.01418C19.5877 5.04655 19.5188 5.05547 19.4536 5.03916C19.3883 5.02285 19.3317 4.98251 19.2949 4.92621C19.2582 4.86992 19.2441 4.80182 19.2554 4.73556C19.2667 4.66929 19.3026 4.60975 19.356 4.56884L21.2355 3.18591L18.0664 5.01418C18.0071 5.04648 17.9379 5.05512 17.8725 5.03836C17.8071 5.02161 17.7506 4.9807 17.7142 4.92388C17.6778 4.86706 17.6643 4.79855 17.6764 4.73217C17.6885 4.6658 17.7253 4.60648 17.7795 4.56618L18.9704 3.72671L16.7389 5.01418C16.6803 5.04672 16.6116 5.05599 16.5465 5.04015C16.4813 5.02431 16.4246 4.98452 16.3874 4.92871C16.3503 4.87289 16.3356 4.80514 16.3462 4.73895C16.3567 4.67276 16.3919 4.61298 16.4445 4.57151L18.6845 2.86484L14.9576 5.01418C14.8995 5.04705 14.8311 5.05692 14.7661 5.04184C14.7011 5.02676 14.644 4.98783 14.6063 4.93275C14.5686 4.87766 14.5529 4.81043 14.5623 4.74433C14.5718 4.67824 14.6057 4.61809 14.6573 4.57578L17.2339 2.49951L12.8776 5.01418C12.8181 5.04742 12.7481 5.05662 12.6821 5.03991C12.616 5.02319 12.5589 4.98181 12.5224 4.92428C12.4858 4.86674 12.4727 4.79741 12.4857 4.73052C12.4987 4.66363 12.5369 4.60425 12.5923 4.56458L13.4301 3.98271L11.6435 5.01418C11.5839 5.04781 11.5137 5.05727 11.4473 5.04059C11.381 5.02391 11.3236 4.98236 11.287 4.92455C11.2504 4.86674 11.2375 4.79708 11.2508 4.72998C11.2641 4.66288 11.3027 4.60347 11.3587 4.56404L11.892 4.19818L10.4776 5.01418C10.4184 5.04765 10.3486 5.05722 10.2825 5.04093C10.2165 5.02463 10.1591 4.98371 10.1223 4.92653C10.0854 4.86936 10.0718 4.80025 10.0842 4.73336C10.0966 4.66647 10.1341 4.60685 10.1891 4.56671L11.692 3.48938L9.05039 5.01418C9.01013 5.0385 8.96409 5.05157 8.91706 5.05204Z" fill="#E2E2E2"/>
    <path d="M17.178 23.6797C17.1213 23.6798 17.066 23.6618 17.0203 23.6283C16.9745 23.5948 16.9407 23.5476 16.9235 23.4936C16.9064 23.4396 16.907 23.3815 16.9251 23.3278C16.9432 23.2741 16.978 23.2275 17.0244 23.1949L17.6532 22.7549L16.3358 23.5149C16.2771 23.5477 16.2083 23.5571 16.143 23.5412C16.0777 23.5254 16.0208 23.4854 15.9836 23.4294C15.9465 23.3734 15.9319 23.3055 15.9427 23.2392C15.9535 23.1728 15.989 23.113 16.042 23.0717L19.267 20.6269L15.0729 23.0483C15.0133 23.0819 14.9431 23.0914 14.8768 23.0747C14.8104 23.058 14.753 23.0165 14.7164 22.9586C14.6799 22.9008 14.6669 22.8312 14.6802 22.7641C14.6936 22.697 14.7322 22.6376 14.7881 22.5981L17.1438 20.9693L14.3134 22.6035C14.2536 22.6375 14.183 22.6472 14.1162 22.6304C14.0495 22.6136 13.9918 22.5716 13.9553 22.5132C13.9188 22.4549 13.9063 22.3847 13.9203 22.3173C13.9344 22.2499 13.974 22.1906 14.0308 22.1517L16.0233 20.8077L13.7588 22.1144C13.6988 22.1485 13.628 22.158 13.5612 22.141C13.4944 22.1241 13.4367 22.0818 13.4003 22.0232C13.364 21.9647 13.3517 21.8943 13.3661 21.8268C13.3806 21.7594 13.4205 21.7002 13.4777 21.6616L15.2404 20.4883L13.306 21.5997C13.2466 21.634 13.1763 21.644 13.1097 21.6278C13.043 21.6116 12.9852 21.5703 12.9482 21.5126C12.9112 21.4549 12.8979 21.3851 12.911 21.3178C12.9241 21.2505 12.9626 21.1909 13.0185 21.1512L16.9177 18.3933L12.7988 20.772C12.7388 20.8061 12.668 20.8156 12.6012 20.7986C12.5344 20.7816 12.4767 20.7394 12.4403 20.6808C12.404 20.6223 12.3917 20.5519 12.4061 20.4844C12.4206 20.417 12.4605 20.3578 12.5177 20.3192L14.0697 19.2909L12.5534 20.1661C12.4936 20.2027 12.4218 20.2142 12.3536 20.1982C12.2854 20.1822 12.2262 20.14 12.1888 20.0807C12.1515 20.0214 12.139 19.9498 12.154 19.8813C12.169 19.8129 12.2104 19.7531 12.2692 19.7149L14.978 17.8664L12.4249 19.34C12.3651 19.3735 12.2946 19.3827 12.2281 19.3657C12.1617 19.3486 12.1044 19.3066 12.0681 19.2483C12.0319 19.1901 12.0194 19.1201 12.0334 19.053C12.0474 18.9858 12.0868 18.9266 12.1433 18.8877L13.739 17.8184L12.426 18.5763C12.3675 18.6059 12.3001 18.6129 12.2367 18.596C12.1734 18.5791 12.1185 18.5395 12.0825 18.4846C12.0465 18.4298 12.032 18.3636 12.0418 18.2988C12.0515 18.2339 12.0848 18.1749 12.1353 18.1331L15.514 15.6707L12.682 17.3053C12.6224 17.3381 12.5526 17.3469 12.4868 17.33C12.421 17.313 12.3641 17.2716 12.3278 17.2141C12.2916 17.1567 12.2786 17.0875 12.2916 17.0208C12.3045 16.9541 12.3425 16.8949 12.3977 16.8552L13.3534 16.1971L13.0334 16.3832C12.9748 16.4164 12.9058 16.4261 12.8403 16.4105C12.7747 16.3949 12.7175 16.355 12.6802 16.299C12.6428 16.2429 12.6281 16.1748 12.6389 16.1083C12.6497 16.0418 12.6853 15.9819 12.7385 15.9405L14.4985 14.5997L13.7801 15.0141C13.722 15.0474 13.6536 15.0577 13.5883 15.0428C13.523 15.028 13.4657 14.9891 13.4278 14.934C13.3898 14.8788 13.374 14.8114 13.3835 14.7452C13.3929 14.6789 13.4269 14.6186 13.4788 14.5763L14.698 13.5885C14.6683 13.5667 14.6436 13.5389 14.6254 13.5069C14.5902 13.4458 14.5806 13.3732 14.5988 13.305C14.617 13.2368 14.6615 13.1786 14.7225 13.1432L16.571 12.0765C16.6291 12.0438 16.6973 12.034 16.7622 12.0491C16.8271 12.0641 16.884 12.1029 16.9217 12.1578C16.9595 12.2128 16.9753 12.2798 16.966 12.3458C16.9568 12.4118 16.9232 12.4719 16.8718 12.5144L16.4452 12.8616L17.8404 12.0531C17.899 12.0205 17.9677 12.0112 18.0328 12.0271C18.0979 12.0429 18.1547 12.0827 18.1918 12.1385C18.229 12.1943 18.2437 12.2621 18.2331 12.3283C18.2225 12.3945 18.1874 12.4543 18.1348 12.4957L16.3748 13.8365L18.9588 12.3432C19.0183 12.3096 19.0885 12.3001 19.1549 12.3168C19.2212 12.3335 19.2786 12.375 19.3152 12.4328C19.3518 12.4906 19.3648 12.5603 19.3514 12.6274C19.3381 12.6945 19.2995 12.7539 19.2436 12.7933L18.2921 13.4472L19.587 12.7005C19.6462 12.666 19.7163 12.6556 19.7829 12.6714C19.8495 12.6872 19.9075 12.728 19.9449 12.7854C19.9822 12.8427 19.9961 12.9123 19.9836 12.9796C19.9711 13.0469 19.9332 13.1068 19.8777 13.1469L16.5001 15.6099L20.3961 13.3608C20.4558 13.3285 20.5256 13.3202 20.5912 13.3376C20.6568 13.355 20.7133 13.3967 20.7492 13.4543C20.7851 13.5119 20.7977 13.581 20.7844 13.6476C20.7711 13.7141 20.733 13.7731 20.6777 13.8125L19.0836 14.8792L20.8441 13.8664C20.9038 13.8317 20.9747 13.8216 21.0418 13.8381C21.1089 13.8547 21.1669 13.8966 21.2037 13.9551C21.2405 14.0136 21.2531 14.084 21.239 14.1517C21.2248 14.2193 21.185 14.2788 21.1278 14.3176L18.4201 16.1624L21.314 14.4915C21.3739 14.4574 21.4447 14.4478 21.5115 14.4648C21.5784 14.4818 21.636 14.524 21.6724 14.5826C21.7087 14.6412 21.721 14.7116 21.7066 14.779C21.6921 14.8465 21.6522 14.9057 21.595 14.9443L20.0356 15.9773L21.6649 15.0397C21.7243 15.0055 21.7946 14.9954 21.8612 15.0116C21.9278 15.0279 21.9856 15.0691 22.0226 15.1268C22.0596 15.1846 22.0729 15.2543 22.0599 15.3216C22.0468 15.3889 22.0083 15.4486 21.9523 15.4883L18.0542 18.2451L22.0963 15.9117C22.1563 15.8761 22.2279 15.8654 22.2957 15.8819C22.3635 15.8985 22.4221 15.9409 22.459 16.0002C22.4958 16.0594 22.508 16.1308 22.4928 16.1989C22.4777 16.267 22.4364 16.3265 22.3779 16.3645L20.618 17.5405L22.355 16.5331C22.4148 16.5 22.4849 16.4911 22.5511 16.5082C22.6172 16.5253 22.6742 16.5671 22.7104 16.6251C22.7466 16.683 22.7592 16.7526 22.7455 16.8195C22.7319 16.8865 22.6931 16.9456 22.6371 16.9848L20.6462 18.3277L22.5534 17.2275C22.6129 17.195 22.6824 17.1864 22.748 17.2033C22.8136 17.2203 22.8702 17.2616 22.9065 17.3188C22.9427 17.376 22.9559 17.4449 22.9432 17.5114C22.9305 17.578 22.893 17.6372 22.8382 17.6771L20.483 19.3064L22.6921 18.0312C22.7508 17.9978 22.82 17.9879 22.8857 18.0035C22.9514 18.0191 23.0087 18.0591 23.0461 18.1154C23.0835 18.1717 23.0981 18.24 23.0871 18.3067C23.076 18.3733 23.04 18.4332 22.9865 18.4744L19.7604 20.9197L22.6611 19.2451C22.7206 19.2113 22.7907 19.2017 22.857 19.2182C22.9234 19.2347 22.9808 19.276 23.0176 19.3336C23.0543 19.3912 23.0675 19.4608 23.0545 19.5278C23.0415 19.5949 23.0032 19.6545 22.9475 19.6941L22.3187 20.1347L22.4345 20.068C22.4918 20.0348 22.5593 20.0241 22.6241 20.0379C22.6888 20.0518 22.7461 20.0893 22.7847 20.143C22.8234 20.1968 22.8407 20.263 22.8332 20.3288C22.8257 20.3946 22.7941 20.4552 22.7443 20.4989L21.4398 21.6531C21.4938 21.6425 21.5496 21.6494 21.5994 21.6726C21.6493 21.6957 21.6905 21.7341 21.7172 21.7821C21.7526 21.8433 21.7622 21.9161 21.744 21.9844C21.7258 22.0527 21.6812 22.1109 21.6201 22.1464L19.459 23.3933C19.4018 23.4259 19.3346 23.4362 19.2702 23.4222C19.2059 23.4082 19.149 23.3709 19.1106 23.3175C19.0721 23.264 19.0548 23.1983 19.0619 23.1328C19.069 23.0673 19.1001 23.0068 19.1492 22.9629L20.3934 21.8632L17.3113 23.6424C17.2709 23.6664 17.2249 23.6792 17.178 23.6797Z" fill="#AD6128"/>
    <path d="M18.8351 16.6345C19.0097 16.6345 19.1552 16.489 19.1552 16.3144C19.1552 16.1397 19.0155 16 18.8351 16H17.042H16.3202C16.1455 16 16 16.1455 16 16.3202C16 16.4948 16.1455 16.6404 16.3202 16.6404H17.042C17.3506 16.6404 17.6125 16.8208 17.7348 17.0828H16.3202C16.1455 17.0828 16 17.2283 16 17.403C16 17.5776 16.1455 17.7232 16.3202 17.7232H17.7348C17.6125 17.9851 17.3506 18.1656 17.042 18.1656H16.3202C16.1921 18.1656 16.0699 18.2471 16.0233 18.3635C15.9767 18.4858 16.0058 18.6255 16.099 18.7128L17.8978 20.4127C17.956 20.4709 18.0375 20.5 18.119 20.5C18.2063 20.5 18.2878 20.4651 18.3519 20.401C18.4741 20.273 18.4683 20.075 18.3402 19.9528L17.1177 18.8001C17.7464 18.7652 18.2646 18.3169 18.4043 17.7232H18.8409C19.0155 17.7232 19.1611 17.5776 19.1611 17.403C19.1611 17.2283 19.0155 17.0828 18.8409 17.0828H18.4043C18.3635 16.9256 18.3053 16.7684 18.2122 16.6404L18.8351 16.6345Z" fill="#262626"/>
    <path d="M17.1583 12.5252C17.1063 12.5252 17.0555 12.5099 17.0121 12.4813C16.9687 12.4527 16.9345 12.4121 16.9139 12.3644C16.8933 12.3167 16.8871 12.264 16.896 12.2128C16.9049 12.1616 16.9286 12.1141 16.9642 12.0762L18.2223 10.7386L16.3818 11.8004C16.325 11.8313 16.259 11.8405 16.196 11.8263C16.133 11.8122 16.0773 11.7756 16.0392 11.7235C16.0011 11.6714 15.9832 11.6072 15.9888 11.5429C15.9944 11.4786 16.0232 11.4185 16.0698 11.3738L16.9503 10.5796L16.0655 11.0906C16.0134 11.1206 15.9527 11.1321 15.8932 11.1233C15.8338 11.1145 15.779 11.0858 15.7379 11.0419C15.6968 10.9981 15.6717 10.9416 15.6666 10.8817C15.6616 10.8218 15.677 10.762 15.7103 10.7119L16.3759 9.71511L15.642 10.1348C15.5871 10.1665 15.5227 10.1777 15.4604 10.1662C15.398 10.1547 15.3418 10.1214 15.3018 10.0722C15.2618 10.023 15.2406 9.96116 15.2421 9.89778C15.2435 9.83439 15.2675 9.7736 15.3098 9.72631L15.6591 9.33431L15.362 9.50551C15.3169 9.53151 15.2651 9.54372 15.2132 9.54064C15.1612 9.53757 15.1112 9.51933 15.0695 9.48819C15.0277 9.45705 14.996 9.41437 14.9782 9.36542C14.9605 9.31646 14.9574 9.26338 14.9695 9.21271L15.1295 8.55725L15.0655 8.59351C15.0351 8.61281 15.0012 8.62576 14.9657 8.6316C14.9302 8.63744 14.8939 8.63603 14.859 8.62748C14.8241 8.61892 14.7912 8.60339 14.7624 8.58181C14.7337 8.56023 14.7096 8.53306 14.6916 8.50192C14.6736 8.47078 14.662 8.43633 14.6577 8.40062C14.6534 8.36492 14.6563 8.32871 14.6663 8.29417C14.6763 8.25963 14.6932 8.22747 14.716 8.19963C14.7388 8.1718 14.767 8.14885 14.7988 8.13218L15.3999 7.78551C15.445 7.75958 15.4967 7.7474 15.5486 7.75046C15.6005 7.75353 15.6504 7.77172 15.6921 7.80278C15.7338 7.83384 15.7655 7.87642 15.7834 7.92528C15.8012 7.97415 15.8043 8.02715 15.7924 8.07778L15.6351 8.73378L16.8298 8.04418C16.8847 8.01248 16.9491 8.00137 17.0114 8.01286C17.0738 8.02434 17.13 8.05767 17.17 8.10685C17.21 8.15604 17.2312 8.21787 17.2297 8.28125C17.2282 8.34463 17.2042 8.40542 17.162 8.45271L16.8127 8.84418L17.1012 8.67778C17.1533 8.64777 17.214 8.63625 17.2735 8.64508C17.3329 8.6539 17.3877 8.68257 17.4288 8.72641C17.4699 8.77026 17.4951 8.82672 17.5001 8.88662C17.5051 8.94653 17.4897 9.00638 17.4564 9.05645L16.7908 10.0538L18.8714 8.85485C18.9281 8.82402 18.9941 8.81483 19.0571 8.82898C19.1201 8.84312 19.1758 8.87964 19.2139 8.93176C19.252 8.98388 19.2699 9.04805 19.2643 9.11237C19.2587 9.17669 19.2299 9.23679 19.1834 9.28151L18.3028 10.0762L19.5226 9.37165C19.578 9.33956 19.6431 9.32851 19.7061 9.34051C19.769 9.35251 19.8255 9.38676 19.8652 9.43699C19.905 9.48723 19.9253 9.55009 19.9225 9.61408C19.9197 9.67808 19.894 9.73893 19.85 9.78551L18.593 11.1226L18.8623 10.9674C18.9152 10.9371 18.9769 10.9259 19.037 10.9357C19.0972 10.9454 19.1522 10.9754 19.193 11.0207C19.234 11.0659 19.2583 11.1238 19.2618 11.1848C19.2653 11.2457 19.2478 11.3061 19.2122 11.3556L18.825 11.8948L18.8346 11.9098C18.8522 11.9401 18.8636 11.9736 18.8683 12.0083C18.8729 12.0431 18.8707 12.0784 18.8617 12.1123C18.8527 12.1462 18.8371 12.178 18.8157 12.2058C18.7944 12.2337 18.7678 12.257 18.7375 12.2746L18.3716 12.4879C18.3189 12.5185 18.2572 12.53 18.1969 12.5207C18.1367 12.5113 18.0814 12.4815 18.0405 12.4364C17.9995 12.3912 17.9752 12.3334 17.9717 12.2725C17.9682 12.2116 17.9857 12.1513 18.0212 12.1018L18.0575 12.0516L17.2916 12.4932C17.2508 12.5156 17.2048 12.5267 17.1583 12.5252Z" fill="#AD6128"/>
    <path d="M27.3474 0.365874C26.0792 0.29014 24.7826 0.365874 23.5128 0.365874H9.08985C7.91652 0.365874 6.73945 0.349874 5.56505 0.365874C4.33998 0.38294 3.04665 1.06294 2.81572 2.36747C2.79356 2.49748 2.78303 2.6292 2.78425 2.76107C2.78425 2.76427 2.78052 2.76694 2.78052 2.77014V28.6901C2.78052 29.76 2.88185 30.8187 3.98745 31.3739C4.67438 31.7189 5.52932 31.6235 6.27758 31.6235H26.6381C27.4184 31.6235 28.2066 31.6549 28.9848 31.6235C29.5208 31.6016 30.1357 31.4427 30.2173 30.8299C30.2274 30.6754 30.2274 30.5204 30.2173 30.3659V6.63841C30.2173 6.18667 30.4136 5.09547 29.9768 4.77174C29.6747 4.63395 29.3385 4.58921 29.0109 4.64321H28.0861V1.83681C28.0861 1.18987 28.2184 0.417607 27.3474 0.365874ZM4.42372 0.906674C4.84649 0.708685 5.3175 0.63719 5.77998 0.700807H26.316C26.7538 0.700807 27.212 0.59894 27.3139 1.17601C27.3424 1.52209 27.3424 1.86993 27.3139 2.21601V4.63254H6.41998C6.16718 4.63254 5.91225 4.64001 5.65892 4.63254C5.60619 4.60226 5.54761 4.58359 5.48708 4.5778C5.42656 4.57201 5.3655 4.57921 5.30798 4.59894C4.83982 4.5004 4.41603 4.25323 4.09974 3.89428C3.78346 3.53532 3.59161 3.08378 3.55278 2.60694V2.56321C3.55278 2.56321 3.54798 2.55947 3.54745 2.55681C3.52389 2.22723 3.59358 1.89769 3.74854 1.60587C3.90351 1.31405 4.13749 1.07174 4.42372 0.906674ZM29.4472 5.44001C29.4608 5.60648 29.4608 5.7738 29.4472 5.94027V29.2864C29.4032 29.8678 29.4032 30.4517 29.4472 31.0331C29.5037 31.3893 29.5869 31.3099 29.1933 31.3099H8.04665C7.25412 31.3099 6.45945 31.328 5.66692 31.3099C4.31652 31.28 3.55865 30.2555 3.55278 28.9824C3.54212 26.6011 3.55278 24.2192 3.55278 21.8357V4.39041C3.93852 4.71256 4.41333 4.90941 4.91385 4.95467V28.9013C4.91385 29.1349 5.68612 28.9915 5.68612 28.6944V4.97974C8.95865 5.06881 12.2509 4.96747 15.5218 4.96747H27.452C27.4738 4.96747 27.5021 4.96747 27.5282 4.96481H27.5645C27.6173 4.96202 27.6698 4.95596 27.7218 4.94667C28.3608 4.90294 29.3341 4.79254 29.4472 5.44001Z" fill="#262626"/>
    <path d="M19.6466 12.47H20.6173C20.7666 12.47 21.052 12.4167 21.1293 12.2657C21.2066 12.1148 21.0626 12.0647 20.9266 12.0647H18.9661L20.0093 9.83692C20.0141 9.82732 20.0093 9.82145 20.0136 9.81239C20.0216 9.80191 20.029 9.79086 20.0354 9.77932C20.0725 9.68143 20.0866 9.57632 20.0766 9.47212C20.0666 9.36792 20.0327 9.26742 19.9777 9.17839C19.9226 9.08936 19.8478 9.01418 19.7591 8.95867C19.6703 8.90316 19.57 8.8688 19.4658 8.85825C19.2754 8.83861 19.0837 8.83415 18.8925 8.84492H17.6418C17.5666 8.64919 17.493 8.45292 17.4162 8.25825C17.3574 8.10568 17.2506 7.97637 17.1119 7.88979C16.9732 7.80321 16.8101 7.76407 16.6472 7.77825C16.341 7.77399 16.0344 7.77825 15.7282 7.77825C15.5436 7.75715 15.3567 7.77527 15.1796 7.83143C15.0025 7.88758 14.8392 7.98051 14.7005 8.10412C14.3272 8.49932 14.6344 8.94945 14.812 9.34945L15.5992 11.1201L16.02 12.0647H14.5266C14.3773 12.0647 14.092 12.118 14.0146 12.2689C13.9373 12.4199 14.0813 12.47 14.2173 12.47H15.7064C14.8907 12.9132 14.1793 13.5259 13.62 14.2668C12.1757 16.1169 11.1608 18.8737 12.4466 21.0609C13.7858 23.334 16.741 24.1095 19.1853 23.4529C21.5138 22.8273 23.4797 20.8348 23.2648 18.302C23.0808 16.0972 21.685 13.5655 19.6466 12.47ZM15.3426 8.59585C15.319 8.54814 15.3023 8.49732 15.293 8.44492C15.3015 8.37025 15.3169 8.29652 15.3389 8.22465C15.5741 8.23799 15.8189 8.22465 16.0509 8.22465C16.309 8.22465 16.5234 8.16865 16.6402 8.45665C16.7362 8.69345 16.8237 8.93399 16.9149 9.17239L17.1474 9.81239L17.181 9.90465C17.2418 10.0727 17.4856 10.0732 17.6285 10.0305C17.7249 10.008 17.8132 9.95948 17.884 9.89025C17.9277 9.84065 17.9794 9.76812 17.9533 9.69719L17.8066 9.29399H18.3826C18.5778 9.29399 18.7784 9.27959 18.9725 9.29399C19.0358 9.30306 19.0961 9.32736 19.148 9.36481C19.1999 9.40226 19.2419 9.45174 19.2705 9.50901C19.2991 9.56627 19.3133 9.62961 19.312 9.6936C19.3108 9.75758 19.294 9.82031 19.2632 9.87639L18.2461 12.0492H18.1778C17.8154 12.03 17.4522 12.03 17.0898 12.0492H16.8765L15.8312 9.69719C15.6669 9.32759 15.4968 8.96439 15.3421 8.59585H15.3426ZM19.9954 22.7329C18.903 23.2484 17.6693 23.3826 16.4916 23.114C15.3139 22.8454 14.2603 22.1895 13.4994 21.2513C12.1101 19.4465 12.6098 17.1212 13.6658 15.2855C14.2455 14.1626 15.1535 13.243 16.269 12.6492C16.3984 12.5854 16.5336 12.5341 16.6728 12.4961C16.6146 12.5095 16.6072 12.4999 16.668 12.4897H18.2013C20.2813 13.0711 21.693 15.3164 22.2584 17.2769C22.8914 19.4673 22.1064 21.6908 19.9949 22.7329H19.9954Z" fill="#262626"/>
    <path d="M6.20657 2.84829H13.1399C13.2823 2.84829 13.5772 2.79122 13.6546 2.65256C13.7319 2.51389 13.5847 2.48456 13.461 2.48456H6.52764C6.38524 2.48456 6.0903 2.54162 6.01297 2.68029C5.93564 2.81896 6.0823 2.84829 6.20657 2.84829Z" fill="#262626"/>
    <path d="M15.4031 2.96257H25.0031C25.4554 2.96257 25.5871 2.36737 25.0639 2.36737H15.4639C15.0117 2.36737 14.8799 2.96257 15.4031 2.96257Z" fill="#262626"/>
    <path d="M23.0474 25.9025H12.3935C12.2447 25.9025 11.9471 25.9516 11.8847 26.1159C11.826 26.2759 11.938 26.3601 12.098 26.3601H22.754C22.9028 26.3601 23.2004 26.3111 23.2628 26.1468C23.3204 25.9889 23.2111 25.9025 23.0474 25.9025Z" fill="#262626"/>
    <path d="M20.8031 27.9924H14.4143C13.9791 27.9924 13.8153 28.5417 14.3412 28.5417H20.7305C21.1652 28.5417 21.3289 27.9924 20.8031 27.9924Z" fill="#262626"/>
</svg>
