<svg width="33" height="32" viewBox="0 0 33 32" fill="none" xmlns="http://www.w3.org/2000/svg">
    <g clip-path="url(#clip0_1_1272)">
        <path d="M28.8889 17.8136C28.8347 17.8137 28.7817 17.7973 28.7371 17.7666C28.6924 17.7358 28.6582 17.6922 28.6389 17.6415C28.6197 17.5908 28.6164 17.5355 28.6294 17.4828C28.6424 17.4302 28.6712 17.3828 28.7119 17.3469L29.7727 16.412L28.0905 17.3869C28.0323 17.4201 27.9636 17.4302 27.8983 17.4151C27.833 17.3999 27.7757 17.3608 27.738 17.3053C27.7003 17.2499 27.6848 17.1823 27.6947 17.116C27.7046 17.0496 27.7391 16.9895 27.7913 16.9474L28.9828 15.9992L27.3161 16.9602C27.2572 16.9945 27.1874 17.0049 27.121 16.9893C27.0546 16.9737 26.9968 16.9333 26.9593 16.8764C26.9218 16.8194 26.9075 16.7503 26.9194 16.6832C26.9314 16.616 26.9685 16.556 27.0233 16.5154L28.1124 15.7053L27.3161 16.165C27.2574 16.1978 27.1886 16.2072 27.1233 16.1913C27.058 16.1755 27.0011 16.1355 26.9639 16.0795C26.9268 16.0235 26.9122 15.9556 26.923 15.8893C26.9338 15.8229 26.9693 15.7631 27.0223 15.7218L28.3935 14.6792L27.3161 15.3016C27.2572 15.3351 27.1878 15.3449 27.1219 15.329C27.056 15.3132 26.9987 15.2728 26.9615 15.2162C26.9243 15.1596 26.91 15.0909 26.9216 15.0241C26.9332 14.9574 26.9697 14.8975 27.0239 14.8568L28.0612 14.0877L27.3145 14.5176C27.2553 14.5519 27.185 14.5622 27.1184 14.5462C27.0518 14.5301 26.9939 14.4891 26.9568 14.4316C26.9196 14.374 26.906 14.3044 26.9188 14.2371C26.9316 14.1698 26.9698 14.11 27.0255 14.0701L27.4879 13.7373L27.3145 13.837C27.2563 13.8697 27.1879 13.8793 27.123 13.8639C27.058 13.8486 27.0012 13.8095 26.9636 13.7543C26.9261 13.6991 26.9107 13.6318 26.9203 13.5658C26.93 13.4997 26.9641 13.4397 27.0159 13.3976L28.9572 11.8557L27.3145 12.804C27.2558 12.8367 27.187 12.8461 27.1217 12.8303C27.0564 12.8144 26.9995 12.7745 26.9623 12.7185C26.9252 12.6625 26.9106 12.5945 26.9214 12.5282C26.9322 12.4619 26.9677 12.4021 27.0207 12.3608L28.3972 11.3165L27.3161 11.9416C27.2583 11.9748 27.1901 11.9852 27.125 11.9706C27.0599 11.9561 27.0027 11.9177 26.9645 11.863C26.9263 11.8083 26.9101 11.7413 26.9189 11.6752C26.9277 11.609 26.961 11.5486 27.0121 11.5058L29.4121 9.50264L27.3161 10.7117C27.2579 10.7443 27.1895 10.7539 27.1246 10.7386C27.0596 10.7233 27.0028 10.6842 26.9652 10.629C26.9277 10.5737 26.9123 10.5065 26.9219 10.4404C26.9316 10.3744 26.9657 10.3144 27.0175 10.2722L28.9492 8.73944L27.3161 9.68184C27.2569 9.7162 27.1866 9.72644 27.12 9.71043C27.0534 9.69442 26.9955 9.65339 26.9584 9.59585C26.9212 9.53831 26.9076 9.46867 26.9204 9.40137C26.9332 9.33407 26.9714 9.27427 27.0271 9.23438L27.4793 8.90958L27.3161 9.00344C27.2576 9.0364 27.1887 9.04603 27.1234 9.03042C27.058 9.0148 27.001 8.97509 26.9636 8.91922C26.9263 8.86335 26.9114 8.79545 26.922 8.72909C26.9326 8.66273 26.9678 8.60281 27.0207 8.56131L28.6004 7.34478L27.3161 8.08611C27.2581 8.11882 27.1899 8.12861 27.125 8.11356C27.0601 8.09851 27.0031 8.0597 26.9654 8.00478C26.9277 7.94986 26.9119 7.88281 26.9211 7.81682C26.9304 7.75083 26.964 7.69069 27.0153 7.64824L29.1305 5.94158L27.3161 6.98691C27.2575 7.01945 27.1888 7.02872 27.1237 7.01288C27.0585 6.99705 27.0018 6.95726 26.9646 6.90144C26.9275 6.84563 26.9128 6.77788 26.9234 6.71168C26.9339 6.64549 26.9691 6.58571 27.0217 6.54425L28.4617 5.44558L27.3161 6.10691C27.2575 6.14009 27.1885 6.14984 27.1229 6.13422C27.0574 6.11859 27.0002 6.07874 26.9629 6.02268C26.9255 5.96662 26.9108 5.8985 26.9216 5.832C26.9324 5.76551 26.968 5.70558 27.0212 5.66425L28.4148 4.60078L27.3161 5.23438C27.2586 5.26574 27.1914 5.2748 27.1276 5.25982C27.0638 5.24484 27.0077 5.20687 26.9701 5.15317C26.9325 5.09946 26.916 5.03379 26.9238 4.96869C26.9315 4.90359 26.963 4.84362 27.0121 4.80025L28.9455 3.18691L27.3161 4.12558C27.2593 4.15857 27.1923 4.16943 27.128 4.15609C27.0637 4.14274 27.0066 4.10612 26.9676 4.05326C26.9286 4.00039 26.9105 3.935 26.9167 3.86961C26.923 3.80422 26.9532 3.74344 27.0015 3.69891L28.7001 2.12345L27.3161 2.92345C27.2593 2.95693 27.1921 2.96817 27.1275 2.95501C27.0629 2.94184 27.0054 2.9052 26.9662 2.85216C26.9271 2.79912 26.9089 2.73344 26.9153 2.66781C26.9217 2.60218 26.9522 2.54124 27.0009 2.49678L27.5812 1.95705L27.3145 2.11011C27.2701 2.1357 27.2193 2.14795 27.1681 2.1454C27.1169 2.14285 27.0675 2.1256 27.0259 2.09573C26.9843 2.06585 26.9521 2.0246 26.9333 1.97693C26.9145 1.92926 26.9098 1.87717 26.9199 1.82691L27.0948 0.954381C27.0467 0.93746 27.0045 0.90713 26.9732 0.866979C26.9418 0.826828 26.9226 0.778537 26.9179 0.727818C26.9131 0.677099 26.923 0.626076 26.9463 0.580784C26.9696 0.535493 27.0054 0.497829 27.0495 0.472247L27.3161 0.320248C27.3607 0.294949 27.4116 0.282869 27.4628 0.285419C27.5139 0.287969 27.5633 0.305044 27.6052 0.334648C27.647 0.364488 27.6794 0.405785 27.6983 0.453567C27.7172 0.50135 27.7219 0.553583 27.7119 0.603981L27.5599 1.35491L29.3535 0.320248C29.4103 0.287259 29.4772 0.276396 29.5416 0.289742C29.6059 0.303088 29.663 0.339704 29.702 0.392569C29.741 0.445435 29.7591 0.51083 29.7528 0.57622C29.7466 0.641609 29.7164 0.702391 29.6681 0.746914L29.0879 1.28558L30.4873 0.480247C30.5441 0.447728 30.6109 0.437228 30.6749 0.450747C30.739 0.464265 30.7958 0.500858 30.8346 0.553558C30.8734 0.606259 30.8914 0.671387 30.8853 0.736545C30.8792 0.801703 30.8494 0.862341 30.8015 0.906914L29.1033 2.47811L31.3577 1.17678C31.4155 1.14368 31.4835 1.13338 31.5485 1.1479C31.6135 1.16242 31.6707 1.20071 31.7088 1.25526C31.747 1.3098 31.7634 1.37664 31.7548 1.44265C31.7461 1.50866 31.7131 1.56906 31.6623 1.61198L29.7268 3.22638L31.7417 2.06425C31.8004 2.03036 31.8697 2.02007 31.9357 2.03546C32.0017 2.05085 32.0593 2.09077 32.0969 2.14711C32.1345 2.20345 32.1493 2.27199 32.1382 2.33882C32.1271 2.40564 32.091 2.46574 32.0372 2.50691L30.6441 3.56985L31.8175 2.89305C31.8761 2.86051 31.9448 2.85124 32.0099 2.86707C32.075 2.88291 32.1318 2.9227 32.169 2.97852C32.2061 3.03433 32.2208 3.10208 32.2102 3.16827C32.1997 3.23447 32.1645 3.29425 32.1119 3.33571L30.6719 4.43331L31.8185 3.77145C31.8767 3.73797 31.9453 3.72764 32.0107 3.74251C32.0761 3.75738 32.1335 3.79636 32.1715 3.85168C32.2094 3.90699 32.2251 3.97458 32.2155 4.04096C32.2058 4.10735 32.1715 4.16765 32.1193 4.20985L30.0036 5.92025L31.8169 4.87278C31.8755 4.83982 31.9443 4.83019 32.0097 4.84581C32.075 4.86142 32.1321 4.90114 32.1694 4.95701C32.2068 5.01287 32.2216 5.08078 32.2111 5.14714C32.2005 5.2135 32.1652 5.27342 32.1124 5.31491L30.5321 6.53145L31.8169 5.79011C31.8761 5.75696 31.9456 5.74758 32.0115 5.76389C32.0773 5.7802 32.1344 5.82097 32.1712 5.87791C32.2081 5.93484 32.2218 6.00367 32.2097 6.07039C32.1976 6.1371 32.1605 6.1967 32.106 6.23705L31.6537 6.56238L31.8169 6.46851C31.8752 6.43589 31.9435 6.42629 32.0085 6.44162C32.0734 6.45694 32.1303 6.49607 32.1678 6.55127C32.2053 6.60647 32.2208 6.67374 32.2111 6.73978C32.2014 6.80583 32.1674 6.86584 32.1156 6.90798L30.1828 8.44131L31.8175 7.49838C31.8752 7.46582 31.943 7.45593 32.0076 7.47064C32.0723 7.48536 32.1291 7.52361 32.1671 7.57795C32.205 7.63229 32.2214 7.69882 32.2129 7.76457C32.2045 7.83032 32.1719 7.89057 32.1215 7.93358L29.7268 9.93464L31.8196 8.72611C31.8783 8.69336 31.9472 8.68398 32.0125 8.69983C32.0778 8.71568 32.1347 8.7556 32.1718 8.81161C32.2089 8.86761 32.2236 8.93557 32.2127 9.00189C32.2019 9.06821 32.1665 9.12801 32.1135 9.16931L30.7359 10.2136L31.8185 9.58904C31.8768 9.55642 31.9451 9.54682 32.0101 9.56215C32.075 9.57747 32.1319 9.6166 32.1694 9.6718C32.2069 9.72701 32.2224 9.79427 32.2127 9.86032C32.203 9.92636 32.169 9.98637 32.1172 10.0285L30.1732 11.5736L31.8191 10.6237C31.8783 10.5893 31.9485 10.5791 32.0151 10.5951C32.0818 10.6111 32.1396 10.6522 32.1768 10.7097C32.214 10.7672 32.2276 10.8369 32.2148 10.9042C32.202 10.9715 32.1638 11.0313 32.1081 11.0712L31.6489 11.4013L31.8191 11.3032C31.878 11.2697 31.9474 11.2599 32.0133 11.2757C32.0791 11.2916 32.1365 11.3319 32.1737 11.3886C32.2109 11.4452 32.2252 11.5139 32.2136 11.5806C32.202 11.6474 32.1654 11.7072 32.1113 11.748L31.074 12.5176L31.8207 12.0877C31.8793 12.055 31.9482 12.0456 32.0135 12.0614C32.0788 12.0773 32.1357 12.1172 32.1729 12.1732C32.21 12.2292 32.2246 12.2972 32.2138 12.3635C32.203 12.4298 32.1675 12.4896 32.1145 12.5309L30.7401 13.5704L31.8191 12.948C31.878 12.9145 31.9474 12.9047 32.0133 12.9205C32.0791 12.9364 32.1365 12.9767 32.1737 13.0334C32.2109 13.09 32.2252 13.1586 32.2136 13.2254C32.202 13.2922 32.1654 13.352 32.1113 13.3928L31.0239 14.2024L31.8196 13.7432C31.8779 13.71 31.9465 13.6999 32.0118 13.715C32.0771 13.7301 32.1344 13.7693 32.1721 13.8247C32.2099 13.8802 32.2253 13.9478 32.2155 14.0141C32.2056 14.0805 32.1711 14.1406 32.1188 14.1826L30.9268 15.1309L31.8196 14.6157C31.8769 14.5825 31.9445 14.5718 32.0092 14.5857C32.0739 14.5995 32.1312 14.637 32.1699 14.6907C32.2085 14.7445 32.2258 14.8107 32.2183 14.8765C32.2108 14.9423 32.1792 15.0029 32.1295 15.0466L31.0692 15.981L31.8196 15.548C31.8686 15.5204 31.9251 15.5091 31.981 15.5156C32.0368 15.5221 32.0892 15.546 32.1306 15.5841C32.172 15.6221 32.2003 15.6723 32.2115 15.7274C32.2227 15.7825 32.2162 15.8397 32.1929 15.8909L31.8719 16.5869C31.9343 16.5678 32.0016 16.5722 32.061 16.5994C32.1204 16.6266 32.1677 16.6747 32.194 16.7345C32.2203 16.7943 32.2238 16.8616 32.2037 16.9238C32.1837 16.9859 32.1415 17.0386 32.0852 17.0717L31.4127 17.46C31.3637 17.4874 31.3073 17.4987 31.2515 17.4922C31.1958 17.4857 31.1435 17.4618 31.1021 17.4238C31.0608 17.3859 31.0324 17.3359 31.0211 17.2809C31.0099 17.2259 31.0162 17.1687 31.0393 17.1176L31.3593 16.4285L29.0244 17.7768C28.9834 17.8011 28.9366 17.8138 28.8889 17.8136Z" fill="#DBC5B5"/>
        <path d="M24.3599 27.408C24.3058 27.4079 24.2529 27.3914 24.2084 27.3606C24.1639 27.3297 24.1299 27.2861 24.1108 27.2355C24.0917 27.1848 24.0884 27.1295 24.1015 27.077C24.1146 27.0245 24.1433 26.9772 24.1839 26.9414L25.4959 25.7862L23.6404 26.8571C23.5814 26.8897 23.5123 26.8988 23.4469 26.8824C23.3815 26.8661 23.3247 26.8256 23.2879 26.7691C23.2512 26.7126 23.2371 26.6443 23.2487 26.5779C23.2603 26.5115 23.2966 26.452 23.3503 26.4112L23.4036 26.3734L23.058 26.5728C23 26.6059 22.9317 26.6161 22.8666 26.6013C22.8014 26.5864 22.7443 26.5477 22.7063 26.4927C22.6684 26.4378 22.6524 26.3706 22.6617 26.3044C22.6709 26.2383 22.7046 26.178 22.7562 26.1355L24.9471 24.3494L20.5172 26.9094C20.4583 26.9434 20.3886 26.9537 20.3223 26.938C20.2561 26.9223 20.1984 26.8819 20.161 26.8251C20.1235 26.7682 20.1093 26.6992 20.1211 26.6322C20.1329 26.5652 20.1698 26.5052 20.2244 26.4646L23.8511 23.768L17.8244 27.2459C17.7646 27.2794 17.6941 27.2886 17.6277 27.2716C17.5612 27.2545 17.5039 27.2125 17.4677 27.1542C17.4314 27.096 17.419 27.026 17.433 26.9589C17.447 26.8917 17.4863 26.8325 17.5428 26.7936L20.946 24.511L17.0724 26.7472C17.0127 26.7803 16.9425 26.7892 16.8764 26.7721C16.8103 26.755 16.7532 26.7131 16.717 26.6552C16.6809 26.5973 16.6683 26.5277 16.6819 26.4607C16.6955 26.3938 16.7343 26.3347 16.7903 26.2955L21.049 23.4331L14.5423 27.191C14.4824 27.225 14.4115 27.2346 14.3447 27.2176C14.2779 27.2006 14.2202 27.1584 14.1839 27.0998C14.1475 27.0412 14.1353 26.9708 14.1497 26.9034C14.1641 26.836 14.2041 26.7767 14.2612 26.7382L20.746 22.4L13.106 26.8107C13.0461 26.8438 12.9758 26.8525 12.9097 26.8352C12.8435 26.8179 12.7865 26.7758 12.7505 26.7177C12.7144 26.6595 12.7021 26.5898 12.7161 26.5228C12.7301 26.4558 12.7692 26.3968 12.8255 26.3579L20.0618 21.5851L11.8484 26.3254C11.7884 26.358 11.7181 26.3663 11.6521 26.3485C11.5861 26.3308 11.5294 26.2884 11.4937 26.2301C11.4581 26.1718 11.4462 26.102 11.4605 26.0352C11.4748 25.9684 11.5142 25.9096 11.5706 25.871L18.7508 21.2224L11.8495 25.2086C11.7889 25.2427 11.7174 25.2518 11.6502 25.234C11.583 25.2161 11.5254 25.1727 11.4897 25.1131C11.454 25.0534 11.4431 24.9821 11.4592 24.9145C11.4753 24.8468 11.5172 24.7882 11.5759 24.751L13.1898 23.7499L11.8495 24.5232C11.7896 24.555 11.7199 24.5629 11.6544 24.5451C11.589 24.5273 11.5328 24.4853 11.4972 24.4275C11.4617 24.3697 11.4495 24.3006 11.4631 24.2342C11.4767 24.1677 11.5152 24.109 11.5706 24.0699L19.5444 18.8518L11.8495 23.2944C11.7887 23.3306 11.7161 23.3412 11.6475 23.3239C11.579 23.3065 11.5201 23.2626 11.4839 23.2019C11.4477 23.1411 11.4371 23.0685 11.4544 22.9999C11.4718 22.9314 11.5157 22.8725 11.5764 22.8363L11.7994 22.6998C11.7375 22.7196 11.6704 22.7162 11.6109 22.6902C11.5513 22.6641 11.5033 22.6172 11.4759 22.5582C11.4485 22.4992 11.4436 22.4323 11.4622 22.37C11.4807 22.3076 11.5213 22.2542 11.5764 22.2198L12.185 21.8464L11.8495 22.0395C11.7893 22.0726 11.7187 22.0812 11.6524 22.0635C11.586 22.0458 11.529 22.0033 11.4933 21.9446C11.4576 21.886 11.4458 21.8158 11.4605 21.7488C11.4752 21.6817 11.5152 21.6229 11.5722 21.5846L18.2634 17.2747L11.8495 20.9771C11.7894 21.0093 11.7192 21.0172 11.6534 20.9993C11.5877 20.9813 11.5313 20.9389 11.4958 20.8806C11.4604 20.8224 11.4486 20.7527 11.4629 20.6861C11.4772 20.6194 11.5165 20.5608 11.5727 20.5222L17.6527 16.6288L11.8495 19.983C11.7889 20.0179 11.7171 20.0276 11.6495 20.0101C11.5818 19.9926 11.5237 19.9492 11.4877 19.8893C11.4517 19.8294 11.4407 19.7577 11.457 19.6898C11.4733 19.6218 11.5156 19.563 11.5748 19.5259L15.026 17.3638L11.8495 19.1974C11.7893 19.23 11.7188 19.2382 11.6527 19.2203C11.5866 19.2024 11.5299 19.1598 11.4944 19.1012C11.4589 19.0427 11.4473 18.9727 11.462 18.9058C11.4766 18.8389 11.5165 18.7802 11.5732 18.7419L17.2799 15.1051L11.8495 18.24C11.7891 18.2727 11.7185 18.2809 11.6523 18.2628C11.5861 18.2447 11.5294 18.2018 11.494 18.143C11.4586 18.0842 11.4472 18.014 11.4623 17.947C11.4774 17.8801 11.5177 17.8215 11.5748 17.7835L14.9647 15.6603L11.849 17.4587C11.789 17.4909 11.719 17.4989 11.6533 17.4812C11.5876 17.4634 11.5311 17.4212 11.4955 17.3632C11.4599 17.3051 11.4479 17.2357 11.4618 17.1691C11.4758 17.1025 11.5147 17.0437 11.5706 17.0048L19.1567 12.0678L11.85 16.2864C11.7896 16.3187 11.7191 16.3265 11.6532 16.3082C11.5872 16.2899 11.5308 16.2469 11.4956 16.1882C11.4604 16.1294 11.4492 16.0594 11.4642 15.9926C11.4793 15.9258 11.5195 15.8674 11.5764 15.8294L13.1348 14.8624L11.85 15.6043C11.7898 15.6386 11.7186 15.6481 11.6515 15.6308C11.5844 15.6134 11.5267 15.5707 11.4905 15.5115C11.4544 15.4524 11.4427 15.3815 11.458 15.3139C11.4732 15.2463 11.5142 15.1873 11.5722 15.1494L18.442 10.72L11.849 14.5232C11.7886 14.5559 11.718 14.5641 11.6518 14.546C11.5855 14.5279 11.5288 14.485 11.4934 14.4262C11.4581 14.3674 11.4467 14.2972 11.4618 14.2302C11.4768 14.1633 11.5171 14.1047 11.5743 14.0667L14.7631 12.072L11.849 13.7542C11.7888 13.7872 11.7182 13.7959 11.6518 13.7782C11.5855 13.7605 11.5285 13.7179 11.4928 13.6593C11.457 13.6007 11.4453 13.5305 11.46 13.4634C11.4747 13.3964 11.5147 13.3375 11.5716 13.2992L18.1471 9.07203L11.849 12.7078C11.7885 12.7411 11.7175 12.7496 11.6508 12.7316C11.5842 12.7137 11.5271 12.6705 11.4916 12.6113C11.4561 12.5521 11.445 12.4815 11.4605 12.4142C11.476 12.347 11.517 12.2884 11.5748 12.2507L14.17 10.6336L11.849 11.9728C11.7889 12.0046 11.7191 12.0123 11.6536 11.9943C11.5881 11.9764 11.5319 11.9341 11.4965 11.8761C11.4611 11.8181 11.4492 11.7488 11.4632 11.6824C11.4771 11.6159 11.5159 11.5573 11.5716 11.5184L19.7279 6.26456L11.849 10.8128C11.7889 10.8454 11.7186 10.8537 11.6526 10.836C11.5866 10.8183 11.5299 10.7759 11.4942 10.7176C11.4586 10.6593 11.4467 10.5895 11.461 10.5227C11.4753 10.4558 11.5147 10.397 11.5711 10.3584L18.1882 6.08003L11.849 9.7403C11.7886 9.77346 11.7178 9.78202 11.6514 9.76419C11.5849 9.74636 11.5279 9.70351 11.4923 9.64461C11.4567 9.58572 11.4452 9.51533 11.4603 9.44817C11.4754 9.38102 11.5158 9.3223 11.5732 9.2843L14.7967 7.2411L11.849 8.94296C11.7885 8.97626 11.7175 8.98482 11.6508 8.96684C11.5842 8.94886 11.5271 8.90573 11.4916 8.84654C11.4561 8.78735 11.445 8.71669 11.4605 8.64943C11.476 8.58218 11.517 8.52355 11.5748 8.4859L11.7994 8.34563C11.7378 8.36617 11.6708 8.36355 11.6111 8.33826C11.5513 8.31297 11.5028 8.26675 11.4746 8.20826C11.4465 8.14977 11.4407 8.08302 11.4582 8.02053C11.4758 7.95805 11.5155 7.90411 11.57 7.86883L15.0196 5.61496L11.849 7.44536C11.7895 7.47909 11.7194 7.4887 11.6531 7.47222C11.5868 7.45575 11.5293 7.41444 11.4925 7.35682C11.4558 7.2992 11.4426 7.22967 11.4556 7.16258C11.4686 7.09549 11.5069 7.03597 11.5626 6.9963L16.0996 3.81603L11.849 6.26936C11.789 6.30346 11.7182 6.31301 11.6514 6.29601C11.5846 6.27901 11.5269 6.23679 11.4905 6.17821C11.4542 6.11962 11.4419 6.04923 11.4563 5.9818C11.4708 5.91437 11.5107 5.85515 11.5679 5.81656L12.9044 4.9259L11.849 5.53496C11.7892 5.56806 11.719 5.57696 11.6529 5.55984C11.5868 5.54272 11.5298 5.50088 11.4936 5.44295C11.4574 5.38502 11.4448 5.31541 11.4585 5.24848C11.4721 5.18155 11.5109 5.1224 11.5668 5.08323L12.3183 4.5755L11.849 4.84643C11.7899 4.88005 11.7201 4.88982 11.6541 4.87375C11.588 4.85768 11.5306 4.81697 11.4935 4.75996C11.4565 4.70295 11.4426 4.63394 11.4547 4.56703C11.4669 4.50013 11.5041 4.44039 11.5588 4.40003L13.0276 3.33336L11.849 4.01336C11.7911 4.04565 11.7233 4.05525 11.6588 4.04029C11.5942 4.02533 11.5376 3.98688 11.4998 3.93243C11.4621 3.87798 11.446 3.81143 11.4546 3.74574C11.4632 3.68006 11.496 3.61994 11.5466 3.5771L12.9828 2.39577L11.849 3.05123C11.7953 3.08222 11.7326 3.09358 11.6716 3.08337C11.6105 3.07317 11.5549 3.04202 11.5142 2.99528C11.4736 2.94855 11.4505 2.88913 11.4489 2.82723C11.4473 2.76533 11.4673 2.7048 11.5055 2.65603L12.3695 1.5467C12.3391 1.56599 12.3052 1.57895 12.2697 1.58479C12.2342 1.59062 12.1979 1.58922 12.163 1.58066C12.1281 1.57211 12.0952 1.55657 12.0664 1.535C12.0377 1.51342 12.0136 1.48624 11.9956 1.45511C11.9776 1.42397 11.966 1.38951 11.9617 1.35381C11.9574 1.31811 11.9603 1.2819 11.9703 1.24736C11.9803 1.21281 11.9973 1.18066 12.02 1.15282C12.0428 1.12498 12.071 1.10204 12.1028 1.08537L13.289 0.402166C13.3425 0.37114 13.4052 0.359715 13.4663 0.369847C13.5273 0.379979 13.583 0.411039 13.6236 0.4577C13.6643 0.504362 13.6875 0.563718 13.6892 0.625594C13.6909 0.687469 13.671 0.748008 13.633 0.796832L12.7668 1.90457L15.5156 0.320032C15.5735 0.287207 15.6415 0.277199 15.7064 0.291974C15.7713 0.306749 15.8283 0.345238 15.8662 0.399887C15.9042 0.454535 15.9203 0.521394 15.9115 0.587337C15.9027 0.653281 15.8695 0.713545 15.8186 0.756299L14.3818 1.9371L17.185 0.320032C17.2441 0.286413 17.3138 0.276641 17.3798 0.292714C17.4459 0.308787 17.5033 0.349491 17.5404 0.406503C17.5775 0.463514 17.5913 0.532527 17.5792 0.59943C17.5671 0.666333 17.5298 0.726072 17.4751 0.766432L16.0068 1.8331L18.6266 0.320032C18.6862 0.287326 18.7561 0.278662 18.822 0.295814C18.8878 0.312966 18.9446 0.354636 18.9807 0.412295C19.0169 0.469953 19.0296 0.539239 19.0163 0.605966C19.003 0.672694 18.9647 0.731817 18.9092 0.771232L18.1599 1.2779L19.8191 0.320032C19.8789 0.287386 19.9489 0.278863 20.0148 0.296212C20.0807 0.313562 20.1374 0.355468 20.1734 0.41333C20.2093 0.471193 20.2218 0.540625 20.2082 0.607377C20.1946 0.67413 20.1559 0.73314 20.1002 0.772299L18.7615 1.6635L21.0911 0.320032C21.1505 0.286686 21.2203 0.277306 21.2864 0.293814C21.3524 0.310322 21.4097 0.351469 21.4463 0.408821C21.483 0.466172 21.4964 0.535384 21.4837 0.602272C21.471 0.669159 21.4332 0.728655 21.378 0.768566L16.8415 3.9467L23.1274 0.320032C23.1874 0.286975 23.2578 0.278294 23.3241 0.295789C23.3903 0.313284 23.4473 0.355612 23.4832 0.413993C23.5191 0.472374 23.5311 0.542326 23.5168 0.609338C23.5025 0.67635 23.4629 0.735279 23.4063 0.773899L19.9556 3.0283L24.6474 0.320032C24.7077 0.287339 24.7784 0.279176 24.8446 0.297244C24.9108 0.315312 24.9675 0.358218 25.0029 0.417033C25.0383 0.475849 25.0496 0.546044 25.0345 0.613011C25.0195 0.679979 24.9792 0.73856 24.922 0.776565L24.8426 0.826699L25.7204 0.320032C25.7806 0.287403 25.8511 0.279188 25.9172 0.297089C25.9833 0.31499 26.04 0.357635 26.0755 0.416187C26.111 0.47474 26.1226 0.544712 26.108 0.611604C26.0933 0.678496 26.0535 0.737181 25.9967 0.775499L22.7684 2.82083L27.1023 0.320032C27.1624 0.287429 27.2327 0.279133 27.2987 0.296858C27.3647 0.314582 27.4214 0.356975 27.457 0.415283C27.4927 0.47359 27.5046 0.543363 27.4903 0.610196C27.476 0.677029 27.4366 0.73582 27.3802 0.774432L20.7668 5.04963L28.9599 0.320032C29.02 0.287429 29.0903 0.279133 29.1563 0.296858C29.2223 0.314582 29.279 0.356975 29.3146 0.415283C29.3503 0.47359 29.3622 0.543363 29.3479 0.610196C29.3336 0.677029 29.2942 0.73582 29.2378 0.774432L21.0815 6.0267L27.5764 2.27736C27.6369 2.24407 27.7079 2.23551 27.7745 2.25349C27.8412 2.27147 27.8983 2.31459 27.9338 2.37379C27.9693 2.43298 27.9804 2.50364 27.9649 2.57089C27.9494 2.63815 27.9084 2.69677 27.8506 2.73443L25.2586 4.34936L27.5519 3.0267C27.6121 2.99361 27.6827 2.985 27.749 3.00267C27.8154 3.02034 27.8724 3.06292 27.9081 3.12155C27.9438 3.18018 27.9556 3.25034 27.9409 3.31741C27.9262 3.38449 27.8862 3.44331 27.8292 3.48163L21.25 7.71096L27.5514 4.07363C27.6117 4.04094 27.6824 4.03277 27.7486 4.05084C27.8148 4.06891 27.8715 4.11182 27.9069 4.17063C27.9423 4.22945 27.9536 4.29964 27.9385 4.36661C27.9235 4.43358 27.8832 4.49216 27.826 4.53016L24.6367 6.52483L27.5514 4.8427C27.6116 4.80841 27.6828 4.79892 27.7499 4.81624C27.817 4.83355 27.8747 4.87631 27.9109 4.93545C27.947 4.99459 27.9587 5.06547 27.9434 5.13308C27.9282 5.20068 27.8872 5.2597 27.8292 5.29763L20.9583 9.72856L27.5514 5.9227C27.6119 5.88857 27.6835 5.87945 27.7507 5.89729C27.8179 5.91513 27.8754 5.95851 27.9111 6.01819C27.9468 6.07786 27.9578 6.14912 27.9417 6.21676C27.9256 6.2844 27.8837 6.34309 27.825 6.3803L26.2666 7.3467L27.5514 6.60536C27.6113 6.57317 27.6813 6.56514 27.7471 6.5829C27.8128 6.60066 27.8692 6.64287 27.9048 6.70089C27.9404 6.75891 27.9524 6.82835 27.9385 6.89497C27.9245 6.96159 27.8856 7.02036 27.8298 7.05923L20.2436 11.9963L27.5503 7.77763C27.6106 7.74494 27.6813 7.73677 27.7475 7.75484C27.8137 7.77291 27.8704 7.81581 27.9058 7.87463C27.9412 7.93345 27.9525 8.00364 27.9375 8.07061C27.9224 8.13758 27.8821 8.19616 27.825 8.23416L24.4415 10.3542L27.5514 8.55896C27.6116 8.52633 27.682 8.51812 27.7481 8.53602C27.8142 8.55392 27.8709 8.59657 27.9064 8.65512C27.9419 8.71367 27.9536 8.78364 27.9389 8.85053C27.9242 8.91743 27.8844 8.97611 27.8276 9.01443L22.1242 12.6496L27.5519 9.5163C27.6122 9.4836 27.6829 9.47544 27.7491 9.49351C27.8153 9.51157 27.872 9.55448 27.9074 9.6133C27.9428 9.67211 27.9541 9.74231 27.9391 9.80927C27.924 9.87624 27.8837 9.93482 27.8266 9.97283L24.3748 12.1355L27.5519 10.3014C27.6122 10.2677 27.6831 10.2587 27.7499 10.2763C27.8167 10.2938 27.874 10.3366 27.9099 10.3956C27.9457 10.4546 27.9573 10.5253 27.9422 10.5926C27.927 10.66 27.8864 10.7188 27.8287 10.7568L21.7402 14.6502L27.5535 11.2955C27.6137 11.2624 27.6843 11.2538 27.7506 11.2715C27.817 11.2891 27.874 11.3317 27.9097 11.3904C27.9454 11.449 27.9572 11.5191 27.9425 11.5862C27.9278 11.6533 27.8878 11.7121 27.8308 11.7504L21.1428 16.0534L27.5519 12.3531C27.6124 12.3203 27.6832 12.3121 27.7496 12.3304C27.816 12.3486 27.8727 12.3918 27.908 12.4509C27.9433 12.51 27.9543 12.5804 27.9388 12.6475C27.9234 12.7145 27.8826 12.773 27.825 12.8107L27.2164 13.184L27.5519 12.9904C27.6126 12.9542 27.6853 12.9436 27.7539 12.961C27.8224 12.9783 27.8813 13.0222 27.9175 13.083C27.9537 13.1437 27.9643 13.2164 27.9469 13.2849C27.9296 13.3535 27.8857 13.4123 27.825 13.4486L27.602 13.5851C27.6635 13.5649 27.7303 13.5677 27.7899 13.5931C27.8494 13.6185 27.8977 13.6647 27.9258 13.723C27.9538 13.7814 27.9596 13.848 27.9421 13.9103C27.9247 13.9727 27.8851 14.0266 27.8308 14.0619L19.8548 19.2859L27.5524 14.8422C27.613 14.808 27.6845 14.7989 27.7517 14.8168C27.8189 14.8346 27.8765 14.878 27.9122 14.9376C27.9479 14.9973 27.9588 15.0686 27.9427 15.1362C27.9266 15.2039 27.8848 15.2625 27.826 15.2998L26.2122 16.3003L27.5524 15.527C27.6127 15.4927 27.6839 15.4832 27.751 15.5005C27.8181 15.5178 27.8758 15.5606 27.9119 15.6197C27.948 15.6789 27.9597 15.7497 27.9445 15.8173C27.9293 15.8849 27.8883 15.944 27.8303 15.9819L20.65 20.6304L27.5524 16.6454C27.6124 16.6118 27.683 16.6027 27.7495 16.62C27.8161 16.6372 27.8734 16.6795 27.9095 16.738C27.9456 16.7964 27.9577 16.8666 27.9434 16.9338C27.929 17.001 27.8893 17.0601 27.8324 17.0987L20.5988 21.8704L27.5524 17.8555C27.6124 17.8214 27.6832 17.8118 27.75 17.8288C27.8168 17.8458 27.8745 17.8881 27.9108 17.9466C27.9472 18.0052 27.9595 18.0756 27.945 18.1431C27.9306 18.2105 27.8906 18.2697 27.8335 18.3083L21.3439 22.6432L27.5524 19.0587C27.6123 19.024 27.6834 19.0139 27.7505 19.0306C27.8177 19.0473 27.8758 19.0895 27.9124 19.1483C27.949 19.207 27.9614 19.2777 27.9469 19.3454C27.9324 19.413 27.8921 19.4724 27.8346 19.511L23.5775 22.3723L27.553 20.079C27.6127 20.0467 27.6824 20.0384 27.7481 20.0557C27.8137 20.0731 27.8702 20.1149 27.9061 20.1725C27.942 20.2301 27.9546 20.2992 27.9413 20.3657C27.928 20.4323 27.8898 20.4913 27.8346 20.5307L24.4303 22.8139L27.553 21.0118C27.6119 20.9783 27.6813 20.9685 27.7472 20.9843C27.813 21.0002 27.8704 21.0405 27.9076 21.0971C27.9448 21.1538 27.9591 21.2224 27.9475 21.2892C27.9359 21.3559 27.8993 21.4158 27.8452 21.4566L24.2186 24.1531L27.5503 22.2299C27.6083 22.1968 27.6766 22.1866 27.7417 22.2014C27.8069 22.2163 27.8641 22.255 27.902 22.31C27.94 22.3649 27.9559 22.4321 27.9467 22.4983C27.9374 22.5645 27.9037 22.6247 27.8522 22.6672L25.6618 24.4528L27.553 23.36C27.6121 23.3264 27.6818 23.3166 27.7478 23.3327C27.8139 23.3488 27.8713 23.3895 27.9084 23.4465C27.9455 23.5035 27.9593 23.5725 27.9472 23.6394C27.9351 23.7063 27.8978 23.7661 27.8431 23.8064L27.6468 23.9483C27.6951 23.9414 27.7444 23.9477 27.7895 23.9665C27.8345 23.9852 27.8737 24.0158 27.9028 24.055C27.9414 24.1087 27.9586 24.1749 27.9511 24.2406C27.9436 24.3064 27.912 24.367 27.8623 24.4107L26.5514 25.5648L27.553 24.9867C27.6029 24.9579 27.6609 24.9461 27.7181 24.9531C27.7754 24.9601 27.8288 24.9854 27.8704 25.0253C27.9121 25.0652 27.9397 25.1175 27.9491 25.1744C27.9585 25.2313 27.9492 25.2897 27.9226 25.3408L27.5492 26.0587H27.5535C27.6147 26.0239 27.6872 26.0147 27.7552 26.0332C27.8231 26.0516 27.881 26.0962 27.9162 26.1572C27.9514 26.2182 27.9611 26.2906 27.9431 26.3587C27.9251 26.4267 27.8809 26.4849 27.8202 26.5206L27.0244 26.9792C26.9745 27.0078 26.9167 27.0195 26.8595 27.0126C26.8024 27.0056 26.7491 26.9803 26.7075 26.9405C26.6659 26.9008 26.6383 26.8486 26.6288 26.7918C26.6193 26.7351 26.6284 26.6768 26.6548 26.6256L27.0282 25.9078L24.4938 27.3712C24.4533 27.3953 24.407 27.408 24.3599 27.408Z" fill="#DBC5B5"/>
        <path d="M7.02351 23.7218C6.96678 23.722 6.91147 23.704 6.86564 23.6706C6.8198 23.6372 6.78582 23.59 6.76863 23.5359C6.75144 23.4819 6.75194 23.4237 6.77006 23.37C6.78818 23.3162 6.82297 23.2696 6.86937 23.237L7.36751 22.8845L7.08804 23.0445C7.02851 23.0786 6.95811 23.0885 6.89147 23.0721C6.82484 23.0557 6.7671 23.0142 6.73028 22.9563C6.69345 22.8984 6.68037 22.8285 6.69377 22.7612C6.70716 22.6939 6.74599 22.6343 6.80217 22.5949L7.06884 22.4087C7.00875 22.4266 6.94429 22.4227 6.88679 22.3977C6.8293 22.3727 6.78243 22.3283 6.75442 22.2722C6.72642 22.2162 6.71906 22.152 6.73364 22.0911C6.74823 22.0301 6.78382 21.9762 6.83417 21.9389L8.53711 20.677L7.18244 21.4615C7.12381 21.4947 7.05479 21.5045 6.98926 21.4889C6.92373 21.4732 6.86655 21.4334 6.82919 21.3773C6.79184 21.3213 6.77709 21.2531 6.78791 21.1866C6.79873 21.1201 6.83431 21.0602 6.88751 21.0189L8.59417 19.7111L7.13124 20.5554C7.07337 20.5882 7.00532 20.5982 6.94045 20.5835C6.87558 20.5687 6.81858 20.5302 6.78063 20.4756C6.74268 20.4209 6.72654 20.354 6.73536 20.2881C6.74418 20.2222 6.77733 20.1619 6.82831 20.1191L8.84057 18.4605L6.96964 19.5405C6.91123 19.5748 6.84193 19.5856 6.77583 19.5707C6.70973 19.5558 6.65178 19.5163 6.61376 19.4602C6.57573 19.4042 6.56049 19.3357 6.57111 19.2688C6.58174 19.2019 6.61744 19.1415 6.67097 19.0999L7.97177 18.0797L6.84217 18.7303C6.78373 18.7635 6.71492 18.7734 6.6495 18.758C6.58408 18.7427 6.52688 18.7031 6.48934 18.6474C6.4518 18.5917 6.43668 18.5238 6.44702 18.4574C6.45736 18.391 6.49239 18.331 6.54511 18.2893L7.29177 17.7085L7.17764 17.7741C7.12383 17.8049 7.06096 17.816 6.99983 17.8055C6.93871 17.795 6.88316 17.7635 6.84274 17.7165C6.80233 17.6694 6.77957 17.6098 6.7784 17.5478C6.77722 17.4858 6.7977 17.4253 6.83631 17.3767L7.97337 15.9538C7.96804 15.9469 7.96377 15.9399 7.95897 15.9325C7.9414 15.9021 7.93 15.8685 7.92543 15.8337C7.92085 15.7989 7.92319 15.7636 7.93231 15.7297C7.94142 15.6958 7.95714 15.664 7.97856 15.6362C7.99997 15.6084 8.02667 15.5851 8.05711 15.5677L8.51577 15.301C8.56964 15.2696 8.63283 15.258 8.69434 15.2683C8.75585 15.2787 8.8118 15.3102 8.85245 15.3575C8.89309 15.4048 8.91587 15.4649 8.91682 15.5273C8.91777 15.5896 8.89683 15.6503 8.85764 15.6989L8.13391 16.6055L10.3958 15.2999C10.4543 15.2665 10.5233 15.2565 10.5889 15.2719C10.6545 15.2873 10.7118 15.3269 10.7493 15.3829C10.7869 15.4388 10.8019 15.5069 10.7913 15.5734C10.7807 15.64 10.7454 15.7 10.6923 15.7415L9.94564 16.3213L10.9307 15.7533C10.989 15.7205 11.0575 15.7108 11.1226 15.7261C11.1877 15.7415 11.2447 15.7807 11.2822 15.8361C11.3197 15.8915 11.3351 15.9589 11.3252 16.0251C11.3153 16.0913 11.2809 16.1513 11.2288 16.1933L9.93018 17.2151L11.3531 16.3938C11.4111 16.3602 11.4795 16.3497 11.5449 16.3643C11.6102 16.3789 11.6677 16.4176 11.7059 16.4726C11.744 16.5276 11.7601 16.595 11.7509 16.6613C11.7416 16.7277 11.7078 16.7881 11.656 16.8306L9.64538 18.4877L11.8822 17.1965C11.9408 17.1633 12.0098 17.1535 12.0754 17.1692C12.1409 17.1848 12.1981 17.2246 12.2354 17.2807C12.2728 17.3368 12.2875 17.4049 12.2767 17.4714C12.2659 17.5379 12.2303 17.5978 12.1771 17.6391L10.4704 18.9469L12.3302 17.8738C12.3891 17.8403 12.4585 17.8305 12.5244 17.8464C12.5903 17.8622 12.6476 17.9026 12.6848 17.9592C12.722 18.0158 12.7363 18.0845 12.7247 18.1512C12.7131 18.218 12.6766 18.2778 12.6224 18.3186L10.9158 19.5826L12.2011 18.8407C12.2606 18.8075 12.3306 18.7983 12.3966 18.815C12.4627 18.8317 12.5198 18.8731 12.5563 18.9306C12.5929 18.9882 12.606 19.0575 12.593 19.1244C12.58 19.1913 12.5418 19.2507 12.4864 19.2903L12.1664 19.5111C12.2196 19.5002 12.2748 19.5056 12.3248 19.5265C12.3749 19.5475 12.4174 19.583 12.447 19.6285C12.4839 19.6862 12.4971 19.7559 12.484 19.8231C12.4709 19.8903 12.4324 19.9499 12.3766 19.9895L11.8774 20.3431L11.9734 20.2898C12.0286 20.2585 12.0933 20.2479 12.1556 20.26C12.218 20.2721 12.274 20.3061 12.3136 20.3558C12.3531 20.4055 12.3736 20.4677 12.3714 20.5312C12.3692 20.5947 12.3443 20.6553 12.3014 20.7021L11.0624 22.0317L11.767 21.6247C11.8158 21.5977 11.8719 21.5866 11.9274 21.5931C11.9828 21.5996 12.0349 21.6234 12.0761 21.661C12.1173 21.6986 12.1457 21.7483 12.1572 21.8029C12.1688 21.8576 12.1628 21.9145 12.1403 21.9655L11.8912 22.5165C11.9323 22.5401 11.9664 22.5739 11.9904 22.6146C12.008 22.645 12.0194 22.6785 12.024 22.7133C12.0286 22.7481 12.0262 22.7835 12.0171 22.8174C12.008 22.8513 11.9923 22.883 11.9709 22.9108C11.9494 22.9386 11.9228 22.962 11.8923 22.9794L11.5334 23.1863C11.4845 23.2146 11.4278 23.2265 11.3717 23.2205C11.3155 23.2145 11.2627 23.1908 11.2209 23.1528C11.1791 23.1148 11.1504 23.0646 11.139 23.0093C11.1276 22.9539 11.134 22.8964 11.1574 22.845L11.3126 22.501L9.77978 23.3863C9.72445 23.418 9.6596 23.4289 9.59698 23.4168C9.53436 23.4048 9.47812 23.3708 9.43845 23.3208C9.39878 23.2709 9.37832 23.2084 9.38076 23.1447C9.38321 23.081 9.4084 23.0203 9.45178 22.9735L10.6923 21.6434L7.15417 23.6855C7.11447 23.7087 7.06946 23.7212 7.02351 23.7218Z" fill="#44C3A1"/>
        <path d="M11.8346 18.2487C11.7884 18.2487 11.7429 18.2367 11.7028 18.2139C11.6626 18.1911 11.629 18.1583 11.6054 18.1186C11.5817 18.0789 11.5688 18.0338 11.5678 17.9876C11.5668 17.9414 11.5779 17.8957 11.5999 17.8551L12.0372 17.0503L11.1572 17.5575C11.1073 17.5863 11.0495 17.5982 10.9923 17.5914C10.9351 17.5845 10.8816 17.5594 10.8399 17.5196C10.7981 17.4799 10.7704 17.4277 10.7608 17.3709C10.7511 17.3141 10.7602 17.2557 10.7866 17.2044L11.1919 16.422L10.8106 16.6418C10.7625 16.6695 10.7071 16.6815 10.6519 16.6762C10.5967 16.6709 10.5445 16.6486 10.5026 16.6123C10.4607 16.5759 10.4312 16.5275 10.4181 16.4736C10.4051 16.4197 10.4091 16.3631 10.4298 16.3116L10.5844 15.9271C10.5631 15.9088 10.5451 15.887 10.5311 15.8626C10.4959 15.8014 10.4863 15.7288 10.5045 15.6606C10.5227 15.5925 10.5671 15.5343 10.6282 15.4988L10.8735 15.357C10.9215 15.3293 10.977 15.3172 11.0322 15.3225C11.0874 15.3278 11.1395 15.3501 11.1814 15.3865C11.2233 15.4228 11.2528 15.4713 11.2659 15.5251C11.279 15.579 11.2749 15.6356 11.2543 15.6871L11.2116 15.7938L11.713 15.5042C11.7629 15.4741 11.8213 15.4612 11.8792 15.4675C11.9371 15.4737 11.9914 15.4988 12.0338 15.5389C12.0761 15.5789 12.1042 15.6317 12.1137 15.6892C12.1231 15.7467 12.1135 15.8057 12.0863 15.8572L11.6799 16.6396L12.5892 16.1154C12.6395 16.0865 12.6979 16.0748 12.7554 16.0821C12.8129 16.0893 12.8665 16.1151 12.9081 16.1556C12.9496 16.196 12.9768 16.2489 12.9856 16.3063C12.9944 16.3636 12.9842 16.4222 12.9567 16.4732L12.5119 17.2924C12.5744 17.2755 12.6409 17.2818 12.699 17.3102C12.7572 17.3387 12.803 17.3873 12.8279 17.447C12.8528 17.5068 12.8552 17.5735 12.8345 17.6349C12.8139 17.6962 12.7716 17.748 12.7156 17.7804L11.969 18.2119C11.9283 18.2361 11.8819 18.2488 11.8346 18.2487Z" fill="#3EA69B"/>
        <path d="M6.9173 18.3374C6.86664 18.3375 6.81699 18.3232 6.77418 18.2961C6.73137 18.269 6.69716 18.2303 6.67556 18.1844C6.65396 18.1386 6.64586 18.0876 6.65221 18.0373C6.65857 17.987 6.67911 17.9396 6.71143 17.9006L7.32157 17.1635L6.65757 17.5459C6.60859 17.5734 6.55221 17.5846 6.49645 17.5781C6.44069 17.5717 6.3884 17.5477 6.34703 17.5098C6.30567 17.4718 6.27732 17.4218 6.26605 17.3668C6.25477 17.3118 6.26114 17.2547 6.28423 17.2035L6.65757 16.3971L6.5733 16.4457C6.54295 16.465 6.50901 16.4779 6.47352 16.4838C6.43803 16.4896 6.40173 16.4882 6.3668 16.4796C6.33187 16.4711 6.29902 16.4555 6.27025 16.434C6.24148 16.4124 6.21737 16.3852 6.19937 16.3541C6.18137 16.3229 6.16986 16.2885 6.16552 16.2528C6.16118 16.2171 6.16411 16.1809 6.17413 16.1463C6.18415 16.1118 6.20106 16.0796 6.22383 16.0518C6.2466 16.0239 6.27477 16.001 6.30663 15.9843L7.11943 15.5145C7.16841 15.487 7.22479 15.4758 7.28055 15.4823C7.33631 15.4887 7.3886 15.5127 7.42997 15.5506C7.47133 15.5885 7.49968 15.6386 7.51095 15.6936C7.52223 15.7486 7.51586 15.8057 7.49277 15.8569L7.11943 16.6638L8.3365 15.9619C8.39062 15.9306 8.45401 15.9194 8.5156 15.9301C8.5772 15.9407 8.63308 15.9727 8.67348 16.0204C8.71388 16.0682 8.73623 16.1285 8.73664 16.1911C8.73705 16.2536 8.71548 16.3142 8.6757 16.3625L8.02023 17.1518C8.08083 17.1458 8.14164 17.1608 8.19255 17.1942C8.24347 17.2276 8.28143 17.2774 8.30012 17.3353C8.31882 17.3933 8.31712 17.4559 8.29531 17.5127C8.27349 17.5696 8.23289 17.6172 8.18023 17.6478L7.04743 18.3011C7.00798 18.3244 6.96311 18.3369 6.9173 18.3374Z" fill="#3EA69B"/>
        <path d="M12.5001 29.5838C12.4414 29.5838 12.3843 29.5644 12.3377 29.5287C12.2912 29.4929 12.2577 29.4428 12.2425 29.3861C12.2273 29.3294 12.2312 29.2693 12.2537 29.2151C12.2762 29.1608 12.3159 29.1155 12.3667 29.0862L13.5934 28.3795C13.6237 28.3602 13.6577 28.3473 13.6932 28.3414C13.7287 28.3356 13.765 28.337 13.7999 28.3455C13.8348 28.3541 13.8677 28.3696 13.8964 28.3912C13.9252 28.4128 13.9493 28.44 13.9673 28.4711C13.9853 28.5022 13.9968 28.5367 14.0012 28.5724C14.0055 28.6081 14.0026 28.6443 13.9926 28.6789C13.9825 28.7134 13.9656 28.7456 13.9429 28.7734C13.9201 28.8012 13.8919 28.8242 13.8601 28.8408L12.6334 29.5464C12.593 29.5704 12.547 29.5833 12.5001 29.5838Z" fill="#895F3D"/>
        <path d="M6.67837 31.718C6.62127 31.7181 6.56566 31.6998 6.51971 31.6659C6.47377 31.632 6.43992 31.5843 6.42314 31.5297C6.40636 31.4751 6.40754 31.4166 6.42651 31.3627C6.44548 31.3089 6.48123 31.2625 6.5285 31.2305L7.33864 30.6801L5.62824 31.6679C5.56862 31.701 5.49856 31.7101 5.43248 31.6931C5.36639 31.6762 5.30931 31.6346 5.27296 31.5769C5.23662 31.5192 5.22378 31.4497 5.23709 31.3828C5.25039 31.3159 5.28884 31.2566 5.3445 31.2172L7.88584 29.4764L4.70184 31.3143C4.64204 31.3483 4.57138 31.358 4.50464 31.3412C4.4379 31.3243 4.38025 31.2824 4.34374 31.224C4.30723 31.1657 4.2947 31.0955 4.30876 31.0281C4.32281 30.9607 4.36238 30.9014 4.41917 30.8625L6.98877 29.1201L3.88904 30.9089C3.82947 30.9426 3.75924 30.952 3.6929 30.9353C3.62655 30.9187 3.56915 30.8771 3.53257 30.8193C3.496 30.7615 3.48304 30.6918 3.49637 30.6247C3.50971 30.5576 3.54833 30.4982 3.60424 30.4588L7.7109 27.6188L2.78237 30.4647C2.72285 30.4988 2.65244 30.5087 2.5858 30.4923C2.51917 30.4759 2.46143 30.4344 2.42461 30.3765C2.38778 30.3185 2.37471 30.2487 2.3881 30.1813C2.40149 30.114 2.44032 30.0545 2.4965 30.0151L7.52317 26.5116L2.7797 29.2503C2.72001 29.2884 2.64762 29.3012 2.57846 29.286C2.5093 29.2707 2.44902 29.2286 2.4109 29.1689C2.37278 29.1092 2.35994 29.0368 2.37519 28.9677C2.39044 28.8985 2.43255 28.8383 2.49224 28.8001L6.3557 26.0663L2.77757 28.1335C2.71872 28.1674 2.64912 28.1776 2.58299 28.162C2.51686 28.1464 2.45918 28.1061 2.42174 28.0494C2.3843 27.9927 2.36992 27.9239 2.38154 27.8569C2.39315 27.79 2.42989 27.73 2.48424 27.6892L5.5205 25.4156L2.7749 27.0007C2.71529 27.0354 2.64455 27.0456 2.57755 27.0292C2.51054 27.0129 2.45248 26.9712 2.41555 26.913C2.37863 26.8547 2.36571 26.7844 2.37951 26.7168C2.39331 26.6492 2.43276 26.5896 2.48957 26.5505L2.7109 26.398C2.65088 26.4149 2.58685 26.4101 2.52994 26.3847C2.47303 26.3592 2.42684 26.3146 2.39939 26.2587C2.37194 26.2027 2.36497 26.1389 2.37969 26.0783C2.39441 26.0177 2.42989 25.9642 2.47997 25.9271L3.6309 25.0636L2.77117 25.5601C2.71289 25.5924 2.64467 25.6016 2.57991 25.5861C2.51516 25.5705 2.45856 25.5313 2.42125 25.4762C2.38395 25.421 2.36863 25.3539 2.37831 25.288C2.38799 25.2221 2.42197 25.1622 2.47357 25.1201L3.93544 23.9879L2.76904 24.6593C2.7231 24.6858 2.67029 24.698 2.61738 24.6944C2.56447 24.6907 2.51386 24.6713 2.472 24.6388C2.43015 24.6062 2.39896 24.5619 2.38243 24.5115C2.36589 24.4611 2.36476 24.4069 2.37917 24.3559L2.5157 23.8759C2.46832 23.8524 2.42911 23.8153 2.40317 23.7692C2.36798 23.708 2.35849 23.6353 2.37679 23.5672C2.39508 23.499 2.43967 23.4408 2.50077 23.4055L2.77224 23.2487C2.81817 23.2223 2.8709 23.2103 2.92371 23.214C2.97652 23.2178 3.02702 23.2372 3.06877 23.2697C3.11053 23.3023 3.14165 23.3465 3.15818 23.3968C3.17471 23.4471 3.17589 23.5012 3.16157 23.5521L3.07197 23.8684L7.07197 21.5607C7.1305 21.5266 7.19982 21.516 7.26585 21.5312C7.33188 21.5463 7.38967 21.586 7.42748 21.6422C7.46529 21.6984 7.4803 21.7669 7.46944 21.8338C7.45859 21.9007 7.42269 21.9609 7.36904 22.0023L5.90344 23.1361L7.20637 22.3841C7.26522 22.3502 7.33482 22.34 7.40095 22.3556C7.46708 22.3712 7.52476 22.4115 7.5622 22.4682C7.59964 22.5249 7.61402 22.5937 7.60241 22.6607C7.59079 22.7276 7.55406 22.7876 7.4997 22.8284L6.34877 23.6919L8.0341 22.7191C8.09355 22.6866 8.16313 22.678 8.2287 22.6949C8.29428 22.7119 8.35094 22.7532 8.38719 22.8104C8.42343 22.8676 8.43655 22.9365 8.42386 23.003C8.41118 23.0696 8.37366 23.1288 8.3189 23.1687L8.18397 23.262L9.12584 22.7201C9.18469 22.6862 9.25429 22.676 9.32042 22.6916C9.38655 22.7072 9.44423 22.7475 9.48167 22.8042C9.51911 22.8609 9.53349 22.9297 9.52187 22.9967C9.51026 23.0636 9.47352 23.1236 9.41917 23.1644L6.38397 25.4348L11.0901 22.7201C11.1495 22.6847 11.2204 22.6738 11.2877 22.6897C11.3551 22.7055 11.4136 22.7469 11.451 22.8051C11.4884 22.8634 11.5017 22.9338 11.4881 23.0016C11.4745 23.0695 11.435 23.1294 11.3781 23.1687L7.51464 25.902L12.6805 22.9201C12.7399 22.8872 12.8096 22.8783 12.8754 22.895C12.9412 22.9117 12.9982 22.9529 13.0346 23.0102C13.0711 23.0675 13.0843 23.1365 13.0717 23.2032C13.059 23.27 13.0213 23.3293 12.9664 23.3692L7.9397 26.8732L13.1205 23.8817C13.1801 23.8481 13.2503 23.8386 13.3166 23.8553C13.383 23.872 13.4404 23.9136 13.477 23.9714C13.5135 24.0292 13.5265 24.0988 13.5132 24.1659C13.4998 24.233 13.4612 24.2924 13.4053 24.3319L9.29864 27.1719L13.1018 24.9767C13.1616 24.9426 13.2323 24.933 13.299 24.9498C13.3658 24.9666 13.4234 25.0086 13.4599 25.0669C13.4964 25.1252 13.509 25.1954 13.4949 25.2628C13.4809 25.3302 13.4413 25.3895 13.3845 25.4284L10.8149 27.1708L13.6149 25.5548C13.6745 25.5216 13.7446 25.5126 13.8107 25.5295C13.8767 25.5464 13.9338 25.588 13.9702 25.6458C14.0065 25.7035 14.0194 25.773 14.0061 25.8399C13.9927 25.9068 13.9543 25.966 13.8986 26.0055L11.3557 27.7473L13.417 26.558C13.4769 26.5225 13.5482 26.5119 13.6158 26.5283C13.6834 26.5447 13.742 26.5868 13.7789 26.6458C13.8159 26.7047 13.8283 26.7758 13.8136 26.8438C13.7989 26.9118 13.7582 26.9713 13.7002 27.0097L12.8938 27.5564L13.3616 27.2865C13.42 27.2527 13.4892 27.2423 13.555 27.2574C13.6208 27.2726 13.6785 27.3121 13.7163 27.3681C13.754 27.4241 13.7692 27.4924 13.7586 27.5591C13.748 27.6258 13.7124 27.6861 13.6592 27.7276L11.6362 29.3063L13.6576 28.1393C13.7165 28.1055 13.7862 28.0956 13.8523 28.1114C13.9184 28.1273 13.9759 28.1677 14.0132 28.2246C14.0504 28.2815 14.0646 28.3504 14.0527 28.4173C14.0408 28.4842 14.0038 28.5441 13.9493 28.5847L12.9429 29.3276C12.987 29.3421 13.0265 29.3679 13.0576 29.4024C13.0887 29.4369 13.1102 29.4789 13.12 29.5242C13.1299 29.5696 13.1277 29.6167 13.1138 29.661C13.0998 29.7053 13.0746 29.7451 13.0405 29.7767L12.7621 30.0343L13.0869 29.8471C13.1395 29.8168 13.2008 29.8054 13.2607 29.8147C13.3206 29.824 13.3756 29.8534 13.4166 29.8982C13.4575 29.9429 13.482 30.0003 13.4859 30.0608C13.4899 30.1213 13.4731 30.1814 13.4384 30.2311L13.1237 30.6796C13.1824 30.6796 13.2395 30.699 13.286 30.7347C13.3326 30.7704 13.3661 30.8205 13.3813 30.8772C13.3965 30.9339 13.3925 30.9941 13.3701 31.0483C13.3476 31.1025 13.3079 31.1478 13.257 31.1772L12.3936 31.6759C12.341 31.7061 12.2797 31.7175 12.2198 31.7082C12.1598 31.6989 12.1049 31.6695 12.0639 31.6247C12.023 31.58 11.9985 31.5226 11.9945 31.4621C11.9906 31.4016 12.0073 31.3416 12.0421 31.2919L12.3088 30.9105L10.9712 31.6801C10.9144 31.7131 10.8474 31.724 10.7831 31.7106C10.7188 31.6973 10.6616 31.6607 10.6226 31.6078C10.5836 31.5549 10.5655 31.4895 10.5718 31.4242C10.578 31.3588 10.6082 31.298 10.6565 31.2535L10.9333 30.9969L9.74984 31.6801C9.69086 31.7139 9.62121 31.7239 9.55511 31.7081C9.48902 31.6922 9.43147 31.6517 9.39423 31.5949C9.35698 31.538 9.34285 31.4691 9.35472 31.4022C9.3666 31.3352 9.40357 31.2754 9.4581 31.2348L9.8245 30.9644L8.58397 31.6801C8.52553 31.7133 8.45672 31.7232 8.3913 31.7078C8.32588 31.6924 8.26868 31.6529 8.23113 31.5972C8.19359 31.5415 8.17848 31.4736 8.18882 31.4072C8.19916 31.3408 8.23419 31.2807 8.2869 31.2391L10.3098 29.6604L6.8117 31.6801C6.77145 31.7044 6.7254 31.7175 6.67837 31.718Z" fill="#FCE3D2"/>
        <path d="M3.79498 22.9865C3.74098 22.9866 3.68822 22.9703 3.64369 22.9397C3.59915 22.9092 3.56494 22.8659 3.54557 22.8154C3.5262 22.765 3.5226 22.7099 3.53523 22.6574C3.54786 22.6049 3.57614 22.5575 3.61632 22.5214L4.60672 21.6334C4.59953 21.6239 4.59294 21.6139 4.58699 21.6035C4.55163 21.5423 4.54204 21.4695 4.56035 21.4012C4.57865 21.3329 4.62334 21.2746 4.68459 21.2393L5.71339 20.6457C5.7701 20.6152 5.83591 20.6064 5.89867 20.6206C5.96143 20.6349 6.01691 20.6714 6.05486 20.7234C6.09281 20.7754 6.11068 20.8394 6.10516 20.9035C6.09965 20.9676 6.07112 21.0276 6.02485 21.0723L5.86112 21.2201L6.91925 20.6089C6.94959 20.5911 6.98315 20.5795 7.01799 20.5747C7.05284 20.57 7.08828 20.5721 7.12228 20.5811C7.15628 20.5901 7.18817 20.6057 7.2161 20.6271C7.24404 20.6485 7.26747 20.6751 7.28506 20.7056C7.30264 20.7361 7.31403 20.7697 7.31856 20.8046C7.3231 20.8394 7.32069 20.8749 7.31147 20.9088C7.30226 20.9427 7.28642 20.9745 7.26487 21.0023C7.24333 21.0301 7.21649 21.0534 7.18592 21.0707L3.93259 22.9502C3.89096 22.9748 3.84332 22.9873 3.79498 22.9865Z" fill="#FCE3D2"/>
        <path d="M1.55438 31.5581C1.50439 31.5581 1.45541 31.544 1.41302 31.5176C1.37062 31.4911 1.33653 31.4532 1.31462 31.4083C1.29271 31.3633 1.28387 31.3132 1.28911 31.2635C1.29435 31.2137 1.31345 31.1665 1.34424 31.1271L2.09358 30.1671L1.19758 30.685C1.14219 30.7171 1.07711 30.7282 1.01423 30.7162C0.951346 30.7043 0.894855 30.6701 0.855069 30.62C0.815283 30.5699 0.794857 30.5071 0.797521 30.4431C0.800184 30.3792 0.82576 30.3183 0.869578 30.2717L1.70958 29.3815L1.18264 29.685C1.12814 29.7155 1.06467 29.7258 1.00329 29.7143C0.941924 29.7028 0.886546 29.6701 0.846814 29.6219C0.807082 29.5737 0.785516 29.5131 0.785874 29.4507C0.786233 29.3883 0.808495 29.3279 0.848778 29.2802L1.88664 28.0935L1.18051 28.5005C1.12416 28.5339 1.05748 28.5454 0.993191 28.5328C0.928901 28.5202 0.871502 28.4843 0.831941 28.4321C0.79238 28.3799 0.773427 28.3149 0.778696 28.2496C0.783966 28.1843 0.813089 28.1233 0.860511 28.0781L1.39758 27.5597L1.17891 27.6855C1.12407 27.7169 1.05987 27.7278 0.997757 27.7162C0.935645 27.7047 0.879652 27.6714 0.839757 27.6224C0.799862 27.5735 0.778656 27.5119 0.779917 27.4487C0.781179 27.3856 0.804825 27.3249 0.846644 27.2775L1.84824 26.1522L1.17891 26.5389C1.12352 26.5709 1.05844 26.582 0.995562 26.5701C0.93268 26.5582 0.876188 26.524 0.836402 26.4739C0.796616 26.4237 0.77619 26.361 0.778854 26.297C0.781518 26.2331 0.807093 26.1722 0.850911 26.1255L1.72664 25.1901L1.17891 25.5058C1.12386 25.5371 1.05945 25.5479 0.997215 25.536C0.934982 25.5242 0.878993 25.4906 0.839272 25.4413C0.799551 25.3919 0.778694 25.33 0.780436 25.2667C0.782178 25.2034 0.806405 25.1428 0.848778 25.0957L1.68558 24.1789L1.17891 24.4711C1.1281 24.4996 1.0694 24.5106 1.01175 24.5025C0.954101 24.4944 0.90068 24.4677 0.85964 24.4264C0.818599 24.3851 0.792194 24.3315 0.784455 24.2739C0.776716 24.2162 0.788068 24.1575 0.816778 24.1069L1.36451 23.1389L1.33891 23.1533C1.27797 23.1852 1.20706 23.1923 1.14101 23.1731C1.07495 23.1539 1.01885 23.11 0.984433 23.0504C0.950013 22.9909 0.939931 22.9204 0.956295 22.8535C0.972658 22.7867 1.0142 22.7288 1.07224 22.6919L1.94531 22.1874C1.99597 22.158 2.0549 22.1461 2.11301 22.1535C2.17111 22.1609 2.22516 22.1873 2.26679 22.2285C2.30842 22.2697 2.33533 22.3235 2.34335 22.3815C2.35137 22.4395 2.34007 22.4986 2.31118 22.5495L1.76238 23.5202L2.91384 22.8551C2.96897 22.8231 3.03375 22.8119 3.09644 22.8235C3.15914 22.8351 3.2156 22.8688 3.25559 22.9184C3.29558 22.9681 3.31645 23.0304 3.31441 23.0942C3.31238 23.1579 3.28758 23.2188 3.24451 23.2658L2.40664 24.1831L3.01731 23.8311C3.07264 23.7995 3.13749 23.7886 3.20011 23.8007C3.26273 23.8127 3.31897 23.8467 3.35864 23.8966C3.3983 23.9466 3.41877 24.009 3.41632 24.0728C3.41388 24.1365 3.38869 24.1972 3.34531 24.2439L2.46958 25.1799L3.01784 24.8637C3.07275 24.832 3.13715 24.8209 3.1995 24.8324C3.26185 24.8438 3.31807 24.8772 3.35807 24.9263C3.39808 24.9755 3.41925 25.0374 3.41779 25.1007C3.41633 25.1641 3.39233 25.2249 3.35011 25.2722L2.34851 26.397L3.01784 26.0109C3.07419 25.9775 3.14087 25.966 3.20516 25.9786C3.26945 25.9912 3.32685 26.027 3.36641 26.0792C3.40597 26.1314 3.42493 26.1964 3.41966 26.2617C3.41439 26.327 3.38527 26.3881 3.33784 26.4333L2.79918 26.9533L3.01944 26.8263C3.07413 26.7949 3.13818 26.7839 3.20021 26.7953C3.26224 26.8066 3.31824 26.8396 3.35827 26.8883C3.3983 26.9371 3.41977 26.9984 3.41886 27.0614C3.41795 27.1245 3.39473 27.1852 3.35331 27.2327L2.31331 28.4178L3.01784 28.0114C3.07323 27.9797 3.13814 27.9689 3.2008 27.981C3.26345 27.9931 3.3197 28.0272 3.35933 28.0772C3.39895 28.1273 3.41933 28.1898 3.41676 28.2536C3.41419 28.3174 3.38884 28.3781 3.34531 28.4247L2.50584 29.3149L3.01784 29.0194C3.07139 28.989 3.13382 28.978 3.19453 28.9884C3.25524 28.9988 3.31048 29.0299 3.35088 29.0763C3.39127 29.1228 3.41433 29.1819 3.41613 29.2434C3.41794 29.305 3.39838 29.3653 3.36078 29.4141L2.61411 30.3741L3.02051 30.1399C3.08145 30.1081 3.15236 30.101 3.21842 30.1201C3.28447 30.1393 3.34057 30.1832 3.37499 30.2428C3.40941 30.3023 3.41949 30.3729 3.40313 30.4397C3.38676 30.5065 3.34522 30.5644 3.28718 30.6013L1.68771 31.5202C1.64738 31.5444 1.60138 31.5574 1.55438 31.5581Z" fill="#5E6A7C"/>
        <path d="M26.0692 26.6318C26.0601 26.6398 26.0516 26.6473 26.042 26.6548C26.0529 26.6497 26.0629 26.643 26.0719 26.635L26.0692 26.6318Z" fill="#262626"/>
        <path d="M32.356 4.16023C32.356 3.66956 32.3651 3.17836 32.356 2.68769C32.3579 2.07975 32.1276 1.49402 31.7122 1.05015C31.2968 0.606275 30.7275 0.337751 30.1208 0.299426C30.0736 0.280991 30.0232 0.272283 29.9725 0.273826H16.3245C15.5779 0.273826 14.8339 0.26636 14.0888 0.273826C12.6579 0.287693 11.3688 1.18689 11.3101 2.71009C11.2333 4.71543 11.3101 6.73836 11.3101 8.74529V15.4088C10.9074 15.3501 10.5015 15.3145 10.0947 15.3021C9.59245 15.2905 9.08996 15.3073 8.58961 15.3522C8.50958 15.3441 8.42874 15.3499 8.35068 15.3693C7.76372 15.4299 7.18611 15.5604 6.63015 15.7581C6.25681 15.8957 5.95228 16.141 5.99014 16.5714C6.00188 16.7138 6.03495 16.8568 6.05735 16.9981L6.37201 18.9949C6.45735 19.5389 6.54303 20.0827 6.62908 20.6264H6.29521C5.96817 20.6228 5.64389 20.6866 5.34257 20.8137C5.04125 20.9409 4.76933 21.1287 4.54375 21.3656C4.13681 21.8296 3.75921 22.3256 3.37041 22.8056C3.30844 22.6906 3.22438 22.5891 3.12306 22.5067C3.02175 22.4243 2.90517 22.3628 2.78001 22.3256C1.90108 22.0344 0.690413 22.6013 0.64668 23.5837C0.588013 24.9106 0.64668 26.253 0.64668 27.581V30.0738C0.64668 30.2173 0.639213 30.3629 0.64668 30.5064C0.658467 30.7942 0.778529 31.067 0.982837 31.2701C1.18715 31.4732 1.46063 31.5917 1.74855 31.6018C1.77959 31.6123 1.81238 31.6167 1.84508 31.6146C2.13688 31.6266 2.42715 31.5666 2.69034 31.4401C2.95353 31.3135 3.18158 31.1242 3.35441 30.8888C3.89915 31.2308 4.48355 31.5052 5.09468 31.7058C5.752 31.8033 6.41867 31.8213 7.08028 31.7592C8.77788 31.7592 10.5037 31.852 12.2003 31.7592C12.565 31.7581 12.9169 31.6245 13.1905 31.3834C13.4641 31.1422 13.6408 30.8099 13.6877 30.4482C13.7014 30.2697 13.6761 30.0902 13.6137 29.9224C13.5513 29.7545 13.4532 29.6022 13.3261 29.476C13.5037 29.4156 13.6663 29.3181 13.8032 29.19C13.9401 29.0619 14.0482 28.9061 14.1203 28.733C14.2404 28.4566 14.2562 28.1461 14.1649 27.8589C14.0736 27.5717 13.8814 27.3272 13.6237 27.1709C13.6925 27.1205 13.7572 27.0649 13.8173 27.0045C14.3443 27.3597 14.8349 27.6258 15.5005 27.2312C15.7475 27.0845 16.1213 26.6701 16.4019 26.6333C16.6307 26.6034 17.1693 27.1133 17.3864 27.244C18.2888 27.7816 18.6963 27.0669 19.4568 26.7293C19.6568 26.6408 19.5635 26.6285 19.7491 26.6888C19.949 26.7899 20.1364 26.9142 20.3075 27.0589C20.5945 27.3222 20.9725 27.4639 21.3619 27.4541C21.7253 27.3531 22.0627 27.175 22.3512 26.932C22.4579 26.8626 22.6712 26.6504 22.8019 26.6333C22.9187 26.6178 23.1219 26.804 23.2397 26.8818C23.5176 27.1169 23.8322 27.3046 24.1709 27.4376C24.3751 27.4653 24.5828 27.4486 24.7799 27.3886C24.977 27.3286 25.1588 27.2267 25.3128 27.0898C25.4973 26.9677 25.8312 26.8232 26.0424 26.6578C25.9416 26.6882 25.9619 26.4552 26.0696 26.6349C26.1151 26.5987 26.1553 26.5563 26.1891 26.509C26.1597 26.5598 26.1199 26.6038 26.0723 26.6381C26.1139 26.7048 26.2931 26.7842 26.356 26.8264C26.5437 26.9512 26.7293 27.0973 26.9261 27.2056C27.0289 27.276 27.1476 27.3198 27.2715 27.3331C27.3954 27.3464 27.5207 27.3287 27.636 27.2816C27.7514 27.2346 27.8533 27.1597 27.9326 27.0635C28.0119 26.9674 28.0661 26.8531 28.0904 26.7309C28.1448 25.9777 28.1448 25.2216 28.0904 24.4685V17.6685C28.1405 17.6968 28.1907 17.7256 28.2424 17.749C28.4542 17.8309 28.6843 17.8534 28.908 17.8142C29.1316 17.7751 29.3404 17.6756 29.5117 17.5266C29.704 17.3762 29.9075 17.2405 30.1203 17.1208C30.3411 17.0237 30.2669 17.0066 30.4813 17.1256C30.8013 17.3032 31.0931 17.6424 31.4632 17.7149C32.7107 17.9581 32.3565 16.0429 32.3565 15.3768L32.356 4.16023ZM12.252 17.3218L12.1693 17.8482C11.8502 17.7307 11.5722 17.5228 11.3693 17.2498C11.2177 17.0392 11.1128 16.7987 11.0618 16.5442C11.0107 16.2898 11.0147 16.0274 11.0733 15.7746H11.0893C11.1597 15.7869 11.2493 15.7997 11.3395 15.8141C11.4115 15.9474 11.6248 15.9666 11.8083 15.9112C11.9818 15.9472 12.1413 16.0321 12.268 16.156C12.5 16.4376 12.3016 17.0082 12.252 17.3218ZM10.3747 15.6909C10.2608 15.992 10.2252 16.317 10.2711 16.6356C10.317 16.9543 10.4429 17.256 10.6371 17.5128C10.8133 17.7366 11.0349 17.9206 11.2873 18.0526C11.5397 18.1846 11.8173 18.2616 12.1016 18.2786L11.9315 19.356C11.759 20.4504 11.5866 21.5449 11.4141 22.6397C11.3277 22.6424 11.244 22.6445 11.164 22.6445H7.75335L7.30108 19.7752C7.22108 19.2685 7.12668 18.7592 7.03708 18.2488C7.58688 18.1396 8.08342 17.8472 8.44561 17.4194C8.64312 17.1759 8.77944 16.8886 8.84318 16.5815C8.90693 16.2745 8.89624 15.9567 8.81201 15.6546C8.89361 15.6504 8.97521 15.6402 9.05734 15.6376C9.49713 15.6283 9.93708 15.6461 10.3747 15.6909ZM7.33094 15.8418C7.54428 15.7917 7.76668 15.7613 7.98588 15.7309C8.11697 16.0533 8.14697 16.4079 8.07192 16.7478C7.99686 17.0876 7.82029 17.3966 7.56561 17.6338C7.52493 17.6719 7.48201 17.7075 7.43708 17.7405C7.41468 17.757 7.39121 17.773 7.36828 17.7885L7.32561 17.8162C7.34428 17.804 7.34428 17.8045 7.32561 17.8162C7.30694 17.8285 7.27601 17.8434 7.25095 17.8562C7.23868 17.8626 7.20081 17.8792 7.19761 17.8818L7.12081 17.9112L7.10908 17.916L7.09094 17.9202C7.08241 17.9202 7.01841 17.9357 7.02428 17.9357L6.98481 17.9421C6.89628 17.4226 6.81521 16.9021 6.76614 16.3821C6.72455 15.9672 7.00668 15.9181 7.33094 15.8402V15.8418ZM2.78055 27.6226V29.8397C2.78055 30.0365 2.78375 30.2333 2.78055 30.4296V30.5037C2.77041 30.6568 2.62481 31.3224 2.35388 31.3224C1.59335 31.2786 1.41948 30.5901 1.41948 29.9736V24.0002C1.35406 23.5812 1.42178 23.1521 1.61308 22.7736C1.81628 22.4946 2.01628 22.5069 2.30641 22.6925C2.42631 22.7702 2.52876 22.8719 2.60725 22.9913C2.68575 23.1106 2.73859 23.245 2.76241 23.3858C2.78019 23.5168 2.78626 23.649 2.78055 23.781V27.6226ZM13.2867 28.8002C13.0467 29.1202 12.6168 29.0445 12.2659 29.0445C11.9149 29.0445 11.6259 29.588 12.1011 29.62C12.9176 29.6733 13.2899 30.9928 12.3549 31.1666C12.2099 31.1831 12.0638 31.1865 11.9181 31.1768H6.92134C6.45478 31.2153 5.9857 31.2119 5.51974 31.1666C5.12186 31.0381 4.7422 30.8589 4.39015 30.6333L3.55281 30.2146C3.56241 29.6776 3.55281 29.14 3.55281 28.6029V23.773C3.55281 23.6557 3.54766 23.5396 3.53735 23.4248L4.59975 22.1229C4.77841 21.9037 4.95761 21.6856 5.13308 21.4664C5.21975 21.3261 5.33829 21.2083 5.47905 21.1225C5.61982 21.0367 5.77885 20.9853 5.94321 20.9725C6.18855 20.9693 6.43441 20.9725 6.68028 20.9725C6.76775 21.53 6.85557 22.0873 6.94374 22.6445H6.39921C5.95388 22.6445 5.80988 23.2226 6.33415 23.2226H11.9187C12.0588 23.2129 12.1995 23.2242 12.3363 23.2562C13.0749 23.4696 13.1197 24.7202 12.2659 24.7778C11.8248 24.8077 11.6733 25.356 12.2008 25.356C12.5603 25.356 12.9101 25.3064 13.1896 25.5848C13.2977 25.6812 13.3763 25.8063 13.416 25.9456C13.4558 26.0849 13.4552 26.2326 13.4143 26.3716C13.3734 26.5105 13.2939 26.635 13.185 26.7305C13.0761 26.8261 12.9423 26.8887 12.7992 26.9112C12.4664 26.9336 12.1469 27.4541 12.6344 27.4866C12.784 27.4932 12.9291 27.5398 13.0546 27.6215C13.1801 27.7031 13.2814 27.8169 13.348 27.951C13.4146 28.0852 13.444 28.2347 13.4332 28.384C13.4224 28.5333 13.3718 28.6771 13.2867 28.8002ZM26.5667 26.141C26.4215 26.0692 26.2595 26.0385 26.0981 26.0523C25.9368 26.0662 25.7823 26.124 25.6515 26.2194C25.3379 26.3912 24.9949 26.8061 24.6504 26.8834C24.4099 26.9368 24.0269 26.5789 23.7912 26.4226C23.6483 26.2973 23.4795 26.2051 23.2969 26.1526C23.1143 26.1 22.9223 26.0884 22.7347 26.1186C22.2717 26.2253 21.9651 26.6354 21.5448 26.821C21.3261 26.9176 21.412 26.9277 21.1891 26.821C20.9809 26.7026 20.7812 26.57 20.5912 26.4242C20.4236 26.2746 20.2179 26.1742 19.9969 26.1339C19.7759 26.0936 19.548 26.1151 19.3384 26.196C18.9747 26.3512 18.636 26.788 18.2632 26.8765C17.9741 26.9448 17.58 26.5405 17.2963 26.3618C17.1075 26.2141 16.8782 26.1275 16.6388 26.1136C16.3995 26.0996 16.1617 26.1591 15.9571 26.284C15.6936 26.429 15.2952 26.8909 14.9971 26.9186C14.8019 26.9368 14.4173 26.6109 14.1731 26.4232C14.2457 26.1807 14.2401 25.9215 14.1571 25.6824C14.0954 25.4853 13.9832 25.3078 13.8317 25.1675C13.6803 25.0272 13.4948 24.9289 13.2936 24.8824C13.4489 24.7287 13.5646 24.5396 13.6307 24.3314C13.7135 24.0574 13.7031 23.7635 13.6011 23.496C13.4991 23.2285 13.3112 23.0023 13.0669 22.853C12.7886 22.7026 12.4766 22.6255 12.1603 22.629C12.3274 21.5681 12.4945 20.5071 12.6616 19.4461L13.0168 17.1922C13.0701 16.868 13.2563 16.301 13.0739 15.9938C12.8915 15.6866 12.4408 15.6045 12.0909 15.5373V3.05996C12.0909 1.95596 12.4883 0.86796 13.7869 0.793293C14.4403 0.75596 15.1069 0.793293 15.7603 0.793293H28.3512C28.0115 1.06598 27.7405 1.41444 27.5597 1.81073C27.3789 2.20703 27.2934 2.64016 27.3101 3.07543V25.9773C27.3101 26.0925 27.2707 26.3448 27.2717 26.5432C27.0445 26.3953 26.8087 26.261 26.5656 26.141H26.5667ZM31.1667 16.765C30.9907 16.6262 30.7787 16.5406 30.5556 16.5185C30.3325 16.4964 30.1078 16.5386 29.908 16.6402C29.6061 16.7922 29.22 17.2594 28.9005 17.3026C28.6872 17.3314 28.3309 17.0301 28.0899 16.8525V3.84983C28.0899 2.57516 28.004 0.888226 29.7667 0.795426C31.6733 0.940493 31.58 2.74689 31.58 4.14956V16.404C31.58 16.4765 31.5448 16.7618 31.5421 16.98C31.4109 16.8984 31.2589 16.8237 31.1667 16.765Z" fill="#262626"/>
        <path d="M17.1163 4.63454C17.291 4.63454 17.4365 4.489 17.4365 4.31436C17.4365 4.13972 17.2968 4 17.1163 4H15.3233H14.6014C14.4268 4 14.2812 4.14554 14.2812 4.32018C14.2812 4.49483 14.4268 4.64036 14.6014 4.64036H15.3233C15.6318 4.64036 15.8938 4.82083 16.0161 5.08279H14.6014C14.4268 5.08279 14.2812 5.22833 14.2812 5.40298C14.2812 5.57762 14.4268 5.72316 14.6014 5.72316H16.0161C15.8938 5.98512 15.6318 6.16559 15.3233 6.16559H14.6014C14.4734 6.16559 14.3511 6.24709 14.3045 6.36352C14.258 6.48577 14.2871 6.62549 14.3802 6.71281L16.1791 8.41268C16.2373 8.47089 16.3188 8.5 16.4003 8.5C16.4876 8.5 16.5691 8.46507 16.6331 8.40103C16.7554 8.27296 16.7496 8.07503 16.6215 7.95278L15.399 6.80013C16.0277 6.7652 16.5458 6.31695 16.6855 5.72316H17.1221C17.2968 5.72316 17.4423 5.57762 17.4423 5.40298C17.4423 5.22833 17.2968 5.08279 17.1221 5.08279H16.6855C16.6448 4.92561 16.5866 4.76843 16.4934 4.64036L17.1163 4.63454Z" fill="#262626"/>
        <path d="M17.1163 12.6345C17.291 12.6345 17.4365 12.489 17.4365 12.3144C17.4365 12.1397 17.2968 12 17.1163 12H15.3233H14.6014C14.4268 12 14.2812 12.1455 14.2812 12.3202C14.2812 12.4948 14.4268 12.6404 14.6014 12.6404H15.3233C15.6318 12.6404 15.8938 12.8208 16.0161 13.0828H14.6014C14.4268 13.0828 14.2812 13.2283 14.2812 13.403C14.2812 13.5776 14.4268 13.7232 14.6014 13.7232H16.0161C15.8938 13.9851 15.6318 14.1656 15.3233 14.1656H14.6014C14.4734 14.1656 14.3511 14.2471 14.3045 14.3635C14.258 14.4858 14.2871 14.6255 14.3802 14.7128L16.1791 16.4127C16.2373 16.4709 16.3188 16.5 16.4003 16.5C16.4876 16.5 16.5691 16.4651 16.6331 16.401C16.7554 16.273 16.7496 16.075 16.6215 15.9528L15.399 14.8001C16.0277 14.7652 16.5458 14.3169 16.6855 13.7232H17.1221C17.2968 13.7232 17.4423 13.5776 17.4423 13.403C17.4423 13.2283 17.2968 13.0828 17.1221 13.0828H16.6855C16.6448 12.9256 16.5866 12.7684 16.4934 12.6404L17.1163 12.6345Z" fill="#262626"/>
        <path d="M17.1163 19.6345C17.291 19.6345 17.4365 19.489 17.4365 19.3144C17.4365 19.1397 17.2968 19 17.1163 19H15.3233H14.6014C14.4268 19 14.2812 19.1455 14.2812 19.3202C14.2812 19.4948 14.4268 19.6404 14.6014 19.6404H15.3233C15.6318 19.6404 15.8938 19.8208 16.0161 20.0828H14.6014C14.4268 20.0828 14.2812 20.2283 14.2812 20.403C14.2812 20.5776 14.4268 20.7232 14.6014 20.7232H16.0161C15.8938 20.9851 15.6318 21.1656 15.3233 21.1656H14.6014C14.4734 21.1656 14.3511 21.2471 14.3045 21.3635C14.258 21.4858 14.2871 21.6255 14.3802 21.7128L16.1791 23.4127C16.2373 23.4709 16.3188 23.5 16.4003 23.5C16.4876 23.5 16.5691 23.4651 16.6331 23.401C16.7554 23.273 16.7496 23.075 16.6215 22.9528L15.399 21.8001C16.0277 21.7652 16.5458 21.3169 16.6855 20.7232H17.1221C17.2968 20.7232 17.4423 20.5776 17.4423 20.403C17.4423 20.2283 17.2968 20.0828 17.1221 20.0828H16.6855C16.6448 19.9256 16.5866 19.7684 16.4934 19.6404L17.1163 19.6345Z" fill="#262626"/>
        <path d="M19.5597 4.52485H22.2264C22.3232 4.53464 22.421 4.5188 22.5098 4.47893C22.5986 4.43905 22.6754 4.37654 22.7325 4.29765C22.8152 4.13765 22.6605 4.00965 22.5069 4.00965H19.8402C19.7434 3.99986 19.6456 4.0157 19.5568 4.05557C19.468 4.09545 19.3912 4.15796 19.3341 4.23685C19.2514 4.39472 19.4061 4.52485 19.5597 4.52485Z" fill="#262626"/>
        <path d="M19.5571 6.64636H20.0904C20.1945 6.64949 20.2981 6.62984 20.3939 6.58876C20.4384 6.57157 20.4793 6.54605 20.5144 6.51356C20.5484 6.49035 20.5766 6.45971 20.5971 6.42396C20.6153 6.39661 20.6244 6.36421 20.6232 6.33137C20.6219 6.29853 20.6104 6.26691 20.5901 6.24102C20.5331 6.18542 20.4565 6.1544 20.3768 6.15462H19.8435C19.7393 6.15149 19.6357 6.17115 19.54 6.21222C19.4954 6.22941 19.4545 6.25493 19.4195 6.28742C19.3855 6.31064 19.3572 6.34128 19.3368 6.37702C19.3186 6.40437 19.3094 6.43677 19.3107 6.46961C19.3119 6.50246 19.3235 6.53407 19.3437 6.55996C19.4008 6.61556 19.4774 6.64658 19.5571 6.64636Z" fill="#262626"/>
        <path d="M25.0702 6.12598H22.4035C22.2392 6.12598 21.9976 6.25238 21.9768 6.43211C21.9528 6.63211 22.1859 6.67425 22.3309 6.67425H24.9976C25.1619 6.67425 25.4035 6.54785 25.4243 6.36811C25.4483 6.16811 25.2152 6.12598 25.0702 6.12598Z" fill="#262626"/>
        <path d="M19.5566 8.77908H20.0899C20.1942 8.7822 20.298 8.76255 20.3939 8.72148C20.4384 8.70416 20.4793 8.67865 20.5144 8.64628C20.5484 8.62326 20.5767 8.5928 20.5971 8.55721C20.6153 8.52986 20.6245 8.49746 20.6232 8.46462C20.622 8.43178 20.6104 8.40017 20.5902 8.37428C20.5331 8.31877 20.4565 8.28793 20.3768 8.28841H19.8435C19.7392 8.28528 19.6354 8.30494 19.5395 8.34601C19.495 8.36333 19.4541 8.38883 19.419 8.42121C19.385 8.44423 19.3567 8.47469 19.3363 8.51028C19.3181 8.53762 19.3089 8.57002 19.3102 8.60287C19.3114 8.63571 19.323 8.66732 19.3432 8.69321C19.4003 8.74871 19.4769 8.77955 19.5566 8.77908Z" fill="#262626"/>
        <path d="M25.1895 8.33743H22.5229C22.4281 8.33376 22.3337 8.34978 22.2455 8.38448C22.1572 8.41918 22.0772 8.4718 22.0103 8.53903C21.9037 8.68356 22.1042 8.72996 22.2103 8.72996H24.877C24.9717 8.73363 25.0662 8.71761 25.1544 8.68291C25.2426 8.64821 25.3227 8.59559 25.3895 8.52836C25.4978 8.38383 25.2957 8.33743 25.1895 8.33743Z" fill="#262626"/>
        <path d="M19.9539 11.5889C19.7626 11.5903 19.5747 11.6402 19.4078 11.7339C19.3774 11.7521 19.3011 11.7915 19.3139 11.8363C19.3267 11.8811 19.4206 11.8779 19.4462 11.8779H22.1129C22.3042 11.8768 22.492 11.8273 22.659 11.7339C22.6894 11.7158 22.7657 11.6763 22.7529 11.6315C22.7401 11.5867 22.6462 11.5899 22.6206 11.5899H19.9539V11.5889Z" fill="#262626"/>
        <path d="M19.54 14.0459H20.0733C20.1234 14.0443 20.1731 14.0374 20.2216 14.0251C20.2741 14.0153 20.3256 14.0005 20.3752 13.9808C20.4192 13.9661 20.4611 13.9458 20.5 13.9206C20.533 13.903 20.5629 13.8801 20.5885 13.8528C20.6163 13.8166 20.6445 13.7664 20.5971 13.7296L20.5485 13.7051C20.499 13.6912 20.4474 13.6859 20.396 13.6896H19.8627C19.8126 13.6912 19.7629 13.6982 19.7144 13.7104C19.6619 13.7202 19.6105 13.735 19.5608 13.7547C19.517 13.7698 19.4752 13.7904 19.4365 13.816C19.4035 13.8336 19.3736 13.8565 19.348 13.8838C19.3203 13.92 19.292 13.9702 19.3395 14.007L19.388 14.0315C19.4375 14.045 19.4889 14.0499 19.54 14.0459Z" fill="#262626"/>
        <path d="M25.1732 13.6093H22.5065C22.4098 13.5994 22.3121 13.6152 22.2234 13.655C22.1347 13.6948 22.0579 13.7572 22.0009 13.836C21.9188 13.996 22.0724 14.1245 22.2271 14.1245H24.8937C24.9905 14.1344 25.0881 14.1186 25.1769 14.0788C25.2656 14.039 25.3423 13.9766 25.3993 13.8978C25.4815 13.7394 25.3279 13.6093 25.1732 13.6093Z" fill="#262626"/>
        <path d="M19.4474 16.15H19.9807C20.0759 16.1482 20.1706 16.1342 20.2623 16.1084C20.3559 16.086 20.4457 16.05 20.529 16.0017L20.5823 15.9638C20.5942 15.9569 20.6041 15.9468 20.6108 15.9347C20.6174 15.9226 20.6207 15.9089 20.6202 15.895C20.5999 15.8497 20.5258 15.8486 20.4868 15.8486H19.9535C19.8582 15.8504 19.7636 15.8644 19.6719 15.8902C19.5783 15.9126 19.4884 15.9486 19.4052 15.9969L19.3519 16.0348C19.3399 16.0417 19.3301 16.0518 19.3234 16.0639C19.3167 16.076 19.3135 16.0897 19.314 16.1036C19.3343 16.1489 19.4084 16.15 19.4474 16.15Z" fill="#262626"/>
        <path d="M25.3293 16.011C25.4445 15.9363 25.4413 15.8419 25.2839 15.8419H22.6172C22.4249 15.8389 22.2356 15.8897 22.0706 15.9886C21.9554 16.0633 21.9586 16.1577 22.1159 16.1577H24.7826C24.9749 16.1607 25.1643 16.1099 25.3293 16.011Z" fill="#262626"/>
        <path d="M22.7263 19.2078C22.825 19.0569 22.6426 18.9806 22.5172 18.9806H19.8505C19.7549 18.9749 19.6592 18.9912 19.5709 19.0281C19.4825 19.0651 19.4038 19.1218 19.3407 19.1939C19.242 19.3449 19.4244 19.4212 19.5497 19.4212H22.2164C22.3121 19.4269 22.4077 19.4106 22.4961 19.3736C22.5845 19.3366 22.6632 19.2799 22.7263 19.2078Z" fill="#262626"/>
        <path d="M20.2641 21.039H19.7308C19.6772 21.0411 19.6245 21.0534 19.5756 21.0753C19.5262 21.0897 19.4803 21.114 19.4406 21.1468C19.4032 21.1724 19.3726 21.2068 19.3516 21.2471C19.3262 21.2797 19.3108 21.3189 19.3073 21.3601C19.3043 21.3995 19.3116 21.4389 19.3286 21.4745C19.3455 21.5102 19.3714 21.5408 19.4038 21.5633C19.4838 21.6121 19.577 21.635 19.6705 21.6289H20.2038C20.2574 21.6269 20.3101 21.6146 20.359 21.5927C20.4084 21.5782 20.4543 21.5539 20.494 21.5212C20.5313 21.4954 20.5618 21.461 20.583 21.4209C20.6084 21.3883 20.6238 21.349 20.6273 21.3079C20.6303 21.2685 20.6229 21.2291 20.606 21.1934C20.5891 21.1578 20.5631 21.1272 20.5308 21.1047C20.4507 21.0559 20.3576 21.033 20.2641 21.039Z" fill="#262626"/>
        <path d="M22.0006 21.3027C21.9179 21.4627 22.0726 21.5902 22.2262 21.5902H24.8929C24.9897 21.5998 25.0873 21.584 25.1761 21.5442C25.2649 21.5045 25.3418 21.4422 25.399 21.3635C25.4817 21.2035 25.327 21.076 25.1734 21.076H22.5067C22.4099 21.0663 22.3123 21.0822 22.2235 21.1219C22.1347 21.1617 22.0578 21.224 22.0006 21.3027Z" fill="#262626"/>
        <path d="M20.3873 23.2625H19.854C19.7502 23.264 19.6476 23.2849 19.5516 23.3243C19.5076 23.3405 19.4663 23.3629 19.4289 23.391C19.3955 23.4105 19.3662 23.4362 19.3425 23.4668C19.3137 23.5116 19.2892 23.5697 19.3425 23.6129C19.4021 23.6559 19.4751 23.6764 19.5484 23.6705H20.0817C20.1855 23.669 20.288 23.648 20.3841 23.6086C20.428 23.5925 20.4693 23.57 20.5068 23.542C20.5391 23.5223 20.5675 23.4968 20.5905 23.4668C20.6193 23.4219 20.6438 23.3638 20.5905 23.3206C20.5317 23.278 20.4597 23.2574 20.3873 23.2625Z" fill="#262626"/>
        <path d="M25.1714 23.2033H22.5048C22.4077 23.1929 22.3096 23.2087 22.2208 23.2492C22.132 23.2896 22.0556 23.3531 21.9997 23.4332C21.9197 23.5932 22.0701 23.7313 22.2285 23.7313H24.8952C24.9922 23.7417 25.0903 23.7259 25.1792 23.6855C25.268 23.645 25.3444 23.5815 25.4002 23.5014C25.4802 23.343 25.3298 23.2033 25.1714 23.2033Z" fill="#262626"/>
        <path d="M8.66749 20.237C8.64964 20.2664 8.64107 20.3005 8.64288 20.3349C8.64468 20.3692 8.65679 20.4022 8.67762 20.4296C8.70522 20.4585 8.73828 20.4817 8.7749 20.4978C8.81152 20.5139 8.85096 20.5226 8.89096 20.5234H9.95762C10.0619 20.5279 10.1658 20.5087 10.2616 20.4674C10.3454 20.4334 10.4162 20.3736 10.4638 20.2968C10.4816 20.2674 10.4902 20.2333 10.4884 20.1989C10.4866 20.1646 10.4745 20.1316 10.4536 20.1042C10.426 20.0753 10.393 20.0521 10.3563 20.036C10.3197 20.0198 10.2803 20.0112 10.2403 20.0104H9.17362C9.06937 20.0059 8.96545 20.0251 8.86962 20.0664C8.78586 20.1004 8.71508 20.1602 8.66749 20.237Z" fill="#262626"/>
    </g>
    <defs>
        <clipPath id="clip0_1_1272">
            <rect width="32" height="32" fill="white" transform="translate(0.5)"/>
        </clipPath>
    </defs>
</svg>
