<svg width="33" height="32" viewBox="0 0 33 32" fill="none" xmlns="http://www.w3.org/2000/svg">
    <path d="M8.25 3H13.25L13.75 1H7.75L8.25 3Z" fill="#FF808D"/>
    <path d="M19.25 12.5H31.25V11.75C31.25 11.5858 31.2178 11.4233 31.1549 11.2716C31.0921 11.1199 31.0001 10.9821 30.884 10.866C30.7679 10.7499 30.6301 10.6579 30.4784 10.595C30.3267 10.5322 30.1642 10.5 30 10.5H19.25V12.5Z" fill="#FF808D"/>
    <path d="M19.25 20V22H30C30.1642 22 30.3267 21.9678 30.4784 21.9049C30.6301 21.8421 30.7679 21.7501 30.884 21.634C31.0001 21.5179 31.0921 21.3801 31.1549 21.2284C31.2178 21.0767 31.25 20.9142 31.25 20.75V14.5H19.25V17H21.75V20H19.25Z" fill="#FF808D"/>
    <path d="M10.75 21.5C13.7876 21.5 16.25 19.0376 16.25 16C16.25 12.9624 13.7876 10.5 10.75 10.5C7.71243 10.5 5.25 12.9624 5.25 16C5.25 19.0376 7.71243 21.5 10.75 21.5Z" fill="#FF808D"/>
    <path d="M12.75 29H8.75C8.61739 29 8.49021 29.0527 8.39645 29.1464C8.30268 29.2402 8.25 29.3674 8.25 29.5C8.25 29.6326 8.30268 29.7598 8.39645 29.8536C8.49021 29.9473 8.61739 30 8.75 30H12.75C12.8826 30 13.0098 29.9473 13.1036 29.8536C13.1973 29.7598 13.25 29.6326 13.25 29.5C13.25 29.3674 13.1973 29.2402 13.1036 29.1464C13.0098 29.0527 12.8826 29 12.75 29Z" fill="#404040"/>
    <path d="M30 10H19.75V2.25C19.7495 1.78603 19.5649 1.34121 19.2369 1.01313C18.9088 0.685052 18.464 0.500513 18 0.5H3.5C3.03603 0.500513 2.59121 0.685052 2.26313 1.01313C1.93505 1.34121 1.75051 1.78603 1.75 2.25V29.75C1.75051 30.214 1.93505 30.6588 2.26313 30.9869C2.59121 31.3149 3.03603 31.4995 3.5 31.5H18C18.464 31.4995 18.9088 31.3149 19.2369 30.9869C19.5649 30.6588 19.7495 30.214 19.75 29.75V22.5H30C30.464 22.4995 30.9088 22.3149 31.2369 21.9869C31.5649 21.6588 31.7495 21.214 31.75 20.75V11.75C31.7495 11.286 31.5649 10.8412 31.2369 10.5131C30.9088 10.1851 30.464 10.0005 30 10ZM13.1094 1.5L12.8594 2.5H8.64062L8.39062 1.5H13.1094ZM18.75 29.75C18.7498 29.9489 18.6708 30.1395 18.5301 30.2801C18.3895 30.4208 18.1989 30.4998 18 30.5H3.5C3.30114 30.4998 3.11047 30.4208 2.96985 30.2801C2.82924 30.1395 2.75017 29.9489 2.75 29.75V2.25C2.75017 2.05114 2.82924 1.86047 2.96985 1.71985C3.11047 1.57924 3.30114 1.50017 3.5 1.5H7.35938L7.765 3.12125C7.79204 3.22942 7.85446 3.32545 7.94233 3.39407C8.03021 3.4627 8.1385 3.49998 8.25 3.5H13.25C13.3615 3.49998 13.4698 3.4627 13.5577 3.39407C13.6455 3.32545 13.708 3.22942 13.735 3.12125L14.1406 1.5H18C18.1989 1.50017 18.3895 1.57924 18.5301 1.71985C18.6708 1.86047 18.7498 2.05114 18.75 2.25V29.75ZM19.75 17.5H21.25V19.5H19.75V17.5ZM30.75 20.75C30.7498 20.9489 30.6708 21.1395 30.5301 21.2801C30.3895 21.4208 30.1989 21.4998 30 21.5H19.75V20.5H21.75C21.8826 20.5 22.0098 20.4473 22.1036 20.3536C22.1973 20.2598 22.25 20.1326 22.25 20V17C22.25 16.8674 22.1973 16.7402 22.1036 16.6464C22.0098 16.5527 21.8826 16.5 21.75 16.5H19.75V15H30.75V20.75ZM30.75 14H19.75V13H30.75V14ZM30.75 12H19.75V11H30C30.1989 11.0002 30.3895 11.0792 30.5301 11.2199C30.6708 11.3605 30.7498 11.5511 30.75 11.75V12Z" fill="#404040"/>
    <path d="M29.25 16.5H24.75C24.6174 16.5 24.4902 16.5527 24.3964 16.6464C24.3027 16.7402 24.25 16.8674 24.25 17C24.25 17.1326 24.3027 17.2598 24.3964 17.3536C24.4902 17.4473 24.6174 17.5 24.75 17.5H29.25C29.3826 17.5 29.5098 17.4473 29.6036 17.3536C29.6973 17.2598 29.75 17.1326 29.75 17C29.75 16.8674 29.6973 16.7402 29.6036 16.6464C29.5098 16.5527 29.3826 16.5 29.25 16.5Z" fill="#404040"/>
    <path d="M29.25 18H24.75C24.6174 18 24.4902 18.0527 24.3964 18.1464C24.3027 18.2402 24.25 18.3674 24.25 18.5C24.25 18.6326 24.3027 18.7598 24.3964 18.8536C24.4902 18.9473 24.6174 19 24.75 19H29.25C29.3826 19 29.5098 18.9473 29.6036 18.8536C29.6973 18.7598 29.75 18.6326 29.75 18.5C29.75 18.3674 29.6973 18.2402 29.6036 18.1464C29.5098 18.0527 29.3826 18 29.25 18Z" fill="#404040"/>
    <path d="M29.25 19.5H27.25C27.1174 19.5 26.9902 19.5527 26.8964 19.6464C26.8027 19.7402 26.75 19.8674 26.75 20C26.75 20.1326 26.8027 20.2598 26.8964 20.3536C26.9902 20.4473 27.1174 20.5 27.25 20.5H29.25C29.3826 20.5 29.5098 20.4473 29.6036 20.3536C29.6973 20.2598 29.75 20.1326 29.75 20C29.75 19.8674 29.6973 19.7402 29.6036 19.6464C29.5098 19.5527 29.3826 19.5 29.25 19.5Z" fill="#404040"/>
    <path d="M10.75 10C9.56331 10 8.40327 10.3519 7.41658 11.0112C6.42989 11.6705 5.66085 12.6075 5.20673 13.7039C4.7526 14.8003 4.63378 16.0066 4.86529 17.1705C5.0968 18.3344 5.66825 19.4035 6.50736 20.2426C7.34647 21.0817 8.41557 21.6532 9.57946 21.8847C10.7433 22.1162 11.9497 21.9974 13.0461 21.5433C14.1425 21.0891 15.0795 20.3201 15.7388 19.3334C16.3981 18.3467 16.75 17.1867 16.75 16C16.7482 14.4092 16.1155 12.8842 14.9907 11.7593C13.8658 10.6345 12.3407 10.0018 10.75 10ZM10.75 21C9.76109 21 8.79439 20.7067 7.97215 20.1573C7.1499 19.6079 6.50904 18.827 6.1306 17.9134C5.75217 16.9998 5.65315 15.9944 5.84608 15.0245C6.039 14.0546 6.5152 13.1637 7.21447 12.4645C7.91373 11.7652 8.80464 11.289 9.77455 11.0961C10.7445 10.9031 11.7498 11.0022 12.6634 11.3806C13.577 11.759 14.3579 12.3999 14.9073 13.2221C15.4567 14.0444 15.75 15.0111 15.75 16C15.7485 17.3256 15.2212 18.5965 14.2839 19.5339C13.3465 20.4712 12.0756 20.9985 10.75 21Z" fill="#404040"/>
    <path d="M13.3964 14.1463L10.2031 17.3397L8.55 16.0999C8.44392 16.0203 8.31057 15.9862 8.17929 16.0049C8.04802 16.0237 7.92957 16.0938 7.85 16.1999C7.77044 16.306 7.73627 16.4393 7.75503 16.5706C7.77378 16.7019 7.84392 16.8203 7.95 16.8999L9.95 18.3999C10.0463 18.4721 10.1654 18.5072 10.2854 18.4986C10.4055 18.4901 10.5185 18.4385 10.6036 18.3534L14.1036 14.8535C14.1973 14.7597 14.25 14.6325 14.25 14.4999C14.25 14.3673 14.1973 14.2401 14.1036 14.1463C14.0098 14.0526 13.8826 13.9999 13.75 13.9999C13.6174 13.9999 13.4902 14.0526 13.3964 14.1463Z" fill="#404040"/>
</svg>
