<svg width="33" height="32" viewBox="0 0 33 32" fill="none" xmlns="http://www.w3.org/2000/svg">
    <path d="M23.5835 11H27.5835V12.5H23.5835V11Z" fill="#FF808D"/>
    <path d="M20.0835 4H22.0835V5.5H20.0835V4Z" fill="#FF808D"/>
    <path d="M21.5835 1.0625H20.5835C20.4509 1.0625 20.3237 1.11518 20.2299 1.20895C20.1362 1.30271 20.0835 1.42989 20.0835 1.5625V2.5H22.0835V1.5625C22.0835 1.42989 22.0308 1.30271 21.937 1.20895C21.8433 1.11518 21.7161 1.0625 21.5835 1.0625Z" fill="#FF808D"/>
    <path d="M14.0835 4.5H9.0835C8.55306 4.5 8.04436 4.71071 7.66928 5.08579C7.29421 5.46086 7.0835 5.96957 7.0835 6.5V27H5.0835V29H14.0835V27H12.0835V10.5C12.0835 10.2348 12.1889 9.98043 12.3764 9.79289C12.5639 9.60536 12.8183 9.5 13.0835 9.5H14.0835V10H16.0835V4H14.0835V4.5Z" fill="#FF808D"/>
    <path d="M24.0835 17C24.0835 17.3978 24.2415 17.7794 24.5228 18.0607C24.8041 18.342 25.1857 18.5 25.5835 18.5C25.9813 18.5 26.3629 18.342 26.6442 18.0607C26.9255 17.7794 27.0835 17.3978 27.0835 17C27.0835 16.1716 25.5835 14.5 25.5835 14.5C25.5835 14.5 24.0835 16.1716 24.0835 17Z" fill="#FF808D"/>
    <path d="M28.5835 28.5H14.5835V27C14.5835 26.8674 14.5308 26.7402 14.437 26.6464C14.3433 26.5527 14.2161 26.5 14.0835 26.5H12.5835V10.5C12.5837 10.3674 12.6364 10.2404 12.7301 10.1466C12.8239 10.0529 12.9509 10.0002 13.0835 10H13.5835C13.5835 10.1326 13.6362 10.2598 13.7299 10.3536C13.8237 10.4473 13.9509 10.5 14.0835 10.5H16.0835C16.2161 10.5 16.3433 10.4473 16.437 10.3536C16.5308 10.2598 16.5835 10.1326 16.5835 10V9H23.5835V10.5C23.4509 10.5 23.3237 10.5527 23.2299 10.6464C23.1362 10.7402 23.0835 10.8674 23.0835 11V12.5C23.0835 12.6326 23.1362 12.7598 23.2299 12.8536C23.3237 12.9473 23.4509 13 23.5835 13H27.5835C27.7161 13 27.8433 12.9473 27.937 12.8536C28.0308 12.7598 28.0835 12.6326 28.0835 12.5V11C28.0835 10.8674 28.0308 10.7402 27.937 10.6464C27.8433 10.5527 27.7161 10.5 27.5835 10.5V7.5C27.5828 6.83716 27.3192 6.20166 26.8505 5.73296C26.3818 5.26427 25.7463 5.00066 25.0835 5H22.5835V4.5H23.5835C23.8486 4.49965 24.1028 4.39418 24.2902 4.20672C24.4777 4.01926 24.5831 3.76511 24.5835 3.5V3C24.5831 2.73489 24.4777 2.48074 24.2902 2.29328C24.1028 2.10582 23.8486 2.00035 23.5835 2H22.5835V1.5625C22.5831 1.29739 22.4777 1.04324 22.2902 0.855777C22.1028 0.668316 21.8486 0.562847 21.5835 0.5625H20.5835C20.3184 0.562847 20.0642 0.668316 19.8768 0.855777C19.6893 1.04324 19.5838 1.29739 19.5835 1.5625V2H18.5835C18.3184 2.00035 18.0642 2.10582 17.8768 2.29328C17.6893 2.48074 17.5838 2.73489 17.5835 3V3.5C17.5838 3.76511 17.6893 4.01926 17.8768 4.20672C18.0642 4.39418 18.3184 4.49965 18.5835 4.5H19.5835V5H16.5835V4C16.5835 3.86739 16.5308 3.74021 16.437 3.64645C16.3433 3.55268 16.2161 3.5 16.0835 3.5H14.0835C13.9509 3.5 13.8237 3.55268 13.7299 3.64645C13.6362 3.74021 13.5835 3.86739 13.5835 4H9.0835C8.42066 4.00066 7.78516 4.26427 7.31646 4.73296C6.84776 5.20166 6.58416 5.83716 6.5835 6.5V26.5H5.0835C4.95089 26.5 4.82371 26.5527 4.72994 26.6464C4.63617 26.7402 4.5835 26.8674 4.5835 27V28.5H3.5835C3.45089 28.5 3.32371 28.5527 3.22994 28.6464C3.13617 28.7402 3.0835 28.8674 3.0835 29V31C3.0835 31.1326 3.13617 31.2598 3.22994 31.3536C3.32371 31.4473 3.45089 31.5 3.5835 31.5H28.5835C28.7161 31.5 28.8433 31.4473 28.937 31.3536C29.0308 31.2598 29.0835 31.1326 29.0835 31V29C29.0835 28.8674 29.0308 28.7402 28.937 28.6464C28.8433 28.5527 28.7161 28.5 28.5835 28.5ZM27.0835 11.5V12H24.0835V11.5H27.0835ZM20.5835 1.5625H21.5835V2H20.5835V1.5625ZM18.5835 3.5V3H23.5835L23.5841 3.5H18.5835ZM21.5835 4.5V5H20.5835V4.5H21.5835ZM16.5835 6H25.0835C25.4812 6.00053 25.8624 6.15873 26.1436 6.43992C26.4248 6.72111 26.583 7.10234 26.5835 7.5V10.5H24.5835V9C24.5831 8.73489 24.4777 8.48074 24.2902 8.29328C24.1028 8.10582 23.8486 8.00035 23.5835 8H16.5835V6ZM14.5835 4.5H15.5835V9.5H14.5835V4.5ZM7.5835 6.5C7.58403 6.10234 7.74223 5.72111 8.02342 5.43992C8.30461 5.15873 8.68583 5.00053 9.0835 5H13.5835V9H13.0835C12.6858 9.00053 12.3046 9.15873 12.0234 9.43992C11.7422 9.72111 11.584 10.1023 11.5835 10.5V26.5H7.5835V6.5ZM5.5835 27.5H13.5835V28.5H5.5835V27.5ZM28.0835 30.5H4.0835V29.5H28.0835V30.5Z" fill="#404040"/>
    <path d="M25.5835 14C25.5133 14 25.4439 14.0148 25.3797 14.0434C25.3156 14.072 25.2583 14.1138 25.2114 14.1661C25.1953 14.1839 24.8139 14.6102 24.4276 15.1473C23.8596 15.9375 23.5835 16.5431 23.5835 17C23.5835 17.5304 23.7942 18.0391 24.1693 18.4142C24.5444 18.7893 25.0531 19 25.5835 19C26.1139 19 26.6226 18.7893 26.9977 18.4142C27.3728 18.0391 27.5835 17.5304 27.5835 17C27.5835 16.0293 26.2272 14.4687 25.9556 14.1661C25.9087 14.1138 25.8514 14.072 25.7872 14.0434C25.7231 14.0148 25.6537 14 25.5835 14ZM26.5835 17C26.5835 17.2652 26.4781 17.5196 26.2906 17.7071C26.1031 17.8946 25.8487 18 25.5835 18C25.3183 18 25.0639 17.8946 24.8764 17.7071C24.6889 17.5196 24.5835 17.2652 24.5835 17C24.5835 16.7421 24.9573 16.05 25.5835 15.2719C26.2097 16.05 26.5835 16.7421 26.5835 17Z" fill="#404040"/>
</svg>
