<svg width="32" height="32" viewBox="0 0 32 32" fill="none" xmlns="http://www.w3.org/2000/svg">
    <g clip-path="url(#clip0_1_1485)">
        <path d="M15.7792 31.7024C15.6609 31.7022 15.5568 31.6241 15.5236 31.5105C15.4905 31.3969 15.5361 31.275 15.6358 31.2112L19.7958 28.5584L14.5691 31.576C14.4441 31.6447 14.2871 31.603 14.2129 31.4811C14.1386 31.3593 14.1734 31.2007 14.2918 31.1211L20.9584 26.8389L13.1344 31.3557C13.0087 31.4239 12.8516 31.3808 12.7783 31.258C12.705 31.1352 12.7417 30.9764 12.8614 30.8981L13.736 30.3616L12.3062 31.1867C12.1804 31.2548 12.0233 31.2117 11.95 31.0889C11.8768 30.9661 11.9134 30.8073 12.0331 30.7291L15.9467 28.3067L11.4208 30.92C11.3394 30.9694 11.2377 30.9717 11.1542 30.9259C11.0706 30.88 11.0179 30.7931 11.0158 30.6979C11.0137 30.6026 11.0626 30.5135 11.144 30.464L20.9136 24.2389L10.1227 30.4688C9.99703 30.538 9.83914 30.4954 9.76535 30.3724C9.69157 30.2494 9.72833 30.09 9.84856 30.0117L17.92 24.9803L9.20909 30.0096C9.08313 30.0822 8.9222 30.0406 8.84731 29.9159C8.77242 29.7913 8.81117 29.6297 8.93442 29.5525L17.9243 23.9467L8.26669 29.5237C8.14103 29.5929 7.98314 29.5503 7.90935 29.4273C7.83557 29.3043 7.87233 29.1449 7.99256 29.0667L17.0827 23.4208L7.45602 28.9787C7.33024 29.0459 7.17384 29.0023 7.10103 28.8796C7.02822 28.757 7.06479 28.5988 7.18402 28.5205L13.3222 24.7648L6.79576 28.5333C6.67004 28.6015 6.51293 28.5584 6.43965 28.4356C6.36636 28.3128 6.403 28.154 6.52269 28.0757L14.736 23.024L6.14936 27.984C6.02334 28.0537 5.86477 28.0107 5.79115 27.887C5.71753 27.7632 5.75546 27.6034 5.87682 27.5259L13.648 22.7568L5.53282 27.4416C5.40684 27.5126 5.24726 27.4702 5.17306 27.3461C5.09886 27.222 5.13708 27.0614 5.25922 26.984L15.4912 20.6603L4.88749 26.7824C4.76068 26.8574 4.59712 26.8153 4.52215 26.6885C4.44719 26.5617 4.48922 26.3982 4.61602 26.3232L8.34509 24.0661L4.47469 26.3008C4.34862 26.3694 4.1909 26.3259 4.1178 26.2024C4.04471 26.0789 4.08246 25.9197 4.20322 25.8421L8.87522 23.0101L4.04375 25.7989C3.91804 25.8671 3.76093 25.824 3.68765 25.7012C3.61436 25.5784 3.651 25.4196 3.77069 25.3413L13.3014 19.4837L3.52322 25.1291C3.39757 25.1937 3.24335 25.149 3.1716 25.0273C3.09985 24.9056 3.13547 24.7491 3.25282 24.6704L5.76322 23.1557L3.21229 24.6283C3.08589 24.7003 2.9251 24.6577 2.85089 24.5326C2.77669 24.4075 2.81646 24.246 2.94029 24.1696L11.2603 19.0811L2.80055 23.9653C2.67459 24.038 2.51367 23.9963 2.43878 23.8717C2.36388 23.747 2.40263 23.5854 2.52589 23.5083L15.5547 15.3739L2.28269 23.0363C2.1571 23.1016 2.00235 23.0574 1.93018 22.9356C1.85802 22.8139 1.89359 22.6569 2.01122 22.5781L8.92376 18.3648L1.99895 22.3648C1.91683 22.4132 1.81513 22.4141 1.73215 22.3672C1.64917 22.3203 1.59753 22.2326 1.59668 22.1373C1.59583 22.042 1.6459 21.9535 1.72802 21.9051L1.97335 21.76L1.78935 21.8667C1.6637 21.9359 1.5058 21.8933 1.43202 21.7702C1.35823 21.6472 1.39499 21.4879 1.51522 21.4096L12.7766 14.4272L1.43575 20.9744C1.31031 21.0414 1.15436 20.9982 1.08131 20.8761C1.00827 20.7541 1.04384 20.5962 1.16215 20.5173L12.7467 13.3131L1.19202 19.9851C1.06563 20.0571 0.904828 20.0145 0.830625 19.8894C0.756421 19.7643 0.796196 19.6028 0.92002 19.5264L7.79149 15.3269L1.00962 19.2427C0.883549 19.3112 0.725829 19.2677 0.652736 19.1442C0.579643 19.0207 0.617392 18.8615 0.738153 18.784L3.47469 17.1275L0.876286 18.6277C0.749776 18.7031 0.586092 18.6617 0.510686 18.5352C0.435281 18.4087 0.47671 18.245 0.60322 18.1696L8.11949 13.5541L0.807486 17.7755C0.680829 17.8512 0.516786 17.8099 0.441086 17.6832C0.365386 17.5565 0.406696 17.3925 0.533353 17.3168L1.12535 16.96L0.75842 17.1733C0.632026 17.2454 0.471228 17.2028 0.397025 17.0777C0.322821 16.9525 0.362596 16.791 0.48642 16.7147L3.54455 14.8565L0.703486 16.4955C0.577416 16.564 0.419696 16.5205 0.346603 16.397C0.273509 16.2735 0.311258 16.1143 0.43202 16.0368L3.71895 14.0347L0.71362 15.7696C0.587661 15.8422 0.426735 15.8006 0.351843 15.6759C0.27695 15.5513 0.315698 15.3897 0.438953 15.3125L8.58242 10.2459L0.78242 14.7477C0.658134 14.8109 0.506167 14.7677 0.433739 14.6485C0.361311 14.5294 0.392872 14.3746 0.506153 14.2933L9.98829 8.29226L0.951487 13.5088C0.826107 13.5767 0.669482 13.534 0.595971 13.4118C0.522461 13.2896 0.558079 13.1312 0.67682 13.0523L7.57069 8.73226L1.17335 12.4267C1.0467 12.5019 0.883011 12.4603 0.807753 12.3336C0.732495 12.2069 0.774162 12.0433 0.90082 11.968L1.37335 11.6789C1.2463 11.7384 1.09492 11.6892 1.02701 11.5665C0.959107 11.4438 0.997894 11.2894 1.11575 11.2133L8.36269 6.55999L1.86669 10.3104C1.74108 10.3808 1.58229 10.3387 1.50796 10.2154C1.43362 10.0921 1.4706 9.93207 1.59149 9.85386L4.08535 8.29066L2.36535 9.28373C2.24052 9.35611 2.08077 9.31606 2.00484 9.19336C1.92891 9.07066 1.96435 8.90982 2.08482 8.83039L7.29442 5.39999L3.27202 7.72213C3.14681 7.7934 2.98763 7.75233 2.91253 7.62938C2.83743 7.50642 2.87357 7.34605 2.99415 7.26719L4.05762 6.58453C3.93396 6.6291 3.79627 6.57692 3.73321 6.46158C3.67016 6.34625 3.70055 6.20216 3.80482 6.12213L6.61336 3.99999C6.49801 3.98857 6.40326 3.90395 6.37891 3.79063C6.35457 3.67731 6.40621 3.56124 6.50669 3.50346L9.76002 1.62239C9.88173 1.55447 10.0352 1.59173 10.1122 1.70789C10.1892 1.82405 10.1638 1.97992 10.0539 2.06559L7.56482 3.94666L13.5254 0.507724C13.6511 0.430993 13.8153 0.47075 13.892 0.596524C13.9688 0.722298 13.929 0.88646 13.8032 0.963191L12.8224 1.59199L14.8934 0.396791C15.0185 0.321829 15.1807 0.361384 15.2573 0.485559C15.3339 0.609734 15.2965 0.77242 15.1734 0.850658L9.95949 4.28319L16.727 0.376524C16.8532 0.30053 17.0171 0.341242 17.0931 0.467457C17.1691 0.593673 17.1284 0.757597 17.0022 0.833591L14.5067 2.39519L17.8715 0.453324C17.9965 0.384582 18.1534 0.426379 18.2277 0.54818C18.3019 0.66998 18.2672 0.828645 18.1488 0.908258L10.9008 5.56266L19.2742 0.727458C19.4006 0.655432 19.5614 0.697999 19.6356 0.823127C19.7098 0.948254 19.67 1.10976 19.5462 1.18612L19.0982 1.46026L20.064 0.902391C20.1902 0.826397 20.3542 0.867109 20.4302 0.993324C20.5062 1.11954 20.4654 1.28346 20.3392 1.35946L13.4464 5.67946L21.0992 1.26132C21.2253 1.18518 21.3892 1.22566 21.4654 1.35172C21.5415 1.47779 21.501 1.64172 21.375 1.71786L11.8998 7.71359L22.2683 1.72692C22.35 1.67786 22.4517 1.67613 22.5351 1.72239C22.6185 1.76865 22.6708 1.85587 22.6724 1.95119C22.6741 2.04651 22.6247 2.13546 22.543 2.18453L14.3963 7.25333L23.1787 2.18666C23.3045 2.11943 23.4609 2.16307 23.5337 2.2857C23.6065 2.40834 23.5699 2.56655 23.4507 2.64479L20.1515 4.65173L23.8208 2.53333C23.9472 2.4613 24.108 2.50387 24.1822 2.62899C24.2564 2.75412 24.2167 2.91563 24.0928 2.99199L21.0438 4.84479L24.3867 2.91519C24.5125 2.84884 24.6683 2.89296 24.7407 3.01546C24.813 3.13795 24.7765 3.29567 24.6576 3.37386L24.0678 3.73013L24.8902 3.25546C24.972 3.20668 25.0736 3.20527 25.1568 3.25175C25.24 3.29823 25.292 3.38555 25.2933 3.48082C25.2947 3.57608 25.2451 3.66481 25.1632 3.71359L17.6432 8.33173L25.5611 3.76053C25.6872 3.69197 25.8449 3.73547 25.918 3.85897C25.9911 3.98247 25.9533 4.14166 25.8326 4.21919L23.1003 5.87253L26.0336 4.17759C26.1596 4.10792 26.3182 4.15088 26.3918 4.27463C26.4655 4.39839 26.4275 4.55823 26.3062 4.63573L19.44 8.8336L26.6171 4.69013C26.7428 4.62092 26.9006 4.66352 26.9744 4.78655C27.0482 4.90957 27.0115 5.06893 26.8912 5.14719L15.3024 12.3531L27.2944 5.42986C27.4199 5.36286 27.5758 5.40609 27.6489 5.52811C27.7219 5.65014 27.6863 5.80801 27.568 5.88693L16.2982 12.8736L27.9248 6.16319C28.051 6.09563 28.2079 6.13965 28.2805 6.26295C28.3531 6.38625 28.3155 6.54487 28.1952 6.62239L27.9718 6.75626L28.2811 6.57813C28.4069 6.5109 28.5633 6.55454 28.6361 6.67717C28.7089 6.79981 28.6723 6.95802 28.5531 7.03626L21.6464 11.2411L28.672 7.18506C28.7972 7.11903 28.9522 7.16231 29.0251 7.28365C29.0979 7.405 29.0633 7.56212 28.9462 7.64159L15.9126 15.7792L29.2331 8.08906C29.3589 8.02184 29.5153 8.06548 29.5881 8.18811C29.6609 8.31074 29.6243 8.46895 29.5051 8.54719L21.1851 13.6357L29.631 8.75999C29.7566 8.69541 29.9108 8.74004 29.9826 8.86174C30.0543 8.98345 30.0187 9.13999 29.9014 9.21866L27.3979 10.7291L29.8619 9.30666C29.9884 9.23126 30.1521 9.27269 30.2275 9.3992C30.3029 9.52571 30.2615 9.68939 30.135 9.7648L20.599 15.6267L30.192 10.0869C30.3181 10.0184 30.4758 10.0619 30.5489 10.1854C30.622 10.3089 30.5843 10.4681 30.4635 10.5456L25.7851 13.3824L30.4475 10.6907C30.5736 10.6221 30.7313 10.6656 30.8044 10.7891C30.8775 10.9126 30.8397 11.0718 30.719 11.1493L27.0038 13.3979L30.6304 11.3029C30.7569 11.2275 30.9206 11.269 30.996 11.3955C31.0714 11.522 31.03 11.6857 30.9035 11.7611L20.6683 18.088L30.855 12.2069C30.9805 12.1408 31.1358 12.1845 31.2084 12.3064C31.281 12.4283 31.2454 12.5857 31.1275 12.6645L23.3622 17.4261L31.0475 12.9888C31.174 12.9134 31.3377 12.9548 31.4131 13.0813C31.4885 13.2078 31.4471 13.3715 31.3206 13.4469L23.1136 18.4955L31.1627 13.8485C31.2885 13.7813 31.4449 13.8249 31.5177 13.9476C31.5905 14.0702 31.5539 14.2284 31.4347 14.3067L25.2934 18.0645L31.2262 14.6395C31.3521 14.5685 31.5117 14.6109 31.5859 14.735C31.6601 14.8591 31.6219 15.0197 31.4998 15.0971L22.4064 20.7435L31.3067 15.6064C31.4321 15.5385 31.5887 15.5812 31.6622 15.7034C31.7357 15.8256 31.7001 15.984 31.5814 16.0629L22.5862 21.6693L31.2571 16.6629C31.3831 16.5903 31.544 16.632 31.6189 16.7566C31.6938 16.8812 31.655 17.0429 31.5318 17.12L23.4667 22.1499L31.1904 17.6912C31.3155 17.6234 31.4717 17.6657 31.5455 17.7874C31.6193 17.909 31.5846 18.0671 31.4667 18.1467L21.696 24.3733L30.9371 19.04C31.0631 18.969 31.2227 19.0114 31.2969 19.1355C31.3711 19.2596 31.3328 19.4202 31.2107 19.4976L27.2843 21.9259L30.751 19.9253C30.8775 19.8499 31.0412 19.8914 31.1166 20.0179C31.192 20.1444 31.1505 20.3081 31.024 20.3835L30.1595 20.9136L30.4699 20.7349C30.5955 20.6614 30.7568 20.702 30.8325 20.8263C30.9082 20.9506 30.8702 21.1126 30.7472 21.1904L24.0806 25.4715L29.959 22.0779C30.084 22.0101 30.2403 22.0524 30.314 22.174C30.3878 22.2956 30.3531 22.4537 30.2352 22.5333L26.08 25.1819L29.3462 23.2965C29.4708 23.2279 29.6275 23.2692 29.702 23.3905C29.7765 23.5118 29.7427 23.6702 29.6251 23.7504L25.8454 26.2155L28.4267 24.7264C28.5516 24.6554 28.7102 24.6961 28.7856 24.8184C28.8609 24.9407 28.8258 25.1007 28.7062 25.1803L27.12 26.2229L27.3008 26.1163C27.424 26.046 27.5806 26.0844 27.6573 26.2037C27.734 26.323 27.7039 26.4814 27.5888 26.5643L25.5131 28.0437C25.5463 28.0661 25.5739 28.0958 25.5936 28.1307C25.6674 28.2581 25.6239 28.4211 25.4966 28.4949L22.2432 30.3744C22.1201 30.4447 21.9635 30.4062 21.8868 30.287C21.8101 30.1677 21.8402 30.0093 21.9552 29.9264L22.7478 29.3621L19.4118 31.2875C19.2866 31.3624 19.1244 31.3229 19.0478 31.1987C18.9712 31.0745 19.0086 30.9118 19.1318 30.8336L20.712 29.7952L17.6624 31.5552C17.5373 31.628 17.3769 31.5876 17.3011 31.4642C17.2254 31.3408 17.2619 31.1795 17.3835 31.1008L21.1558 28.64L15.9126 31.6672C15.872 31.6906 15.826 31.7027 15.7792 31.7024Z" fill="#0970DE"/>
        <path d="M15.6027 29.0186C15.4839 29.0187 15.3793 28.9402 15.3463 28.8261C15.3133 28.7119 15.3598 28.5897 15.4603 28.5264L16.2133 28.0533L14.7387 28.9066C14.6136 28.9744 14.4574 28.9321 14.3836 28.8105C14.3099 28.6889 14.3445 28.5308 14.4624 28.4512L17.1062 26.7744L13.6725 28.752C13.5475 28.8197 13.3913 28.7774 13.3175 28.6558C13.2437 28.5342 13.2784 28.3761 13.3963 28.2965L17.304 25.8192L12.6571 28.5018C12.5319 28.5679 12.3769 28.5246 12.3041 28.4032C12.2312 28.2819 12.2658 28.1248 12.3829 28.0453L15.5456 26.0677L11.7909 28.2352C11.6658 28.302 11.5102 28.2592 11.4369 28.1378C11.3636 28.0163 11.3983 27.8587 11.5157 27.7792L16.7184 24.504L10.9051 27.8608C10.7799 27.9268 10.6249 27.8835 10.5521 27.7622C10.4792 27.6408 10.5138 27.4837 10.6309 27.4042L15.7909 24.177L10.08 27.4752C9.95446 27.5487 9.7931 27.5081 9.71742 27.3838C9.64174 27.2595 9.67968 27.0975 9.80268 27.0197L18.8005 21.2597L9.09388 26.864C8.96786 26.9336 8.80929 26.8907 8.73567 26.7669C8.66206 26.6432 8.69998 26.4833 8.82135 26.4058L11.1088 25.0042L8.52535 26.4976C8.4438 26.5468 8.34216 26.5488 8.25873 26.5028C8.1753 26.4568 8.12274 26.3698 8.12086 26.2746C8.11898 26.1793 8.16806 26.0903 8.24962 26.041L16.9909 20.5226L7.76428 25.8474C7.63867 25.9178 7.47988 25.8758 7.40555 25.7525C7.33122 25.6292 7.36819 25.4691 7.48908 25.3909L15.4629 20.401L7.07042 25.2426C6.9444 25.3123 6.78583 25.2693 6.71221 25.1456C6.63859 25.0218 6.67651 24.862 6.79788 24.7845L10.2453 22.6746L6.64855 24.7509C6.52253 24.8206 6.36396 24.7776 6.29034 24.6539C6.21672 24.5301 6.25465 24.3703 6.37601 24.2928L10.1723 21.968L6.21868 24.2506C6.09229 24.3227 5.93149 24.2801 5.85729 24.155C5.78308 24.0298 5.82286 23.8683 5.94668 23.792L8.06935 22.4997L5.82935 23.7936C5.70397 23.8615 5.54734 23.8187 5.47383 23.6966C5.40032 23.5744 5.43594 23.416 5.55468 23.337L13.9899 18.0736L5.36588 23.0522C5.23937 23.1276 5.07569 23.0862 5.00028 22.9597C4.92488 22.8332 4.9663 22.6695 5.09281 22.5941L10.36 19.3562L4.99201 22.4533C4.86641 22.5237 4.70761 22.4816 4.63328 22.3583C4.55895 22.235 4.59593 22.075 4.71681 21.9968L14.7339 15.68L4.54615 21.5616C4.41949 21.6368 4.25581 21.5952 4.18055 21.4685C4.10529 21.3418 4.14696 21.1782 4.27361 21.1029L8.58241 18.4624L4.28481 20.9434C4.15884 21.0144 3.99925 20.972 3.92505 20.8479C3.85085 20.7238 3.88907 20.5632 4.01121 20.4858L11.1712 16.0405L3.98135 20.1914C3.85484 20.2671 3.69091 20.2259 3.61521 20.0994C3.53951 19.9729 3.5807 19.809 3.70721 19.7333L10.6213 15.441L3.78668 19.3893C3.66029 19.4613 3.49949 19.4188 3.42529 19.2936C3.35108 19.1685 3.39086 19.007 3.51468 18.9306L4.17335 18.5306L3.64961 18.833C3.56787 18.8821 3.46616 18.8838 3.3828 18.8376C3.29944 18.7913 3.24709 18.7041 3.24547 18.6088C3.24385 18.5134 3.29321 18.4245 3.37495 18.3754L10.2128 14.1162L3.49175 17.9946C3.36597 18.0619 3.20956 18.0182 3.13675 17.8956C3.06394 17.7729 3.10051 17.6147 3.21975 17.5365L3.65708 17.2698L3.44375 17.393C3.31837 17.4609 3.16174 17.4182 3.08823 17.296C3.01472 17.1738 3.05034 17.0154 3.16908 16.9365L9.23308 13.1536L3.37388 16.536C3.24833 16.6095 3.08697 16.5689 3.01129 16.4446C2.9356 16.3203 2.97355 16.1583 3.09655 16.0805L11.9307 10.409L3.42295 15.321C3.29774 15.3923 3.13855 15.3512 3.06345 15.2283C2.98835 15.1053 3.0245 14.9449 3.14508 14.8661L11.0651 9.76583L3.52588 14.1184C3.40095 14.1882 3.24319 14.1469 3.16843 14.0249C3.09366 13.9028 3.12855 13.7436 3.24748 13.664L10.5515 8.91463L3.85548 12.7802C3.72982 12.8494 3.57193 12.8068 3.49814 12.6838C3.42436 12.5608 3.46112 12.4014 3.58135 12.3232L5.27148 11.2666L4.10668 11.9386C3.98032 12.0143 3.81651 11.9733 3.74081 11.8469C3.66511 11.7205 3.70618 11.5567 3.83255 11.481L4.35468 11.1557C4.24884 11.1703 4.14434 11.1212 4.08801 11.0304C4.01287 10.9057 4.05156 10.7438 4.17495 10.6666L6.40001 9.24316L4.94721 10.08C4.8229 10.1496 4.66577 10.1093 4.59045 9.9883C4.51512 9.86732 4.54823 9.7085 4.66561 9.62769L7.70082 7.59676L5.81335 8.68796C5.69214 8.75677 5.53838 8.72063 5.46051 8.60503C5.38265 8.48942 5.40695 8.33335 5.51628 8.24689L8.14775 6.19836C8.02981 6.19231 7.9299 6.10941 7.90219 5.99462C7.87448 5.87983 7.92556 5.76048 8.02775 5.70129L10.9867 3.99089C11.1081 3.92162 11.2623 3.95781 11.3402 4.07383C11.4182 4.18986 11.3933 4.34635 11.2832 4.43249L8.89388 6.29329L14.4208 3.10182C14.5456 3.02769 14.7068 3.067 14.7835 3.19026C14.8601 3.31353 14.8241 3.47547 14.7024 3.55462L11.6715 5.58129L16.1328 3.00582C16.2578 2.93708 16.4148 2.97888 16.489 3.10068C16.5633 3.22248 16.5285 3.38114 16.4101 3.46076L14.1867 4.88742L17.28 3.09969C17.406 3.02706 17.5669 3.06872 17.6418 3.19335C17.7167 3.31797 17.6779 3.47963 17.5547 3.55676L17.5227 3.57596L18.1627 3.20796C18.2879 3.14193 18.4428 3.18521 18.5157 3.30655C18.5886 3.42789 18.5539 3.58502 18.4368 3.66449L16.7515 4.71836L19.0096 3.41329C19.1346 3.34349 19.2923 3.38474 19.3671 3.50677C19.4418 3.6288 19.4069 3.78809 19.288 3.86769L11.9813 8.61862L20.3158 3.80956C20.4403 3.74356 20.5948 3.78594 20.6682 3.90628C20.7416 4.02662 20.7087 4.18333 20.5931 4.26396L12.6773 9.36209L21.4582 4.29222C21.5834 4.22095 21.7425 4.26202 21.8176 4.38498C21.8927 4.50793 21.8566 4.6683 21.736 4.74716L12.8997 10.4202L22.496 4.87996C22.6217 4.81075 22.7796 4.85335 22.8534 4.97638C22.9271 5.09941 22.8904 5.25876 22.7702 5.33702L16.703 9.11996L23.2448 5.34289C23.3712 5.27087 23.532 5.31343 23.6062 5.43856C23.6804 5.56369 23.6406 5.7252 23.5168 5.80156L23.0758 6.06822L23.712 5.70662C23.8384 5.63078 24.0023 5.67173 24.0782 5.79809C24.154 5.92445 24.113 6.08838 23.9867 6.16422L17.1531 10.4192L24.3584 6.25916C24.4852 6.18405 24.6489 6.22595 24.724 6.35276C24.7991 6.47956 24.7572 6.64325 24.6304 6.71836L23.9638 7.12262L24.8016 6.63942C24.928 6.56372 25.0918 6.6048 25.1675 6.73116C25.2432 6.85752 25.2021 7.02132 25.0758 7.09702L18.1573 11.3914L25.3456 7.24156C25.472 7.16586 25.6358 7.20693 25.7115 7.33329C25.7872 7.45965 25.7461 7.62346 25.6198 7.69916L18.4603 12.144L25.8779 7.86129C26.0045 7.78603 26.1682 7.8277 26.2435 7.95436C26.3187 8.08102 26.2771 8.2447 26.1504 8.31996L21.8464 10.9578L26.2934 8.39143C26.419 8.32105 26.5778 8.36308 26.6521 8.48639C26.7264 8.6097 26.6894 8.76975 26.5686 8.84796L16.5478 15.1669L26.8166 9.23782C26.8984 9.18905 27 9.18763 27.0832 9.23412C27.1664 9.2806 27.2184 9.36792 27.2197 9.46318C27.2211 9.55845 27.1715 9.64718 27.0896 9.69596L21.8224 12.9338L27.1883 9.83623C27.3139 9.76702 27.4718 9.80962 27.5456 9.93265C27.6194 10.0557 27.5826 10.215 27.4624 10.2933L19.0315 15.5546L27.5403 10.6421C27.6659 10.5767 27.8206 10.6209 27.8928 10.7427C27.965 10.8645 27.9294 11.0215 27.8118 11.1002L25.6934 12.3909L27.7734 11.1909C27.9 11.1156 28.0637 11.1573 28.139 11.284C28.2142 11.4106 28.1725 11.5743 28.0459 11.6496L24.2443 13.9776L28.0176 11.7989C28.1436 11.7292 28.3022 11.7722 28.3758 11.8959C28.4494 12.0197 28.4115 12.1795 28.2902 12.257L24.8368 14.3701L28.1766 12.4426C28.2582 12.3935 28.3599 12.3916 28.4433 12.4377C28.5267 12.4839 28.5791 12.571 28.5809 12.6663C28.5826 12.7615 28.5334 12.8505 28.4518 12.8997L20.48 17.888L28.3931 13.32C28.5184 13.251 28.6758 13.2933 28.7498 13.4156C28.8238 13.538 28.7881 13.697 28.6688 13.776L19.9248 19.2954L28.5334 14.3248C28.66 14.2495 28.8237 14.2912 28.899 14.4178C28.9742 14.5445 28.9325 14.7082 28.8059 14.7834L26.5179 16.185L28.5872 14.9904C28.7125 14.9203 28.8707 14.962 28.9452 15.0846C29.0197 15.2073 28.9839 15.3669 28.864 15.4458L19.8667 21.2074L28.6198 16.1541C28.7457 16.0815 28.9066 16.1231 28.9815 16.2478C29.0564 16.3724 29.0177 16.534 28.8944 16.6112L23.7392 19.8346L28.5467 17.0613C28.6728 16.9852 28.8367 17.0256 28.9128 17.1517C28.989 17.2778 28.9485 17.4417 28.8224 17.5178L23.6208 20.7893L28.4432 18.0058C28.5686 17.9379 28.7252 17.9806 28.7987 18.1028C28.8722 18.225 28.8366 18.3834 28.7179 18.4624L25.5579 20.4357L28.2246 18.8976C28.3496 18.8298 28.5058 18.8721 28.5796 18.9937C28.6534 19.1153 28.6187 19.2734 28.5008 19.353L24.5867 21.8336L27.968 19.8826C28.0936 19.8109 28.2535 19.8523 28.3284 19.976C28.4033 20.0997 28.366 20.2606 28.2443 20.3386L25.5958 22.0181L27.5403 20.8981C27.6654 20.8312 27.821 20.874 27.8943 20.9955C27.9676 21.117 27.933 21.2746 27.8155 21.3541L27.0726 21.8234L27.1366 21.7872C27.2611 21.7203 27.4161 21.7622 27.49 21.8827C27.5639 22.0031 27.531 22.1603 27.415 22.241L25.7019 23.353L26.423 22.9333C26.5451 22.8628 26.7011 22.8996 26.7788 23.0173C26.8565 23.135 26.8291 23.2929 26.7163 23.3776L23.6091 25.7066L24.3846 25.2592C24.512 25.1867 24.674 25.2307 24.7473 25.3576C24.8206 25.4846 24.7777 25.6469 24.6512 25.721L19.9925 28.4106C19.8705 28.4796 19.7159 28.4422 19.6388 28.3252C19.5616 28.2081 19.5883 28.0514 19.6998 27.9664L22.8075 25.6405L17.0923 28.9376C16.9671 29.0104 16.8067 28.97 16.731 28.8465C16.6552 28.7231 16.6918 28.5618 16.8133 28.4832L18.5232 27.3733L15.736 28.9829C15.6955 29.0064 15.6495 29.0188 15.6027 29.0186Z" fill="#D8DDE5"/>
        <path d="M11.0971 15.1909C10.979 15.1906 10.8751 15.1126 10.8419 14.9993C10.8086 14.886 10.8538 14.7643 10.9531 14.7002L11.2656 14.5002L10.6325 14.8655C10.5077 14.9379 10.3479 14.8979 10.272 14.7752C10.1961 14.6525 10.2315 14.4916 10.352 14.4122L13.216 12.5231L10.24 14.2399C10.1159 14.3087 9.95974 14.2682 9.8846 14.1479C9.80946 14.0276 9.84165 13.8696 9.95785 13.7882L13.5547 11.3653L9.93118 13.4565C9.80835 13.5244 9.65391 13.4854 9.57796 13.3674C9.502 13.2494 9.53052 13.0927 9.64318 13.009L14.1093 9.83462L9.78612 12.3306C9.66123 12.4087 9.49671 12.3707 9.41865 12.2458C9.34059 12.1209 9.37856 11.9564 9.50345 11.8783L11.3541 10.6314L9.76532 11.5498C9.64153 11.6187 9.48551 11.5787 9.41004 11.4588C9.33457 11.339 9.36599 11.181 9.48158 11.0991L10.7083 10.2623L9.83892 10.7642C9.71668 10.8337 9.56148 10.7963 9.48426 10.6788C9.40704 10.5613 9.43435 10.404 9.54665 10.3194L11.3205 9.00102L10.1419 9.68102C10.0246 9.74395 9.87885 9.71077 9.80038 9.60327C9.72191 9.49577 9.73471 9.34687 9.83038 9.25435L10.9792 8.22235C10.8629 8.21307 10.7661 8.12926 10.7403 8.01547C10.7145 7.90167 10.7657 7.78433 10.8667 7.72582L12.7536 6.63675C12.8709 6.57382 13.0166 6.60699 13.0951 6.71449C13.1735 6.82199 13.1607 6.97089 13.0651 7.06342L12.0864 7.94235L15.0453 6.23568C15.1676 6.16619 15.3228 6.20355 15.4 6.32107C15.4772 6.43858 15.4499 6.59586 15.3376 6.68048L13.5648 7.99995L16.6251 6.23355C16.7487 6.16638 16.9033 6.20684 16.9781 6.32599C17.053 6.44513 17.0224 6.60195 16.9083 6.68421L15.6816 7.51942L17.7264 6.33915C17.8506 6.26834 18.0086 6.30815 18.0845 6.42938C18.1603 6.55061 18.1271 6.7101 18.0091 6.79088L16.16 8.03621L18.7403 6.54661C18.8634 6.47636 19.02 6.51477 19.0967 6.63404C19.1734 6.75332 19.1433 6.91174 19.0283 6.99461L14.56 10.1695L19.9557 7.05488C20.0798 6.98616 20.236 7.02659 20.3111 7.14689C20.3863 7.2672 20.3541 7.42527 20.2379 7.50661L16.64 9.93115L20.7211 7.57328C20.8457 7.50358 21.0031 7.5444 21.0781 7.66588C21.1532 7.78737 21.1192 7.94639 21.0011 8.02662L18.1424 9.91195L21.2485 8.11888C21.3733 8.05206 21.5286 8.09442 21.6022 8.21537C21.6758 8.33631 21.642 8.49368 21.5253 8.57382L21.2149 8.77221L21.552 8.57808C21.6766 8.50723 21.8348 8.54749 21.9104 8.66924C21.986 8.79099 21.9518 8.9507 21.8331 9.03088L19.6565 10.4799L21.8533 9.21222C21.9766 9.14298 22.1324 9.18193 22.2086 9.301C22.2847 9.42007 22.2548 9.57789 22.1403 9.66075L19.1643 11.7615L22.1285 10.0501C22.2506 9.98116 22.4052 10.0185 22.4823 10.1355C22.5594 10.2526 22.5328 10.4094 22.4213 10.4943L19.8357 12.4234L22.2288 11.0426C22.3496 10.9737 22.5031 11.0092 22.5813 11.1242C22.6596 11.2391 22.6364 11.3949 22.528 11.4821L20.7504 12.8965L22.1979 12.0607C22.3145 11.9916 22.4645 12.021 22.5464 12.1291C22.6283 12.2372 22.616 12.3896 22.5179 12.4831L21.3605 13.5999L22.0267 13.2154C22.1361 13.1525 22.2747 13.175 22.3587 13.2693C22.4426 13.3636 22.449 13.5038 22.3739 13.6053L21.6949 14.5205C21.7003 14.5285 21.7061 14.537 21.7115 14.5461C21.7851 14.6736 21.7414 14.8367 21.6139 14.9103L21.1995 15.1498C21.0901 15.2122 20.952 15.1897 20.8683 15.0957C20.7845 15.0017 20.7778 14.862 20.8523 14.7605L21.1781 14.3215L19.7413 15.1509C19.6247 15.2201 19.4747 15.1906 19.3928 15.0825C19.3109 14.9744 19.3232 14.8221 19.4213 14.7285L20.5781 13.6127L17.9115 15.1519C17.7906 15.2222 17.6359 15.1872 17.5571 15.0717C17.4784 14.9561 17.5022 14.7994 17.6117 14.7125L19.3904 13.2981L16.176 15.153C16.0539 15.2219 15.8994 15.1846 15.8222 15.0676C15.7451 14.9505 15.7717 14.7937 15.8832 14.7087L18.4672 12.7807L14.3547 15.1546C14.2314 15.2238 14.0756 15.1849 13.9994 15.0658C13.9232 14.9468 13.9532 14.7889 14.0677 14.7061L17.0443 12.6053L12.6267 15.1557C12.5019 15.2298 12.3407 15.1905 12.264 15.0672C12.1874 14.944 12.2234 14.782 12.3451 14.7029L14.5195 13.257L11.2293 15.1567C11.189 15.1796 11.1434 15.1913 11.0971 15.1909Z" fill="#82624B"/>
        <path d="M15.9925 25.8496C15.8827 25.8495 15.7842 25.782 15.7443 25.6797C15.7045 25.5773 15.7314 25.461 15.8123 25.3867L16.6501 24.6165L15.04 25.5467C14.9205 25.6139 14.7695 25.5795 14.6909 25.4672C14.6122 25.355 14.6315 25.2014 14.7355 25.112L16.1536 23.9211L14.2731 25.0064C14.1501 25.0759 13.9943 25.0375 13.9177 24.9188C13.8412 24.8001 13.8705 24.6423 13.9845 24.5589L14.0336 24.5232L13.92 24.5867C13.7982 24.6587 13.6413 24.623 13.5626 24.5053C13.4839 24.3877 13.5109 24.2291 13.624 24.144L14.9275 23.1403L13.6016 23.9056C13.4809 23.9754 13.3267 23.9404 13.248 23.8253C13.1692 23.7102 13.1925 23.5539 13.3013 23.4667L14.08 22.8379L13.4837 23.1819C13.3665 23.2448 13.2207 23.2116 13.1423 23.1041C13.0638 22.9966 13.0766 22.8477 13.1723 22.7552L13.5397 22.4256L13.4811 22.4592C13.3902 22.5117 13.277 22.506 13.1918 22.4447C13.1067 22.3833 13.0654 22.2778 13.0864 22.1749L13.2603 21.3259C13.1618 21.2916 13.0923 21.2031 13.0825 21.0992C13.0726 20.9954 13.1241 20.8954 13.2144 20.8432L13.4811 20.6885C13.5719 20.636 13.6852 20.6417 13.7703 20.7031C13.8555 20.7644 13.8967 20.87 13.8757 20.9728L13.7269 21.7019L15.4923 20.6821C15.6095 20.6192 15.7553 20.6524 15.8337 20.7599C15.9122 20.8674 15.8994 21.0163 15.8037 21.1088L15.4352 21.4389L16.7573 20.6763C16.8777 20.6085 17.0298 20.6438 17.108 20.7576C17.1863 20.8714 17.1646 21.0261 17.0581 21.1141L16.2789 21.7445L18.1371 20.672C18.2585 20.6036 18.4121 20.6403 18.4896 20.7562C18.567 20.8721 18.5422 21.0281 18.4325 21.1141L17.1291 22.1179L18.5157 21.3179C18.6387 21.2484 18.7945 21.2868 18.8711 21.4055C18.9476 21.5242 18.9183 21.682 18.8043 21.7653L18.6069 21.9067C18.7251 21.8881 18.8411 21.9506 18.8908 22.0594C18.9405 22.1681 18.9117 22.2967 18.8203 22.3739L17.4037 23.5637L18.4757 22.9445C18.5933 22.8782 18.7418 22.91 18.8218 23.0188C18.9017 23.1275 18.8878 23.2789 18.7893 23.3712L17.952 24.1419L18.1189 24.0453C18.2456 23.9791 18.4019 24.0244 18.4734 24.1482C18.5449 24.2719 18.5062 24.43 18.3856 24.5067L16.1259 25.8133C16.0855 25.8372 16.0394 25.8497 15.9925 25.8496Z" fill="#CE9972"/>
        <path d="M18.3392 24.4464C18.2474 24.4464 18.162 24.3991 18.1132 24.3213C18.0645 24.2435 18.0592 24.1461 18.0992 24.0634L18.4613 23.3136C18.4416 23.2951 18.4248 23.2739 18.4112 23.2506C18.3757 23.1893 18.366 23.1164 18.3843 23.048C18.4026 22.9795 18.4474 22.9212 18.5088 22.8858L18.8 22.7184C18.9014 22.6598 19.0292 22.6743 19.1149 22.754C19.2007 22.8338 19.2244 22.9602 19.1733 23.0656L18.9557 23.5157L20.1066 22.8522C20.1893 22.7997 20.2941 22.7967 20.3797 22.8444C20.4652 22.8921 20.5177 22.9829 20.5163 23.0809C20.515 23.1788 20.4601 23.2682 20.3733 23.3136L18.4725 24.4106C18.4319 24.4338 18.386 24.4461 18.3392 24.4464Z" fill="#346D94"/>
        <path d="M16.7467 28.9888C16.6331 28.9885 16.5322 28.9164 16.4952 28.8091C16.4581 28.7017 16.4931 28.5827 16.5824 28.5125L19.3168 26.3728L14.9163 28.9136C14.7924 28.9857 14.6337 28.9469 14.5569 28.8259C14.4802 28.7048 14.5129 28.5447 14.6309 28.4635L16.3909 27.2453L13.7472 28.7712C13.6226 28.842 13.4644 28.8018 13.3888 28.68C13.3132 28.5583 13.3474 28.3986 13.4661 28.3184L14.0347 27.9413L12.9472 28.5685C12.8284 28.6365 12.6775 28.6035 12.5979 28.4923C12.5183 28.381 12.5358 28.2276 12.6384 28.1371L13.6885 27.2245L11.8704 28.2741C11.7526 28.3457 11.5997 28.3158 11.5176 28.2051C11.4355 28.0943 11.4514 27.9393 11.5541 27.8475L12.8565 26.6208L10.8032 27.8064C10.6856 27.8747 10.5354 27.8435 10.4547 27.7341C10.3739 27.6246 10.3885 27.4719 10.4885 27.3797L11.9819 25.9963L9.75785 27.28C9.64058 27.3429 9.49486 27.3097 9.41638 27.2023C9.33791 27.0948 9.35071 26.9458 9.44639 26.8533L11.3515 25.1467L8.74665 26.6459C8.62537 26.7138 8.47225 26.6771 8.39485 26.5617C8.31745 26.4462 8.34174 26.2906 8.45065 26.2043L9.80425 25.1589L8.71572 25.7872C8.59631 25.8552 8.44474 25.8214 8.36563 25.709C8.28652 25.5966 8.30578 25.4425 8.41012 25.3531L9.41065 24.5029C9.35889 24.4804 9.31585 24.4416 9.28799 24.3925C9.21472 24.2651 9.25837 24.1024 9.38559 24.0288L11.2304 22.9621C11.3496 22.8954 11.4999 22.9296 11.5786 23.0412C11.6573 23.1529 11.6389 23.3059 11.536 23.3957L11.0027 23.8501L12.9803 22.7088C13.1016 22.6395 13.2559 22.6757 13.3338 22.7917C13.4117 22.9078 13.3868 23.0643 13.2768 23.1504L11.9248 24.1947L13.3008 23.4005C13.4181 23.3376 13.5638 23.3708 13.6423 23.4783C13.7207 23.5858 13.7079 23.7347 13.6123 23.8272L11.7061 25.5365L13.7685 24.3461C13.8861 24.2788 14.0355 24.3103 14.1158 24.4194C14.1961 24.5285 14.1819 24.6805 14.0827 24.7728L12.5867 26.16L14.5691 25.0133C14.6868 24.9417 14.8398 24.9716 14.9218 25.0824C15.0039 25.1931 14.9881 25.3481 14.8853 25.44L13.5835 26.6667L15.8176 25.3771C15.9365 25.3089 16.0877 25.342 16.1673 25.4535C16.2469 25.5651 16.229 25.7188 16.1259 25.8091L15.0763 26.72L21.1413 23.2192C21.2662 23.1468 21.4259 23.1869 21.5019 23.3096C21.5778 23.4323 21.5423 23.5931 21.4219 23.6725L20.8496 24.0528L21.7109 23.5552C21.8348 23.4831 21.9935 23.5218 22.0703 23.6429C22.147 23.764 22.1143 23.9241 21.9963 24.0053L20.2363 25.2245L22.3355 24.0128C22.4567 23.944 22.6104 23.9801 22.6883 24.0957C22.7662 24.2113 22.7419 24.3674 22.6325 24.4539L19.8997 26.592L22.9979 24.8037C23.1199 24.7338 23.2751 24.7707 23.3528 24.8879C23.4304 25.0051 23.4037 25.1624 23.2917 25.2475L22.1685 26.0933L23.3381 25.4181C23.4581 25.3489 23.6112 25.3831 23.6903 25.4968C23.7694 25.6106 23.7483 25.766 23.6416 25.8544L23.5317 25.9451L23.5851 25.9147C23.7117 25.8484 23.868 25.8938 23.9395 26.0175C24.0111 26.1412 23.9723 26.2993 23.8517 26.376L21.0693 27.9824C20.9493 28.0516 20.7963 28.0174 20.7172 27.9037C20.638 27.7899 20.6592 27.6346 20.7659 27.5461L20.8752 27.4555L18.6512 28.7397C18.5292 28.8096 18.3739 28.7728 18.2963 28.6556C18.2187 28.5384 18.2454 28.381 18.3573 28.296L19.48 27.4501L16.8768 28.9531C16.8372 28.9759 16.7924 28.9882 16.7467 28.9888Z" fill="#346D94"/>
        <path d="M15.6507 22.5888C15.5348 22.5887 15.4322 22.5138 15.3969 22.4034C15.3616 22.293 15.4017 22.1724 15.496 22.1051L15.7206 21.9451L15.0806 22.3131C14.9582 22.3786 14.8061 22.3393 14.7307 22.2227C14.6554 22.1062 14.6821 21.9513 14.792 21.8667L16.4731 20.64L14.4 21.8363C14.2771 21.9058 14.1212 21.8673 14.0447 21.7486C13.9682 21.6299 13.9975 21.4721 14.1115 21.3888L17.1851 19.1883L13.6598 21.2229C13.536 21.2928 13.3793 21.2534 13.3033 21.1333C13.2273 21.0132 13.2588 20.8547 13.375 20.7728L16.5867 18.56L12.8395 20.7232C12.7134 20.7998 12.5491 20.7597 12.4726 20.6336C12.396 20.5075 12.4361 20.3433 12.5622 20.2667L13.1888 19.8619L12.3606 20.3419C12.2349 20.4187 12.0708 20.3792 11.9939 20.2536C11.917 20.128 11.9565 19.9638 12.0822 19.8869L12.9531 19.3248L11.9686 19.8933C11.8454 19.9636 11.6888 19.9252 11.6121 19.8059C11.5354 19.6866 11.5655 19.5282 11.6806 19.4453L16.2886 16.1685L11.5915 18.88C11.468 18.949 11.3121 18.9096 11.2363 18.7901C11.1604 18.6706 11.1911 18.5128 11.3062 18.4304L15.3403 15.6357L11.4667 17.8709C11.3432 17.9399 11.1873 17.9005 11.1115 17.781C11.0356 17.6616 11.0663 17.5037 11.1814 17.4213L15.1515 14.6603L10.5302 17.3269C10.4058 17.3956 10.2494 17.3547 10.1746 17.2339C10.0998 17.1132 10.1328 16.9549 10.2496 16.8741L12.7926 15.1899L10.3787 16.5867C10.2538 16.6577 10.0951 16.617 10.0198 16.4947C9.9445 16.3723 9.97961 16.2123 10.0992 16.1328L11.8438 14.9867L10.2182 15.9243C10.0957 15.9911 9.94245 15.9522 9.86663 15.8351C9.79081 15.718 9.81804 15.5623 9.92909 15.4779L12.7254 13.4635L9.88322 15.104C9.78115 15.1643 9.65156 15.1499 9.56514 15.0688C9.47871 14.9877 9.4562 14.8593 9.50988 14.7536L9.84268 14.0917C9.72305 14.1284 9.59387 14.0783 9.53015 13.9707C9.45688 13.8432 9.50053 13.6806 9.62775 13.6069L10.3424 13.1941C10.4445 13.1339 10.5741 13.1482 10.6605 13.2293C10.7469 13.3104 10.7694 13.4389 10.7158 13.5445L10.3883 14.1973L17.0491 10.3515C17.1719 10.2826 17.327 10.3211 17.4034 10.4393C17.4798 10.5574 17.4513 10.7146 17.3382 10.7984L14.543 12.8117L19.6827 9.84426C19.8079 9.7693 19.97 9.80885 20.0467 9.93303C20.1233 10.0572 20.0858 10.2199 19.9627 10.2981L18.2107 11.4475L20.0608 10.3808C20.186 10.3032 20.3504 10.3417 20.428 10.4669C20.5056 10.5921 20.4671 10.7565 20.3419 10.8341L17.8022 12.5152L20.3782 11.0283C20.5017 10.9592 20.6576 10.9987 20.7334 11.1182C20.8092 11.2376 20.7785 11.3955 20.6635 11.4779L16.6934 14.24L20.6859 11.9349C20.8098 11.8628 20.9685 11.9016 21.0452 12.0226C21.122 12.1437 21.0893 12.3038 20.9712 12.3851L16.9398 15.1776L20.9035 12.8891C21.0267 12.8188 21.1833 12.8572 21.2599 12.9765C21.3366 13.0958 21.3065 13.2542 21.1915 13.3371L16.583 16.6144L22.0294 13.4704C22.1541 13.4027 22.31 13.4446 22.3841 13.5656C22.4581 13.6867 22.4243 13.8446 22.3072 13.9248L21.44 14.4832L22.2299 14.0277C22.3546 13.96 22.5106 14.0019 22.5846 14.123C22.6587 14.2441 22.6249 14.4019 22.5078 14.4821L21.8747 14.8912L22.08 14.7733C22.2039 14.7012 22.3626 14.74 22.4394 14.861C22.5161 14.9821 22.4834 15.1422 22.3654 15.2235L19.1558 17.4368L21.6347 16.0059C21.7577 15.9364 21.9135 15.9748 21.99 16.0935C22.0666 16.2122 22.0373 16.37 21.9232 16.4533L18.8512 18.6539L20.5184 17.6939C20.6412 17.6222 20.7987 17.6595 20.8763 17.7787C20.9539 17.8979 20.9243 18.0569 20.8091 18.1403L19.1275 19.3669L20.3542 18.6576C20.477 18.5897 20.6314 18.6287 20.7074 18.7467C20.7834 18.8647 20.7548 19.0214 20.6422 19.1051L20.0838 19.5024C20.2029 19.5056 20.3055 19.5875 20.335 19.703C20.3645 19.8185 20.3137 19.9395 20.2107 19.9995L15.784 22.5595C15.743 22.5809 15.6969 22.591 15.6507 22.5888Z" fill="#E4AE80"/>
        <path d="M10.9296 13.5712C10.8148 13.5712 10.7129 13.4977 10.6766 13.3888C10.6403 13.28 10.6778 13.1601 10.7696 13.0912L11.0811 12.8581C10.9939 12.8591 10.9112 12.8197 10.8571 12.7515C10.776 12.6437 10.7881 12.4924 10.8853 12.3989L11.8331 11.488L11.5477 11.6528C11.4352 11.7177 11.2923 11.6922 11.2093 11.5923C11.1263 11.4924 11.1273 11.3472 11.2117 11.2485L12.0027 10.3264C11.9664 10.3039 11.9365 10.2725 11.9157 10.2352C11.8424 10.1079 11.8858 9.94526 12.0128 9.87145L12.8064 9.41332C12.9189 9.34836 13.0618 9.3739 13.1448 9.4738C13.2279 9.57369 13.2268 9.71888 13.1424 9.81758L12.6336 10.4107L13.4651 9.93065C13.5819 9.86031 13.733 9.88946 13.8153 9.99821C13.8975 10.107 13.8845 10.2603 13.7851 10.3536L12.8384 11.2603L14.488 10.3083C14.6102 10.2377 14.7661 10.2746 14.8438 10.3923C14.9215 10.51 14.8941 10.6679 14.7813 10.7525L14.6747 10.8315L15.3872 10.4208C15.5138 10.3545 15.6701 10.3999 15.7417 10.5236C15.8132 10.6473 15.7745 10.8055 15.6539 10.8821L11.064 13.5323C11.0235 13.5572 10.9771 13.5706 10.9296 13.5712Z" fill="#E4AE80"/>
        <path d="M18.9488 31.4288C26.3567 29.9562 31.7326 23.5139 31.8555 15.9621C31.6971 9.30611 27.648 3.30931 21.2533 1.13064C15.1081 -0.917428 8.33357 0.896267 4.0336 5.74077C-0.402604 10.8549 -1.07937 18.23 2.352 24.0661C5.80836 29.7403 12.4226 32.6745 18.9488 31.4288ZM16.608 0.803173C24.7589 1.20531 30.887 8.03411 31.0779 16.0384C30.8768 24.4842 24.0747 31.6032 15.392 31.1968C7.38187 30.8218 0.932269 23.9466 0.922136 15.9616C0.912003 7.51997 8.08694 0.383439 16.608 0.803173Z" fill="#262626"/>
        <path d="M7.89922 26.1509L7.89175 26.1669C7.86864 26.2052 7.86212 26.2512 7.87369 26.2944C7.88527 26.3375 7.91393 26.3741 7.95308 26.3957C8.95321 27.1068 10.0416 27.6846 11.1909 28.1146C15.3683 29.757 20.0952 29.1519 23.7243 26.5104C23.7936 26.4634 23.8645 26.4213 23.9328 26.3733C24.0203 26.3431 24.0922 26.2794 24.1328 26.1962C31.1568 20.5904 30.7952 8.46235 21.7563 4.21328C16.3653 1.68048 10.0923 3.17008 6.08482 7.44902C5.76482 7.78875 6.51575 7.82662 6.71468 7.61382C11.6288 2.36635 19.9163 2.06235 24.9307 7.34715C28.9102 11.5975 29.5095 18.0019 26.3877 22.9168C25.7145 23.9599 24.8839 24.8925 23.9253 25.6816C23.0364 23.8248 21.1446 22.6586 19.0864 22.6986C19.1141 22.0874 19.0576 21.4528 19.0565 20.8789C19.1733 20.7909 19.2901 20.7061 19.408 20.6256C20.4517 19.9812 21.0796 18.8355 21.0613 17.609C21.3868 17.5624 21.6872 17.4081 21.9147 17.1706C22.0333 17.019 22.1072 16.8372 22.128 16.6458C22.1732 16.1689 22.2899 15.7014 22.4741 15.2592C22.7157 14.7424 22.9733 14.0197 22.5392 13.5482C23.5947 8.67622 20.4683 5.98609 15.6496 6.13329C11.0448 6.27622 8.45335 9.19409 9.47521 13.744C9.27506 13.982 9.18376 14.2931 9.22348 14.6016C9.33355 15.047 9.49873 15.477 9.71521 15.8816C9.79589 16.2179 9.85098 16.5598 9.88001 16.9045C9.91561 17.126 10.0321 17.3265 10.2069 17.4672C10.4396 17.5704 10.6826 17.6487 10.9317 17.7008C11.0181 19.5573 11.7227 20.0325 12.944 20.9365C12.944 21.5018 12.8981 22.1098 12.9152 22.7029C10.9055 22.7295 9.07305 23.8582 8.14508 25.641C3.53442 21.8069 2.41068 15.2224 5.16322 9.82022C5.34295 9.46769 4.56642 9.52155 4.43628 9.77702C1.54835 15.3638 2.99663 22.2118 7.89922 26.1509ZM18.1248 23.5909C17.3781 25.7077 14.5547 25.5642 13.8496 23.3904C13.742 22.7766 13.6978 22.1534 13.7179 21.5306C14.5515 22.1877 15.2645 22.7354 16.4619 22.4592C17.1305 22.2665 17.7504 21.9334 18.28 21.4821C18.3043 22.1886 18.2522 22.8956 18.1248 23.5909ZM10.3141 9.52155C11.3275 6.90822 14.5349 6.49115 16.9941 6.72582C20.8693 7.09595 22.4395 9.75729 21.8272 13.2458C21.7117 13.244 21.5963 13.2537 21.4827 13.2746C21.3029 12.0554 20.9616 10.7232 20.0987 9.80795C19.4091 9.25969 19.1616 9.52315 18.4832 9.80795C17.0555 10.4106 15.3851 10.888 13.9605 10.0213C13.648 9.83142 13.4955 9.51675 13.1227 9.46075C11.4533 9.21062 10.7696 11.8784 10.5493 13.2608C10.432 13.2669 10.3155 13.2848 10.2016 13.3141C9.87616 12.0651 9.91521 10.749 10.3141 9.52155ZM11.7045 17.4965V17.4432C11.7045 17.4005 11.5845 17.3994 11.5717 17.3989C10.5152 17.3333 10.7557 16.64 10.56 15.9072C10.4507 15.4954 10.2043 15.1429 10.0757 14.7397C9.99448 14.4523 9.98314 14.1497 10.0427 13.857C10.1499 13.8137 10.2261 13.7166 10.2427 13.6021C10.3341 13.5732 10.4329 13.5787 10.5205 13.6176C10.5731 13.6304 10.628 13.6304 10.6805 13.6176C10.9029 13.6069 11.2501 13.5344 11.2672 13.3845C11.366 12.3904 11.6617 11.4258 12.1371 10.5472C12.2173 10.384 12.3237 10.2352 12.4523 10.1066C12.57 9.77738 12.7209 9.74964 12.9051 10.0234C12.9664 10.0325 13.0427 10.1786 13.1056 10.201C13.5583 10.4152 14.0287 10.5897 14.5115 10.7226C15.55 10.9057 16.616 10.8604 17.6352 10.5898C18.1835 10.4378 18.9627 9.74342 19.3621 10.0608C20.2112 10.9626 20.5355 12.3205 20.7093 13.5152C20.7089 13.541 20.7125 13.5667 20.72 13.5914C20.7392 13.7168 21.1973 13.577 21.2368 13.5626C21.428 13.5075 21.633 13.581 21.7456 13.745C21.7525 13.801 21.7884 13.8492 21.84 13.872C21.9072 13.9744 21.9563 14.0877 21.9851 14.2069C22.0109 14.7101 21.8769 15.2085 21.6021 15.6309C21.4075 16.0794 21.5131 17.3584 20.8523 17.3994C20.8205 17.4024 20.789 17.4084 20.7584 17.4176C20.5451 17.4485 20.2976 17.528 20.2955 17.6464C20.3606 18.8449 19.7803 19.9869 18.7739 20.641C18.5499 20.6304 18.2709 20.7509 18.2709 20.9365V20.9898C17.3739 21.6298 16.3883 22.4794 15.2485 21.9498C14.6981 21.6422 14.1835 21.2745 13.7141 20.8533C13.7088 20.7104 13.5872 20.6469 13.4405 20.64C13.3744 20.5898 13.3083 20.5408 13.2443 20.496C12.236 19.8394 11.6504 18.6984 11.7045 17.4965ZM12.9845 23.4634L12.9915 23.4704C12.9995 23.5157 13 23.5637 13.0101 23.6085C13.1696 24.3072 13.5911 24.9181 14.1877 25.3152C14.24 25.3603 14.2952 25.4018 14.3531 25.4394C14.3973 25.4656 14.4459 25.4816 14.4912 25.505C14.5083 25.5141 14.5259 25.521 14.5445 25.5296C14.6674 25.5921 14.7947 25.6456 14.9253 25.6896C14.9941 25.713 15.0651 25.7285 15.1355 25.7472C15.2059 25.7658 15.28 25.7866 15.3536 25.8005C15.5538 25.8402 15.7575 25.8597 15.9616 25.8586C17.2831 25.8468 18.4586 25.0164 18.9115 23.7749C18.928 23.7258 18.9381 23.6736 18.952 23.6229C18.9561 23.617 18.9598 23.611 18.9632 23.6048L18.9584 23.5989C18.9946 23.464 19.0225 23.327 19.0421 23.1888C19.7545 23.1965 20.4563 23.3613 21.0976 23.6714C22.1028 24.2183 22.883 25.1021 23.3008 26.1674C23.0814 26.3249 22.858 26.4748 22.6304 26.617C21.4776 27.3177 20.2251 27.8392 18.9157 28.1637L18.8379 28.1818C18.6635 28.2234 18.4885 28.257 18.3131 28.2885C15.232 28.8721 12.0443 28.2585 9.40001 26.5728C9.07256 26.3317 8.89012 25.9407 8.91575 25.5349C9.02721 23.9546 12.6064 23.1541 12.9829 23.4634H12.9845Z" fill="#262626"/>
    </g>
    <defs>
        <clipPath id="clip0_1_1485">
            <rect width="32" height="32" fill="white"/>
        </clipPath>
    </defs>
</svg>
