<svg width="64" height="64" viewBox="0 0 64 64" fill="none" xmlns="http://www.w3.org/2000/svg">
    <path fill-rule="evenodd" clip-rule="evenodd" d="M37.2887 5.41598L33.5194 1.18068C32.7108 0.27221 31.2908 0.27221 30.4824 1.18068L26.7131 5.41598L21.61 2.9454C20.5152 2.41554 19.2033 2.959 18.804 4.10772L16.9424 9.46312L11.2824 9.13359C10.0682 9.06276 9.06418 10.067 9.13487 11.2811L9.4644 16.9411L4.109 18.8027C2.96014 19.2021 2.41668 20.514 2.94669 21.6087L5.41726 26.7118L1.18197 30.4811C0.273492 31.2895 0.273492 32.7095 1.18197 33.5181L5.41726 37.2874L2.94669 42.3905C2.41683 43.4852 2.96028 44.797 4.109 45.1964L9.4644 47.058L9.25329 50.684L9.25284 50.684L9.13436 52.7183C9.06368 53.9324 10.0677 54.9366 11.2818 54.8659L16.9419 54.5364L18.8035 59.8918C19.2028 61.0406 20.5147 61.584 21.6095 61.0541L26.7126 58.5837L30.4819 62.819C31.2904 63.7274 32.7105 63.7274 33.5189 62.819L33.5194 62.8184L37.2882 58.5837L42.3913 61.0541C43.1921 61.4418 44.1092 61.2551 44.7002 60.6771C44.9173 60.4649 45.0905 60.2 45.1978 59.8914L47.0592 54.5364L52.7189 54.8659C53.1934 54.8935 53.6358 54.757 53.9945 54.5079C54.0529 54.4675 54.109 54.424 54.1627 54.3778C54.6239 53.9809 54.9055 53.3807 54.8669 52.718L54.5374 47.0581L59.8923 45.1967C59.9553 45.1748 60.0165 45.1501 60.0758 45.1229C60.1101 45.1071 60.1438 45.0906 60.1768 45.0731C61.1276 44.572 61.5393 43.3906 61.0551 42.3905L58.5845 37.2874L62.8198 33.5181C63.7283 32.7097 63.7283 31.2897 62.8198 30.4811L58.5845 26.7118L61.0551 21.6087C61.5849 20.5139 61.0415 19.2021 59.8928 18.8027L54.5374 16.9411L54.8669 11.2811C54.9377 10.067 53.9335 9.0629 52.7194 9.13359L47.0594 9.46312L45.1978 4.10772C44.7984 2.95885 43.4864 2.4154 42.3918 2.9454L37.2887 5.41598Z" fill="white" fill-opacity="0.38"/>
    <path d="M31.9999 52.9993C43.5979 52.9993 52.9999 43.5973 52.9999 31.9993C52.9999 20.4014 43.5979 10.9993 31.9999 10.9993C20.4019 10.9993 10.9999 20.4014 10.9999 31.9993C10.9999 43.5973 20.4019 52.9993 31.9999 52.9993Z" fill="#927748"/>
    <path d="M21.3486 28.8674C21.2626 28.8674 21.1883 28.8418 21.1257 28.7905C21.071 28.7392 21.0436 28.6733 21.0436 28.5926V27.8122C21.0436 27.7609 21.0592 27.684 21.0905 27.5814C21.1218 27.4715 21.2039 27.3689 21.3369 27.2736L22.5571 26.1525C23.1828 25.7055 23.6951 25.3281 24.094 25.0203C24.5008 24.7052 24.8019 24.4268 24.9974 24.185C25.193 23.9432 25.2908 23.716 25.2908 23.5035C25.2908 23.2543 25.2204 23.0492 25.0796 22.888C24.9466 22.7194 24.712 22.6351 24.3756 22.6351C24.1488 22.6351 23.9572 22.6828 23.8007 22.778C23.6521 22.866 23.5387 22.9832 23.4605 23.1298C23.3823 23.2763 23.3275 23.4265 23.2962 23.5804C23.2649 23.6757 23.2102 23.7416 23.132 23.7783C23.0616 23.8149 22.9834 23.8332 22.8973 23.8332H21.4308C21.3604 23.8332 21.3017 23.8113 21.2548 23.7673C21.2078 23.7233 21.1844 23.6684 21.1844 23.6024C21.1922 23.2507 21.2704 22.9209 21.419 22.6132C21.5755 22.3054 21.7906 22.0343 22.0643 21.7998C22.3459 21.558 22.6783 21.3711 23.0616 21.2392C23.4527 21.1073 23.8907 21.0414 24.3756 21.0414C25.0405 21.0414 25.6036 21.1403 26.0651 21.3381C26.5344 21.536 26.8903 21.8144 27.1328 22.1735C27.3752 22.5252 27.4965 22.9393 27.4965 23.4156C27.4965 23.7746 27.4104 24.1117 27.2384 24.4268C27.0741 24.7346 26.8355 25.0313 26.5227 25.3171C26.2176 25.5956 25.8539 25.885 25.4315 26.1855L24.3522 27.2077H27.3674C27.4535 27.2077 27.5238 27.2333 27.5786 27.2846C27.6412 27.3359 27.6725 27.4019 27.6725 27.4825V28.5926C27.6725 28.6733 27.6412 28.7392 27.5786 28.7905C27.5238 28.8418 27.4535 28.8674 27.3674 28.8674H21.3486Z" fill="white"/>
    <path d="M33.0634 28.8674C32.9852 28.8674 32.9148 28.8418 32.8522 28.7905C32.7974 28.7392 32.7701 28.6733 32.7701 28.5926V27.3506H29.1212C29.043 27.3506 28.9726 27.3249 28.9101 27.2736C28.8553 27.2223 28.8279 27.1564 28.8279 27.0758V26.0316C28.8279 25.9656 28.8397 25.907 28.8631 25.8557C28.8944 25.7971 28.9257 25.7421 28.957 25.6908L32.3712 21.3601C32.4728 21.2355 32.6175 21.1733 32.8053 21.1733H34.5065C34.5925 21.1733 34.6629 21.1989 34.7177 21.2502C34.7802 21.3015 34.8115 21.3674 34.8115 21.448V25.7128H35.844C35.9378 25.7128 36.0121 25.7421 36.0669 25.8008C36.1217 25.852 36.149 25.9143 36.149 25.9876V27.0758C36.149 27.1564 36.1177 27.2223 36.0552 27.2736C36.0004 27.3249 35.9339 27.3506 35.8557 27.3506H34.8115V28.5926C34.8115 28.6733 34.7802 28.7392 34.7177 28.7905C34.6629 28.8418 34.5925 28.8674 34.5065 28.8674H33.0634ZM30.8459 25.7898H32.817V23.1957L30.8459 25.7898Z" fill="white"/>
    <path d="M37.9634 28.8674C37.8773 28.8674 37.8069 28.8418 37.7522 28.7905C37.6974 28.7392 37.67 28.6733 37.67 28.5926V21.448C37.67 21.3674 37.6974 21.3015 37.7522 21.2502C37.8069 21.1989 37.8773 21.1733 37.9634 21.1733H39.4417C39.5277 21.1733 39.5981 21.1989 39.6528 21.2502C39.7076 21.3015 39.735 21.3674 39.735 21.448V23.8882L41.9055 21.3821C41.9368 21.3381 41.9876 21.2942 42.058 21.2502C42.1362 21.1989 42.2379 21.1733 42.3631 21.1733H44.0525C44.1229 21.1733 44.1816 21.1989 44.2285 21.2502C44.2755 21.2942 44.2989 21.3455 44.2989 21.4041C44.2989 21.4554 44.2833 21.4993 44.252 21.536L41.4479 24.8555L44.4749 28.5047C44.5062 28.534 44.5218 28.578 44.5218 28.6366C44.5218 28.6952 44.4945 28.7502 44.4397 28.8015C44.3928 28.8455 44.338 28.8674 44.2755 28.8674H42.5273C42.3865 28.8674 42.277 28.8381 42.1988 28.7795C42.1284 28.7209 42.0815 28.6769 42.058 28.6476L39.735 25.9327V28.5926C39.735 28.6733 39.7076 28.7392 39.6528 28.7905C39.5981 28.8418 39.5277 28.8674 39.4417 28.8674H37.9634Z" fill="white"/>
    <path d="M60.189 46.4991H3.81074C3.1827 46.4991 2.49988 45.8224 2.49988 44.7491V35.7491C2.49988 34.6758 3.1827 33.9991 3.81074 33.9991H60.189C60.8171 33.9991 61.4999 34.6758 61.4999 35.7491V44.7491C61.4999 45.8224 60.8171 46.4991 60.189 46.4991Z" fill="white" stroke="white"/>
    <path d="M12.017 43.529C11.9386 43.529 11.8745 43.5068 11.8247 43.4625C11.7748 43.4181 11.7499 43.3611 11.7499 43.2913V37.1118C11.7499 37.042 11.7748 36.985 11.8247 36.9406C11.8745 36.8963 11.9386 36.8741 12.017 36.8741H15.0083C15.5995 36.8741 16.1123 36.9565 16.5468 37.1213C16.9883 37.2797 17.3302 37.5206 17.5724 37.8438C17.8217 38.167 17.9463 38.5758 17.9463 39.0702C17.9463 39.5582 17.8217 39.9607 17.5724 40.2776C17.3302 40.5945 16.9883 40.829 16.5468 40.9811C16.1123 41.1332 15.5995 41.2093 15.0083 41.2093H13.737V43.2913C13.737 43.3611 13.7085 43.4181 13.6515 43.4625C13.6017 43.5068 13.5376 43.529 13.4592 43.529H12.017ZM13.705 39.8973H14.9549C15.2612 39.8973 15.5033 39.8276 15.6814 39.6882C15.8666 39.5487 15.9592 39.3364 15.9592 39.0512C15.9592 38.8104 15.8808 38.6075 15.7241 38.4427C15.5674 38.278 15.311 38.1956 14.9549 38.1956H13.705V39.8973Z" fill="#937748"/>
    <path d="M22.4203 43.6241C21.7793 43.6241 21.2167 43.5322 20.7324 43.3484C20.2552 43.1582 19.8848 42.8699 19.6213 42.4832C19.3577 42.0903 19.226 41.5927 19.226 40.9906V37.1118C19.226 37.042 19.2509 36.985 19.3008 36.9406C19.3506 36.8963 19.4147 36.8741 19.4931 36.8741H20.8712C20.9496 36.8741 21.0137 36.8963 21.0635 36.9406C21.1134 36.985 21.1383 37.042 21.1383 37.1118V40.9811C21.1383 41.3931 21.2487 41.7037 21.4695 41.9128C21.6974 42.1156 22.0144 42.217 22.4203 42.217C22.8192 42.217 23.129 42.1156 23.3498 41.9128C23.5777 41.7037 23.6917 41.3931 23.6917 40.9811V37.1118C23.6917 37.042 23.7166 36.985 23.7665 36.9406C23.8234 36.8963 23.8875 36.8741 23.9588 36.8741H25.3476C25.4188 36.8741 25.4794 36.8963 25.5292 36.9406C25.5862 36.985 25.6147 37.042 25.6147 37.1118V40.9906C25.6147 41.5927 25.4829 42.0903 25.2194 42.4832C24.9559 42.8699 24.5855 43.1582 24.1083 43.3484C23.6311 43.5322 23.0685 43.6241 22.4203 43.6241Z" fill="#937748"/>
    <path d="M27.619 43.529C27.5407 43.529 27.4766 43.5068 27.4267 43.4625C27.3769 43.4181 27.3519 43.3611 27.3519 43.2913V37.1118C27.3519 37.042 27.3769 36.985 27.4267 36.9406C27.4766 36.8963 27.5407 36.8741 27.619 36.8741H30.5249C31.4437 36.8741 32.1666 37.0642 32.6937 37.4445C33.2279 37.8185 33.4949 38.3508 33.4949 39.0417C33.4949 39.4917 33.3703 39.872 33.121 40.1825C32.8789 40.4931 32.5584 40.7276 32.1595 40.8861L33.6338 43.2248C33.6552 43.2628 33.6659 43.2977 33.6659 43.3294C33.6659 43.3801 33.6409 43.4276 33.5911 43.472C33.5484 43.51 33.4949 43.529 33.4308 43.529H32.0206C31.8853 43.529 31.7856 43.5005 31.7215 43.4435C31.6574 43.3801 31.6111 43.323 31.5826 43.2723L30.3647 41.1808H29.2643V43.2913C29.2643 43.3611 29.2394 43.4181 29.1895 43.4625C29.1396 43.5068 29.0755 43.529 28.9972 43.529H27.619ZM29.2643 39.8403H30.5036C30.8383 39.8403 31.0876 39.7674 31.2514 39.6216C31.4223 39.4758 31.5078 39.2762 31.5078 39.0227C31.5078 38.7755 31.4259 38.5758 31.2621 38.4237C31.1054 38.2716 30.8526 38.1956 30.5036 38.1956H29.2643V39.8403Z" fill="#937748"/>
    <path d="M35.3262 43.529C35.2478 43.529 35.1837 43.5068 35.1339 43.4625C35.084 43.4181 35.0591 43.3611 35.0591 43.2913V37.1118C35.0591 37.042 35.084 36.985 35.1339 36.9406C35.1837 36.8963 35.2478 36.8741 35.3262 36.8741H36.7577C36.8361 36.8741 36.9002 36.8963 36.95 36.9406C36.9999 36.985 37.0248 37.042 37.0248 37.1118V43.2913C37.0248 43.3611 36.9999 43.4181 36.95 43.4625C36.9002 43.5068 36.8361 43.529 36.7577 43.529H35.3262Z" fill="#937748"/>
    <path d="M40.7557 43.529C40.6774 43.529 40.6133 43.5068 40.5634 43.4625C40.5135 43.4181 40.4886 43.3611 40.4886 43.2913V38.3667H38.587C38.5086 38.3667 38.4445 38.3445 38.3947 38.3001C38.3448 38.2494 38.3199 38.1924 38.3199 38.129V37.1118C38.3199 37.042 38.3448 36.985 38.3947 36.9406C38.4445 36.8963 38.5086 36.8741 38.587 36.8741H44.3347C44.413 36.8741 44.4771 36.8963 44.527 36.9406C44.5768 36.985 44.6018 37.042 44.6018 37.1118V38.129C44.6018 38.1924 44.5768 38.2494 44.527 38.3001C44.4771 38.3445 44.413 38.3667 44.3347 38.3667H42.433V43.2913C42.433 43.3611 42.4081 43.4181 42.3582 43.4625C42.3084 43.5068 42.2443 43.529 42.1659 43.529H40.7557Z" fill="#937748"/>
    <path d="M48.0833 43.529C48.0121 43.529 47.948 43.5068 47.891 43.4625C47.8412 43.4181 47.8162 43.3611 47.8162 43.2913V41.2473L45.3377 37.1783C45.3305 37.1593 45.3234 37.1435 45.3163 37.1308C45.3092 37.1118 45.3056 37.0927 45.3056 37.0737C45.3056 37.023 45.327 36.9787 45.3697 36.9406C45.4196 36.8963 45.4766 36.8741 45.5407 36.8741H46.8761C46.9829 36.8741 47.0648 36.8994 47.1218 36.9501C47.1859 36.9945 47.2251 37.0357 47.2393 37.0737L48.7777 39.5265L50.3162 37.0737C50.3375 37.0357 50.3767 36.9945 50.4337 36.9501C50.4978 36.8994 50.5833 36.8741 50.6901 36.8741H52.0255C52.0896 36.8741 52.143 36.8963 52.1858 36.9406C52.2285 36.9787 52.2499 37.023 52.2499 37.0737C52.2499 37.0927 52.2463 37.1118 52.2392 37.1308C52.2392 37.1435 52.2356 37.1593 52.2285 37.1783L49.7393 41.2473V43.2913C49.7393 43.3611 49.7143 43.4181 49.6645 43.4625C49.6146 43.5068 49.5505 43.529 49.4722 43.529H48.0833Z" fill="#937748"/>
</svg>
