<svg width="33" height="32" viewBox="0 0 33 32" fill="none" xmlns="http://www.w3.org/2000/svg">
    <path d="M23.75 3L24.25 1H17.25L17.75 3H23.75Z" fill="#FF808D"/>
    <path d="M3.75 21.5H6.75V29.5H3.75V21.5Z" fill="#FF808D"/>
    <path d="M27.5 0.5H14C13.536 0.500513 13.0912 0.685052 12.7631 1.01313C12.4351 1.34121 12.2505 1.78603 12.25 2.25V17.1681C11.9869 17.0437 11.6969 16.9868 11.4063 17.0026C11.1157 17.0183 10.8336 17.1063 10.5855 17.2585C10.3374 17.4106 10.1312 17.6222 9.9854 17.8742C9.83963 18.1261 9.75894 18.4103 9.75062 18.7013L9.28625 21.2569L8.54313 22H7.25V21.5C7.25 21.3674 7.19732 21.2402 7.10355 21.1464C7.00979 21.0527 6.88261 21 6.75 21H3.75C3.61739 21 3.49021 21.0527 3.39645 21.1464C3.30268 21.2402 3.25 21.3674 3.25 21.5V29.5C3.25 29.6326 3.30268 29.7598 3.39645 29.8536C3.49021 29.9473 3.61739 30 3.75 30H6.75C6.88261 30 7.00979 29.9473 7.10355 29.8536C7.19732 29.7598 7.25 29.6326 7.25 29.5V29H8.54313L9.39625 29.8538C9.49013 29.9474 9.61736 30 9.75 30H12.2681C12.3288 30.4162 12.5371 30.7968 12.855 31.0722C13.173 31.3475 13.5794 31.4994 14 31.5H27.5C27.964 31.4995 28.4088 31.3149 28.7369 30.9869C29.0649 30.6588 29.2495 30.214 29.25 29.75V2.25C29.2495 1.78603 29.0649 1.34121 28.7369 1.01313C28.4088 0.685052 27.964 0.500513 27.5 0.5ZM6.25 29H4.25V22H6.25V29ZM23.6094 1.5L23.3594 2.5H18.1406L17.8906 1.5H23.6094ZM9.95687 29L9.10375 28.1462C9.00987 28.0526 8.88264 28 8.75 28H7.25V23H8.75C8.88264 23 9.00987 22.9474 9.10375 22.8538L10.1038 21.8538C10.1756 21.7817 10.2238 21.6895 10.2419 21.5894L10.7419 18.8394C10.7474 18.8099 10.7501 18.78 10.75 18.75C10.75 18.5511 10.829 18.3603 10.9697 18.2197C11.1103 18.079 11.3011 18 11.5 18C11.6989 18 11.8897 18.079 12.0303 18.2197C12.171 18.3603 12.25 18.5511 12.25 18.75V21.5C12.25 21.6326 12.3027 21.7598 12.3964 21.8536C12.4902 21.9473 12.6174 22 12.75 22H20.75C20.8826 22 21.0098 22.0527 21.1036 22.1464C21.1973 22.2402 21.25 22.3674 21.25 22.5C21.25 22.6326 21.1973 22.7598 21.1036 22.8536C21.0098 22.9473 20.8826 23 20.75 23H14.25C14.1174 23 13.9902 23.0527 13.8964 23.1464C13.8027 23.2402 13.75 23.3674 13.75 23.5C13.75 23.6326 13.8027 23.7598 13.8964 23.8536C13.9902 23.9473 14.1174 24 14.25 24H20.75C20.8826 24 21.0098 24.0527 21.1036 24.1464C21.1973 24.2402 21.25 24.3674 21.25 24.5C21.25 24.6326 21.1973 24.7598 21.1036 24.8536C21.0098 24.9473 20.8826 25 20.75 25H14.25C14.1174 25 13.9902 25.0527 13.8964 25.1464C13.8027 25.2402 13.75 25.3674 13.75 25.5C13.75 25.6326 13.8027 25.7598 13.8964 25.8536C13.9902 25.9473 14.1174 26 14.25 26H20.75C20.8826 26 21.0098 26.0527 21.1036 26.1464C21.1973 26.2402 21.25 26.3674 21.25 26.5C21.25 26.6326 21.1973 26.7598 21.1036 26.8536C21.0098 26.9473 20.8826 27 20.75 27H14.25C14.1174 27 13.9902 27.0527 13.8964 27.1464C13.8027 27.2402 13.75 27.3674 13.75 27.5C13.75 27.6326 13.8027 27.7598 13.8964 27.8536C13.9902 27.9473 14.1174 28 14.25 28H19.75C19.8826 28 20.0098 28.0527 20.1036 28.1464C20.1973 28.2402 20.25 28.3674 20.25 28.5C20.25 28.6326 20.1973 28.7598 20.1036 28.8536C20.0098 28.9473 19.8826 29 19.75 29H9.95687ZM28.25 29.75C28.2498 29.9489 28.1708 30.1395 28.0301 30.2801C27.8895 30.4208 27.6989 30.4998 27.5 30.5H14C13.8451 30.4997 13.694 30.4515 13.5676 30.362C13.4412 30.2724 13.3455 30.146 13.2937 30H19.75C19.9947 30.0001 20.2358 29.9402 20.452 29.8257C20.6683 29.7112 20.8533 29.5455 20.9908 29.3431C21.1284 29.1406 21.2143 28.9076 21.241 28.6644C21.2678 28.4211 21.2346 28.175 21.1444 27.9475C21.3911 27.8802 21.6165 27.7509 21.7992 27.5719C21.9819 27.393 22.1159 27.1704 22.1884 26.9251C22.2609 26.6799 22.2696 26.4202 22.2135 26.1706C22.1574 25.9211 22.0386 25.69 21.8681 25.4994C22.1141 25.2244 22.2501 24.8683 22.2501 24.4994C22.2501 24.1304 22.1141 23.7744 21.8681 23.4994C22.0611 23.2836 22.1876 23.0165 22.2321 22.7304C22.2767 22.4444 22.2375 22.1515 22.1193 21.8872C22.001 21.623 21.8088 21.3985 21.5659 21.2411C21.3229 21.0837 21.0395 20.9999 20.75 21H13.25V2.25C13.2502 2.05114 13.3292 1.86047 13.4699 1.71985C13.6105 1.57924 13.8011 1.50017 14 1.5H16.8594L17.265 3.12125C17.292 3.22942 17.3545 3.32545 17.4423 3.39407C17.5302 3.4627 17.6385 3.49998 17.75 3.5H23.75C23.8615 3.49998 23.9698 3.4627 24.0577 3.39407C24.1455 3.32545 24.208 3.22942 24.235 3.12125L24.6406 1.5H27.5C27.6989 1.50017 27.8895 1.57924 28.0301 1.71985C28.1708 1.86047 28.2498 2.05114 28.25 2.25V29.75Z" fill="#404040"/>
    <path d="M20.75 16.5C23.2353 16.5 25.25 14.4853 25.25 12C25.25 9.51472 23.2353 7.5 20.75 7.5C18.2647 7.5 16.25 9.51472 16.25 12C16.25 14.4853 18.2647 16.5 20.75 16.5Z" fill="#FF808D"/>
    <path d="M19.75 13.5C19.6174 13.5 19.4902 13.5527 19.3964 13.6464C19.3027 13.7402 19.25 13.8674 19.25 14C19.25 14.1326 19.3027 14.2598 19.3964 14.3536C19.4902 14.4473 19.6174 14.5 19.75 14.5H20.25C20.25 14.6326 20.3027 14.7598 20.3964 14.8536C20.4902 14.9473 20.6174 15 20.75 15C20.8826 15 21.0098 14.9473 21.1036 14.8536C21.1973 14.7598 21.25 14.6326 21.25 14.5H21.75C21.8826 14.5 22.0098 14.4473 22.1036 14.3536C22.1973 14.2598 22.25 14.1326 22.25 14V12C22.25 11.8674 22.1973 11.7402 22.1036 11.6464C22.0098 11.5527 21.8826 11.5 21.75 11.5H20.25V10.5H21.75C21.8826 10.5 22.0098 10.4473 22.1036 10.3536C22.1973 10.2598 22.25 10.1326 22.25 10C22.25 9.86739 22.1973 9.74021 22.1036 9.64645C22.0098 9.55268 21.8826 9.5 21.75 9.5H21.25C21.25 9.36739 21.1973 9.24021 21.1036 9.14645C21.0098 9.05268 20.8826 9 20.75 9C20.6174 9 20.4902 9.05268 20.3964 9.14645C20.3027 9.24021 20.25 9.36739 20.25 9.5H19.75C19.6174 9.5 19.4902 9.55268 19.3964 9.64645C19.3027 9.74021 19.25 9.86739 19.25 10V12C19.25 12.1326 19.3027 12.2598 19.3964 12.3536C19.4902 12.4473 19.6174 12.5 19.75 12.5H21.25V13.5H19.75Z" fill="#404040"/>
    <path d="M20.75 17C21.7389 17 22.7056 16.7068 23.5279 16.1573C24.3501 15.6079 24.991 14.827 25.3694 13.9134C25.7478 12.9998 25.8469 11.9945 25.6539 11.0246C25.461 10.0546 24.9848 9.16373 24.2855 8.46447C23.5863 7.76521 22.6954 7.289 21.7255 7.09608C20.7555 6.90315 19.7502 7.00217 18.8366 7.3806C17.923 7.75904 17.1421 8.39991 16.5927 9.22215C16.0432 10.0444 15.75 11.0111 15.75 12C15.7515 13.3256 16.2788 14.5965 17.2161 15.5339C18.1535 16.4712 19.4244 16.9985 20.75 17ZM20.75 8C21.5411 8 22.3145 8.2346 22.9723 8.67412C23.6301 9.11365 24.1428 9.73836 24.4455 10.4693C24.7483 11.2002 24.8275 12.0044 24.6731 12.7804C24.5188 13.5563 24.1378 14.269 23.5784 14.8284C23.019 15.3878 22.3063 15.7688 21.5304 15.9231C20.7544 16.0775 19.9502 15.9983 19.2193 15.6955C18.4884 15.3928 17.8636 14.8801 17.4241 14.2223C16.9846 13.5645 16.75 12.7911 16.75 12C16.7512 10.9395 17.173 9.92278 17.9229 9.17289C18.6728 8.423 19.6895 8.00119 20.75 8Z" fill="#404040"/>
</svg>