<svg width="33" height="32" viewBox="0 0 33 32" fill="none" xmlns="http://www.w3.org/2000/svg">
    <g clip-path="url(#clip0_1_358)">
        <path d="M5.03333 23.184C4.97489 23.1843 4.91798 23.1653 4.87136 23.1301C4.82474 23.0948 4.79099 23.0453 4.77529 22.989C4.7596 22.9327 4.76283 22.8728 4.78449 22.8185C4.80616 22.7642 4.84505 22.7186 4.89519 22.6886L5.05946 22.5899L4.09146 23.1467C4.03111 23.1794 3.96047 23.1875 3.89425 23.1695C3.82803 23.1514 3.77133 23.1085 3.73595 23.0497C3.70056 22.9909 3.68922 22.9207 3.70428 22.8537C3.71933 22.7867 3.75964 22.7282 3.81679 22.6902L16.7304 14.6214L2.16666 23.0299C2.10577 23.0659 2.03307 23.0762 1.96455 23.0586C1.89604 23.041 1.83733 22.9969 1.80133 22.936C1.76533 22.8751 1.75499 22.8024 1.7726 22.7339C1.7902 22.6654 1.8343 22.6067 1.89519 22.5707L6.11546 20.024L1.59919 22.6315C1.53823 22.6674 1.46549 22.6777 1.39698 22.66C1.32846 22.6422 1.26979 22.598 1.23386 22.5371C1.19793 22.4761 1.18769 22.4034 1.2054 22.3349C1.2231 22.2664 1.2673 22.2077 1.32826 22.1718L4.51173 20.256L1.28506 22.119C1.22428 22.1528 1.15266 22.1616 1.08551 22.1434C1.01835 22.1252 0.960975 22.0814 0.925618 22.0215C0.890261 21.9616 0.879726 21.8902 0.896262 21.8226C0.912798 21.755 0.955096 21.6966 1.01413 21.6598L6.41466 18.4L1.18266 21.4192C1.12177 21.4554 1.04901 21.4658 0.980396 21.4483C0.911783 21.4308 0.852933 21.3868 0.816793 21.3259C0.780653 21.265 0.770183 21.1922 0.787686 21.1236C0.80519 21.055 0.849233 20.9962 0.910126 20.96L11.5688 14.4448L1.18266 20.4411C1.12188 20.4749 1.05026 20.4837 0.983109 20.4655C0.915954 20.4473 0.858575 20.4036 0.823218 20.3436C0.787861 20.2837 0.777326 20.2123 0.793862 20.1448C0.810398 20.0772 0.852696 20.0187 0.911726 19.9819L3.23119 18.5888L1.18266 19.7712C1.12226 19.8035 1.05177 19.8113 0.98579 19.793C0.919807 19.7747 0.863388 19.7317 0.828221 19.673C0.793053 19.6142 0.781832 19.5442 0.796881 19.4774C0.81193 19.4106 0.852096 19.3521 0.90906 19.3142L14.7933 10.7232L1.18266 18.5798C1.12222 18.6116 1.05186 18.619 0.986097 18.6005C0.920332 18.582 0.864178 18.539 0.82922 18.4803C0.794261 18.4216 0.783165 18.3517 0.798219 18.2851C0.813273 18.2184 0.85333 18.1601 0.910126 18.1222L11.9763 11.3366L1.18266 17.568C1.1222 17.6013 1.05118 17.6099 0.984539 17.5919C0.917898 17.5739 0.860826 17.5308 0.825323 17.4716C0.78982 17.4124 0.778653 17.3417 0.79417 17.2745C0.809687 17.2072 0.850679 17.1486 0.908526 17.111L14.0499 8.94029L1.18266 16.3691C1.122 16.4021 1.05091 16.4102 0.984351 16.3919C0.91779 16.3735 0.860944 16.3301 0.825776 16.2706C0.790608 16.2112 0.779858 16.1405 0.795789 16.0733C0.81172 16.0061 0.853089 15.9477 0.911193 15.9104L5.75439 12.9707L1.18266 15.6102C1.12191 15.6464 1.04926 15.657 0.980695 15.6396C0.912132 15.6223 0.853271 15.5784 0.81706 15.5176C0.780849 15.4569 0.770255 15.3842 0.787608 15.3157C0.804961 15.2471 0.848841 15.1882 0.909593 15.152L9.20613 10.0379L1.18266 14.6704C1.12198 14.7068 1.04931 14.7177 0.98065 14.7005C0.911986 14.6834 0.852949 14.6396 0.816526 14.579C0.780103 14.5183 0.769278 14.4456 0.786431 14.3769C0.803584 14.3083 0.847311 14.2492 0.907993 14.2128L9.8744 8.62189L1.18266 13.64C1.12184 13.6762 1.04915 13.6867 0.980585 13.6692C0.912022 13.6518 0.8532 13.6078 0.81706 13.547C0.780919 13.4861 0.770421 13.4134 0.787875 13.3449C0.805328 13.2763 0.849303 13.2175 0.910126 13.1814L3.41679 11.6502L1.18266 12.9408C1.1222 12.9741 1.05118 12.9827 0.984539 12.9647C0.917898 12.9467 0.860826 12.9036 0.825323 12.8444C0.78982 12.7852 0.778653 12.7145 0.79417 12.6473C0.809687 12.58 0.850679 12.5214 0.908526 12.4838L6.81519 8.80642L1.18266 12.0582C1.12243 12.0924 1.05122 12.1019 0.984121 12.0846C0.917017 12.0673 0.859289 12.0245 0.823166 11.9654C0.787043 11.9063 0.775362 11.8354 0.790599 11.7678C0.805836 11.7002 0.846792 11.6411 0.904793 11.6032L9.3112 6.17922L1.18266 10.8726C1.15268 10.8907 1.11943 10.9027 1.08481 10.9079C1.05019 10.9132 1.01487 10.9116 0.980871 10.9032C0.946872 10.8948 0.91486 10.8798 0.886661 10.859C0.858463 10.8382 0.834631 10.8121 0.816526 10.7822C0.798421 10.7522 0.786398 10.7189 0.781143 10.6843C0.775888 10.6497 0.777503 10.6144 0.785898 10.5804C0.794292 10.5464 0.809301 10.5144 0.830067 10.4862C0.850833 10.458 0.87695 10.4341 0.906926 10.416L5.35333 7.61282L1.18266 10.0203C1.12211 10.0552 1.05028 10.0649 0.982621 10.0474C0.914961 10.0299 0.856882 9.98654 0.820883 9.92663C0.784883 9.86672 0.773841 9.79508 0.790133 9.72711C0.806424 9.65915 0.848747 9.6003 0.907993 9.56322L2.27919 8.70989L1.18266 9.34189C1.12269 9.37937 1.05028 9.39149 0.981364 9.37559C0.91245 9.35969 0.852677 9.31706 0.815193 9.25709C0.777709 9.19711 0.765585 9.1247 0.781488 9.05579C0.797391 8.98688 0.840019 8.9271 0.899993 8.88962L7.21093 4.64002L1.18266 8.12055C1.123 8.15466 1.05248 8.16441 0.9858 8.14778C0.919122 8.13116 0.861437 8.08943 0.824775 8.03131C0.788113 7.97319 0.775304 7.90315 0.78902 7.83582C0.802736 7.76848 0.841917 7.70904 0.898393 7.66989L5.94266 4.20855L1.18266 6.95682C1.12231 6.99219 1.05049 7.00242 0.982662 6.98533C0.914836 6.96824 0.856443 6.92518 0.820066 6.86544C0.783689 6.80569 0.772241 6.73405 0.788189 6.66595C0.804138 6.59784 0.846205 6.53873 0.905326 6.50135L1.12666 6.35949C1.0657 6.37806 1.00011 6.37419 0.941753 6.34858C0.883401 6.32297 0.83615 6.27731 0.808557 6.21987C0.780964 6.16242 0.774854 6.097 0.791333 6.03544C0.807813 5.97388 0.845792 5.92026 0.898393 5.88429L3.30799 4.23095L1.18266 5.45762C1.12411 5.48622 1.05712 5.49239 0.994326 5.47497C0.931536 5.45755 0.877297 5.41775 0.841852 5.36307C0.806406 5.30839 0.792208 5.24263 0.801937 5.1782C0.811666 5.11377 0.84465 5.05513 0.89466 5.01335L2.89999 3.58669L1.18266 4.57655C1.12471 4.61012 1.05625 4.62065 0.990888 4.60605C0.925529 4.59145 0.868055 4.55279 0.829889 4.49776C0.791724 4.44273 0.775662 4.37536 0.784895 4.30903C0.794129 4.2427 0.827982 4.18227 0.879726 4.13975L2.99973 2.39629L1.18266 3.44535C1.12427 3.47898 1.05531 3.48925 0.989653 3.47411C0.923995 3.45897 0.866503 3.41953 0.828738 3.36372C0.790972 3.30792 0.775732 3.23989 0.786082 3.17331C0.796432 3.10672 0.831603 3.04653 0.884526 3.00482L1.31599 2.66669L1.18266 2.74402C1.12969 2.77497 1.06767 2.78671 1.00705 2.77726C0.94643 2.76781 0.890924 2.73774 0.84989 2.69214C0.808856 2.64653 0.784802 2.58817 0.781785 2.52689C0.778768 2.46561 0.796971 2.40517 0.833326 2.35575L1.51333 1.41975L1.50053 1.42669C1.43931 1.46149 1.36681 1.47067 1.29886 1.45222C1.2309 1.43377 1.173 1.38919 1.13779 1.32821C1.10258 1.26722 1.09292 1.19479 1.11092 1.12671C1.12892 1.05863 1.17311 1.00043 1.23386 0.96482L2.33359 0.330154C2.38651 0.299443 2.44838 0.287864 2.50882 0.297358C2.56927 0.306853 2.62461 0.336843 2.66556 0.382299C2.70651 0.427755 2.73059 0.485911 2.73375 0.547013C2.73692 0.608115 2.71897 0.668447 2.68293 0.717887L2.00239 1.65335L4.31653 0.32002C4.37492 0.286395 4.44388 0.276121 4.50953 0.291264C4.57519 0.306408 4.63268 0.345846 4.67045 0.40165C4.70821 0.457454 4.72345 0.525486 4.7131 0.592068C4.70276 0.658651 4.66758 0.718846 4.61466 0.760554L4.18266 1.09922L5.53253 0.32002C5.59014 0.290192 5.65664 0.282388 5.71959 0.298068C5.78254 0.313749 5.83762 0.35184 5.87451 0.405206C5.91139 0.458573 5.92756 0.523556 5.91998 0.587985C5.9124 0.652415 5.88159 0.711871 5.83333 0.75522L3.71546 2.49869L7.49093 0.32002C7.55024 0.286188 7.62027 0.276395 7.68658 0.292661C7.7529 0.308927 7.81045 0.350012 7.84737 0.407449C7.8843 0.464886 7.89778 0.534298 7.88505 0.601382C7.87231 0.668466 7.83433 0.728109 7.77893 0.76802L5.77626 2.19202L9.0216 0.32002C9.08125 0.285917 9.15178 0.276162 9.21846 0.292789C9.28513 0.309416 9.34282 0.351142 9.37948 0.409265C9.41614 0.467387 9.42895 0.53742 9.41523 0.604756C9.40152 0.672093 9.36234 0.731535 9.30586 0.770687L6.89626 2.42402L10.5373 0.32002C10.5977 0.284655 10.6695 0.274416 10.7373 0.29151C10.8052 0.308604 10.8635 0.351662 10.8999 0.411405C10.9363 0.471147 10.9477 0.54279 10.9318 0.610894C10.9159 0.678997 10.8738 0.738108 10.8147 0.775487L10.7181 0.83682L11.6141 0.32002C11.6738 0.285917 11.7443 0.276162 11.811 0.292789C11.8777 0.309416 11.9354 0.351142 11.972 0.409265C12.0087 0.467387 12.0215 0.53742 12.0078 0.604756C11.9941 0.672093 11.9549 0.731535 11.8984 0.770687L6.85253 4.23149L13.6301 0.32002C13.6899 0.286926 13.7601 0.27802 13.8262 0.295141C13.8923 0.312261 13.9493 0.354101 13.9855 0.412034C14.0217 0.469967 14.0343 0.539575 14.0206 0.606505C14.007 0.673435 13.9682 0.732583 13.9123 0.771754L7.6024 5.01975L15.7448 0.32002C15.8053 0.285108 15.8772 0.275362 15.9448 0.292878C16.0125 0.310394 16.0706 0.353772 16.1066 0.413678C16.1426 0.473584 16.1536 0.545229 16.1373 0.613194C16.121 0.681159 16.0787 0.740012 16.0195 0.777087L14.6456 1.63202L16.9203 0.32002C16.9808 0.283456 17.0534 0.272438 17.1221 0.289392C17.1907 0.306345 17.2498 0.34988 17.2864 0.41042C17.323 0.47096 17.334 0.543546 17.317 0.612209C17.3001 0.680873 17.2565 0.739989 17.196 0.776554L12.7528 3.57655L18.3965 0.32002C18.4568 0.285737 18.528 0.276247 18.5951 0.29356C18.6622 0.310873 18.7199 0.35363 18.756 0.412772C18.7921 0.471914 18.8038 0.542796 18.7886 0.610401C18.7734 0.678006 18.7324 0.737025 18.6744 0.774954L10.2675 6.19735L20.4499 0.32002C20.5104 0.285108 20.5822 0.275362 20.6499 0.292878C20.7176 0.310394 20.7756 0.353772 20.8116 0.413678C20.8476 0.473584 20.8587 0.545229 20.8424 0.613194C20.8261 0.681159 20.7838 0.740012 20.7245 0.777087L14.8125 4.45709L21.9789 0.32002C22.0398 0.28388 22.1124 0.273382 22.181 0.290835C22.2496 0.308289 22.3084 0.352264 22.3445 0.413087C22.3807 0.47391 22.3912 0.546598 22.3737 0.615162C22.3563 0.683725 22.3123 0.742547 22.2515 0.778687L19.7475 2.30562L23.1896 0.32002C23.2501 0.285108 23.322 0.275362 23.3896 0.292878C23.4573 0.310394 23.5154 0.353772 23.5514 0.413678C23.5874 0.473584 23.5984 0.545229 23.5821 0.613194C23.5658 0.681159 23.5235 0.740012 23.4643 0.777087L14.5011 6.36482L24.9741 0.32002C25.0349 0.283809 25.1075 0.273215 25.1761 0.290569C25.2447 0.307922 25.3035 0.351801 25.3397 0.412554C25.3759 0.473306 25.3865 0.545955 25.3692 0.614518C25.3518 0.683081 25.308 0.741943 25.2472 0.778154L16.9475 5.89229L26.6019 0.32002C26.6626 0.285401 26.7345 0.276028 26.8021 0.293923C26.8697 0.311817 26.9276 0.355545 26.9633 0.415689C26.9989 0.475833 27.0095 0.54758 26.9928 0.615476C26.9761 0.683372 26.9334 0.741984 26.8739 0.778687L22.0355 3.71362L27.916 0.32002C27.946 0.302021 27.9793 0.290115 28.014 0.284984C28.0486 0.279852 28.084 0.281595 28.1179 0.290114C28.1519 0.298632 28.1839 0.313758 28.212 0.334629C28.2401 0.3555 28.2639 0.381707 28.2819 0.411754C28.2999 0.4418 28.3118 0.475098 28.3169 0.509745C28.322 0.544393 28.3203 0.579712 28.3118 0.613686C28.3033 0.647659 28.2881 0.679623 28.2673 0.707751C28.2464 0.735879 28.2202 0.75962 28.1901 0.77762L15.0435 8.94989L29.2013 0.77602C29.2621 0.739809 29.3347 0.729215 29.4033 0.746569C29.4719 0.763922 29.5307 0.807801 29.5669 0.868554C29.6031 0.929306 29.6137 1.00195 29.5964 1.07052C29.579 1.13908 29.5352 1.19794 29.4744 1.23415L18.4061 8.02029L29.6371 1.53602C29.6978 1.49974 29.7705 1.48908 29.8391 1.50638C29.9077 1.52368 29.9667 1.56753 30.0029 1.62829C30.0392 1.68904 30.0499 1.76172 30.0326 1.83033C30.0153 1.89894 29.9714 1.95787 29.9107 1.99415L16.0349 10.5808L29.6845 2.70029C29.7453 2.66643 29.8169 2.65767 29.8841 2.67587C29.9512 2.69408 30.0086 2.73781 30.044 2.79774C30.0793 2.85767 30.0899 2.92904 30.0733 2.99662C30.0568 3.06421 30.0145 3.12265 29.9555 3.15949L27.6344 4.55362L29.6851 3.36962C29.7458 3.335 29.8177 3.32563 29.8853 3.34352C29.9529 3.36142 30.0108 3.40515 30.0465 3.46529C30.0821 3.52543 30.0927 3.59718 30.076 3.66508C30.0593 3.73297 30.0166 3.79158 29.9571 3.82829L19.2904 10.3483L29.6861 4.34722C29.7471 4.31129 29.8198 4.30105 29.8884 4.31876C29.9569 4.33646 30.0155 4.38066 30.0515 4.44162C30.0874 4.50258 30.0976 4.57532 30.0799 4.64384C30.0622 4.71235 30.018 4.77103 29.9571 4.80695L24.5587 8.06615L29.6867 5.10562C29.7476 5.06976 29.8203 5.05959 29.8888 5.07735C29.9227 5.08614 29.9545 5.10152 29.9825 5.12261C30.0105 5.14371 30.034 5.1701 30.0517 5.20029C30.0695 5.23047 30.0811 5.26386 30.086 5.29854C30.0908 5.33323 30.0888 5.36853 30.08 5.40243C30.0712 5.43633 30.0558 5.46816 30.0347 5.49612C30.0136 5.52407 29.9873 5.5476 29.9571 5.56535L26.7789 7.47789L29.6872 5.79895C29.748 5.76509 29.8196 5.75633 29.8868 5.77454C29.9539 5.79275 30.0113 5.83648 30.0466 5.89641C30.082 5.95633 30.0925 6.0277 30.076 6.09529C30.0595 6.16287 30.0172 6.22132 29.9581 6.25815L25.7368 8.80589L29.6877 6.52482C29.7482 6.49152 29.8192 6.48296 29.8859 6.50094C29.9525 6.51893 30.0096 6.56205 30.0451 6.62124C30.0806 6.68044 30.0917 6.75109 30.0762 6.81835C30.0607 6.88561 30.0197 6.94423 29.9619 6.98189L17.0467 15.0528L29.6867 7.75415C29.7474 7.72164 29.8183 7.71386 29.8846 7.73245C29.9509 7.75105 30.0074 7.79457 30.0424 7.85391C30.0773 7.91324 30.088 7.9838 30.0721 8.0508C30.0561 8.11779 30.0149 8.17604 29.9571 8.21335L29.7144 8.35949C29.7764 8.33219 29.8464 8.32948 29.9103 8.35193C29.9742 8.37437 30.0271 8.42027 30.0584 8.48033C30.0897 8.54038 30.097 8.61009 30.0787 8.6753C30.0605 8.74051 30.0182 8.79635 29.9603 8.83149L21.8728 13.8326L29.6893 9.31949C29.7501 9.28487 29.822 9.27549 29.8896 9.29339C29.9572 9.31128 30.0151 9.35501 30.0507 9.41516C30.0864 9.4753 30.097 9.54705 30.0803 9.61494C30.0636 9.68284 30.0209 9.74145 29.9613 9.77815L27.2637 11.4224L29.6899 10.0214C29.7505 9.98486 29.8231 9.97394 29.8918 9.99099C29.9604 10.008 30.0195 10.0517 30.056 10.1123C30.0925 10.1729 30.1034 10.2455 30.0864 10.3142C30.0693 10.3828 30.0257 10.4419 29.9651 10.4784L22.1251 15.3952L29.6909 11.0272C29.7513 10.9919 29.8231 10.9816 29.8909 10.9987C29.9588 11.0158 30.0172 11.0589 30.0535 11.1186C30.0899 11.1783 30.1014 11.25 30.0854 11.3181C30.0695 11.3862 30.0274 11.4453 29.9683 11.4827L21.3747 16.9963L29.6915 12.1963C29.7519 12.1594 29.8244 12.1481 29.8932 12.1647C29.962 12.1814 30.0213 12.2247 30.0581 12.2851C30.095 12.3455 30.1063 12.418 30.0897 12.4868C30.073 12.5556 30.0297 12.6149 29.9693 12.6518L23.0909 17.0667L29.6925 13.255C29.7531 13.2185 29.8258 13.2075 29.8944 13.2246C29.9631 13.2416 30.0222 13.2853 30.0587 13.3459C30.0952 13.4065 30.1061 13.4791 30.089 13.5478C30.072 13.6164 30.0283 13.6755 29.9677 13.712L27.2733 15.4038L29.6925 14.007C29.7224 13.9887 29.7556 13.9765 29.7902 13.971C29.8248 13.9655 29.8601 13.967 29.8941 13.9751C29.9282 13.9833 29.9603 13.9982 29.9886 14.0188C30.0169 14.0394 30.0409 14.0653 30.0592 14.0952C30.0775 14.1251 30.0897 14.1583 30.0952 14.1929C30.1006 14.2275 30.0992 14.2628 30.091 14.2968C30.0828 14.3309 30.068 14.363 30.0474 14.3913C30.0268 14.4196 30.0008 14.4436 29.9709 14.4619L25.4909 17.3574L29.6952 14.9302C29.7554 14.8952 29.8269 14.8851 29.8944 14.9021C29.9619 14.9191 30.0201 14.9618 30.0565 15.0212C30.0929 15.0805 30.1047 15.1517 30.0893 15.2196C30.0739 15.2875 30.0326 15.3467 29.9741 15.3846L26.6797 17.5179L29.6957 15.776C29.7555 15.7413 29.8264 15.7312 29.8934 15.7477C29.9605 15.7643 30.0186 15.8062 30.0553 15.8647C30.0921 15.9232 30.1048 15.9937 30.0906 16.0613C30.0765 16.1289 30.0366 16.1884 29.9795 16.2272L25.6173 19.2139L29.6963 16.8587C29.7559 16.8246 29.8265 16.8148 29.8931 16.8315C29.9598 16.8481 30.0175 16.8898 30.0542 16.9479C30.0908 17.0061 30.1036 17.0761 30.0899 17.1434C30.0762 17.2108 30.037 17.2702 29.9805 17.3094L27.0835 19.3067L29.6968 17.7984C29.7568 17.7628 29.8284 17.7521 29.8962 17.7686C29.964 17.7851 30.0226 17.8276 30.0594 17.8869C30.0963 17.9461 30.1084 18.0175 30.0933 18.0856C30.0781 18.1537 30.0369 18.2132 29.9784 18.2512L29.4984 18.5712L29.6957 18.4582C29.7542 18.425 29.823 18.4151 29.8884 18.4305C29.9538 18.4458 30.011 18.4853 30.0486 18.5411C30.0861 18.5968 30.1012 18.6647 30.0909 18.7311C30.0805 18.7975 30.0455 18.8575 29.9928 18.8992L27.6211 20.7408L29.6963 19.543C29.754 19.5104 29.8218 19.5005 29.8864 19.5152C29.9511 19.5299 30.0079 19.5682 30.0459 19.6225C30.0838 19.6769 30.1002 19.7434 30.0918 19.8091C30.0833 19.8749 30.0507 19.9351 30.0003 19.9782L28.5976 21.1515L29.6973 20.5168C29.7521 20.4851 29.8164 20.4739 29.8787 20.4853C29.941 20.4966 29.9972 20.5298 30.0373 20.5788C30.0774 20.6278 30.0988 20.6894 30.0975 20.7527C30.0963 20.8161 30.0726 20.8769 30.0307 20.9243L29.1933 21.872L29.6995 21.5798C29.7504 21.5504 29.8097 21.5387 29.868 21.5465C29.9263 21.5543 29.9804 21.5812 30.0218 21.6229C30.0633 21.6647 30.0898 21.719 30.0971 21.7773C30.1045 21.8357 30.0924 21.8949 30.0627 21.9456L29.868 22.2752C29.9231 22.2826 29.9746 22.307 30.0152 22.345C30.0557 22.3831 30.0834 22.4329 30.0943 22.4874C30.1052 22.542 30.0987 22.5985 30.0758 22.6492C30.0529 22.6999 30.0148 22.7422 29.9667 22.7702L29.3128 23.1478C29.2618 23.1769 29.2027 23.1884 29.1445 23.1805C29.0864 23.1725 29.0324 23.1456 28.9911 23.104C28.9498 23.0623 28.9234 23.0081 28.916 22.9499C28.9085 22.8916 28.9206 22.8326 28.9501 22.7819L29.0877 22.5483L28.0483 23.1467C27.9935 23.1781 27.9294 23.189 27.8674 23.1776C27.8053 23.1662 27.7493 23.1331 27.7093 23.0843C27.6694 23.0355 27.648 22.9741 27.649 22.911C27.65 22.8479 27.6734 22.7872 27.7149 22.7398L28.5533 21.7888L26.2003 23.1467C26.1425 23.1798 26.0745 23.1901 26.0095 23.1756C25.9445 23.161 25.8873 23.1228 25.8492 23.0682C25.811 23.0137 25.7946 22.9468 25.8032 22.8808C25.8119 22.8148 25.8449 22.7544 25.8957 22.7115L27.2979 21.5382L24.5123 23.1467C24.4538 23.1792 24.3853 23.1887 24.3203 23.1731C24.2553 23.1575 24.1984 23.118 24.1611 23.0625C24.1238 23.007 24.1087 22.9395 24.1188 22.8734C24.1289 22.8073 24.1635 22.7474 24.2157 22.7056L26.5875 20.8635L22.6333 23.1467C22.5735 23.1793 22.5035 23.1879 22.4376 23.1705C22.3718 23.1532 22.315 23.1113 22.2791 23.0534C22.2431 22.9955 22.2306 22.9261 22.2443 22.8593C22.2579 22.7926 22.2965 22.7336 22.3523 22.6944L22.8323 22.3744L21.4925 23.1467C21.433 23.1795 21.3632 23.1883 21.2974 23.1713C21.2316 23.1544 21.1747 23.113 21.1384 23.0555C21.1021 22.998 21.0891 22.9289 21.1021 22.8622C21.1151 22.7955 21.1531 22.7362 21.2083 22.6966L24.1037 20.7051L19.8744 23.1467C19.8149 23.1787 19.7455 23.187 19.6801 23.1698C19.6147 23.1527 19.5583 23.1113 19.5223 23.0541C19.4863 22.997 19.4733 22.9282 19.486 22.8619C19.4987 22.7955 19.5361 22.7364 19.5907 22.6966L23.9539 19.7099L17.9976 23.1467C17.9374 23.1817 17.8659 23.1918 17.7984 23.1748C17.7309 23.1577 17.6727 23.115 17.6363 23.0557C17.5999 22.9963 17.5881 22.9251 17.6035 22.8572C17.6189 22.7893 17.6602 22.7301 17.7187 22.6923L21.0152 20.5558L16.5261 23.1467C16.466 23.1803 16.3952 23.1893 16.3286 23.1719C16.262 23.1545 16.2047 23.1119 16.1687 23.0532C16.1327 22.9945 16.1208 22.9241 16.1356 22.8568C16.1503 22.7896 16.1905 22.7306 16.2477 22.6923L20.7277 19.7995L14.9272 23.1467C14.8668 23.1805 14.7956 23.1896 14.7286 23.1718C14.6617 23.1541 14.6042 23.111 14.5685 23.0517C14.5327 22.9924 14.5214 22.9215 14.537 22.854C14.5526 22.7865 14.5938 22.7278 14.652 22.6902L17.3491 20.9984L13.6275 23.1467C13.5673 23.1798 13.4967 23.1884 13.4303 23.1707C13.364 23.153 13.307 23.1105 13.2713 23.0518C13.2355 22.9932 13.2238 22.923 13.2385 22.856C13.2532 22.7889 13.2932 22.7301 13.3501 22.6918L20.2275 18.2736L11.7859 23.1467C11.7257 23.1798 11.6551 23.1884 11.5887 23.1707C11.5224 23.153 11.4654 23.1105 11.4297 23.0518C11.3939 22.9932 11.3822 22.923 11.3969 22.856C11.4116 22.7889 11.4516 22.7301 11.5085 22.6918L20.1027 17.1787L9.76346 23.1467C9.70304 23.1805 9.63182 23.1896 9.56487 23.1718C9.49792 23.1541 9.44049 23.111 9.40473 23.0517C9.36898 22.9924 9.3577 22.9215 9.37329 22.854C9.38888 22.7865 9.43011 22.7278 9.48826 22.6902L17.3283 17.7744L8.02 23.1467C7.95945 23.179 7.88876 23.1868 7.82263 23.1684C7.75651 23.1499 7.70005 23.1067 7.665 23.0476C7.62995 22.9886 7.61902 22.9183 7.63448 22.8515C7.64994 22.7846 7.6906 22.7262 7.74799 22.6886L10.4509 21.0416L6.80399 23.1467C6.74366 23.1781 6.67359 23.1853 6.60814 23.1667C6.54268 23.1482 6.48679 23.1053 6.4519 23.0469C6.41701 22.9885 6.40576 22.919 6.42045 22.8526C6.43514 22.7862 6.47466 22.7279 6.53093 22.6896L14.6189 17.6891L5.16506 23.1467C5.12523 23.1706 5.07977 23.1835 5.03333 23.184Z" fill="#A9D59B"/>
        <path d="M4.17462 23.184C4.11655 23.1842 4.06002 23.1654 4.01359 23.1306C3.96717 23.0957 3.9334 23.0466 3.9174 22.9908C3.90141 22.935 3.90408 22.8755 3.92499 22.8213C3.94591 22.7671 3.98393 22.7213 4.03329 22.6907L5.14689 21.9973L3.15489 23.1467C3.09446 23.1805 3.02324 23.1895 2.95629 23.1718C2.88934 23.1541 2.83191 23.111 2.79615 23.0517C2.7604 22.9924 2.74912 22.9215 2.76471 22.854C2.7803 22.7865 2.82153 22.7278 2.87968 22.6901L5.43969 21.0901L2.11862 23.0101C2.05843 23.0451 1.98694 23.0552 1.91943 23.0382C1.85191 23.0212 1.79372 22.9785 1.7573 22.9191C1.72087 22.8598 1.7091 22.7886 1.7245 22.7207C1.73989 22.6528 1.78123 22.5936 1.83968 22.5557L9.10315 17.8293L3.98315 20.784C3.923 20.82 3.85108 20.8309 3.78296 20.8143C3.71484 20.7977 3.65601 20.7549 3.61919 20.6952C3.58238 20.6356 3.57055 20.5638 3.58626 20.4955C3.60198 20.4271 3.64397 20.3677 3.70315 20.3301L9.14902 16.7467L7.82582 17.5104C7.76625 17.544 7.69603 17.5535 7.62968 17.5368C7.56333 17.5201 7.50593 17.4786 7.46936 17.4208C7.43278 17.363 7.41982 17.2933 7.43316 17.2262C7.44649 17.1591 7.48511 17.0997 7.54102 17.0603L10.924 14.7248C10.8762 14.7119 10.833 14.6859 10.7991 14.6498C10.7653 14.6138 10.7422 14.569 10.7323 14.5205C10.7225 14.472 10.7263 14.4218 10.7434 14.3753C10.7604 14.3289 10.7901 14.2881 10.829 14.2576L13.3618 12.2667C13.3536 12.2136 13.3617 12.1593 13.3849 12.1108C13.4081 12.0624 13.4454 12.0221 13.492 11.9952L14.3202 11.5152C14.3786 11.4816 14.4476 11.4713 14.5132 11.4865C14.5789 11.5016 14.6364 11.541 14.6741 11.5968C14.7119 11.6526 14.7271 11.7207 14.7168 11.7873C14.7064 11.8538 14.6713 11.914 14.6184 11.9557L14.0936 12.368L15.5746 11.5147C15.6343 11.4793 15.7055 11.4686 15.773 11.4848C15.8404 11.5011 15.8989 11.543 15.936 11.6016C15.9731 11.6603 15.9858 11.7311 15.9715 11.799C15.9572 11.8669 15.917 11.9266 15.8594 11.9653L13.2802 13.7456L16.7869 11.7189C16.847 11.6848 16.918 11.6753 16.9849 11.6925C17.0518 11.7096 17.1095 11.7521 17.1458 11.8109C17.182 11.8698 17.194 11.9404 17.1791 12.0079C17.1643 12.0754 17.1239 12.1345 17.0664 12.1728L11.6221 15.7589L17.525 12.3509C17.5851 12.3173 17.6559 12.3083 17.7226 12.3257C17.7892 12.3432 17.8465 12.3857 17.8825 12.4444C17.9185 12.5031 17.9303 12.5735 17.9156 12.6408C17.9008 12.7081 17.8607 12.767 17.8034 12.8053L10.5442 17.5275L18.3272 13.0341C18.3876 13.0008 18.4586 12.9923 18.5253 13.0103C18.5919 13.0282 18.649 13.0714 18.6845 13.1306C18.72 13.1898 18.7312 13.2604 18.7156 13.3277C18.7001 13.3949 18.6591 13.4535 18.6013 13.4912L16.0349 15.096L18.844 13.4747C18.9044 13.4414 18.9754 13.4328 19.0421 13.4508C19.1087 13.4688 19.1658 13.5119 19.2013 13.5711C19.2368 13.6303 19.248 13.7009 19.2324 13.7682C19.2169 13.8355 19.1759 13.8941 19.1181 13.9317L18.0056 14.6251L19.3096 13.8725C19.3698 13.8389 19.4408 13.8299 19.5076 13.8474C19.5743 13.865 19.6317 13.9078 19.6675 13.9668C19.7034 14.0258 19.715 14.0964 19.6998 14.1638C19.6847 14.2312 19.644 14.29 19.5864 14.328L15.5672 16.9013L19.9176 14.3893C19.9782 14.3529 20.0509 14.3421 20.1196 14.3592C20.1882 14.3764 20.2473 14.4201 20.2837 14.4808C20.3201 14.5415 20.3309 14.6142 20.3138 14.6828C20.2966 14.7515 20.2529 14.8105 20.1922 14.8469L20.1634 14.8645L20.3496 14.7579C20.4097 14.7243 20.4805 14.7153 20.5471 14.7327C20.6137 14.7501 20.671 14.7926 20.707 14.8514C20.743 14.9101 20.7549 14.9804 20.7401 15.0477C20.7254 15.115 20.6852 15.174 20.628 15.2123L16.9154 17.6251L20.9688 15.2853C21.0283 15.2517 21.0985 15.2422 21.1649 15.2589C21.2312 15.2756 21.2886 15.3172 21.3252 15.375C21.3618 15.4328 21.3748 15.5024 21.3614 15.5695C21.3481 15.6366 21.3095 15.696 21.2536 15.7355L15.9026 19.4405L21.8296 16.0187C21.8894 15.9851 21.9599 15.9759 22.0263 15.993C22.0928 16.0101 22.1501 16.0521 22.1863 16.1103C22.2226 16.1686 22.235 16.2385 22.221 16.3057C22.207 16.3729 22.1677 16.432 22.1112 16.4709L18.7309 18.7403L22.4824 16.5744C22.5415 16.5413 22.6111 16.5319 22.6769 16.5482C22.7427 16.5645 22.7998 16.6053 22.8367 16.6622C22.8735 16.7191 22.8872 16.788 22.8751 16.8547C22.863 16.9214 22.8259 16.981 22.7714 17.0213L18.572 20.0491L23.3336 17.3003C23.3934 17.2667 23.4639 17.2575 23.5303 17.2746C23.5968 17.2917 23.6541 17.3337 23.6903 17.3919C23.7266 17.4502 23.739 17.5201 23.725 17.5873C23.711 17.6545 23.6717 17.7136 23.6152 17.7525L22.4056 18.56L23.8402 17.7323C23.8997 17.6975 23.9703 17.6872 24.0373 17.7033C24.1042 17.7195 24.1623 17.7609 24.1994 17.819C24.2365 17.877 24.2497 17.9471 24.2362 18.0147C24.2228 18.0822 24.1837 18.142 24.1272 18.1813L21.964 19.7019L24.4605 18.2619C24.5187 18.2287 24.5874 18.2186 24.6527 18.2337C24.718 18.2488 24.7753 18.288 24.813 18.3434C24.8508 18.3989 24.8662 18.4665 24.8563 18.5328C24.8465 18.5992 24.8119 18.6593 24.7597 18.7013L21.9901 20.9067L25.316 18.9867C25.3749 18.9543 25.4438 18.9454 25.5091 18.9617C25.5743 18.978 25.6309 19.0183 25.6677 19.0746C25.7044 19.1309 25.7185 19.199 25.7072 19.2653C25.6959 19.3316 25.66 19.3911 25.6066 19.432L24.549 20.208L25.8589 19.4517C25.9164 19.4191 25.9839 19.409 26.0485 19.4234C26.113 19.4378 26.1699 19.4757 26.2081 19.5296C26.2463 19.5835 26.2631 19.6498 26.2552 19.7154C26.2474 19.781 26.2154 19.8414 26.1656 19.8848L24.572 21.2523L26.5986 20.0789C26.6554 20.0469 26.722 20.0367 26.7857 20.0504C26.8495 20.0641 26.906 20.1007 26.9446 20.1532C26.9833 20.2057 27.0013 20.2706 26.9953 20.3356C26.9893 20.4005 26.9598 20.461 26.9122 20.5056L25.8578 21.4747L27.2765 20.656C27.3324 20.6256 27.3973 20.6162 27.4595 20.6295C27.5217 20.6428 27.5771 20.6778 27.6157 20.7284C27.6543 20.7789 27.6736 20.8416 27.6701 20.9051C27.6666 20.9686 27.6405 21.0287 27.5965 21.0747L26.9885 21.6885L27.8813 21.1733C27.9366 21.1417 28.0015 21.1308 28.0641 21.1428C28.1267 21.1549 28.1829 21.1889 28.2226 21.2388C28.2623 21.2888 28.2827 21.3512 28.2803 21.415C28.2779 21.4787 28.2527 21.5394 28.2093 21.5861L28.0205 21.7877L28.3677 21.5877C28.4127 21.5618 28.4642 21.5496 28.516 21.5526C28.5678 21.5555 28.6177 21.5735 28.6594 21.6044C28.7011 21.6352 28.7329 21.6776 28.7509 21.7263C28.7689 21.775 28.7724 21.8278 28.7608 21.8784L28.6456 22.3765L29.0317 22.1541C29.0902 22.1203 29.1594 22.11 29.2252 22.1253C29.2911 22.1405 29.3486 22.1802 29.3864 22.2363L29.6072 22.5653C29.6696 22.548 29.7362 22.5541 29.7946 22.5823C29.8529 22.6106 29.899 22.6591 29.9241 22.7188C29.9493 22.7785 29.9518 22.8454 29.9313 22.9069C29.9107 22.9683 29.8685 23.0202 29.8125 23.0528L29.6525 23.1445C29.5945 23.178 29.5261 23.1885 29.4608 23.1739C29.3955 23.1592 29.3381 23.1206 29.3 23.0656L29.084 22.7456L28.3826 23.1493C28.3377 23.1753 28.2861 23.1875 28.2343 23.1845C28.1825 23.1816 28.1326 23.1636 28.0909 23.1327C28.0492 23.1018 28.0174 23.0595 27.9994 23.0108C27.9814 22.9621 27.978 22.9093 27.9896 22.8587L28.1048 22.3611L26.74 23.1467C26.6846 23.1784 26.6198 23.1892 26.5572 23.1772C26.4945 23.1652 26.4383 23.1311 26.3986 23.0812C26.359 23.0313 26.3385 22.9688 26.3409 22.9051C26.3434 22.8413 26.3686 22.7806 26.412 22.7339L26.6002 22.5328L25.5336 23.1467C25.4777 23.1767 25.4131 23.1858 25.3511 23.1725C25.2892 23.1592 25.234 23.1242 25.1955 23.0739C25.157 23.0236 25.1377 22.9612 25.141 22.8979C25.1443 22.8346 25.17 22.7746 25.2136 22.7285L25.8221 22.1147L24.0328 23.1467C23.976 23.1792 23.9092 23.1897 23.8452 23.1762C23.7811 23.1627 23.7243 23.1261 23.6855 23.0734C23.6467 23.0207 23.6286 22.9555 23.6347 22.8904C23.6409 22.8252 23.6707 22.7646 23.7186 22.72L24.7736 21.7504L22.3544 23.1467C22.2968 23.1798 22.229 23.1903 22.1642 23.1761C22.0994 23.1619 22.0422 23.124 22.0037 23.0699C21.9653 23.0158 21.9485 22.9492 21.9565 22.8834C21.9646 22.8175 21.9969 22.7569 22.0472 22.7136L23.6413 21.3461L20.5224 23.1467C20.4636 23.1767 20.3959 23.1839 20.3321 23.1669C20.2684 23.1499 20.2133 23.1099 20.1773 23.0546C20.1414 22.9993 20.1272 22.9326 20.1376 22.8675C20.1479 22.8023 20.182 22.7433 20.2333 22.7019L21.2909 21.9285L19.1778 23.1467C19.1196 23.1797 19.0512 23.1897 18.986 23.1746C18.9208 23.1595 18.8637 23.1204 18.8259 23.0652C18.7882 23.0099 18.7726 22.9425 18.7823 22.8763C18.7919 22.8101 18.8261 22.7499 18.8781 22.7077L21.6472 20.4987L17.0605 23.1467C17.0011 23.18 16.9313 23.1894 16.8652 23.1729C16.7992 23.1564 16.7419 23.1152 16.7052 23.0579C16.6686 23.0005 16.6552 22.9313 16.6679 22.8644C16.6806 22.7975 16.7184 22.7381 16.7736 22.6981L18.9373 21.176L15.524 23.1493C15.4642 23.182 15.3941 23.1905 15.3283 23.1732C15.2624 23.1558 15.2056 23.1139 15.1697 23.056C15.1337 22.9982 15.1213 22.9287 15.1349 22.862C15.1485 22.7952 15.1871 22.7362 15.2429 22.6971L16.4504 21.8917L14.2706 23.1467C14.2115 23.1798 14.1419 23.1892 14.0761 23.1729C14.0103 23.1566 13.9531 23.1158 13.9163 23.0589C13.8795 23.0019 13.8657 22.9331 13.8779 22.8664C13.89 22.7997 13.9271 22.7401 13.9816 22.6997L18.1821 19.6715L12.1618 23.1467C12.1021 23.1798 12.0319 23.1887 11.9658 23.1716C11.8997 23.1544 11.8426 23.1126 11.8064 23.0547C11.7703 22.9967 11.7577 22.9271 11.7713 22.8602C11.7849 22.7933 11.8237 22.7341 11.8797 22.6949L15.2594 20.4267L10.5469 23.1467C10.4874 23.1791 10.4179 23.1878 10.3523 23.1708C10.2867 23.1538 10.2301 23.1126 10.1938 23.0553C10.1576 22.9981 10.1444 22.9292 10.1571 22.8627C10.1698 22.7962 10.2073 22.737 10.2621 22.6971L15.612 18.9915L8.41462 23.1467C8.35465 23.1789 8.28463 23.1869 8.21892 23.1691C8.15322 23.1514 8.09679 23.1092 8.0612 23.0511C8.02561 22.9931 8.01355 22.9237 8.0275 22.8571C8.04145 22.7904 8.08034 22.7317 8.13622 22.6928L11.8509 20.2784L6.88235 23.1467C6.822 23.1794 6.75136 23.1875 6.68514 23.1695C6.61893 23.1514 6.56222 23.1085 6.52684 23.0497C6.49145 22.9909 6.48011 22.9207 6.49517 22.8537C6.51023 22.7867 6.55053 22.7281 6.60769 22.6901L6.62795 22.6768L5.81409 23.1467C5.75397 23.1789 5.68382 23.1868 5.61804 23.1688C5.55226 23.1509 5.49585 23.1084 5.46041 23.0502C5.42497 22.9919 5.41319 22.9223 5.42749 22.8557C5.44178 22.789 5.48108 22.7303 5.53729 22.6917L9.55969 20.1147L4.30795 23.1467C4.26757 23.1706 4.22157 23.1835 4.17462 23.184Z" fill="#7CA26F"/>
        <path d="M14.9683 12.4512C14.9116 12.4511 14.8565 12.433 14.8108 12.3995C14.7652 12.366 14.7313 12.3188 14.7143 12.2648C14.6972 12.2108 14.6978 12.1528 14.716 12.0991C14.7341 12.0455 14.7689 11.999 14.8152 11.9664L16.4339 10.8309L14.3912 12.0107C14.3309 12.0476 14.2583 12.0592 14.1895 12.0427C14.1207 12.0261 14.0613 11.983 14.0243 11.9227C13.9873 11.8623 13.9758 11.7898 13.9923 11.721C14.0088 11.6522 14.0519 11.5927 14.1123 11.5557L15.6424 10.56L13.8824 11.5771C13.8222 11.6121 13.7507 11.6221 13.6832 11.6051C13.6157 11.5881 13.5575 11.5454 13.5211 11.486C13.4847 11.4267 13.4729 11.3555 13.4883 11.2876C13.5037 11.2197 13.545 11.1605 13.6035 11.1227L19.9133 7.00319L13.1155 10.9264C13.0551 10.9633 12.9826 10.9747 12.9138 10.9582C12.8451 10.9416 12.7857 10.8985 12.7488 10.8381C12.7119 10.7778 12.7004 10.7053 12.717 10.6365C12.7335 10.5677 12.7767 10.5084 12.8371 10.4715L19.9336 5.85812L12.3229 10.2523C12.2629 10.2858 12.1923 10.2949 12.1258 10.2776C12.0593 10.2604 12.002 10.2181 11.9659 10.1597C11.9298 10.1012 11.9176 10.031 11.932 9.96382C11.9463 9.89661 11.9861 9.83754 12.0429 9.79892L18.8861 5.28852L11.5 9.55519C11.44 9.59083 11.3684 9.60153 11.3006 9.585C11.2328 9.56846 11.1742 9.52601 11.1374 9.46675C11.1005 9.40749 11.0884 9.33615 11.1035 9.26803C11.1186 9.19991 11.1599 9.14044 11.2184 9.10239L17.5459 4.87572L10.6685 8.84639C10.6387 8.86467 10.6055 8.87689 10.5709 8.88235C10.5363 8.8878 10.501 8.88639 10.4669 8.8782C10.4329 8.87 10.4008 8.85518 10.3724 8.83458C10.3441 8.81397 10.3201 8.78799 10.3019 8.75812C10.2836 8.72825 10.2714 8.69507 10.2659 8.66048C10.2604 8.62589 10.2619 8.59056 10.2701 8.55651C10.2783 8.52246 10.2931 8.49036 10.3137 8.46204C10.3343 8.43372 10.3603 8.40974 10.3901 8.39146L14.1795 5.93386L10.0467 8.31999C9.9864 8.35705 9.91389 8.36865 9.84508 8.35225C9.77626 8.33585 9.71679 8.29278 9.67973 8.23252C9.64267 8.17227 9.63106 8.09976 9.64746 8.03094C9.66387 7.96213 9.70694 7.90265 9.76719 7.86559L13.3528 5.51892L9.42213 7.78666C9.3626 7.82082 9.2922 7.83071 9.22556 7.81428C9.15892 7.79786 9.10119 7.75637 9.06436 7.69845C9.02754 7.64054 9.01446 7.57065 9.02785 7.50334C9.04124 7.43603 9.08007 7.37647 9.13626 7.33706L14.1309 3.83999L8.56293 7.05439C8.50317 7.08907 8.4323 7.0992 8.36522 7.08266C8.29814 7.06612 8.24011 7.02419 8.20333 6.96571C8.16655 6.90722 8.15391 6.83675 8.16806 6.76913C8.18221 6.70151 8.22205 6.64202 8.27919 6.60319L11.6189 4.32479L7.88559 6.47946C7.8258 6.51354 7.75514 6.52317 7.6884 6.50636C7.62166 6.48954 7.564 6.44757 7.5275 6.38923C7.49099 6.33088 7.47845 6.26068 7.49251 6.19331C7.50657 6.12593 7.54613 6.0666 7.60293 6.02772L9.85893 4.49972L7.29893 5.97919C7.23961 6.01302 7.16959 6.02282 7.10327 6.00655C7.03695 5.99028 6.9794 5.9492 6.94248 5.89176C6.90556 5.83433 6.89207 5.76491 6.90481 5.69783C6.91754 5.63075 6.95552 5.5711 7.01093 5.53119L9.76879 3.56479L6.60719 5.39092C6.54781 5.42715 6.47662 5.43874 6.40882 5.42322C6.34101 5.40771 6.28195 5.36631 6.24424 5.30786C6.20652 5.24941 6.19314 5.17854 6.20694 5.11036C6.22075 5.04218 6.26065 4.9821 6.31812 4.94292L8.37359 3.46666L5.97359 4.85332C5.91425 4.88815 5.84373 4.89869 5.7768 4.88274C5.70986 4.86679 5.65169 4.82558 5.61443 4.76773C5.57717 4.70988 5.56371 4.63986 5.57688 4.57233C5.59004 4.50479 5.6288 4.44495 5.68506 4.40532L6.88932 3.54666L5.42746 4.39092C5.36944 4.42466 5.30083 4.43528 5.23533 4.42067C5.16982 4.40605 5.11224 4.36727 5.07407 4.31207C5.03589 4.25686 5.01994 4.18929 5.02939 4.12285C5.03885 4.0564 5.07301 3.99596 5.12506 3.95359L6.99172 2.42986L4.68612 3.76319C4.62984 3.79609 4.56345 3.80724 4.4995 3.79451C4.43556 3.78179 4.37849 3.74608 4.33909 3.69413C4.29969 3.64219 4.28068 3.57761 4.28566 3.5126C4.29064 3.44759 4.31927 3.38666 4.36612 3.34132L5.89839 1.84799L3.83439 3.03679C3.77766 3.06761 3.71167 3.07681 3.64867 3.06266C3.58567 3.04852 3.52994 3.012 3.49183 2.95988C3.45372 2.90776 3.43581 2.84358 3.44143 2.77926C3.44705 2.71494 3.47582 2.65484 3.52239 2.61012L4.15066 2.04106L3.26426 2.55252C3.21019 2.58384 3.14684 2.59518 3.08526 2.58456C3.02368 2.57394 2.96779 2.54203 2.92734 2.4944C2.88689 2.44678 2.86445 2.38646 2.86394 2.32397C2.86342 2.26149 2.88486 2.20081 2.92452 2.15252L3.44986 1.51252L2.61092 1.99732C2.57038 2.02073 2.5244 2.03305 2.47759 2.03305C2.43078 2.03305 2.38479 2.02073 2.34426 1.99732C2.30396 1.97444 2.27033 1.94145 2.24667 1.90161C2.22301 1.86177 2.21014 1.81645 2.20932 1.77012L2.19812 1.02026L1.75972 1.27359C1.72936 1.2911 1.69585 1.30246 1.6611 1.30702C1.62635 1.31157 1.59104 1.30924 1.55719 1.30016C1.52334 1.29107 1.49161 1.2754 1.46381 1.25405C1.43602 1.2327 1.4127 1.20609 1.39519 1.17572C1.37768 1.14536 1.36632 1.11185 1.36176 1.0771C1.35721 1.04235 1.35954 1.00704 1.36862 0.973189C1.38698 0.904826 1.43174 0.846554 1.49306 0.811192L2.32346 0.331192C2.36389 0.307469 2.40991 0.294963 2.45679 0.294963C2.50367 0.294963 2.54969 0.307469 2.59012 0.331192C2.63051 0.354008 2.66426 0.386966 2.68801 0.426811C2.71177 0.466656 2.72472 0.51201 2.72559 0.558392L2.73839 1.30879L4.45146 0.319992C4.50552 0.288991 4.56873 0.277904 4.63012 0.288657C4.69151 0.29941 4.74719 0.331323 4.78749 0.378854C4.8278 0.426386 4.85019 0.486533 4.85076 0.548851C4.85134 0.611169 4.83008 0.671721 4.79066 0.719992L4.26586 1.35999L6.06692 0.319992C6.12366 0.289169 6.18965 0.279977 6.25265 0.294122C6.31564 0.308267 6.37137 0.344787 6.40948 0.396906C6.44759 0.449024 6.4655 0.513199 6.45988 0.57752C6.45426 0.641841 6.4255 0.701939 6.37892 0.746658L5.75066 1.31466L7.47653 0.319992C7.53281 0.287089 7.5992 0.275946 7.66315 0.288671C7.72709 0.301396 7.78416 0.337106 7.82356 0.389052C7.86296 0.440997 7.88197 0.505577 7.87699 0.570585C7.87201 0.635593 7.84338 0.696523 7.79653 0.741858L6.26479 2.23519L9.58159 0.319992C9.6396 0.286864 9.70792 0.27671 9.77304 0.291538C9.83817 0.306367 9.89537 0.345097 9.93331 0.400068C9.97125 0.45504 9.98719 0.52225 9.97796 0.588404C9.96872 0.654559 9.935 0.71484 9.88346 0.757325L8.01999 2.27946L11.4147 0.319992C11.474 0.285164 11.5445 0.274624 11.6115 0.290576C11.6784 0.306528 11.7366 0.347737 11.7738 0.405587C11.8111 0.463438 11.8245 0.533451 11.8114 0.60099C11.7982 0.66853 11.7594 0.728367 11.7032 0.767992L10.4979 1.62666L12.7667 0.319992C12.8259 0.286519 12.8957 0.276949 12.9617 0.293243C13.0278 0.309536 13.0851 0.350459 13.122 0.407637C13.1588 0.464814 13.1725 0.533921 13.1601 0.600812C13.1476 0.667703 13.1101 0.727319 13.0552 0.767458L10.9971 2.23999L14.3283 0.319992C14.3876 0.286159 14.4576 0.276366 14.5239 0.292632C14.5902 0.308898 14.6478 0.349983 14.6847 0.40742C14.7216 0.464857 14.7351 0.53427 14.7224 0.601353C14.7096 0.668437 14.6717 0.72808 14.6163 0.767992L11.86 2.73226L16.0392 0.319992C16.099 0.284532 16.1704 0.273863 16.238 0.290262C16.3056 0.306661 16.3641 0.348829 16.4011 0.407769C16.438 0.466709 16.4505 0.537756 16.4358 0.605751C16.4211 0.673746 16.3804 0.733306 16.3224 0.771725L14.0653 2.29866L17.4947 0.319992C17.5544 0.285314 17.6253 0.275179 17.6924 0.291721C17.7594 0.308263 17.8175 0.350191 17.8543 0.408675C17.891 0.467158 17.9037 0.537631 17.8895 0.605252C17.8754 0.672872 17.8355 0.732362 17.7784 0.771192L14.4387 3.04852L19.1667 0.319992C19.2261 0.286269 19.2962 0.276653 19.3625 0.29313C19.4289 0.309608 19.4863 0.350919 19.5231 0.408539C19.5598 0.466158 19.5731 0.535687 19.56 0.602774C19.547 0.66986 19.5087 0.729384 19.4531 0.769058L14.4589 4.26346L21.2915 0.319992C21.3516 0.283968 21.4235 0.273086 21.4917 0.289699C21.5598 0.306313 21.6186 0.349087 21.6554 0.40876C21.6922 0.468433 21.7041 0.540204 21.6884 0.608536C21.6726 0.676867 21.6306 0.736261 21.5715 0.773858L17.9864 3.12052L22.8397 0.319992C22.8999 0.286399 22.9706 0.27737 23.0373 0.294795C23.1039 0.31222 23.1612 0.354748 23.1972 0.413473C23.2332 0.472198 23.245 0.542566 23.2303 0.609842C23.2156 0.677117 23.1754 0.736083 23.1181 0.774392L19.3267 3.23146L24.3731 0.319992C24.433 0.285899 24.5038 0.276349 24.5706 0.293345C24.6375 0.310341 24.6951 0.352562 24.7315 0.411147C24.7678 0.469732 24.7801 0.540126 24.7657 0.607556C24.7513 0.674985 24.7113 0.734207 24.6541 0.772792L18.3272 4.99519L26.428 0.319992C26.488 0.285182 26.5593 0.275148 26.6266 0.292022C26.6939 0.308897 26.752 0.351349 26.7885 0.410362C26.825 0.469375 26.8371 0.540301 26.8222 0.608073C26.8072 0.675846 26.7665 0.735127 26.7085 0.773325L19.8664 5.27999L28.4056 0.350925C28.4658 0.315924 28.5373 0.305851 28.6048 0.322858C28.6723 0.339865 28.7305 0.382604 28.7669 0.441941C28.8033 0.501278 28.8151 0.572507 28.7997 0.640409C28.7843 0.70831 28.743 0.767498 28.6845 0.805325L21.5853 5.42026L28.0472 1.68959C28.1075 1.65253 28.18 1.64093 28.2488 1.65733C28.3176 1.67373 28.3771 1.7168 28.4141 1.77706C28.4512 1.83732 28.4628 1.90983 28.4464 1.97864C28.43 2.04745 28.3869 2.10693 28.3267 2.14399L22.0184 6.26346L24.0669 5.08052C24.1271 5.04552 24.1986 5.03545 24.2661 5.05246C24.3336 5.06946 24.3918 5.1122 24.4283 5.17154C24.4647 5.23088 24.4765 5.30211 24.4611 5.37001C24.4457 5.43791 24.4043 5.4971 24.3459 5.53492L21.62 7.31039C21.6693 7.3231 21.7139 7.34967 21.7486 7.38694C21.7833 7.42421 21.8066 7.47064 21.8157 7.52073C21.8249 7.57082 21.8195 7.62248 21.8002 7.6696C21.7809 7.71673 21.7486 7.75735 21.7069 7.78666L18.7309 9.87359C18.766 9.89685 18.7952 9.92788 18.8163 9.96426C18.8516 10.0255 18.8612 10.0983 18.8429 10.1666C18.8246 10.2349 18.7799 10.2932 18.7187 10.3285L15.1037 12.4155C15.0626 12.4392 15.0158 12.4516 14.9683 12.4512Z" fill="#C1EEB2"/>
        <path d="M22.7933 31.7142C22.7364 31.7142 22.6811 31.6961 22.6353 31.6624C22.5895 31.6288 22.5556 31.5814 22.5386 31.5271C22.5217 31.4729 22.5225 31.4146 22.5409 31.3609C22.5594 31.3071 22.5946 31.2607 22.6413 31.2283L25.973 28.9184L21.4327 31.5392C21.3731 31.5724 21.3031 31.5814 21.237 31.5645C21.1709 31.5476 21.1138 31.506 21.0775 31.4482C21.0411 31.3905 21.0283 31.3211 21.0416 31.2541C21.0549 31.1872 21.0933 31.128 21.149 31.0886L25.9346 27.8096L20.0818 31.1867C20.0221 31.2198 19.9519 31.2287 19.8858 31.2116C19.8196 31.1944 19.7626 31.1526 19.7264 31.0947C19.6902 31.0367 19.6777 30.9671 19.6913 30.9002C19.7049 30.8333 19.7437 30.7741 19.7997 30.735L25.4909 26.895L18.9138 30.6896C18.8536 30.7268 18.781 30.7386 18.7121 30.7223C18.6432 30.706 18.5835 30.6629 18.5463 30.6027C18.5091 30.5424 18.4974 30.4699 18.5137 30.401C18.53 30.332 18.573 30.2724 18.6333 30.2352L23.7319 26.9019L18.0493 30.1867C17.9889 30.2212 17.9174 30.2307 17.8501 30.2133C17.7828 30.1959 17.7249 30.1528 17.6889 30.0933C17.6529 30.0339 17.6415 29.9627 17.6572 29.8949C17.6729 29.8272 17.7145 29.7682 17.773 29.7307L21.6199 27.2774L17.3986 29.7142C17.3384 29.7514 17.2659 29.7631 17.1971 29.7469C17.1282 29.7306 17.0686 29.6877 17.0314 29.6275C16.9942 29.5673 16.9824 29.4948 16.9987 29.4259C17.015 29.3571 17.0579 29.2975 17.1181 29.2603L23.8866 24.8L16.6066 29.0027C16.5461 29.0376 16.4742 29.0473 16.4066 29.0298C16.3389 29.0123 16.2808 28.9689 16.2448 28.909C16.2088 28.8491 16.1978 28.7775 16.2141 28.7095C16.2304 28.6415 16.2727 28.5827 16.3319 28.5456L18.0706 27.4608L16.1869 28.5483C16.1267 28.5826 16.0554 28.5921 15.9883 28.5747C15.9212 28.5574 15.8635 28.5147 15.8274 28.4555C15.7913 28.3964 15.7796 28.3255 15.7948 28.2579C15.8101 28.1903 15.851 28.1313 15.909 28.0934L21.6557 24.3963L15.6514 27.863C15.5914 27.8947 15.5215 27.9024 15.456 27.8845C15.3905 27.8665 15.3343 27.8242 15.299 27.7662C15.2636 27.7083 15.2517 27.639 15.2656 27.5725C15.2796 27.506 15.3184 27.4474 15.3741 27.4086L21.3239 23.5771L15.1783 27.1248C15.1176 27.1614 15.0448 27.1723 14.976 27.1552C14.9072 27.1381 14.848 27.0944 14.8114 27.0336C14.7749 26.9729 14.7639 26.9001 14.781 26.8313C14.7981 26.7625 14.8419 26.7033 14.9026 26.6667L18.7991 24.207L14.8466 26.4891C14.7863 26.5245 14.7144 26.5347 14.6466 26.5176C14.5788 26.5005 14.5204 26.4574 14.484 26.3977C14.4476 26.338 14.4362 26.2663 14.4521 26.1982C14.4681 26.1301 14.5102 26.071 14.5693 26.0336L20.1213 22.4726L14.5191 25.7067C14.4588 25.7394 14.3882 25.7475 14.3219 25.7295C14.2557 25.7114 14.199 25.6685 14.1636 25.6097C14.1282 25.5509 14.1169 25.4807 14.132 25.4137C14.147 25.3467 14.1873 25.2882 14.2445 25.2502L16.1607 24.0534L14.3287 25.1104C14.2685 25.1441 14.1975 25.1531 14.1307 25.1355C14.064 25.1179 14.0066 25.0751 13.9708 25.0161C13.9349 24.9571 13.9233 24.8865 13.9385 24.8192C13.9536 24.7518 13.9943 24.6929 14.0519 24.655L18.5591 21.7782L14.1442 24.327C14.0844 24.3592 14.0145 24.3673 13.9488 24.3498C13.8832 24.3322 13.8267 24.2902 13.791 24.2324C13.7552 24.1746 13.7429 24.1053 13.7565 24.0388C13.7701 23.9722 13.8087 23.9133 13.8642 23.8742L20.3175 19.6192L14.0082 23.2619C13.9482 23.2954 13.8776 23.3045 13.8111 23.2873C13.7446 23.27 13.6873 23.2278 13.6512 23.1693C13.615 23.1108 13.6029 23.0407 13.6173 22.9734C13.6316 22.9062 13.6714 22.8472 13.7282 22.8086L19.1325 19.2619L13.9933 22.2272C13.933 22.2641 13.8604 22.2756 13.7917 22.259C13.7229 22.2425 13.6635 22.1993 13.6266 22.139C13.5897 22.0786 13.5783 22.0061 13.5948 21.9373C13.6114 21.8686 13.6546 21.8092 13.7149 21.7723L17.3687 19.4048L14.0823 21.3019C14.0224 21.3345 13.9523 21.3429 13.8863 21.3254C13.8204 21.3078 13.7637 21.2657 13.7279 21.2076C13.6921 21.1495 13.6799 21.0799 13.6939 21.0131C13.7078 20.9463 13.7468 20.8874 13.8029 20.8486L17.1469 18.6592L14.285 20.3126C14.2254 20.3467 14.1548 20.3564 14.0882 20.3398C14.0215 20.3232 13.9638 20.2814 13.9271 20.2233C13.8905 20.1652 13.8777 20.0952 13.8914 20.0278C13.9051 19.9605 13.9443 19.901 14.0007 19.8619L18.0781 17.0646L14.7506 18.9867C14.691 19.0214 14.6203 19.0316 14.5533 19.0153C14.4863 18.9989 14.4282 18.9572 14.3913 18.899C14.3543 18.8407 14.3414 18.7704 14.3552 18.7028C14.369 18.6353 14.4085 18.5757 14.4653 18.5366L16.9554 16.8091L15.4685 17.6672C15.4102 17.7004 15.3416 17.7105 15.2763 17.6954C15.2109 17.6803 15.1537 17.6411 15.116 17.5856C15.0782 17.5302 15.0627 17.4626 15.0726 17.3963C15.0825 17.3299 15.117 17.2698 15.1693 17.2278L17.0925 15.6992C17.0373 15.6917 16.986 15.667 16.9455 15.6288C16.9051 15.5906 16.8776 15.5406 16.867 15.486C16.8563 15.4314 16.863 15.3748 16.8862 15.3242C16.9093 15.2736 16.9477 15.2315 16.9959 15.2038L19.6466 13.6731C19.705 13.6382 19.7744 13.627 19.8408 13.6416C19.9072 13.6562 19.9655 13.6957 20.0038 13.7519C20.042 13.8081 20.0574 13.8767 20.0467 13.9439C20.0361 14.011 20.0002 14.0715 19.9463 14.1131L18.3213 15.4038L22.2541 13.1334C22.3137 13.0987 22.3844 13.0884 22.4514 13.1048C22.5184 13.1211 22.5765 13.1628 22.6134 13.2211C22.6504 13.2793 22.6633 13.3496 22.6495 13.4172C22.6357 13.4848 22.5962 13.5444 22.5394 13.5835L20.0498 15.311L23.7533 13.1734C23.8129 13.1393 23.8835 13.1295 23.9501 13.1461C24.0168 13.1627 24.0745 13.2045 24.1112 13.2626C24.1478 13.3207 24.1606 13.3908 24.1469 13.4581C24.1332 13.5254 24.094 13.5849 24.0375 13.624L19.9581 16.423L25.1346 13.4363C25.1948 13.4013 25.2663 13.3912 25.3338 13.4082C25.4013 13.4252 25.4595 13.468 25.4959 13.5273C25.5324 13.5866 25.5441 13.6579 25.5287 13.7258C25.5133 13.7937 25.472 13.8529 25.4135 13.8907L22.0695 16.0774L26.0951 13.7531C26.1553 13.7195 26.2261 13.7105 26.2927 13.7279C26.3593 13.7453 26.4166 13.7878 26.4526 13.8466C26.4886 13.9053 26.5004 13.9757 26.4857 14.0429C26.471 14.1102 26.4308 14.1692 26.3735 14.2075L22.7154 16.576L26.9378 14.1387C26.998 14.1027 27.0699 14.0918 27.138 14.1084C27.2061 14.125 27.265 14.1678 27.3018 14.2275C27.3386 14.2871 27.3504 14.3589 27.3347 14.4272C27.319 14.4956 27.277 14.555 27.2178 14.5926L21.8167 18.1371L27.829 14.6667C27.8892 14.6295 27.9617 14.6177 28.0306 14.634C28.0994 14.6502 28.159 14.6932 28.1962 14.7534C28.2334 14.8135 28.2452 14.886 28.2289 14.9549C28.2127 15.0238 28.1697 15.0834 28.1095 15.1206L21.6562 19.376L28.6807 15.3227C28.7411 15.2882 28.8126 15.2786 28.8799 15.2961C28.9472 15.3135 29.0051 15.3566 29.0411 15.416C29.0772 15.4755 29.0885 15.5467 29.0728 15.6145C29.0571 15.6822 29.0155 15.7411 28.957 15.7787L24.4466 18.6523L29.2615 15.8726C29.322 15.8393 29.393 15.8307 29.4597 15.8487C29.5263 15.8667 29.5834 15.9098 29.6189 15.969C29.6544 16.0282 29.6655 16.0988 29.65 16.1661C29.6345 16.2333 29.5935 16.292 29.5357 16.3296L27.6253 17.5238L29.6823 16.336C29.7427 16.3007 29.8145 16.2904 29.8823 16.3075C29.9502 16.3246 30.0086 16.3677 30.0449 16.4274C30.0813 16.4871 30.0928 16.5588 30.0768 16.6269C30.0609 16.695 30.0188 16.7541 29.9597 16.7915L24.4098 20.3531L30.2002 17.0134C30.2605 16.9802 30.3313 16.9716 30.3978 16.9895C30.4643 17.0073 30.5213 17.0501 30.5569 17.109C30.5925 17.1679 30.604 17.2383 30.5889 17.3055C30.5738 17.3726 30.5333 17.4314 30.4759 17.4694L26.5799 19.928L30.5901 17.6128C30.6503 17.5785 30.7215 17.569 30.7886 17.5864C30.8557 17.6037 30.9134 17.6464 30.9496 17.7056C30.9857 17.7647 30.9974 17.8356 30.9821 17.9032C30.9669 17.9708 30.9259 18.0298 30.8679 18.0678L24.9159 21.8987L30.989 18.3926C31.0494 18.3557 31.122 18.3444 31.1907 18.361C31.2595 18.3777 31.3188 18.421 31.3557 18.4814C31.3925 18.5418 31.4039 18.6143 31.3872 18.6831C31.3706 18.7518 31.3273 18.8112 31.2669 18.848L25.5234 22.543L31.3159 19.2C31.3765 19.1651 31.4483 19.1554 31.516 19.1729C31.5836 19.1904 31.6417 19.2338 31.6777 19.2937C31.7137 19.3536 31.7248 19.4252 31.7085 19.4932C31.6922 19.5612 31.6498 19.62 31.5906 19.6571L29.8407 20.7467L31.4978 19.7899C31.558 19.7539 31.6299 19.743 31.698 19.7596C31.7661 19.7762 31.825 19.819 31.8618 19.8787C31.8986 19.9383 31.9104 20.0101 31.8947 20.0784C31.879 20.1468 31.837 20.2062 31.7778 20.2438L25.0098 24.6992L31.7149 20.8283C31.7751 20.7946 31.8461 20.7856 31.9129 20.8032C31.9797 20.8208 32.037 20.8636 32.0729 20.9226C32.1087 20.9816 32.1203 21.0522 32.1052 21.1195C32.09 21.1869 32.0493 21.2458 31.9917 21.2838L28.1517 23.7339L31.7986 21.6283C31.8587 21.5941 31.9297 21.5846 31.9966 21.6018C32.0636 21.619 32.1212 21.6614 32.1575 21.7203C32.1937 21.7791 32.2057 21.8498 32.1909 21.9173C32.1761 21.9848 32.1356 22.0439 32.0781 22.0822L26.9773 25.4187L31.8039 22.6326C31.8636 22.5998 31.9335 22.5912 31.9993 22.6083C32.0652 22.6255 32.122 22.6672 32.1581 22.7248C32.1942 22.7825 32.2069 22.8518 32.1937 22.9185C32.1804 22.9852 32.1421 23.0443 32.0866 23.0838L26.3938 26.9264L31.6503 23.8934C31.71 23.8602 31.78 23.8511 31.8461 23.8681C31.9122 23.885 31.9693 23.9266 32.0056 23.9843C32.042 24.0421 32.0548 24.1115 32.0415 24.1784C32.0282 24.2453 31.9897 24.3046 31.9341 24.344L27.1517 27.6214L31.285 25.2347C31.3446 25.2 31.4154 25.1898 31.4824 25.2061C31.5494 25.2225 31.6074 25.2641 31.6444 25.3224C31.6813 25.3807 31.6942 25.451 31.6804 25.5185C31.6666 25.5861 31.6271 25.6457 31.5703 25.6848L28.2375 27.9947L30.6573 26.5979C30.717 26.5632 30.7879 26.5531 30.855 26.5696C30.9221 26.5862 30.9801 26.6281 31.0169 26.6866C31.0536 26.7451 31.0663 26.8155 31.0521 26.8831C31.038 26.9508 30.9981 27.0103 30.941 27.0491L29.973 27.711C30.0351 27.6972 30.1 27.7062 30.1561 27.7361C30.2122 27.766 30.2557 27.815 30.2789 27.8742C30.302 27.9334 30.3033 27.9989 30.2824 28.0589C30.2615 28.119 30.2199 28.1696 30.165 28.2016L24.2946 31.5904C24.235 31.6236 24.1649 31.6326 24.0989 31.6157C24.0328 31.5988 23.9757 31.5572 23.9393 31.4994C23.903 31.4417 23.8902 31.3723 23.9035 31.3053C23.9168 31.2384 23.9552 31.1792 24.0109 31.1398L24.8487 30.567L22.9239 31.68C22.884 31.7024 22.839 31.7142 22.7933 31.7142Z" fill="#A9D59B"/>
        <path d="M23.6003 25.1643C23.5459 25.1634 23.4932 25.1459 23.449 25.1142C23.4049 25.0824 23.3715 25.038 23.3534 24.9867C23.3352 24.9355 23.3331 24.88 23.3474 24.8275C23.3617 24.7751 23.3917 24.7283 23.4333 24.6934L25.4808 23.0182L23.5779 24.1168C23.5194 24.1502 23.4504 24.1602 23.3848 24.1448C23.3192 24.1294 23.2619 24.0898 23.2243 24.0339C23.1868 23.9779 23.1718 23.9099 23.1823 23.8433C23.1929 23.7768 23.2283 23.7167 23.2813 23.6752L24.3901 22.8219L23.5693 23.296C23.5125 23.33 23.4451 23.3417 23.3802 23.3287C23.3152 23.3157 23.2574 23.279 23.218 23.2258C23.1787 23.1726 23.1605 23.1066 23.1671 23.0407C23.1736 22.9748 23.2045 22.9137 23.2536 22.8694L24.9693 21.2656L21.1187 23.4886C21.0577 23.5204 20.9868 23.5275 20.9208 23.5084C20.8547 23.4892 20.7986 23.4453 20.7642 23.3857C20.7298 23.3262 20.7197 23.2556 20.7361 23.1888C20.7524 23.122 20.794 23.0641 20.852 23.0272L26.7187 19.64C26.7755 19.606 26.8429 19.5944 26.9079 19.6073C26.9728 19.6203 27.0306 19.657 27.07 19.7102C27.1094 19.7634 27.1275 19.8294 27.121 19.8953C27.1144 19.9612 27.0835 20.0223 27.0344 20.0667L25.3187 21.6699L27.5875 20.3605C27.646 20.3272 27.715 20.3171 27.7806 20.3325C27.8462 20.3479 27.9035 20.3876 27.941 20.4435C27.9786 20.4994 27.9936 20.5675 27.983 20.634C27.9724 20.7006 27.9371 20.7606 27.884 20.8022L26.7709 21.6533L28.0563 20.9115C28.1142 20.8791 28.1821 20.8694 28.2468 20.8844C28.3114 20.8994 28.3682 20.938 28.4059 20.9926C28.4437 21.0472 28.4597 21.1139 28.4508 21.1797C28.442 21.2454 28.409 21.3056 28.3582 21.3483L26.0221 23.2598C26.0763 23.2689 26.1263 23.2945 26.1653 23.3331C26.2043 23.3717 26.2305 23.4214 26.2403 23.4754C26.25 23.5294 26.2428 23.5851 26.2197 23.6349C26.1966 23.6847 26.1587 23.7262 26.1112 23.7536L23.7336 25.1264C23.6933 25.1507 23.6473 25.1638 23.6003 25.1643Z" fill="white"/>
        <path d="M17.5827 25.9819C17.5261 25.9819 17.471 25.9639 17.4253 25.9305C17.3796 25.8971 17.3458 25.85 17.3286 25.7961C17.3114 25.7422 17.3119 25.6842 17.3298 25.6305C17.3478 25.5769 17.3824 25.5303 17.4286 25.4976L21.5549 22.5723L17.715 24.7888C17.6554 24.823 17.585 24.8329 17.5184 24.8164C17.4517 24.8 17.394 24.7585 17.3572 24.7006C17.3204 24.6427 17.3073 24.5728 17.3207 24.5055C17.3341 24.4382 17.3729 24.3786 17.4291 24.3392L20.4621 22.2197L17.7421 23.7915C17.683 23.8251 17.6133 23.8349 17.5473 23.8188C17.4812 23.8027 17.4238 23.762 17.3867 23.705C17.3497 23.648 17.3358 23.579 17.3479 23.5121C17.3601 23.4452 17.3973 23.3854 17.452 23.3451L18.5971 22.5136L17.9358 22.8949C17.8793 22.9271 17.8131 22.9376 17.7495 22.9244C17.6858 22.9112 17.6292 22.8752 17.5903 22.8232C17.5513 22.7712 17.5327 22.7068 17.5379 22.642C17.543 22.5773 17.5717 22.5166 17.6184 22.4715L18.9315 21.2171C18.8692 21.2318 18.8038 21.2236 18.7471 21.1941C18.6903 21.1646 18.6461 21.1156 18.6225 21.0562C18.5988 20.9968 18.5973 20.9309 18.6182 20.8704C18.6391 20.81 18.681 20.7591 18.7363 20.7269L20.5533 19.6768C20.6098 19.6422 20.6771 19.6299 20.7422 19.6423C20.8072 19.6546 20.8654 19.6907 20.9053 19.7435C20.9452 19.7963 20.964 19.8621 20.9581 19.928C20.9522 19.994 20.922 20.0554 20.8733 20.1003L19.5933 21.3221L22.7331 19.5088C22.7922 19.4752 22.8619 19.4654 22.928 19.4815C22.994 19.4976 23.0515 19.5383 23.0885 19.5953C23.1256 19.6523 23.1394 19.7213 23.1273 19.7882C23.1152 19.8551 23.0779 19.9148 23.0232 19.9552L21.8819 20.7845L25.548 18.6667C25.6075 18.6325 25.6779 18.6226 25.7446 18.639C25.8112 18.6555 25.8689 18.697 25.9058 18.7549C25.9426 18.8128 25.9557 18.8827 25.9423 18.95C25.9289 19.0173 25.8901 19.0769 25.8339 19.1163L22.7997 21.2363L26.2472 19.2459C26.3066 19.2116 26.3769 19.2016 26.4435 19.2178C26.5101 19.234 26.5679 19.2753 26.6049 19.333C26.6419 19.3907 26.6553 19.4605 26.6422 19.5278C26.6291 19.5951 26.5906 19.6547 26.5347 19.6944L18.5597 25.3493C18.5532 25.3876 18.5382 25.424 18.5159 25.4558C18.4935 25.4876 18.4645 25.5141 18.4307 25.5333L17.716 25.9456C17.6755 25.9692 17.6295 25.9817 17.5827 25.9819Z" fill="white"/>
        <path d="M23.4493 19.8475C23.397 19.8475 23.3459 19.8321 23.3023 19.8033C23.2587 19.7745 23.2245 19.7335 23.204 19.6855C23.1835 19.6374 23.1776 19.5844 23.1869 19.5329C23.1963 19.4815 23.2206 19.434 23.2568 19.3963L23.4301 19.2149C23.3869 19.2118 23.3451 19.1982 23.3084 19.1753C23.2716 19.1524 23.241 19.1209 23.2192 19.0835C23.1973 19.0461 23.1849 19.004 23.183 18.9607C23.1811 18.9174 23.1898 18.8744 23.2082 18.8352L23.4866 18.24C23.4385 18.2399 23.3911 18.2276 23.349 18.2043C23.3068 18.181 23.2713 18.1474 23.2456 18.1067C23.2104 18.0455 23.2009 17.9728 23.2192 17.9046C23.2375 17.8364 23.2821 17.7783 23.3432 17.7429L23.9352 17.4005C23.9844 17.3726 24.0411 17.3611 24.0973 17.3675C24.1534 17.374 24.2061 17.3981 24.2476 17.4365C24.2892 17.4748 24.3175 17.5254 24.3284 17.5808C24.3394 17.6363 24.3324 17.6938 24.3085 17.7451L24.0536 18.2933L24.6664 17.9397C24.7219 17.9076 24.7872 17.8966 24.8502 17.9087C24.9132 17.9209 24.9697 17.9553 25.0094 18.0057C25.0491 18.0562 25.0692 18.1192 25.0662 18.1833C25.0631 18.2474 25.0371 18.3082 24.9928 18.3547L24.9325 18.4181L25.116 18.3115C25.1463 18.2922 25.1803 18.2792 25.2158 18.2734C25.2513 18.2675 25.2876 18.2689 25.3225 18.2775C25.3574 18.2861 25.3903 18.3016 25.419 18.3232C25.4478 18.3447 25.4719 18.3719 25.4899 18.4031C25.5079 18.4342 25.5194 18.4686 25.5238 18.5043C25.5281 18.5401 25.5252 18.5763 25.5152 18.6108C25.5051 18.6453 25.4882 18.6775 25.4655 18.7053C25.4427 18.7332 25.4145 18.7561 25.3827 18.7728L23.5826 19.8112C23.5423 19.835 23.4962 19.8476 23.4493 19.8475Z" fill="white"/>
        <path d="M25.692 18.4757C23.9715 16.8859 23.0088 16.9755 23.1592 19.4923C20.2467 18.9813 17.3171 20.9728 17.3043 24.0672C17.3 24.6656 16.931 26.3232 17.7438 26.4101C18.1784 26.1968 18.1299 26.0272 18.4062 25.6192C18.9989 24.6556 19.9079 23.9279 20.9779 23.5605C20.8776 23.5941 23.0456 23.0427 23.1699 23.1557C23.3331 23.7259 22.9219 24.6917 23.4088 25.1723C24.4488 26.0352 27.3171 22.7584 28.0686 22.136C29.3534 20.6517 26.6867 19.2816 25.692 18.4757ZM27.7896 21.7232L25.2904 23.7931C23.8568 25.4165 23.5384 24.5397 23.6968 22.8331C23.696 22.8054 23.6895 22.7783 23.6778 22.7533C23.6661 22.7282 23.6494 22.7059 23.6287 22.6875C23.608 22.6692 23.5838 22.6553 23.5575 22.6466C23.5313 22.638 23.5036 22.6348 23.476 22.6373C21.1726 22.584 18.9747 23.5264 17.8035 25.6512C17.5368 21.5792 19.3267 19.7333 23.3907 20.0336C23.5848 20.0336 23.6968 19.7909 23.6968 19.632C23.6968 19.1365 23.3992 17.9723 24.1459 18.0181C24.4056 18.0341 25.0398 18.7584 25.2126 18.9019C25.7267 19.3264 28.2499 20.8533 27.7896 21.7232Z" fill="#1C0E59"/>
        <path d="M30.1533 16.5867V8.05921C30.1378 6.35948 31.0216 2.20001 29.5608 0.82028C29.5547 0.776623 29.5321 0.736954 29.4977 0.709392C29.4633 0.681829 29.4196 0.668457 29.3757 0.672013C28.2754 -0.0805203 26.1677 0.29388 25.0216 0.29388H4.26264C3.27331 0.29388 2.26744 0.243213 1.56664 0.685346C1.50581 0.700866 1.44909 0.729475 1.40045 0.769177C1.35181 0.808879 1.31243 0.858717 1.28504 0.915213C-0.210959 3.28855 0.880774 6.89441 0.713308 9.58988C0.713308 13.1166 0.713308 16.6429 0.713308 20.1685C0.64416 20.9427 0.848954 21.7166 1.29197 22.3552C1.06797 22.5813 1.44344 22.8059 1.69037 22.7067C2.34053 23.0622 3.07926 23.2231 3.81837 23.1701H13.5613C13.7977 25.4964 14.8834 27.6539 16.6108 29.2298C18.3381 30.8057 20.5859 31.6895 22.924 31.712C30.5506 31.9488 35.084 22.2955 30.1432 16.6187C30.1476 16.6084 30.151 16.5976 30.1533 16.5867ZM29.5133 8.53335V15.9024C28.2375 14.5974 26.6059 13.6965 24.8217 13.3121C23.0376 12.9276 21.1798 13.0765 19.4797 13.7403L17.1005 11.7136C21.0648 8.29175 25.0685 4.92215 29.0472 1.51841C30.2066 3.20001 29.5133 7.00855 29.5133 8.53335ZM4.22424 0.772813H22.2754C24.2168 0.86028 27.0301 -0.00692026 28.7288 1.15841C24.6754 4.60001 20.6312 8.04428 16.6365 11.5269C16.5456 11.542 16.4619 11.5858 16.3976 11.6517C14.8013 12.3408 13.5821 10.8053 12.5464 9.92268L2.29357 1.18775C2.88731 0.876122 3.5549 0.732645 4.22424 0.772813ZM1.35331 3.29815C1.31561 2.70255 1.47798 2.11144 1.81464 1.61868C5.77464 5.01335 9.76771 8.35201 13.7048 11.7771L1.87597 21.8544C1.55965 21.4131 1.3781 20.8896 1.35331 20.3472C0.835974 14.7664 1.35331 8.90668 1.35331 3.29815ZM6.45251 22.6939C4.91811 22.6939 3.27544 22.9451 2.27544 22.2368L14.1533 12.1184C14.5123 12.3963 14.9553 12.5434 15.4093 12.5355C15.8632 12.5275 16.3008 12.365 16.6498 12.0747L18.9037 13.9947C17.2581 14.7629 15.8731 15.9958 14.9195 17.5415C13.9659 19.0871 13.4852 20.8779 13.5368 22.6933L6.45251 22.6939ZM22.8792 31.2213C11.3106 30.7883 11.4093 13.9947 22.9272 13.5787C34.4397 13.9952 34.3325 30.8213 22.876 31.2213H22.8792Z" fill="#1C0E59"/>
    </g>
    <defs>
        <clipPath id="clip0_1_358">
            <rect width="32" height="32" fill="white" transform="translate(0.5)"/>
        </clipPath>
    </defs>
</svg>
