<svg width="33" height="32" viewBox="0 0 33 32" fill="none" xmlns="http://www.w3.org/2000/svg">
    <path d="M23.2925 29.8763C23.2338 29.8763 23.1768 29.8569 23.1302 29.8211C23.0836 29.7854 23.0502 29.7353 23.035 29.6786C23.0198 29.6219 23.0237 29.5618 23.0462 29.5075C23.0686 29.4533 23.1084 29.408 23.1592 29.3787L26.2755 27.5797C26.3274 27.5497 26.3879 27.5381 26.4472 27.5467C26.5065 27.5553 26.5612 27.5837 26.6025 27.6272C26.6437 27.6707 26.6691 27.7268 26.6745 27.7865C26.6799 27.8463 26.665 27.906 26.6323 27.9563L26.068 28.8208L26.4301 28.6117C26.4914 28.5769 26.5639 28.5677 26.6318 28.5862C26.6998 28.6046 26.7577 28.6492 26.7929 28.7102C26.8281 28.7712 26.8377 28.8436 26.8198 28.9117C26.8018 28.9798 26.7576 29.038 26.6968 29.0736L25.3688 29.84C25.3169 29.87 25.2564 29.8816 25.1971 29.873C25.1377 29.8644 25.0831 29.836 25.0418 29.7925C25.0006 29.749 24.9752 29.6929 24.9698 29.6332C24.9644 29.5735 24.9793 29.5137 25.012 29.4635L25.5763 28.5989L23.4259 29.84C23.3854 29.8636 23.3394 29.8761 23.2925 29.8763Z" fill="#A53E51"/>
    <path d="M19.9842 31.52C19.9274 31.5198 19.8721 31.5015 19.8264 31.4677C19.7807 31.4339 19.747 31.3864 19.7302 31.3321C19.7134 31.2778 19.7144 31.2195 19.733 31.1658C19.7517 31.1121 19.787 31.0658 19.8338 31.0336L20.2466 30.7498L19.7448 31.0395C19.6853 31.0732 19.6152 31.0828 19.5489 31.0663C19.4826 31.0498 19.4251 31.0085 19.3884 30.9509C19.3516 30.8933 19.3384 30.8238 19.3514 30.7567C19.3644 30.6896 19.4027 30.6301 19.4584 30.5904L20.7133 29.7093L19.4664 30.4293C19.4077 30.4625 19.3387 30.4722 19.2732 30.4566C19.2077 30.441 19.1505 30.4011 19.1131 30.3451C19.0758 30.289 19.061 30.2209 19.0718 30.1544C19.0827 30.0879 19.1182 30.028 19.1714 29.9867L21.9837 27.8357L19.0562 29.5259C18.9975 29.5595 18.9281 29.5696 18.8622 29.5539C18.7962 29.5383 18.7387 29.4982 18.7013 29.4417C18.6639 29.3852 18.6494 29.3166 18.6608 29.2498C18.6721 29.1831 18.7084 29.1231 18.7624 29.0821L21.3906 27.1035L18.6706 28.6747C18.611 28.7093 18.5403 28.7196 18.4733 28.7032C18.4063 28.6869 18.3482 28.6452 18.3113 28.5869C18.2744 28.5287 18.2614 28.4584 18.2752 28.3908C18.289 28.3232 18.3285 28.2636 18.3853 28.2245L19.3266 27.5733L18.4088 28.1029C18.3494 28.1351 18.2801 28.1435 18.2147 28.1266C18.1493 28.1096 18.0929 28.0685 18.0566 28.0115C18.0204 27.9545 18.0072 27.8859 18.0196 27.8195C18.032 27.7531 18.0691 27.6939 18.1234 27.6539L19.1613 26.9317L18.1437 27.5184C18.0843 27.5521 18.0142 27.5617 17.9478 27.5452C17.8815 27.5288 17.824 27.4875 17.7873 27.4298C17.7505 27.3722 17.7373 27.3027 17.7503 27.2356C17.7634 27.1685 17.8017 27.109 17.8573 27.0693L19.1986 26.1269L17.8621 26.8987C17.8028 26.9335 17.7323 26.944 17.6653 26.9281C17.5984 26.9121 17.5402 26.8709 17.5029 26.8131C17.4657 26.7552 17.4522 26.6852 17.4654 26.6177C17.4786 26.5501 17.5173 26.4903 17.5736 26.4507L19.34 25.1883L17.5538 26.2192C17.4944 26.2539 17.4238 26.2643 17.3568 26.2482C17.2898 26.232 17.2317 26.1906 17.1946 26.1325C17.1575 26.0745 17.1444 26.0043 17.1578 25.9368C17.1713 25.8692 17.2104 25.8095 17.2669 25.7701L18.5581 24.8635L17.2749 25.6048C17.2152 25.6395 17.1443 25.6496 17.0772 25.6331C17.0101 25.6165 16.9521 25.5746 16.9153 25.5161C16.8785 25.4576 16.8659 25.3872 16.88 25.3195C16.8942 25.2519 16.934 25.1924 16.9912 25.1536L17.2157 25L17.045 25.0987C16.9868 25.1319 16.9182 25.1419 16.8528 25.1268C16.7875 25.1117 16.7303 25.0725 16.6925 25.0171C16.6548 24.9617 16.6393 24.894 16.6492 24.8277C16.6591 24.7614 16.6936 24.7012 16.7458 24.6592L18.4696 23.2853L16.6888 24.3136C16.6584 24.3329 16.6245 24.3458 16.589 24.3517C16.5535 24.3575 16.5172 24.3561 16.4823 24.3476C16.4473 24.339 16.4145 24.3235 16.3857 24.3019C16.357 24.2803 16.3328 24.2531 16.3148 24.222C16.2968 24.1909 16.2853 24.1564 16.281 24.1207C16.2767 24.085 16.2796 24.0488 16.2896 24.0143C16.2996 23.9797 16.3165 23.9476 16.3393 23.9197C16.3621 23.8919 16.3902 23.8689 16.4221 23.8523L21.292 21.04C21.3502 21.007 21.4186 20.997 21.4838 21.0121C21.549 21.0272 21.6061 21.0663 21.6439 21.1215C21.6816 21.1768 21.6972 21.2442 21.6875 21.3104C21.6779 21.3766 21.6437 21.4368 21.5917 21.4789L19.868 22.8533L23.0098 21.04C23.0696 21.0053 23.1405 20.9952 23.2075 21.0117C23.2746 21.0283 23.3327 21.0702 23.3694 21.1287C23.4062 21.1872 23.4189 21.2576 23.4047 21.3253C23.3906 21.3929 23.3507 21.4524 23.2936 21.4912L23.069 21.6448L23.5624 21.36C23.6218 21.3263 23.6919 21.3167 23.7583 21.3331C23.8246 21.3496 23.882 21.3909 23.9188 21.4485C23.9555 21.5062 23.9688 21.5757 23.9557 21.6428C23.9427 21.7099 23.9044 21.7694 23.8488 21.8091L22.5538 22.7157L23.8338 21.9776C23.8932 21.9428 23.9637 21.9322 24.0306 21.9482C24.0976 21.9641 24.1557 22.0053 24.193 22.0632C24.2303 22.121 24.2437 22.1911 24.2305 22.2586C24.2174 22.3261 24.1786 22.386 24.1224 22.4256L22.3581 23.6859L24.1325 22.6619C24.1919 22.6281 24.2621 22.6185 24.3284 22.635C24.3947 22.6515 24.4522 22.6928 24.4889 22.7504C24.5257 22.808 24.5389 22.8776 24.5259 22.9446C24.5128 23.0117 24.4745 23.0713 24.4189 23.1109L23.0754 24.0533L24.4034 23.2864C24.4629 23.2532 24.5329 23.2439 24.5989 23.2607C24.665 23.2774 24.7222 23.3188 24.7587 23.3763C24.7952 23.4338 24.8083 23.5032 24.7953 23.57C24.7823 23.6369 24.7442 23.6963 24.6888 23.736L23.652 24.4576L24.6605 23.8763C24.72 23.843 24.7899 23.8338 24.856 23.8505C24.9221 23.8672 24.9792 23.9086 25.0157 23.9662C25.0522 24.0237 25.0653 24.093 25.0524 24.1599C25.0394 24.2268 25.0012 24.2862 24.9458 24.3259L24.0002 24.9813L24.9122 24.4549C24.971 24.4212 25.0404 24.4112 25.1063 24.4268C25.1722 24.4425 25.2297 24.4826 25.2671 24.5391C25.3045 24.5955 25.319 24.6641 25.3077 24.7309C25.2964 24.7977 25.26 24.8577 25.2061 24.8987L22.58 26.8763L25.2877 25.3131C25.3463 25.2799 25.4153 25.2701 25.4809 25.2858C25.5464 25.3014 25.6036 25.3412 25.6409 25.3973C25.6783 25.4533 25.693 25.5215 25.6822 25.588C25.6714 25.6545 25.6358 25.7144 25.5826 25.7557L22.7677 27.9083L25.685 26.2245C25.7445 26.1908 25.8146 26.1812 25.8809 26.1977C25.9472 26.2141 26.0047 26.2554 26.0415 26.3131C26.0782 26.3707 26.0914 26.4402 26.0784 26.5073C26.0654 26.5744 26.0271 26.6339 25.9714 26.6736L24.7186 27.5515L25.9528 26.8395C26.0124 26.8063 26.0824 26.7973 26.1485 26.8142C26.2146 26.8311 26.2717 26.8727 26.308 26.9304C26.3444 26.9882 26.3572 27.0576 26.3439 27.1245C26.3306 27.1914 26.2922 27.2507 26.2365 27.2901L25.8221 27.5739L26.1821 27.3669C26.2125 27.3476 26.2464 27.3347 26.2819 27.3288C26.3174 27.323 26.3537 27.3244 26.3886 27.333C26.4235 27.3415 26.4564 27.357 26.4851 27.3786C26.5139 27.4002 26.538 27.4274 26.556 27.4585C26.574 27.4897 26.5855 27.5241 26.5899 27.5598C26.5942 27.5955 26.5913 27.6317 26.5813 27.6663C26.5712 27.7008 26.5543 27.733 26.5316 27.7608C26.5088 27.7886 26.4806 27.8116 26.4488 27.8283L20.1176 31.4832C20.0771 31.507 20.0311 31.5197 19.9842 31.52Z" fill="#A53E51"/>
    <path d="M12.42 31.7168C12.3683 31.7169 12.3176 31.7019 12.2743 31.6737C12.2309 31.6455 12.1967 31.6053 12.1757 31.558C12.1548 31.5106 12.1481 31.4583 12.1565 31.4072C12.1648 31.3562 12.1878 31.3086 12.2227 31.2704L12.4195 31.0571L11.8045 31.4117C11.7482 31.4452 11.6815 31.4567 11.6172 31.4441C11.5529 31.4315 11.4955 31.3956 11.456 31.3434C11.4164 31.2912 11.3974 31.2262 11.4027 31.1609C11.408 31.0956 11.4371 31.0345 11.4845 30.9893L12.6893 29.8245L11.1144 30.7312C11.0556 30.7649 10.9862 30.7749 10.9203 30.7593C10.8544 30.7437 10.7969 30.7035 10.7595 30.6471C10.7221 30.5906 10.7076 30.522 10.7189 30.4552C10.7302 30.3884 10.7666 30.3285 10.8205 30.2875L11.2301 29.9787L10.6787 30.2987C10.6197 30.333 10.5499 30.3434 10.4835 30.3278C10.4172 30.3122 10.3593 30.2718 10.3218 30.2148C10.2843 30.1579 10.2701 30.0887 10.282 30.0216C10.2939 29.9545 10.3311 29.8944 10.3859 29.8539L11.5027 29.0235L10.0584 29.856C9.99924 29.8892 9.92968 29.8985 9.86386 29.8822C9.79805 29.8659 9.74091 29.8252 9.70409 29.7682C9.66726 29.7113 9.65351 29.6425 9.66563 29.5757C9.67775 29.509 9.71482 29.4494 9.76932 29.4091L11.3693 28.2576L8.62799 29.84C8.5685 29.8733 8.49855 29.8825 8.43249 29.8657C8.36643 29.849 8.30927 29.8076 8.27276 29.7501C8.23624 29.6926 8.22314 29.6232 8.23614 29.5564C8.24914 29.4895 8.28725 29.4301 8.34266 29.3904L11.1085 27.4667L7.16666 29.7424C7.10686 29.7765 7.0362 29.7861 6.96946 29.7693C6.90272 29.7525 6.84507 29.7105 6.80856 29.6522C6.77205 29.5938 6.75952 29.5236 6.77357 29.4563C6.78763 29.3889 6.82719 29.3296 6.88399 29.2907L12.8157 25.2832L6.53146 28.9099C6.47115 28.943 6.40035 28.9516 6.33387 28.9338C6.26739 28.9159 6.21038 28.8731 6.17477 28.8142C6.13915 28.7553 6.12769 28.6849 6.14278 28.6178C6.15787 28.5506 6.19834 28.4919 6.25572 28.4539L6.69679 28.1749L6.65466 28.1989C6.595 28.233 6.52447 28.2428 6.4578 28.2262C6.39112 28.2095 6.33343 28.1678 6.29677 28.1097C6.26011 28.0516 6.2473 27.9815 6.26102 27.9142C6.27473 27.8469 6.31391 27.7874 6.37039 27.7483L10.5683 24.8571L7.28559 26.7525C7.22644 26.7857 7.15688 26.7951 7.09106 26.7788C7.02525 26.7625 6.96811 26.7217 6.93129 26.6647C6.89446 26.6078 6.88071 26.539 6.89283 26.4723C6.90495 26.4055 6.94203 26.346 6.99652 26.3056L9.99972 24.1397L7.89466 25.3547C7.83517 25.3879 7.76521 25.3971 7.69915 25.3804C7.63309 25.3637 7.57594 25.3223 7.53943 25.2648C7.50291 25.2072 7.48981 25.1379 7.50281 25.071C7.51581 25.0041 7.55392 24.9447 7.60932 24.9051L8.16719 24.5173C8.12186 24.5202 8.0765 24.512 8.03506 24.4934C7.99361 24.4749 7.95732 24.4464 7.92932 24.4107C7.89003 24.3589 7.871 24.2945 7.87582 24.2297C7.88063 24.1649 7.90895 24.1041 7.95546 24.0587L9.48132 22.5733L8.98052 22.8619C8.9289 22.8917 8.86875 22.9034 8.80969 22.8951C8.75064 22.8868 8.69608 22.8589 8.65475 22.8159C8.61341 22.7729 8.58768 22.7173 8.58167 22.6579C8.57566 22.5986 8.58971 22.5389 8.62159 22.4885L9.14799 21.6576C9.13625 21.6448 9.12605 21.6306 9.11759 21.6155C9.0824 21.5543 9.07291 21.4816 9.0912 21.4134C9.1095 21.3452 9.15409 21.2871 9.21519 21.2517L9.57199 21.0453C9.62355 21.0156 9.6836 21.0039 9.74256 21.0122C9.80152 21.0205 9.856 21.0483 9.89732 21.0912C9.93876 21.1341 9.96459 21.1898 9.97068 21.2491C9.97677 21.3085 9.96277 21.3682 9.93092 21.4187L9.65199 21.8587L11.0632 21.0443C11.1195 21.0114 11.1859 21.0002 11.2498 21.0129C11.3138 21.0257 11.3708 21.0614 11.4102 21.1133C11.4496 21.1653 11.4686 21.2299 11.4637 21.2949C11.4587 21.3599 11.43 21.4208 11.3832 21.4661L9.85732 22.952L13.164 21.0432C13.2235 21.01 13.2934 21.0008 13.3595 21.0175C13.4255 21.0342 13.4827 21.0756 13.5192 21.1331C13.5557 21.1906 13.5688 21.26 13.5558 21.3269C13.5428 21.3937 13.5047 21.4531 13.4493 21.4928L13.1293 21.7152L14.2947 21.0421C14.3538 21.009 14.4234 20.9996 14.4892 21.0159C14.555 21.0322 14.6121 21.073 14.649 21.1299C14.6858 21.1869 14.6995 21.2557 14.6874 21.3224C14.6753 21.3891 14.6382 21.4487 14.5837 21.4891L11.5805 23.6587L16.1101 21.0453C16.1698 21.0112 16.2403 21.0015 16.307 21.0181C16.3737 21.0347 16.4313 21.0765 16.468 21.1346C16.5047 21.1927 16.5175 21.2627 16.5038 21.3301C16.49 21.3974 16.4509 21.4568 16.3944 21.496L12.1944 24.3883L17.9869 21.0443C18.0475 21.0077 18.12 20.9967 18.1887 21.0136C18.2574 21.0306 18.3165 21.0741 18.3531 21.1347C18.3896 21.1952 18.4006 21.2678 18.3837 21.3365C18.3667 21.4051 18.3232 21.4642 18.2627 21.5008L17.836 21.7701L19.0957 21.0432C19.1555 21.0091 19.2262 20.9995 19.2929 21.0163C19.3597 21.0331 19.4173 21.0751 19.4538 21.1334C19.4903 21.1918 19.5029 21.262 19.4888 21.3293C19.4747 21.3967 19.4352 21.4561 19.3784 21.4949L13.4461 25.5008L16.3144 23.8475C16.3739 23.8142 16.4438 23.805 16.5099 23.8217C16.5759 23.8385 16.6331 23.8798 16.6696 23.9374C16.7061 23.9949 16.7192 24.0642 16.7062 24.1311C16.6932 24.198 16.6551 24.2574 16.5997 24.2971L13.8333 26.2197L15.7331 25.1227C15.7923 25.0883 15.8625 25.0781 15.9291 25.0941C15.9957 25.1101 16.0536 25.1511 16.0908 25.2087C16.128 25.2662 16.1416 25.3358 16.1288 25.4031C16.116 25.4704 16.0778 25.5302 16.0221 25.5701L14.4221 26.7216L15.2163 26.2629C15.2752 26.2286 15.345 26.2182 15.4114 26.2338C15.4777 26.2494 15.5356 26.2899 15.5731 26.3468C15.6106 26.4037 15.6248 26.4729 15.6129 26.54C15.601 26.6072 15.5638 26.6672 15.5091 26.7077L14.3923 27.5387L14.724 27.3467C14.7828 27.313 14.8522 27.303 14.9181 27.3186C14.984 27.3342 15.0415 27.3743 15.0789 27.4308C15.1163 27.4873 15.1308 27.5559 15.1195 27.6227C15.1081 27.6895 15.0718 27.7494 15.0179 27.7904L14.42 28.2416C14.4639 28.2386 14.5078 28.2468 14.5477 28.2655C14.5875 28.2841 14.6219 28.3126 14.6477 28.3483C14.687 28.4002 14.706 28.4648 14.7009 28.5297C14.6959 28.5946 14.6673 28.6555 14.6205 28.7008L13.4157 29.8645L13.6392 29.736C13.6942 29.7047 13.7587 29.694 13.8209 29.7058C13.8831 29.7176 13.9391 29.7512 13.9788 29.8006C14.0185 29.8499 14.0394 29.9118 14.0377 29.9751C14.0359 30.0384 14.0117 30.0991 13.9693 30.1461L13.4632 30.7019C13.5008 30.7252 13.5321 30.7574 13.5544 30.7957C13.5897 30.857 13.5993 30.9298 13.581 30.9981C13.5627 31.0664 13.518 31.1246 13.4568 31.16L12.5533 31.68C12.513 31.704 12.4669 31.7167 12.42 31.7168Z" fill="#A53E51"/>
    <path d="M16.4941 24.2507C16.4365 24.2507 16.3804 24.232 16.3342 24.1975C16.288 24.1629 16.2543 24.1143 16.2381 24.059C16.2219 24.0037 16.224 23.9446 16.2442 23.8906C16.2644 23.8366 16.3016 23.7906 16.3501 23.7595L17.5235 23.0069L15.716 24.0491C15.6556 24.0829 15.5844 24.0919 15.5174 24.0742C15.4504 24.0565 15.393 24.0134 15.3573 23.9541C15.3215 23.8948 15.3102 23.8239 15.3258 23.7564C15.3414 23.6889 15.3826 23.6301 15.4408 23.5925L15.9208 23.2896L15.1085 23.7584C15.0786 23.7765 15.0453 23.7886 15.0107 23.7939C14.976 23.7992 14.9407 23.7976 14.9067 23.7892C14.8726 23.7808 14.8406 23.7658 14.8124 23.7451C14.7841 23.7243 14.7603 23.6982 14.7421 23.6683C14.724 23.6383 14.7119 23.605 14.7066 23.5704C14.7014 23.5357 14.7029 23.5004 14.7113 23.4664C14.7197 23.4324 14.7347 23.4003 14.7554 23.3721C14.7762 23.3439 14.8023 23.32 14.8323 23.3019L16.1656 22.4581L14.34 23.5131C14.28 23.5466 14.2094 23.5557 14.1429 23.5384C14.0763 23.5212 14.0191 23.4789 13.9829 23.4204C13.9468 23.362 13.9347 23.2918 13.949 23.2246C13.9634 23.1574 14.0031 23.0983 14.06 23.0597L19.8733 19.2272L12.5571 23.4512C12.4969 23.4848 12.4262 23.4938 12.3595 23.4764C12.2929 23.459 12.2356 23.4164 12.1996 23.3577C12.1636 23.299 12.1518 23.2286 12.1665 23.1613C12.1812 23.0941 12.2214 23.0351 12.2787 22.9968L19.4083 18.3669L11.4979 22.9333C11.4377 22.9664 11.3671 22.975 11.3007 22.9573C11.2344 22.9397 11.1774 22.8971 11.1417 22.8385C11.1059 22.7798 11.0942 22.7097 11.1089 22.6426C11.1236 22.5755 11.1636 22.5167 11.2205 22.4784L18.7933 17.6L10.8163 22.2075C10.7557 22.2424 10.6839 22.2521 10.6162 22.2346C10.5486 22.2171 10.4905 22.1737 10.4545 22.1138C10.4185 22.0539 10.4074 21.9822 10.4237 21.9143C10.44 21.8463 10.4823 21.7875 10.5416 21.7504L15.0163 18.952L10.196 21.7349C10.1354 21.769 10.0639 21.7782 9.9967 21.7603C9.92949 21.7425 9.87191 21.6991 9.83623 21.6394C9.80055 21.5798 9.78959 21.5085 9.80568 21.4409C9.82178 21.3732 9.86366 21.3145 9.9224 21.2773L12.3224 19.7936L9.46106 21.4469C9.40052 21.4818 9.32868 21.4916 9.26102 21.4741C9.19336 21.4565 9.13529 21.4132 9.09929 21.3533C9.06329 21.2934 9.05224 21.2217 9.06854 21.1537C9.08483 21.0858 9.12715 21.0269 9.1864 20.9899L13.86 18.08L8.68666 21.0667C8.62639 21.1003 8.55541 21.1093 8.48864 21.0918C8.42187 21.0742 8.36453 21.0314 8.32867 20.9724C8.29281 20.9134 8.28123 20.8428 8.29638 20.7754C8.31152 20.708 8.3522 20.6492 8.40986 20.6112L17.2909 14.9419L7.9784 20.3162C7.91789 20.3491 7.84705 20.3572 7.78068 20.339C7.71431 20.3208 7.65756 20.2776 7.62229 20.2185C7.58702 20.1594 7.57597 20.0889 7.59145 20.0219C7.60692 19.9548 7.64773 19.8963 7.70533 19.8587L12.3987 16.9557L7.68933 19.6757C7.62879 19.7123 7.5562 19.7233 7.48754 19.7063C7.41888 19.6894 7.35976 19.6459 7.3232 19.5853C7.28663 19.5248 7.27562 19.4522 7.29257 19.3835C7.30952 19.3149 7.35306 19.2557 7.4136 19.2192L15.5027 14.1093L7.33093 18.8267C7.27046 18.8634 7.19789 18.8745 7.12917 18.8577C7.06046 18.8409 7.00124 18.7975 6.96453 18.7371C6.92782 18.6766 6.91664 18.604 6.93345 18.5353C6.95025 18.4666 6.99366 18.4074 7.05413 18.3707L15.9608 12.6864L6.63813 18.0672C6.5778 18.0976 6.5082 18.1039 6.44337 18.085C6.37855 18.066 6.32333 18.0231 6.28887 17.9651C6.25441 17.907 6.24327 17.838 6.25771 17.772C6.27215 17.706 6.31109 17.648 6.36666 17.6096L10.1725 15.2629L6.15333 17.5787C6.09317 17.6058 6.02507 17.6097 5.9622 17.5896C5.89932 17.5695 5.84615 17.5268 5.81297 17.4697C5.77979 17.4126 5.76896 17.3453 5.78257 17.2807C5.79618 17.2161 5.83327 17.1588 5.88666 17.12L5.99333 17.0549L5.87706 17.1216C5.81668 17.1561 5.74521 17.1656 5.67788 17.1482C5.61056 17.1308 5.55271 17.0877 5.51668 17.0282C5.48064 16.9688 5.46927 16.8976 5.48498 16.8298C5.5007 16.7621 5.54226 16.7031 5.6008 16.6656L14.6099 10.9333L5.61093 16.1275C5.58099 16.1457 5.54775 16.1578 5.51312 16.1632C5.47849 16.1685 5.44314 16.167 5.4091 16.1587C5.37505 16.1504 5.34297 16.1355 5.31469 16.1148C5.2864 16.0941 5.26247 16.0681 5.24426 16.0381C5.22605 16.0082 5.21392 15.9749 5.20855 15.9403C5.20319 15.9057 5.2047 15.8703 5.21299 15.8363C5.22129 15.8022 5.23621 15.7702 5.2569 15.7419C5.27759 15.7136 5.30366 15.6897 5.3336 15.6715L14.3352 9.91998L5.64186 14.9408C5.58128 14.9749 5.50977 14.984 5.44257 14.9662C5.37536 14.9484 5.31778 14.905 5.2821 14.8453C5.24642 14.7856 5.23546 14.7144 5.25155 14.6467C5.26765 14.5791 5.30953 14.5204 5.36826 14.4832L8.22 12.7232L5.4904 14.2997C5.42994 14.333 5.35892 14.3416 5.29228 14.3236C5.22564 14.3056 5.16856 14.2625 5.13306 14.2033C5.09756 14.1441 5.08639 14.0734 5.10191 14.0062C5.11743 13.9389 5.15842 13.8803 5.21626 13.8427L9.396 11.2384L5.18906 13.6672C5.12867 13.704 5.0561 13.7154 4.98734 13.6987C4.91858 13.6821 4.85925 13.6388 4.8224 13.5784C4.78555 13.518 4.77421 13.4454 4.79086 13.3767C4.80751 13.3079 4.8508 13.2486 4.9112 13.2117L12.5336 8.31998L4.92666 12.7104C4.8662 12.7471 4.79362 12.7583 4.72491 12.7415C4.65619 12.7247 4.59697 12.6813 4.56026 12.6208C4.52356 12.5603 4.51238 12.4877 4.52918 12.419C4.54598 12.3503 4.5894 12.2911 4.64986 12.2544L11.1667 8.10345L5.0648 11.6267C5.00433 11.6634 4.93173 11.6747 4.86296 11.6579C4.7942 11.6412 4.73491 11.5978 4.69813 11.5373C4.66135 11.4768 4.65011 11.4042 4.66686 11.3355C4.68361 11.2667 4.72699 11.2074 4.78746 11.1707L10.5715 7.47412L5.5928 10.3467C5.53245 10.382 5.46062 10.3923 5.3928 10.3752C5.32497 10.3581 5.26658 10.315 5.2302 10.2553C5.19383 10.1955 5.18238 10.1239 5.19833 10.0558C5.21428 9.98767 5.25634 9.92856 5.31546 9.89118L9.24293 7.37918L5.6344 9.46238C5.57417 9.49667 5.50296 9.50616 5.43586 9.48884C5.36876 9.47153 5.31103 9.42877 5.2749 9.36963C5.23878 9.31049 5.2271 9.23961 5.24234 9.172C5.25757 9.1044 5.29853 9.04538 5.35653 9.00745L8.87653 6.73758L5.64026 8.60425C5.58011 8.64027 5.50819 8.65116 5.44007 8.63454C5.37195 8.61793 5.31312 8.57516 5.2763 8.51548C5.23949 8.45581 5.22766 8.38404 5.24337 8.31571C5.25909 8.24738 5.30108 8.18798 5.36026 8.15038L9.38906 5.50345L6.21573 7.33545C6.15602 7.37083 6.08488 7.38154 6.0174 7.36531C5.94992 7.34907 5.89143 7.30717 5.85436 7.2485C5.81728 7.18983 5.80454 7.11902 5.81884 7.0511C5.83313 6.98319 5.87335 6.92352 5.93093 6.88478L9.19866 4.63465L7.61306 5.54985C7.55484 5.58421 7.48575 5.59517 7.41975 5.58052C7.35375 5.56587 7.29579 5.5267 7.25757 5.47093C7.21936 5.41517 7.20375 5.34697 7.2139 5.28014C7.22405 5.2133 7.25921 5.15282 7.31226 5.11092L10.8365 2.28105C10.8311 2.274 10.8263 2.2665 10.8221 2.25865C10.7868 2.1974 10.7772 2.12462 10.7955 2.0563C10.8138 1.98799 10.8585 1.92975 10.9197 1.89438L12.3539 1.06665C12.4121 1.03299 12.4808 1.02255 12.5464 1.03744C12.612 1.05232 12.6695 1.09143 12.7075 1.14692C12.7454 1.20242 12.761 1.27021 12.7511 1.33672C12.7413 1.40322 12.7066 1.46354 12.6541 1.50558L10.3608 3.34932L14.7075 0.842651C14.767 0.809014 14.8373 0.799558 14.9036 0.816241C14.9699 0.832923 15.0273 0.874466 15.0639 0.932279C15.1005 0.990091 15.1135 1.05975 15.1001 1.12685C15.0868 1.19395 15.0482 1.25336 14.9923 1.29278L11.7235 3.54185L17.1155 0.426651C17.1756 0.390627 17.2475 0.379745 17.3157 0.396358C17.3838 0.412972 17.4426 0.455746 17.4794 0.515419C17.5162 0.575092 17.5281 0.646863 17.5124 0.715195C17.4966 0.783526 17.4546 0.84292 17.3955 0.880517L13.3677 3.52905L18.0269 0.838917C18.0873 0.80207 18.1599 0.790725 18.2287 0.807378C18.2974 0.824031 18.3567 0.867319 18.3936 0.927717C18.4304 0.988116 18.4418 1.06068 18.4251 1.12944C18.4085 1.19821 18.3652 1.25754 18.3048 1.29438L14.7848 3.56425L19.1293 1.05758C19.1896 1.0239 19.2606 1.0149 19.3273 1.03248C19.3941 1.05006 19.4515 1.09286 19.4873 1.15186C19.5232 1.21087 19.5348 1.28148 19.5196 1.34884C19.5045 1.41621 19.4638 1.47507 19.4061 1.51305L15.4803 4.02238L20.5347 1.10398C20.595 1.06862 20.6668 1.05838 20.7347 1.07547C20.8025 1.09257 20.8609 1.13563 20.8973 1.19537C20.9336 1.25511 20.9451 1.32675 20.9291 1.39486C20.9132 1.46296 20.8711 1.52207 20.812 1.55945L15.0243 5.25865L21.4424 1.55358C21.5028 1.51908 21.5742 1.50952 21.6416 1.52696C21.7089 1.5444 21.7667 1.58745 21.8028 1.64693C21.8388 1.70641 21.8502 1.77762 21.8345 1.84537C21.8188 1.91311 21.7772 1.97204 21.7187 2.00958L15.2067 6.15945L22.0696 2.19732C22.13 2.16047 22.2026 2.14912 22.2713 2.16578C22.3401 2.18243 22.3994 2.22572 22.4363 2.28612C22.4731 2.34652 22.4845 2.41908 22.4678 2.48784C22.4511 2.55661 22.4079 2.61594 22.3475 2.65278L14.7261 7.54505L22.8755 2.83998C22.936 2.80507 23.0078 2.79533 23.0755 2.81284C23.1432 2.83036 23.2012 2.87374 23.2372 2.93364C23.2732 2.99355 23.2843 3.06519 23.268 3.13316C23.2517 3.20112 23.2094 3.25998 23.1501 3.29705L18.9709 5.90078L23.7325 3.15198C23.793 3.11918 23.8639 3.11103 23.9302 3.12925C23.9966 3.14748 24.0534 3.19065 24.0886 3.24976C24.1239 3.30886 24.135 3.37931 24.1195 3.44637C24.104 3.51343 24.0632 3.57191 24.0056 3.60958L21.1491 5.37225L24.372 3.51145C24.4325 3.47474 24.505 3.46356 24.5737 3.48037C24.6425 3.49717 24.7017 3.54058 24.7384 3.60105C24.7751 3.66152 24.7863 3.73409 24.7695 3.80281C24.7527 3.87152 24.7093 3.93074 24.6488 3.96745L15.6467 9.71625L25.0595 4.28265C25.1198 4.24814 25.1913 4.23859 25.2586 4.25603C25.326 4.27347 25.3838 4.31652 25.4198 4.376C25.4559 4.43548 25.4673 4.50669 25.4515 4.57443C25.4358 4.64218 25.3943 4.70111 25.3357 4.73865L16.3224 10.4736L25.428 5.21705C25.4887 5.18243 25.5607 5.17306 25.6283 5.19095C25.6959 5.20885 25.7537 5.25258 25.7894 5.31272C25.8251 5.37286 25.8357 5.44461 25.8189 5.51251C25.8022 5.5804 25.7595 5.63901 25.7 5.67572L25.5869 5.74452L25.6648 5.69972C25.7253 5.66691 25.7961 5.65877 25.8625 5.67699C25.9289 5.69521 25.9856 5.73839 26.0209 5.79749C26.0562 5.85659 26.0672 5.92704 26.0517 5.9941C26.0363 6.06117 25.9955 6.11965 25.9379 6.15732L22.1379 8.50398L26.0845 6.22665C26.1447 6.19402 26.2152 6.18581 26.2813 6.20371C26.3474 6.22161 26.4041 6.26425 26.4396 6.32281C26.4751 6.38136 26.4867 6.45133 26.4721 6.51822C26.4574 6.58511 26.4175 6.6438 26.3608 6.68212L17.4557 12.3637L26.8381 6.94612C26.8985 6.91226 26.9698 6.90324 27.0367 6.92097C27.1037 6.93869 27.1611 6.98177 27.1969 7.04109C27.2326 7.1004 27.2439 7.1713 27.2283 7.23878C27.2127 7.30626 27.1715 7.36503 27.1133 7.40265L19.0221 12.5141L27.2648 7.75572C27.3253 7.72291 27.3961 7.71477 27.4625 7.73299C27.5289 7.75121 27.5856 7.79439 27.6209 7.85349C27.6562 7.91259 27.6672 7.98304 27.6517 8.0501C27.6363 8.11717 27.5955 8.17565 27.5379 8.21332L22.8376 11.1221L27.3912 8.49278C27.4516 8.45828 27.523 8.44872 27.5904 8.46616C27.6577 8.4836 27.7155 8.52665 27.7516 8.58613C27.7876 8.64561 27.799 8.71682 27.7833 8.78457C27.7676 8.85231 27.726 8.91124 27.6675 8.94878L18.7896 14.616L27.3709 9.66185C27.4314 9.62855 27.5024 9.61999 27.569 9.63797C27.6357 9.65596 27.6928 9.69908 27.7283 9.75827C27.7638 9.81747 27.7749 9.88812 27.7594 9.95538C27.7439 10.0226 27.7029 10.0813 27.6451 10.1189L22.9715 13.0309L27.5645 10.3787C27.6251 10.3445 27.6966 10.3354 27.7638 10.3532C27.831 10.3711 27.8886 10.4145 27.9243 10.4741C27.96 10.5338 27.9709 10.6051 27.9548 10.6727C27.9387 10.7404 27.8969 10.799 27.8381 10.8363L25.4381 12.32L27.8451 10.9301C27.9055 10.8968 27.9765 10.8883 28.0432 10.9062C28.1098 10.9242 28.1669 10.9673 28.2024 11.0265C28.2379 11.0857 28.2491 11.1564 28.2335 11.2236C28.218 11.2909 28.177 11.3495 28.1192 11.3872L23.6467 14.1867L28.0509 11.6437C28.1112 11.6094 28.1824 11.5999 28.2495 11.6173C28.3166 11.6346 28.3743 11.6773 28.4104 11.7365C28.4465 11.7956 28.4582 11.8665 28.443 11.9341C28.4277 12.0017 28.3868 12.0607 28.3288 12.0987L20.7512 16.9755L27.9667 12.8096C28.0268 12.776 28.0976 12.767 28.1642 12.7844C28.2308 12.8018 28.2881 12.8443 28.3241 12.9031C28.3601 12.9618 28.372 13.0322 28.3572 13.0994C28.3425 13.1667 28.3023 13.2257 28.2451 13.264L21.1171 17.8928L27.3907 14.2709C27.4506 14.2374 27.5213 14.2283 27.5878 14.2455C27.6543 14.2628 27.7116 14.305 27.7477 14.3635C27.7838 14.422 27.796 14.4921 27.7816 14.5594C27.7673 14.6266 27.7275 14.6856 27.6707 14.7243L21.8621 18.5547L27.3901 15.3627C27.4507 15.326 27.5233 15.3149 27.592 15.3318C27.6607 15.3487 27.7199 15.3922 27.7565 15.4528C27.7932 15.5133 27.8042 15.5859 27.7873 15.6547C27.7704 15.7234 27.7269 15.7825 27.6664 15.8192L26.324 16.6677L27.3267 16.0891C27.3869 16.0568 27.4572 16.049 27.5231 16.0671C27.589 16.0852 27.6454 16.128 27.6807 16.1864C27.716 16.2449 27.7275 16.3147 27.7128 16.3815C27.6981 16.4482 27.6584 16.5068 27.6019 16.5451L27.0221 16.912C27.0836 16.8918 27.1504 16.8946 27.21 16.92C27.2695 16.9454 27.3178 16.9916 27.3459 17.0499C27.3739 17.1083 27.3797 17.1749 27.3622 17.2372C27.3447 17.2996 27.3052 17.3535 27.2509 17.3888L25.7491 18.3541C25.809 18.3452 25.8701 18.3569 25.9225 18.3873C25.9749 18.4178 26.0153 18.4652 26.0371 18.5217C26.059 18.5781 26.061 18.6404 26.0427 18.6982C26.0245 18.7559 25.9871 18.8058 25.9368 18.8395L25.4525 19.1621C25.508 19.1623 25.5621 19.1798 25.6072 19.2122C25.6523 19.2446 25.6862 19.2902 25.7041 19.3428C25.722 19.3953 25.7231 19.4522 25.7071 19.5053C25.6912 19.5585 25.6591 19.6054 25.6152 19.6395L22.1837 22.2848C22.2153 22.3457 22.2223 22.4164 22.2031 22.4822C22.1839 22.5481 22.1401 22.604 22.0808 22.6384L20.6467 23.4667C20.5882 23.4994 20.5195 23.5089 20.4543 23.4933C20.3891 23.4777 20.3322 23.4381 20.2949 23.3825C20.2575 23.3268 20.2426 23.2591 20.2529 23.1928C20.2632 23.1266 20.2981 23.0667 20.3507 23.0251L22.1203 21.6603L18.9053 23.5163C18.8453 23.5519 18.7738 23.5626 18.706 23.5461C18.6382 23.5295 18.5795 23.4871 18.5427 23.4278C18.5058 23.3686 18.4937 23.2972 18.5088 23.2291C18.524 23.161 18.5652 23.1015 18.6237 23.0635L18.6397 23.0533L16.6275 24.2133C16.5871 24.2373 16.5411 24.2502 16.4941 24.2507Z" fill="#5BBAB7"/>
    <path d="M15.9544 21.5669C15.8971 21.567 15.8414 21.5486 15.7953 21.5146C15.7493 21.4805 15.7155 21.4325 15.6989 21.3777C15.6823 21.3229 15.6837 21.2642 15.703 21.2103C15.7223 21.1564 15.7585 21.1102 15.8061 21.0784L18.0376 19.5904L14.9293 21.3867C14.8995 21.4051 14.8664 21.4175 14.8319 21.4232C14.7973 21.4288 14.762 21.4276 14.7279 21.4196C14.6938 21.4116 14.6616 21.397 14.6331 21.3766C14.6047 21.3561 14.5806 21.3303 14.5621 21.3005C14.5437 21.2708 14.5312 21.2376 14.5256 21.2031C14.5199 21.1685 14.5211 21.1332 14.5291 21.0991C14.5371 21.065 14.5518 21.0328 14.5722 21.0044C14.5926 20.9759 14.6185 20.9518 14.6482 20.9333L18.0045 18.7088L13.8472 21.1088C13.7874 21.1432 13.7167 21.1532 13.6498 21.1366C13.5828 21.12 13.525 21.0781 13.4882 21.0197C13.4515 20.9612 13.4389 20.8906 13.4531 20.823C13.4673 20.7553 13.5073 20.6958 13.5645 20.6571L19.2941 16.768L12.6306 20.6155C12.5704 20.6481 12.5 20.6563 12.4339 20.6384C12.3678 20.6205 12.3111 20.5779 12.2756 20.5193C12.2401 20.4608 12.2284 20.3908 12.2431 20.3239C12.2578 20.257 12.2976 20.1983 12.3544 20.16L14.8077 18.6L11.9586 20.2453C11.8987 20.2789 11.8281 20.288 11.7615 20.2707C11.695 20.2535 11.6377 20.2112 11.6016 20.1527C11.5655 20.0943 11.5533 20.0241 11.5677 19.9569C11.582 19.8897 11.6218 19.8306 11.6786 19.792L17.8434 15.7253L11.0701 19.6352C11.01 19.6678 10.9398 19.6761 10.8737 19.6584C10.8077 19.6406 10.7511 19.5983 10.7154 19.5399C10.6797 19.4816 10.6678 19.4119 10.6821 19.345C10.6964 19.2782 10.7359 19.2194 10.7922 19.1808L16.0984 15.7563L10.3954 19.0491C10.3655 19.0672 10.3323 19.0793 10.2977 19.0847C10.263 19.09 10.2277 19.0885 10.1937 19.0801C10.1597 19.0718 10.1276 19.0569 10.0994 19.0362C10.0711 19.0155 10.0472 18.9894 10.029 18.9595C10.0109 18.9295 9.99878 18.8963 9.99344 18.8617C9.98811 18.8271 9.98965 18.7917 9.99797 18.7577C10.0063 18.7237 10.0212 18.6916 10.0419 18.6634C10.0626 18.6351 10.0887 18.6112 10.1186 18.5931L14.3714 15.8901L9.85732 18.4965C9.79685 18.5332 9.72427 18.5444 9.65556 18.5276C9.58685 18.5108 9.52762 18.4674 9.49092 18.4069C9.45421 18.3465 9.44303 18.2739 9.45983 18.2052C9.47664 18.1365 9.52005 18.0772 9.58052 18.0405L14.0642 15.1915L9.37518 17.8992C9.3151 17.9333 9.24411 17.9428 9.17717 17.9257C9.11022 17.9085 9.05255 17.866 9.01632 17.8072C8.98008 17.7483 8.96811 17.6777 8.98292 17.6102C8.99773 17.5427 9.03817 17.4836 9.09572 17.4453L16.1981 12.8L8.81625 17.0613C8.75613 17.0949 8.68534 17.1039 8.61871 17.0865C8.55208 17.0691 8.49478 17.0266 8.4588 16.9678C8.42282 16.9091 8.41095 16.8388 8.42569 16.7715C8.44042 16.7042 8.48062 16.6452 8.53785 16.6069L14.7512 12.5936L8.40452 16.2581C8.3441 16.292 8.27288 16.301 8.20592 16.2833C8.13897 16.2656 8.08154 16.2225 8.04579 16.1632C8.01003 16.1038 7.99876 16.0329 8.01435 15.9655C8.02994 15.898 8.07117 15.8392 8.12932 15.8016L11.8418 13.4587L8.13145 15.6011C8.0711 15.6364 7.99928 15.6467 7.93145 15.6296C7.86363 15.6125 7.80523 15.5694 7.76886 15.5097C7.73248 15.4499 7.72103 15.3783 7.73698 15.3102C7.75293 15.2421 7.795 15.183 7.85412 15.1456L12.9618 11.8747L7.88452 14.808C7.82419 14.8449 7.75167 14.8564 7.6829 14.8398C7.61414 14.8232 7.55477 14.7801 7.51785 14.7197C7.48093 14.6594 7.46949 14.5869 7.48605 14.5181C7.5026 14.4494 7.54579 14.39 7.60612 14.3531L13.1597 10.7621L7.69572 13.9141C7.63537 13.9495 7.56355 13.9597 7.49572 13.9426C7.42789 13.9255 7.3695 13.8825 7.33312 13.8227C7.29675 13.763 7.2853 13.6914 7.30125 13.6233C7.3172 13.5552 7.35926 13.496 7.41838 13.4587L11.9922 10.5173L7.59972 13.0533C7.5396 13.0869 7.46881 13.096 7.40218 13.0785C7.33555 13.0611 7.27824 13.0186 7.24226 12.9598C7.20629 12.9011 7.19442 12.8308 7.20916 12.7635C7.22389 12.6962 7.26409 12.6372 7.32132 12.5989L12.2136 9.4112L7.59492 12.0779C7.53507 12.1133 7.46373 12.124 7.39613 12.1076C7.32852 12.0912 7.27 12.049 7.23305 11.9901C7.1961 11.9311 7.18364 11.8601 7.19834 11.7921C7.21304 11.7241 7.25372 11.6645 7.31172 11.6261L13.2274 7.61173L7.74958 10.7733C7.68983 10.808 7.61896 10.8181 7.55188 10.8016C7.4848 10.7851 7.42677 10.7431 7.38999 10.6846C7.35321 10.6262 7.34057 10.5557 7.35472 10.4881C7.36887 10.4204 7.40871 10.361 7.46585 10.3221L12.2029 7.0816L8.11065 9.44533C8.05061 9.48014 7.97937 9.49017 7.91205 9.4733C7.84474 9.45642 7.78665 9.41397 7.75013 9.35496C7.71361 9.29595 7.70154 9.22502 7.71648 9.15725C7.73141 9.08948 7.77218 9.03019 7.83012 8.992L9.42478 7.93973L8.53412 8.4544C8.47408 8.48921 8.40284 8.49924 8.33552 8.48237C8.26821 8.46549 8.21012 8.42304 8.1736 8.36403C8.13708 8.30501 8.12501 8.23409 8.13994 8.16631C8.15488 8.09854 8.19564 8.03926 8.25358 8.00106L8.98532 7.51573C8.93916 7.51696 8.89338 7.50704 8.85188 7.4868C8.81037 7.46656 8.77437 7.4366 8.74692 7.39946C8.70872 7.3439 8.69298 7.27594 8.70287 7.20924C8.71277 7.14254 8.74756 7.08207 8.80025 7.04L10.6749 5.5616C10.6212 5.55122 10.5719 5.52455 10.5339 5.48523C10.4958 5.4459 10.4708 5.39582 10.4622 5.34177C10.4535 5.28772 10.4618 5.23233 10.4857 5.18312C10.5096 5.1339 10.5481 5.09324 10.596 5.06666L13.2466 3.53973C13.3051 3.50539 13.3744 3.49457 13.4405 3.50947C13.5066 3.52437 13.5645 3.56388 13.6025 3.61997C13.6406 3.67605 13.6558 3.74451 13.6452 3.81143C13.6345 3.87835 13.5988 3.93872 13.5453 3.98026L12.0312 5.17333L15.7869 3.0048C15.8469 2.96999 15.9182 2.95995 15.9855 2.97683C16.0528 2.9937 16.1109 3.03616 16.1474 3.09517C16.1839 3.15418 16.196 3.22511 16.1811 3.29288C16.1662 3.36065 16.1254 3.41993 16.0674 3.45813L15.7058 3.69866L16.9112 3.00213C16.9714 2.96493 17.0439 2.95316 17.1127 2.96942C17.1816 2.98567 17.2412 3.02861 17.2784 3.0888C17.3156 3.14898 17.3273 3.22148 17.3111 3.29035C17.2948 3.35921 17.2519 3.4188 17.1917 3.456L15.5965 4.50773L17.9821 3.13013C18.0418 3.09603 18.1123 3.08627 18.179 3.1029C18.2456 3.11953 18.3033 3.16125 18.34 3.21938C18.3767 3.2775 18.3895 3.34753 18.3757 3.41487C18.362 3.4822 18.3229 3.54165 18.2664 3.5808L13.5277 6.8224L19.3176 3.47946C19.3774 3.444 19.4488 3.43334 19.5164 3.44973C19.584 3.46613 19.6425 3.5083 19.6794 3.56724C19.7164 3.62618 19.7288 3.69723 19.7142 3.76522C19.6995 3.83322 19.6588 3.89278 19.6008 3.9312L13.6861 7.94666L20.5234 4C20.5836 3.96641 20.6544 3.95738 20.721 3.9748C20.7876 3.99223 20.8449 4.03475 20.8809 4.09348C20.9169 4.1522 20.9287 4.22257 20.914 4.28985C20.8993 4.35712 20.8591 4.41609 20.8018 4.4544L15.9101 7.64213L21.3634 4.49546C21.4237 4.46118 21.4949 4.45169 21.562 4.469C21.6291 4.48632 21.6868 4.52907 21.7229 4.58822C21.7591 4.64736 21.7707 4.71824 21.7555 4.78585C21.7403 4.85345 21.6993 4.91247 21.6413 4.9504L17.0637 7.89493L22.06 5.01013C22.1202 4.97585 22.1914 4.96636 22.2585 4.98367C22.3256 5.00098 22.3833 5.04374 22.4195 5.10288C22.4556 5.16202 22.4673 5.23291 22.452 5.30051C22.4368 5.36812 22.3958 5.42713 22.3378 5.46506L16.788 9.04853L22.74 5.61173C22.8003 5.57637 22.8721 5.56613 22.94 5.58322C23.0078 5.60031 23.0662 5.64337 23.1026 5.70311C23.1389 5.76286 23.1504 5.8345 23.1344 5.9026C23.1185 5.97071 23.0764 6.02982 23.0173 6.0672L17.9064 9.34026L23.3005 6.2256C23.361 6.18903 23.4336 6.17801 23.5023 6.19497C23.571 6.21192 23.6301 6.25546 23.6666 6.316C23.7032 6.37654 23.7142 6.44912 23.6973 6.51779C23.6803 6.58645 23.6368 6.64557 23.5762 6.68213L19.8664 9.02346L23.7362 6.7888C23.7966 6.75188 23.8692 6.74047 23.938 6.75707C24.0069 6.77367 24.0663 6.81693 24.1032 6.87733C24.1401 6.93773 24.1515 7.01032 24.1349 7.07913C24.1183 7.14795 24.075 7.20735 24.0146 7.24426L17.8002 11.2581L24.2253 7.5488C24.2854 7.51464 24.3564 7.50514 24.4233 7.52231C24.4903 7.53947 24.5479 7.58195 24.5842 7.6408C24.6204 7.69965 24.6324 7.77027 24.6176 7.83777C24.6028 7.90527 24.5623 7.96439 24.5048 8.00266L17.4066 12.6475L24.6792 8.44853C24.7091 8.43035 24.7423 8.41825 24.777 8.41292C24.8116 8.40759 24.8469 8.40913 24.8809 8.41745C24.915 8.42577 24.947 8.44071 24.9753 8.46141C25.0035 8.48212 25.0274 8.50819 25.0456 8.53813C25.0637 8.56807 25.0758 8.6013 25.0812 8.63592C25.0865 8.67053 25.085 8.70586 25.0767 8.73989C25.0683 8.77391 25.0534 8.80596 25.0327 8.83421C25.012 8.86246 24.9859 8.88635 24.956 8.90453L20.4728 11.7531L24.9528 9.16693C25.0132 9.13242 25.0846 9.12287 25.152 9.14031C25.2193 9.15775 25.2771 9.2008 25.3132 9.26028C25.3492 9.31976 25.3606 9.39096 25.3449 9.45871C25.3291 9.52646 25.2876 9.58539 25.229 9.62293L20.9704 12.3296L25.1672 9.90666C25.2275 9.86974 25.3 9.8583 25.3688 9.87486C25.4375 9.89141 25.4969 9.9346 25.5338 9.99493C25.5708 10.0553 25.5822 10.1278 25.5656 10.1965C25.5491 10.2653 25.5059 10.3247 25.4456 10.3616L20.14 13.7851L25.332 10.7877C25.3921 10.7517 25.464 10.7408 25.5322 10.7574C25.6003 10.7741 25.6591 10.8168 25.6959 10.8765C25.7327 10.9362 25.7446 11.0079 25.7289 11.0763C25.7131 11.1446 25.6712 11.204 25.612 11.2416L19.4445 15.3067L25.4125 11.8613C25.4729 11.8268 25.5444 11.8173 25.6117 11.8347C25.679 11.8521 25.7369 11.8952 25.7729 11.9547C25.8089 12.0142 25.8203 12.0854 25.8046 12.1531C25.7889 12.2209 25.7473 12.2798 25.6888 12.3173L23.2392 13.8741L25.3965 12.6283C25.4563 12.5942 25.527 12.5845 25.5937 12.6014C25.6604 12.6182 25.7181 12.6601 25.7546 12.7185C25.7911 12.7768 25.8036 12.847 25.7896 12.9144C25.7755 12.9818 25.736 13.0411 25.6792 13.08L19.9469 16.9701L25.2157 13.9301C25.2757 13.8953 25.347 13.8853 25.4143 13.9022C25.4816 13.919 25.5397 13.9615 25.5762 14.0205C25.6127 14.0795 25.6248 14.1504 25.6099 14.2182C25.5949 14.286 25.5542 14.3453 25.4962 14.3835L22.1416 16.6069L24.9149 15.0037C24.975 14.9664 25.0475 14.9545 25.1164 14.9706C25.1853 14.9867 25.245 15.0295 25.2824 15.0896C25.3197 15.1497 25.3316 15.2222 25.3155 15.2911C25.2994 15.36 25.2566 15.4197 25.1965 15.4571L22.9608 16.9504L24.4637 16.0827C24.5235 16.048 24.5943 16.0378 24.6614 16.0544C24.7285 16.0709 24.7865 16.1129 24.8233 16.1713C24.8601 16.2298 24.8727 16.3003 24.8586 16.3679C24.8444 16.4355 24.8046 16.495 24.7474 16.5339L23.2786 17.5376L23.7485 17.2667C23.8071 17.2337 23.8759 17.2241 23.9413 17.2397C24.0066 17.2553 24.0637 17.295 24.101 17.3509C24.1383 17.4068 24.1532 17.4747 24.1426 17.541C24.1321 17.6074 24.0968 17.6673 24.044 17.7088L22.3746 18.9867C22.4202 19.006 22.4596 19.0377 22.4882 19.0782C22.5168 19.1186 22.5335 19.1663 22.5366 19.2157C22.5396 19.2652 22.5288 19.3145 22.5054 19.3582C22.482 19.4018 22.4469 19.4381 22.404 19.4629L19.7533 20.9931C19.6947 21.0267 19.6256 21.0368 19.5598 21.0214C19.494 21.006 19.4365 20.9663 19.399 20.9101C19.3614 20.854 19.3465 20.7857 19.3573 20.719C19.3682 20.6524 19.4039 20.5923 19.4573 20.5509L20.4861 19.7621L17.4642 21.5061C17.4046 21.5393 17.3346 21.5483 17.2685 21.5314C17.2024 21.5145 17.1453 21.4729 17.109 21.4152C17.0726 21.3574 17.0598 21.288 17.0731 21.2211C17.0864 21.1541 17.1248 21.0949 17.1805 21.0555L18.653 20.0496L16.0856 21.5312C16.0457 21.5542 16.0005 21.5666 15.9544 21.5669Z" fill="#89D3CE"/>
    <path d="M19.9667 16.2507C19.908 16.2507 19.8509 16.2313 19.8043 16.1955C19.7578 16.1598 19.7243 16.1097 19.7091 16.053C19.6939 15.9963 19.6978 15.9362 19.7203 15.8819C19.7428 15.8277 19.7825 15.7824 19.8333 15.7531L21.0968 15.0235C21.158 14.9887 21.2305 14.9795 21.2985 14.9979C21.3664 15.0164 21.4243 15.061 21.4595 15.1219C21.4947 15.1829 21.5044 15.2554 21.4864 15.3234C21.4684 15.3915 21.4242 15.4497 21.3635 15.4853L20.1 16.2133C20.0597 16.2374 20.0136 16.2503 19.9667 16.2507Z" fill="#FCE3D2"/>
    <path d="M20.5 14.1173C20.4413 14.1173 20.3842 14.098 20.3377 14.0622C20.2911 14.0265 20.2576 13.9764 20.2424 13.9197C20.2272 13.863 20.2312 13.8029 20.2536 13.7486C20.2761 13.6944 20.3158 13.6491 20.3667 13.6197L21.6301 12.8901C21.6913 12.8553 21.7638 12.8462 21.8318 12.8646C21.8997 12.8831 21.9576 12.9276 21.9929 12.9886C22.0281 13.0496 22.0377 13.122 22.0197 13.1901C22.0017 13.2582 21.9575 13.3164 21.8968 13.352L20.6333 14.08C20.593 14.1041 20.547 14.117 20.5 14.1173Z" fill="#FCE3D2"/>
    <path d="M17.5069 18.384C17.4524 18.3841 17.3991 18.3675 17.3543 18.3364C17.3095 18.3052 17.2753 18.2611 17.2563 18.21C17.2374 18.1588 17.2346 18.103 17.2483 18.0502C17.262 17.9974 17.2916 17.9501 17.3331 17.9147L17.5533 17.7269L16.6013 18.2763C16.5431 18.3095 16.4745 18.3195 16.4091 18.3044C16.3438 18.2893 16.2866 18.2501 16.2488 18.1947C16.2111 18.1392 16.1956 18.0716 16.2055 18.0053C16.2154 17.939 16.2499 17.8788 16.3021 17.8368L18.1533 16.3621L15.6067 17.8325C15.5478 17.8665 15.4782 17.8767 15.4121 17.8611C15.346 17.8455 15.2883 17.8052 15.2509 17.7485C15.2134 17.6918 15.199 17.6229 15.2106 17.556C15.2223 17.489 15.259 17.429 15.3133 17.3883L16.7037 16.3451L14.8029 17.44C14.7435 17.4737 14.6734 17.4833 14.6071 17.4669C14.5407 17.4504 14.4833 17.4091 14.4465 17.3514C14.4098 17.2938 14.3966 17.2243 14.4096 17.1572C14.4226 17.0901 14.4609 17.0306 14.5165 16.9909L16.5693 15.5509L13.5715 17.2816C13.5122 17.3154 13.4421 17.3252 13.3758 17.3089C13.3095 17.2927 13.252 17.2516 13.215 17.1942C13.1781 17.1367 13.1646 17.0673 13.1774 17.0002C13.1901 16.9331 13.2281 16.8735 13.2835 16.8336L16.1267 14.816L11.8376 17.2923C11.7775 17.3264 11.7065 17.3359 11.6396 17.3187C11.5727 17.3016 11.515 17.2591 11.4788 17.2003C11.4425 17.1414 11.4305 17.0708 11.4454 17.0033C11.4602 16.9358 11.5006 16.8767 11.5581 16.8384L13.3512 15.6613L10.7848 17.1429C10.7549 17.1612 10.7218 17.1734 10.6872 17.1789C10.6526 17.1843 10.6172 17.1829 10.5832 17.1747C10.5492 17.1665 10.5171 17.1517 10.4887 17.1311C10.4604 17.1105 10.4364 17.0845 10.4181 17.0547C10.3999 17.0248 10.3877 16.9916 10.3822 16.957C10.3767 16.9224 10.3781 16.8871 10.3863 16.853C10.3945 16.819 10.4094 16.7869 10.43 16.7586C10.4506 16.7303 10.4765 16.7063 10.5064 16.688L12.3341 15.5035L10.7827 16.3989C10.7227 16.4346 10.6511 16.4453 10.5833 16.4287C10.5155 16.4122 10.4569 16.3697 10.42 16.3105C10.3832 16.2512 10.371 16.1799 10.3862 16.1118C10.4013 16.0436 10.4426 15.9842 10.5011 15.9461L13.58 13.8848L10.7805 15.5008C10.7214 15.5344 10.6517 15.5442 10.5857 15.5281C10.5196 15.512 10.4622 15.4713 10.4251 15.4143C10.3881 15.3573 10.3742 15.2883 10.3863 15.2214C10.3985 15.1545 10.4357 15.0948 10.4904 15.0544L14.1971 12.352L10.7779 14.3253C10.7183 14.36 10.6475 14.3703 10.5805 14.3539C10.5135 14.3375 10.4555 14.2959 10.4185 14.2376C10.3816 14.1794 10.3687 14.1091 10.3825 14.0415C10.3963 13.9739 10.4357 13.9143 10.4925 13.8752L11.6205 13.0939L10.7763 13.5813C10.7165 13.616 10.6457 13.6261 10.5786 13.6096C10.5115 13.5931 10.4535 13.5511 10.4167 13.4926C10.3799 13.4342 10.3673 13.3637 10.3814 13.2961C10.3956 13.2284 10.4354 13.169 10.4925 13.1301L11.6509 12.3408L10.7741 12.8475C10.7196 12.8789 10.6556 12.89 10.5936 12.8788C10.5317 12.8676 10.4756 12.8348 10.4355 12.7862C10.3954 12.7377 10.3738 12.6765 10.3744 12.6135C10.3751 12.5505 10.3981 12.4898 10.4392 12.4421L11.0792 11.7013L10.7725 11.8784C10.7268 11.905 10.6741 11.9173 10.6213 11.9138C10.5685 11.9104 10.5179 11.8912 10.476 11.8589C10.434 11.8266 10.4027 11.7826 10.3859 11.7324C10.3691 11.6822 10.3676 11.6281 10.3816 11.5771L10.5192 11.0747C10.4716 11.0513 10.4322 11.0142 10.4061 10.968C10.3708 10.9068 10.3612 10.834 10.3795 10.7657C10.3978 10.6973 10.4425 10.6391 10.5037 10.6037L10.7704 10.4496C10.8162 10.4232 10.8688 10.411 10.9215 10.4146C10.9742 10.4181 11.0247 10.4373 11.0665 10.4695C11.1083 10.5018 11.1396 10.5458 11.1564 10.5959C11.1732 10.646 11.1747 10.7 11.1608 10.7509L11.068 11.0912L12.1805 10.4512C12.2351 10.4204 12.2987 10.4098 12.3602 10.4212C12.4218 10.4326 12.4774 10.4653 12.5173 10.5136C12.5571 10.5618 12.5788 10.6226 12.5783 10.6852C12.5779 10.7478 12.5555 10.8083 12.5149 10.856L11.8749 11.5973L17.5901 8.2976C17.6499 8.26402 17.7202 8.25471 17.7866 8.27159C17.853 8.28847 17.9103 8.33025 17.9467 8.38827C17.9831 8.44629 17.9958 8.51609 17.9822 8.58322C17.9685 8.65034 17.9295 8.70963 17.8733 8.7488L16.7133 9.53813L16.98 9.38507C17.0396 9.35143 17.1098 9.34197 17.1762 9.35866C17.2425 9.37534 17.2999 9.41688 17.3365 9.47469C17.3731 9.53251 17.386 9.60217 17.3727 9.66927C17.3593 9.73637 17.3207 9.79577 17.2648 9.8352L16.1357 10.6171L18.2691 9.38507C18.3282 9.35057 18.3984 9.34014 18.465 9.35593C18.5316 9.37172 18.5896 9.41252 18.6269 9.46989C18.6643 9.52726 18.6781 9.5968 18.6656 9.66411C18.6531 9.73142 18.6152 9.79134 18.5597 9.83147L14.852 12.5333L20.2627 9.4096C20.3225 9.37605 20.393 9.36686 20.4594 9.38393C20.5259 9.401 20.5832 9.44303 20.6195 9.50126C20.6557 9.5595 20.6681 9.62947 20.6541 9.69663C20.6401 9.76379 20.6008 9.82297 20.5443 9.86187L17.4627 11.9253L20.9896 9.88907C21.0499 9.85215 21.1225 9.84071 21.1912 9.85726C21.26 9.87381 21.3194 9.917 21.3563 9.97733C21.3932 10.0377 21.4046 10.1102 21.3881 10.1789C21.3715 10.2477 21.3283 10.3071 21.268 10.344L19.444 11.5269L21.14 10.5472C21.2002 10.5112 21.2721 10.5003 21.3402 10.5169C21.4083 10.5335 21.4672 10.5763 21.504 10.636C21.5408 10.6956 21.5526 10.7674 21.5369 10.8357C21.5212 10.9041 21.4792 10.9635 21.42 11.0011L19.6275 12.1776L20.7475 11.5317C20.8068 11.4979 20.8768 11.4881 20.9431 11.5044C21.0095 11.5206 21.067 11.5617 21.1039 11.6192C21.1409 11.6766 21.1543 11.746 21.1416 11.8131C21.1289 11.8802 21.0909 11.9398 21.0355 11.9797L18.1944 13.9995L21.5501 12.0619C21.6097 12.0265 21.6807 12.0157 21.7481 12.0317C21.8155 12.0478 21.874 12.0895 21.9112 12.1479C21.9484 12.2063 21.9615 12.2769 21.9475 12.3448C21.9336 12.4127 21.8938 12.4724 21.8365 12.5115L19.7832 13.9515L20.2744 13.6677C20.3333 13.6338 20.4029 13.6235 20.469 13.6392C20.5351 13.6548 20.5928 13.6951 20.6302 13.7518C20.6677 13.8085 20.6821 13.8773 20.6705 13.9443C20.6588 14.0112 20.6221 14.0712 20.5677 14.112L19.1811 15.1552L20.9736 14.12C21.0319 14.0868 21.1005 14.0767 21.1658 14.0918C21.2312 14.107 21.2884 14.1461 21.3261 14.2016C21.3639 14.257 21.3794 14.3246 21.3695 14.3909C21.3596 14.4573 21.3251 14.5174 21.2728 14.5595L19.4237 16.0341L19.8029 15.8149C19.8606 15.7809 19.9289 15.7699 19.9944 15.7839C20.0598 15.798 20.1175 15.8361 20.1562 15.8908C20.1948 15.9455 20.2114 16.0126 20.2028 16.079C20.1942 16.1454 20.1609 16.2061 20.1096 16.2491L19.8888 16.4373L20.3715 16.1584C20.4282 16.1268 20.4946 16.1169 20.5581 16.1308C20.6216 16.1446 20.6779 16.1812 20.7163 16.2336C20.7548 16.286 20.7727 16.3506 20.7669 16.4153C20.761 16.48 20.7318 16.5404 20.6845 16.5851L20.6104 16.6523C20.6651 16.6231 20.7282 16.6139 20.7889 16.6262C20.8496 16.6385 20.9042 16.6715 20.9432 16.7197C20.9822 16.7678 21.0032 16.8281 21.0026 16.89C21.002 16.952 20.9799 17.0118 20.94 17.0592L20.7075 17.3339C20.7652 17.3554 20.8135 17.3966 20.844 17.4501C20.8792 17.5113 20.8887 17.584 20.8704 17.6522C20.8521 17.7203 20.8075 17.7785 20.7464 17.8139L19.828 18.3467C19.7736 18.3782 19.7099 18.3894 19.648 18.3785C19.5861 18.3676 19.5301 18.3352 19.4898 18.2869C19.4494 18.2387 19.4275 18.1778 19.4277 18.115C19.4279 18.0521 19.4503 17.9914 19.4909 17.9435L19.5373 17.8901L18.7373 18.352C18.6806 18.3836 18.6142 18.3934 18.5507 18.3796C18.4872 18.3658 18.431 18.3292 18.3925 18.2768C18.3541 18.2244 18.3361 18.1598 18.3419 18.0951C18.3478 18.0303 18.3771 17.97 18.4243 17.9253L18.4979 17.8587L17.6408 18.3531C17.5997 18.375 17.5535 18.3857 17.5069 18.384Z" fill="#FCE3D2"/>
    <path d="M13.5773 10.1008C13.5218 10.1007 13.4676 10.0833 13.4224 10.051C13.3772 10.0186 13.3433 9.97298 13.3253 9.9204C13.3073 9.86782 13.3062 9.81094 13.3222 9.7577C13.3381 9.70446 13.3702 9.65753 13.4141 9.62346L15.3389 8.136C15.288 8.12956 15.2399 8.10853 15.2006 8.07545C15.1613 8.04237 15.1324 7.99863 15.1174 7.9495C15.1023 7.90038 15.1018 7.84795 15.1158 7.79853C15.1299 7.74911 15.1579 7.7048 15.1965 7.67093L16.4632 6.55573C16.4288 6.4946 16.4198 6.42236 16.4383 6.35467C16.4568 6.28699 16.5012 6.22931 16.5619 6.19413L17.4931 5.656C17.5504 5.62268 17.6181 5.61193 17.6829 5.62583C17.7478 5.63973 17.8051 5.6773 17.8438 5.73119C17.8824 5.78509 17.8996 5.85145 17.8919 5.91732C17.8843 5.9832 17.8524 6.04386 17.8024 6.08747L17.5624 6.3008L18.188 5.9392C18.2466 5.90482 18.3161 5.8941 18.3824 5.90925C18.4486 5.92439 18.5066 5.96424 18.5444 6.02067C18.5823 6.0771 18.5971 6.14585 18.586 6.21288C18.5749 6.2799 18.5386 6.34016 18.4845 6.38133L16.8787 7.62026L18.4787 6.696C18.5399 6.66119 18.6124 6.65202 18.6803 6.67047C18.7483 6.68892 18.8062 6.7335 18.8414 6.79448C18.8766 6.85546 18.8863 6.9279 18.8683 6.99598C18.8503 7.06405 18.8061 7.12225 18.7453 7.15786L13.7107 10.0656C13.67 10.0887 13.6241 10.1008 13.5773 10.1008Z" fill="#FCE3D2"/>
    <path d="M10.4328 17.8517C10.3879 17.8517 10.3438 17.8404 10.3044 17.8188C10.2651 17.7972 10.2318 17.7661 10.2077 17.7282C10.1836 17.6903 10.1695 17.647 10.1666 17.6022C10.1637 17.5574 10.1722 17.5126 10.1912 17.472L10.5501 16.704L9.11866 17.5307C9.06397 17.5624 8.99977 17.5737 8.93753 17.5625C8.8753 17.5513 8.81907 17.5183 8.77889 17.4695C8.73871 17.4206 8.71719 17.3591 8.71817 17.2959C8.71916 17.2326 8.74258 17.1718 8.78426 17.1243L9.89626 15.8501L8.57679 16.6117C8.51945 16.645 8.45176 16.6558 8.38692 16.6419C8.32207 16.628 8.26474 16.5904 8.2261 16.5365C8.18746 16.4826 8.17029 16.4163 8.17793 16.3504C8.18558 16.2845 8.2175 16.2239 8.26746 16.1803L8.91226 15.6176L8.28186 15.9819C8.22545 16.0158 8.15846 16.0277 8.0938 16.0152C8.02915 16.0028 7.97139 15.9668 7.93166 15.9143C7.89193 15.8618 7.87303 15.7964 7.87861 15.7308C7.88418 15.6652 7.91384 15.604 7.96186 15.5589L9.40186 14.1723L7.94159 15.0155C7.88385 15.048 7.81606 15.0579 7.75143 15.0432C7.68679 15.0285 7.62996 14.9902 7.592 14.9359C7.55404 14.8816 7.53768 14.815 7.54611 14.7493C7.55454 14.6835 7.58715 14.6233 7.63759 14.5803L8.59759 13.7803L7.75599 14.2656C7.69849 14.2982 7.63093 14.3083 7.56642 14.2939C7.5019 14.2795 7.44503 14.2417 7.40683 14.1877C7.36863 14.1338 7.35183 14.0676 7.35968 14.002C7.36753 13.9363 7.39948 13.8759 7.44933 13.8325L8.79866 12.6752L7.62533 13.3515C7.56883 13.3837 7.5025 13.3942 7.43883 13.3809C7.37515 13.3676 7.31852 13.3315 7.27959 13.2794C7.24066 13.2273 7.22211 13.1628 7.22744 13.098C7.23277 13.0332 7.26161 12.9725 7.30853 12.9275L8.80613 11.5003L7.59333 12.2C7.53744 12.2326 7.47158 12.2438 7.40805 12.2315C7.34451 12.2192 7.28763 12.1841 7.24801 12.133C7.20839 12.0818 7.18873 12.018 7.1927 11.9534C7.19667 11.8888 7.224 11.8278 7.26959 11.7819L7.67973 11.3669L7.65253 11.3824C7.60373 11.4107 7.54722 11.4228 7.49112 11.4169C7.43503 11.411 7.38223 11.3875 7.34033 11.3498C7.29843 11.312 7.26958 11.262 7.25792 11.2068C7.24627 11.1516 7.25241 11.0941 7.27546 11.0427L7.50106 10.5371C7.47253 10.5157 7.44874 10.4886 7.43119 10.4576C7.39583 10.3964 7.38625 10.3236 7.40455 10.2553C7.42286 10.187 7.46755 10.1287 7.52879 10.0933L7.83226 9.91841C7.88101 9.89025 7.93743 9.87824 7.99342 9.88411C8.04942 9.88998 8.10212 9.91342 8.14398 9.95107C8.18584 9.98873 8.2147 10.0387 8.22644 10.0937C8.23818 10.1488 8.23219 10.2062 8.20933 10.2576L8.09679 10.5099L9.11919 9.92001C9.17508 9.88738 9.24094 9.87618 9.30447 9.88852C9.36801 9.90085 9.42489 9.93587 9.46451 9.98705C9.50413 10.0382 9.52379 10.1021 9.51982 10.1667C9.51585 10.2313 9.48852 10.2922 9.44293 10.3381L9.03226 10.7541L10.4771 9.92001C10.5336 9.88735 10.6001 9.87654 10.664 9.88964C10.728 9.90275 10.7849 9.93884 10.824 9.9911C10.8631 10.0434 10.8817 10.1081 10.8762 10.1732C10.8708 10.2382 10.8417 10.299 10.7944 10.344L9.29679 11.7701L11.0173 10.7733C11.0748 10.7407 11.1424 10.7306 11.2069 10.745C11.2714 10.7594 11.3283 10.7973 11.3665 10.8512C11.4047 10.9051 11.4215 10.9714 11.4136 11.037C11.4058 11.1026 11.3738 11.163 11.324 11.2064L9.97466 12.3643L11.0173 11.7621C11.0751 11.7289 11.1433 11.7185 11.2084 11.7331C11.2735 11.7476 11.3308 11.786 11.3689 11.8407C11.4071 11.8954 11.4234 11.9625 11.4146 12.0286C11.4058 12.0947 11.3725 12.1551 11.3213 12.1979L10.3613 12.9979L11.0163 12.6197C11.0727 12.5858 11.1397 12.5739 11.2043 12.5864C11.269 12.5988 11.3267 12.6348 11.3665 12.6873C11.4062 12.7398 11.4251 12.8052 11.4195 12.8708C11.4139 12.9364 11.3843 12.9976 11.3363 13.0427L9.89626 14.432L11.0163 13.7851C11.0736 13.7523 11.141 13.7419 11.2056 13.756C11.2701 13.7701 11.3271 13.8076 11.3655 13.8613C11.404 13.915 11.4211 13.9811 11.4136 14.0467C11.4062 14.1123 11.3746 14.1729 11.3251 14.2165L10.6813 14.7813L11.0173 14.5872C11.072 14.5555 11.1362 14.5442 11.1985 14.5554C11.2607 14.5666 11.3169 14.5996 11.3571 14.6484C11.3973 14.6972 11.4188 14.7588 11.4178 14.822C11.4168 14.8852 11.3934 14.946 11.3517 14.9936L10.2403 16.2667L11.0173 15.8176C11.0664 15.7898 11.1231 15.7783 11.1792 15.7848C11.2352 15.7913 11.2878 15.8154 11.3293 15.8536C11.3708 15.8918 11.3991 15.9423 11.4101 15.9976C11.4212 16.053 11.4143 16.1104 11.3907 16.1616L11.0301 16.9317C11.0927 16.9043 11.1634 16.9018 11.2276 16.9249C11.2919 16.9481 11.3449 16.995 11.3756 17.056C11.4063 17.117 11.4124 17.1875 11.3927 17.2529C11.373 17.3183 11.3289 17.3736 11.2696 17.4075L10.5645 17.8144C10.5246 17.8381 10.4792 17.851 10.4328 17.8517Z" fill="#479E9A"/>
    <path d="M9.03655 17.8619C14.3363 24.9706 25.7166 21.073 25.8814 12.2576C25.676 7.16906 21.7699 2.94346 16.5299 2.95519C9.19869 2.76053 4.32988 11.8544 8.89682 17.6768C8.89338 17.7194 8.90571 17.7618 8.93147 17.7959C8.95723 17.83 8.99463 17.8535 9.03655 17.8619ZM16.4702 3.44479C21.4067 3.45066 25.0568 7.50292 25.2515 12.2752C25.14 20.3573 15.0264 24.2565 9.83869 17.8981C10.435 17.9131 10.9955 17.8667 11.2899 17.3861C12.8771 17.3861 14.1592 17.3445 15.6286 18.0363C17.195 18.7467 22.2504 19.0907 20.6739 16.184C21.4942 15.9877 21.8152 14.6907 21.2387 14.0832C21.4848 13.9722 21.6934 13.7924 21.8395 13.5654C21.9855 13.3384 22.0627 13.074 22.0617 12.8041C22.0607 12.5342 21.9815 12.2703 21.8338 12.0444C21.686 11.8185 21.476 11.6403 21.2291 11.5312C22.491 9.02026 19.2366 9.15092 17.5715 9.27199C18.1342 8.27626 19.5411 7.03999 18.483 5.91199C18.2588 5.68874 17.9566 5.56133 17.6403 5.55665C17.3239 5.55198 17.0182 5.6704 16.7875 5.88692L14.2184 8.69599C13.5048 9.61172 12.6904 10.6048 11.3976 10.3493C10.9134 9.32692 9.16615 9.81599 8.09522 9.83946C8.61622 8.01372 9.71285 6.40502 11.2219 5.25281C12.7309 4.10059 14.5717 3.46646 16.4702 3.44479ZM17.0451 6.43146C17.1698 6.30778 17.3306 6.22685 17.5042 6.2003C17.6779 6.17376 17.8555 6.20297 18.0115 6.28372C19.1054 7.08372 17.1779 8.49866 16.8579 9.37706C16.3411 10.4101 19.4232 9.72959 20.0094 9.91839C21.0382 9.81172 21.3464 11.2939 20.2227 11.4117C20.0579 11.4117 19.9843 11.5824 19.9939 11.7472C20.0035 11.912 20.0798 12.0672 20.2398 12.0517C20.7795 12.0517 21.6904 12.0933 21.5848 12.8827C21.492 13.576 20.7454 13.5451 20.2227 13.5451C20.0995 13.5328 20.0286 13.6261 20.0046 13.7445C19.9576 13.9323 20.0382 14.1851 20.2398 14.1851C21.6798 14.4123 20.82 15.9749 19.6894 15.6784C19.3646 15.6784 19.3939 16.2875 19.7064 16.3184C20.8115 16.4251 20.6355 17.7152 19.6307 17.8117C16.723 18.1787 14.3886 16.3435 11.4872 16.7408C11.6435 14.7339 11.3854 13.0891 11.5347 10.9915C12.6894 11.1909 13.5123 10.4763 14.1448 9.59946C15.1126 8.54452 16.0794 7.48888 17.0451 6.43252V6.43146ZM7.94855 10.4107C10.6376 10.4139 11.2046 9.70346 10.8819 12.9568V16.4176C10.8819 16.808 10.9939 17.1109 10.6296 17.3243C10.2279 17.4151 9.81142 17.4186 9.40829 17.3344C8.69427 16.3466 8.19542 15.22 7.94398 14.0274C7.69254 12.8347 7.6941 11.6026 7.94855 10.4107Z" fill="#262626"/>
    <path d="M5.24667 15.2859C4.93093 17.1275 6.48613 17.9963 7.27973 19.4389C7.40802 19.8777 7.62829 20.284 7.92588 20.631C8.22346 20.978 8.59154 21.2576 9.0056 21.4512C8.2536 23.1756 7.50178 24.9001 6.75013 26.6245C5.26853 29.5429 6.62213 30.0155 9.36933 29.8667C10.3592 30.0693 10.5773 30.7931 11.3832 31.3003C12.6435 32.0923 13.3779 31.4704 13.9763 30.3147C14.8083 28.7083 16.0717 26.6192 16.5459 24.8101C17.016 26.0373 17.5584 27.2355 18.1704 28.3984C18.6872 29.9355 19.8931 33.0544 21.8712 31.0837C25.9203 27.752 29.516 33.1728 23.98 21.4459C25.5949 20.9424 25.5021 19.1371 26.6131 18.1419C28.0472 16.8427 27.4664 15.512 28.0472 13.8405C29.0328 12.0805 27.9149 10.9669 27.7597 9.18826C27.9859 7.29866 26.3789 6.61546 25.7229 5.0944C25.5182 4.45912 25.1427 3.89234 24.6376 3.456C23.8728 2.86933 22.8877 2.88106 22.2632 2.05386C20.9939 0.653329 19.8099 1.24586 18.2099 0.727462C15.9304 -0.465604 15.4899 0.881596 13.4557 0.935462C11.5656 0.761062 10.8787 2.29333 9.3448 2.96586C8.73934 3.1663 8.20123 3.53052 7.79013 4.01813C7.1944 4.79626 7.18373 5.7008 6.38693 6.39093C5.15493 7.32106 5.35227 8.60853 5.0968 9.94079C4.94213 10.7488 4.53733 11.4443 4.5416 12.2795C4.54693 13.3168 5.3896 14.2443 5.24667 15.2859ZM13.8536 29.0667C13.4568 29.9397 13.1987 31.3989 11.7539 30.9088C11.1421 30.7013 10.812 29.7888 10.1539 29.5179C9.4312 29.2229 8.58213 29.6373 7.88453 29.3845C6.47173 28.8725 6.88133 27.8912 7.34107 26.8379C8.08773 25.1255 8.8344 23.4131 9.58107 21.7008C10.0226 21.8648 10.4188 22.1315 10.7368 22.4789C11.5011 23.4923 12.4915 23.5733 13.652 23.5936C14.5848 23.6096 15.1645 24.1232 16.0333 24.2693L13.8536 29.0667ZM25.0125 29.3867C24.3965 29.5648 23.6424 29.2139 23.0285 29.4277C22.2547 29.6944 21.9272 30.6432 21.2381 30.888C19.7885 31.4032 19.5437 29.9813 19.1405 29.0944L16.9485 24.2667C17.2924 24.2044 17.6255 24.0932 17.9379 23.9365C18.9139 23.3653 19.9181 23.824 20.9245 23.4677C21.9581 23.1013 22.452 22.1136 23.4227 21.6693C24.1693 23.3835 24.916 25.0978 25.6627 26.8123C26.1235 27.864 26.7608 28.8784 25.0125 29.3867ZM5.3368 11.0869C5.72827 9.84586 5.62427 7.71093 6.6584 6.92959C7.10355 6.5478 7.44806 6.06246 7.6616 5.51626C8.13733 4.4496 8.44827 4.0384 9.50533 3.57493C10.9453 2.94506 11.692 1.46026 13.4259 1.5664C14.9405 1.7328 15.9288 0.566929 17.5219 1.08213C19.0008 1.9888 20.6733 1.1456 21.9485 2.52213C22.956 3.83146 24.6296 3.53546 25.2691 5.28746C25.4016 5.67643 25.5835 6.04675 25.8104 6.38933C26.5267 7.26826 27.5171 7.74613 27.2792 9.1872C27.2355 10.824 28.0019 11.6101 27.6456 13.4779C27.5485 13.9877 27.3336 14.2245 27.2632 14.7701C27.1256 15.848 27.2563 16.7717 26.3411 17.6011C25.0915 18.528 25.2744 20.6261 23.4899 20.9568C22.3517 21.3376 21.8547 22.4667 20.7629 22.856C19.764 23.2123 18.7523 22.7541 17.7763 23.3253C16.3363 24.0261 15.6312 23.2501 14.3165 22.9941C13.1021 22.7573 11.9619 23.2133 11.0504 22.0064C10.0584 20.7445 8.3048 20.9312 7.72987 19.2416C7.17307 17.9408 5.62533 16.8949 5.71547 15.4283C5.94427 13.7888 4.7448 12.9632 5.3368 11.0869Z" fill="#262626"/>
</svg>
