<svg width="33" height="32" viewBox="0 0 33 32" fill="none" xmlns="http://www.w3.org/2000/svg">
    <path d="M8.80565 31.7178C8.74756 31.7178 8.69105 31.6989 8.64471 31.6639C8.59838 31.6288 8.56474 31.5796 8.54893 31.5238C8.53312 31.4679 8.53598 31.4083 8.5571 31.3542C8.57822 31.3001 8.61642 31.2544 8.66591 31.224L10.6568 29.9941L7.98538 31.5365C7.92483 31.5714 7.853 31.5811 7.78534 31.5636C7.71768 31.5461 7.6596 31.5027 7.6236 31.4428C7.5876 31.3829 7.57656 31.3113 7.59285 31.2433C7.60914 31.1753 7.65147 31.1165 7.71071 31.0794L13.3107 27.5733L7.36831 31.0042C7.30763 31.0406 7.23496 31.0515 7.1663 31.0343C7.09764 31.0172 7.0386 30.9734 7.00218 30.9128C6.96575 30.8521 6.95493 30.7794 6.97208 30.7107C6.98924 30.6421 7.03296 30.583 7.09364 30.5466L12.403 27.24L7.09151 30.3061C7.03097 30.3384 6.96027 30.3462 6.89415 30.3278C6.82803 30.3093 6.77156 30.2661 6.73652 30.207C6.70147 30.148 6.69054 30.0777 6.706 30.0109C6.72146 29.944 6.76212 29.8856 6.81951 29.848L7.05151 29.7061C6.9913 29.7387 6.92085 29.7469 6.85475 29.729C6.78865 29.7111 6.73197 29.6685 6.69645 29.6099C6.66094 29.5514 6.64931 29.4814 6.66398 29.4145C6.67865 29.3476 6.71849 29.2889 6.77524 29.2506L15.4414 23.7392L7.04884 28.5866C6.98842 28.6205 6.9172 28.6295 6.85025 28.6118C6.7833 28.594 6.72587 28.551 6.69011 28.4917C6.65436 28.4323 6.64308 28.3614 6.65867 28.294C6.67426 28.2265 6.71549 28.1677 6.77364 28.1301L14.0366 23.5616L7.04991 27.5952C6.9896 27.6283 6.9188 27.6369 6.85232 27.6191C6.78584 27.6012 6.72884 27.5584 6.69322 27.4995C6.65761 27.4406 6.64615 27.3702 6.66123 27.303C6.67632 27.2359 6.71679 27.1772 6.77418 27.1392L14.8729 22.0133L7.04831 26.5274C6.98792 26.5597 6.91742 26.5675 6.85144 26.5492C6.78546 26.5309 6.72904 26.4879 6.69387 26.4292C6.6587 26.3704 6.64748 26.3004 6.66253 26.2336C6.67758 26.1668 6.71775 26.1084 6.77471 26.0704L11.4179 23.1904L7.04831 25.713C6.98793 25.7475 6.91646 25.7571 6.84913 25.7396C6.78181 25.7222 6.72396 25.6792 6.68792 25.6197C6.65189 25.5602 6.64051 25.489 6.65623 25.4212C6.67194 25.3535 6.7135 25.2946 6.77204 25.257L15.5059 19.6997L7.04831 24.5866C6.98769 24.6201 6.91641 24.6288 6.84956 24.6106C6.7827 24.5925 6.72552 24.5491 6.6901 24.4896C6.65469 24.4301 6.64383 24.3591 6.65982 24.2917C6.67581 24.2243 6.7174 24.1658 6.77578 24.1285L9.44245 22.4912L7.05098 23.8714C6.9906 23.9059 6.91912 23.9155 6.8518 23.898C6.78447 23.8806 6.72663 23.8376 6.69059 23.7781C6.65455 23.7186 6.64318 23.6474 6.65889 23.5796C6.67461 23.5119 6.71617 23.453 6.77471 23.4154L15.5795 17.8053L7.04618 22.7306C6.98563 22.763 6.91494 22.7707 6.84882 22.7523C6.78269 22.7339 6.72623 22.6906 6.69118 22.6316C6.65614 22.5725 6.6452 22.5023 6.66066 22.4354C6.67612 22.3685 6.71678 22.3102 6.77418 22.2725L8.27978 21.3504L7.04618 22.0624C6.98574 22.0942 6.91538 22.1017 6.84961 22.0831C6.78385 22.0646 6.7277 22.0216 6.69274 21.9629C6.65778 21.9042 6.64668 21.8343 6.66174 21.7677C6.67679 21.701 6.71685 21.6427 6.77364 21.6048L9.25525 20.08L7.04618 21.3552C6.98578 21.3874 6.91529 21.3952 6.84931 21.3769C6.78333 21.3586 6.72691 21.3157 6.69174 21.2569C6.65657 21.1982 6.64535 21.1281 6.6604 21.0613C6.67545 20.9945 6.71561 20.9361 6.77258 20.8981L11.7934 17.7808L7.04671 20.5216C6.98613 20.5557 6.91462 20.5648 6.84741 20.547C6.78021 20.5291 6.72263 20.4858 6.68695 20.4261C6.65126 20.3664 6.6403 20.2951 6.6564 20.2275C6.67249 20.1599 6.71437 20.1012 6.77311 20.064L11.6904 17.0122L7.04671 19.6933C7.01673 19.7114 6.98349 19.7234 6.94886 19.7287C6.91424 19.7339 6.87892 19.7323 6.84492 19.7239C6.81092 19.7155 6.77891 19.7005 6.75071 19.6798C6.72251 19.659 6.69868 19.6329 6.68058 19.6029C6.66247 19.5729 6.65045 19.5397 6.64519 19.505C6.63994 19.4704 6.64155 19.4351 6.64995 19.4011C6.65834 19.3671 6.67335 19.3351 6.69412 19.3069C6.71488 19.2787 6.741 19.2549 6.77098 19.2368L14.6963 14.2272L7.04724 18.6437C6.98704 18.6763 6.91658 18.6845 6.85048 18.6666C6.78438 18.6487 6.7277 18.6061 6.69219 18.5475C6.65667 18.489 6.64504 18.419 6.65971 18.3521C6.67438 18.2852 6.71422 18.2265 6.77098 18.1882L15.6686 12.5178L7.04671 17.4933C6.98596 17.5295 6.91331 17.5401 6.84475 17.5227C6.77618 17.5054 6.71732 17.4615 6.68111 17.4008C6.6449 17.34 6.63431 17.2674 6.65166 17.1988C6.66901 17.1302 6.71289 17.0714 6.77364 17.0352L10.548 14.705L7.04671 16.7264C6.9866 16.7585 6.91645 16.7665 6.85067 16.7485C6.78489 16.7306 6.72848 16.6881 6.69304 16.6299C6.6576 16.5716 6.64582 16.502 6.66011 16.4353C6.67441 16.3687 6.7137 16.31 6.76991 16.2714L16.1619 10.257L7.04671 15.52C6.98596 15.5546 6.91404 15.564 6.84644 15.5461C6.77885 15.5282 6.72098 15.4844 6.68532 15.4243C6.64965 15.3641 6.63903 15.2924 6.65575 15.2245C6.67247 15.1566 6.71519 15.098 6.77471 15.0613L7.04138 14.9013C6.98043 14.9332 6.90953 14.9403 6.84347 14.9211C6.77742 14.902 6.72132 14.858 6.6869 14.7985C6.65248 14.7389 6.6424 14.6684 6.65876 14.6016C6.67512 14.5348 6.71667 14.4769 6.77471 14.44L12.155 11.088L7.04618 14.0368C6.98591 14.0705 6.91492 14.0795 6.84816 14.0619C6.78139 14.0443 6.72404 14.0015 6.68818 13.9425C6.65232 13.8835 6.64075 13.8129 6.65589 13.7455C6.67104 13.6781 6.71172 13.6193 6.76938 13.5813L14.3961 8.6981L7.04618 12.9402C6.9858 12.9747 6.91432 12.9843 6.847 12.9669C6.77967 12.9494 6.72183 12.9064 6.68579 12.8469C6.64975 12.7874 6.63838 12.7162 6.65409 12.6484C6.66981 12.5807 6.71137 12.5218 6.76991 12.4842L12.364 8.9141L7.04618 11.9845C6.98583 12.0199 6.91401 12.0301 6.84618 12.013C6.77835 11.9959 6.71996 11.9529 6.68358 11.8931C6.64721 11.8334 6.63576 11.7617 6.65171 11.6936C6.66766 11.6255 6.70972 11.5664 6.76884 11.529L11.38 8.56797L7.04511 11.0709C6.98488 11.1052 6.91368 11.1147 6.84657 11.0974C6.77947 11.08 6.72174 11.0373 6.68562 10.9781C6.64949 10.919 6.63781 10.8481 6.65305 10.7805C6.66829 10.7129 6.70924 10.6539 6.76724 10.616L10.5752 8.15143L7.04511 10.1893C6.98541 10.2247 6.91426 10.2354 6.84678 10.2192C6.7793 10.2029 6.72081 10.161 6.68374 10.1023C6.64666 10.0437 6.63392 9.97286 6.64822 9.90495C6.66251 9.83704 6.70273 9.77737 6.76031 9.73863L11.8494 6.22717L7.04511 9.0005C6.98522 9.03521 6.91417 9.04527 6.847 9.02856C6.77982 9.01184 6.72178 8.96966 6.68514 8.91092C6.6485 8.85219 6.63614 8.78151 6.65066 8.71383C6.66519 8.64614 6.70547 8.58676 6.76298 8.54823L9.36565 6.79783L7.04458 8.13757C6.98518 8.17181 6.91488 8.18187 6.84827 8.16565C6.78166 8.14942 6.72385 8.10817 6.68686 8.05045C6.64986 7.99272 6.63652 7.92297 6.6496 7.85567C6.66269 7.78837 6.70119 7.72869 6.75711 7.68903L9.44298 5.78717L7.04298 7.17383C6.98413 7.2078 6.91453 7.21802 6.8484 7.2024C6.78226 7.18678 6.72459 7.14651 6.68715 7.0898C6.64971 7.0331 6.63533 6.96424 6.64694 6.89729C6.65856 6.83034 6.69529 6.77035 6.74964 6.72957L8.89845 5.11357L7.04298 6.18503C6.98472 6.21825 6.91609 6.22831 6.85076 6.21319C6.78543 6.19807 6.72819 6.15889 6.69045 6.10346C6.65271 6.04803 6.63724 5.98041 6.64712 5.91408C6.65701 5.84776 6.69152 5.78759 6.74378 5.74557L8.05738 4.69917L7.04405 5.28584C6.98757 5.32039 6.92026 5.33271 6.85521 5.32038C6.79016 5.30806 6.73201 5.27197 6.6921 5.21915C6.65218 5.16633 6.63334 5.10054 6.63925 5.0346C6.64515 4.96865 6.67538 4.90726 6.72404 4.86237L7.60351 4.0197L7.04138 4.34397C6.99087 4.37291 6.93227 4.38452 6.87454 4.37704C6.81681 4.36956 6.76311 4.34339 6.72164 4.30253C6.68018 4.26167 6.65322 4.20836 6.64489 4.15074C6.63656 4.09313 6.64732 4.03437 6.67551 3.98344L7.04884 3.31517C6.99263 3.3096 6.93963 3.28633 6.8975 3.2487C6.85537 3.21107 6.82627 3.16104 6.8144 3.10581C6.80254 3.05058 6.80852 2.99301 6.83148 2.9414C6.85445 2.88978 6.89321 2.8468 6.94218 2.81864L7.57364 2.4533C7.62416 2.42436 7.68275 2.41275 7.74048 2.42023C7.79822 2.42772 7.85191 2.45389 7.89338 2.49475C7.93484 2.53561 7.9618 2.58891 7.97013 2.64653C7.97846 2.70415 7.96771 2.7629 7.93951 2.81384L7.61418 3.4005L9.25205 2.4533C9.30852 2.41874 9.37583 2.40643 9.44088 2.41875C9.50594 2.43108 9.56408 2.46717 9.60399 2.51999C9.64391 2.57281 9.66275 2.6386 9.65684 2.70454C9.65094 2.77049 9.62071 2.83188 9.57205 2.87677L8.69205 3.71944L10.8846 2.4533C10.9428 2.42008 11.0115 2.41003 11.0768 2.42515C11.1421 2.44027 11.1994 2.47945 11.2371 2.53488C11.2749 2.59031 11.2903 2.65793 11.2804 2.72425C11.2706 2.79058 11.236 2.85075 11.1838 2.89277L9.87125 3.93597L12.4467 2.4501C12.5056 2.41614 12.5752 2.40592 12.6413 2.42154C12.7074 2.43716 12.7651 2.47743 12.8025 2.53413C12.84 2.59084 12.8544 2.6597 12.8428 2.72665C12.8311 2.7936 12.7944 2.85359 12.74 2.89437L10.588 4.5109L14.1571 2.4501C14.2165 2.41586 14.2868 2.4058 14.3534 2.42202C14.42 2.43825 14.4778 2.4795 14.5148 2.53722C14.5518 2.59495 14.5652 2.6647 14.5521 2.732C14.539 2.7993 14.5005 2.85898 14.4446 2.89864L11.7587 4.79997L15.8318 2.4485C15.8917 2.41379 15.9627 2.40373 16.0299 2.42045C16.0971 2.43716 16.1551 2.47935 16.1918 2.53808C16.2284 2.59681 16.2408 2.66749 16.2262 2.73518C16.2117 2.80286 16.1714 2.86224 16.1139 2.90077L13.5134 4.6517L17.3283 2.44904C17.388 2.41365 17.4592 2.40294 17.5267 2.41918C17.5941 2.43542 17.6526 2.47732 17.6897 2.53599C17.7268 2.59466 17.7395 2.66547 17.7252 2.73338C17.7109 2.8013 17.6707 2.86096 17.6131 2.8997L12.523 6.41117L19.387 2.4485C19.4473 2.41159 19.5198 2.40014 19.5886 2.4167C19.6574 2.43325 19.7167 2.47644 19.7537 2.53677C19.7906 2.5971 19.802 2.66962 19.7855 2.73838C19.7689 2.80715 19.7257 2.86652 19.6654 2.90344L15.8547 5.36957L20.9145 2.44797C20.9444 2.42972 20.9776 2.41755 21.0122 2.41214C21.0468 2.40673 21.0821 2.40818 21.1162 2.41643C21.1502 2.42468 21.1823 2.43955 21.2106 2.4602C21.2389 2.48084 21.2629 2.50686 21.2811 2.53677C21.2994 2.56668 21.3115 2.59988 21.317 2.6345C21.3224 2.66911 21.3209 2.70445 21.3127 2.73849C21.3044 2.77254 21.2895 2.80463 21.2689 2.83293C21.2483 2.86123 21.2222 2.88519 21.1923 2.90344L16.5827 5.86237L22.4974 2.44904C22.5579 2.41233 22.6304 2.40115 22.6991 2.41795C22.7679 2.43476 22.8271 2.47817 22.8638 2.53864C22.9005 2.59911 22.9117 2.67168 22.8949 2.74039C22.8781 2.80911 22.8347 2.86833 22.7742 2.90504L17.1774 6.47837L24.1539 2.44744C24.2142 2.41375 24.2852 2.40475 24.3519 2.42233C24.4187 2.43992 24.4761 2.48271 24.5119 2.54172C24.5478 2.60072 24.5594 2.67133 24.5442 2.73869C24.5291 2.80606 24.4884 2.86492 24.4307 2.9029L16.8083 7.78663L25.6553 2.6773C25.7158 2.64239 25.7876 2.63264 25.8553 2.65016C25.923 2.66768 25.981 2.71105 26.017 2.77096C26.053 2.83087 26.0641 2.90251 26.0478 2.97048C26.0315 3.03844 25.9892 3.09729 25.9299 3.13437L20.5497 6.48637L25.9507 3.36744C26.0115 3.33282 26.0834 3.32344 26.151 3.34134C26.2186 3.35923 26.2765 3.40296 26.3121 3.4631C26.3478 3.52325 26.3584 3.595 26.3417 3.66289C26.325 3.73079 26.2822 3.7894 26.2227 3.8261L25.9561 3.99037C26.0165 3.95811 26.0869 3.95032 26.1529 3.96861C26.2189 3.9869 26.2753 4.02987 26.3105 4.08862C26.3457 4.14737 26.3569 4.2174 26.3418 4.2842C26.3268 4.35099 26.2866 4.40944 26.2297 4.44744L16.835 10.4618L25.9507 5.1989C26.0112 5.16609 26.0821 5.15795 26.1484 5.17617C26.2148 5.19439 26.2716 5.23757 26.3068 5.29667C26.3421 5.35578 26.3532 5.42622 26.3377 5.49329C26.3222 5.56035 26.2814 5.61883 26.2238 5.6565L22.4494 7.98717L25.9507 5.96583C26.0111 5.93133 26.0826 5.92177 26.1499 5.93921C26.2172 5.95665 26.2751 5.9997 26.3111 6.05918C26.3472 6.11866 26.3585 6.18987 26.3428 6.25762C26.3271 6.32536 26.2855 6.38429 26.227 6.42183L17.3326 12.0901L25.9507 7.1141C26.0113 7.07754 26.0839 7.06652 26.1525 7.08347C26.2212 7.10043 26.2803 7.14396 26.3169 7.2045C26.3534 7.26504 26.3644 7.33763 26.3475 7.40629C26.3305 7.47495 26.287 7.53407 26.2265 7.57063L18.2985 12.584L25.9507 8.1637C26.0113 8.12957 26.0828 8.12045 26.15 8.13829C26.2172 8.15613 26.2748 8.19951 26.3105 8.25919C26.3462 8.31887 26.3571 8.39012 26.341 8.45776C26.3249 8.52541 26.2831 8.58409 26.2243 8.6213L21.3001 11.6757L25.9507 8.99197C26.0113 8.95784 26.0828 8.94872 26.15 8.96656C26.2172 8.9844 26.2748 9.02778 26.3105 9.08746C26.3462 9.14713 26.3571 9.21839 26.341 9.28603C26.3249 9.35367 26.2831 9.41236 26.2243 9.44957L21.211 12.5637L25.9529 9.8261C26.0135 9.79259 26.0848 9.78397 26.1516 9.80208C26.2185 9.8202 26.2757 9.86361 26.3111 9.92314C26.3465 9.98267 26.3573 10.0536 26.3414 10.121C26.3254 10.1884 26.2838 10.247 26.2254 10.2842L23.7438 11.8085L25.9507 10.5333C26.0113 10.5009 26.082 10.4932 26.1481 10.5116C26.2142 10.5301 26.2707 10.5733 26.3057 10.6323C26.3408 10.6914 26.3517 10.7616 26.3362 10.8285C26.3208 10.8954 26.2801 10.9538 26.2227 10.9914L24.7134 11.9178L25.9507 11.2C26.0111 11.1655 26.0826 11.1559 26.1499 11.1733C26.2172 11.1908 26.2751 11.2338 26.3111 11.2933C26.3472 11.3528 26.3585 11.424 26.3428 11.4917C26.3271 11.5595 26.2855 11.6184 26.227 11.656L17.4217 17.2645L25.9513 12.3402C26.0119 12.3067 26.0832 12.2981 26.15 12.3162C26.2169 12.3343 26.2741 12.3777 26.3095 12.4373C26.3449 12.4968 26.3557 12.5678 26.3398 12.6352C26.3238 12.7026 26.2822 12.7611 26.2238 12.7984L23.5539 14.4394L25.9513 13.0528C26.0116 13.0183 26.0831 13.0087 26.1504 13.0261C26.2178 13.0436 26.2756 13.0866 26.3116 13.1461C26.3477 13.2056 26.3591 13.2768 26.3433 13.3445C26.3276 13.4123 26.2861 13.4712 26.2275 13.5088L17.4963 19.0672L25.9513 14.1866C26.0118 14.1525 26.0834 14.1434 26.1506 14.1612C26.2178 14.1791 26.2753 14.2224 26.311 14.2821C26.3467 14.3418 26.3577 14.4131 26.3416 14.4807C26.3255 14.5483 26.2836 14.607 26.2249 14.6442L21.5774 17.5242L25.9507 14.9994C26.011 14.9663 26.0818 14.9577 26.1483 14.9755C26.2148 14.9934 26.2718 15.0362 26.3074 15.0951C26.343 15.154 26.3545 15.2244 26.3394 15.2916C26.3243 15.3587 26.2838 15.4174 26.2265 15.4554L18.1289 20.5808L25.9513 16.0645C26.0119 16.028 26.0845 16.0171 26.1532 16.0341C26.2218 16.0512 26.2809 16.0948 26.3174 16.1554C26.3539 16.216 26.3648 16.2887 26.3478 16.3573C26.3307 16.426 26.2871 16.4851 26.2265 16.5216L18.9667 21.088L25.9534 17.0554C26.0138 17.0209 26.0852 17.0114 26.1526 17.0288C26.2199 17.0462 26.2777 17.0893 26.3138 17.1488C26.3498 17.2083 26.3612 17.2795 26.3455 17.3472C26.3298 17.415 26.2882 17.4739 26.2297 17.5114L17.5571 23.0256L25.9513 18.1797C26.0118 18.1473 26.0825 18.1396 26.1486 18.158C26.2147 18.1765 26.2712 18.2197 26.3063 18.2787C26.3413 18.3378 26.3522 18.408 26.3368 18.4749C26.3213 18.5418 26.2807 18.6002 26.2233 18.6378L25.9667 18.7946C26.0281 18.7646 26.0987 18.7592 26.1639 18.7797C26.2291 18.8001 26.284 18.8448 26.3172 18.9046C26.3504 18.9643 26.3594 19.0345 26.3423 19.1007C26.3252 19.1669 26.2834 19.224 26.2254 19.2602L20.9123 22.5669L25.9513 19.6581C26.0118 19.6232 26.0836 19.6134 26.1513 19.631C26.219 19.6485 26.277 19.6918 26.313 19.7518C26.349 19.8117 26.3601 19.8833 26.3438 19.9513C26.3275 20.0192 26.2852 20.0781 26.2259 20.1152L20.6339 23.6181L25.9513 20.5482C26.012 20.512 26.0847 20.5014 26.1532 20.5188C26.2218 20.5361 26.2807 20.58 26.3169 20.6408C26.3531 20.7015 26.3637 20.7742 26.3463 20.8427C26.329 20.9113 26.2851 20.9701 26.2243 21.0064L24.2233 22.24L25.9513 21.2426C26.0115 21.2104 26.0818 21.2026 26.1477 21.2207C26.2136 21.2388 26.27 21.2815 26.3053 21.34C26.3406 21.3985 26.3521 21.4683 26.3374 21.535C26.3227 21.6018 26.283 21.6603 26.2265 21.6986L22.1891 24.24L25.9513 22.0688C26.0114 22.0366 26.0815 22.0286 26.1473 22.0466C26.2131 22.0645 26.2695 22.107 26.3049 22.1652C26.3404 22.2235 26.3522 22.2931 26.3379 22.3598C26.3236 22.4264 26.2843 22.4851 26.2281 22.5237L21.6377 25.4661L25.9513 22.976C26.0116 22.9433 26.0823 22.9351 26.1485 22.9532C26.2147 22.9712 26.2714 23.0141 26.3068 23.073C26.3422 23.1318 26.3535 23.202 26.3384 23.2689C26.3234 23.3359 26.2831 23.3945 26.2259 23.4325L25.1657 24.0986L25.9513 23.6458C26.0109 23.6117 26.0814 23.602 26.1481 23.6186C26.2148 23.6352 26.2725 23.6769 26.3091 23.7351C26.3458 23.7932 26.3586 23.8632 26.3449 23.9306C26.3312 23.9979 26.292 24.0573 26.2355 24.0965L20.7598 27.8698L25.9513 24.873C26.0112 24.8408 26.0812 24.8328 26.147 24.8506C26.2127 24.8683 26.2691 24.9105 26.3047 24.9686C26.3403 25.0266 26.3523 25.096 26.3384 25.1626C26.3244 25.2293 26.2855 25.288 26.2297 25.3269L24.9182 26.1802L25.9513 25.584C26.0109 25.5513 26.0808 25.5426 26.1467 25.5597C26.2125 25.5769 26.2693 25.6186 26.3054 25.6762C26.3416 25.7339 26.3543 25.8032 26.341 25.8699C26.3277 25.9366 26.2894 25.9957 26.2339 26.0352L24.1006 27.4752L25.9497 26.4085C26.0083 26.376 26.077 26.3667 26.1421 26.3825C26.2072 26.3984 26.264 26.4381 26.3011 26.494C26.3383 26.5498 26.353 26.6175 26.3424 26.6837C26.3318 26.7499 26.2967 26.8097 26.2441 26.8512L23.2515 29.1322L25.9497 27.5749C26.0086 27.5411 26.0783 27.5311 26.1444 27.547C26.2105 27.5628 26.268 27.6033 26.3053 27.6602C26.3425 27.717 26.3566 27.7859 26.3448 27.8529C26.3329 27.9198 26.2959 27.9796 26.2414 28.0202L25.1321 28.8384L25.9497 28.3664C26.0082 28.3323 26.0775 28.3217 26.1435 28.3368C26.2096 28.352 26.2674 28.3917 26.3052 28.4479C26.343 28.5041 26.358 28.5726 26.3471 28.6395C26.3363 28.7064 26.3004 28.7666 26.2467 28.808L25.6105 29.3045L25.9497 29.1088C26.0042 29.0773 26.0681 29.0662 26.13 29.0773C26.192 29.0884 26.248 29.1211 26.2882 29.1696C26.3284 29.2181 26.3501 29.2792 26.3495 29.3421C26.349 29.4051 26.3262 29.4658 26.2851 29.5136L25.4942 30.4304L25.8286 30.2373C25.8589 30.218 25.8929 30.205 25.9284 30.1992C25.9639 30.1934 26.0002 30.1948 26.0351 30.2033C26.07 30.2119 26.1029 30.2274 26.1316 30.249C26.1604 30.2706 26.1845 30.2977 26.2025 30.3289C26.2205 30.36 26.232 30.3945 26.2364 30.4302C26.2407 30.4659 26.2378 30.5021 26.2278 30.5366C26.2177 30.5712 26.2008 30.6033 26.1781 30.6312C26.1553 30.659 26.1271 30.682 26.0953 30.6986L24.3993 31.68C24.3448 31.7111 24.2811 31.722 24.2193 31.7108C24.1576 31.6996 24.1018 31.667 24.0617 31.6187C24.0217 31.5704 23.9999 31.5096 24.0003 31.4468C24.0007 31.3841 24.0231 31.3235 24.0638 31.2757L24.8542 30.3589L22.5646 31.68C22.5061 31.7138 22.437 31.7242 22.3712 31.7091C22.3053 31.6939 22.2477 31.6543 22.2099 31.5983C22.1721 31.5423 22.157 31.4741 22.1676 31.4074C22.1782 31.3406 22.2137 31.2804 22.267 31.2389L22.9033 30.7429L21.2793 31.68C21.2203 31.7137 21.1506 31.7237 21.0845 31.7079C21.0184 31.692 20.9609 31.6515 20.9236 31.5947C20.8864 31.5378 20.8723 31.4689 20.8841 31.402C20.896 31.3351 20.933 31.2752 20.9875 31.2346L22.1001 30.417L19.9075 31.68C19.8489 31.7131 19.7799 31.7229 19.7143 31.7073C19.6488 31.6916 19.5916 31.6518 19.5543 31.5957C19.5169 31.5397 19.5022 31.4715 19.513 31.405C19.5238 31.3386 19.5594 31.2786 19.6126 31.2373L22.603 28.96L17.8867 31.68C17.827 31.7135 17.7567 31.7228 17.6903 31.706C17.6239 31.6891 17.5666 31.6473 17.5301 31.5893C17.4937 31.5313 17.481 31.4615 17.4947 31.3943C17.5084 31.3272 17.5473 31.2679 17.6035 31.2288L19.7369 29.7861L16.4553 31.68C16.3953 31.7121 16.3253 31.7202 16.2596 31.7024C16.1938 31.6847 16.1374 31.6424 16.1018 31.5844C16.0662 31.5264 16.0542 31.457 16.0681 31.3903C16.0821 31.3237 16.121 31.265 16.1769 31.2261L17.4878 30.3728L15.2238 31.68C15.1643 31.7127 15.0944 31.7216 15.0286 31.7046C14.9628 31.6877 14.906 31.6462 14.8697 31.5888C14.8334 31.5313 14.8204 31.4621 14.8334 31.3954C14.8464 31.3287 14.8843 31.2695 14.9395 31.2298L20.4153 27.4576L13.1022 31.68C13.0418 31.7138 12.9705 31.7228 12.9036 31.7051C12.8366 31.6874 12.7792 31.6443 12.7435 31.585C12.7077 31.5257 12.6964 31.4548 12.712 31.3873C12.7276 31.3198 12.7688 31.261 12.827 31.2234L13.8867 30.56L11.9432 31.68C11.8831 31.7121 11.813 31.7201 11.7472 31.7021C11.6814 31.6842 11.625 31.6417 11.5896 31.5835C11.5541 31.5252 11.5424 31.4556 11.5567 31.3889C11.5709 31.3223 11.6102 31.2636 11.6664 31.225L16.2627 28.2789L10.3699 31.68C10.3096 31.7131 10.2388 31.7217 10.1723 31.7038C10.1058 31.686 10.0488 31.6432 10.0132 31.5843C9.97761 31.5254 9.96615 31.455 9.98124 31.3878C9.99632 31.3207 10.0368 31.262 10.0942 31.224L14.1315 28.6826L8.93898 31.68C8.89865 31.7041 8.85265 31.7172 8.80565 31.7178Z" fill="#D6DBE3"/>
    <path d="M22.3454 3.45121C22.2867 3.45121 22.2296 3.43184 22.1831 3.3961C22.1365 3.36037 22.103 3.31026 22.0878 3.25356C22.0726 3.19686 22.0766 3.13673 22.099 3.0825C22.1215 3.02827 22.1612 2.98296 22.2121 2.95361L25.6254 0.98401C25.6807 0.951564 25.7459 0.940156 25.809 0.951878C25.8721 0.9636 25.9288 0.997667 25.9688 1.04783C26.0088 1.098 26.0294 1.16089 26.0267 1.22499C26.0241 1.28909 25.9984 1.35009 25.9545 1.39681L25.3321 2.06241L25.915 1.72534C25.9677 1.69443 26.0295 1.68257 26.0899 1.69175C26.1503 1.70092 26.2058 1.73058 26.247 1.77575C26.2881 1.82093 26.3125 1.87887 26.3161 1.93989C26.3196 2.00091 26.3021 2.0613 26.2665 2.11094L26.067 2.39041C26.128 2.38389 26.1893 2.39857 26.2407 2.43198C26.2921 2.4654 26.3304 2.5155 26.3492 2.57386C26.368 2.63221 26.3661 2.69526 26.3438 2.75238C26.3216 2.80951 26.2803 2.85721 26.227 2.88748L25.3113 3.41334C25.2586 3.44403 25.197 3.45573 25.1367 3.44652C25.0765 3.4373 25.0212 3.40771 24.9801 3.36269C24.939 3.31766 24.9146 3.25992 24.9109 3.19907C24.9072 3.13822 24.9244 3.07794 24.9598 3.02828L25.1251 2.79628L24.0547 3.41334C23.9994 3.44541 23.9344 3.45652 23.8715 3.44465C23.8087 3.43277 23.7522 3.39871 23.7124 3.34867C23.6726 3.29863 23.652 3.23594 23.6546 3.17204C23.6571 3.10814 23.6825 3.04727 23.7262 3.00054L24.3465 2.33494L22.4787 3.41334C22.4385 3.43764 22.3924 3.45072 22.3454 3.45121Z" fill="#346D92"/>
    <path d="M12.6696 5.05121C12.613 5.05109 12.558 5.03301 12.5124 4.99957C12.4668 4.96613 12.433 4.91906 12.4159 4.86516C12.3988 4.81127 12.3993 4.75334 12.4173 4.69973C12.4353 4.64613 12.4698 4.59962 12.516 4.56694L13.6893 3.73867L11.8359 4.81014C11.7768 4.8441 11.7068 4.85409 11.6405 4.83804C11.5742 4.82199 11.5165 4.78113 11.4794 4.72387C11.4423 4.6666 11.4286 4.59729 11.441 4.5302C11.4535 4.46311 11.4912 4.40335 11.5463 4.36321L12.8951 3.38827L11.5591 4.16001C11.5005 4.19318 11.4315 4.20294 11.366 4.18731C11.3004 4.17169 11.2433 4.13184 11.2059 4.07578C11.1686 4.01971 11.1538 3.95159 11.1646 3.8851C11.1754 3.81861 11.211 3.75867 11.2642 3.71734L12.4253 2.82667L11.2311 3.51681C11.1725 3.55069 11.1031 3.56098 11.0372 3.54559C10.9712 3.5302 10.9136 3.49028 10.876 3.43394C10.8384 3.3776 10.8236 3.30906 10.8347 3.24224C10.8458 3.17541 10.8819 3.11531 10.9357 3.07414L11.2514 2.83201L10.2381 3.41867C10.1813 3.45268 10.1138 3.46432 10.0489 3.45135C9.98396 3.43837 9.92618 3.4017 9.88679 3.34848C9.8474 3.29525 9.82923 3.22927 9.8358 3.16338C9.84237 3.09749 9.87322 3.03641 9.92235 2.99201L11.0423 1.94401L8.47755 3.42507C8.42189 3.45721 8.35649 3.46816 8.29339 3.45591C8.2303 3.44366 8.17375 3.40904 8.13416 3.35841C8.09456 3.30778 8.07459 3.24456 8.0779 3.18037C8.08122 3.11618 8.10761 3.05535 8.15221 3.00907L9.38848 1.72908L7.04928 3.07787C6.99126 3.11161 6.92265 3.12223 6.85715 3.10762C6.79164 3.093 6.73406 3.05422 6.69589 2.99902C6.65772 2.94381 6.64177 2.87624 6.65122 2.8098C6.66067 2.74335 6.69483 2.68291 6.74688 2.64054L7.03648 2.40267C6.98131 2.42994 6.91841 2.43729 6.85844 2.42347C6.79848 2.40965 6.74513 2.37552 6.70746 2.32686C6.66979 2.2782 6.65011 2.21801 6.65175 2.15649C6.65339 2.09498 6.67626 2.03592 6.71648 1.98934L7.19381 1.44428C7.14289 1.43059 7.09716 1.40211 7.06242 1.36243C7.02767 1.32276 7.00547 1.27368 6.99862 1.22139C6.99177 1.1691 7.00058 1.11595 7.02393 1.06867C7.04728 1.02139 7.08413 0.982087 7.12981 0.955742L8.15915 0.360009C8.21389 0.328279 8.27814 0.317051 8.3404 0.32833C8.40267 0.33961 8.45889 0.372664 8.49903 0.421583C8.53916 0.470503 8.5606 0.5321 8.55949 0.595368C8.55839 0.658635 8.53483 0.71945 8.49302 0.766942L8.17621 1.12961L9.58102 0.320009C9.63897 0.286446 9.70743 0.275917 9.77279 0.290515C9.83815 0.305113 9.89562 0.343769 9.93379 0.398799C9.97195 0.45383 9.98801 0.521206 9.97878 0.587537C9.96955 0.653867 9.93569 0.714294 9.88395 0.756809L9.59755 0.992009L10.7613 0.320009C10.817 0.287475 10.8825 0.276214 10.9459 0.28831C11.0092 0.300405 11.066 0.335039 11.1058 0.385799C11.1455 0.436559 11.1655 0.500006 11.1621 0.564394C11.1587 0.628782 11.1321 0.68975 11.0871 0.736009L9.84982 2.01868L12.7922 0.320009C12.849 0.286007 12.9165 0.274361 12.9814 0.287336C13.0463 0.300312 13.1041 0.336981 13.1435 0.390208C13.1829 0.443435 13.2011 0.509413 13.1945 0.575302C13.1879 0.641191 13.1571 0.702278 13.1079 0.746676L11.988 1.79468L14.5389 0.320009C14.5975 0.286127 14.6669 0.275836 14.7329 0.291226C14.7988 0.306616 14.8565 0.346534 14.8941 0.402875C14.9317 0.459216 14.9464 0.527757 14.9353 0.594581C14.9242 0.661405 14.8881 0.721504 14.8344 0.762676L14.5186 1.00428L15.7042 0.320009C15.7629 0.286127 15.8322 0.275836 15.8982 0.291226C15.9642 0.306616 16.0218 0.346534 16.0594 0.402875C16.097 0.459216 16.1118 0.527757 16.1007 0.594581C16.0896 0.661405 16.0535 0.721504 15.9997 0.762676L14.8376 1.65334L17.1464 0.320009C17.2055 0.286045 17.2755 0.27606 17.3418 0.292109C17.4081 0.308157 17.4658 0.349019 17.5029 0.406284C17.54 0.463548 17.5537 0.532858 17.5413 0.599948C17.5288 0.667038 17.4911 0.726803 17.436 0.766942L16.0877 1.73974L18.5496 0.320009C18.6089 0.286663 18.6788 0.277283 18.7448 0.293791C18.8109 0.3103 18.8681 0.351446 18.9048 0.408798C18.9415 0.466149 18.9548 0.535361 18.9421 0.602249C18.9294 0.669136 18.8916 0.728632 18.8365 0.768542L17.66 1.59574L19.8728 0.320009C19.9315 0.286333 20.0009 0.276289 20.0668 0.291916C20.1328 0.307543 20.1902 0.34767 20.2277 0.404149C20.2651 0.460628 20.2796 0.529225 20.2682 0.596012C20.2569 0.662798 20.2206 0.722768 20.1666 0.763743L18.0466 2.35521L21.5768 0.320009C21.6352 0.286831 21.704 0.27694 21.7694 0.292317C21.8348 0.307694 21.892 0.347203 21.9296 0.402942C21.9671 0.45868 21.9822 0.526538 21.9719 0.59294C21.9616 0.659342 21.9265 0.719391 21.8738 0.761076L19.4664 2.63787L23.4866 0.320009C23.546 0.285182 23.6165 0.274642 23.6834 0.290594C23.7503 0.306546 23.8085 0.347755 23.8458 0.405605C23.883 0.463455 23.8965 0.533469 23.8833 0.601008C23.8702 0.668547 23.8314 0.728384 23.7752 0.768009L22.26 1.85121L24.7736 0.400009C24.8319 0.367215 24.9004 0.357529 24.9655 0.372873C25.0306 0.388217 25.0875 0.427469 25.1251 0.482846C25.1626 0.538223 25.1779 0.605679 25.168 0.671836C25.1581 0.737993 25.1238 0.798019 25.0717 0.840009L21.8381 3.38881C21.8533 3.40031 21.8674 3.41316 21.8802 3.42721C21.921 3.47351 21.9444 3.53252 21.9466 3.59417C21.9487 3.65583 21.9294 3.71632 21.892 3.76534L21.5618 4.19894C21.5954 4.22142 21.6233 4.25136 21.6434 4.28641C21.6788 4.34765 21.6884 4.42044 21.6701 4.48875C21.6518 4.55707 21.6071 4.61531 21.5458 4.65067L20.9149 5.01334C20.8615 5.04393 20.7992 5.05513 20.7386 5.04506C20.6779 5.03499 20.6226 5.00425 20.582 4.95806C20.5414 4.91187 20.518 4.85306 20.5158 4.7916C20.5135 4.73014 20.5326 4.6698 20.5698 4.62081L20.6642 4.49654L19.7693 5.01334C19.711 5.04675 19.6422 5.05691 19.5767 5.04178C19.5112 5.02665 19.4538 4.98734 19.4161 4.93173C19.3783 4.87611 19.363 4.80829 19.3731 4.74184C19.3832 4.67539 19.418 4.61521 19.4706 4.57334L21.8333 2.71307L17.8456 5.01334C17.7862 5.04817 17.7157 5.05871 17.6488 5.04276C17.5818 5.0268 17.5236 4.98559 17.4864 4.92774C17.4491 4.86989 17.4357 4.79988 17.4488 4.73234C17.462 4.6648 17.5008 4.60497 17.557 4.56534L19.069 3.48107L16.4157 5.01334C16.3572 5.04719 16.2881 5.0576 16.2223 5.04245C16.1564 5.0273 16.0988 4.98773 16.061 4.93173C16.0232 4.87572 16.0081 4.80747 16.0187 4.74075C16.0293 4.67403 16.0648 4.61381 16.1181 4.57227L18.5266 2.69494L14.5074 5.01334C14.4486 5.04702 14.3792 5.05706 14.3133 5.04143C14.2474 5.02581 14.1899 4.98568 14.1525 4.9292C14.1151 4.87272 14.1006 4.80412 14.1119 4.73734C14.1233 4.67055 14.1596 4.61058 14.2136 4.56961L16.333 2.97547L12.8029 5.01334C12.7626 5.03764 12.7166 5.05071 12.6696 5.05121Z" fill="#346D92"/>
    <path d="M15.0889 11.9902C15.03 11.9904 14.9727 11.9711 14.926 11.9354C14.8792 11.8996 14.8456 11.8494 14.8304 11.7925C14.8151 11.7356 14.8192 11.6753 14.8418 11.621C14.8644 11.5666 14.9044 11.5213 14.9555 11.4921L22.0867 7.37475C22.1447 7.34178 22.2129 7.3317 22.2779 7.3465C22.3429 7.3613 22.3999 7.39991 22.4379 7.45472C22.4758 7.50953 22.4919 7.57656 22.4829 7.64261C22.4738 7.70865 22.4404 7.76893 22.3891 7.81155L19.875 9.88194L22.6734 8.26808C22.7305 8.23517 22.7978 8.22456 22.8622 8.23831C22.9267 8.25205 22.9837 8.28918 23.0224 8.34252C23.0611 8.39586 23.0787 8.46164 23.0718 8.52718C23.0648 8.59271 23.0339 8.65335 22.9849 8.69741L21.2974 10.2115L22.6841 9.41154C22.7402 9.37957 22.8061 9.36908 22.8694 9.38202C22.9327 9.39495 22.9892 9.43043 23.0283 9.48187C23.0674 9.5333 23.0865 9.59719 23.082 9.66166C23.0776 9.72612 23.0499 9.78677 23.0041 9.83234L22.3742 10.4547L22.6846 10.2755C22.7458 10.2407 22.8183 10.2316 22.8863 10.25C22.9542 10.2685 23.0121 10.313 23.0473 10.374C23.0826 10.435 23.0922 10.5074 23.0742 10.5755C23.0562 10.6436 23.012 10.7018 22.9513 10.7374L20.8515 11.9481C20.7955 11.9796 20.7299 11.9898 20.6668 11.9768C20.6038 11.9638 20.5476 11.9284 20.5087 11.8772C20.4697 11.826 20.4505 11.7624 20.4547 11.6982C20.4589 11.634 20.4862 11.5735 20.5315 11.5278L21.1625 10.9027L19.3491 11.9491C19.2924 11.9796 19.2266 11.9885 19.1639 11.9742C19.1011 11.9599 19.0456 11.9234 19.0077 11.8714C18.9697 11.8194 18.9519 11.7554 18.9574 11.6913C18.9629 11.6272 18.9914 11.5672 19.0377 11.5225L20.7257 10.0078L17.3561 11.9529C17.2981 11.9858 17.23 11.9959 17.165 11.9811C17.1 11.9663 17.0429 11.9277 17.0049 11.8729C16.967 11.8181 16.9509 11.7511 16.96 11.685C16.969 11.619 17.0024 11.5587 17.0537 11.5161L19.5667 9.44568L15.2222 11.9523C15.1819 11.9765 15.1359 11.9896 15.0889 11.9902Z" fill="white"/>
    <path d="M12.8666 13.5682C12.8091 13.5682 12.7531 13.5497 12.707 13.5153C12.661 13.4809 12.6272 13.4326 12.6108 13.3775C12.5945 13.3224 12.5964 13.2635 12.6162 13.2095C12.636 13.1556 12.6728 13.1095 12.721 13.0781L13.2868 12.7096L12.4335 13.2018C12.3743 13.2353 12.3045 13.2449 12.2384 13.2286C12.1724 13.2123 12.115 13.1714 12.0782 13.1142C12.0413 13.057 12.0277 12.9879 12.0401 12.921C12.0525 12.8541 12.09 12.7945 12.145 12.7544L15.3386 10.4738L12.3055 12.2253C12.2758 12.2439 12.2427 12.2564 12.2082 12.2622C12.1737 12.268 12.1383 12.2669 12.1042 12.259C12.0353 12.2431 11.9755 12.2005 11.938 12.1405C11.9005 12.0805 11.8884 12.0081 11.9043 11.9392C11.9202 11.8703 11.9629 11.8105 12.0228 11.773L12.265 11.613L11.682 11.9496C11.6223 11.9831 11.552 11.9925 11.4856 11.9756C11.4192 11.9587 11.3619 11.9169 11.3254 11.8589C11.289 11.8009 11.2763 11.7311 11.29 11.6639C11.3037 11.5968 11.3426 11.5375 11.3988 11.4984L11.7188 11.2813L10.7754 11.8258C10.7164 11.8605 10.6463 11.8711 10.5796 11.8556C10.513 11.84 10.4549 11.7994 10.4174 11.7422C10.3798 11.685 10.3657 11.6155 10.3779 11.5482C10.3902 11.4809 10.4278 11.4208 10.4831 11.3805L12.2655 10.0621L10.2682 11.2114C10.2091 11.2447 10.1396 11.2543 10.0738 11.2382C10.008 11.2222 9.95072 11.1816 9.9137 11.1248C9.87669 11.0681 9.86268 10.9993 9.87453 10.9326C9.88638 10.8658 9.92319 10.8061 9.97749 10.7656L10.8132 10.1528L10.1828 10.5165C10.126 10.5516 10.058 10.5642 9.99242 10.5516C9.9268 10.5391 9.86828 10.5023 9.82844 10.4487C9.78861 10.395 9.77037 10.3284 9.77733 10.2619C9.78429 10.1955 9.81594 10.1341 9.86602 10.0898L11.1924 8.82477L10.1823 9.4077C10.131 9.43712 10.0715 9.44868 10.0129 9.44058C9.95442 9.43247 9.90024 9.40515 9.85891 9.36292C9.81759 9.32068 9.79147 9.26591 9.78465 9.20722C9.77782 9.14852 9.79069 9.08922 9.82122 9.03864L10.3098 8.23277C10.2471 8.25997 10.1764 8.26208 10.1122 8.23867C10.048 8.21527 9.9953 8.16813 9.96486 8.10698C9.93442 8.04583 9.92861 7.97533 9.94862 7.91002C9.96864 7.84471 10.013 7.78957 10.0724 7.75597L10.9402 7.25464C10.9915 7.22479 11.0513 7.21292 11.1101 7.22089C11.1689 7.22887 11.2234 7.25623 11.2649 7.29865C11.3064 7.34108 11.3325 7.39614 11.3392 7.45511C11.3459 7.51408 11.3327 7.5736 11.3018 7.62424L10.8154 8.42424L12.8602 7.25197C12.917 7.21618 12.9852 7.20314 13.0512 7.21547C13.1173 7.2278 13.1762 7.26458 13.2163 7.31846C13.2563 7.37235 13.2746 7.43937 13.2674 7.50614C13.2602 7.57291 13.2281 7.63451 13.1775 7.67864L11.8468 8.93944L14.7738 7.25197C14.8328 7.21785 14.9027 7.20766 14.969 7.22349C15.0354 7.23931 15.0931 7.27996 15.1304 7.33706C15.1677 7.39416 15.1817 7.46338 15.1695 7.53048C15.1574 7.59759 15.1199 7.65748 15.065 7.69784L14.2276 8.31117L16.0639 7.25197C16.1229 7.21819 16.1925 7.2082 16.2586 7.22405C16.3247 7.23989 16.3823 7.28038 16.4195 7.33724C16.4568 7.39409 16.4709 7.46302 16.459 7.52994C16.4471 7.59687 16.4102 7.65673 16.3556 7.6973L14.5748 9.01197L17.6282 7.25197C17.6879 7.21839 17.7582 7.20908 17.8246 7.22596C17.891 7.24284 17.9483 7.28462 17.9847 7.34264C18.0212 7.40066 18.0339 7.47046 18.0202 7.53759C18.0065 7.60471 17.9676 7.664 17.9114 7.70317L17.5914 7.9213L18.7514 7.25197C18.8113 7.21726 18.8823 7.2072 18.9495 7.22391C19.0167 7.24063 19.0747 7.28281 19.1113 7.34155C19.148 7.40028 19.1603 7.47096 19.1458 7.53864C19.1313 7.60633 19.091 7.66571 19.0335 7.70424L18.7919 7.86424L19.8586 7.2493C19.9179 7.21448 19.9884 7.20394 20.0554 7.21989C20.1223 7.23584 20.1805 7.27705 20.2177 7.3349C20.255 7.39275 20.2684 7.46276 20.2553 7.5303C20.2421 7.59784 20.2034 7.65768 20.1471 7.6973L16.9524 9.9773L21.6618 7.2573C21.7219 7.22371 21.7927 7.21468 21.8593 7.23211C21.9259 7.24953 21.9832 7.29206 22.0192 7.35078C22.0552 7.40951 22.0671 7.47988 22.0523 7.54715C22.0376 7.61443 21.9974 7.67339 21.9402 7.7117L14.0058 12.8781C13.9846 12.9379 13.9428 12.9882 13.8879 13.02L12.9999 13.5325C12.9593 13.5557 12.9133 13.568 12.8666 13.5682Z" fill="white"/>
    <path d="M20.1285 26.7245C20.075 26.7245 20.0228 26.7083 19.9786 26.6782C19.9345 26.6481 19.9004 26.6054 19.8808 26.5557C19.8612 26.5059 19.857 26.4515 19.8687 26.3993C19.8804 26.3472 19.9076 26.2997 19.9466 26.2632L21.0581 25.2248L19.6181 26.0563C19.5596 26.0895 19.4908 26.0993 19.4254 26.084C19.36 26.0686 19.3028 26.0291 19.2652 25.9733C19.2277 25.9176 19.2126 25.8497 19.2229 25.7833C19.2333 25.7169 19.2683 25.6569 19.321 25.6152L19.7285 25.2979L19.1765 25.6179C19.118 25.6513 19.049 25.6613 18.9834 25.6459C18.9178 25.6305 18.8605 25.5909 18.8229 25.5349C18.7853 25.479 18.7703 25.4109 18.7809 25.3444C18.7915 25.2779 18.8269 25.2178 18.8799 25.1763L19.6517 24.58L18.4399 25.2781C18.3807 25.3121 18.3108 25.3221 18.2445 25.306C18.1782 25.29 18.1205 25.2491 18.0834 25.1919C18.0463 25.1346 18.0326 25.0653 18.045 24.9982C18.0575 24.9311 18.0951 24.8713 18.1503 24.8312L18.5546 24.5395L17.2746 25.2787C17.216 25.3118 17.147 25.3216 17.0814 25.306C17.0159 25.2904 16.9587 25.2505 16.9214 25.1944C16.884 25.1384 16.8692 25.0703 16.8801 25.0038C16.8909 24.9373 16.9265 24.8773 16.9797 24.836L19.4469 22.9608L15.4277 25.2781C15.3683 25.3103 15.2989 25.3188 15.2336 25.3018C15.1682 25.2848 15.1117 25.2437 15.0755 25.1867C15.0393 25.1297 15.0261 25.0611 15.0385 24.9947C15.0509 24.9284 15.088 24.8691 15.1423 24.8291L17.6191 23.1048L13.8538 25.2781C13.7945 25.3107 13.725 25.3195 13.6594 25.3028C13.5938 25.286 13.5371 25.245 13.5007 25.1879C13.4642 25.1309 13.4509 25.0621 13.4633 24.9956C13.4757 24.929 13.5129 24.8697 13.5674 24.8296L17.8917 21.7896L11.8506 25.2781C11.7907 25.3112 11.7204 25.32 11.6542 25.3027C11.5881 25.2854 11.5311 25.2433 11.495 25.1851C11.459 25.127 11.4467 25.0572 11.4607 24.9902C11.4746 24.9233 11.5138 24.8642 11.5701 24.8253L15.513 22.2157L10.7002 24.9976C10.6403 25.0317 10.5695 25.0412 10.5026 25.0243C10.4358 25.0073 10.3782 24.965 10.3418 24.9065C10.3054 24.8479 10.2932 24.7775 10.3076 24.71C10.322 24.6426 10.362 24.5834 10.4191 24.5448L15.8293 20.9437L10.3162 24.1251C10.2559 24.1578 10.1852 24.1659 10.119 24.1479C10.0528 24.1298 9.99608 24.0869 9.96069 24.0281C9.9253 23.9693 9.91396 23.8991 9.92902 23.8321C9.94408 23.7651 9.98438 23.7065 10.0415 23.6685L10.2757 23.5213C10.2145 23.5439 10.1471 23.5432 10.0864 23.5195C10.0257 23.4958 9.97573 23.4506 9.94604 23.3925C9.91635 23.3345 9.90897 23.2675 9.92529 23.2044C9.94161 23.1412 9.9805 23.0863 10.0346 23.0499L14.9466 19.7656L10.3157 22.4392C10.2559 22.4723 10.1857 22.4812 10.1196 22.4641C10.0535 22.447 9.99647 22.4051 9.96029 22.3472C9.92411 22.2893 9.91153 22.2197 9.92516 22.1527C9.93879 22.0858 9.97758 22.0266 10.0335 21.9875L13.6751 19.5341L10.3151 21.4733C10.2553 21.5069 10.1848 21.5161 10.1184 21.499C10.0519 21.4819 9.99463 21.4399 9.95837 21.3817C9.92211 21.3234 9.90969 21.2535 9.92369 21.1863C9.93769 21.1192 9.97703 21.06 10.0335 21.0211L11.9567 19.7315L10.3157 20.6787C10.2561 20.7106 10.1865 20.7187 10.1211 20.7014C10.0558 20.684 9.99944 20.6424 9.96357 20.585C9.92771 20.5277 9.91498 20.4588 9.92797 20.3924C9.94096 20.3261 9.9787 20.2671 10.0335 20.2275L11.0815 19.5181L10.3157 19.9597C10.257 19.9929 10.188 20.0027 10.1225 19.987C10.057 19.9714 9.99978 19.9316 9.96243 19.8755C9.92507 19.8194 9.91032 19.7513 9.92114 19.6848C9.93196 19.6183 9.96754 19.5584 10.0207 19.5171L12.3002 17.7757L10.3151 18.9213C10.2567 18.9539 10.1882 18.9633 10.1232 18.9477C10.0581 18.9322 10.0013 18.8927 9.964 18.8372C9.92668 18.7817 9.91159 18.7142 9.9217 18.6481C9.93182 18.582 9.9664 18.5221 10.0186 18.4803L11.0735 17.6595L10.3135 18.0984C10.258 18.1301 10.193 18.1408 10.1303 18.1286C10.0675 18.1164 10.0113 18.0821 9.97173 18.0319C9.93218 17.9817 9.91198 17.9189 9.91481 17.8551C9.91764 17.7912 9.94331 17.7305 9.98714 17.684L10.9855 16.6312L10.3135 17.0189C10.2599 17.0496 10.1973 17.0607 10.1363 17.0502C10.0754 17.0398 10.02 17.0086 9.97961 16.9619C9.93918 16.9151 9.91623 16.8558 9.91469 16.7941C9.91314 16.7323 9.9331 16.6719 9.97114 16.6232L10.2677 16.2467C10.2341 16.2376 10.2027 16.2219 10.1752 16.2006C10.1478 16.1792 10.1248 16.1527 10.1077 16.1224C10.0723 16.0612 10.0626 15.9885 10.0808 15.9202C10.099 15.8519 10.1436 15.7936 10.2047 15.7581L11.0725 15.2568C11.1262 15.2256 11.1891 15.2141 11.2504 15.2243C11.3117 15.2346 11.3675 15.2659 11.4081 15.3128C11.4488 15.3598 11.4718 15.4195 11.4731 15.4816C11.4744 15.5438 11.454 15.6044 11.4154 15.6531L11.249 15.8637L12.3135 15.2515C12.369 15.2194 12.4342 15.2084 12.4972 15.2204C12.5602 15.2325 12.6167 15.2668 12.6564 15.3172C12.6961 15.3675 12.7163 15.4304 12.7134 15.4945C12.7105 15.5585 12.6846 15.6194 12.6405 15.6659L11.6415 16.7192L14.1834 15.2515C14.2419 15.2174 14.3113 15.2068 14.3773 15.222C14.4433 15.2371 14.5011 15.2768 14.5389 15.333C14.5767 15.3892 14.5917 15.4577 14.5809 15.5246C14.57 15.5915 14.5341 15.6517 14.4805 15.6931L13.4239 16.5128L15.6106 15.2515C15.6693 15.2176 15.7386 15.2073 15.8046 15.2227C15.8705 15.2381 15.9282 15.278 15.9658 15.3343C16.0034 15.3907 16.0181 15.4592 16.0071 15.526C15.996 15.5929 15.9599 15.653 15.9061 15.6941L13.6255 17.4365L17.4122 15.2499C17.4721 15.2152 17.5431 15.2051 17.6103 15.2218C17.6775 15.2385 17.7355 15.2807 17.7722 15.3394C17.8088 15.3982 17.8212 15.4689 17.8066 15.5365C17.7921 15.6042 17.7518 15.6636 17.6943 15.7021L16.6453 16.4088L18.6527 15.2515C18.7127 15.2158 18.7843 15.2051 18.8521 15.2217C18.9199 15.2382 18.9785 15.2807 19.0154 15.3399C19.0522 15.3992 19.0644 15.4705 19.0492 15.5386C19.0341 15.6068 18.9928 15.6662 18.9343 15.7043L17.0106 16.9917L20.025 15.2515C20.085 15.214 20.1574 15.2019 20.2263 15.2178C20.2952 15.2337 20.355 15.2763 20.3925 15.3363C20.4299 15.3962 20.4421 15.4687 20.4262 15.5376C20.4103 15.6065 20.3676 15.6663 20.3077 15.7037L16.6666 18.1571L21.7034 15.2515C21.7632 15.2179 21.8337 15.2087 21.9001 15.2258C21.9666 15.2429 22.0239 15.2849 22.0602 15.3431C22.0964 15.4014 22.1088 15.4713 22.0948 15.5385C22.0808 15.6057 22.0415 15.6648 21.985 15.7037L17.0783 18.9859L22.6661 15.7597C22.7266 15.7248 22.7984 15.7151 22.8661 15.7326C22.9338 15.7501 22.9918 15.7935 23.0278 15.8534C23.0638 15.9133 23.0749 15.9849 23.0586 16.0529C23.0423 16.1209 23 16.1797 22.9407 16.2168L22.7935 16.3091L22.8175 16.2952C22.8775 16.2611 22.9483 16.2516 23.0151 16.2686C23.0819 16.2856 23.1396 16.3278 23.1759 16.3864C23.2123 16.4449 23.2246 16.5153 23.2101 16.5828C23.1957 16.6502 23.1557 16.7094 23.0986 16.748L17.6869 20.3475L22.8175 17.3848C22.8774 17.3517 22.9477 17.343 23.0139 17.3603C23.0801 17.3776 23.1371 17.4197 23.1731 17.4778C23.2091 17.536 23.2214 17.6057 23.2075 17.6727C23.1935 17.7397 23.1543 17.7987 23.0981 17.8376L19.1514 20.4509L22.8202 18.3331C22.8796 18.2993 22.9498 18.2897 23.0161 18.3062C23.0824 18.3227 23.1399 18.364 23.1766 18.4216C23.2134 18.4792 23.2266 18.5488 23.2136 18.6159C23.2005 18.6829 23.1622 18.7425 23.1066 18.7821L18.7823 21.8221L22.8202 19.4915C22.8797 19.4582 22.9496 19.449 23.0157 19.4657C23.0818 19.4825 23.1389 19.5238 23.1754 19.5814C23.2119 19.6389 23.225 19.7082 23.212 19.7751C23.199 19.842 23.1609 19.9014 23.1055 19.9411L20.6309 21.6632L22.8175 20.3997C22.8761 20.3672 22.9448 20.3579 23.01 20.3738C23.0751 20.3896 23.1319 20.4294 23.169 20.4852C23.2061 20.541 23.2209 20.6088 23.2103 20.675C23.1997 20.7412 23.1646 20.8009 23.1119 20.8424L20.6463 22.7181L22.8181 21.4643C22.8772 21.4303 22.9472 21.4203 23.0135 21.4364C23.0798 21.4524 23.1375 21.4933 23.1746 21.5505C23.2117 21.6078 23.2254 21.6771 23.213 21.7442C23.2005 21.8113 23.1628 21.8711 23.1077 21.9112L22.6991 22.2061L22.8181 22.1379C22.8765 22.1051 22.9452 22.0956 23.0104 22.1112C23.0756 22.1268 23.1325 22.1664 23.1699 22.2221C23.2072 22.2777 23.2222 22.3454 23.2118 22.4117C23.2015 22.4779 23.1666 22.5378 23.1141 22.5795L22.3439 23.1747L22.8181 22.9011C22.8766 22.8677 22.9456 22.8577 23.0111 22.8731C23.0767 22.8884 23.1341 22.9281 23.1716 22.984C23.2092 23.0399 23.2242 23.108 23.2136 23.1746C23.203 23.2411 23.1676 23.3012 23.1146 23.3427L22.7066 23.66L22.8181 23.596C22.8749 23.5625 22.9421 23.5513 23.0067 23.5644C23.0713 23.5776 23.1288 23.6143 23.1679 23.6673C23.2071 23.7203 23.2253 23.786 23.2189 23.8516C23.2125 23.9173 23.182 23.9782 23.1333 24.0227L21.5082 25.5384C21.538 25.5605 21.5631 25.5884 21.5818 25.6205C21.6172 25.6817 21.6269 25.7545 21.6087 25.8228C21.5905 25.8911 21.5459 25.9494 21.4847 25.9848L20.2618 26.6909C20.2212 26.7139 20.1751 26.7255 20.1285 26.7245Z" fill="#31B791"/>
    <path d="M17.8219 18.6345C17.9965 18.6345 18.1421 18.489 18.1421 18.3144C18.1421 18.1397 18.0023 18 17.8219 18H16.0289H15.307C15.1324 18 14.9868 18.1455 14.9868 18.3202C14.9868 18.4948 15.1324 18.6404 15.307 18.6404H16.0289C16.3374 18.6404 16.5994 18.8208 16.7216 19.0828H15.307C15.1324 19.0828 14.9868 19.2283 14.9868 19.403C14.9868 19.5776 15.1324 19.7232 15.307 19.7232H16.7216C16.5994 19.9851 16.3374 20.1656 16.0289 20.1656H15.307C15.1789 20.1656 15.0567 20.2471 15.0101 20.3635C14.9635 20.4858 14.9926 20.6255 15.0858 20.7128L16.8846 22.4127C16.9428 22.4709 17.0243 22.5 17.1058 22.5C17.1932 22.5 17.2747 22.4651 17.3387 22.401C17.4609 22.273 17.4551 22.075 17.3271 21.9528L16.1045 20.8001C16.7333 20.7652 17.2514 20.3169 17.3911 19.7232H17.8277C18.0023 19.7232 18.1479 19.5776 18.1479 19.403C18.1479 19.2283 18.0023 19.0828 17.8277 19.0828H17.3911C17.3503 18.9256 17.2921 18.7684 17.199 18.6404L17.8219 18.6345Z" fill="#262626"/>
    <path d="M7.57996 31.5664C8.36289 31.9462 9.58049 31.7542 10.4066 31.7542H16.9885C19.2285 31.7542 21.4834 31.8331 23.7213 31.7542C25.0973 31.7056 26.108 31.4198 26.4568 29.9611C26.4795 29.9242 26.4916 29.8818 26.492 29.8384V7.47948C26.492 5.87255 27.3298 1.36055 25.42 0.433616C24.637 0.0533492 23.4194 0.245883 22.5933 0.245883H16.0114C13.7714 0.245883 11.5165 0.166949 9.27862 0.245883C7.90262 0.294416 6.89196 0.580283 6.54316 2.03895C6.52047 2.07587 6.5083 2.11828 6.50796 2.16162V24.5206C6.50796 26.1275 5.67009 30.6395 7.57996 31.5664ZM12.9266 0.820816H20.4728C22.0194 0.820816 25.0466 0.131216 25.708 2.17495C25.7847 2.44079 25.8249 2.71585 25.8274 2.99255C24.5661 2.90775 22.5464 2.56002 21.6381 3.23842C21.1416 3.61175 21.2504 4.35842 20.8178 4.61015C20.1778 4.97868 18.1709 4.61015 17.4493 4.61015H13.5245C13.1535 4.66919 12.7755 4.66919 12.4045 4.61015C11.8829 4.35948 12.0221 3.78188 11.676 3.46135C10.6952 2.55468 8.66742 2.95788 7.29356 3.00535V2.10508C7.70369 0.0645492 11.6018 0.820816 12.9266 0.820816ZM7.29196 26.6384V3.37335C8.16398 3.27431 9.04472 3.27986 9.91542 3.38988C11.0098 3.61708 10.7896 4.47842 11.6162 4.91948C12.869 5.58775 15.7666 4.98988 17.133 4.98988C18.1997 4.98988 20.4776 5.46988 21.4594 4.78455C22.1053 4.33388 21.8584 3.65815 22.5832 3.38988C23.4184 3.08055 24.8765 3.36428 25.829 3.38615C25.8104 4.07948 25.708 4.81602 25.708 5.35948V29.8928C25.2962 31.9334 21.3981 31.1771 20.0722 31.1771H12.5272C10.9805 31.1771 7.95329 31.8667 7.29196 29.823C7.01142 28.96 7.29196 27.5355 7.29196 26.6384Z" fill="#262626"/>
    <path d="M11.4559 15.2372C10.2292 15.3897 9.85906 15.9203 9.77959 17.0947C9.60439 19.2824 9.60439 21.4805 9.77959 23.6681C10.1039 26.9443 16.0313 24.6841 18.1743 25.3001C18.9593 25.5251 19.5647 27.043 20.7209 26.8585C21.5151 26.7315 21.4948 26.3785 21.754 25.7619C21.9225 25.3609 21.8713 25.2755 21.7876 25.2857C21.9967 25.1603 22.4127 25.2131 22.6383 25.0723C23.9844 24.2323 23.354 21.2521 23.354 19.9699C23.354 18.4819 23.9844 15.8633 22.234 15.2857C22.2048 15.2651 22.1708 15.2525 22.1353 15.2489C22.1074 15.2419 22.0788 15.238 22.05 15.2372C18.5935 15.2372 14.8788 14.8132 11.4559 15.2372ZM21.514 24.8371C21.3839 24.8371 20.9807 24.9091 20.9807 25.1134C20.9807 27.2793 19.7919 25.1827 18.9353 24.8467C18.0788 24.5107 16.5199 24.835 15.6228 24.835C14.4943 24.835 12.5588 25.2233 11.4911 24.835C9.99773 24.2931 10.5551 21.6627 10.5551 20.4755C10.5551 19.3747 10.1988 17.5838 10.5551 16.5331C10.9817 15.2761 12.4825 15.6979 13.5615 15.6979H21.6927C23.2191 16.1571 22.5796 19.7358 22.5796 20.8179C22.5796 21.755 23.1577 24.8371 21.514 24.8371Z" fill="#262626"/>
    <path d="M14.2066 2.84748H14.7399C14.8344 2.85135 14.9286 2.83605 15.017 2.8025C15.1053 2.76896 15.186 2.71785 15.254 2.65228C15.3474 2.50828 15.1735 2.48588 15.061 2.48588H14.5276C14.4332 2.482 14.339 2.4973 14.2506 2.53085C14.1622 2.5644 14.0816 2.6155 14.0135 2.68108C13.9196 2.82668 14.0935 2.84748 14.2066 2.84748Z" fill="#262626"/>
    <path d="M16.8829 2.88591H18.4828C18.6386 2.88591 18.9159 2.83258 18.9932 2.67524C19.0706 2.51791 18.9292 2.44751 18.7836 2.44751H17.1836C17.0279 2.44751 16.7506 2.50084 16.6733 2.65818C16.5959 2.81551 16.7373 2.88591 16.8829 2.88591Z" fill="#262626"/>
    <path d="M13.9933 29.1509C13.7495 29.1509 13.1586 29.5157 13.6733 29.5157H19.0066C19.2503 29.5157 19.8413 29.1509 19.3266 29.1509H13.9933Z" fill="#262626"/>
    <path d="M16.5003 7.14648L14.1471 9.97034H15.0884V12.336H17.9122V9.97034H18.8535L16.5003 7.14648Z" fill="#E2AF40"/>
    <path d="M14.1468 10.1174H14.9413V12.4808C14.9413 12.5618 15.007 12.6275 15.0881 12.6275C15.1691 12.6275 15.2348 12.5618 15.2348 12.4808V9.97066C15.2348 9.8896 15.1691 9.82388 15.0881 9.82388H14.4602L16.5 7.37605L18.5398 9.82386H17.9119C17.8309 9.82386 17.7651 9.88958 17.7651 9.97064V12.4807C17.7651 12.5618 17.8309 12.6275 17.9119 12.6275C17.993 12.6275 18.0587 12.5618 18.0587 12.4807V10.1174H18.8532C18.9102 10.1174 18.962 10.0845 18.9861 10.0329C19.0103 9.98135 19.0024 9.92044 18.966 9.8767L16.6128 7.05282C16.5849 7.01936 16.5436 7 16.5 7C16.4564 7 16.4151 7.01936 16.3872 7.05282L14.034 9.87668C13.9976 9.92042 13.9897 9.98133 14.0139 10.0329C14.038 10.0845 14.0898 10.1174 14.1468 10.1174Z" fill="black"/>
</svg>
