<svg width="33" height="32" viewBox="0 0 33 32" fill="none" xmlns="http://www.w3.org/2000/svg">
    <path d="M8.80559 31.7179C8.7475 31.7179 8.69099 31.6989 8.64465 31.6639C8.59832 31.6289 8.56468 31.5797 8.54887 31.5238C8.53305 31.4679 8.53592 31.4084 8.55704 31.3542C8.57815 31.3001 8.61636 31.2544 8.66585 31.224L10.6568 29.9941L7.98532 31.5365C7.92477 31.5714 7.85294 31.5812 7.78528 31.5637C7.71762 31.5461 7.65954 31.5028 7.62354 31.4429C7.58754 31.383 7.5765 31.3113 7.59279 31.2433C7.60908 31.1754 7.6514 31.1165 7.71065 31.0795L13.3107 27.5733L7.36825 31.0043C7.30757 31.0407 7.2349 31.0515 7.16624 31.0343C7.09758 31.0172 7.03854 30.9735 7.00212 30.9128C6.96569 30.8521 6.95487 30.7794 6.97202 30.7108C6.98917 30.6421 7.0329 30.5831 7.09358 30.5467L12.4029 27.24L7.09145 30.3061C7.03091 30.3385 6.96021 30.3462 6.89409 30.3278C6.82796 30.3093 6.7715 30.2661 6.73646 30.2071C6.70141 30.148 6.69048 30.0778 6.70594 30.0109C6.7214 29.944 6.76205 29.8857 6.81945 29.848L7.05145 29.7061C6.99124 29.7387 6.92079 29.747 6.85469 29.7291C6.78859 29.7112 6.73191 29.6685 6.69639 29.61C6.66088 29.5514 6.64925 29.4814 6.66392 29.4145C6.67858 29.3477 6.71843 29.289 6.77518 29.2507L15.4413 23.7392L7.04878 28.5867C6.98836 28.6205 6.91714 28.6295 6.85019 28.6118C6.78324 28.5941 6.72581 28.551 6.69005 28.4917C6.6543 28.4324 6.64302 28.3615 6.65861 28.294C6.6742 28.2265 6.71543 28.1677 6.77358 28.1301L14.0365 23.5616L7.04985 27.5952C6.98954 27.6284 6.91874 27.6369 6.85226 27.6191C6.78578 27.6012 6.72878 27.5584 6.69316 27.4995C6.65755 27.4406 6.64608 27.3702 6.66117 27.3031C6.67626 27.2359 6.71673 27.1772 6.77412 27.1392L14.8728 22.0133L7.04825 26.5275C6.98785 26.5597 6.91736 26.5675 6.85138 26.5492C6.7854 26.5309 6.72898 26.4879 6.69381 26.4292C6.65864 26.3704 6.64742 26.3004 6.66247 26.2336C6.67752 26.1668 6.71769 26.1084 6.77465 26.0704L11.4179 23.1904L7.04825 25.7131C6.98787 25.7476 6.9164 25.7571 6.84907 25.7397C6.78175 25.7222 6.7239 25.6792 6.68786 25.6197C6.65183 25.5602 6.64045 25.489 6.65617 25.4213C6.67188 25.3535 6.71344 25.2946 6.77198 25.2571L15.5059 19.6997L7.04825 24.5867C6.98763 24.6202 6.91635 24.6288 6.8495 24.6107C6.78264 24.5926 6.72545 24.5491 6.69004 24.4896C6.65463 24.4301 6.64377 24.3591 6.65976 24.2917C6.67575 24.2243 6.71734 24.1658 6.77572 24.1285L9.44239 22.4912L7.05092 23.8715C6.99054 23.906 6.91906 23.9155 6.85174 23.8981C6.78441 23.8806 6.72657 23.8376 6.69053 23.7781C6.65449 23.7186 6.64312 23.6474 6.65883 23.5797C6.67455 23.5119 6.71611 23.453 6.77465 23.4155L15.5795 17.8053L7.04612 22.7307C6.98557 22.763 6.91488 22.7708 6.84876 22.7523C6.78263 22.7339 6.72617 22.6906 6.69112 22.6316C6.65607 22.5726 6.64514 22.5023 6.6606 22.4354C6.67606 22.3685 6.71672 22.3102 6.77412 22.2725L8.27972 21.3504L7.04612 22.0624C6.98568 22.0942 6.91532 22.1017 6.84955 22.0832C6.78379 22.0647 6.72764 22.0216 6.69268 21.9629C6.65772 21.9042 6.64662 21.8344 6.66168 21.7677C6.67673 21.7011 6.71679 21.6428 6.77358 21.6048L9.25519 20.08L7.04612 21.3552C6.98572 21.3874 6.91523 21.3952 6.84925 21.3769C6.78326 21.3587 6.72685 21.3157 6.69168 21.2569C6.65651 21.1982 6.64529 21.1282 6.66034 21.0614C6.67539 20.9946 6.71555 20.9361 6.77252 20.8981L11.7933 17.7808L7.04665 20.5216C6.98607 20.5557 6.91456 20.5648 6.84735 20.547C6.78015 20.5292 6.72257 20.4858 6.68688 20.4261C6.6512 20.3664 6.64024 20.2952 6.65634 20.2275C6.67243 20.1599 6.71431 20.1012 6.77305 20.064L11.6904 17.0123L7.04665 19.6933C7.01667 19.7114 6.98343 19.7235 6.9488 19.7287C6.91418 19.734 6.87886 19.7323 6.84486 19.724C6.81086 19.7156 6.77885 19.7006 6.75065 19.6798C6.72245 19.659 6.69862 19.6329 6.68052 19.6029C6.66241 19.5729 6.65039 19.5397 6.64513 19.5051C6.63988 19.4705 6.64149 19.4351 6.64989 19.4011C6.65828 19.3671 6.67329 19.3351 6.69406 19.3069C6.71482 19.2787 6.74094 19.2549 6.77092 19.2368L14.6963 14.2272L7.04718 18.6437C6.98698 18.6764 6.91652 18.6846 6.85042 18.6667C6.78432 18.6488 6.72764 18.6061 6.69212 18.5476C6.65661 18.489 6.64498 18.419 6.65965 18.3522C6.67432 18.2853 6.71416 18.2266 6.77092 18.1883L15.6685 12.5179L7.04665 17.4933C6.9859 17.5295 6.91325 17.5401 6.84469 17.5228C6.77612 17.5054 6.71726 17.4615 6.68105 17.4008C6.64484 17.34 6.63424 17.2674 6.6516 17.1988C6.66895 17.1303 6.71283 17.0714 6.77358 17.0352L10.548 14.7051L7.04665 16.7264C6.98654 16.7586 6.91638 16.7665 6.85061 16.7486C6.78483 16.7306 6.72842 16.6882 6.69298 16.6299C6.65754 16.5717 6.64575 16.502 6.66005 16.4354C6.67435 16.3687 6.71364 16.3101 6.76985 16.2715L16.1619 10.2571L7.04665 15.52C6.9859 15.5546 6.91398 15.564 6.84638 15.5461C6.77879 15.5282 6.72092 15.4845 6.68526 15.4243C6.64959 15.3642 6.63897 15.2924 6.65569 15.2245C6.67241 15.1566 6.71513 15.098 6.77465 15.0613L7.04132 14.9013C6.98037 14.9332 6.90947 14.9403 6.84341 14.9211C6.77736 14.902 6.72126 14.858 6.68684 14.7985C6.65242 14.7389 6.64234 14.6684 6.6587 14.6016C6.67506 14.5348 6.71661 14.4769 6.77465 14.44L12.1549 11.088L7.04612 14.0368C6.98585 14.0705 6.91486 14.0795 6.84809 14.0619C6.78133 14.0443 6.72398 14.0015 6.68812 13.9425C6.65226 13.8835 6.64069 13.8129 6.65583 13.7455C6.67098 13.6782 6.71166 13.6193 6.76932 13.5813L14.396 8.69813L7.04612 12.9403C6.98574 12.9748 6.91426 12.9843 6.84694 12.9669C6.77961 12.9494 6.72177 12.9064 6.68573 12.8469C6.64969 12.7874 6.63832 12.7162 6.65403 12.6485C6.66975 12.5807 6.71131 12.5218 6.76985 12.4843L12.364 8.91413L7.04612 11.9845C6.98577 12.0199 6.91394 12.0301 6.84612 12.013C6.77829 11.9959 6.7199 11.9529 6.68352 11.8931C6.64715 11.8334 6.6357 11.7618 6.65165 11.6937C6.66759 11.6256 6.70966 11.5664 6.76878 11.5291L11.38 8.568L7.04505 11.0709C6.98482 11.1052 6.91361 11.1147 6.84651 11.0974C6.77941 11.0801 6.72168 11.0373 6.68556 10.9782C6.64943 10.919 6.63775 10.8482 6.65299 10.7805C6.66823 10.7129 6.70918 10.6539 6.76718 10.616L10.5752 8.15146L7.04505 10.1893C6.98534 10.2247 6.9142 10.2354 6.84672 10.2192C6.77924 10.203 6.72075 10.161 6.68368 10.1024C6.6466 10.0437 6.63386 9.9729 6.64815 9.90498C6.66245 9.83707 6.70267 9.7774 6.76025 9.73866L11.8493 6.2272L7.04505 9.00053C6.98516 9.03524 6.91411 9.0453 6.84694 9.02859C6.77976 9.01187 6.72172 8.96969 6.68508 8.91095C6.64844 8.85222 6.63608 8.78154 6.6506 8.71386C6.66513 8.64617 6.7054 8.58679 6.76292 8.54826L9.36559 6.79786L7.04452 8.1376C6.98512 8.17185 6.91482 8.1819 6.84821 8.16568C6.7816 8.14945 6.72379 8.1082 6.6868 8.05048C6.6498 7.99275 6.63646 7.923 6.64954 7.8557C6.66262 7.7884 6.70113 7.72872 6.75705 7.68906L9.44292 5.7872L7.04292 7.17386C6.98406 7.20783 6.91447 7.21805 6.84833 7.20243C6.7822 7.18681 6.72453 7.14654 6.68709 7.08983C6.64965 7.03313 6.63527 6.96427 6.64688 6.89732C6.6585 6.83037 6.69523 6.77038 6.74958 6.7296L8.89839 5.1136L7.04292 6.18507C6.98466 6.21828 6.91603 6.22834 6.8507 6.21322C6.78537 6.1981 6.72813 6.15892 6.69039 6.10349C6.65265 6.04806 6.63718 5.98044 6.64706 5.91412C6.65695 5.84779 6.69146 5.78762 6.74372 5.7456L8.05732 4.6992L7.04398 5.28587C6.98751 5.32043 6.9202 5.33274 6.85515 5.32041C6.79009 5.30809 6.73195 5.272 6.69204 5.21918C6.65212 5.16636 6.63328 5.10057 6.63919 5.03463C6.64509 4.96868 6.67532 4.90729 6.72398 4.8624L7.60345 4.01973L7.04132 4.344C6.9908 4.37294 6.93221 4.38455 6.87448 4.37707C6.81675 4.36959 6.76305 4.34342 6.72158 4.30256C6.68012 4.2617 6.65316 4.20839 6.64483 4.15077C6.6365 4.09316 6.64726 4.0344 6.67545 3.98347L7.04878 3.3152C6.99257 3.30963 6.93957 3.28636 6.89744 3.24873C6.8553 3.2111 6.82621 3.16107 6.81434 3.10584C6.80248 3.05061 6.80846 2.99304 6.83142 2.94143C6.85439 2.88982 6.89315 2.84683 6.94212 2.81867L7.57358 2.45333C7.6241 2.42439 7.68269 2.41278 7.74042 2.42026C7.79815 2.42775 7.85185 2.45392 7.89332 2.49478C7.93478 2.53564 7.96174 2.58894 7.97007 2.64656C7.9784 2.70418 7.96765 2.76293 7.93945 2.81387L7.61412 3.40053L9.25199 2.45333C9.30846 2.41877 9.37577 2.40646 9.44082 2.41878C9.50588 2.43111 9.56402 2.4672 9.60393 2.52002C9.64385 2.57284 9.66269 2.63863 9.65678 2.70457C9.65088 2.77052 9.62065 2.83191 9.57199 2.8768L8.69198 3.71947L10.8845 2.45333C10.9428 2.42011 11.0114 2.41006 11.0767 2.42518C11.1421 2.4403 11.1993 2.47948 11.237 2.53491C11.2748 2.59034 11.2903 2.65796 11.2804 2.72428C11.2705 2.79061 11.236 2.85078 11.1837 2.8928L9.87119 3.936L12.4467 2.45013C12.5055 2.41617 12.5751 2.40595 12.6412 2.42157C12.7074 2.43719 12.765 2.47746 12.8025 2.53416C12.8399 2.59087 12.8543 2.65973 12.8427 2.72668C12.8311 2.79363 12.7943 2.85362 12.74 2.8944L10.588 4.51093L14.1571 2.45013C14.2164 2.41589 14.2868 2.40583 14.3534 2.42205C14.42 2.43828 14.4778 2.47953 14.5148 2.53725C14.5518 2.59498 14.5651 2.66473 14.552 2.73203C14.5389 2.79933 14.5004 2.85901 14.4445 2.89867L11.7587 4.8L15.8317 2.44853C15.8916 2.41382 15.9627 2.40376 16.0298 2.42048C16.097 2.43719 16.1551 2.47938 16.1917 2.53811C16.2283 2.59684 16.2407 2.66752 16.2262 2.73521C16.2116 2.80289 16.1714 2.86227 16.1139 2.9008L13.5133 4.65173L17.3283 2.44907C17.388 2.41368 17.4591 2.40297 17.5266 2.41921C17.5941 2.43545 17.6526 2.47735 17.6896 2.53602C17.7267 2.59469 17.7395 2.6655 17.7252 2.73342C17.7109 2.80133 17.6706 2.86099 17.6131 2.89973L12.5229 6.4112L19.3869 2.44853C19.4473 2.41162 19.5198 2.40017 19.5885 2.41673C19.6573 2.43328 19.7167 2.47647 19.7536 2.5368C19.7905 2.59713 19.802 2.66965 19.7854 2.73841C19.7688 2.80718 19.7257 2.86655 19.6653 2.90347L15.8547 5.3696L20.9144 2.448C20.9443 2.42976 20.9775 2.41758 21.0121 2.41217C21.0467 2.40676 21.0821 2.40822 21.1161 2.41646C21.1502 2.42471 21.1823 2.43958 21.2106 2.46023C21.2389 2.48087 21.2628 2.50689 21.2811 2.5368C21.2993 2.56671 21.3115 2.59991 21.3169 2.63453C21.3223 2.66914 21.3208 2.70448 21.3126 2.73852C21.3044 2.77257 21.2895 2.80466 21.2688 2.83296C21.2482 2.86127 21.2222 2.88522 21.1923 2.90347L16.5827 5.8624L22.4973 2.44907C22.5578 2.41236 22.6304 2.40118 22.6991 2.41798C22.7678 2.43479 22.827 2.4782 22.8637 2.53867C22.9004 2.59914 22.9116 2.67171 22.8948 2.74042C22.878 2.80914 22.8346 2.86836 22.7741 2.90507L17.1773 6.4784L24.1539 2.44747C24.2141 2.41378 24.2851 2.40478 24.3519 2.42236C24.4187 2.43995 24.476 2.48274 24.5119 2.54175C24.5477 2.60075 24.5593 2.67136 24.5441 2.73872C24.529 2.80609 24.4883 2.86495 24.4307 2.90293L16.8083 7.78666L25.6552 2.67733C25.7157 2.64242 25.7876 2.63267 25.8552 2.65019C25.9229 2.66771 25.981 2.71109 26.017 2.77099C26.053 2.8309 26.064 2.90254 26.0477 2.97051C26.0314 3.03847 25.9891 3.09732 25.9299 3.1344L20.5496 6.4864L25.9507 3.36747C26.0114 3.33285 26.0833 3.32347 26.1509 3.34137C26.2185 3.35926 26.2764 3.40299 26.3121 3.46314C26.3477 3.52328 26.3583 3.59503 26.3416 3.66292C26.3249 3.73082 26.2822 3.78943 26.2227 3.82613L25.956 3.9904C26.0164 3.95814 26.0869 3.95035 26.1529 3.96864C26.2189 3.98693 26.2753 4.0299 26.3104 4.08865C26.3456 4.1474 26.3568 4.21743 26.3418 4.28423C26.3267 4.35102 26.2866 4.40947 26.2296 4.44747L16.8349 10.4619L25.9507 5.19893C26.0112 5.16612 26.082 5.15798 26.1484 5.1762C26.2148 5.19442 26.2715 5.2376 26.3068 5.2967C26.342 5.35581 26.3531 5.42626 26.3376 5.49332C26.3221 5.56038 26.2813 5.61886 26.2237 5.65653L22.4493 7.9872L25.9507 5.96587C26.011 5.93136 26.0825 5.9218 26.1498 5.93924C26.2172 5.95668 26.275 5.99973 26.3111 6.05921C26.3471 6.11869 26.3585 6.1899 26.3428 6.25765C26.327 6.32539 26.2855 6.38432 26.2269 6.42186L17.3325 12.0901L25.9507 7.11413C26.0112 7.07757 26.0838 7.06655 26.1525 7.0835C26.2211 7.10046 26.2802 7.14399 26.3168 7.20453C26.3534 7.26507 26.3644 7.33766 26.3474 7.40632C26.3305 7.47498 26.2869 7.5341 26.2264 7.57066L18.2984 12.584L25.9507 8.16373C26.0112 8.1296 26.0828 8.12049 26.15 8.13832C26.2172 8.15616 26.2748 8.19954 26.3104 8.25922C26.3461 8.3189 26.3571 8.39015 26.341 8.4578C26.3249 8.52544 26.283 8.58412 26.2243 8.62133L21.3 11.6757L25.9507 8.992C26.0112 8.95787 26.0828 8.94875 26.15 8.96659C26.2172 8.98443 26.2748 9.02781 26.3104 9.08749C26.3461 9.14716 26.3571 9.21842 26.341 9.28606C26.3249 9.3537 26.283 9.41239 26.2243 9.4496L21.2109 12.5637L25.9528 9.82613C26.0134 9.79262 26.0847 9.784 26.1516 9.80211C26.2184 9.82023 26.2756 9.86364 26.311 9.92317C26.3464 9.9827 26.3573 10.0537 26.3413 10.1211C26.3253 10.1885 26.2837 10.247 26.2253 10.2843L23.7437 11.8085L25.9507 10.5333C26.0112 10.501 26.0819 10.4932 26.148 10.5117C26.2142 10.5301 26.2706 10.5733 26.3057 10.6324C26.3407 10.6914 26.3516 10.7617 26.3362 10.8286C26.3207 10.8955 26.2801 10.9538 26.2227 10.9915L24.7133 11.9179L25.9507 11.2C26.011 11.1655 26.0825 11.1559 26.1498 11.1734C26.2172 11.1908 26.275 11.2339 26.3111 11.2933C26.3471 11.3528 26.3585 11.424 26.3428 11.4918C26.327 11.5595 26.2855 11.6185 26.2269 11.656L17.4216 17.2645L25.9512 12.3403C26.0118 12.3067 26.0831 12.2981 26.15 12.3162C26.2168 12.3344 26.274 12.3778 26.3094 12.4373C26.3448 12.4968 26.3557 12.5678 26.3397 12.6352C26.3237 12.7026 26.2821 12.7611 26.2237 12.7984L23.5539 14.4395L25.9512 13.0528C26.0116 13.0183 26.0831 13.0087 26.1504 13.0262C26.2177 13.0436 26.2756 13.0867 26.3116 13.1461C26.3476 13.2056 26.359 13.2768 26.3433 13.3446C26.3276 13.4123 26.286 13.4713 26.2275 13.5088L17.4963 19.0672L25.9512 14.1867C26.0118 14.1525 26.0833 14.1434 26.1505 14.1613C26.2177 14.1791 26.2753 14.2225 26.311 14.2821C26.3466 14.3418 26.3576 14.4131 26.3415 14.4807C26.3254 14.5484 26.2835 14.607 26.2248 14.6443L21.5773 17.5243L25.9507 14.9995C26.011 14.9663 26.0818 14.9577 26.1483 14.9756C26.2147 14.9934 26.2717 15.0362 26.3074 15.0951C26.343 15.154 26.3544 15.2244 26.3393 15.2916C26.3243 15.3587 26.2838 15.4175 26.2264 15.4555L18.1288 20.5808L25.9512 16.0645C26.0118 16.028 26.0844 16.0171 26.1531 16.0342C26.2218 16.0512 26.2808 16.0948 26.3173 16.1555C26.3538 16.2161 26.3647 16.2887 26.3477 16.3574C26.3306 16.426 26.287 16.4851 26.2264 16.5216L18.9667 21.088L25.9533 17.0555C26.0137 17.021 26.0852 17.0114 26.1525 17.0288C26.2198 17.0463 26.2777 17.0893 26.3137 17.1488C26.3498 17.2083 26.3611 17.2795 26.3454 17.3472C26.3297 17.415 26.2881 17.4739 26.2296 17.5115L17.5571 23.0256L25.9512 18.1797C26.0117 18.1474 26.0824 18.1396 26.1486 18.1581C26.2147 18.1765 26.2711 18.2197 26.3062 18.2788C26.3412 18.3378 26.3522 18.4081 26.3367 18.475C26.3213 18.5418 26.2806 18.6002 26.2232 18.6379L25.9667 18.7947C26.028 18.7646 26.0986 18.7592 26.1638 18.7797C26.2291 18.8001 26.2839 18.8449 26.3171 18.9046C26.3503 18.9644 26.3593 19.0346 26.3422 19.1008C26.3251 19.1669 26.2833 19.224 26.2253 19.2603L20.9123 22.5669L25.9512 19.6581C26.0117 19.6232 26.0836 19.6135 26.1512 19.631C26.2189 19.6485 26.277 19.6919 26.313 19.7518C26.349 19.8117 26.36 19.8833 26.3437 19.9513C26.3274 20.0193 26.2851 20.0781 26.2259 20.1152L20.6339 23.6181L25.9512 20.5483C26.012 20.512 26.0846 20.5015 26.1532 20.5188C26.2217 20.5362 26.2806 20.58 26.3168 20.6408C26.353 20.7015 26.3636 20.7742 26.3463 20.8428C26.3289 20.9113 26.285 20.9702 26.2243 21.0064L24.2232 22.24L25.9512 21.2427C26.0115 21.2105 26.0818 21.2026 26.1476 21.2207C26.2135 21.2389 26.2699 21.2816 26.3052 21.3401C26.3405 21.3985 26.352 21.4684 26.3373 21.5351C26.3227 21.6018 26.283 21.6604 26.2264 21.6987L22.1891 24.24L25.9512 22.0688C26.0113 22.0366 26.0815 22.0287 26.1472 22.0466C26.213 22.0646 26.2694 22.107 26.3049 22.1653C26.3403 22.2235 26.3521 22.2931 26.3378 22.3598C26.3235 22.4265 26.2842 22.4851 26.228 22.5237L21.6376 25.4661L25.9512 22.976C26.0116 22.9433 26.0822 22.9351 26.1484 22.9532C26.2146 22.9713 26.2713 23.0142 26.3067 23.073C26.3421 23.1318 26.3534 23.202 26.3384 23.269C26.3233 23.3359 26.283 23.3945 26.2259 23.4325L25.1656 24.0987L25.9512 23.6459C26.0109 23.6118 26.0814 23.602 26.1481 23.6186C26.2147 23.6353 26.2724 23.677 26.3091 23.7351C26.3457 23.7932 26.3586 23.8633 26.3448 23.9306C26.3311 23.9979 26.2919 24.0574 26.2355 24.0965L20.7597 27.8699L25.9512 24.8731C26.0112 24.8409 26.0812 24.8328 26.1469 24.8506C26.2126 24.8683 26.269 24.9106 26.3046 24.9686C26.3402 25.0266 26.3523 25.096 26.3383 25.1627C26.3244 25.2293 26.2855 25.288 26.2296 25.3269L24.9181 26.1803L25.9512 25.584C26.0109 25.5513 26.0808 25.5426 26.1466 25.5598C26.2125 25.5769 26.2692 25.6186 26.3054 25.6763C26.3415 25.7339 26.3542 25.8032 26.3409 25.8699C26.3276 25.9366 26.2893 25.9958 26.2339 26.0352L24.1005 27.4752L25.9496 26.4085C26.0082 26.376 26.0769 26.3667 26.1421 26.3825C26.2072 26.3984 26.264 26.4382 26.3011 26.494C26.3382 26.5498 26.3529 26.6176 26.3424 26.6837C26.3318 26.7499 26.2967 26.8097 26.244 26.8512L23.2515 29.1323L25.9496 27.5749C26.0086 27.5411 26.0782 27.5311 26.1443 27.547C26.2104 27.5628 26.268 27.6033 26.3052 27.6602C26.3425 27.717 26.3566 27.786 26.3447 27.8529C26.3328 27.9198 26.2959 27.9797 26.2413 28.0203L25.132 28.8384L25.9496 28.3664C26.0081 28.3323 26.0775 28.3217 26.1435 28.3369C26.2095 28.352 26.2673 28.3917 26.3051 28.448C26.3429 28.5042 26.3579 28.5727 26.3471 28.6395C26.3362 28.7064 26.3003 28.7666 26.2467 28.808L25.6104 29.3045L25.9496 29.1088C26.0041 29.0773 26.068 29.0662 26.13 29.0773C26.1919 29.0885 26.248 29.1212 26.2881 29.1696C26.3283 29.2181 26.35 29.2792 26.3495 29.3422C26.3489 29.4051 26.3261 29.4658 26.2851 29.5136L25.4941 30.4304L25.8285 30.2373C25.8589 30.218 25.8928 30.2051 25.9283 30.1992C25.9638 30.1934 26.0001 30.1948 26.035 30.2034C26.07 30.2119 26.1028 30.2274 26.1316 30.249C26.1604 30.2706 26.1845 30.2978 26.2025 30.3289C26.2205 30.3601 26.232 30.3945 26.2363 30.4302C26.2407 30.4659 26.2377 30.5021 26.2277 30.5367C26.2177 30.5712 26.2008 30.6034 26.178 30.6312C26.1552 30.659 26.1271 30.682 26.0952 30.6987L24.3992 31.68C24.3447 31.7111 24.281 31.722 24.2193 31.7108C24.1575 31.6996 24.1017 31.667 24.0617 31.6187C24.0216 31.5705 23.9998 31.5096 24.0002 31.4469C24.0006 31.3841 24.0231 31.3235 24.0637 31.2757L24.8541 30.3589L22.5645 31.68C22.5061 31.7138 22.4369 31.7242 22.3711 31.7091C22.3053 31.6939 22.2476 31.6544 22.2098 31.5984C22.1721 31.5424 22.1569 31.4741 22.1675 31.4074C22.1781 31.3407 22.2137 31.2805 22.2669 31.2389L22.9032 30.7429L21.2792 31.68C21.2202 31.7138 21.1506 31.7238 21.0845 31.7079C21.0184 31.6921 20.9608 31.6516 20.9236 31.5947C20.8863 31.5379 20.8722 31.4689 20.8841 31.402C20.896 31.3351 20.9329 31.2752 20.9875 31.2347L22.1 30.4171L19.9075 31.68C19.8488 31.7132 19.7798 31.7229 19.7143 31.7073C19.6488 31.6917 19.5916 31.6518 19.5542 31.5958C19.5169 31.5397 19.5021 31.4716 19.5129 31.4051C19.5237 31.3386 19.5593 31.2787 19.6125 31.2373L22.6029 28.96L17.8867 31.68C17.827 31.7136 17.7566 31.7229 17.6902 31.706C17.6238 31.6891 17.5665 31.6473 17.5301 31.5893C17.4937 31.5313 17.481 31.4615 17.4946 31.3944C17.5083 31.3272 17.5473 31.268 17.6035 31.2288L19.7368 29.7861L16.4552 31.68C16.3952 31.7122 16.3252 31.7202 16.2595 31.7025C16.1938 31.6847 16.1374 31.6425 16.1018 31.5845C16.0662 31.5264 16.0541 31.457 16.0681 31.3904C16.082 31.3238 16.1209 31.265 16.1768 31.2261L17.4877 30.3728L15.2237 31.68C15.1642 31.7128 15.0944 31.7216 15.0286 31.7046C14.9628 31.6877 14.9059 31.6463 14.8696 31.5888C14.8333 31.5313 14.8203 31.4622 14.8333 31.3955C14.8463 31.3288 14.8843 31.2695 14.9395 31.2299L20.4152 27.4576L13.1021 31.68C13.0417 31.7138 12.9705 31.7229 12.9035 31.7051C12.8366 31.6874 12.7791 31.6443 12.7434 31.585C12.7076 31.5257 12.6964 31.4548 12.7119 31.3873C12.7275 31.3198 12.7688 31.2611 12.8269 31.2235L13.8867 30.56L11.9432 31.68C11.8831 31.7122 11.8129 31.7201 11.7471 31.7022C11.6814 31.6842 11.625 31.6417 11.5895 31.5835C11.5541 31.5253 11.5423 31.4556 11.5566 31.389C11.5709 31.3223 11.6102 31.2636 11.6664 31.2251L16.2627 28.2789L10.3699 31.68C10.3095 31.7132 10.2387 31.7217 10.1723 31.7039C10.1058 31.686 10.0488 31.6432 10.0132 31.5843C9.97755 31.5254 9.96609 31.455 9.98118 31.3879C9.99626 31.3207 10.0367 31.262 10.0941 31.224L14.1315 28.6827L8.93892 31.68C8.89859 31.7041 8.85259 31.7172 8.80559 31.7179Z" fill="#E98090"/>
    <path d="M22.3453 3.4512C22.2866 3.45119 22.2296 3.43182 22.183 3.39609C22.1364 3.36035 22.103 3.31025 22.0878 3.25355C22.0726 3.19685 22.0765 3.13672 22.099 3.08249C22.1214 3.02825 22.1612 2.98295 22.212 2.9536L25.6253 0.983994C25.6807 0.951548 25.7459 0.94014 25.8089 0.951863C25.872 0.963585 25.9287 0.997652 25.9687 1.04782C26.0087 1.09798 26.0293 1.16088 26.0267 1.22498C26.024 1.28908 25.9984 1.35008 25.9544 1.39679L25.332 2.06239L25.9149 1.72533C25.9677 1.69441 26.0294 1.68255 26.0898 1.69173C26.1503 1.70091 26.2057 1.73056 26.2469 1.77574C26.2881 1.82091 26.3125 1.87886 26.316 1.93988C26.3196 2.0009 26.3021 2.06128 26.2664 2.11093L26.0669 2.39039C26.1279 2.38387 26.1892 2.39856 26.2406 2.43197C26.292 2.46538 26.3304 2.51548 26.3492 2.57384C26.3679 2.6322 26.366 2.69525 26.3438 2.75237C26.3215 2.80949 26.2803 2.8572 26.2269 2.88746L25.3112 3.41333C25.2585 3.44401 25.1969 3.45572 25.1367 3.4465C25.0764 3.43728 25.0211 3.4077 24.98 3.36267C24.9389 3.31765 24.9145 3.2599 24.9108 3.19905C24.9071 3.1382 24.9244 3.07793 24.9597 3.02826L25.1251 2.79626L24.0547 3.41333C23.9993 3.44539 23.9343 3.4565 23.8715 3.44463C23.8086 3.43276 23.7521 3.3987 23.7123 3.34866C23.6725 3.29862 23.652 3.23593 23.6545 3.17202C23.6571 3.10812 23.6825 3.04726 23.7261 3.00053L24.3464 2.33493L22.4787 3.41333C22.4384 3.43763 22.3924 3.4507 22.3453 3.4512Z" fill="#346D92"/>
    <path d="M12.6696 5.05119C12.6131 5.05108 12.558 5.03299 12.5124 4.99955C12.4668 4.96611 12.4331 4.91904 12.416 4.86515C12.3989 4.81125 12.3994 4.75332 12.4173 4.69972C12.4353 4.64611 12.4699 4.59961 12.516 4.56693L13.6893 3.73866L11.836 4.81012C11.7768 4.84409 11.7069 4.85407 11.6406 4.83803C11.5742 4.82198 11.5166 4.78112 11.4795 4.72385C11.4424 4.66659 11.4286 4.59728 11.4411 4.53019C11.4535 4.4631 11.4912 4.40333 11.5464 4.36319L12.8952 3.38826L11.5592 4.15999C11.5006 4.19317 11.4316 4.20292 11.366 4.1873C11.3005 4.17167 11.2433 4.13182 11.206 4.07576C11.1686 4.0197 11.1539 3.95158 11.1647 3.88508C11.1755 3.81859 11.2111 3.75866 11.2643 3.71733L12.4253 2.82666L11.2312 3.51679C11.1726 3.55067 11.1032 3.56097 11.0372 3.54558C10.9713 3.53019 10.9136 3.49027 10.876 3.43393C10.8384 3.37759 10.8237 3.30904 10.8348 3.24222C10.8458 3.1754 10.882 3.1153 10.9357 3.07413L11.2515 2.83199L10.2381 3.41866C10.1813 3.45266 10.1139 3.46431 10.049 3.45133C9.98402 3.43836 9.92624 3.40169 9.88685 3.34846C9.84746 3.29523 9.82929 3.22926 9.83586 3.16337C9.84243 3.09748 9.87328 3.03639 9.92241 2.99199L11.0424 1.94399L8.47761 3.42506C8.42195 3.4572 8.35655 3.46815 8.29346 3.4559C8.23036 3.44365 8.17381 3.40902 8.13422 3.3584C8.09462 3.30777 8.07465 3.24454 8.07796 3.18035C8.08128 3.11617 8.10767 3.05534 8.15228 3.00906L9.38854 1.72906L7.04934 3.07786C6.99132 3.1116 6.92272 3.12222 6.85721 3.1076C6.79171 3.09298 6.73412 3.0542 6.69595 2.999C6.65778 2.9438 6.64183 2.87623 6.65128 2.80978C6.66073 2.74334 6.69489 2.6829 6.74694 2.64053L7.03654 2.40266C6.98137 2.42993 6.91847 2.43727 6.85851 2.42346C6.79854 2.40964 6.7452 2.37551 6.70752 2.32685C6.66985 2.27819 6.65017 2.21799 6.65181 2.15648C6.65346 2.09496 6.67632 2.03591 6.71654 1.98933L7.19388 1.44426C7.14295 1.43057 7.09722 1.40209 7.06248 1.36242C7.02774 1.32274 7.00554 1.27366 6.99869 1.22137C6.99184 1.16908 7.00064 1.11594 7.02399 1.06865C7.04735 1.02137 7.08419 0.982072 7.12988 0.955727L8.15921 0.359994C8.21396 0.328264 8.2782 0.317035 8.34047 0.328315C8.40273 0.339595 8.45895 0.372648 8.49909 0.421568C8.53922 0.470487 8.56066 0.532085 8.55956 0.595353C8.55845 0.65862 8.53489 0.719434 8.49308 0.766927L8.17628 1.12959L9.58108 0.319994C9.63903 0.286431 9.70749 0.275902 9.77285 0.2905C9.83821 0.305098 9.89568 0.343753 9.93385 0.398784C9.97201 0.453815 9.98807 0.521191 9.97884 0.587521C9.96961 0.653852 9.93575 0.714279 9.88401 0.756794L9.59761 0.991994L10.7613 0.319994C10.817 0.28746 10.8826 0.276199 10.9459 0.288294C11.0093 0.30039 11.0661 0.335024 11.1058 0.385784C11.1456 0.436543 11.1656 0.499991 11.1622 0.564379C11.1588 0.628767 11.1321 0.689735 11.0872 0.735994L9.84988 2.01866L12.7923 0.319994C12.8491 0.285992 12.9165 0.274345 12.9815 0.287321C13.0464 0.300296 13.1042 0.336966 13.1436 0.390193C13.183 0.44342 13.2011 0.509398 13.1946 0.575287C13.188 0.641176 13.1571 0.702263 13.108 0.746661L11.988 1.79466L14.5389 0.319994C14.5976 0.286111 14.667 0.275821 14.7329 0.291211C14.7989 0.306601 14.8565 0.346519 14.8941 0.40286C14.9317 0.459201 14.9465 0.527742 14.9354 0.594566C14.9243 0.66139 14.8882 0.721489 14.8344 0.762661L14.5187 1.00426L15.7043 0.319994C15.7629 0.286111 15.8323 0.275821 15.8983 0.291211C15.9642 0.306601 16.0219 0.346519 16.0595 0.40286C16.0971 0.459201 16.1118 0.527742 16.1007 0.594566C16.0896 0.66139 16.0535 0.721489 15.9997 0.762661L14.8376 1.65333L17.1464 0.319994C17.2056 0.28603 17.2755 0.276045 17.3419 0.292093C17.4082 0.308142 17.4658 0.349004 17.5029 0.406268C17.54 0.463533 17.5538 0.532843 17.5413 0.599933C17.5289 0.667023 17.4912 0.726788 17.436 0.766927L16.0877 1.73973L18.5496 0.319994C18.609 0.286648 18.6788 0.277268 18.7449 0.293776C18.8109 0.310284 18.8682 0.351431 18.9049 0.408782C18.9415 0.466134 18.9549 0.535346 18.9422 0.602233C18.9295 0.669121 18.8917 0.728617 18.8365 0.768527L17.66 1.59573L19.8728 0.319994C19.9316 0.286318 20.001 0.276273 20.0669 0.2919C20.1328 0.307528 20.1903 0.347655 20.2277 0.404134C20.2651 0.460613 20.2796 0.52921 20.2683 0.595996C20.257 0.662783 20.2206 0.722752 20.1667 0.763727L18.0467 2.35519L21.5768 0.319994C21.6353 0.286816 21.7041 0.276925 21.7695 0.292302C21.8349 0.307678 21.8921 0.347188 21.9296 0.402926C21.9672 0.458665 21.9823 0.526523 21.972 0.592925C21.9616 0.659326 21.9266 0.719376 21.8739 0.761061L19.4664 2.63786L23.4867 0.319994C23.546 0.285166 23.6165 0.274627 23.6835 0.290579C23.7504 0.306531 23.8086 0.34774 23.8458 0.40559C23.8831 0.46344 23.8966 0.533453 23.8834 0.600993C23.8702 0.668532 23.8315 0.728369 23.7752 0.767994L22.26 1.85119L24.7736 0.399994C24.8319 0.3672 24.9004 0.357514 24.9655 0.372858C25.0306 0.388201 25.0876 0.427454 25.1251 0.482831C25.1626 0.538207 25.178 0.605663 25.1681 0.67182C25.1582 0.737978 25.1238 0.798004 25.0717 0.839994L21.8381 3.38879C21.8533 3.40029 21.8674 3.41315 21.8803 3.42719C21.921 3.4735 21.9445 3.5325 21.9466 3.59416C21.9488 3.65582 21.9295 3.71631 21.892 3.76533L21.5619 4.19893C21.5955 4.22141 21.6234 4.25134 21.6435 4.28639C21.6788 4.34764 21.6884 4.42042 21.6701 4.48874C21.6518 4.55705 21.6071 4.6153 21.5459 4.65066L20.9149 5.01332C20.8616 5.04391 20.7993 5.05512 20.7386 5.04504C20.678 5.03497 20.6226 5.00423 20.582 4.95804C20.5414 4.91185 20.518 4.85305 20.5158 4.79158C20.5136 4.73012 20.5327 4.66979 20.5699 4.62079L20.6643 4.49652L19.7693 5.01332C19.711 5.04674 19.6422 5.0569 19.5767 5.04176C19.5113 5.02663 19.4539 4.98732 19.4161 4.93171C19.3784 4.8761 19.363 4.80828 19.3731 4.74183C19.3833 4.67537 19.4181 4.61519 19.4707 4.57333L21.8333 2.71306L17.8456 5.01332C17.7863 5.04815 17.7158 5.05869 17.6488 5.04274C17.5819 5.02679 17.5237 4.98558 17.4864 4.92773C17.4492 4.86988 17.4357 4.79987 17.4489 4.73233C17.4621 4.66479 17.5008 4.60495 17.5571 4.56533L19.0691 3.48106L16.4157 5.01332C16.3573 5.04718 16.2881 5.05758 16.2223 5.04243C16.1565 5.02729 16.0988 4.98771 16.0611 4.93171C16.0233 4.87571 16.0081 4.80745 16.0187 4.74073C16.0293 4.67401 16.0649 4.6138 16.1181 4.57226L18.5267 2.69493L14.5075 5.01332C14.4487 5.047 14.3793 5.05705 14.3134 5.04142C14.2475 5.02579 14.19 4.98566 14.1526 4.92919C14.1152 4.87271 14.1007 4.80411 14.112 4.73732C14.1233 4.67054 14.1597 4.61057 14.2136 4.56959L16.3331 2.97546L12.8029 5.01332C12.7627 5.03762 12.7166 5.0507 12.6696 5.05119Z" fill="#346D92"/>
    <path d="M15.0889 11.9902C15.03 11.9904 14.9727 11.9711 14.926 11.9354C14.8792 11.8996 14.8456 11.8494 14.8304 11.7925C14.8151 11.7356 14.8192 11.6753 14.8418 11.621C14.8644 11.5666 14.9044 11.5213 14.9555 11.4921L22.0867 7.37475C22.1447 7.34178 22.2129 7.3317 22.2779 7.3465C22.3429 7.3613 22.3999 7.39991 22.4379 7.45472C22.4758 7.50953 22.4919 7.57656 22.4829 7.64261C22.4738 7.70865 22.4404 7.76893 22.3891 7.81155L19.875 9.88194L22.6734 8.26808C22.7305 8.23517 22.7978 8.22456 22.8622 8.23831C22.9267 8.25205 22.9837 8.28918 23.0224 8.34252C23.0611 8.39586 23.0787 8.46164 23.0718 8.52718C23.0648 8.59271 23.0339 8.65335 22.9849 8.69741L21.2974 10.2115L22.6841 9.41154C22.7402 9.37957 22.8061 9.36908 22.8694 9.38202C22.9327 9.39495 22.9892 9.43043 23.0283 9.48187C23.0674 9.5333 23.0865 9.59719 23.082 9.66166C23.0776 9.72612 23.0499 9.78677 23.0041 9.83234L22.3742 10.4547L22.6846 10.2755C22.7458 10.2407 22.8183 10.2316 22.8863 10.25C22.9542 10.2685 23.0121 10.313 23.0473 10.374C23.0826 10.435 23.0922 10.5074 23.0742 10.5755C23.0562 10.6436 23.012 10.7018 22.9513 10.7374L20.8515 11.9481C20.7955 11.9796 20.7299 11.9898 20.6668 11.9768C20.6038 11.9638 20.5476 11.9284 20.5087 11.8772C20.4697 11.826 20.4505 11.7624 20.4547 11.6982C20.4589 11.634 20.4862 11.5735 20.5315 11.5278L21.1625 10.9027L19.3491 11.9491C19.2924 11.9796 19.2266 11.9885 19.1639 11.9742C19.1011 11.9599 19.0456 11.9234 19.0077 11.8714C18.9697 11.8194 18.9519 11.7554 18.9574 11.6913C18.9629 11.6272 18.9914 11.5672 19.0377 11.5225L20.7257 10.0078L17.3561 11.9529C17.2981 11.9858 17.23 11.9959 17.165 11.9811C17.1 11.9663 17.0429 11.9277 17.0049 11.8729C16.967 11.8181 16.9509 11.7511 16.96 11.685C16.969 11.619 17.0024 11.5587 17.0537 11.5161L19.5667 9.44568L15.2222 11.9523C15.1819 11.9765 15.1359 11.9896 15.0889 11.9902Z" fill="white"/>
    <path d="M12.8666 13.5682C12.8091 13.5682 12.7531 13.5497 12.707 13.5153C12.661 13.4809 12.6272 13.4326 12.6108 13.3775C12.5945 13.3224 12.5964 13.2635 12.6162 13.2095C12.636 13.1556 12.6728 13.1095 12.721 13.0781L13.2868 12.7096L12.4335 13.2018C12.3743 13.2353 12.3045 13.2449 12.2384 13.2286C12.1724 13.2123 12.115 13.1714 12.0782 13.1142C12.0413 13.057 12.0277 12.9879 12.0401 12.921C12.0525 12.8541 12.09 12.7945 12.145 12.7544L15.3386 10.4738L12.3055 12.2253C12.2758 12.2439 12.2427 12.2564 12.2082 12.2622C12.1737 12.268 12.1383 12.2669 12.1042 12.259C12.0353 12.2431 11.9755 12.2005 11.938 12.1405C11.9005 12.0805 11.8884 12.0081 11.9043 11.9392C11.9202 11.8703 11.9629 11.8105 12.0228 11.773L12.265 11.613L11.682 11.9496C11.6223 11.9831 11.552 11.9925 11.4856 11.9756C11.4192 11.9587 11.3619 11.9169 11.3254 11.8589C11.289 11.8009 11.2763 11.7311 11.29 11.6639C11.3037 11.5968 11.3426 11.5375 11.3988 11.4984L11.7188 11.2813L10.7754 11.8258C10.7164 11.8605 10.6463 11.8711 10.5796 11.8556C10.513 11.84 10.4549 11.7994 10.4174 11.7422C10.3798 11.685 10.3657 11.6155 10.3779 11.5482C10.3902 11.4809 10.4278 11.4208 10.4831 11.3805L12.2655 10.0621L10.2682 11.2114C10.2091 11.2447 10.1396 11.2543 10.0738 11.2382C10.008 11.2222 9.95072 11.1816 9.9137 11.1248C9.87669 11.0681 9.86268 10.9993 9.87453 10.9326C9.88638 10.8658 9.92319 10.8061 9.97749 10.7656L10.8132 10.1528L10.1828 10.5165C10.126 10.5516 10.058 10.5642 9.99242 10.5516C9.9268 10.5391 9.86828 10.5023 9.82844 10.4487C9.78861 10.395 9.77037 10.3284 9.77733 10.2619C9.78429 10.1955 9.81594 10.1341 9.86602 10.0898L11.1924 8.82477L10.1823 9.4077C10.131 9.43712 10.0715 9.44868 10.0129 9.44058C9.95442 9.43247 9.90024 9.40515 9.85891 9.36292C9.81759 9.32068 9.79147 9.26591 9.78465 9.20722C9.77782 9.14852 9.79069 9.08922 9.82122 9.03864L10.3098 8.23277C10.2471 8.25997 10.1764 8.26208 10.1122 8.23867C10.048 8.21527 9.9953 8.16813 9.96486 8.10698C9.93442 8.04583 9.92861 7.97533 9.94862 7.91002C9.96864 7.84471 10.013 7.78957 10.0724 7.75597L10.9402 7.25464C10.9915 7.22479 11.0513 7.21292 11.1101 7.22089C11.1689 7.22887 11.2234 7.25623 11.2649 7.29865C11.3064 7.34108 11.3325 7.39614 11.3392 7.45511C11.3459 7.51408 11.3327 7.5736 11.3018 7.62424L10.8154 8.42424L12.8602 7.25197C12.917 7.21618 12.9852 7.20314 13.0512 7.21547C13.1173 7.2278 13.1762 7.26458 13.2163 7.31846C13.2563 7.37235 13.2746 7.43937 13.2674 7.50614C13.2602 7.57291 13.2281 7.63451 13.1775 7.67864L11.8468 8.93944L14.7738 7.25197C14.8328 7.21785 14.9027 7.20766 14.969 7.22349C15.0354 7.23931 15.0931 7.27996 15.1304 7.33706C15.1677 7.39416 15.1817 7.46338 15.1695 7.53048C15.1574 7.59759 15.1199 7.65748 15.065 7.69784L14.2276 8.31117L16.0639 7.25197C16.1229 7.21819 16.1925 7.2082 16.2586 7.22405C16.3247 7.23989 16.3823 7.28038 16.4195 7.33724C16.4568 7.39409 16.4709 7.46302 16.459 7.52994C16.4471 7.59687 16.4102 7.65673 16.3556 7.6973L14.5748 9.01197L17.6282 7.25197C17.6879 7.21839 17.7582 7.20908 17.8246 7.22596C17.891 7.24284 17.9483 7.28462 17.9847 7.34264C18.0212 7.40066 18.0339 7.47046 18.0202 7.53759C18.0065 7.60471 17.9676 7.664 17.9114 7.70317L17.5914 7.9213L18.7514 7.25197C18.8113 7.21726 18.8823 7.2072 18.9495 7.22391C19.0167 7.24063 19.0747 7.28281 19.1113 7.34155C19.148 7.40028 19.1603 7.47096 19.1458 7.53864C19.1313 7.60633 19.091 7.66571 19.0335 7.70424L18.7919 7.86424L19.8586 7.2493C19.9179 7.21448 19.9884 7.20394 20.0554 7.21989C20.1223 7.23584 20.1805 7.27705 20.2177 7.3349C20.255 7.39275 20.2684 7.46276 20.2553 7.5303C20.2421 7.59784 20.2034 7.65768 20.1471 7.6973L16.9524 9.9773L21.6618 7.2573C21.7219 7.22371 21.7927 7.21468 21.8593 7.23211C21.9259 7.24953 21.9832 7.29206 22.0192 7.35078C22.0552 7.40951 22.0671 7.47988 22.0523 7.54715C22.0376 7.61443 21.9974 7.67339 21.9402 7.7117L14.0058 12.8781C13.9846 12.9379 13.9428 12.9882 13.8879 13.02L12.9999 13.5325C12.9593 13.5557 12.9133 13.568 12.8666 13.5682Z" fill="white"/>
    <path d="M20.1285 26.7245C20.075 26.7245 20.0228 26.7083 19.9786 26.6782C19.9345 26.6481 19.9004 26.6054 19.8808 26.5557C19.8612 26.5059 19.857 26.4515 19.8687 26.3993C19.8804 26.3472 19.9076 26.2997 19.9466 26.2632L21.0581 25.2248L19.6181 26.0563C19.5596 26.0895 19.4908 26.0993 19.4254 26.084C19.36 26.0686 19.3028 26.0291 19.2652 25.9733C19.2277 25.9176 19.2126 25.8497 19.2229 25.7833C19.2333 25.7169 19.2683 25.6569 19.321 25.6152L19.7285 25.2979L19.1765 25.6179C19.118 25.6513 19.049 25.6613 18.9834 25.6459C18.9178 25.6305 18.8605 25.5909 18.8229 25.5349C18.7853 25.479 18.7703 25.4109 18.7809 25.3444C18.7915 25.2779 18.8269 25.2178 18.8799 25.1763L19.6517 24.58L18.4399 25.2781C18.3807 25.3121 18.3108 25.3221 18.2445 25.306C18.1782 25.29 18.1205 25.2491 18.0834 25.1919C18.0463 25.1346 18.0326 25.0653 18.045 24.9982C18.0575 24.9311 18.0951 24.8713 18.1503 24.8312L18.5546 24.5395L17.2746 25.2787C17.216 25.3118 17.147 25.3216 17.0814 25.306C17.0159 25.2904 16.9587 25.2505 16.9214 25.1944C16.884 25.1384 16.8692 25.0703 16.8801 25.0038C16.8909 24.9373 16.9265 24.8773 16.9797 24.836L19.4469 22.9608L15.4277 25.2781C15.3683 25.3103 15.2989 25.3188 15.2336 25.3018C15.1682 25.2848 15.1117 25.2437 15.0755 25.1867C15.0393 25.1297 15.0261 25.0611 15.0385 24.9947C15.0509 24.9284 15.088 24.8691 15.1423 24.8291L17.6191 23.1048L13.8538 25.2781C13.7945 25.3107 13.725 25.3195 13.6594 25.3028C13.5938 25.286 13.5371 25.245 13.5007 25.1879C13.4642 25.1309 13.4509 25.0621 13.4633 24.9956C13.4757 24.929 13.5129 24.8697 13.5674 24.8296L17.8917 21.7896L11.8506 25.2781C11.7907 25.3112 11.7204 25.32 11.6542 25.3027C11.5881 25.2854 11.5311 25.2433 11.495 25.1851C11.459 25.127 11.4467 25.0572 11.4607 24.9902C11.4746 24.9233 11.5138 24.8642 11.5701 24.8253L15.513 22.2157L10.7002 24.9976C10.6403 25.0317 10.5695 25.0412 10.5026 25.0243C10.4358 25.0073 10.3782 24.965 10.3418 24.9065C10.3054 24.8479 10.2932 24.7775 10.3076 24.71C10.322 24.6426 10.362 24.5834 10.4191 24.5448L15.8293 20.9437L10.3162 24.1251C10.2559 24.1578 10.1852 24.1659 10.119 24.1479C10.0528 24.1298 9.99608 24.0869 9.96069 24.0281C9.9253 23.9693 9.91396 23.8991 9.92902 23.8321C9.94408 23.7651 9.98438 23.7065 10.0415 23.6685L10.2757 23.5213C10.2145 23.5439 10.1471 23.5432 10.0864 23.5195C10.0257 23.4958 9.97573 23.4506 9.94604 23.3925C9.91635 23.3345 9.90897 23.2675 9.92529 23.2044C9.94161 23.1412 9.9805 23.0863 10.0346 23.0499L14.9466 19.7656L10.3157 22.4392C10.2559 22.4723 10.1857 22.4812 10.1196 22.4641C10.0535 22.447 9.99647 22.4051 9.96029 22.3472C9.92411 22.2893 9.91153 22.2197 9.92516 22.1527C9.93879 22.0858 9.97758 22.0266 10.0335 21.9875L13.6751 19.5341L10.3151 21.4733C10.2553 21.5069 10.1848 21.5161 10.1184 21.499C10.0519 21.4819 9.99463 21.4399 9.95837 21.3817C9.92211 21.3234 9.90969 21.2535 9.92369 21.1863C9.93769 21.1192 9.97703 21.06 10.0335 21.0211L11.9567 19.7315L10.3157 20.6787C10.2561 20.7106 10.1865 20.7187 10.1211 20.7014C10.0558 20.684 9.99944 20.6424 9.96357 20.585C9.92771 20.5277 9.91498 20.4588 9.92797 20.3924C9.94096 20.3261 9.9787 20.2671 10.0335 20.2275L11.0815 19.5181L10.3157 19.9597C10.257 19.9929 10.188 20.0027 10.1225 19.987C10.057 19.9714 9.99978 19.9316 9.96243 19.8755C9.92507 19.8194 9.91032 19.7513 9.92114 19.6848C9.93196 19.6183 9.96754 19.5584 10.0207 19.5171L12.3002 17.7757L10.3151 18.9213C10.2567 18.9539 10.1882 18.9633 10.1232 18.9477C10.0581 18.9322 10.0013 18.8927 9.964 18.8372C9.92668 18.7817 9.91159 18.7142 9.9217 18.6481C9.93182 18.582 9.9664 18.5221 10.0186 18.4803L11.0735 17.6595L10.3135 18.0984C10.258 18.1301 10.193 18.1408 10.1303 18.1286C10.0675 18.1164 10.0113 18.0821 9.97173 18.0319C9.93218 17.9817 9.91198 17.9189 9.91481 17.8551C9.91764 17.7912 9.94331 17.7305 9.98714 17.684L10.9855 16.6312L10.3135 17.0189C10.2599 17.0496 10.1973 17.0607 10.1363 17.0502C10.0754 17.0398 10.02 17.0086 9.97961 16.9619C9.93918 16.9151 9.91623 16.8558 9.91469 16.7941C9.91314 16.7323 9.9331 16.6719 9.97114 16.6232L10.2677 16.2467C10.2341 16.2376 10.2027 16.2219 10.1752 16.2006C10.1478 16.1792 10.1248 16.1527 10.1077 16.1224C10.0723 16.0612 10.0626 15.9885 10.0808 15.9202C10.099 15.8519 10.1436 15.7936 10.2047 15.7581L11.0725 15.2568C11.1262 15.2256 11.1891 15.2141 11.2504 15.2243C11.3117 15.2346 11.3675 15.2659 11.4081 15.3128C11.4488 15.3598 11.4718 15.4195 11.4731 15.4816C11.4744 15.5438 11.454 15.6044 11.4154 15.6531L11.249 15.8637L12.3135 15.2515C12.369 15.2194 12.4342 15.2084 12.4972 15.2204C12.5602 15.2325 12.6167 15.2668 12.6564 15.3172C12.6961 15.3675 12.7163 15.4304 12.7134 15.4945C12.7105 15.5585 12.6846 15.6194 12.6405 15.6659L11.6415 16.7192L14.1834 15.2515C14.2419 15.2174 14.3113 15.2068 14.3773 15.222C14.4433 15.2371 14.5011 15.2768 14.5389 15.333C14.5767 15.3892 14.5917 15.4577 14.5809 15.5246C14.57 15.5915 14.5341 15.6517 14.4805 15.6931L13.4239 16.5128L15.6106 15.2515C15.6693 15.2176 15.7386 15.2073 15.8046 15.2227C15.8705 15.2381 15.9282 15.278 15.9658 15.3343C16.0034 15.3907 16.0181 15.4592 16.0071 15.526C15.996 15.5929 15.9599 15.653 15.9061 15.6941L13.6255 17.4365L17.4122 15.2499C17.4721 15.2152 17.5431 15.2051 17.6103 15.2218C17.6775 15.2385 17.7355 15.2807 17.7722 15.3394C17.8088 15.3982 17.8212 15.4689 17.8066 15.5365C17.7921 15.6042 17.7518 15.6636 17.6943 15.7021L16.6453 16.4088L18.6527 15.2515C18.7127 15.2158 18.7843 15.2051 18.8521 15.2217C18.9199 15.2382 18.9785 15.2807 19.0154 15.3399C19.0522 15.3992 19.0644 15.4705 19.0492 15.5386C19.0341 15.6068 18.9928 15.6662 18.9343 15.7043L17.0106 16.9917L20.025 15.2515C20.085 15.214 20.1574 15.2019 20.2263 15.2178C20.2952 15.2337 20.355 15.2763 20.3925 15.3363C20.4299 15.3962 20.4421 15.4687 20.4262 15.5376C20.4103 15.6065 20.3676 15.6663 20.3077 15.7037L16.6666 18.1571L21.7034 15.2515C21.7632 15.2179 21.8337 15.2087 21.9001 15.2258C21.9666 15.2429 22.0239 15.2849 22.0602 15.3431C22.0964 15.4014 22.1088 15.4713 22.0948 15.5385C22.0808 15.6057 22.0415 15.6648 21.985 15.7037L17.0783 18.9859L22.6661 15.7597C22.7266 15.7248 22.7984 15.7151 22.8661 15.7326C22.9338 15.7501 22.9918 15.7935 23.0278 15.8534C23.0638 15.9133 23.0749 15.9849 23.0586 16.0529C23.0423 16.1209 23 16.1797 22.9407 16.2168L22.7935 16.3091L22.8175 16.2952C22.8775 16.2611 22.9483 16.2516 23.0151 16.2686C23.0819 16.2856 23.1396 16.3278 23.1759 16.3864C23.2123 16.4449 23.2246 16.5153 23.2101 16.5828C23.1957 16.6502 23.1557 16.7094 23.0986 16.748L17.6869 20.3475L22.8175 17.3848C22.8774 17.3517 22.9477 17.343 23.0139 17.3603C23.0801 17.3776 23.1371 17.4197 23.1731 17.4778C23.2091 17.536 23.2214 17.6057 23.2075 17.6727C23.1935 17.7397 23.1543 17.7987 23.0981 17.8376L19.1514 20.4509L22.8202 18.3331C22.8796 18.2993 22.9498 18.2897 23.0161 18.3062C23.0824 18.3227 23.1399 18.364 23.1766 18.4216C23.2134 18.4792 23.2266 18.5488 23.2136 18.6159C23.2005 18.6829 23.1622 18.7425 23.1066 18.7821L18.7823 21.8221L22.8202 19.4915C22.8797 19.4582 22.9496 19.449 23.0157 19.4657C23.0818 19.4825 23.1389 19.5238 23.1754 19.5814C23.2119 19.6389 23.225 19.7082 23.212 19.7751C23.199 19.842 23.1609 19.9014 23.1055 19.9411L20.6309 21.6632L22.8175 20.3997C22.8761 20.3672 22.9448 20.3579 23.01 20.3738C23.0751 20.3896 23.1319 20.4294 23.169 20.4852C23.2061 20.541 23.2209 20.6088 23.2103 20.675C23.1997 20.7412 23.1646 20.8009 23.1119 20.8424L20.6463 22.7181L22.8181 21.4643C22.8772 21.4303 22.9472 21.4203 23.0135 21.4364C23.0798 21.4524 23.1375 21.4933 23.1746 21.5505C23.2117 21.6078 23.2254 21.6771 23.213 21.7442C23.2005 21.8113 23.1628 21.8711 23.1077 21.9112L22.6991 22.2061L22.8181 22.1379C22.8765 22.1051 22.9452 22.0956 23.0104 22.1112C23.0756 22.1268 23.1325 22.1664 23.1699 22.2221C23.2072 22.2777 23.2222 22.3454 23.2118 22.4117C23.2015 22.4779 23.1666 22.5378 23.1141 22.5795L22.3439 23.1747L22.8181 22.9011C22.8766 22.8677 22.9456 22.8577 23.0111 22.8731C23.0767 22.8884 23.1341 22.9281 23.1716 22.984C23.2092 23.0399 23.2242 23.108 23.2136 23.1746C23.203 23.2411 23.1676 23.3012 23.1146 23.3427L22.7066 23.66L22.8181 23.596C22.8749 23.5625 22.9421 23.5513 23.0067 23.5644C23.0713 23.5776 23.1288 23.6143 23.1679 23.6673C23.2071 23.7203 23.2253 23.786 23.2189 23.8516C23.2125 23.9173 23.182 23.9782 23.1333 24.0227L21.5082 25.5384C21.538 25.5605 21.5631 25.5884 21.5818 25.6205C21.6172 25.6817 21.6269 25.7545 21.6087 25.8228C21.5905 25.8911 21.5459 25.9494 21.4847 25.9848L20.2618 26.6909C20.2212 26.7139 20.1751 26.7255 20.1285 26.7245Z" fill="#31B791"/>
    <path d="M17.8219 18.6345C17.9965 18.6345 18.1421 18.489 18.1421 18.3144C18.1421 18.1397 18.0023 18 17.8219 18H16.0289H15.307C15.1324 18 14.9868 18.1455 14.9868 18.3202C14.9868 18.4948 15.1324 18.6404 15.307 18.6404H16.0289C16.3374 18.6404 16.5994 18.8208 16.7216 19.0828H15.307C15.1324 19.0828 14.9868 19.2283 14.9868 19.403C14.9868 19.5776 15.1324 19.7232 15.307 19.7232H16.7216C16.5994 19.9851 16.3374 20.1656 16.0289 20.1656H15.307C15.1789 20.1656 15.0567 20.2471 15.0101 20.3635C14.9635 20.4858 14.9926 20.6255 15.0858 20.7128L16.8846 22.4127C16.9428 22.4709 17.0243 22.5 17.1058 22.5C17.1932 22.5 17.2747 22.4651 17.3387 22.401C17.4609 22.273 17.4551 22.075 17.3271 21.9528L16.1045 20.8001C16.7333 20.7652 17.2514 20.3169 17.3911 19.7232H17.8277C18.0023 19.7232 18.1479 19.5776 18.1479 19.403C18.1479 19.2283 18.0023 19.0828 17.8277 19.0828H17.3911C17.3503 18.9256 17.2921 18.7684 17.199 18.6404L17.8219 18.6345Z" fill="#262626"/>
    <path d="M7.58002 31.5664C8.36295 31.9461 9.58055 31.7541 10.4067 31.7541H16.9886C19.2286 31.7541 21.4835 31.8331 23.7214 31.7541C25.0974 31.7056 26.108 31.4197 26.4568 29.9611C26.4795 29.9242 26.4917 29.8817 26.492 29.8384V7.47947C26.492 5.87254 27.3299 1.36053 25.42 0.433601C24.6371 0.0533339 23.4195 0.245867 22.5934 0.245867H16.0115C13.7715 0.245867 11.5166 0.166934 9.27868 0.245867C7.90268 0.294401 6.89202 0.580267 6.54322 2.03893C6.52053 2.07585 6.50836 2.11827 6.50802 2.1616V24.5205C6.50802 26.1275 5.67015 30.6395 7.58002 31.5664ZM12.9267 0.820801H20.4728C22.0195 0.820801 25.0467 0.131201 25.708 2.17493C25.7848 2.44077 25.825 2.71584 25.8275 2.99253C24.5662 2.90773 22.5464 2.56 21.6382 3.2384C21.1416 3.61173 21.2504 4.3584 20.8179 4.61014C20.1779 4.97867 18.171 4.61014 17.4494 4.61014H13.5246C13.1536 4.66918 12.7756 4.66918 12.4046 4.61014C11.883 4.35947 12.0222 3.78187 11.676 3.46133C10.6952 2.55467 8.66748 2.95787 7.29362 3.00533V2.10507C7.70375 0.064534 11.6019 0.820801 12.9267 0.820801ZM7.29202 26.6384V3.37333C8.16404 3.27429 9.04478 3.27984 9.91548 3.38987C11.0099 3.61707 10.7896 4.4784 11.6163 4.91947C12.8691 5.58774 15.7667 4.98987 17.1331 4.98987C18.1998 4.98987 20.4776 5.46987 21.4595 4.78453C22.1054 4.33387 21.8584 3.65813 22.5832 3.38987C23.4184 3.08053 24.8766 3.36427 25.8291 3.38613C25.8104 4.07947 25.708 4.816 25.708 5.35947V29.8928C25.2963 31.9333 21.3982 31.1771 20.0723 31.1771H12.5272C10.9806 31.1771 7.95335 31.8667 7.29202 29.8229C7.01148 28.96 7.29202 27.5355 7.29202 26.6384Z" fill="#262626"/>
    <path d="M11.4559 15.2371C10.2293 15.3897 9.85912 15.9203 9.77965 17.0947C9.60445 19.2823 9.60445 21.4805 9.77965 23.6681C10.1039 26.9443 16.0314 24.6841 18.1743 25.3001C18.9594 25.5251 19.5647 27.043 20.721 26.8585C21.5151 26.7315 21.4949 26.3785 21.7541 25.7619C21.9226 25.3609 21.8714 25.2755 21.7877 25.2857C21.9967 25.1603 22.4127 25.2131 22.6383 25.0723C23.9845 24.2323 23.3541 21.2521 23.3541 19.9699C23.3541 18.4819 23.9845 15.8633 22.2341 15.2857C22.2049 15.2651 22.1709 15.2524 22.1354 15.2489C22.1075 15.2419 22.0788 15.238 22.0501 15.2371C18.5935 15.2371 14.8789 14.8131 11.4559 15.2371ZM21.5141 24.8371C21.3839 24.8371 20.9807 24.9091 20.9807 25.1134C20.9807 27.2793 19.7919 25.1827 18.9354 24.8467C18.0789 24.5107 16.5199 24.835 15.6229 24.835C14.4943 24.835 12.5589 25.2233 11.4911 24.835C9.99779 24.2931 10.5551 21.6627 10.5551 20.4755C10.5551 19.3747 10.1989 17.5838 10.5551 16.5331C10.9818 15.2761 12.4826 15.6979 13.5615 15.6979H21.6927C23.2191 16.1571 22.5797 19.7358 22.5797 20.8179C22.5797 21.755 23.1578 24.8371 21.5141 24.8371Z" fill="#262626"/>
    <path d="M14.2067 2.84746H14.74C14.8345 2.85134 14.9287 2.83604 15.0171 2.80249C15.1054 2.76894 15.1861 2.71784 15.2542 2.65226C15.3475 2.50826 15.1736 2.48586 15.0611 2.48586H14.5278C14.4333 2.48199 14.3391 2.49729 14.2507 2.53084C14.1624 2.56439 14.0817 2.61549 14.0136 2.68106C13.9198 2.82666 14.0936 2.84746 14.2067 2.84746Z" fill="#262626"/>
    <path d="M16.883 2.88586H18.483C18.6387 2.88586 18.916 2.83253 18.9934 2.6752C19.0707 2.51786 18.9294 2.44746 18.7838 2.44746H17.1838C17.028 2.44746 16.7507 2.5008 16.6734 2.65813C16.596 2.81546 16.7374 2.88586 16.883 2.88586Z" fill="#262626"/>
    <path d="M13.9933 29.1509C13.7496 29.1509 13.1587 29.5157 13.6733 29.5157H19.0067C19.2504 29.5157 19.8413 29.1509 19.3267 29.1509H13.9933Z" fill="#262626"/>
    <path d="M16.5003 7.14648L14.1471 9.97034H15.0884V12.336H17.9122V9.97034H18.8535L16.5003 7.14648Z" fill="#E2AF40"/>
    <path d="M14.1468 10.1174H14.9413V12.4808C14.9413 12.5618 15.007 12.6275 15.0881 12.6275C15.1691 12.6275 15.2348 12.5618 15.2348 12.4808V9.97066C15.2348 9.8896 15.1691 9.82388 15.0881 9.82388H14.4602L16.5 7.37605L18.5398 9.82386H17.9119C17.8309 9.82386 17.7651 9.88958 17.7651 9.97064V12.4807C17.7651 12.5618 17.8309 12.6275 17.9119 12.6275C17.993 12.6275 18.0587 12.5618 18.0587 12.4807V10.1174H18.8532C18.9102 10.1174 18.962 10.0845 18.9861 10.0329C19.0103 9.98135 19.0024 9.92044 18.966 9.8767L16.6128 7.05282C16.5849 7.01936 16.5436 7 16.5 7C16.4564 7 16.4151 7.01936 16.3872 7.05282L14.034 9.87668C13.9976 9.92042 13.9897 9.98133 14.0139 10.0329C14.038 10.0845 14.0898 10.1174 14.1468 10.1174Z" fill="black"/>
</svg>