<svg width="33" height="32" viewBox="0 0 33 32" fill="none" xmlns="http://www.w3.org/2000/svg">
    <g clip-path="url(#clip0_1_1512)">
        <path d="M18.7778 31.2C18.7254 31.2001 18.6741 31.1847 18.6303 31.1559C18.5866 31.127 18.5523 31.0858 18.5318 31.0375C18.5113 30.9893 18.5055 30.936 18.5151 30.8845C18.5247 30.833 18.5493 30.7854 18.5858 30.7477L19.3106 30.0011L18.7773 30.3093C18.7328 30.3351 18.6819 30.3475 18.6305 30.3451C18.5792 30.3426 18.5296 30.3253 18.4879 30.2953C18.4461 30.2653 18.4139 30.2239 18.3952 30.1761C18.3764 30.1282 18.3718 30.076 18.3821 30.0256L18.5463 29.2256C18.4982 29.2086 18.456 29.1782 18.4246 29.138C18.3933 29.0977 18.3741 29.0493 18.3695 28.9985C18.3648 28.9476 18.3748 28.8966 18.3983 28.8513C18.4218 28.806 18.4578 28.7684 18.5021 28.7429L18.7687 28.5899C18.8132 28.5642 18.8642 28.5519 18.9155 28.5544C18.9668 28.557 19.0163 28.5744 19.058 28.6044C19.0997 28.6344 19.1318 28.6759 19.1505 28.7237C19.1692 28.7716 19.1737 28.8238 19.1634 28.8741L19.0221 29.5467L20.6914 28.5835C20.7471 28.5513 20.8125 28.5404 20.8756 28.5526C20.9387 28.5649 20.9952 28.5995 21.0348 28.6501C21.0744 28.7008 21.0944 28.764 21.0911 28.8282C21.0877 28.8924 21.0614 28.9532 21.0167 28.9995L20.2919 29.7461L22.3133 28.5867C22.3706 28.5544 22.4378 28.5444 22.502 28.5587C22.5663 28.5729 22.6229 28.6104 22.6612 28.664C22.6994 28.7175 22.7165 28.7833 22.7092 28.8486C22.7019 28.914 22.6707 28.9744 22.6215 29.0181L22.2685 29.3259L23.5485 28.5867C23.6033 28.5553 23.6675 28.5444 23.7296 28.556C23.7917 28.5675 23.8477 28.6008 23.8876 28.6498C23.9275 28.6988 23.9487 28.7603 23.9475 28.8235C23.9462 28.8866 23.9226 28.9473 23.8807 28.9947L23.1053 29.8619L27.0178 27.6037C27.0764 27.5708 27.1452 27.5611 27.2106 27.5768C27.2759 27.5924 27.333 27.6321 27.3703 27.688C27.4077 27.7438 27.4225 27.8117 27.4119 27.8781C27.4014 27.9444 27.3661 28.0044 27.3133 28.0459L26.5047 28.6672L26.9933 28.3856C27.0496 28.3522 27.1163 28.3407 27.1806 28.3533C27.2449 28.3659 27.3023 28.4017 27.3419 28.4539C27.3814 28.5062 27.4004 28.5711 27.3951 28.6364C27.3898 28.7017 27.3607 28.7628 27.3133 28.808L26.5015 29.5952L26.5127 29.5893C26.5737 29.5575 26.6446 29.5504 26.7107 29.5695C26.7767 29.5887 26.8328 29.6326 26.8672 29.6922C26.9016 29.7517 26.9117 29.8223 26.8954 29.8891C26.879 29.9559 26.8375 30.0138 26.7794 30.0507L24.9031 31.1339C24.8468 31.1673 24.7801 31.1788 24.7158 31.1662C24.6515 31.1536 24.5941 31.1177 24.5546 31.0655C24.515 31.0133 24.4961 30.9483 24.5013 30.883C24.5066 30.8177 24.5357 30.7567 24.5831 30.7115L25.3954 29.92L23.2653 31.1467C23.2067 31.1803 23.1375 31.1904 23.0718 31.175C23.006 31.1597 22.9485 31.1199 22.9109 31.0637C22.8734 31.0076 22.8585 30.9393 22.8693 30.8726C22.8801 30.806 22.9159 30.7459 22.9693 30.7045L23.7778 30.0837L21.9293 31.1504C21.8744 31.1821 21.81 31.1932 21.7476 31.1817C21.6853 31.1702 21.6291 31.1369 21.5891 31.0877C21.5491 31.0385 21.5279 30.9767 21.5293 30.9133C21.5308 30.8499 21.5548 30.7892 21.597 30.7419L22.3725 29.8747L20.1538 31.1547C20.0964 31.1881 20.0286 31.1989 19.9637 31.185C19.8987 31.171 19.8413 31.1334 19.8027 31.0793C19.764 31.0253 19.747 30.9588 19.7548 30.8928C19.7626 30.8268 19.7948 30.7662 19.845 30.7227L20.1986 30.4144L18.9111 31.1579C18.8713 31.1837 18.8252 31.1982 18.7778 31.2Z" fill="#5BBAB7"/>
        <path d="M25.0493 28.1931C24.9982 28.193 24.9482 28.1783 24.9052 28.1507C24.8623 28.1231 24.8281 28.0837 24.8069 28.0372C24.7857 27.9908 24.7782 27.9392 24.7854 27.8886C24.7927 27.8381 24.8143 27.7906 24.8477 27.752L25.909 26.528L25.1826 26.9472C25.128 26.9786 25.0641 26.9897 25.0021 26.9785C24.9401 26.9673 24.8841 26.9345 24.844 26.886C24.8039 26.8374 24.7822 26.7762 24.7829 26.7132C24.7836 26.6502 24.8065 26.5895 24.8477 26.5419L25.908 25.3211L25.1826 25.7392C25.1269 25.771 25.0615 25.7816 24.9986 25.7691C24.9356 25.7565 24.8793 25.7217 24.8399 25.671C24.8006 25.6203 24.7808 25.5571 24.7843 25.493C24.7878 25.4289 24.8143 25.3683 24.8589 25.3221L25.4989 24.6651L25.1821 24.848C25.137 24.8739 25.0853 24.8861 25.0334 24.883C24.9815 24.88 24.9316 24.8618 24.8899 24.8307C24.8482 24.7997 24.8164 24.7571 24.7986 24.7082C24.7808 24.6594 24.7776 24.6064 24.7896 24.5557L24.9496 23.8837C24.894 23.8618 24.8475 23.8215 24.8178 23.7696C24.7825 23.7083 24.7729 23.6356 24.7912 23.5672C24.8095 23.4989 24.8542 23.4407 24.9154 23.4053L25.1858 23.2496C25.231 23.2236 25.2827 23.2114 25.3347 23.2145C25.3867 23.2175 25.4366 23.2358 25.4784 23.2669C25.5201 23.298 25.5518 23.3407 25.5696 23.3897C25.5874 23.4386 25.5904 23.4917 25.5784 23.5424L25.4514 24.0757L26.9069 23.2352C26.9627 23.203 27.0283 23.1921 27.0916 23.2045C27.1548 23.217 27.2114 23.2519 27.2509 23.3028C27.2904 23.3537 27.3101 23.4173 27.3063 23.4816C27.3026 23.5459 27.2757 23.6067 27.2306 23.6528L26.5906 24.3088L27.0173 24.0629C27.0719 24.0312 27.1361 24.0199 27.1983 24.031C27.2605 24.0421 27.3167 24.075 27.357 24.1238C27.3972 24.1725 27.4188 24.2339 27.4179 24.2971C27.4171 24.3603 27.3938 24.4212 27.3522 24.4688L26.292 25.6912L27.0173 25.2731C27.0718 25.2419 27.1356 25.2311 27.1973 25.2423C27.2591 25.2536 27.3149 25.2863 27.3549 25.3347C27.3949 25.383 27.4166 25.444 27.4161 25.5068C27.4156 25.5695 27.393 25.6301 27.3522 25.6779L26.2914 26.9008L27.0173 26.4821C27.0785 26.4473 27.151 26.4381 27.219 26.4566C27.2869 26.475 27.3448 26.5196 27.38 26.5806C27.4152 26.6416 27.4249 26.714 27.4069 26.7821C27.3889 26.8502 27.3447 26.9084 27.284 26.944L25.1826 28.16C25.1419 28.1827 25.0959 28.1941 25.0493 28.1931Z" fill="#5BBAB7"/>
        <path d="M25.4114 15.2C25.3581 15.2 25.3061 15.184 25.2619 15.1542C25.2178 15.1243 25.1836 15.0819 25.1638 15.0324C25.144 14.9829 25.1395 14.9287 25.1508 14.8766C25.1622 14.8245 25.1888 14.777 25.2274 14.7403L25.3549 14.6192L25.1826 14.7184C25.1278 14.7501 25.0635 14.7613 25.0012 14.75C24.9389 14.7386 24.8827 14.7055 24.8426 14.6565C24.8025 14.6074 24.7812 14.5458 24.7824 14.4825C24.7836 14.4192 24.8073 14.3584 24.8493 14.3109L25.877 13.1461L25.1837 13.5467C25.1289 13.5784 25.0646 13.5896 25.0023 13.5782C24.94 13.5669 24.8838 13.5337 24.8437 13.4847C24.8036 13.4357 24.7823 13.374 24.7835 13.3107C24.7847 13.2474 24.8084 13.1866 24.8504 13.1392L25.8637 11.992L25.1842 12.3845C25.1286 12.4163 25.0635 12.4269 25.0006 12.4146C24.9378 12.4023 24.8815 12.3678 24.8421 12.3173C24.8026 12.2669 24.7826 12.204 24.7857 12.1401C24.7888 12.0761 24.8148 12.0154 24.8589 11.9691L25.5885 11.2091L25.1842 11.4421C25.1288 11.4738 25.0639 11.4846 25.0013 11.4725C24.9386 11.4605 24.8824 11.4263 24.8427 11.3763C24.8031 11.3263 24.7827 11.2637 24.7853 11.1999C24.7879 11.1362 24.8132 11.0755 24.8568 11.0288L25.5106 10.3355L25.1346 10.552C25.0799 10.5834 25.0159 10.5944 24.9539 10.583C24.8918 10.5717 24.8358 10.5387 24.7958 10.49C24.7558 10.4413 24.7343 10.3799 24.7352 10.3169C24.7361 10.2538 24.7593 10.1932 24.8008 10.1456L25.4674 9.3872L24.9874 9.6624C24.933 9.69353 24.8692 9.70445 24.8075 9.69325C24.7458 9.68205 24.69 9.64944 24.6499 9.60116C24.6098 9.55288 24.5881 9.49201 24.5885 9.42927C24.5888 9.36653 24.6113 9.30593 24.652 9.25813L25.2456 8.5648L24.7656 8.84266C24.7107 8.87403 24.6465 8.8849 24.5844 8.87334C24.5223 8.86179 24.4663 8.82856 24.4264 8.77957C24.3865 8.73058 24.3653 8.66902 24.3666 8.60585C24.3678 8.54269 24.3915 8.48202 24.4333 8.43466L24.8824 7.9296L24.5 8.14773C24.4445 8.17944 24.3796 8.19019 24.3169 8.17805C24.2542 8.1659 24.1979 8.13166 24.1583 8.08155C24.1187 8.03144 24.0984 7.96878 24.1011 7.90498C24.1038 7.84117 24.1293 7.78045 24.173 7.73386L24.4397 7.45386L24.2296 7.5744C24.1745 7.60573 24.11 7.6164 24.0477 7.60451C23.9855 7.59262 23.9295 7.55893 23.8898 7.50949C23.8501 7.46006 23.8293 7.3981 23.8312 7.33474C23.8331 7.27138 23.8574 7.21075 23.9 7.16373L24.1938 6.84373L23.9042 7.0112C23.8494 7.04291 23.785 7.05405 23.7227 7.04264C23.6604 7.03122 23.6042 6.99799 23.5641 6.94889C23.5241 6.89979 23.5028 6.83804 23.5042 6.7747C23.5055 6.71136 23.5293 6.65056 23.5714 6.6032L23.9032 6.22986L23.5197 6.4512C23.4674 6.48123 23.4065 6.49266 23.3469 6.48362C23.2873 6.47458 23.2325 6.4456 23.1915 6.40142C23.1504 6.35724 23.1256 6.30045 23.121 6.24034C23.1164 6.18022 23.1323 6.12031 23.1661 6.0704L23.7304 5.24266L22.9133 5.71413C22.8592 5.74513 22.796 5.75622 22.7346 5.74547C22.6732 5.73471 22.6176 5.7028 22.5773 5.65527C22.537 5.60774 22.5146 5.54759 22.514 5.48527C22.5134 5.42295 22.5347 5.3624 22.5741 5.31413L22.9672 4.83413L22.372 5.1776C22.3179 5.20863 22.2548 5.21977 22.1934 5.20909C22.132 5.19841 22.0763 5.16658 22.036 5.11913C21.9956 5.07168 21.9732 5.0116 21.9725 4.94931C21.9718 4.88702 21.9929 4.82646 22.0322 4.77813L22.4242 4.29813L21.7741 4.67146C21.7196 4.70071 21.6567 4.71013 21.5961 4.69811C21.5354 4.68609 21.4808 4.65338 21.4417 4.60556C21.4025 4.55775 21.3811 4.49781 21.3813 4.43599C21.3814 4.37417 21.403 4.31432 21.4424 4.26666L21.7266 3.94666L21.1874 4.25813C21.1315 4.28887 21.0664 4.29852 21.0039 4.28533C20.9414 4.27213 20.8858 4.23697 20.847 4.18623C20.8083 4.13548 20.7891 4.07253 20.7928 4.0088C20.7965 3.94507 20.823 3.8848 20.8674 3.83893L20.9304 3.776L20.6498 3.936C20.5992 3.96517 20.5403 3.97689 20.4824 3.96936C20.4244 3.96183 20.3705 3.93546 20.329 3.89431C20.2875 3.85316 20.2606 3.7995 20.2526 3.74161C20.2446 3.68371 20.2558 3.62477 20.2845 3.57386L20.8248 2.61333L19.4642 3.3984C19.4091 3.43008 19.3445 3.44104 19.282 3.42928C19.2195 3.41753 19.1633 3.38384 19.1235 3.33429C19.0836 3.28474 19.0628 3.22259 19.0648 3.15905C19.0667 3.09551 19.0913 3.03475 19.1341 2.98773L19.4605 2.632L18.596 3.13066C18.5431 3.16119 18.4815 3.17268 18.4212 3.16323C18.3609 3.15377 18.3057 3.12394 18.2648 3.0787C18.2239 3.03347 18.1997 2.97556 18.1963 2.91465C18.1929 2.85374 18.2105 2.79351 18.2461 2.744L18.8152 1.9568L17.18 2.90026C17.1232 2.93149 17.057 2.94099 16.9938 2.92699C16.9306 2.913 16.8746 2.87646 16.8363 2.82421C16.798 2.77195 16.7801 2.70755 16.7858 2.64303C16.7915 2.57852 16.8205 2.51829 16.8674 2.4736L16.9992 2.35413L16.0434 2.90453C15.987 2.93909 15.9196 2.95141 15.8546 2.93908C15.7895 2.92675 15.7314 2.89067 15.6915 2.83785C15.6516 2.78502 15.6327 2.71924 15.6386 2.65329C15.6445 2.58735 15.6748 2.52596 15.7234 2.48106L16.2184 2.00853L13.8296 3.38826C13.7683 3.42307 13.6958 3.43225 13.6279 3.4138C13.5599 3.39535 13.502 3.35077 13.4668 3.28978C13.4316 3.2288 13.422 3.15636 13.44 3.08829C13.4579 3.02021 13.5021 2.96201 13.5629 2.9264L17.8717 0.438931C17.9282 0.404371 17.9955 0.392056 18.0605 0.404382C18.1256 0.416707 18.1837 0.452792 18.2236 0.505616C18.2636 0.55844 18.2824 0.624224 18.2765 0.690169C18.2706 0.756115 18.2404 0.817506 18.1917 0.862397L17.6973 1.33493L18.8882 0.647997C18.945 0.616774 19.0112 0.607273 19.0744 0.621269C19.1376 0.635265 19.1936 0.671802 19.2319 0.724056C19.2702 0.776309 19.2881 0.840708 19.2824 0.905227C19.2767 0.969746 19.2476 1.02997 19.2008 1.07466L19.0685 1.19413L19.6301 0.870397C19.6829 0.839871 19.7446 0.828378 19.8049 0.837834C19.8651 0.84729 19.9203 0.877124 19.9613 0.92236C20.0022 0.967596 20.0264 1.0255 20.0298 1.08641C20.0332 1.14732 20.0156 1.20755 19.98 1.25706L19.4088 2.04586L20.6962 1.3024C20.7514 1.27071 20.8161 1.25979 20.8786 1.27161C20.9411 1.28343 20.9973 1.31721 21.0371 1.36686C21.0769 1.4165 21.0976 1.47873 21.0956 1.54231C21.0935 1.6059 21.0688 1.66665 21.0258 1.7136L20.7 2.06933L21.4066 1.6624C21.4571 1.63335 21.5158 1.62163 21.5735 1.62905C21.6313 1.63646 21.6851 1.6626 21.7266 1.70346C21.7681 1.74455 21.7949 1.7981 21.803 1.85591C21.8111 1.91371 21.8 1.97257 21.7714 2.02346L21.2253 2.98666L22.4157 2.2992C22.4717 2.26806 22.5371 2.25815 22.5998 2.27126C22.6625 2.28438 22.7184 2.31964 22.7573 2.37061C22.7962 2.42158 22.8154 2.48483 22.8114 2.5488C22.8074 2.61276 22.7806 2.67316 22.7357 2.71893L22.6744 2.78026L22.8877 2.656C22.9426 2.62429 23.007 2.61319 23.0693 2.62467C23.1317 2.63616 23.1879 2.66948 23.2279 2.71867C23.2679 2.76785 23.2891 2.82968 23.2876 2.89307C23.2862 2.95645 23.2622 3.01724 23.22 3.06453L22.9378 3.38133L23.4178 3.10506C23.4718 3.07435 23.5349 3.06345 23.5961 3.07426C23.6572 3.08506 23.7127 3.11689 23.7529 3.16425C23.7932 3.21161 23.8156 3.27153 23.8163 3.33366C23.8171 3.39578 23.7961 3.45622 23.757 3.50453L23.365 3.98453L23.9682 3.63626C24.0223 3.60494 24.0856 3.59361 24.1472 3.60423C24.2088 3.61485 24.2647 3.64676 24.3051 3.69439C24.3456 3.74201 24.368 3.80233 24.3685 3.86481C24.3691 3.9273 24.3476 3.98798 24.308 4.03626L23.9144 4.51626L24.4738 4.19306C24.5261 4.16303 24.587 4.1516 24.6466 4.16064C24.7063 4.16968 24.761 4.19866 24.8021 4.24284C24.8431 4.28702 24.8679 4.34381 24.8725 4.40392C24.8771 4.46404 24.8612 4.52395 24.8274 4.57386L24.2637 5.4016L25.0568 4.94346C25.1116 4.91175 25.176 4.90061 25.2383 4.91203C25.3006 4.92344 25.3568 4.95668 25.3969 5.00577C25.4369 5.05487 25.4582 5.11662 25.4568 5.17996C25.4555 5.24331 25.4316 5.3041 25.3896 5.35146L25.0578 5.7248L25.4312 5.51146C25.4863 5.48013 25.5507 5.46946 25.613 5.48135C25.6753 5.49325 25.7313 5.52693 25.7709 5.57637C25.8106 5.6258 25.8314 5.68776 25.8295 5.75112C25.8277 5.81448 25.8033 5.87511 25.7608 5.92213L25.4669 6.24213L25.7581 6.07466C25.8135 6.04258 25.8787 6.03153 25.9416 6.04353C26.0045 6.05553 26.061 6.08978 26.1008 6.14001C26.1405 6.19025 26.1609 6.25311 26.1581 6.3171C26.1553 6.3811 26.1295 6.44195 26.0856 6.48853L25.8189 6.768L26.0413 6.64C26.0961 6.60829 26.1605 6.59714 26.2228 6.60856C26.2851 6.61998 26.3414 6.65321 26.3814 6.70231C26.4214 6.7514 26.4427 6.81315 26.4414 6.8765C26.44 6.93984 26.4162 7.00064 26.3741 7.048L25.925 7.55306L26.3314 7.3184C26.3859 7.28727 26.4496 7.27634 26.5113 7.28754C26.5731 7.29874 26.6289 7.33135 26.669 7.37964C26.709 7.42792 26.7308 7.48878 26.7304 7.55152C26.73 7.61427 26.7075 7.67487 26.6669 7.72266L26.0733 8.416L26.5976 8.1136C26.6523 8.08187 26.7166 8.07064 26.7788 8.08192C26.8411 8.0932 26.8973 8.12625 26.9374 8.17517C26.9776 8.22409 26.999 8.28569 26.9979 8.34896C26.9968 8.41222 26.9732 8.47304 26.9314 8.52053L26.269 9.28L26.813 8.9664C26.8684 8.9347 26.9333 8.92391 26.996 8.93599C27.0586 8.94807 27.1149 8.98222 27.1545 9.03224C27.1941 9.08226 27.2145 9.14482 27.2119 9.20858C27.2094 9.27234 27.184 9.33307 27.1405 9.37973L26.4882 10.0731L26.948 9.8064C27.0036 9.77466 27.0687 9.76398 27.1315 9.77632C27.1944 9.78865 27.2506 9.82318 27.2901 9.87358C27.3296 9.92399 27.3496 9.98691 27.3465 10.0509C27.3434 10.1148 27.3174 10.1755 27.2733 10.2219L26.5437 10.9819L27.0093 10.7152C27.0641 10.6835 27.1284 10.6723 27.1907 10.6836C27.253 10.695 27.3092 10.7281 27.3493 10.7771C27.3894 10.8261 27.4107 10.8878 27.4095 10.9511C27.4083 11.0144 27.3846 11.0752 27.3426 11.1227L26.3298 12.2667L27.0232 11.8677C27.078 11.836 27.1423 11.8248 27.2045 11.8362C27.2668 11.8475 27.3231 11.8807 27.3632 11.9297C27.4032 11.9787 27.4246 12.0404 27.4234 12.1037C27.4221 12.167 27.3984 12.2278 27.3565 12.2752L26.3277 13.44L27.0258 13.0368C27.0538 13.0158 27.0857 13.0005 27.1196 12.9918C27.1536 12.9831 27.1889 12.9812 27.2235 12.9861C27.2582 12.9911 27.2916 13.0028 27.3217 13.0207C27.3518 13.0385 27.3781 13.0621 27.3992 13.0901C27.4202 13.1181 27.4355 13.15 27.4442 13.1839C27.4528 13.2179 27.4548 13.2532 27.4498 13.2878C27.4449 13.3225 27.4331 13.3559 27.4153 13.386C27.3974 13.4161 27.3738 13.4425 27.3458 13.4635L27.141 13.6587C27.2112 13.6531 27.2809 13.6747 27.3357 13.7189C27.3776 13.7538 27.4079 13.8006 27.4224 13.8531C27.4369 13.9057 27.4349 13.9614 27.4168 14.0128L27.2568 14.4672C27.3042 14.4845 27.3458 14.5149 27.3767 14.5548C27.4075 14.5948 27.4264 14.6427 27.4311 14.693C27.4358 14.7433 27.4261 14.7939 27.4032 14.8389C27.3802 14.8839 27.345 14.9214 27.3016 14.9472L26.9464 15.1525C26.8991 15.1799 26.8446 15.1922 26.7902 15.1876C26.7358 15.183 26.6841 15.1619 26.6421 15.127C26.6001 15.0921 26.5699 15.0451 26.5554 14.9925C26.5409 14.9398 26.543 14.884 26.5613 14.8325L26.6738 14.5125L25.5474 15.1632C25.5063 15.1877 25.4593 15.2004 25.4114 15.2Z" fill="#5BBAB7"/>
        <path d="M6.56451 15.1947C6.51553 15.1942 6.46761 15.1803 6.42601 15.1544C6.38442 15.1286 6.35075 15.0917 6.32871 15.048C6.30667 15.0042 6.29711 14.9553 6.30107 14.9064C6.30504 14.8576 6.32237 14.8108 6.35118 14.7712L7.00664 13.8667L5.98264 14.4533C5.9279 14.4847 5.86381 14.4957 5.80175 14.4843C5.73969 14.4728 5.6837 14.4398 5.64371 14.391C5.60373 14.3422 5.58235 14.2807 5.58337 14.2177C5.5844 14.1546 5.60776 14.0939 5.64931 14.0464L6.66958 12.8928L5.98264 13.2891C5.92586 13.3211 5.8593 13.3313 5.79554 13.3176C5.73178 13.3039 5.67525 13.2673 5.63663 13.2148C5.59801 13.1623 5.57998 13.0974 5.58595 13.0324C5.59193 12.9675 5.62149 12.907 5.66904 12.8624L5.98904 12.568L5.98264 12.5717C5.9279 12.6031 5.86381 12.6141 5.80175 12.6027C5.73969 12.5912 5.6837 12.5582 5.64371 12.5094C5.60373 12.4606 5.58235 12.3991 5.58337 12.3361C5.5844 12.273 5.60776 12.2123 5.64931 12.1648L6.78318 10.8821L5.98318 11.3429C5.92741 11.3751 5.86187 11.386 5.79869 11.3736C5.7355 11.3613 5.67892 11.3265 5.6394 11.2756C5.59987 11.2248 5.58008 11.1614 5.58367 11.0971C5.58725 11.0328 5.61398 10.972 5.65891 10.9259L6.87278 9.67946L6.06371 10.1467C6.00643 10.1799 5.93885 10.1906 5.87411 10.1767C5.80937 10.1628 5.75211 10.1254 5.71346 10.0716C5.67481 10.0179 5.65753 9.95168 5.665 9.8859C5.67246 9.82011 5.70413 9.75945 5.75384 9.71573L6.73998 8.85333L6.24718 9.1376C6.18924 9.17057 6.12106 9.18064 6.05606 9.16584C5.99107 9.15104 5.93397 9.11243 5.89603 9.05762C5.85808 9.00281 5.84204 8.93578 5.85107 8.86974C5.86009 8.80369 5.89352 8.74342 5.94478 8.70079L7.36771 7.53226L6.58904 7.98186C6.52901 8.01667 6.45776 8.0267 6.39045 8.00983C6.32313 7.99296 6.26505 7.9505 6.22853 7.89149C6.19201 7.83248 6.17993 7.76155 6.19487 7.69378C6.2098 7.62601 6.25057 7.56673 6.30851 7.52853L9.93518 5.12533L7.12451 6.74826C7.06549 6.78157 6.99599 6.79116 6.93015 6.77507C6.86431 6.75899 6.80707 6.71843 6.77006 6.66166C6.73304 6.60488 6.71904 6.53614 6.73088 6.46941C6.74273 6.40268 6.77955 6.34296 6.83384 6.30239L10.8248 3.38773L8.42478 4.77439C8.3656 4.80836 8.29565 4.81834 8.22932 4.8023C8.163 4.78625 8.10536 4.74538 8.06825 4.68812C8.03115 4.63086 8.0174 4.56155 8.02985 4.49446C8.0423 4.42737 8.08 4.3676 8.13518 4.32746L9.75491 3.15413C9.72618 3.13245 9.70206 3.10525 9.68398 3.07413C9.64857 3.01294 9.63891 2.94021 9.65711 2.8719C9.67531 2.8036 9.71989 2.74531 9.78104 2.70986L12.7213 1.01333C12.7804 0.98046 12.8497 0.971253 12.9153 0.98757C12.9809 1.00389 13.0379 1.04451 13.0747 1.10122C13.1115 1.15793 13.1254 1.2265 13.1135 1.29305C13.1017 1.35961 13.065 1.41918 13.0109 1.45973L12.6712 1.70559L14.8616 0.438928C14.9206 0.405616 14.9901 0.396029 15.0559 0.412115C15.1218 0.428202 15.179 0.468755 15.216 0.525531C15.253 0.582308 15.2671 0.651048 15.2552 0.717781C15.2434 0.784513 15.2065 0.84423 15.1522 0.884794L11.1618 3.79893L17.133 0.351994C17.193 0.317487 17.2639 0.307599 17.331 0.324414C17.3981 0.34123 17.456 0.383435 17.4925 0.442128C17.5292 0.501036 17.5415 0.571927 17.5267 0.639745C17.512 0.707562 17.4714 0.766962 17.4136 0.805328L10.2765 5.53706C10.3101 5.59192 10.3226 5.65705 10.312 5.72046C10.3013 5.78387 10.268 5.84129 10.2184 5.88213L8.79758 7.04906L8.80878 7.04213C8.86612 7.00881 8.93381 6.99806 8.99866 7.01196C9.0635 7.02586 9.12083 7.06343 9.15947 7.11732C9.19811 7.17122 9.21528 7.23758 9.20764 7.30345C9.19999 7.36932 9.16807 7.42998 9.11811 7.47359L8.13304 8.33866L8.27811 8.25546C8.33382 8.22369 8.39911 8.21307 8.46202 8.22553C8.52492 8.23798 8.58124 8.2727 8.62063 8.3233C8.66002 8.3739 8.67986 8.43701 8.67651 8.50105C8.67316 8.56509 8.64684 8.62578 8.60238 8.672L7.38691 9.92L7.93304 9.6048C7.98778 9.57341 8.05188 9.56245 8.11394 9.57387C8.17599 9.58529 8.23199 9.61834 8.27198 9.66715C8.31196 9.71597 8.33334 9.77738 8.33232 9.84047C8.33129 9.90356 8.30793 9.96424 8.26638 10.0117L7.13304 11.2917L7.81944 10.896C7.87622 10.8639 7.94279 10.8538 8.00655 10.8675C8.0703 10.8811 8.12684 10.9177 8.16546 10.9703C8.20408 11.0228 8.22211 11.0877 8.21613 11.1526C8.21016 11.2175 8.1806 11.278 8.13304 11.3227L7.81304 11.616L7.81944 11.6123C7.87424 11.5805 7.93854 11.5694 8.00083 11.5807C8.06312 11.5921 8.11935 11.6252 8.15944 11.6742C8.19953 11.7232 8.22087 11.7849 8.21965 11.8482C8.21843 11.9115 8.19473 11.9723 8.15278 12.0197L7.13198 13.1739L7.82531 12.7744C7.87828 12.744 7.94007 12.7328 8.00035 12.7425C8.06063 12.7522 8.11575 12.7823 8.15651 12.8277C8.19755 12.8731 8.22175 12.9312 8.22505 12.9922C8.22835 13.0533 8.21055 13.1137 8.17464 13.1632L7.51704 14.0699L7.83011 13.8891C7.87697 13.8619 7.93098 13.8496 7.98497 13.8539C8.03896 13.8582 8.09036 13.8789 8.13234 13.9131C8.17432 13.9473 8.20488 13.9935 8.21997 14.0455C8.23505 14.0975 8.23394 14.1529 8.21678 14.2043L8.10584 14.5355C8.14402 14.5585 8.17561 14.591 8.19758 14.6299C8.23277 14.6911 8.24226 14.7637 8.22396 14.8319C8.20567 14.9001 8.16108 14.9582 8.09998 14.9936L7.83011 15.1493C7.78326 15.1763 7.72932 15.1884 7.67544 15.184C7.62156 15.1797 7.57028 15.159 7.5284 15.1248C7.48652 15.0906 7.45602 15.0445 7.44095 14.9926C7.42587 14.9407 7.42693 14.8854 7.44398 14.8341L7.48824 14.7024L6.69838 15.1584C6.65785 15.1823 6.61159 15.1949 6.56451 15.1947Z" fill="#5BBAB7"/>
        <path d="M15.6376 31.7173C15.5846 31.7175 15.5328 31.702 15.4887 31.6726C15.4446 31.6432 15.4103 31.6013 15.3901 31.5523C15.3699 31.5034 15.3647 31.4495 15.3753 31.3975C15.3858 31.3456 15.4116 31.298 15.4493 31.2608L16.8643 29.8587L14.4733 31.2395C14.4175 31.2713 14.3521 31.2819 14.2891 31.2693C14.2261 31.2567 14.1698 31.2218 14.1304 31.171C14.0911 31.1202 14.0715 31.0569 14.0751 30.9928C14.0787 30.9286 14.1053 30.8679 14.1501 30.8219L15.4541 29.4987L14.0029 30.336C13.9496 30.3666 13.8873 30.3778 13.8266 30.3677C13.766 30.3576 13.7106 30.3269 13.67 30.2807C13.6294 30.2345 13.606 30.1757 13.6038 30.1143C13.6016 30.0528 13.6207 29.9925 13.6579 29.9435L14.2445 29.1808C14.1819 29.2005 14.1141 29.1964 14.0543 29.1693C13.9945 29.1421 13.9468 29.0939 13.9204 29.0337C13.8939 28.9736 13.8906 28.9058 13.9111 28.8434C13.9315 28.781 13.9743 28.7283 14.0312 28.6955L15.1245 28.064C15.1779 28.0331 15.2403 28.0217 15.3012 28.0316C15.362 28.0416 15.4175 28.0723 15.4583 28.1186C15.499 28.1649 15.5225 28.2238 15.5246 28.2854C15.5268 28.3471 15.5075 28.4075 15.4701 28.4565L14.8957 29.2064L16.8915 28.0533C16.9473 28.0211 17.0129 28.0102 17.0761 28.0227C17.1394 28.0351 17.196 28.07 17.2355 28.121C17.2749 28.1719 17.2946 28.2354 17.2909 28.2997C17.2872 28.3641 17.2603 28.4249 17.2152 28.4709L15.9133 29.7931L18.3821 28.3675C18.4383 28.3355 18.5041 28.325 18.5675 28.3379C18.6308 28.3509 18.6872 28.3864 18.7263 28.4378C18.7655 28.4892 18.7846 28.5531 18.7801 28.6176C18.7757 28.682 18.7479 28.7427 18.7021 28.7883L17.2877 30.1904L18.9629 29.2235C19.0173 29.1923 19.0809 29.1813 19.1426 29.1923C19.2043 29.2034 19.2601 29.2358 19.3003 29.2839C19.3404 29.3321 19.3624 29.3928 19.3622 29.4555C19.3621 29.5181 19.3399 29.5787 19.2995 29.6267L18.5997 30.4533L18.8728 30.2933C18.9032 30.274 18.9371 30.2611 18.9726 30.2553C19.0081 30.2494 19.0444 30.2508 19.0793 30.2594C19.1142 30.2679 19.1471 30.2835 19.1758 30.305C19.2046 30.3266 19.2287 30.3538 19.2467 30.3849C19.2647 30.4161 19.2762 30.4505 19.2806 30.4862C19.2849 30.5219 19.282 30.5581 19.272 30.5927C19.2619 30.6272 19.245 30.6594 19.2223 30.6872C19.1995 30.7151 19.1713 30.738 19.1395 30.7547L17.5331 31.68C17.4787 31.7109 17.4152 31.7216 17.3537 31.7104C17.2922 31.6992 17.2366 31.6668 17.1966 31.6188C17.1566 31.5708 17.1347 31.5102 17.1348 31.4477C17.1349 31.3852 17.1569 31.3247 17.1971 31.2768L17.8957 30.4539L15.7709 31.6805C15.7306 31.7046 15.6845 31.7173 15.6376 31.7173Z" fill="#A53E51"/>
        <path d="M25.4674 24.2507C25.4109 24.2507 25.3557 24.2327 25.3101 24.1993C25.2644 24.1659 25.2305 24.1188 25.2134 24.0649C25.1962 24.011 25.1966 23.953 25.2146 23.8993C25.2326 23.8457 25.2671 23.7991 25.3133 23.7664L27.101 22.5003L24.6898 23.8933C24.6305 23.9267 24.5606 23.9361 24.4946 23.9195C24.4285 23.903 24.3713 23.8619 24.3346 23.8045C24.2979 23.7472 24.2845 23.678 24.2972 23.6111C24.3099 23.5442 24.3478 23.4847 24.4029 23.4448L26.949 21.648L24.6493 22.9739C24.5905 23.0078 24.5209 23.018 24.4547 23.0024C24.3886 22.9868 24.3309 22.9465 24.2935 22.8898C24.256 22.8331 24.2417 22.7643 24.2533 22.6973C24.2649 22.6304 24.3016 22.5704 24.356 22.5296L27.844 19.9227L24.6493 21.7669C24.5904 21.7997 24.5213 21.809 24.4559 21.7929C24.3905 21.7768 24.3335 21.7365 24.2966 21.6802C24.2596 21.6239 24.2454 21.5556 24.2567 21.4892C24.268 21.4227 24.3041 21.3631 24.3576 21.3221L27.2002 19.2245L24.6493 20.6976C24.5907 20.7308 24.5217 20.7405 24.4561 20.7249C24.3906 20.7093 24.3334 20.6694 24.2961 20.6134C24.2587 20.5573 24.244 20.4892 24.2548 20.4227C24.2656 20.3562 24.3012 20.2963 24.3544 20.2549L27.1293 18.1333L24.6493 19.5648C24.5903 19.5986 24.5207 19.6086 24.4546 19.5927C24.3885 19.5769 24.3309 19.5364 24.2937 19.4795C24.2565 19.4227 24.2423 19.3537 24.2542 19.2868C24.2661 19.2199 24.303 19.16 24.3576 19.1195L25.9992 17.9061L24.6493 18.6859C24.5909 18.7188 24.5223 18.7286 24.457 18.7133C24.3918 18.6979 24.3347 18.6585 24.2972 18.603C24.2596 18.5474 24.2444 18.4798 24.2545 18.4135C24.2646 18.3472 24.2993 18.2872 24.3517 18.2453L25.9997 16.9525L24.6493 17.7323C24.5922 17.7653 24.5248 17.7759 24.4603 17.7621C24.3957 17.7483 24.3386 17.7111 24.2999 17.6576C24.2612 17.6041 24.2437 17.5382 24.2508 17.4726C24.258 17.407 24.2891 17.3463 24.3384 17.3024L25.8029 15.9915L24.6493 16.6576C24.5917 16.6903 24.5241 16.7004 24.4594 16.686C24.3948 16.6716 24.3379 16.6337 24.2997 16.5796C24.2615 16.5255 24.2448 16.4591 24.2528 16.3934C24.2609 16.3277 24.2931 16.2673 24.3432 16.224L24.5565 16.0416C24.5168 16.048 24.4762 16.0453 24.4377 16.0335C24.3992 16.0218 24.364 16.0014 24.3346 15.9739C24.2929 15.9353 24.2646 15.8843 24.2538 15.8285C24.2431 15.7726 24.2505 15.7148 24.2749 15.6635L24.572 15.0384C24.5116 15.0441 24.451 15.029 24.4003 14.9956C24.3496 14.9623 24.3119 14.9126 24.2932 14.8549C24.2746 14.7971 24.2762 14.7347 24.2978 14.678C24.3193 14.6213 24.3596 14.5737 24.412 14.5429L25.0312 14.1856C25.0804 14.1576 25.1373 14.1459 25.1935 14.1524C25.2498 14.1589 25.3025 14.1831 25.3441 14.2215C25.3857 14.2599 25.414 14.3106 25.4248 14.3662C25.4357 14.4218 25.4286 14.4794 25.4045 14.5307L25.1256 15.1173L26.74 14.1867C26.7975 14.1539 26.8652 14.1438 26.9298 14.1582C26.9945 14.1727 27.0514 14.2106 27.0896 14.2647C27.1278 14.3188 27.1445 14.3851 27.1364 14.4509C27.1284 14.5166 27.0962 14.577 27.0461 14.6203L26.9085 14.7381L27.7618 14.2437C27.819 14.2107 27.8864 14.2001 27.9509 14.2139C28.0154 14.2277 28.0726 14.2649 28.1113 14.3184C28.1499 14.3718 28.1674 14.4378 28.1603 14.5034C28.1532 14.569 28.122 14.6296 28.0728 14.6736L26.6088 15.984L28.9901 14.6091C29.0485 14.5761 29.1171 14.5663 29.1824 14.5817C29.2477 14.597 29.3047 14.6364 29.3423 14.692C29.3798 14.7475 29.395 14.8152 29.3849 14.8814C29.3748 14.9477 29.3401 15.0078 29.2877 15.0496L27.6386 16.3429L29.8173 15.0848C29.8763 15.051 29.9459 15.041 30.012 15.0569C30.0781 15.0727 30.1357 15.1132 30.1729 15.1701C30.2102 15.2269 30.2243 15.2958 30.2124 15.3628C30.2006 15.4297 30.1636 15.4896 30.109 15.5301L28.4733 16.7419L30.4365 15.6085C30.4952 15.5746 30.5645 15.5644 30.6305 15.5797C30.6965 15.5951 30.7541 15.6351 30.7917 15.6914C30.8293 15.7477 30.8441 15.8163 30.833 15.8831C30.8219 15.9499 30.7858 16.01 30.732 16.0512L27.9586 18.1717L31.0557 16.384C31.1147 16.3502 31.1843 16.3402 31.2504 16.3561C31.3165 16.3719 31.3741 16.4124 31.4113 16.4693C31.4486 16.5261 31.4627 16.595 31.4508 16.662C31.439 16.7289 31.402 16.7888 31.3474 16.8293L28.5042 18.9264L31.4808 17.2085C31.5396 17.1746 31.6092 17.1643 31.6754 17.18C31.7415 17.1956 31.7992 17.2359 31.8366 17.2926C31.874 17.3493 31.8884 17.4181 31.8768 17.4851C31.8652 17.552 31.8285 17.612 31.7741 17.6528L28.2866 20.2597L31.7618 18.2533C31.8211 18.221 31.8904 18.2124 31.9557 18.2291C32.0211 18.2459 32.0777 18.2868 32.1141 18.3436C32.1505 18.4005 32.1639 18.469 32.1518 18.5353C32.1397 18.6017 32.1029 18.661 32.0488 18.7013L29.5037 20.4981L31.8114 19.1648C31.8707 19.1318 31.9404 19.1226 32.0062 19.1391C32.072 19.1557 32.129 19.1966 32.1656 19.2538C32.2023 19.3109 32.2158 19.3798 32.2034 19.4465C32.191 19.5132 32.1536 19.5727 32.0989 19.6128L30.308 20.8816L31.6872 20.0859C31.7462 20.0517 31.8161 20.0416 31.8825 20.0574C31.9488 20.0732 32.0065 20.1139 32.0438 20.171C32.0811 20.2281 32.0951 20.2973 32.083 20.3644C32.0708 20.4315 32.0334 20.4914 31.9784 20.5317L30.8882 21.3333L31.3245 21.0816C31.3822 21.0486 31.4501 21.0384 31.515 21.0529C31.5798 21.0674 31.6369 21.1056 31.6751 21.1599C31.7133 21.2143 31.7297 21.281 31.7213 21.3469C31.7129 21.4128 31.6802 21.4732 31.6296 21.5163L30.5464 22.4315C30.5932 22.45 30.6337 22.4814 30.6634 22.522C30.6931 22.5626 30.7107 22.6108 30.7142 22.661C30.7176 22.7112 30.7068 22.7614 30.683 22.8057C30.6591 22.85 30.6232 22.8867 30.5794 22.9115L28.6648 24.0176C28.6071 24.0504 28.5394 24.0606 28.4746 24.0462C28.4099 24.0317 28.3529 23.9936 28.3147 23.9394C28.2765 23.8852 28.2599 23.8187 28.2681 23.7528C28.2764 23.687 28.3088 23.6266 28.3592 23.5835L28.9992 23.0405L26.9613 24.2133C26.9023 24.2475 26.8324 24.2578 26.766 24.242C26.6997 24.2262 26.6419 24.1856 26.6045 24.1285C26.5671 24.0714 26.5531 24.0021 26.5653 23.9349C26.5775 23.8677 26.615 23.8078 26.6701 23.7675L27.7592 22.9675L25.6008 24.2133C25.5604 24.2373 25.5144 24.2502 25.4674 24.2507Z" fill="#A53E51"/>
        <path d="M6.84239 24.2507C6.7912 24.2506 6.7411 24.2358 6.69808 24.2081C6.65507 24.1803 6.62095 24.1408 6.5998 24.0941C6.57866 24.0475 6.57138 23.9958 6.57884 23.9451C6.58629 23.8945 6.60817 23.8471 6.64185 23.8085L7.21999 23.1467L5.42745 24.1808C5.37072 24.2116 5.30473 24.2208 5.24173 24.2067C5.17873 24.1925 5.12301 24.156 5.0849 24.1039C5.04679 24.0518 5.02888 23.9876 5.0345 23.9233C5.04012 23.8589 5.06888 23.7988 5.11545 23.7541L6.42692 22.5712L4.17999 23.8672C4.12238 23.8995 4.05482 23.9093 3.99041 23.8947C3.92599 23.88 3.86931 23.842 3.83133 23.7879C3.79335 23.7339 3.77678 23.6677 3.78483 23.6021C3.79289 23.5365 3.82499 23.4763 3.87492 23.4331L6.01359 21.6299L3.13892 23.2891C3.08055 23.322 3.0119 23.3318 2.94664 23.3165C2.88138 23.3011 2.8243 23.2617 2.78677 23.2062C2.74924 23.1506 2.73402 23.083 2.74412 23.0167C2.75423 22.9504 2.78894 22.8904 2.84132 22.8485L5.38212 20.8533L2.37519 22.5867C2.31605 22.6212 2.24592 22.6316 2.1793 22.6158C2.11269 22.6 2.0547 22.5592 2.01735 22.5018C1.97999 22.4445 1.96613 22.3749 1.97863 22.3076C1.99114 22.2403 2.02905 22.1804 2.08452 22.1403L4.30212 20.5221L1.88292 21.92C1.82422 21.9534 1.75502 21.9633 1.6893 21.9477C1.62359 21.932 1.56625 21.8921 1.52888 21.8358C1.4915 21.7795 1.47687 21.7112 1.48794 21.6445C1.49901 21.5779 1.53496 21.518 1.58852 21.4768L4.94265 18.9296L1.43492 20.9563C1.37539 20.9904 1.30499 21.0003 1.23835 20.9839C1.17172 20.9675 1.11398 20.926 1.07716 20.8681C1.04033 20.8101 1.02726 20.7403 1.04065 20.6729C1.05404 20.6056 1.09287 20.5461 1.14905 20.5067L3.17732 19.0933L1.24665 20.2059C1.18681 20.2394 1.11634 20.2486 1.0499 20.2315C0.983455 20.2145 0.926145 20.1724 0.889885 20.1142C0.853624 20.056 0.841202 19.986 0.855202 19.9188C0.869201 19.8517 0.908545 19.7925 0.965054 19.7536L1.75012 19.2267L1.18639 19.552C1.12686 19.5862 1.05646 19.596 0.98982 19.5796C0.923184 19.5632 0.865448 19.5217 0.828624 19.4638C0.791799 19.4059 0.778722 19.336 0.792114 19.2687C0.805505 19.2014 0.844333 19.1418 0.90052 19.1024L2.83332 17.7525L1.24345 18.6715C1.18451 18.7045 1.11521 18.7139 1.04958 18.6978C0.983955 18.6817 0.926882 18.6413 0.889901 18.5848C0.852919 18.5282 0.838788 18.4597 0.850362 18.3932C0.861937 18.3266 0.898354 18.2669 0.952254 18.2261L2.54905 17.0528L1.53572 17.6395C1.47897 17.6707 1.4128 17.6802 1.34955 17.6662C1.28631 17.6522 1.23032 17.6157 1.19205 17.5634C1.15377 17.5111 1.13582 17.4467 1.14155 17.3822C1.14728 17.3177 1.1763 17.2575 1.22319 17.2128L2.56185 15.9893C2.51393 15.9891 2.46683 15.9768 2.42495 15.9535C2.38308 15.9302 2.34779 15.8966 2.32239 15.856C2.2872 15.7948 2.27771 15.7221 2.296 15.654C2.3143 15.5858 2.35889 15.5276 2.41999 15.4923L4.33572 14.3861C4.39247 14.3549 4.45865 14.3454 4.52189 14.3594C4.58513 14.3734 4.64112 14.4099 4.67939 14.4622C4.71767 14.5144 4.73562 14.5788 4.72989 14.6434C4.72416 14.7079 4.69514 14.7681 4.64825 14.8128L3.41572 15.9328L6.44559 14.1867C6.50454 14.1536 6.57383 14.1442 6.63946 14.1603C6.70509 14.1764 6.76216 14.2168 6.79914 14.2733C6.83612 14.3299 6.85025 14.3984 6.83868 14.465C6.8271 14.5315 6.79069 14.5912 6.73679 14.632L5.13999 15.8048L7.92772 14.1957C7.98725 14.1616 8.05765 14.1517 8.12429 14.1681C8.19092 14.1845 8.24866 14.226 8.28548 14.2839C8.32231 14.3418 8.33539 14.4117 8.32199 14.479C8.3086 14.5464 8.26977 14.6059 8.21359 14.6453L6.28292 15.9936L8.34905 14.8011C8.4089 14.7675 8.47936 14.7583 8.54581 14.7754C8.61225 14.7925 8.66956 14.8345 8.70582 14.8927C8.74208 14.951 8.75451 15.0209 8.74051 15.0881C8.72651 15.1552 8.68716 15.2144 8.63065 15.2533L7.84505 15.7803L8.34905 15.4896C8.40858 15.4554 8.47898 15.4455 8.54562 15.462C8.61226 15.4784 8.66999 15.5199 8.70682 15.5778C8.74364 15.6357 8.75672 15.7056 8.74333 15.7729C8.72994 15.8402 8.69111 15.8998 8.63492 15.9392L6.60399 17.3547L8.35065 16.3467C8.40933 16.3139 8.47821 16.3045 8.54351 16.3204C8.60881 16.3362 8.66572 16.3761 8.70286 16.4322C8.73999 16.4882 8.75461 16.5561 8.7438 16.6224C8.73298 16.6888 8.69752 16.7486 8.64452 16.7899L5.29305 19.3333L8.35065 17.568C8.40979 17.5335 8.47992 17.5231 8.54654 17.5389C8.61315 17.5546 8.67114 17.5954 8.7085 17.6528C8.74585 17.7102 8.75971 17.7797 8.74721 17.847C8.7347 17.9143 8.69679 17.9743 8.64132 18.0144L6.42265 19.6336L8.35065 18.5211C8.40903 18.4881 8.47768 18.4783 8.54294 18.4937C8.60819 18.509 8.66527 18.5484 8.7028 18.604C8.74033 18.6595 8.75556 18.7272 8.74545 18.7934C8.73534 18.8597 8.70064 18.9198 8.64825 18.9616L6.10639 20.96L8.35065 19.664C8.40835 19.631 8.47627 19.6208 8.54111 19.6353C8.60596 19.6498 8.66306 19.6879 8.70123 19.7423C8.7394 19.7967 8.75589 19.8634 8.74747 19.9293C8.73906 19.9952 8.70634 20.0556 8.65572 20.0987L6.51759 21.9013L8.35065 20.8432C8.40739 20.8124 8.47338 20.8032 8.53638 20.8173C8.59937 20.8315 8.6551 20.868 8.69321 20.9201C8.73132 20.9722 8.74923 21.0364 8.74361 21.1007C8.73799 21.165 8.70923 21.2251 8.66265 21.2699L7.35119 22.4533L8.35065 21.8763C8.40528 21.8452 8.46913 21.8344 8.53094 21.8458C8.59274 21.8572 8.64853 21.8901 8.68846 21.9386C8.72838 21.9872 8.74988 22.0483 8.74916 22.1111C8.74844 22.1739 8.72555 22.2345 8.68452 22.2821L8.10372 22.9456L8.35065 22.8037C8.4116 22.7718 8.4825 22.7647 8.54856 22.7839C8.61462 22.8031 8.67071 22.847 8.70513 22.9066C8.73955 22.9661 8.74963 23.0367 8.73327 23.1035C8.71691 23.1703 8.67536 23.2282 8.61732 23.2651L6.97572 24.2133C6.93541 24.2375 6.88937 24.2503 6.84239 24.2507Z" fill="#A53E51"/>
        <path d="M17.8232 22.6544C17.7645 22.6544 17.7074 22.635 17.6608 22.5993C17.6143 22.5636 17.5808 22.5135 17.5656 22.4568C17.5504 22.4001 17.5544 22.3399 17.5768 22.2857C17.5993 22.2315 17.639 22.1862 17.6898 22.1568L22.2173 19.5435C22.274 19.5134 22.3396 19.5048 22.4022 19.5192C22.4647 19.5337 22.5199 19.5702 22.5577 19.622C22.5955 19.6739 22.6133 19.7376 22.6079 19.8016C22.6025 19.8655 22.5742 19.9254 22.5282 19.9701L21.541 20.8533L22.1666 20.4923C22.2231 20.4601 22.2893 20.4496 22.3529 20.4629C22.4165 20.4761 22.4731 20.512 22.5121 20.564C22.5511 20.616 22.5697 20.6804 22.5645 20.7452C22.5593 20.81 22.5307 20.8706 22.484 20.9157L21.9933 21.3867C22.0352 21.4099 22.0699 21.4442 22.0936 21.4859C22.129 21.5471 22.1386 21.6198 22.1204 21.6881C22.1022 21.7564 22.0577 21.8147 21.9965 21.8501L20.7293 22.5819C20.6729 22.6141 20.6066 22.6245 20.543 22.6113C20.4794 22.5981 20.4228 22.5621 20.3838 22.5101C20.3449 22.4581 20.3262 22.3937 20.3314 22.329C20.3366 22.2642 20.3652 22.2036 20.412 22.1584L20.5069 22.0672L19.5544 22.6171C19.4977 22.6471 19.432 22.6557 19.3695 22.6413C19.307 22.6269 19.2518 22.5904 19.214 22.5385C19.1762 22.4867 19.1583 22.4229 19.1638 22.359C19.1692 22.295 19.1975 22.2352 19.2434 22.1904L20.2306 21.3104L17.9586 22.6219C17.9172 22.6445 17.8704 22.6558 17.8232 22.6544Z" fill="#479E9A"/>
        <path d="M14.1613 25.3136C14.1051 25.3143 14.0501 25.2972 14.0041 25.2647C13.9582 25.2322 13.9237 25.1861 13.9056 25.1328C13.8875 25.0796 13.8867 25.0219 13.9033 24.9682C13.92 24.9145 13.9531 24.8674 13.9981 24.8336L14.1197 24.7392L13.6808 24.992C13.6211 25.0247 13.5512 25.0334 13.4854 25.0162C13.4195 24.9991 13.3628 24.9574 13.3266 24.8998C13.2905 24.8421 13.2778 24.7728 13.2911 24.7061C13.3044 24.6393 13.3427 24.5802 13.3981 24.5408L16.0461 22.7467L13.4477 24.2469C13.388 24.2823 13.3169 24.293 13.2494 24.2768C13.1819 24.2606 13.1234 24.2187 13.0864 24.16C13.0493 24.1013 13.0365 24.0305 13.0508 23.9626C13.0651 23.8947 13.1054 23.835 13.1629 23.7963L16.7027 21.3568L13.4392 23.2411C13.3792 23.2767 13.3076 23.2874 13.2398 23.2709C13.172 23.2544 13.1134 23.2119 13.0766 23.1526C13.0397 23.0934 13.0276 23.022 13.0427 22.9539C13.0579 22.8858 13.0991 22.8263 13.1576 22.7883L15.3395 21.3333L13.1245 22.6133C13.0651 22.6462 12.9954 22.6552 12.9296 22.6385C12.8638 22.6217 12.8069 22.5805 12.7704 22.5233C12.7339 22.466 12.7207 22.3969 12.7334 22.3302C12.7461 22.2635 12.7837 22.2042 12.8387 22.1643L17.0771 19.2085L11.7576 22.2789C11.6981 22.311 11.6287 22.3193 11.5633 22.3021C11.4979 22.2849 11.4415 22.2436 11.4055 22.1864C11.3695 22.1292 11.3565 22.0605 11.3692 21.9941C11.3819 21.9277 11.4193 21.8687 11.4739 21.8288L16.4963 18.3861L11.0531 21.5291C10.9931 21.5617 10.923 21.5701 10.8571 21.5525C10.7911 21.535 10.7344 21.4929 10.6986 21.4348C10.6628 21.3767 10.6506 21.3071 10.6646 21.2403C10.6785 21.1735 10.7175 21.1146 10.7736 21.0757L14.1128 18.8859L10.8061 20.7957C10.746 20.8288 10.6754 20.8374 10.609 20.8198C10.5427 20.8021 10.4857 20.7595 10.4499 20.7009C10.4142 20.6423 10.4024 20.5721 10.4171 20.505C10.4318 20.438 10.4718 20.3791 10.5288 20.3408L12.2253 19.2501L10.7853 20.0811C10.7254 20.1137 10.6553 20.1221 10.5893 20.1045C10.5234 20.087 10.4667 20.0449 10.4309 19.9868C10.3951 19.9287 10.3829 19.8591 10.3968 19.7923C10.4108 19.7255 10.4498 19.6666 10.5059 19.6277L13.1491 17.8928L10.7827 19.2571C10.7229 19.2902 10.6527 19.2991 10.5866 19.282C10.5205 19.2648 10.4635 19.223 10.4273 19.1651C10.3911 19.1071 10.3785 19.0375 10.3922 18.9706C10.4058 18.9037 10.4446 18.8445 10.5005 18.8053L13.3235 16.9067L10.7827 18.3733C10.7231 18.4061 10.6533 18.415 10.5875 18.398C10.5217 18.3811 10.4648 18.3396 10.4285 18.2822C10.3923 18.2247 10.3793 18.1555 10.3923 18.0888C10.4052 18.0221 10.4432 17.9629 10.4984 17.9232L12.6163 16.4693L10.7827 17.5248C10.7233 17.5574 10.6539 17.5662 10.5883 17.5494C10.5227 17.5327 10.466 17.4916 10.4295 17.4346C10.3931 17.3776 10.3797 17.3088 10.3921 17.2423C10.4045 17.1757 10.4418 17.1164 10.4963 17.0763L11.9693 16.0405L10.7827 16.7253C10.7234 16.7597 10.6532 16.7699 10.5866 16.7539C10.52 16.7379 10.4621 16.6969 10.4249 16.6394C10.3877 16.5818 10.3741 16.5122 10.3869 16.4449C10.3997 16.3776 10.4379 16.3178 10.4936 16.2779L11.284 15.7099L10.7827 16C10.7259 16.033 10.6589 16.0439 10.5946 16.0305C10.5303 16.0172 10.4731 15.9806 10.4341 15.9277C10.3951 15.8748 10.377 15.8094 10.3833 15.744C10.3895 15.6787 10.4197 15.6179 10.468 15.5733L11.9133 14.2299L10.8035 14.8699C10.7478 14.9016 10.6826 14.9123 10.6197 14.8999C10.5569 14.8875 10.5006 14.8529 10.4611 14.8024C10.4217 14.7519 10.4018 14.6888 10.405 14.6249C10.4082 14.5609 10.4344 14.5002 10.4787 14.4539L11.0733 13.84C11.0384 13.8317 11.0056 13.8163 10.9768 13.7947C10.9481 13.7731 10.9241 13.7459 10.9064 13.7147C10.871 13.6535 10.8613 13.5808 10.8795 13.5125C10.8977 13.4441 10.9423 13.3859 11.0035 13.3504L12.2712 12.6187C12.3269 12.5865 12.3923 12.5756 12.4554 12.5878C12.5185 12.6001 12.575 12.6347 12.6146 12.6853C12.6542 12.736 12.6742 12.7992 12.6708 12.8634C12.6675 12.9276 12.6411 12.9884 12.5965 13.0347L12.1912 13.4533L13.6952 12.5851C13.752 12.5521 13.819 12.5412 13.8833 12.5546C13.9476 12.5679 14.0047 12.6045 14.0437 12.6574C14.0827 12.7103 14.1008 12.7757 14.0946 12.8411C14.0883 12.9064 14.0582 12.9672 14.0099 13.0117L12.5629 14.3552L15.6291 12.5867C15.6883 12.5523 15.7585 12.5421 15.8252 12.5581C15.8918 12.5741 15.9496 12.6151 15.9868 12.6727C16.024 12.7302 16.0376 12.7999 16.0248 12.8672C16.012 12.9345 15.9738 12.9942 15.9181 13.0341L15.1272 13.6L16.8872 12.5835C16.9465 12.5509 17.016 12.5421 17.0816 12.5588C17.1472 12.5756 17.2039 12.6167 17.2403 12.6737C17.2768 12.7307 17.2901 12.7995 17.2777 12.866C17.2653 12.9326 17.2281 12.9919 17.1736 13.032L15.7016 14.0667L18.2723 12.5867C18.3318 12.5539 18.4016 12.5451 18.4674 12.562C18.5332 12.579 18.5901 12.6204 18.6264 12.6779C18.6627 12.7353 18.6757 12.8045 18.6627 12.8712C18.6497 12.9379 18.6117 12.9972 18.5565 13.0368L16.4387 14.4907L19.7373 12.5867C19.7971 12.5526 19.8678 12.543 19.9345 12.5598C20.0013 12.5766 20.0589 12.6186 20.0954 12.6769C20.1319 12.7353 20.1445 12.8055 20.1304 12.8728C20.1164 12.9402 20.0768 12.9995 20.02 13.0384L17.2008 14.9333L20.9555 12.7659C21.0155 12.7317 21.0865 12.7222 21.1535 12.7394C21.2204 12.7566 21.2781 12.799 21.3143 12.8579C21.3506 12.9167 21.3625 12.9873 21.3477 13.0549C21.3329 13.1224 21.2925 13.1815 21.2349 13.2197L18.5901 14.9557L21.6067 13.2139C21.6366 13.1956 21.6698 13.1835 21.7044 13.178C21.739 13.1726 21.7743 13.1741 21.8084 13.1823C21.8424 13.1906 21.8745 13.2055 21.9028 13.2261C21.9311 13.2468 21.9551 13.2728 21.9733 13.3027C21.9916 13.3326 22.0038 13.3658 22.0092 13.4004C22.0146 13.435 22.0131 13.4704 22.0049 13.5044C21.9966 13.5385 21.9818 13.5705 21.9611 13.5988C21.9405 13.6271 21.9144 13.6511 21.8845 13.6693L20.1859 14.7616L21.9768 13.7275C22.0369 13.6933 22.1079 13.6838 22.1748 13.701C22.2418 13.7182 22.2994 13.7606 22.3357 13.8195C22.3719 13.8783 22.3839 13.9489 22.3691 14.0165C22.3543 14.084 22.3138 14.1431 22.2563 14.1813L18.9117 16.3739L22.2019 14.4752C22.2614 14.4424 22.3312 14.4336 22.397 14.4506C22.4628 14.4675 22.5197 14.5089 22.556 14.5664C22.5923 14.6239 22.6053 14.693 22.5923 14.7597C22.5793 14.8264 22.5413 14.8857 22.4861 14.9253L17.4669 18.3653L22.2173 15.6267C22.2769 15.5925 22.3473 15.5826 22.4139 15.5991C22.4805 15.6155 22.5383 15.657 22.5751 15.7149C22.6119 15.7728 22.625 15.8427 22.6116 15.91C22.5982 15.9773 22.5594 16.0369 22.5032 16.0763L18.2627 19.0336L22.2173 16.7504C22.2773 16.7163 22.3481 16.7068 22.4149 16.7238C22.4817 16.7408 22.5394 16.783 22.5757 16.8416C22.6121 16.9002 22.6244 16.9705 22.61 17.038C22.5955 17.1054 22.5556 17.1646 22.4984 17.2032L20.3197 18.6565L22.2173 17.5611C22.277 17.5257 22.3482 17.515 22.4157 17.5312C22.4831 17.5475 22.5416 17.5894 22.5787 17.648C22.6158 17.7067 22.6285 17.7775 22.6142 17.8454C22.5999 17.9133 22.5597 17.973 22.5021 18.0117L18.9613 20.4517L22.2147 18.5717C22.2745 18.5377 22.3451 18.528 22.4119 18.5448C22.4786 18.5617 22.5363 18.6036 22.5728 18.662C22.6093 18.7203 22.6218 18.7905 22.6078 18.8579C22.5937 18.9253 22.5541 18.9846 22.4973 19.0235L17.5373 22.3835C17.5637 22.4103 17.584 22.4424 17.5971 22.4777C17.6102 22.513 17.6156 22.5506 17.6131 22.5881C17.6106 22.6256 17.6001 22.6622 17.5825 22.6954C17.5648 22.7286 17.5404 22.7577 17.5107 22.7808L15.4707 24.3669C15.4867 24.424 15.4833 24.4847 15.461 24.5395C15.4386 24.5944 15.3987 24.6402 15.3475 24.6699L14.2947 25.28C14.2539 25.3027 14.208 25.3143 14.1613 25.3136Z" fill="#479E9A"/>
        <path d="M32.3459 18.8267C32.2619 17.6026 31.724 16.4539 30.8376 15.6055C29.9511 14.7572 28.7799 14.2702 27.5533 14.24C29.5389 -4.20054 3.68879 -3.96694 5.44559 14.2155C-0.963474 14.7381 -0.830674 24.112 5.68666 24.232C6.69679 24.1104 8.59333 24.7605 8.88666 23.3877C8.62799 21.8731 9.51013 14.4187 8.35333 14.2347C6.48666 -1.05387 26.4435 -0.62507 24.6499 14.3467C23.9155 14.56 24.0989 15.5547 24.1165 16.1285V22.2011C24.1213 22.7584 23.836 24.0315 24.6499 24.1621C24.6845 25.6277 24.6781 27.192 24.6632 28.624C22.82 28.6395 20.9405 28.6144 19.0845 28.624C18.1928 27.68 14.74 27.7333 13.8957 28.7573C13.6817 29.0038 13.5397 29.3045 13.4854 29.6263C13.4311 29.9482 13.4664 30.2788 13.5877 30.5819C13.7089 30.885 13.9113 31.1488 14.1726 31.3444C14.4339 31.54 14.7441 31.6598 15.0691 31.6907C16.3491 31.6491 17.9085 32.0235 18.9581 31.1109C25.6653 31.0603 28.1795 32.2491 27.5512 24.1493C30.2328 23.8496 32.5048 21.6597 32.3459 18.8267ZM31.0845 17.1733C32.8888 21.296 29.3981 24.5504 25.2579 23.8144C24.7629 23.728 24.8845 23.008 24.8845 22.6368C24.9043 19.9627 24.844 17.2213 24.9101 14.5803C27.2493 14.3568 30.0003 14.7733 31.0845 17.1765V17.1733ZM8.11279 16.7621C8.10853 19.0309 8.12186 21.3003 8.10533 23.5691C8.10533 23.8219 8.05199 23.7648 7.81466 23.7648C4.44986 24.32 0.869593 22.088 1.48559 18.3637C1.68172 17.2035 2.32161 16.165 3.26985 15.4682C4.21809 14.7715 5.40025 14.471 6.56613 14.6304C8.57199 14.3307 8.09306 15.2629 8.11279 16.7653V16.7621ZM25.2237 9.30613C21.7448 -2.43627 5.51333 2.37866 7.57679 14.1589C7.11279 14.1744 6.67333 14.1627 6.21893 14.1739C4.36986 -3.7632 28.4765 -3.42614 26.7821 14.2176C26.3283 14.2176 25.8755 14.2176 25.4205 14.2176C25.4253 12.6053 25.5747 10.8875 25.2237 9.30613ZM17.7123 31.2299C16.7747 31.1456 15.7389 31.4432 14.8723 31.0165C13.9459 30.4661 14.0189 28.7904 15.1336 28.5221C16.0506 28.4527 16.9722 28.476 17.8845 28.5915C19.0877 28.9989 19.0717 31.1067 17.7123 31.2299ZM26.6984 29.0016C25.7997 32.0187 21.6195 30.3531 19.2685 30.7573C19.4395 30.4944 19.5368 30.1905 19.5503 29.8772C19.5638 29.5638 19.493 29.2526 19.3453 28.976C25.5037 28.5899 25.6067 30.832 25.4195 24.1904C25.8787 24.1723 26.3229 24.1867 26.7805 24.1824C26.6973 25.7723 26.9651 27.4293 26.6984 29.0016Z" fill="#262626"/>
        <path d="M12.9267 24.4229C14.0371 26.7851 16.5581 23.4048 17.7011 22.5707C19.7421 22.7643 22.955 22.6384 22.7544 19.8421C22.4344 17.7045 23.6872 14.1797 21.5368 12.8827C19.3363 12.2704 16.8867 12.8027 14.6099 12.6363C12.9565 12.5035 10.6291 12.6469 10.2787 14.6693C10.5795 17.2421 8.81842 22.7077 12.9139 22.5627C12.8627 23.1819 12.867 23.8045 12.9267 24.4229ZM11.1453 20.8821C10.8355 19.0347 11.1059 17.0955 11.0195 15.2139C10.8899 13.9376 11.8045 12.7221 13.1619 12.9637C15.6579 13.0672 18.2285 12.7504 20.6819 13.1013C22.2419 13.7232 21.9779 15.4757 21.9779 16.8229C21.9971 20.3227 22.7203 22.824 18.1053 22.2363C15.7496 22.3429 13.4845 28.0139 13.6477 22.256C12.5896 22.2149 11.5464 22.0336 11.1453 20.8821Z" fill="#262626"/>
        <path d="M13.148 16.2133C15.4029 16.0395 17.9325 16.5632 20.0589 16.0048C20.1352 15.8507 19.9939 15.7867 19.852 15.7867H14.2451C13.828 15.8368 13.2483 15.6379 12.9411 15.9952C12.8648 16.1493 13.0061 16.2133 13.148 16.2133Z" fill="#FCE3D2"/>
        <path d="M16.7805 19.3493C19.1602 18.9227 13.3138 18.9323 13.0066 19.1973C12.8914 19.2709 12.8914 19.3493 13.0472 19.3493H16.7805Z" fill="#FCE3D2"/>
    </g>
    <defs>
        <clipPath id="clip0_1_1512">
            <rect width="32" height="32" fill="white" transform="translate(0.5)"/>
        </clipPath>
    </defs>
</svg>
