<svg width="16" height="14" viewBox="0 0 16 14" fill="none" xmlns="http://www.w3.org/2000/svg">
    <path d="M0.961689 5.7383C1.02716 5.72768 1.09341 5.72278 1.1597 5.72364L12.4474 5.72364L12.2013 5.60916C11.9607 5.49529 11.7418 5.34031 11.5544 5.15124L8.3891 1.98589C7.97221 1.58793 7.90217 0.947745 8.2231 0.469043C8.59662 -0.0410684 9.31294 -0.151827 9.82309 0.221697C9.8643 0.251891 9.90348 0.284804 9.94029 0.320221L15.6642 6.04418C16.1116 6.491 16.112 7.21584 15.6651 7.66316C15.6649 7.66345 15.6645 7.66377 15.6642 7.66406L9.94029 13.388C9.4926 13.8344 8.76777 13.8334 8.3213 13.3858C8.28617 13.3505 8.25337 13.313 8.2231 13.2735C7.90217 12.7948 7.97221 12.1546 8.3891 11.7567L11.5487 8.58561C11.7167 8.41747 11.9098 8.27648 12.1211 8.16776L12.4646 8.01322H1.2227C0.637891 8.03493 0.124809 7.62642 0.014945 7.05159C-0.0862617 6.4275 0.337599 5.83955 0.961689 5.7383Z" fill="#FF808D"/>
</svg>