<svg width="33" height="32" viewBox="0 0 33 32" fill="none" xmlns="http://www.w3.org/2000/svg">
    <g clip-path="url(#clip0_1_1259)">
        <path d="M4.61787 31.7173C4.55974 31.7175 4.50315 31.6986 4.45672 31.6636C4.4103 31.6287 4.37657 31.5795 4.36069 31.5235C4.34481 31.4676 4.34763 31.408 4.36874 31.3539C4.38984 31.2997 4.42807 31.2539 4.4776 31.2235L15.2093 24.6021L2.9912 31.656C2.9312 31.685 2.86252 31.6905 2.79869 31.6713C2.73486 31.6522 2.6805 31.6099 2.64632 31.5527C2.61214 31.4955 2.6006 31.4276 2.61399 31.3623C2.62738 31.297 2.66473 31.2391 2.71867 31.2L13.2685 24.7349L2.00507 31.2379C1.94463 31.2697 1.87427 31.2772 1.80851 31.2587C1.74274 31.2402 1.68659 31.1971 1.65163 31.1384C1.61667 31.0797 1.60557 31.0098 1.62063 30.9432C1.63568 30.8766 1.67574 30.8183 1.73254 30.7803L14.2152 23.1083L1.40667 30.5029C1.34617 30.5358 1.27532 30.5439 1.20895 30.5257C1.14258 30.5075 1.08583 30.4643 1.05056 30.4052C1.01529 30.3461 1.00424 30.2756 1.01972 30.2086C1.03519 30.1415 1.076 30.083 1.1336 30.0453L15.0227 21.4816L1.18267 29.4725C1.12188 29.5064 1.05027 29.5152 0.983118 29.497C0.915963 29.4788 0.858584 29.435 0.823227 29.3751C0.78787 29.3152 0.777335 29.2438 0.793871 29.1762C0.810407 29.1086 0.852704 29.0502 0.911735 29.0133L6.31867 25.7552L1.18267 28.7205C1.1217 28.7565 1.04896 28.7667 0.980451 28.749C0.911938 28.7313 0.853263 28.6871 0.817335 28.6261C0.781407 28.5652 0.771169 28.4924 0.788872 28.4239C0.806576 28.3554 0.850771 28.2967 0.911735 28.2608L3.84507 26.5008L1.18267 28.0368C1.12223 28.0687 1.05187 28.0761 0.986105 28.0576C0.920341 28.0391 0.864187 27.9961 0.829229 27.9374C0.79427 27.8787 0.783173 27.8088 0.798228 27.7421C0.813282 27.6755 0.853339 27.6172 0.910135 27.5792L12.8936 20.2192L1.18267 26.9813C1.12209 27.0155 1.05057 27.0246 0.98337 27.0068C0.916165 26.9889 0.858585 26.9455 0.822903 26.8859C0.787222 26.8262 0.77626 26.7549 0.792356 26.6873C0.808452 26.6196 0.850332 26.561 0.909069 26.5237L13.2083 18.9003L1.18267 25.8427C1.12267 25.8717 1.05399 25.8771 0.99016 25.858C0.92633 25.8389 0.871971 25.7966 0.837787 25.7394C0.803603 25.6822 0.792071 25.6142 0.805461 25.549C0.818851 25.4837 0.856193 25.4258 0.910135 25.3867L9.3608 20.1995L1.18267 24.9195C1.12177 24.9555 1.04907 24.9658 0.980561 24.9482C0.912048 24.9306 0.853334 24.8865 0.817335 24.8256C0.781336 24.7647 0.771002 24.692 0.788605 24.6235C0.806209 24.555 0.850308 24.4963 0.911202 24.4603L1.76454 23.9472L1.18534 24.2811C1.12479 24.3134 1.0541 24.3212 0.987973 24.3028C0.921849 24.2843 0.865387 24.2411 0.83034 24.182C0.795293 24.123 0.784362 24.0527 0.799821 23.9858C0.81528 23.919 0.85594 23.8606 0.913335 23.8229L5.25414 21.1733L1.18267 23.5237C1.12232 23.5564 1.05168 23.5646 0.98546 23.5465C0.919241 23.5285 0.862539 23.4856 0.827153 23.4267C0.791768 23.3679 0.780424 23.2977 0.795483 23.2308C0.810542 23.1638 0.850844 23.1052 0.908002 23.0672L10.2509 17.2032L1.18427 22.4384C1.12406 22.471 1.05361 22.4793 0.987505 22.4614C0.921405 22.4435 0.864724 22.4008 0.829209 22.3423C0.793694 22.2837 0.782065 22.2137 0.796734 22.1468C0.811403 22.08 0.851244 22.0213 0.908002 21.9829L10.508 15.8581L1.18267 21.2416C1.12232 21.2743 1.05168 21.2825 0.98546 21.2644C0.919241 21.2463 0.862539 21.2034 0.827153 21.1446C0.791768 21.0858 0.780424 21.0156 0.795483 20.9486C0.810542 20.8817 0.850844 20.8231 0.908002 20.7851L6.79334 17.0992L1.18267 20.3365C1.1224 20.3702 1.05141 20.3792 0.984645 20.3617C0.917877 20.3441 0.860531 20.3013 0.824673 20.2423C0.788815 20.1833 0.77724 20.1127 0.792384 20.0453C0.807527 19.9779 0.848208 19.9191 0.905868 19.8811L8.01467 15.3232L1.18267 19.2699C1.12264 19.3029 1.0522 19.3116 0.985945 19.2941C0.919691 19.2766 0.862714 19.2343 0.826835 19.1759C0.790956 19.1175 0.778928 19.0476 0.793246 18.9806C0.807564 18.9136 0.84713 18.8546 0.903735 18.816L7.93254 14.2133L1.18267 18.1099C1.12213 18.1467 1.04946 18.1579 0.980645 18.1411C0.911832 18.1243 0.852512 18.0808 0.815735 18.0203C0.778958 17.9597 0.767738 17.8871 0.784541 17.8183C0.801344 17.7494 0.844795 17.6901 0.905335 17.6533L5.132 14.9387L1.18534 17.2181C1.12508 17.2503 1.05477 17.2582 0.988901 17.2401C0.923031 17.222 0.866629 17.1792 0.83133 17.1207C0.79603 17.0623 0.784525 16.9925 0.799188 16.9257C0.813852 16.859 0.853565 16.8004 0.910135 16.7621L1.72667 16.2453L1.1816 16.56C1.12176 16.5912 1.05235 16.5985 0.98734 16.5805C0.922331 16.5625 0.866559 16.5205 0.831258 16.463C0.795958 16.4055 0.783754 16.3368 0.797103 16.2707C0.810453 16.2046 0.848365 16.146 0.903202 16.1067L4.46907 13.7632L1.18267 15.6597C1.12292 15.6928 1.05275 15.7017 0.986623 15.6846C0.9205 15.6675 0.863467 15.6257 0.827285 15.5677C0.791102 15.5098 0.77853 15.4402 0.792159 15.3733C0.805788 15.3063 0.84458 15.2472 0.900535 15.208L4.31387 12.9104L1.18267 14.72C1.12255 14.7536 1.05176 14.7626 0.985128 14.7452C0.918499 14.7278 0.861194 14.6853 0.825215 14.6265C0.789235 14.5678 0.777371 14.4974 0.792107 14.4302C0.806842 14.3629 0.847035 14.3039 0.904269 14.2656L1.26 14.0347L1.18267 14.08C1.12287 14.1141 1.05221 14.1237 0.985475 14.1069C0.918735 14.0901 0.861082 14.0481 0.824573 13.9898C0.788065 13.9314 0.775528 13.8612 0.789586 13.7939C0.803644 13.7265 0.843208 13.6672 0.900002 13.6283L2.44347 12.5829L1.18267 13.3077C1.12366 13.3424 1.05359 13.353 0.986958 13.3375C0.920323 13.3219 0.862221 13.2813 0.824675 13.2241C0.787129 13.1669 0.773013 13.0975 0.785247 13.0301C0.797481 12.9628 0.83513 12.9028 0.890402 12.8624L3.28347 11.0933L1.18267 12.3051C1.12344 12.3386 1.05366 12.3481 0.987602 12.3318C0.921549 12.3155 0.86422 12.2746 0.827352 12.2174C0.790483 12.1603 0.776862 12.0912 0.789277 12.0243C0.801692 11.9574 0.839204 11.8978 0.894135 11.8576L1.5544 11.3856L1.18107 11.5989C1.12432 11.6302 1.05814 11.6397 0.994901 11.6257C0.931658 11.6117 0.875672 11.5751 0.837396 11.5229C0.79912 11.4706 0.781171 11.4062 0.786901 11.3417C0.792632 11.2772 0.821649 11.217 0.868535 11.1723L2.42 9.76481L1.18267 10.4784C1.12932 10.5087 1.06716 10.5197 1.00666 10.5095C0.946163 10.4993 0.891031 10.4686 0.85056 10.4224C0.81009 10.3763 0.786755 10.3177 0.784492 10.2564C0.782229 10.1951 0.801174 10.1348 0.838135 10.0859L1.63387 9.04641L1.18267 9.30668C1.13782 9.33258 1.0864 9.34485 1.03469 9.34201C0.982978 9.33917 0.933214 9.32133 0.891473 9.29068C0.849732 9.26002 0.81782 9.21788 0.799635 9.16938C0.78145 9.12089 0.777778 9.06816 0.789068 9.01761L0.926669 8.40801C0.881977 8.38464 0.84495 8.34891 0.820002 8.30508C0.784552 8.24396 0.774807 8.17127 0.792906 8.10297C0.811006 8.03468 0.85547 7.97635 0.916535 7.94081L1.15067 7.80535C1.19553 7.77928 1.24701 7.76687 1.29882 7.76963C1.35063 7.7724 1.4005 7.79021 1.44234 7.82089C1.48417 7.85157 1.51615 7.89379 1.53435 7.94238C1.55255 7.99096 1.55618 8.0438 1.5448 8.09441L1.44454 8.54081L2.52667 7.91575C2.58002 7.88545 2.64218 7.87447 2.70268 7.88467C2.76317 7.89486 2.81831 7.92561 2.85878 7.97172C2.89925 8.01783 2.92258 8.07648 2.92484 8.13779C2.92711 8.1991 2.90816 8.25931 2.8712 8.30828L2.07494 9.34775L4.3096 8.05761C4.36635 8.02639 4.43253 8.01689 4.49577 8.03088C4.55901 8.04488 4.615 8.08142 4.65328 8.13367C4.69155 8.18593 4.7095 8.25032 4.70377 8.31484C4.69804 8.37936 4.66902 8.43959 4.62214 8.48428L3.07174 9.89335L6.01467 8.19415C6.0739 8.16067 6.14368 8.1511 6.20973 8.1674C6.27579 8.18369 6.33312 8.22461 6.36999 8.28179C6.40685 8.33897 6.42048 8.40808 6.40806 8.47497C6.39565 8.54186 6.35813 8.60147 6.3032 8.64161L5.64454 9.11308L7.08774 8.28001C7.14671 8.24623 7.21636 8.23624 7.28246 8.25209C7.34855 8.26794 7.4061 8.30842 7.44335 8.36528C7.48059 8.42213 7.49472 8.49106 7.48285 8.55799C7.47098 8.62491 7.434 8.68477 7.37947 8.72535L4.98427 10.4976L8.61094 8.40268C8.67073 8.3686 8.74139 8.35896 8.80813 8.37578C8.87487 8.3926 8.93252 8.43457 8.96903 8.49291C9.00554 8.55125 9.01808 8.62146 9.00402 8.68883C8.98996 8.75621 8.9504 8.81554 8.8936 8.85441L7.35334 9.89761L9.78107 8.49601C9.84109 8.46296 9.91154 8.45427 9.97779 8.47177C10.044 8.48926 10.101 8.53159 10.1369 8.58997C10.1728 8.64835 10.1848 8.71831 10.1705 8.78532C10.1562 8.85233 10.1166 8.91126 10.06 8.94988L9.69734 9.18561L10.7571 8.57388C10.817 8.5364 10.8895 8.52427 10.9584 8.54018C11.0273 8.55608 11.0871 8.59871 11.1245 8.65868C11.162 8.71865 11.1741 8.79106 11.1582 8.85998C11.1423 8.92889 11.0997 8.98866 11.0397 9.02615L7.62907 11.3195L12.1891 8.68641C12.2491 8.65226 12.3201 8.64276 12.3871 8.65992C12.454 8.67709 12.5117 8.71957 12.5479 8.77842C12.5842 8.83727 12.5961 8.90788 12.5813 8.97539C12.5665 9.04289 12.5261 9.10201 12.4685 9.14028L8.90534 11.4853L13.5603 8.80001C13.5902 8.78191 13.6235 8.76989 13.6581 8.76463C13.6927 8.75937 13.7281 8.76099 13.7621 8.76938C13.7961 8.77778 13.8281 8.79279 13.8563 8.81355C13.8845 8.83432 13.9083 8.86044 13.9264 8.89041C13.9445 8.92039 13.9565 8.95364 13.9618 8.98826C13.967 9.02288 13.9654 9.0582 13.957 9.0922C13.9486 9.1262 13.9336 9.15821 13.9129 9.18641C13.8921 9.21461 13.866 9.23844 13.836 9.25655L13.0131 9.77441L14.5597 8.88001C14.6201 8.84317 14.6927 8.83182 14.7615 8.84847C14.8302 8.86513 14.8896 8.90841 14.9264 8.96881C14.9633 9.02921 14.9746 9.10177 14.9579 9.17054C14.9413 9.2393 14.898 9.29863 14.8376 9.33548L10.6083 12.0555L15.916 8.99148C15.9759 8.95887 16.0461 8.95047 16.112 8.96801C16.178 8.98555 16.2347 9.0277 16.2705 9.08578C16.3063 9.14385 16.3184 9.21345 16.3045 9.28023C16.2905 9.34702 16.2515 9.40592 16.1955 9.44481L9.1704 14.0405L17.6797 9.12748C17.74 9.09379 17.811 9.08479 17.8778 9.10238C17.9445 9.11996 18.0019 9.16276 18.0377 9.22176C18.0736 9.28076 18.0852 9.35137 18.07 9.41874C18.0549 9.4861 18.0142 9.54497 17.9565 9.58295L10.8467 14.1424L19.3075 9.25761C19.368 9.2227 19.4398 9.21295 19.5075 9.23047C19.5752 9.24799 19.6332 9.29136 19.6692 9.35127C19.7052 9.41118 19.7163 9.48282 19.7 9.55079C19.6837 9.61875 19.6414 9.6776 19.5821 9.71468L13.7069 13.3947L20.684 9.36641C20.7444 9.33191 20.8159 9.32235 20.8832 9.33979C20.9505 9.35723 21.0084 9.40028 21.0444 9.45976C21.0804 9.51924 21.0918 9.59045 21.0761 9.65819C21.0604 9.72594 21.0188 9.78487 20.9603 9.82241L11.3544 15.9504L22.5011 9.51361C22.5614 9.48092 22.6321 9.47276 22.6983 9.49083C22.7645 9.50889 22.8212 9.5518 22.8566 9.61061C22.892 9.66943 22.9033 9.73962 22.8883 9.80659C22.8732 9.87356 22.8329 9.93214 22.7757 9.97015L13.4317 15.8368L24.1517 9.65015C24.2123 9.61779 24.283 9.61002 24.3491 9.62847C24.4152 9.64692 24.4717 9.69016 24.5067 9.74919C24.5418 9.80822 24.5527 9.87849 24.5373 9.94538C24.5218 10.0123 24.4811 10.0706 24.4237 10.1083L20.0792 12.7584L25.3059 9.74241C25.3665 9.71047 25.437 9.70306 25.5029 9.72173C25.5688 9.7404 25.625 9.7837 25.6598 9.84268C25.6947 9.90165 25.7055 9.97176 25.69 10.0385C25.6746 10.1052 25.634 10.1634 25.5768 10.2011L24.7235 10.7163L26.2776 9.81335C26.3384 9.77714 26.411 9.76654 26.4796 9.78389C26.5481 9.80125 26.607 9.84513 26.6432 9.90588C26.6794 9.96663 26.69 10.0393 26.6727 10.1078C26.6553 10.1764 26.6114 10.2353 26.5507 10.2715L18.1 15.4603L27.7 9.92001C27.7605 9.88671 27.8315 9.87815 27.8981 9.89614C27.9648 9.91412 28.0218 9.95724 28.0573 10.0164C28.0928 10.0756 28.104 10.1463 28.0885 10.2135C28.073 10.2808 28.032 10.3394 27.9741 10.3771L15.6739 17.9989L29.6701 9.92001C29.7306 9.88721 29.8015 9.87906 29.8679 9.89728C29.9342 9.91551 29.991 9.95868 30.0262 10.0178C30.0615 10.0769 30.0726 10.1473 30.0571 10.2144C30.0416 10.2815 30.0008 10.3399 29.9432 10.3776L17.9565 17.7376L30.6013 10.4368C30.6623 10.4009 30.735 10.3906 30.8036 10.4084C30.8721 10.4261 30.9307 10.4702 30.9667 10.5312C31.0026 10.5922 31.0128 10.6649 30.9951 10.7334C30.9774 10.8019 30.9332 10.8606 30.8723 10.8965L27.956 12.6469L30.7507 11.0336C30.8116 10.9977 30.8844 10.9874 30.9529 11.0052C31.0214 11.0229 31.0801 11.067 31.116 11.128C31.1519 11.189 31.1622 11.2617 31.1445 11.3302C31.1268 11.3987 31.0826 11.4574 31.0216 11.4933L25.6147 14.7509L30.7507 11.7867C30.8112 11.7539 30.882 11.7457 30.9484 11.764C31.0148 11.7822 31.0715 11.8253 31.1068 11.8845C31.142 11.9436 31.1531 12.014 31.1376 12.0811C31.1221 12.1481 31.0813 12.2066 31.0237 12.2443L17.1315 20.8091L30.7507 12.9456C30.8113 12.9121 30.8826 12.9035 30.9494 12.9216C31.0163 12.9397 31.0735 12.9831 31.1089 13.0427C31.1443 13.1022 31.1551 13.1732 31.1392 13.2405C31.1232 13.3079 31.0816 13.3665 31.0232 13.4037L18.5485 21.0709L30.7507 14.0267C30.8112 13.9943 30.8819 13.9866 30.948 14.005C31.0142 14.0235 31.0706 14.0667 31.1057 14.1257C31.1407 14.1848 31.1516 14.255 31.1362 14.3219C31.1207 14.3888 31.0801 14.4471 31.0227 14.4848L20.4627 20.9536L30.7507 15.0139C30.8114 14.9777 30.8841 14.9671 30.9526 14.9844C31.0212 15.0018 31.0801 15.0457 31.1163 15.1064C31.1525 15.1672 31.1631 15.2398 31.1457 15.3084C31.1284 15.3769 31.0845 15.4358 31.0237 15.472L20.2909 22.0939L30.7507 16.0533C30.8111 16.0215 30.8815 16.0141 30.9472 16.0326C31.013 16.0511 31.0692 16.0941 31.1041 16.1528C31.1391 16.2115 31.1502 16.2814 31.1351 16.348C31.1201 16.4147 31.08 16.473 31.0232 16.5109L23.1341 21.3568L30.7507 16.96C30.8113 16.927 30.8824 16.9189 30.949 16.9372C31.0155 16.9556 31.0724 16.999 31.1076 17.0585C31.1427 17.1179 31.1535 17.1886 31.1375 17.2558C31.1216 17.323 31.0802 17.3814 31.0221 17.4187L29.0067 18.6395L30.7507 17.6336C30.8111 17.6018 30.8815 17.5943 30.9472 17.6128C31.013 17.6313 31.0692 17.6744 31.1041 17.7331C31.1391 17.7918 31.1502 17.8616 31.1351 17.9283C31.1201 17.9949 31.08 18.0532 31.0232 18.0912L25.9875 21.1797L30.7507 18.4304C30.8112 18.3981 30.8819 18.3903 30.948 18.4087C31.0142 18.4272 31.0706 18.4704 31.1057 18.5295C31.1407 18.5885 31.1516 18.6588 31.1362 18.7256C31.1207 18.7925 31.0801 18.8509 31.0227 18.8885L29.1224 20.0469L30.7507 19.1072C30.8112 19.0744 30.882 19.0663 30.9484 19.0845C31.0148 19.1027 31.0715 19.1459 31.1068 19.205C31.142 19.2641 31.1531 19.3345 31.1376 19.4016C31.1221 19.4687 31.0813 19.5271 31.0237 19.5648L26.2189 22.5397L30.7523 19.9232C30.8124 19.8901 30.883 19.8815 30.9494 19.8992C31.0158 19.9169 31.0727 19.9594 31.1085 20.0181C31.1442 20.0767 31.156 20.1469 31.1413 20.2139C31.1266 20.281 31.0866 20.3398 31.0296 20.3781L22.6509 25.7787L30.7507 21.1024C30.8108 21.0683 30.8817 21.0588 30.9487 21.0759C31.0156 21.0931 31.0733 21.1356 31.1095 21.1944C31.1458 21.2533 31.1577 21.3239 31.1429 21.3914C31.1281 21.4589 31.0877 21.518 31.0301 21.5563L23.4664 26.5163L30.7507 22.3093C30.8111 22.2755 30.8823 22.2665 30.9493 22.2842C31.0162 22.3019 31.0736 22.345 31.1094 22.4043C31.1452 22.4636 31.1564 22.5345 31.1408 22.602C31.1253 22.6695 31.084 22.7283 31.0259 22.7659L28.5891 24.3008L30.7507 23.0533C30.811 23.0202 30.8818 23.0116 30.9483 23.0295C31.0147 23.0473 31.0717 23.0901 31.1074 23.149C31.143 23.2079 31.1544 23.2783 31.1393 23.3455C31.1243 23.4126 31.0838 23.4713 31.0264 23.5093L29.1117 24.7221L30.7507 23.776C30.8105 23.7419 30.8811 23.7323 30.9479 23.7491C31.0146 23.7659 31.0723 23.8079 31.1088 23.8662C31.1453 23.9246 31.1578 23.9948 31.1438 24.0622C31.1297 24.1295 31.0901 24.1889 31.0333 24.2277L26.2813 27.4368L30.7507 24.8571C30.8107 24.8235 30.8813 24.8144 30.9478 24.8317C31.0143 24.8489 31.0716 24.8912 31.1077 24.9497C31.1438 25.0082 31.156 25.0783 31.1416 25.1455C31.1273 25.2127 31.0875 25.2718 31.0307 25.3104L28.7512 26.8176L30.7507 25.6635C30.8101 25.6292 30.8804 25.6192 30.947 25.6354C31.0136 25.6516 31.0714 25.6929 31.1084 25.7506C31.1454 25.8083 31.1587 25.8781 31.1456 25.9454C31.1326 26.0127 31.0941 26.0724 31.0381 26.112L27.9096 28.3248L30.7507 26.6848C30.8091 26.6516 30.8779 26.6417 30.9433 26.6571C31.0088 26.6725 31.066 26.712 31.1035 26.7677C31.141 26.8235 31.1562 26.8913 31.1458 26.9577C31.1355 27.0241 31.1004 27.0842 31.0477 27.1259L28.2509 29.3125L30.7507 27.8699C30.8092 27.8369 30.8781 27.8273 30.9434 27.8429C31.0088 27.8585 31.0658 27.8982 31.1032 27.9541C31.1405 28.01 31.1554 28.0779 31.1448 28.1442C31.1342 28.2106 31.099 28.2705 31.0461 28.312L29.8776 29.2117L30.7507 28.7077C30.809 28.6748 30.8777 28.665 30.943 28.6803C31.0082 28.6957 31.0653 28.7351 31.1028 28.7906C31.1403 28.8462 31.1556 28.9138 31.1455 28.9801C31.1354 29.0464 31.1007 29.1064 31.0483 29.1483L30.7901 29.3509C30.8444 29.3306 30.9037 29.3284 30.9593 29.3447C31.0149 29.3611 31.0636 29.3951 31.0982 29.4416C31.1327 29.4881 31.1511 29.5446 31.1507 29.6025C31.1503 29.6605 31.131 29.7167 31.0957 29.7627L30.4899 30.5568L30.7155 30.4267C30.7458 30.4074 30.7798 30.3944 30.8153 30.3886C30.8507 30.3828 30.887 30.3842 30.922 30.3927C30.9569 30.4013 30.9897 30.4168 31.0185 30.4384C31.0473 30.46 31.0714 30.4871 31.0894 30.5183C31.1074 30.5494 31.1189 30.5839 31.1233 30.6196C31.1276 30.6553 31.1247 30.6915 31.1146 30.726C31.1046 30.7606 31.0877 30.7927 31.0649 30.8206C31.0422 30.8484 31.014 30.8713 30.9821 30.888L29.604 31.68C29.5506 31.7106 29.4884 31.7218 29.4277 31.7117C29.367 31.7017 29.3117 31.6709 29.2711 31.6247C29.2305 31.5785 29.2071 31.5197 29.2049 31.4583C29.2027 31.3968 29.2218 31.3365 29.2589 31.2875L29.8653 30.4928L27.8067 31.68C27.7483 31.713 27.6796 31.7228 27.6144 31.7074C27.5491 31.6921 27.4921 31.6527 27.4545 31.5971C27.417 31.5416 27.4018 31.4739 27.4119 31.4076C27.422 31.3414 27.4567 31.2813 27.5091 31.2395L27.7459 31.0544L26.6621 31.68C26.6036 31.7136 26.5344 31.7238 26.4686 31.7084C26.4028 31.693 26.3454 31.6532 26.3078 31.5971C26.2702 31.541 26.2553 31.4727 26.2662 31.406C26.277 31.3393 26.3127 31.2792 26.3661 31.2379L27.5347 30.3387L25.2104 31.68C25.1519 31.7139 25.0828 31.7243 25.017 31.7091C24.9511 31.694 24.8935 31.6544 24.8557 31.5984C24.8179 31.5424 24.8028 31.4741 24.8134 31.4074C24.824 31.3407 24.8595 31.2805 24.9128 31.2389L27.7101 29.0523L23.1624 31.68C23.1031 31.713 23.0335 31.7222 22.9677 31.7057C22.9019 31.6891 22.8449 31.6482 22.8082 31.5911C22.7716 31.534 22.7581 31.465 22.7705 31.3983C22.7829 31.3316 22.8202 31.2721 22.8749 31.232L26.004 29.0181L21.3933 31.68C21.3335 31.7131 21.2632 31.7219 21.197 31.7045C21.1308 31.6872 21.0738 31.6452 21.0378 31.587C21.0017 31.5289 20.9894 31.4591 21.0034 31.3921C21.0174 31.3252 21.0565 31.2661 21.1128 31.2272L23.3944 29.7189L19.9965 31.68C19.9368 31.7136 19.8665 31.7229 19.8001 31.706C19.7337 31.6891 19.6764 31.6474 19.64 31.5893C19.6035 31.5313 19.5909 31.4615 19.6045 31.3944C19.6182 31.3273 19.6571 31.268 19.7133 31.2288L24.4643 28.0203L18.124 31.68C18.0636 31.7145 17.9921 31.7241 17.9248 31.7066C17.8575 31.6892 17.7997 31.6461 17.7636 31.5867C17.7276 31.5272 17.7162 31.456 17.7319 31.3882C17.7476 31.3205 17.7892 31.2616 17.8477 31.224L19.7571 30.0144L16.8733 31.68C16.8131 31.7122 16.7428 31.7201 16.6769 31.7019C16.611 31.6838 16.5546 31.6411 16.5193 31.5826C16.484 31.5241 16.4725 31.4543 16.4872 31.3876C16.5019 31.3209 16.5416 31.2623 16.5981 31.224L19.0381 29.6869L15.5837 31.68C15.5238 31.7126 15.4537 31.721 15.3877 31.7035C15.3218 31.6859 15.2651 31.6438 15.2293 31.5857C15.1935 31.5276 15.1813 31.458 15.1952 31.3913C15.2092 31.3245 15.2482 31.2656 15.3043 31.2267L22.8696 26.2667L13.4931 31.68C13.4331 31.7118 13.3632 31.7195 13.2977 31.7015C13.2322 31.6836 13.176 31.6413 13.1406 31.5833C13.1052 31.5253 13.0933 31.456 13.1073 31.3896C13.1212 31.3231 13.16 31.2645 13.2157 31.2256L21.5891 25.8272L11.4515 31.68C11.3911 31.7123 11.3206 31.7201 11.2546 31.7018C11.1886 31.6835 11.1322 31.6405 11.097 31.5818C11.0619 31.523 11.0506 31.453 11.0657 31.3862C11.0807 31.3194 11.1209 31.2609 11.1779 31.2229L15.9827 28.248L10.0381 31.68C9.97752 31.7135 9.90624 31.7221 9.83938 31.704C9.77253 31.6859 9.71534 31.6425 9.67993 31.583C9.64452 31.5234 9.63366 31.4525 9.64965 31.3851C9.66564 31.3177 9.70722 31.2592 9.7656 31.2219L11.6771 30.0565L8.8648 31.68C8.8043 31.7128 8.73346 31.721 8.66709 31.7027C8.60072 31.6845 8.54396 31.6413 8.50869 31.5822C8.47343 31.5231 8.46237 31.4527 8.47785 31.3856C8.49333 31.3186 8.53413 31.2601 8.59174 31.2224L13.62 28.1387L7.48667 31.68C7.42601 31.713 7.35492 31.7212 7.28836 31.7028C7.2218 31.6845 7.16495 31.641 7.12979 31.5816C7.09462 31.5222 7.08387 31.4514 7.0998 31.3842C7.11573 31.317 7.1571 31.2586 7.2152 31.2213L9.2344 29.9947L6.31814 31.68C6.25763 31.7128 6.18679 31.721 6.12042 31.7027C6.05405 31.6845 5.9973 31.6413 5.96203 31.5822C5.92676 31.5231 5.91571 31.4527 5.93118 31.3856C5.94666 31.3186 5.98747 31.2601 6.04507 31.2224L13.9384 26.3771L4.7512 31.68C4.71082 31.704 4.66482 31.7169 4.61787 31.7173Z" fill="#CD4C60"/>
        <path d="M3.94801 10.384C3.89112 10.384 3.83573 10.3657 3.78993 10.332C3.74414 10.2982 3.71034 10.2507 3.69348 10.1964C3.67662 10.142 3.67758 10.0837 3.69622 10.03C3.71486 9.97622 3.7502 9.92984 3.79708 9.89761L4.30481 9.54881L2.97148 10.3195C2.91242 10.3536 2.84254 10.3638 2.7762 10.348C2.70986 10.3321 2.65211 10.2915 2.61481 10.2344C2.57752 10.1773 2.56352 10.1081 2.5757 10.041C2.58788 9.97385 2.6253 9.91397 2.68028 9.87361L4.48401 8.55041L2.06481 9.94614C2.00571 9.97976 1.93599 9.98953 1.86993 9.97346C1.80386 9.95738 1.74643 9.91668 1.70937 9.85967C1.67232 9.80266 1.65844 9.73364 1.67058 9.66674C1.68272 9.59984 1.71996 9.5401 1.77468 9.49974L2.90534 8.68001L1.57201 9.44907C1.51308 9.48336 1.44326 9.49378 1.37689 9.47818C1.31052 9.46258 1.25264 9.42215 1.21516 9.36521C1.17767 9.30826 1.16342 9.23912 1.17533 9.17199C1.18725 9.10486 1.22442 9.04484 1.27921 9.00427L2.07921 8.41014L1.28454 8.86881C1.22826 8.90171 1.16187 8.91285 1.09792 8.90013C1.03398 8.8874 0.976909 8.85169 0.937507 8.79975C0.898105 8.7478 0.879098 8.68322 0.88408 8.61821C0.889062 8.55321 0.917687 8.49227 0.964544 8.44694L2.26214 7.18667L1.23228 7.78134C1.1758 7.8159 1.10849 7.82821 1.04344 7.81589C0.978388 7.80356 0.920247 7.76748 0.88033 7.71465C0.840413 7.66183 0.821574 7.59605 0.827479 7.5301C0.833384 7.46416 0.86361 7.40276 0.912277 7.35787L1.40881 6.88267C1.36578 6.85931 1.33013 6.8244 1.30588 6.78187C1.27047 6.72069 1.26081 6.64795 1.27901 6.57965C1.29721 6.51134 1.34179 6.45306 1.40294 6.41761L2.67068 5.68587C2.72715 5.65131 2.79446 5.639 2.85951 5.65132C2.92457 5.66365 2.98271 5.69973 3.02262 5.75256C3.06254 5.80538 3.08138 5.87117 3.07547 5.93711C3.06957 6.00306 3.03934 6.06445 2.99068 6.10934L2.88401 6.21281L3.85414 5.65334C3.91043 5.62044 3.97682 5.60929 4.04077 5.62202C4.10471 5.63474 4.16178 5.67045 4.20118 5.7224C4.24058 5.77434 4.25959 5.83892 4.25461 5.90393C4.24963 5.96894 4.221 6.02987 4.17414 6.07521L2.87601 7.33387L5.78961 5.65334C5.84854 5.61905 5.91836 5.60864 5.98473 5.62423C6.0511 5.63983 6.10898 5.68026 6.14646 5.7372C6.18395 5.79415 6.1982 5.86329 6.18629 5.93042C6.17438 5.99755 6.1372 6.05757 6.08241 6.09814L5.28241 6.69334L7.08508 5.65334C7.14429 5.6184 7.21471 5.60768 7.28164 5.62341C7.34857 5.63915 7.40684 5.68013 7.44427 5.7378C7.48171 5.79547 7.49542 5.86537 7.48256 5.93291C7.46969 6.00045 7.43123 6.06041 7.37521 6.10027L6.24401 6.91841L8.43708 5.65334C8.49613 5.61922 8.56601 5.60903 8.63235 5.62486C8.69869 5.64068 8.75645 5.68132 8.79374 5.73843C8.83103 5.79553 8.84503 5.86475 8.83286 5.93185C8.82068 5.99896 8.78326 6.05885 8.72828 6.09921L6.92454 7.42187L9.98854 5.65334C10.0481 5.62055 10.1179 5.61173 10.1837 5.62868C10.2495 5.64563 10.3064 5.68707 10.3427 5.74453C10.379 5.802 10.3919 5.87115 10.379 5.93786C10.366 6.00457 10.328 6.06381 10.2728 6.10347L9.76294 6.45334L11.1496 5.65334C11.2077 5.62063 11.2759 5.61084 11.3408 5.62589C11.4057 5.64094 11.4626 5.67975 11.5003 5.73467C11.538 5.78959 11.5538 5.85664 11.5446 5.92263C11.5354 5.98862 11.5018 6.04876 11.4504 6.09121L8.85628 8.19094L13.2525 5.65334C13.3118 5.62104 13.3811 5.61239 13.4464 5.62915C13.5118 5.64591 13.5684 5.68682 13.6048 5.74364C13.6412 5.80046 13.6547 5.86896 13.6425 5.93534C13.6304 6.00172 13.5936 6.06104 13.5395 6.10134L12.3085 6.97121L14.5923 5.65334C14.6506 5.62054 14.7191 5.61086 14.7842 5.6262C14.8493 5.64155 14.9063 5.6808 14.9438 5.73618C14.9813 5.79155 14.9966 5.85901 14.9868 5.92517C14.9769 5.99132 14.9425 6.05135 14.8904 6.09334L12.4307 8.02881L16.5475 5.65334C16.6062 5.61992 16.6754 5.61003 16.7411 5.62566C16.8068 5.64129 16.8641 5.68128 16.9015 5.73754C16.9389 5.79381 16.9535 5.86216 16.9425 5.9288C16.9314 5.99543 16.8954 6.05538 16.8419 6.09654L14.6781 7.73121L18.2781 5.65121C18.3372 5.61789 18.4067 5.60831 18.4725 5.62439C18.5383 5.64048 18.5956 5.68103 18.6326 5.73781C18.6696 5.79459 18.6836 5.86333 18.6718 5.93006C18.6599 5.99679 18.6231 6.05651 18.5688 6.09707L16.7555 7.42561L19.828 5.65334C19.8876 5.6197 19.9578 5.61025 20.0242 5.62693C20.0905 5.64361 20.1479 5.68515 20.1845 5.74297C20.2211 5.80078 20.234 5.87044 20.2207 5.93754C20.2073 6.00464 20.1687 6.06405 20.1128 6.10347L19.4691 6.54667L21.0157 5.65334C21.0753 5.62055 21.1451 5.61173 21.2109 5.62868C21.2767 5.64563 21.3336 5.68707 21.3699 5.74453C21.4062 5.802 21.4191 5.87115 21.4062 5.93786C21.3932 6.00457 21.3552 6.06381 21.3 6.10347L20.78 6.46027L22.1805 5.65334C22.2389 5.61971 22.3079 5.60944 22.3736 5.62458C22.4392 5.63973 22.4967 5.67916 22.5345 5.73497C22.5722 5.79077 22.5875 5.8588 22.5771 5.92539C22.5668 5.99197 22.5316 6.05217 22.4787 6.09387L20.0445 8.00001L24.1123 5.65334C24.1716 5.61951 24.2416 5.60971 24.3079 5.62598C24.3743 5.64225 24.4318 5.68333 24.4687 5.74077C24.5056 5.7982 24.5191 5.86762 24.5064 5.9347C24.4937 6.00178 24.4557 6.06143 24.4003 6.10134L22.9731 7.12001L25.5133 5.65334C25.5714 5.62005 25.6399 5.60981 25.7051 5.62466C25.7704 5.63951 25.8277 5.67836 25.8657 5.7335C25.9036 5.78864 25.9194 5.85604 25.91 5.9223C25.9005 5.98857 25.8665 6.04886 25.8147 6.09121L23.22 8.19307L27.1816 5.90614C27.2412 5.87077 27.3122 5.85997 27.3796 5.87602C27.447 5.89208 27.5055 5.93373 27.5427 5.99216C27.5799 6.05059 27.5929 6.12121 27.579 6.18907C27.565 6.25693 27.5252 6.31671 27.468 6.35574L26.8648 6.77654L27.5075 6.40321C27.5658 6.37023 27.6345 6.36044 27.6998 6.37581C27.765 6.39117 27.8221 6.43055 27.8596 6.4861C27.8972 6.54166 27.9124 6.60931 27.9023 6.67559C27.8922 6.74186 27.8575 6.8019 27.8051 6.84374L26.3288 8.00161L27.5555 7.29387C27.6126 7.26144 27.6796 7.25121 27.7437 7.26513C27.8079 7.27905 27.8647 7.31615 27.9032 7.36932C27.9417 7.42249 27.9592 7.48799 27.9524 7.55329C27.9457 7.61859 27.915 7.67909 27.8664 7.72321L26.9 8.58667L27.5592 8.20641C27.616 8.17185 27.6837 8.15978 27.749 8.17255C27.8143 8.18532 27.8724 8.22202 27.912 8.27545C27.9516 8.32888 27.9698 8.39518 27.9631 8.46134C27.9563 8.5275 27.9251 8.58875 27.8755 8.63307L27.6765 8.81974C27.7411 8.81539 27.805 8.83431 27.8568 8.87307C27.8986 8.90469 27.9301 8.9479 27.9475 8.99731C27.9648 9.04673 27.9672 9.10016 27.9544 9.15094L27.8067 9.72107C27.8514 9.74126 27.8897 9.7734 27.9174 9.81397C27.945 9.85453 27.9609 9.90194 27.9634 9.95096C27.9658 9.99999 27.9546 10.0487 27.9311 10.0918C27.9076 10.1349 27.8727 10.1707 27.8301 10.1952L27.5635 10.3483C27.5181 10.3742 27.4661 10.3862 27.4139 10.3829C27.3617 10.3795 27.3117 10.3608 27.27 10.3292C27.2284 10.2976 27.1969 10.2545 27.1796 10.2051C27.1622 10.1558 27.1598 10.1025 27.1725 10.0517L27.2792 9.63094L26.0392 10.3467C25.9824 10.3812 25.9147 10.3933 25.8494 10.3805C25.7842 10.3678 25.726 10.3311 25.6864 10.2776C25.6468 10.2242 25.6286 10.1579 25.6354 10.0917C25.6421 10.0256 25.6734 9.96433 25.7229 9.92001L25.8376 9.81334L24.9144 10.3467C24.8577 10.3767 24.7921 10.3853 24.7295 10.3709C24.667 10.3565 24.6118 10.32 24.574 10.2681C24.5362 10.2163 24.5184 10.1525 24.5238 10.0886C24.5292 10.0246 24.5575 9.96477 24.6035 9.92001L25.5693 9.05921L23.3336 10.3467C23.2752 10.3797 23.2066 10.3894 23.1413 10.3741C23.0761 10.3587 23.019 10.3193 22.9815 10.2638C22.9439 10.2082 22.9287 10.1406 22.9388 10.0743C22.9489 10.008 22.9836 9.94798 23.036 9.90614L24.5128 8.74827L21.7432 10.3483C21.6838 10.3812 21.6141 10.3902 21.5483 10.3734C21.4825 10.3567 21.4255 10.3155 21.3891 10.2582C21.3526 10.2009 21.3394 10.1319 21.3521 10.0652C21.3647 9.99846 21.4024 9.9391 21.4573 9.89921L22.0605 9.47841L20.5533 10.3467C20.4953 10.38 20.4268 10.3902 20.3615 10.3754C20.2963 10.3605 20.239 10.3217 20.201 10.2665C20.1631 10.2114 20.1473 10.144 20.1567 10.0777C20.1661 10.0114 20.2002 9.95115 20.252 9.90881L22.8467 7.80641L18.4456 10.3467C18.3864 10.3794 18.317 10.3884 18.2514 10.3719C18.1858 10.3553 18.129 10.3145 18.0924 10.2576C18.0558 10.2007 18.0422 10.1321 18.0543 10.0655C18.0664 9.99899 18.1033 9.93954 18.1576 9.89921L19.5853 8.88001L17.0445 10.3467C16.9862 10.3803 16.9172 10.3906 16.8515 10.3754C16.7859 10.3603 16.7284 10.3208 16.6906 10.265C16.6529 10.2092 16.6376 10.1412 16.648 10.0746C16.6583 10.008 16.6935 9.94785 16.7464 9.90614L19.18 8.00001L15.1133 10.3467C15.0538 10.3795 14.984 10.3883 14.9182 10.3713C14.8524 10.3544 14.7955 10.3129 14.7592 10.2555C14.7229 10.198 14.71 10.1289 14.7229 10.0622C14.7359 9.99544 14.7739 9.9362 14.8291 9.89654L15.3512 9.53814L13.9496 10.3467C13.89 10.3803 13.8198 10.3898 13.7535 10.3731C13.6871 10.3564 13.6297 10.3149 13.5931 10.257C13.5566 10.1992 13.5436 10.1296 13.5569 10.0625C13.5703 9.99537 13.6089 9.93597 13.6648 9.89654L14.3085 9.45334L12.7619 10.3467C12.7029 10.38 12.6334 10.3896 12.5675 10.3735C12.5017 10.3574 12.4444 10.3168 12.4074 10.2601C12.3704 10.2033 12.3564 10.1346 12.3683 10.0678C12.3801 10.0011 12.4169 9.94137 12.4712 9.90081L14.2845 8.57281L11.2104 10.3467C11.1517 10.3801 11.0825 10.39 11.0168 10.3743C10.9511 10.3587 10.8937 10.3187 10.8564 10.2625C10.819 10.2062 10.8044 10.1379 10.8154 10.0712C10.8265 10.0046 10.8625 9.94463 10.916 9.90347L13.0797 8.26881L9.47974 10.3488C9.42142 10.3822 9.35263 10.3924 9.28714 10.3772C9.22165 10.3621 9.16429 10.3228 9.12654 10.2672C9.08879 10.2116 9.07343 10.1438 9.08355 10.0773C9.09366 10.0109 9.12849 9.95067 9.18108 9.90881L11.6413 7.97227L7.52454 10.3467C7.4653 10.379 7.39602 10.3876 7.33066 10.3709C7.2653 10.3541 7.20872 10.3132 7.17233 10.2564C7.13594 10.1996 7.12244 10.131 7.13455 10.0647C7.14667 9.99829 7.18349 9.93897 7.23761 9.89867L8.47014 9.02774L6.18428 10.3467C6.12623 10.3794 6.05804 10.3892 5.99313 10.3741C5.92822 10.3591 5.8713 10.3203 5.83357 10.2653C5.79584 10.2104 5.78004 10.1434 5.78928 10.0774C5.79851 10.0114 5.83212 9.95126 5.88348 9.90881L8.47761 7.80907L4.08134 10.3467C4.04096 10.3706 3.99497 10.3835 3.94801 10.384Z" fill="#A53C50"/>
        <path d="M26.4557 23.7173C26.3998 23.7173 26.3452 23.6997 26.2998 23.667C26.2544 23.6343 26.2205 23.5881 26.2028 23.535C26.1851 23.4819 26.1845 23.4246 26.2012 23.3712C26.2179 23.3177 26.251 23.2709 26.2957 23.2373L28.5 21.5552L25.1933 23.4667C25.1334 23.5023 25.0618 23.513 24.994 23.4965C24.9262 23.4799 24.8676 23.4375 24.8307 23.3782C24.7939 23.319 24.7817 23.2476 24.7969 23.1795C24.812 23.1114 24.8533 23.0519 24.9117 23.0139L24.9464 22.9915L24.6563 23.1584C24.5976 23.1918 24.5284 23.2017 24.4627 23.1861C24.3969 23.1704 24.3396 23.1305 24.3022 23.0742C24.2649 23.0179 24.2502 22.9496 24.2613 22.8829C24.2724 22.8163 24.3083 22.7564 24.3619 22.7152L27.2483 20.5317L23.9784 22.4197C23.9193 22.4542 23.8491 22.4647 23.7825 22.4489C23.7159 22.4331 23.6579 22.3923 23.6206 22.3349C23.5832 22.2775 23.5694 22.208 23.5819 22.1407C23.5944 22.0734 23.6323 22.0135 23.6877 21.9733L25.1736 20.8907L23.6867 21.7488C23.6286 21.7821 23.5601 21.7923 23.4949 21.7775C23.4296 21.7626 23.3723 21.7238 23.3344 21.6686C23.2964 21.6135 23.2806 21.5461 23.29 21.4798C23.2995 21.4136 23.3335 21.3533 23.3853 21.3109L24.8915 20.0955L23.596 20.8421C23.5413 20.8739 23.4771 20.8851 23.4149 20.8739C23.3527 20.8627 23.2964 20.8298 23.2562 20.7809C23.2161 20.7321 23.1945 20.6706 23.1955 20.6073C23.1965 20.5441 23.2199 20.4833 23.2616 20.4357L24.3048 19.2427L24.2648 19.2656C24.2345 19.2849 24.2005 19.2978 24.165 19.3037C24.1295 19.3095 24.0932 19.3081 24.0583 19.2996C24.0234 19.291 23.9905 19.2755 23.9618 19.2539C23.933 19.2323 23.9089 19.2051 23.8909 19.174C23.8729 19.1429 23.8614 19.1084 23.857 19.0727C23.8527 19.037 23.8556 19.0008 23.8656 18.9663C23.8757 18.9317 23.8926 18.8996 23.9153 18.8717C23.9381 18.8439 23.9663 18.8209 23.9981 18.8043L25.4285 17.9787C25.4832 17.9469 25.5474 17.9356 25.6097 17.9469C25.6719 17.9581 25.7281 17.991 25.7683 18.0399C25.8085 18.0887 25.83 18.1502 25.829 18.2135C25.8281 18.2767 25.8046 18.3375 25.7629 18.3851L24.7187 19.5733L27.5891 17.92C27.6471 17.8873 27.7153 17.8775 27.7802 17.8925C27.8451 17.9076 27.9021 17.9464 27.9398 18.0013C27.9775 18.0562 27.9933 18.1233 27.9841 18.1893C27.9748 18.2553 27.9412 18.3154 27.8899 18.3579L26.3837 19.5733L29.2467 17.92C29.3058 17.8855 29.3759 17.8751 29.4426 17.8909C29.5092 17.9067 29.5672 17.9475 29.6045 18.0048C29.6419 18.0622 29.6557 18.1317 29.6432 18.199C29.6307 18.2664 29.5928 18.3263 29.5373 18.3664L28.0525 19.448L30.7016 17.92C30.7603 17.8866 30.8295 17.8767 30.8952 17.8923C30.9609 17.908 31.0183 17.9479 31.0557 18.0042C31.093 18.0605 31.1077 18.1288 31.0966 18.1955C31.0855 18.2621 31.0496 18.322 30.996 18.3632L28.1096 20.5461L31.6936 18.4773C31.7535 18.4426 31.8245 18.4326 31.8917 18.4493C31.9589 18.466 32.0169 18.5082 32.0536 18.5669C32.0902 18.6256 32.1026 18.6963 32.0881 18.764C32.0735 18.8317 32.0333 18.8911 31.9757 18.9296L31.8691 19.0021C31.9289 18.9825 31.9938 18.9846 32.0522 19.0082C32.1106 19.0318 32.1587 19.0754 32.1881 19.1311C32.2175 19.1868 32.2262 19.2511 32.2127 19.3126C32.1993 19.3741 32.1644 19.4289 32.1144 19.4672L29.9112 21.1499L31.8195 20.0485C31.8763 20.016 31.943 20.0055 32.0071 20.019C32.0711 20.0325 32.1279 20.0691 32.1667 20.1218C32.2055 20.1745 32.2236 20.2397 32.2175 20.3048C32.2114 20.37 32.1815 20.4306 32.1336 20.4752L30.4611 22.0123L31.8173 21.2267C31.8738 21.1945 31.94 21.184 32.0036 21.1972C32.0673 21.2104 32.1239 21.2464 32.1628 21.2984C32.2018 21.3504 32.2204 21.4148 32.2152 21.4796C32.2101 21.5444 32.1814 21.605 32.1347 21.6501L31.6547 22.1115L31.8195 22.0165C31.8804 21.9846 31.9513 21.9776 32.0174 21.9967C32.0834 22.0159 32.1395 22.0598 32.174 22.1194C32.2084 22.1789 32.2185 22.2495 32.2021 22.3163C32.1857 22.3831 32.1442 22.441 32.0861 22.4779L30.0061 23.6795C29.9497 23.7116 29.8835 23.7221 29.8199 23.7089C29.7562 23.6957 29.6996 23.6597 29.6607 23.6077C29.6217 23.5557 29.6031 23.4913 29.6083 23.4265C29.6134 23.3618 29.6421 23.3011 29.6888 23.256L30.1688 22.7947L28.6339 23.68C28.5771 23.7125 28.5103 23.723 28.4463 23.7095C28.3823 23.696 28.3254 23.6594 28.2866 23.6067C28.2478 23.554 28.2298 23.4889 28.2359 23.4237C28.242 23.3585 28.2718 23.2979 28.3197 23.2533L29.9933 21.7168L26.5891 23.68C26.5488 23.7041 26.5027 23.717 26.4557 23.7173Z" fill="#A53C50"/>
        <path d="M5.88664 10.4C5.82858 10.4002 5.77204 10.3814 5.72561 10.3465C5.67919 10.3117 5.64542 10.2626 5.62942 10.2068C5.61343 10.1509 5.6161 10.0914 5.63701 10.0373C5.65793 9.9831 5.69595 9.93724 5.74531 9.90666L7.66531 8.71092L5.98264 9.68052C5.92228 9.71321 5.85165 9.72138 5.78543 9.70331C5.71921 9.68524 5.66251 9.64234 5.62712 9.58352C5.59174 9.52471 5.58039 9.45451 5.59545 9.38754C5.61051 9.32057 5.65081 9.26199 5.70797 9.22399L7.71491 7.96372L5.98264 8.96372C5.92252 8.99731 5.85173 9.00634 5.7851 8.98892C5.71847 8.97149 5.66116 8.92897 5.62518 8.87024C5.5892 8.81152 5.57734 8.74115 5.59208 8.67387C5.60681 8.6066 5.64701 8.54763 5.70424 8.50932L9.82691 5.82932L5.98264 8.04852C5.92284 8.0826 5.85218 8.09224 5.78544 8.07542C5.71871 8.05861 5.66105 8.01664 5.62454 7.95829C5.58803 7.89995 5.5755 7.82975 5.58956 7.76237C5.60361 7.695 5.64318 7.63567 5.69997 7.59679L10.2104 4.54825L5.98264 6.98666C5.92319 7.01912 5.85362 7.02774 5.78804 7.01078C5.72247 6.99382 5.6658 6.95253 5.62956 6.89531C5.59331 6.83809 5.5802 6.76922 5.59288 6.70269C5.60556 6.63615 5.64309 6.57693 5.69784 6.53706L9.26477 4.07359L5.98264 5.96959C5.92311 6.00238 5.8533 6.0112 5.78749 5.99425C5.72167 5.9773 5.66481 5.93586 5.62852 5.8784C5.59223 5.82093 5.57925 5.75178 5.59223 5.68507C5.60521 5.61835 5.64318 5.55912 5.69837 5.51946L7.65677 4.17332L5.98264 5.13972C5.92302 5.17441 5.85229 5.18466 5.78528 5.1683C5.71828 5.15195 5.66021 5.11026 5.62329 5.05201C5.58636 4.99375 5.57344 4.92346 5.58724 4.85588C5.60104 4.7883 5.64049 4.7287 5.69731 4.68959L6.68024 4.00852L5.98264 4.41119C5.92493 4.44472 5.85675 4.45539 5.79156 4.4411C5.72636 4.42681 5.6689 4.38859 5.63052 4.33399C5.59213 4.2794 5.57561 4.21239 5.58423 4.14621C5.59284 4.08002 5.62596 4.01948 5.67704 3.97652L7.69837 2.26452L5.98264 3.25332C5.92482 3.28657 5.85664 3.29694 5.79155 3.28239C5.72646 3.26784 5.66918 3.22943 5.63102 3.17473C5.59286 3.12003 5.57658 3.05301 5.58539 2.9869C5.59421 2.92079 5.62748 2.86038 5.67864 2.81759L6.25997 2.33546L5.98317 2.49546C5.92688 2.52836 5.86049 2.5395 5.79655 2.52678C5.7326 2.51405 5.67554 2.47834 5.63614 2.4264C5.59673 2.37445 5.57773 2.30987 5.58271 2.24486C5.58769 2.17985 5.61631 2.11892 5.66317 2.07359L5.91811 1.82559C5.87184 1.8375 5.82325 1.83696 5.77727 1.82403C5.73128 1.81111 5.68952 1.78625 5.65624 1.75199C5.61497 1.70891 5.58933 1.65324 5.58344 1.59387C5.57754 1.53451 5.59172 1.47488 5.62371 1.42452L5.79224 1.15786C5.73088 1.13777 5.67906 1.09582 5.64664 1.03999C5.61145 0.978789 5.60196 0.906132 5.62025 0.837948C5.63855 0.769763 5.68314 0.711616 5.74424 0.676255L6.36344 0.319988C6.41506 0.290373 6.4751 0.278875 6.53401 0.287325C6.59291 0.295774 6.6473 0.323685 6.68851 0.366615C6.72973 0.409545 6.75539 0.465027 6.76143 0.52423C6.76747 0.583433 6.75354 0.642955 6.72184 0.693322L6.65891 0.792522L7.47864 0.319988C7.53493 0.287085 7.60132 0.275943 7.66526 0.288668C7.72921 0.301393 7.78627 0.337103 7.82568 0.389048C7.86508 0.440993 7.88408 0.505574 7.8791 0.570582C7.87412 0.63559 7.8455 0.69652 7.79864 0.741855L7.56931 0.964788L8.68611 0.319988C8.74384 0.28743 8.81164 0.277543 8.87627 0.292255C8.9409 0.306966 8.99774 0.345222 9.0357 0.399563C9.07366 0.453904 9.09002 0.520434 9.08159 0.586182C9.07316 0.651929 9.04054 0.712181 8.99011 0.755188L8.41037 1.23839L10.0013 0.319988C10.0589 0.286599 10.127 0.275993 10.1921 0.290257C10.2571 0.30452 10.3145 0.342621 10.3529 0.397061C10.3913 0.451501 10.4079 0.518338 10.3995 0.584418C10.3911 0.650499 10.3582 0.711038 10.3074 0.754122L8.28664 2.46612L12.005 0.319988C12.0645 0.286748 12.1345 0.277543 12.2005 0.294261C12.2666 0.310979 12.3238 0.352352 12.3603 0.409887C12.3968 0.467422 12.4099 0.536752 12.3969 0.603645C12.3839 0.670537 12.3458 0.729915 12.2904 0.769588L11.3085 1.44959L13.2669 0.319988C13.3265 0.286351 13.3967 0.276896 13.463 0.293578C13.5294 0.31026 13.5868 0.351804 13.6234 0.409616C13.6599 0.467429 13.6729 0.537088 13.6596 0.604188C13.6462 0.671287 13.6076 0.730694 13.5517 0.770122L11.5933 2.11412L14.7048 0.319988C14.7642 0.287524 14.8338 0.278899 14.8994 0.295863C14.9649 0.312828 15.0216 0.354111 15.0579 0.411331C15.0941 0.468552 15.1072 0.537421 15.0945 0.603958C15.0819 0.670494 15.0443 0.729712 14.9896 0.769588L11.4221 3.23306L16.4701 0.319988C16.5298 0.286411 16.6001 0.277098 16.6665 0.293978C16.7329 0.310859 16.7903 0.352638 16.8267 0.410656C16.8631 0.468674 16.8758 0.53848 16.8621 0.605603C16.8485 0.672727 16.8095 0.732019 16.7533 0.771188L12.2413 3.82079L18.3058 0.319988C18.3658 0.287798 18.4358 0.27976 18.5015 0.297521C18.5672 0.315282 18.6237 0.357497 18.6593 0.415518C18.6949 0.473539 18.7069 0.542973 18.693 0.609595C18.679 0.676217 18.6401 0.734984 18.5842 0.773855L14.4648 3.45119L19.8898 0.319988C19.9503 0.286134 20.0215 0.277115 20.0884 0.29484C20.1554 0.312564 20.2128 0.355641 20.2486 0.414956C20.2843 0.474272 20.2956 0.545171 20.28 0.612652C20.2644 0.680133 20.2232 0.738901 20.165 0.776522L18.1581 2.03519L21.1325 0.319988C21.193 0.286689 21.264 0.27813 21.3306 0.296112C21.3973 0.314094 21.4543 0.357216 21.4898 0.416411C21.5253 0.475605 21.5365 0.54626 21.521 0.613518C21.5055 0.680776 21.4645 0.739397 21.4066 0.777055L19.4866 1.97332L22.3512 0.319988C22.4114 0.2863 22.4824 0.277301 22.5492 0.294885C22.616 0.312468 22.6733 0.355264 22.7092 0.414267C22.745 0.473271 22.7566 0.543882 22.7415 0.611246C22.7263 0.67861 22.6856 0.737474 22.628 0.775455L17.6733 3.93706L23.668 0.479988C23.7281 0.446899 23.7987 0.438293 23.8651 0.455962C23.9315 0.473632 23.9884 0.516214 24.0242 0.574844C24.0599 0.633473 24.0717 0.703629 24.057 0.770703C24.0423 0.837778 24.0023 0.8966 23.9453 0.934922L19.0093 4.09332L23.8184 1.31679C23.8783 1.28418 23.9485 1.27578 24.0144 1.29332C24.0803 1.31086 24.137 1.35301 24.1728 1.41108C24.2086 1.46916 24.2208 1.53876 24.2069 1.60554C24.1929 1.67233 24.1539 1.73123 24.0978 1.77012L18.7752 5.26666L23.82 2.35412C23.8805 2.31756 23.9531 2.30654 24.0218 2.32349C24.0904 2.34045 24.1495 2.38398 24.1861 2.44452C24.2227 2.50506 24.2337 2.57765 24.2167 2.64631C24.1998 2.71497 24.1562 2.77409 24.0957 2.81066L23.3266 3.29866L23.8242 3.01119C23.8846 2.97582 23.9564 2.96558 24.0242 2.98268C24.0921 2.99977 24.1505 3.04283 24.1868 3.10257C24.2232 3.16231 24.2347 3.23396 24.2187 3.30206C24.2028 3.37017 24.1607 3.42928 24.1016 3.46666L22.7426 4.33866L23.8221 3.71572C23.882 3.68163 23.9529 3.67208 24.0197 3.68907C24.0865 3.70607 24.1442 3.74829 24.1805 3.80688C24.2169 3.86546 24.2291 3.93586 24.2147 4.00329C24.2003 4.07072 24.1603 4.12994 24.1032 4.16852L21.9256 5.61332L23.8237 4.51786C23.8834 4.48428 23.9537 4.47497 24.0201 4.49185C24.0865 4.50873 24.1439 4.55051 24.1803 4.60852C24.2167 4.66654 24.2294 4.73635 24.2157 4.80347C24.2021 4.87059 24.1631 4.92989 24.1069 4.96906L22.3133 6.18292L23.8226 5.31146C23.8822 5.27608 23.9532 5.26528 24.0206 5.28134C24.088 5.29739 24.1465 5.33905 24.1837 5.39747C24.2209 5.4559 24.2339 5.52653 24.22 5.59439C24.2061 5.66225 24.1663 5.72202 24.109 5.76106L22.6157 6.80532L23.8253 6.10666C23.8848 6.07249 23.9552 6.0626 24.0219 6.07903C24.0885 6.09546 24.1462 6.13695 24.1831 6.19486C24.2199 6.25278 24.233 6.32266 24.2196 6.38997C24.2062 6.45729 24.1674 6.51684 24.1112 6.55626L23.772 6.79306L23.8253 6.76212C23.8826 6.72933 23.9501 6.71897 24.0146 6.73306C24.0791 6.74715 24.1361 6.78468 24.1746 6.83839C24.213 6.8921 24.2301 6.95816 24.2227 7.02377C24.2152 7.08939 24.1836 7.1499 24.1341 7.19359L22.6162 8.51786L23.8274 7.81866C23.8822 7.78694 23.9465 7.77575 24.0088 7.7871C24.0711 7.79845 24.1273 7.83159 24.1674 7.8806C24.2075 7.92961 24.2289 7.99128 24.2276 8.05458C24.2264 8.11789 24.2027 8.1787 24.1608 8.22612L23.4141 9.07252L23.829 8.83306C23.8744 8.80691 23.9264 8.79467 23.9786 8.79788C24.0309 8.80109 24.081 8.8196 24.1228 8.8511C24.1646 8.8826 24.1962 8.9257 24.2137 8.97503C24.2311 9.02436 24.2337 9.07774 24.221 9.12852L24.0733 9.71999C24.1251 9.74254 24.1681 9.78128 24.196 9.83039C24.2312 9.89159 24.2407 9.96424 24.2224 10.0324C24.2041 10.1006 24.1595 10.1588 24.0984 10.1941L23.8317 10.3483C23.7864 10.3744 23.7343 10.3866 23.6821 10.3834C23.6299 10.3802 23.5797 10.3617 23.538 10.3302C23.4962 10.2987 23.4646 10.2556 23.4471 10.2063C23.4296 10.157 23.4271 10.1036 23.4397 10.0528L23.5512 9.60959L22.2712 10.3493C22.2164 10.3807 22.1523 10.3917 22.0903 10.3802C22.0282 10.3688 21.9722 10.3358 21.9322 10.287C21.8923 10.2382 21.8709 10.1767 21.8719 10.1137C21.8729 10.0506 21.8963 9.98988 21.9378 9.94239L22.6845 9.09546L20.509 10.3509C20.4517 10.3842 20.384 10.395 20.3192 10.3811C20.2543 10.3672 20.197 10.3296 20.1583 10.2757C20.1197 10.2218 20.1025 10.1555 20.1102 10.0896C20.1178 10.0237 20.1497 9.96307 20.1997 9.91946L21.7176 8.59572L18.6738 10.3525C18.6143 10.3867 18.5439 10.3966 18.4773 10.3801C18.4106 10.3637 18.3529 10.3222 18.3161 10.2643C18.2793 10.2064 18.2662 10.1365 18.2796 10.0692C18.293 10.0019 18.3318 9.94233 18.388 9.90292L18.7266 9.66665L17.5362 10.3536C17.4767 10.3877 17.4063 10.3976 17.3397 10.3812C17.273 10.3648 17.2153 10.3233 17.1785 10.2654C17.1417 10.2075 17.1286 10.1376 17.142 10.0703C17.1554 10.003 17.1942 9.9434 17.2504 9.90399L18.7437 8.86132L16.156 10.3547C16.0961 10.3901 16.0248 10.4008 15.9572 10.3844C15.8896 10.368 15.8311 10.3258 15.7941 10.2669C15.7572 10.2079 15.7447 10.1369 15.7594 10.0689C15.7741 10.0009 15.8148 9.94134 15.8728 9.90292L17.668 8.68692L14.7773 10.3557C14.7172 10.393 14.6447 10.4049 14.5759 10.3887C14.507 10.3726 14.4474 10.3297 14.4101 10.2696C14.3728 10.2095 14.361 10.137 14.3771 10.0681C14.3933 9.99929 14.4361 9.93966 14.4962 9.90239L16.6738 8.45759L13.3837 10.3573C13.3234 10.3927 13.2515 10.4029 13.1837 10.3858C13.1159 10.3687 13.0575 10.3257 13.0211 10.2659C12.9847 10.2062 12.9733 10.1346 12.9892 10.0664C13.0052 9.99834 13.0473 9.93923 13.1064 9.90185L14.4546 9.03466L12.1613 10.3589C12.1313 10.377 12.0981 10.389 12.0635 10.3943C12.0288 10.3996 11.9935 10.3979 11.9595 10.3896C11.9255 10.3812 11.8935 10.3661 11.8653 10.3454C11.8371 10.3246 11.8133 10.2985 11.7952 10.2685C11.7771 10.2385 11.765 10.2053 11.7598 10.1707C11.7545 10.1361 11.7561 10.1007 11.7645 10.0667C11.7729 10.0327 11.7879 10.0007 11.8087 9.97252C11.8295 9.94433 11.8556 9.92049 11.8856 9.90239L12.6648 9.41012L11.02 10.3595C10.9598 10.3955 10.8879 10.4064 10.8198 10.3897C10.7517 10.3731 10.6928 10.3304 10.656 10.2707C10.6192 10.211 10.6074 10.1392 10.6231 10.0709C10.6388 10.0026 10.6808 9.94319 10.74 9.90559L16.0584 6.41226L9.2189 10.3616C9.15856 10.397 9.08673 10.4072 9.01891 10.3901C8.95108 10.373 8.89269 10.3299 8.85631 10.2702C8.81993 10.2105 8.80849 10.1388 8.82443 10.0707C8.84038 10.0026 8.88245 9.9435 8.94157 9.90612L13.8856 6.74079L7.61144 10.3627C7.5815 10.3809 7.54826 10.393 7.51363 10.3984C7.479 10.4037 7.44365 10.4022 7.4096 10.3939C7.37556 10.3856 7.34347 10.3707 7.31519 10.35C7.28691 10.3293 7.26298 10.3033 7.24477 10.2733C7.22656 10.2434 7.21443 10.2101 7.20906 10.1755C7.2037 10.1409 7.2052 10.1055 7.2135 10.0715C7.22179 10.0374 7.23672 10.0054 7.25741 9.97708C7.2781 9.94879 7.30416 9.92487 7.33411 9.90666L12.2866 6.74559L6.01784 10.3643C5.97799 10.3874 5.93275 10.3998 5.88664 10.4Z" fill="#5FC77D"/>
        <path d="M8.75975 10.4C8.70296 10.3999 8.64767 10.3817 8.60195 10.348C8.55623 10.3143 8.52246 10.2669 8.50556 10.2127C8.48866 10.1585 8.48951 10.1003 8.50798 10.0466C8.52646 9.99288 8.5616 9.94648 8.60828 9.91413L13.1229 6.7936L8.11601 9.68427C8.05653 9.71751 7.98657 9.72671 7.92051 9.71C7.85445 9.69328 7.7973 9.6519 7.76078 9.59437C7.72427 9.53683 7.71117 9.4675 7.72417 9.40061C7.73716 9.33372 7.77528 9.27434 7.83068 9.23467L12.3587 6.088L8.11601 8.53333C8.05603 8.56688 7.98542 8.57598 7.91889 8.55873C7.85237 8.54147 7.79507 8.4992 7.75896 8.44073C7.72284 8.38226 7.7107 8.3121 7.72505 8.24489C7.73941 8.17769 7.77916 8.11861 7.83601 8.08L8.97521 7.32747L8.11601 7.82293C8.0567 7.85677 7.98667 7.86656 7.92036 7.85029C7.85404 7.83403 7.79649 7.79294 7.75957 7.73551C7.72265 7.67807 7.70916 7.60866 7.72189 7.54157C7.73463 7.47449 7.77261 7.41485 7.82801 7.37493L10.1859 5.69387L8.11601 6.88853C8.05649 6.9227 7.98608 6.93259 7.91945 6.91616C7.85281 6.89973 7.79507 6.85824 7.75825 6.80033C7.72143 6.74241 7.70835 6.67253 7.72174 6.60522C7.73513 6.5379 7.77396 6.47835 7.83015 6.43893L10.4435 4.61973C10.4053 4.57623 10.3823 4.52148 10.378 4.46375C10.3736 4.40602 10.3882 4.34845 10.4195 4.29973L11.0776 3.2864C11.0208 3.26481 10.9732 3.22407 10.9432 3.1712C10.908 3.11 10.8985 3.03734 10.9168 2.96916C10.9351 2.90098 10.9797 2.84283 11.0408 2.80747L11.6552 2.45333C11.7071 2.42354 11.7674 2.41203 11.8266 2.42068C11.8858 2.42932 11.9403 2.4576 11.9815 2.50099C12.0227 2.54437 12.0481 2.60033 12.0536 2.65988C12.0591 2.71943 12.0445 2.77911 12.012 2.82933L11.4733 3.65653L13.5576 2.45333C13.6171 2.41961 13.6872 2.41 13.7535 2.42647C13.8198 2.44295 13.8773 2.48426 13.914 2.54188C13.9508 2.5995 13.964 2.66903 13.951 2.73612C13.9379 2.8032 13.8997 2.86273 13.844 2.9024L13.2947 3.2848L14.7347 2.45333C14.794 2.4195 14.864 2.40971 14.9303 2.42598C14.9967 2.44224 15.0542 2.48333 15.0911 2.54076C15.128 2.5982 15.1415 2.66761 15.1288 2.7347C15.1161 2.80178 15.0781 2.86142 15.0227 2.90133L12.6653 4.58187L16.3544 2.45333C16.4143 2.42111 16.4841 2.41295 16.5498 2.43052C16.6154 2.44809 16.6719 2.49006 16.7077 2.54787C16.7434 2.60567 16.7557 2.67495 16.7421 2.74153C16.7285 2.80812 16.69 2.867 16.6344 2.90613L15.5 3.65493L17.5837 2.45333C17.6431 2.42116 17.7125 2.41271 17.7778 2.42968C17.8432 2.44665 17.8997 2.48778 17.9359 2.54478C17.9721 2.60177 17.9853 2.67037 17.9729 2.73675C17.9605 2.80312 17.9234 2.86232 17.8691 2.9024L13.3411 6.05227L18.5464 3.04693C18.606 3.0133 18.6762 3.00384 18.7426 3.02052C18.8089 3.03721 18.8663 3.07875 18.9029 3.13656C18.9395 3.19438 18.9524 3.26403 18.9391 3.33113C18.9257 3.39823 18.8871 3.45764 18.8312 3.49707L14.3165 6.61707L18.8835 3.9808C18.9435 3.94861 19.0135 3.94057 19.0792 3.95833C19.1449 3.97609 19.2013 4.01831 19.2369 4.07633C19.2725 4.13435 19.2845 4.20379 19.2706 4.27041C19.2567 4.33703 19.2178 4.3958 19.1619 4.43467L18.6248 4.78347L19.1997 4.45227C19.2598 4.41921 19.3302 4.41053 19.3965 4.42802C19.4627 4.44552 19.5197 4.48785 19.5556 4.54623C19.5915 4.60461 19.6035 4.67456 19.5892 4.74157C19.5749 4.80859 19.5353 4.86751 19.4787 4.90613L19.1795 5.10133L19.5933 4.86293C19.6531 4.82886 19.7238 4.81922 19.7905 4.83603C19.8573 4.85285 19.9149 4.89482 19.9514 4.95316C19.988 5.01151 20.0005 5.08171 19.9864 5.14909C19.9724 5.21646 19.9328 5.27579 19.876 5.31467L18.7027 6.1056L20.1667 5.26027C20.2256 5.22678 20.295 5.21697 20.3609 5.23283C20.4268 5.24869 20.4841 5.28903 20.5213 5.34565C20.5585 5.40228 20.5728 5.47094 20.5612 5.5377C20.5496 5.60445 20.5131 5.66429 20.4589 5.70507L17.94 7.57333L21.3 5.6352C21.3595 5.60104 21.4299 5.59114 21.4966 5.60757C21.5632 5.624 21.621 5.66549 21.6578 5.72341C21.6946 5.78132 21.7077 5.85121 21.6943 5.91852C21.6809 5.98583 21.6421 6.04539 21.5859 6.0848L20.6067 6.76693L21.684 6.1456C21.7428 6.11192 21.8122 6.10188 21.8781 6.11751C21.944 6.13313 22.0015 6.17326 22.0389 6.22974C22.0763 6.28622 22.0908 6.35482 22.0795 6.4216C22.0682 6.48839 22.0318 6.54836 21.9779 6.58933L20.4845 7.71627L21.6899 7.02293C21.7475 6.98955 21.8156 6.97894 21.8806 6.9932C21.9457 7.00747 22.0031 7.04557 22.0415 7.10001C22.0799 7.15445 22.0965 7.22128 22.0881 7.28736C22.0797 7.35345 22.0468 7.41398 21.996 7.45707L20.8477 8.43573L21.6931 7.94773C21.7447 7.91812 21.8047 7.90662 21.8636 7.91507C21.9226 7.92352 21.9769 7.95143 22.0182 7.99436C22.0594 8.03729 22.085 8.09277 22.0911 8.15198C22.0971 8.21118 22.0832 8.2707 22.0515 8.32107L21.4013 9.34667L21.6984 9.17547C21.7288 9.15617 21.7627 9.14322 21.7982 9.13738C21.8337 9.13154 21.87 9.13295 21.9049 9.1415C21.9398 9.15006 21.9727 9.16559 22.0015 9.18717C22.0302 9.20875 22.0543 9.23592 22.0723 9.26706C22.0903 9.2982 22.1019 9.33265 22.1062 9.36836C22.1105 9.40406 22.1076 9.44027 22.0976 9.47481C22.0876 9.50935 22.0707 9.54151 22.0479 9.56935C22.0251 9.59719 21.9969 9.62013 21.9651 9.6368L20.7283 10.3509C20.6767 10.3806 20.6166 10.392 20.5577 10.3836C20.4988 10.3751 20.4444 10.3472 20.4032 10.3043C20.362 10.2614 20.3363 10.2059 20.3303 10.1467C20.3242 10.0875 20.3382 10.028 20.3699 9.9776L21.0205 8.95147L18.5901 10.352C18.5326 10.3847 18.4649 10.3949 18.4003 10.3804C18.3357 10.366 18.2787 10.3281 18.2405 10.274C18.2023 10.2199 18.1856 10.1535 18.1937 10.0878C18.2017 10.0221 18.2339 9.96169 18.284 9.9184L19.4333 8.93814L16.98 10.3536C16.9213 10.3866 16.8522 10.3961 16.7867 10.3802C16.7213 10.3644 16.6642 10.3243 16.6271 10.2681C16.5899 10.2119 16.5754 10.1437 16.5865 10.0773C16.5975 10.0108 16.6333 9.951 16.6867 9.90987L18.18 8.78507L15.46 10.3557C15.4005 10.3899 15.3301 10.3998 15.2634 10.3834C15.1968 10.3669 15.1391 10.3254 15.1023 10.2675C15.0654 10.2096 15.0523 10.1397 15.0657 10.0724C15.0791 10.0051 15.118 9.94555 15.1741 9.90613L16.1539 9.22293L14.1875 10.3573C14.1286 10.3908 14.0591 10.4006 13.9933 10.3848C13.9274 10.3689 13.87 10.3286 13.8328 10.2719C13.7956 10.2153 13.7814 10.1467 13.7929 10.0799C13.8045 10.0131 13.8411 9.95331 13.8952 9.91254L16.4173 8.04107L12.4019 10.3589C12.3421 10.393 12.2714 10.4027 12.2047 10.3858C12.1379 10.369 12.0803 10.327 12.0438 10.2687C12.0073 10.2104 11.9947 10.1402 12.0088 10.0728C12.0229 10.0054 12.0624 9.94608 12.1192 9.9072L13.2925 9.11467L11.1347 10.3605C11.0745 10.3955 11.003 10.4056 10.9355 10.3886C10.868 10.3716 10.8098 10.3289 10.7734 10.2695C10.7369 10.2102 10.7252 10.139 10.7406 10.0711C10.756 10.0031 10.7973 9.94396 10.8557 9.90613L11.148 9.7152L10.028 10.3621C9.96789 10.3957 9.8971 10.4048 9.83047 10.3873C9.76384 10.3699 9.70654 10.3274 9.67056 10.2687C9.63458 10.2099 9.62272 10.1396 9.63745 10.0723C9.65219 10.005 9.69238 9.94604 9.74961 9.90773L10.2867 9.55947L8.89361 10.3632C8.85308 10.3872 8.80686 10.3999 8.75975 10.4Z" fill="#6DE08E"/>
        <path d="M14.8381 8.2464C14.7862 8.24643 14.7353 8.23128 14.6919 8.20281C14.6484 8.17434 14.6142 8.13379 14.5935 8.08614C14.5727 8.0385 14.5664 7.98583 14.5752 7.93461C14.5839 7.8834 14.6075 7.83587 14.6429 7.79786L15.0659 7.344L14.0941 7.904C14.0366 7.93621 13.9692 7.94596 13.9048 7.93135C13.8405 7.91675 13.7839 7.87883 13.7459 7.82493C13.7079 7.77102 13.6913 7.70495 13.6991 7.63948C13.707 7.574 13.7389 7.51376 13.7885 7.4704L13.884 7.3888L13.7069 7.4912C13.6512 7.52335 13.5858 7.53428 13.5226 7.52197C13.4595 7.50966 13.4029 7.47494 13.3634 7.42421C13.3238 7.37348 13.3039 7.31016 13.3074 7.24593C13.3108 7.18169 13.3374 7.12086 13.3821 7.07466L14.1901 6.2448L13.452 6.67146C13.3974 6.70288 13.3334 6.71392 13.2714 6.70265C13.2094 6.69137 13.1534 6.65849 13.1133 6.60985C13.0732 6.56121 13.0517 6.49995 13.0525 6.43693C13.0532 6.37392 13.0763 6.31322 13.1176 6.2656L13.5891 5.72373C13.5344 5.71565 13.4835 5.69075 13.4436 5.6525C13.4037 5.61425 13.3766 5.56452 13.3662 5.51022C13.3558 5.45591 13.3625 5.3997 13.3854 5.34938C13.4083 5.29906 13.4463 5.2571 13.4941 5.22933L14.5875 4.59786C14.6421 4.56645 14.7061 4.5554 14.7681 4.56668C14.8301 4.57796 14.8861 4.61084 14.9262 4.65948C14.9663 4.70812 14.9878 4.76938 14.987 4.83239C14.9862 4.89541 14.9632 4.95611 14.9219 5.00373L14.5672 5.41173L15.5933 4.8192C15.6491 4.78743 15.7143 4.7768 15.7773 4.78926C15.8402 4.80172 15.8965 4.83643 15.9359 4.88704C15.9753 4.93764 15.9951 5.00074 15.9917 5.06479C15.9884 5.12883 15.9621 5.18952 15.9176 5.23573L15.1091 6.06666L16.1757 5.4512C16.2333 5.41899 16.3007 5.40924 16.365 5.42384C16.4294 5.43845 16.486 5.47636 16.524 5.53027C16.562 5.58417 16.5786 5.65024 16.5708 5.71572C16.5629 5.7812 16.531 5.84143 16.4813 5.8848L16.3747 5.97653C16.4305 5.95531 16.4918 5.95343 16.5488 5.9712C16.6058 5.98897 16.6552 6.02535 16.6891 6.07453C16.7229 6.1237 16.7393 6.18282 16.7356 6.24241C16.7319 6.302 16.7083 6.35862 16.6685 6.4032L16.2275 6.87626C16.2903 6.85781 16.3577 6.86309 16.4168 6.89112C16.476 6.91914 16.5228 6.96795 16.5483 7.02823C16.5738 7.08852 16.5762 7.15608 16.5551 7.21805C16.534 7.28001 16.4909 7.33206 16.4339 7.36426L14.9715 8.21333C14.9307 8.23581 14.8847 8.24721 14.8381 8.2464Z" fill="#5FC77D"/>
        <path d="M32.0898 18.592C32.005 18.4011 31.8734 18.2346 31.7073 18.1079C31.5413 17.9811 31.346 17.8982 31.1394 17.8667V11.9179C31.1394 11.2245 31.1954 10.5131 30.5528 10.0635C29.8952 9.60212 28.7928 9.77012 27.9693 9.80639C28.325 6.23305 28.1144 5.06345 24.2045 5.55999C24.0445 4.18025 24.8146 1.78612 24.0253 0.540785C23.5224 -0.0624152 22.2066 0.213318 21.5389 0.213318H8.29945C7.65945 0.213318 6.29678 -0.0576152 5.79278 0.515185C4.98905 1.75998 5.76078 4.19198 5.59385 5.56052C3.69998 5.35305 0.975714 5.44905 0.802381 7.84959C0.549581 12.0976 0.799714 16.5104 0.713314 20.8123C0.713314 23.23 0.713314 25.6467 0.713314 28.0624C0.713314 29.488 0.706381 31.0075 2.34638 31.5771C5.86958 32.0037 9.52398 31.5515 13.0856 31.7061H28.6744C29.901 31.7061 30.8488 31.7595 31.2189 30.3499C31.7298 28.4091 31.2621 25.7552 31.2258 23.6901C32.0712 23.3899 32.1784 22.7003 32.2093 21.7963C32.2402 20.9157 32.4786 19.4395 32.0898 18.592ZM26.1778 6.16532C27.9405 6.69865 27.2909 8.41919 27.4978 9.85332C26.3778 9.85759 25.3288 9.71305 24.2061 9.73225V6.15892C24.8598 6.05983 25.5249 6.06163 26.1778 6.16532ZM6.07118 1.17652C6.51705 0.505052 8.28665 0.853318 9.01411 0.853318H20.7474C21.3976 0.853318 23.2541 0.498118 23.7272 1.09225C24.252 1.85918 23.6797 4.91892 23.7272 5.82772C23.7061 5.89381 23.7061 5.96483 23.7272 6.03092V9.73172C23.2027 9.72958 22.6779 9.73279 22.1528 9.74132V7.11999C22.1821 6.60479 22.2402 5.91732 21.6616 5.67999C21.0749 5.37598 20.5074 5.34878 19.9464 4.89918C19.172 4.03198 19.2834 2.69812 18.0829 2.42665C17.1304 2.21332 15.8802 2.42665 14.9096 2.42665C13.8673 2.34025 12.8196 2.34025 11.7773 2.42665C10.5 2.65385 10.6888 3.97865 9.84771 4.89599C9.21731 5.47039 8.24505 5.34558 7.72185 6.03625C7.50531 7.26612 7.71811 8.57865 7.64718 9.83412C7.12238 9.83412 6.59758 9.83412 6.07278 9.83412V5.90612C6.09659 5.8343 6.0947 5.75644 6.06745 5.68585C6.01358 4.58932 5.57731 1.92638 6.07278 1.17705L6.07118 1.17652ZM8.28665 6.42665C8.41891 6.08265 8.89785 6.02879 9.19331 5.89332C9.61892 5.71598 10.0155 5.47579 10.3698 5.18078C11.0098 4.49758 11.2066 3.15412 11.973 2.90505C12.6968 2.66825 13.9464 2.90505 14.7021 2.90505C15.8344 2.83705 16.9698 2.83705 18.1021 2.90505C18.357 3.06132 19.077 4.81705 19.4306 5.16745C19.7287 5.44133 20.0714 5.66212 20.444 5.82025C20.7554 5.95145 21.3848 6.05972 21.5138 6.37812C21.6034 7.47305 21.4605 8.64212 21.5138 9.75092C17.0872 9.88319 12.7048 9.81865 8.28718 9.83252C8.33998 8.71465 8.20078 7.53012 8.28665 6.42665ZM3.54531 6.16585C4.22578 6.08459 4.91334 6.08209 5.59438 6.15838V9.85225C1.91278 10.4827 -0.790153 7.83998 3.54531 6.16585ZM30.58 29.3413C30.4376 31.1339 29.8205 31.2272 28.261 31.2272C19.9805 31.1339 11.6098 31.3675 3.36665 31.2272C2.48459 30.7778 1.77651 30.0485 1.35331 29.1536C1.28104 28.5781 1.28104 27.9958 1.35331 27.4203V9.62719C2.63971 11.0736 6.18105 10.4325 7.78158 10.4325H27.6056C28.5026 10.5104 30.2189 10.032 30.6605 11.2048C30.789 13.3632 30.5805 15.6277 30.6605 17.8101C30.1272 17.8021 29.6205 17.8304 29.0941 17.8101C30.1997 10.0267 26.7357 12.0565 21.0813 12.0261H9.33678C1.79918 11.192 2.35865 12.2491 2.84931 19.1728C2.95598 22.1648 2.66478 25.2299 2.84931 28.2037C3.23971 29.992 5.06371 29.576 6.49785 29.576H17.62C20.748 29.576 24.4168 30.112 27.5096 29.576C29.9138 29.1589 29.1901 25.9136 29.0968 23.8773C29.6301 23.8421 30.1368 23.8037 30.5901 23.7899C30.5986 25.6272 30.7256 27.5147 30.58 29.3413ZM28.4658 23.9136C28.5725 25.7856 29.1128 28.6677 27.0984 29.0928C24.9752 29.5413 22.2557 29.0928 20.0946 29.0928H9.79331C8.38691 29.0928 5.55971 29.6613 4.24131 29.0928C2.64131 28.3995 3.48398 23.4848 3.48398 22.1664C3.61891 19.3968 3.24345 16.4933 3.48398 13.7541C3.97518 11.9232 6.00665 12.5072 7.56558 12.5072H26.565C29.3917 12.0315 28.4589 15.9984 28.4573 17.7968C27.6786 17.7649 26.8988 17.772 26.1208 17.8181C23.4269 18.0229 22.029 21.5365 24.4077 23.2443C25.4066 23.9605 26.9778 23.9909 28.4658 23.9136ZM30.892 23.1515C28.7506 22.8725 25.213 24.0315 23.9378 21.8331C23.0573 20.0597 24.5917 18.5536 26.2845 18.4485C27.7005 18.5099 29.2712 18.2661 30.6637 18.4485C31.74 18.7787 31.7229 19.4512 31.7229 20.3685C31.724 21.1776 32.0829 22.9115 30.892 23.1515Z" fill="#262626"/>
        <path d="M14.8078 8.26667C17.163 8.25387 17.5518 4.83254 15.1118 4.55041C12.6163 4.40747 12.1939 8.12374 14.8078 8.26667ZM14.8078 5.06667C16.4611 5.06134 16.7326 7.63841 14.9923 7.73334C13.3619 7.73814 13.0776 5.16054 14.8078 5.06667Z" fill="#262626"/>
        <path d="M26.6653 20.5557C26.2328 20.6427 25.4765 20.3243 25.2515 20.8053C25.3635 21.2773 26.2248 20.9541 26.6008 21.0448C26.9709 21.0597 27.1043 20.56 26.6653 20.5557Z" fill="#262626"/>
    </g>
    <defs>
        <clipPath id="clip0_1_1259">
            <rect width="32" height="32" fill="white" transform="translate(0.5)"/>
        </clipPath>
    </defs>
</svg>
