<svg width="35" height="27" viewBox="0 0 35 27" fill="none" xmlns="http://www.w3.org/2000/svg">
    <path fill-rule="evenodd" clip-rule="evenodd" d="M17.3696 2.90175C17.3696 4.42549 16.1374 5.66073 14.6175 5.66073C13.0976 5.66073 11.8654 4.42549 11.8654 2.90175C11.8654 1.378 13.0976 0.142761 14.6175 0.142761C16.1374 0.142761 17.3696 1.378 17.3696 2.90175ZM19.5101 22.8278C27.4605 22.8278 34.4935 16.6967 34.4935 10.5656C34.4935 8.75524 33.4357 9.08698 31.4961 9.69526C28.7719 10.5496 24.3083 11.9494 18.5927 8.72632C14.9176 6.63958 11.3462 6.4602 8.80759 7.56113V6.58031C8.80759 4.37312 7.03404 2.59511 4.83238 2.59511C2.63073 2.59511 0.857178 4.37312 0.857178 6.58031V8.78749C0.857178 11.3625 1.34643 13.815 2.26379 16.2061L3.2423 18.5972C3.30346 18.7198 3.30346 18.7812 3.30346 18.9038C3.30346 19.3943 2.93652 19.7621 2.44726 19.7621H2.08032C1.40759 19.7621 0.857178 20.3139 0.857178 20.9883C0.857178 21.6628 1.40759 22.2146 2.08032 22.2146H2.44726C4.28197 22.2146 5.74974 20.7431 5.74974 18.9038C5.74974 18.5359 5.68858 18.1067 5.50511 17.6776L4.5266 15.2864C3.73156 13.2019 3.30346 10.9947 3.30346 8.78749V6.58031C3.30346 5.72196 3.97619 5.04754 4.83238 5.04754C5.68858 5.04754 6.36131 5.72196 6.36131 6.58031V9.39937C5.58229 10.3817 5.13817 11.6125 5.13817 13.0181C5.13817 18.4134 11.5597 22.8278 19.5101 22.8278ZM25.32 24.054C25.32 25.5868 22.568 26.5065 17.6754 26.5065C12.7829 26.5065 8.80765 24.3606 8.80765 22.8278C8.80765 21.984 10.105 22.255 12.0874 22.6692C13.7063 23.0073 15.7819 23.4409 17.9812 23.4409C19.5752 23.4409 20.9095 23.3433 21.9842 23.2647H21.9842C24.2081 23.102 25.32 23.0206 25.32 24.054Z" fill="white"/>
</svg>
